<svg xmlns="http://www.w3.org/2000/svg" width="400" height="400" viewBox="0 0 400 400">
  <rect width="400" height="400" fill="#f8f4ec"/>
  <!-- trunk -->
  <line x1="200" y1="375" x2="200" y2="305" stroke="#c45e2a" stroke-width="4.0" stroke-linecap="round"/>
  <!-- level 1 -->
  <line x1="200" y1="305" x2="158" y2="248" stroke="#c45e2a" stroke-width="3.2" stroke-linecap="round"/>
  <line x1="200" y1="305" x2="246" y2="252" stroke="#c45e2a" stroke-width="3.2" stroke-linecap="round"/>
  <!-- level 2 left subtree -->
  <line x1="158" y1="248" x2="118" y2="193" stroke="#c45e2a" stroke-width="2.5" stroke-linecap="round"/>
  <line x1="158" y1="248" x2="176" y2="190" stroke="#c45e2a" stroke-width="2.5" stroke-linecap="round"/>
  <!-- level 2 right subtree -->
  <line x1="246" y1="252" x2="222" y2="192" stroke="#c45e2a" stroke-width="2.5" stroke-linecap="round"/>
  <line x1="246" y1="252" x2="272" y2="192" stroke="#c45e2a" stroke-width="2.5" stroke-linecap="round"/>
  <!-- level 3 -->
  <line x1="118" y1="193" x2="93"  y2="145" stroke="#c45e2a" stroke-width="1.8" stroke-linecap="round"/>
  <line x1="118" y1="193" x2="132" y2="142" stroke="#c45e2a" stroke-width="1.8" stroke-linecap="round"/>
  <line x1="176" y1="190" x2="160" y2="140" stroke="#c45e2a" stroke-width="1.8" stroke-linecap="round"/>
  <line x1="176" y1="190" x2="188" y2="138" stroke="#c45e2a" stroke-width="1.8" stroke-linecap="round"/>
  <line x1="222" y1="192" x2="208" y2="140" stroke="#c45e2a" stroke-width="1.8" stroke-linecap="round"/>
  <line x1="222" y1="192" x2="232" y2="138" stroke="#c45e2a" stroke-width="1.8" stroke-linecap="round"/>
  <line x1="272" y1="192" x2="255" y2="140" stroke="#c45e2a" stroke-width="1.8" stroke-linecap="round"/>
  <line x1="272" y1="192" x2="296" y2="143" stroke="#c45e2a" stroke-width="1.8" stroke-linecap="round"/>
  <!-- level 4 -->
  <line x1="93"  y1="145" x2="76"  y2="105" stroke="#c45e2a" stroke-width="1.2" stroke-linecap="round"/>
  <line x1="93"  y1="145" x2="104" y2="102" stroke="#c45e2a" stroke-width="1.2" stroke-linecap="round"/>
  <line x1="132" y1="142" x2="120" y2="100" stroke="#c45e2a" stroke-width="1.2" stroke-linecap="round"/>
  <line x1="132" y1="142" x2="144" y2="98"  stroke="#c45e2a" stroke-width="1.2" stroke-linecap="round"/>
  <line x1="160" y1="140" x2="150" y2="98"  stroke="#c45e2a" stroke-width="1.2" stroke-linecap="round"/>
  <line x1="160" y1="140" x2="168" y2="96"  stroke="#c45e2a" stroke-width="1.2" stroke-linecap="round"/>
  <line x1="188" y1="138" x2="180" y2="95"  stroke="#c45e2a" stroke-width="1.2" stroke-linecap="round"/>
  <line x1="188" y1="138" x2="198" y2="93"  stroke="#c45e2a" stroke-width="1.2" stroke-linecap="round"/>
  <line x1="208" y1="140" x2="198" y2="96"  stroke="#c45e2a" stroke-width="1.2" stroke-linecap="round"/>
  <line x1="208" y1="140" x2="218" y2="94"  stroke="#c45e2a" stroke-width="1.2" stroke-linecap="round"/>
  <line x1="232" y1="138" x2="224" y2="95"  stroke="#c45e2a" stroke-width="1.2" stroke-linecap="round"/>
  <line x1="232" y1="138" x2="244" y2="93"  stroke="#c45e2a" stroke-width="1.2" stroke-linecap="round"/>
  <line x1="255" y1="140" x2="244" y2="98"  stroke="#c45e2a" stroke-width="1.2" stroke-linecap="round"/>
  <line x1="255" y1="140" x2="266" y2="97"  stroke="#c45e2a" stroke-width="1.2" stroke-linecap="round"/>
  <line x1="296" y1="143" x2="282" y2="102" stroke="#c45e2a" stroke-width="1.2" stroke-linecap="round"/>
  <line x1="296" y1="143" x2="311" y2="104" stroke="#c45e2a" stroke-width="1.2" stroke-linecap="round"/>
  <!-- level 5 tips -->
  <line x1="76"  y1="105" x2="68"  y2="72"  stroke="#c45e2a" stroke-width="0.7" stroke-linecap="round"/>
  <line x1="104" y1="102" x2="98"  y2="68"  stroke="#c45e2a" stroke-width="0.7" stroke-linecap="round"/>
  <line x1="120" y1="100" x2="113" y2="66"  stroke="#c45e2a" stroke-width="0.7" stroke-linecap="round"/>
  <line x1="144" y1="98"  x2="140" y2="63"  stroke="#c45e2a" stroke-width="0.7" stroke-linecap="round"/>
  <line x1="150" y1="98"  x2="144" y2="64"  stroke="#c45e2a" stroke-width="0.7" stroke-linecap="round"/>
  <line x1="168" y1="96"  x2="163" y2="61"  stroke="#c45e2a" stroke-width="0.7" stroke-linecap="round"/>
  <line x1="180" y1="95"  x2="175" y2="60"  stroke="#c45e2a" stroke-width="0.7" stroke-linecap="round"/>
  <line x1="198" y1="93"  x2="194" y2="58"  stroke="#c45e2a" stroke-width="0.7" stroke-linecap="round"/>
  <line x1="198" y1="96"  x2="194" y2="61"  stroke="#c45e2a" stroke-width="0.7" stroke-linecap="round"/>
  <line x1="218" y1="94"  x2="215" y2="59"  stroke="#c45e2a" stroke-width="0.7" stroke-linecap="round"/>
  <line x1="224" y1="95"  x2="220" y2="60"  stroke="#c45e2a" stroke-width="0.7" stroke-linecap="round"/>
  <line x1="244" y1="93"  x2="241" y2="58"  stroke="#c45e2a" stroke-width="0.7" stroke-linecap="round"/>
  <line x1="244" y1="98"  x2="239" y2="63"  stroke="#c45e2a" stroke-width="0.7" stroke-linecap="round"/>
  <line x1="266" y1="97"  x2="263" y2="62"  stroke="#c45e2a" stroke-width="0.7" stroke-linecap="round"/>
  <line x1="282" y1="102" x2="277" y2="67"  stroke="#c45e2a" stroke-width="0.7" stroke-linecap="round"/>
  <line x1="311" y1="104" x2="309" y2="69"  stroke="#c45e2a" stroke-width="0.7" stroke-linecap="round"/>
</svg>
