<svg xmlns="http://www.w3.org/2000/svg" viewBox="0 0 800 800" width="800" height="800">
  <rect x="0.00" y="0.00" width="79.96" height="57.29" fill="#c2644f" stroke="#1a1a1a" stroke-width="1.5"/>
  <rect x="0.00" y="57.29" width="79.96" height="45.02" fill="#c2644f" stroke="#1a1a1a" stroke-width="1.5"/>
  <rect x="79.96" y="0.00" width="79.28" height="102.31" fill="#4a6fa5" stroke="#1a1a1a" stroke-width="1.5"/>
  <rect x="0.00" y="102.31" width="99.33" height="140.46" fill="#8fad75" stroke="#1a1a1a" stroke-width="1.5"/>
  <rect x="0.00" y="242.77" width="99.33" height="85.24" fill="#5c5c5c" stroke="#1a1a1a" stroke-width="1.5"/>
  <rect x="99.33" y="102.31" width="59.91" height="225.70" fill="#d4a853" stroke="#1a1a1a" stroke-width="1.5"/>
  <rect x="159.24" y="0.00" width="316.43" height="75.86" fill="#ede7d9" stroke="#1a1a1a" stroke-width="1.5"/>
  <rect x="159.24" y="75.86" width="316.43" height="148.13" fill="#4a6fa5" stroke="#1a1a1a" stroke-width="1.5"/>
  <rect x="159.24" y="223.99" width="316.43" height="104.02" fill="#f5f0e8" stroke="#1a1a1a" stroke-width="1.5"/>
  <rect x="475.67" y="0.00" width="324.33" height="328.01" fill="#5c5c5c" stroke="#1a1a1a" stroke-width="1.5"/>
  <rect x="0.00" y="328.01" width="348.35" height="471.99" fill="#5c5c5c" stroke="#1a1a1a" stroke-width="1.5"/>
  <rect x="348.35" y="328.01" width="203.05" height="471.99" fill="#5c5c5c" stroke="#1a1a1a" stroke-width="1.5"/>
  <rect x="551.40" y="328.01" width="97.73" height="63.28" fill="#8fad75" stroke="#1a1a1a" stroke-width="1.5"/>
  <rect x="551.40" y="391.29" width="97.73" height="50.89" fill="#8fad75" stroke="#1a1a1a" stroke-width="1.5"/>
  <rect x="649.13" y="328.01" width="150.87" height="43.82" fill="#c2644f" stroke="#1a1a1a" stroke-width="1.5"/>
  <rect x="649.13" y="371.83" width="150.87" height="70.35" fill="#c2644f" stroke="#1a1a1a" stroke-width="1.5"/>
  <rect x="551.40" y="442.18" width="167.72" height="160.44" fill="#f5f0e8" stroke="#1a1a1a" stroke-width="1.5"/>
  <rect x="719.12" y="442.18" width="80.88" height="160.44" fill="#4a6fa5" stroke="#1a1a1a" stroke-width="1.5"/>
  <rect x="551.40" y="602.63" width="90.83" height="137.33" fill="#4a6fa5" stroke="#1a1a1a" stroke-width="1.5"/>
  <rect x="551.40" y="739.96" width="90.83" height="60.04" fill="#4a6fa5" stroke="#1a1a1a" stroke-width="1.5"/>
  <rect x="642.23" y="602.63" width="157.77" height="197.37" fill="#5c5c5c" stroke="#1a1a1a" stroke-width="1.5"/>
</svg>