<svg xmlns="http://www.w3.org/2000/svg" width="400" height="400" viewBox="0 0 400 400">
  <defs>
    <!-- One radialGradient glow per ant, centered at the ant's starting quadrant. -->
    <radialGradient id="ga" cx="100" cy="100" r="140" gradientUnits="userSpaceOnUse">
      <stop offset="0%"   stop-color="#e88820" stop-opacity="0.95"/>
      <stop offset="45%"  stop-color="#e88820" stop-opacity="0.35"/>
      <stop offset="100%" stop-color="#050508"  stop-opacity="0"/>
    </radialGradient>
    <radialGradient id="gb" cx="300" cy="100" r="140" gradientUnits="userSpaceOnUse">
      <stop offset="0%"   stop-color="#20c8e8" stop-opacity="0.95"/>
      <stop offset="45%"  stop-color="#20c8e8" stop-opacity="0.35"/>
      <stop offset="100%" stop-color="#050508"  stop-opacity="0"/>
    </radialGradient>
    <radialGradient id="gc" cx="100" cy="300" r="140" gradientUnits="userSpaceOnUse">
      <stop offset="0%"   stop-color="#30c840" stop-opacity="0.95"/>
      <stop offset="45%"  stop-color="#30c840" stop-opacity="0.35"/>
      <stop offset="100%" stop-color="#050508"  stop-opacity="0"/>
    </radialGradient>
    <radialGradient id="gd" cx="300" cy="300" r="140" gradientUnits="userSpaceOnUse">
      <stop offset="0%"   stop-color="#a050e8" stop-opacity="0.95"/>
      <stop offset="45%"  stop-color="#a050e8" stop-opacity="0.35"/>
      <stop offset="100%" stop-color="#050508"  stop-opacity="0"/>
    </radialGradient>
    <radialGradient id="ge" cx="200" cy="200" r="90" gradientUnits="userSpaceOnUse">
      <stop offset="0%"   stop-color="#e85090" stop-opacity="0.95"/>
      <stop offset="50%"  stop-color="#e85090" stop-opacity="0.30"/>
      <stop offset="100%" stop-color="#050508"  stop-opacity="0"/>
    </radialGradient>
  </defs>

  <!-- Background -->
  <rect width="400" height="400" fill="#050508"/>

  <!-- Per-ant glow regions -->
  <rect width="400" height="400" fill="url(#ga)"/>
  <rect width="400" height="400" fill="url(#gb)"/>
  <rect width="400" height="400" fill="url(#gc)"/>
  <rect width="400" height="400" fill="url(#gd)"/>
  <rect width="400" height="400" fill="url(#ge)"/>

  <!-- Amber ant (RL) — chaotic core then diagonal highway toward upper-right -->
  <g fill="#e88820">
    <rect x="86"  y="86"  width="4" height="4"/>
    <rect x="90"  y="82"  width="4" height="4"/>
    <rect x="86"  y="90"  width="4" height="4"/>
    <rect x="94"  y="86"  width="4" height="4"/>
    <rect x="90"  y="78"  width="4" height="4"/>
    <rect x="96"  y="74"  width="4" height="4"/>
    <rect x="100" y="70"  width="4" height="4"/>
    <rect x="106" y="64"  width="4" height="4"/>
    <rect x="112" y="58"  width="4" height="4"/>
    <rect x="118" y="52"  width="4" height="4"/>
    <rect x="124" y="46"  width="4" height="4"/>
    <rect x="130" y="40"  width="4" height="4"/>
    <rect x="82"  y="94"  width="4" height="4"/>
    <rect x="78"  y="100" width="4" height="4"/>
    <rect x="74"  y="106" width="4" height="4"/>
    <rect x="70"  y="112" width="4" height="4"/>
  </g>
  <g fill="#c86000" opacity="0.7">
    <rect x="84"  y="84"  width="4" height="4"/>
    <rect x="92"  y="88"  width="4" height="4"/>
    <rect x="88"  y="96"  width="4" height="4"/>
    <rect x="96"  y="92"  width="4" height="4"/>
    <rect x="80"  y="88"  width="4" height="4"/>
    <rect x="88"  y="80"  width="4" height="4"/>
  </g>

  <!-- Cyan ant (RLR) — swirling spiral pattern, upper-right -->
  <g fill="#20c8e8">
    <rect x="286" y="86"  width="4" height="4"/>
    <rect x="294" y="82"  width="4" height="4"/>
    <rect x="298" y="90"  width="4" height="4"/>
    <rect x="290" y="94"  width="4" height="4"/>
    <rect x="302" y="86"  width="4" height="4"/>
    <rect x="306" y="78"  width="4" height="4"/>
    <rect x="310" y="70"  width="4" height="4"/>
    <rect x="310" y="94"  width="4" height="4"/>
    <rect x="314" y="86"  width="4" height="4"/>
    <rect x="282" y="94"  width="4" height="4"/>
    <rect x="278" y="102" width="4" height="4"/>
    <rect x="274" y="110" width="4" height="4"/>
    <rect x="282" y="78"  width="4" height="4"/>
    <rect x="278" y="70"  width="4" height="4"/>
  </g>
  <g fill="#008ab0" opacity="0.7">
    <rect x="288" y="84"  width="4" height="4"/>
    <rect x="296" y="88"  width="4" height="4"/>
    <rect x="292" y="96"  width="4" height="4"/>
    <rect x="300" y="92"  width="4" height="4"/>
    <rect x="284" y="92"  width="4" height="4"/>
    <rect x="292" y="80"  width="4" height="4"/>
  </g>

  <!-- Green ant (LLRR) — symmetric blocky pattern, lower-left -->
  <g fill="#30c840">
    <rect x="86"  y="286" width="4" height="4"/>
    <rect x="90"  y="294" width="4" height="4"/>
    <rect x="82"  y="294" width="4" height="4"/>
    <rect x="90"  y="282" width="4" height="4"/>
    <rect x="82"  y="282" width="4" height="4"/>
    <rect x="94"  y="298" width="4" height="4"/>
    <rect x="78"  y="298" width="4" height="4"/>
    <rect x="94"  y="278" width="4" height="4"/>
    <rect x="78"  y="278" width="4" height="4"/>
    <rect x="98"  y="306" width="4" height="4"/>
    <rect x="74"  y="306" width="4" height="4"/>
    <rect x="98"  y="270" width="4" height="4"/>
    <rect x="74"  y="270" width="4" height="4"/>
    <rect x="86"  y="302" width="4" height="4"/>
    <rect x="86"  y="274" width="4" height="4"/>
  </g>
  <g fill="#108828" opacity="0.7">
    <rect x="84"  y="284" width="4" height="4"/>
    <rect x="92"  y="288" width="4" height="4"/>
    <rect x="88"  y="296" width="4" height="4"/>
    <rect x="80"  y="288" width="4" height="4"/>
    <rect x="88"  y="280" width="4" height="4"/>
  </g>

  <!-- Violet ant (RLLR) — expanding rectangular pattern, lower-right -->
  <g fill="#a050e8">
    <rect x="286" y="286" width="4" height="4"/>
    <rect x="294" y="294" width="4" height="4"/>
    <rect x="278" y="294" width="4" height="4"/>
    <rect x="294" y="278" width="4" height="4"/>
    <rect x="278" y="278" width="4" height="4"/>
    <rect x="302" y="302" width="4" height="4"/>
    <rect x="270" y="302" width="4" height="4"/>
    <rect x="302" y="270" width="4" height="4"/>
    <rect x="270" y="270" width="4" height="4"/>
    <rect x="310" y="310" width="4" height="4"/>
    <rect x="262" y="310" width="4" height="4"/>
    <rect x="310" y="262" width="4" height="4"/>
    <rect x="262" y="262" width="4" height="4"/>
    <rect x="286" y="302" width="4" height="4"/>
    <rect x="286" y="270" width="4" height="4"/>
    <rect x="302" y="286" width="4" height="4"/>
    <rect x="270" y="286" width="4" height="4"/>
  </g>
  <g fill="#6820b8" opacity="0.7">
    <rect x="284" y="284" width="4" height="4"/>
    <rect x="292" y="288" width="4" height="4"/>
    <rect x="288" y="296" width="4" height="4"/>
    <rect x="280" y="288" width="4" height="4"/>
    <rect x="288" y="280" width="4" height="4"/>
  </g>

  <!-- Rose ant (LRRL) — center, expanding outward -->
  <g fill="#e85090">
    <rect x="196" y="196" width="4" height="4"/>
    <rect x="204" y="196" width="4" height="4"/>
    <rect x="196" y="204" width="4" height="4"/>
    <rect x="204" y="204" width="4" height="4"/>
    <rect x="200" y="190" width="4" height="4"/>
    <rect x="200" y="210" width="4" height="4"/>
    <rect x="190" y="200" width="4" height="4"/>
    <rect x="210" y="200" width="4" height="4"/>
    <rect x="192" y="192" width="4" height="4"/>
    <rect x="208" y="192" width="4" height="4"/>
    <rect x="192" y="208" width="4" height="4"/>
    <rect x="208" y="208" width="4" height="4"/>
    <rect x="200" y="184" width="4" height="4"/>
    <rect x="200" y="216" width="4" height="4"/>
    <rect x="184" y="200" width="4" height="4"/>
    <rect x="216" y="200" width="4" height="4"/>
  </g>
  <g fill="#a82060" opacity="0.7">
    <rect x="194" y="194" width="4" height="4"/>
    <rect x="206" y="194" width="4" height="4"/>
    <rect x="194" y="206" width="4" height="4"/>
    <rect x="206" y="206" width="4" height="4"/>
    <rect x="200" y="194" width="4" height="4"/>
  </g>
</svg>
