<svg xmlns="http://www.w3.org/2000/svg" width="400" height="400" viewBox="0 0 400 400">
<defs>
<radialGradient id="fog" cx="50%" cy="50%" r="62%">
  <stop offset="0%"   stop-color="#080618" stop-opacity="0"/>
  <stop offset="100%" stop-color="#080618" stop-opacity="0.90"/>
</radialGradient>
<radialGradient id="glow" cx="50%" cy="50%" r="38%">
  <stop offset="0%"   stop-color="#c88010" stop-opacity="0.22"/>
  <stop offset="100%" stop-color="#c88010" stop-opacity="0"/>
</radialGradient>
</defs>
<rect width="400" height="400" fill="#080618"/>
<ellipse cx="200.0" cy="113.3" rx="4.8" ry="4.3" fill="none" stroke="#281d1b" stroke-width="3.6" opacity="0.18"/>
<ellipse cx="181.9" cy="115.1" rx="5.1" ry="4.6" fill="none" stroke="#2b201b" stroke-width="3.8" opacity="0.19"/>
<ellipse cx="218.1" cy="115.1" rx="5.1" ry="4.6" fill="none" stroke="#2b201b" stroke-width="3.8" opacity="0.19"/>
<ellipse cx="161.2" cy="117.2" rx="5.5" ry="5.0" fill="none" stroke="#2f231b" stroke-width="4.1" opacity="0.21"/>
<ellipse cx="200.0" cy="117.2" rx="5.5" ry="5.0" fill="none" stroke="#2f231b" stroke-width="4.1" opacity="0.21"/>
<ellipse cx="238.8" cy="117.2" rx="5.5" ry="5.0" fill="none" stroke="#2f231b" stroke-width="4.1" opacity="0.21"/>
<ellipse cx="137.2" cy="119.6" rx="5.9" ry="5.4" fill="none" stroke="#33261c" stroke-width="4.4" opacity="0.22"/>
<ellipse cx="179.1" cy="119.6" rx="5.9" ry="5.4" fill="none" stroke="#33261c" stroke-width="4.4" opacity="0.22"/>
<ellipse cx="220.9" cy="119.6" rx="5.9" ry="5.4" fill="none" stroke="#33261c" stroke-width="4.4" opacity="0.22"/>
<ellipse cx="262.8" cy="119.6" rx="5.9" ry="5.4" fill="none" stroke="#33261c" stroke-width="4.4" opacity="0.22"/>
<ellipse cx="154.5" cy="122.4" rx="6.4" ry="5.8" fill="none" stroke="#372a1c" stroke-width="4.8" opacity="0.24"/>
<ellipse cx="245.5" cy="122.4" rx="6.4" ry="5.8" fill="none" stroke="#372a1c" stroke-width="4.8" opacity="0.24"/>
<ellipse cx="109.0" cy="122.4" rx="6.4" ry="5.8" fill="none" stroke="#372a1c" stroke-width="4.8" opacity="0.24"/>
<ellipse cx="200.0" cy="122.4" rx="6.4" ry="5.8" fill="none" stroke="#372a1c" stroke-width="4.8" opacity="0.24"/>
<ellipse cx="291.0" cy="122.4" rx="6.4" ry="5.8" fill="none" stroke="#372a1c" stroke-width="4.8" opacity="0.24"/>
<ellipse cx="75.6" cy="125.8" rx="7.0" ry="6.4" fill="none" stroke="#3c2e1d" stroke-width="5.3" opacity="0.27"/>
<ellipse cx="125.4" cy="125.8" rx="7.0" ry="6.4" fill="none" stroke="#3c2e1d" stroke-width="5.3" opacity="0.27"/>
<ellipse cx="175.1" cy="125.8" rx="7.0" ry="6.4" fill="none" stroke="#3c2e1d" stroke-width="5.3" opacity="0.27"/>
<ellipse cx="224.9" cy="125.8" rx="7.0" ry="6.4" fill="none" stroke="#3c2e1d" stroke-width="5.3" opacity="0.27"/>
<ellipse cx="274.6" cy="125.8" rx="7.0" ry="6.4" fill="none" stroke="#3c2e1d" stroke-width="5.3" opacity="0.27"/>
<ellipse cx="324.4" cy="125.8" rx="7.0" ry="6.4" fill="none" stroke="#3c2e1d" stroke-width="5.3" opacity="0.27"/>
<ellipse cx="90.2" cy="129.8" rx="7.8" ry="7.0" fill="none" stroke="#42321d" stroke-width="5.8" opacity="0.29"/>
<ellipse cx="200.0" cy="129.8" rx="7.8" ry="7.0" fill="none" stroke="#42321d" stroke-width="5.8" opacity="0.29"/>
<ellipse cx="309.8" cy="129.8" rx="7.8" ry="7.0" fill="none" stroke="#42321d" stroke-width="5.8" opacity="0.29"/>
<ellipse cx="35.3" cy="129.8" rx="7.8" ry="7.0" fill="none" stroke="#42321d" stroke-width="5.8" opacity="0.29"/>
<ellipse cx="145.1" cy="129.8" rx="7.8" ry="7.0" fill="none" stroke="#42321d" stroke-width="5.8" opacity="0.29"/>
<ellipse cx="254.9" cy="129.8" rx="7.8" ry="7.0" fill="none" stroke="#42321d" stroke-width="5.8" opacity="0.29"/>
<ellipse cx="364.7" cy="129.8" rx="7.8" ry="7.0" fill="none" stroke="#42321d" stroke-width="5.8" opacity="0.29"/>
<ellipse cx="-14.3" cy="134.7" rx="8.7" ry="7.8" fill="none" stroke="#48371e" stroke-width="6.5" opacity="0.32"/>
<ellipse cx="46.9" cy="134.7" rx="8.7" ry="7.8" fill="none" stroke="#48371e" stroke-width="6.5" opacity="0.32"/>
<ellipse cx="108.2" cy="134.7" rx="8.7" ry="7.8" fill="none" stroke="#48371e" stroke-width="6.5" opacity="0.32"/>
<ellipse cx="169.4" cy="134.7" rx="8.7" ry="7.8" fill="none" stroke="#48371e" stroke-width="6.5" opacity="0.32"/>
<ellipse cx="230.6" cy="134.7" rx="8.7" ry="7.8" fill="none" stroke="#48371e" stroke-width="6.5" opacity="0.32"/>
<ellipse cx="291.8" cy="134.7" rx="8.7" ry="7.8" fill="none" stroke="#48371e" stroke-width="6.5" opacity="0.32"/>
<ellipse cx="353.1" cy="134.7" rx="8.7" ry="7.8" fill="none" stroke="#48371e" stroke-width="6.5" opacity="0.32"/>
<ellipse cx="414.3" cy="134.7" rx="8.7" ry="7.8" fill="none" stroke="#48371e" stroke-width="6.5" opacity="0.32"/>
<ellipse cx="-7.6" cy="141.0" rx="9.8" ry="8.9" fill="none" stroke="#503d1f" stroke-width="7.3" opacity="0.35"/>
<ellipse cx="130.8" cy="141.0" rx="9.8" ry="8.9" fill="none" stroke="#503d1f" stroke-width="7.3" opacity="0.35"/>
<ellipse cx="269.2" cy="141.0" rx="9.8" ry="8.9" fill="none" stroke="#503d1f" stroke-width="7.3" opacity="0.35"/>
<ellipse cx="407.6" cy="141.0" rx="9.8" ry="8.9" fill="none" stroke="#503d1f" stroke-width="7.3" opacity="0.35"/>
<ellipse cx="-76.9" cy="141.0" rx="9.8" ry="8.9" fill="none" stroke="#503d1f" stroke-width="7.3" opacity="0.35"/>
<ellipse cx="61.6" cy="141.0" rx="9.8" ry="8.9" fill="none" stroke="#503d1f" stroke-width="7.3" opacity="0.35"/>
<ellipse cx="200.0" cy="141.0" rx="9.8" ry="8.9" fill="none" stroke="#503d1f" stroke-width="7.3" opacity="0.35"/>
<ellipse cx="338.4" cy="141.0" rx="9.8" ry="8.9" fill="none" stroke="#503d1f" stroke-width="7.3" opacity="0.35"/>
<ellipse cx="476.9" cy="141.0" rx="9.8" ry="8.9" fill="none" stroke="#503d1f" stroke-width="7.3" opacity="0.35"/>
<ellipse cx="-78.6" cy="149.1" rx="11.3" ry="10.2" fill="none" stroke="#58441f" stroke-width="8.4" opacity="0.38"/>
<ellipse cx="1.0" cy="149.1" rx="11.3" ry="10.2" fill="none" stroke="#58441f" stroke-width="8.4" opacity="0.38"/>
<ellipse cx="80.6" cy="149.1" rx="11.3" ry="10.2" fill="none" stroke="#58441f" stroke-width="8.4" opacity="0.38"/>
<ellipse cx="160.2" cy="149.1" rx="11.3" ry="10.2" fill="none" stroke="#58441f" stroke-width="8.4" opacity="0.38"/>
<ellipse cx="239.8" cy="149.1" rx="11.3" ry="10.2" fill="none" stroke="#58441f" stroke-width="8.4" opacity="0.38"/>
<ellipse cx="319.4" cy="149.1" rx="11.3" ry="10.2" fill="none" stroke="#58441f" stroke-width="8.4" opacity="0.38"/>
<ellipse cx="399.0" cy="149.1" rx="11.3" ry="10.2" fill="none" stroke="#58441f" stroke-width="8.4" opacity="0.38"/>
<ellipse cx="478.6" cy="149.1" rx="11.3" ry="10.2" fill="none" stroke="#58441f" stroke-width="8.4" opacity="0.38"/>
<ellipse cx="12.7" cy="160.1" rx="13.2" ry="12.0" fill="none" stroke="#614b20" stroke-width="9.9" opacity="0.42"/>
<ellipse cx="200.0" cy="160.1" rx="13.2" ry="12.0" fill="none" stroke="#614b20" stroke-width="9.9" opacity="0.42"/>
<ellipse cx="387.3" cy="160.1" rx="13.2" ry="12.0" fill="none" stroke="#614b20" stroke-width="9.9" opacity="0.42"/>
<ellipse cx="106.4" cy="160.1" rx="13.2" ry="12.0" fill="none" stroke="#614b20" stroke-width="9.9" opacity="0.42"/>
<ellipse cx="293.6" cy="160.1" rx="13.2" ry="12.0" fill="none" stroke="#614b20" stroke-width="9.9" opacity="0.42"/>
<ellipse cx="143.1" cy="175.8" rx="16.1" ry="14.5" fill="none" stroke="#6c5421" stroke-width="12.1" opacity="0.47"/>
<ellipse cx="256.9" cy="175.8" rx="16.1" ry="14.5" fill="none" stroke="#6c5421" stroke-width="12.1" opacity="0.47"/>
<ellipse cx="29.4" cy="175.8" rx="16.1" ry="14.5" fill="none" stroke="#6c5421" stroke-width="12.1" opacity="0.47"/>
<ellipse cx="370.6" cy="175.8" rx="16.1" ry="14.5" fill="none" stroke="#6c5421" stroke-width="12.1" opacity="0.47"/>
<ellipse cx="55.3" cy="200.0" rx="20.5" ry="18.5" fill="none" stroke="#795e23" stroke-width="15.4" opacity="0.52"/>
<ellipse cx="200.0" cy="200.0" rx="20.5" ry="18.5" fill="none" stroke="#795e23" stroke-width="15.4" opacity="0.52"/>
<ellipse cx="344.7" cy="200.0" rx="20.5" ry="18.5" fill="none" stroke="#795e23" stroke-width="15.4" opacity="0.52"/>
<ellipse cx="100.5" cy="242.4" rx="28.1" ry="25.5" fill="none" stroke="#896b24" stroke-width="21.1" opacity="0.59"/>
<ellipse cx="299.5" cy="242.4" rx="28.1" ry="25.5" fill="none" stroke="#896b24" stroke-width="21.1" opacity="0.59"/>
<ellipse cx="200.0" cy="335.8" rx="45.0" ry="40.7" fill="none" stroke="#9d7b26" stroke-width="33.8" opacity="0.68"/>
<rect width="400" height="400" fill="url(#glow)"/>
<rect width="400" height="400" fill="url(#fog)"/>
</svg>