<?xml version="1.0" encoding="UTF-8"?>
<svg xmlns="http://www.w3.org/2000/svg" viewBox="0 0 480 480" width="480" height="480">
<rect width="480" height="480" fill="#070d1a"/>
<path d="M255.12,240.00 L256.20,240.14 L257.27,240.30 L258.31,240.48 L259.33,240.67 L260.30,240.89 L261.22,241.11 L262.08,241.35 L262.88,241.60 L263.60,241.86 L264.24,242.12 L264.79,242.39 L265.26,242.65 L265.62,242.92 L265.90,243.18 L266.07,243.43 L266.14,243.67 L266.11,243.90 L265.98,244.12 L265.76,244.31 L265.45,244.49 L265.05,244.64 L264.56,244.77 L264.00,244.88 L263.38,244.97 L262.68,245.03 L261.94,245.06 L261.15,245.08 L260.32,245.07 L259.47,245.03 L258.59,244.98 L257.71,244.91 L256.83,244.83 L255.96,244.73 L255.11,244.62 L254.29,244.51 L253.50,244.39 L252.76,244.27 L252.07,244.16 L251.43,244.05 L250.86,243.95 L250.35,243.87 L249.91,243.80 L249.55,243.76 L249.26,243.74 L249.05,243.75 L248.91,243.78 L248.85,243.85 L248.86,243.95 L248.95,244.08 L249.10,244.24 L249.32,244.44 L249.59,244.68 L249.92,244.95 L250.29,245.24 L250.70,245.57 L251.15,245.93 L251.62,246.31 L252.11,246.71 L252.60,247.13 L253.10,247.56 L253.59,248.00 L254.07,248.45 L254.52,248.90 L254.95,249.34 L255.33,249.77 L255.68,250.18 L255.98,250.58 L256.23,250.95 L256.42,251.29 L256.55,251.59 L256.62,251.86 L256.62,252.08 L256.56,252.25 L256.43,252.38 L256.23,252.45 L255.97,252.48 L255.64,252.44 L255.26,252.36 L254.82,252.21 L254.32,252.02 L253.78,251.77 L253.20,251.47 L252.58,251.13 L251.93,250.74 L251.25,250.31 L250.56,249.85 L249.87,249.36 L249.16,248.85 L248.46,248.32 L247.78,247.78 L247.11,247.23 L246.47,246.70 L245.85,246.17 L245.27,245.66 L244.74,245.17 L244.25,244.72 L243.81,244.31 L243.43,243.94 L243.10,243.63 L242.83,243.38 L242.63,243.19 L242.48,243.06 L242.40,243.01 L242.37,243.04 L242.41,243.14 L242.50,243.32 L242.65,243.58 L242.85,243.93 L243.10,244.35 L243.39,244.85 L243.73,245.42 L244.09,246.07 L244.49,246.78 L244.90,247.55 L245.34,248.38 L245.78,249.25 L246.23,250.17 L246.68,251.12 L247.13,252.10 L247.56,253.10 L247.98,254.10 L248.37,255.11 L248.74,256.10 L249.08,257.07 L249.38,258.02 L249.65,258.93 L249.87,259.80 L250.05,260.61 L250.19,261.37 L250.28,262.05 L250.33,262.67 L250.33,263.20 L250.28,263.65 L250.19,264.02 L250.06,264.29 L249.89,264.47 L249.68,264.56 L249.43,264.56 L249.15,264.47 L248.84,264.28 L248.50,264.01 L248.15,263.66 L247.77,263.23 L247.38,262.73 L246.99,262.16 L246.58,261.53 L246.18,260.85 L245.77,260.13 L245.37,259.38 L244.98,258.59 L244.60,257.80 L244.24,256.99 L243.89,256.19 L243.56,255.40 L243.24,254.63 L242.95,253.89 L242.68,253.19 L242.44,252.53 L242.21,251.92 L242.01,251.38 L241.82,250.90 L241.66,250.49 L241.52,250.15 L241.39,249.89 L241.28,249.71 L241.18,249.61 L241.09,249.59 L241.01,249.65 L240.94,249.79 L240.88,250.00 L240.81,250.29 L240.74,250.65 L240.68,251.06 L240.60,251.53 L240.53,252.06 L240.44,252.62 L240.35,253.22 L240.24,253.84 L240.13,254.48 L240.00,255.12 L239.86,255.77 L239.71,256.41 L239.55,257.02 L239.38,257.61 L239.21,258.17 L239.02,258.67 L238.83,259.13 L238.63,259.53 L238.44,259.87 L238.24,260.13 L238.04,260.32 L237.85,260.43 L237.67,260.47 L237.49,260.42 L237.33,260.28 L237.18,260.07 L237.05,259.77 L236.93,259.39 L236.83,258.94 L236.75,258.41 L236.70,257.82 L236.66,257.17 L236.65,256.46 L236.66,255.70 L236.70,254.90 L236.75,254.08 L236.83,253.22 L236.92,252.36 L237.03,251.49 L237.15,250.63 L237.29,249.77 L237.43,248.95 L237.59,248.15 L237.74,247.40 L237.89,246.69 L238.04,246.04 L238.17,245.46 L238.30,244.94 L238.41,244.50 L238.49,244.14 L238.55,243.87 L238.59,243.68 L238.59,243.58 L238.56,243.57 L238.49,243.66 L238.37,243.83 L238.22,244.09 L238.03,244.43 L237.78,244.86 L237.50,245.36 L237.17,245.94 L236.79,246.58 L236.37,247.27 L235.91,248.02 L235.41,248.81 L234.88,249.63 L234.31,250.48 L233.71,251.35 L233.08,252.23 L232.44,253.10 L231.78,253.96 L231.10,254.80 L230.43,255.62 L229.75,256.40 L229.08,257.14 L228.43,257.82 L227.79,258.45 L227.18,259.01 L226.59,259.51 L226.04,259.93 L225.54,260.28 L225.07,260.55 L224.66,260.73 L224.30,260.84 L223.99,260.86 L223.75,260.80 L223.57,260.66 L223.44,260.45 L223.38,260.16 L223.39,259.80 L223.46,259.37 L223.58,258.89 L223.77,258.35 L224.01,257.76 L224.30,257.13 L224.64,256.47 L225.03,255.78 L225.45,255.06 L225.91,254.34 L226.39,253.61 L226.89,252.88 L227.40,252.16 L227.92,251.46 L228.44,250.78 L228.95,250.12 L229.45,249.50 L229.92,248.92 L230.37,248.37 L230.78,247.88 L231.15,247.43 L231.48,247.03 L231.75,246.68 L231.97,246.39 L232.13,246.15 L232.23,245.96 L232.27,245.83 L232.24,245.74 L232.15,245.70 L231.99,245.71 L231.77,245.76 L231.49,245.85 L231.15,245.97 L230.76,246.12 L230.31,246.29 L229.82,246.48 L229.29,246.69 L228.73,246.91 L228.14,247.13 L227.52,247.35 L226.90,247.56 L226.27,247.77 L225.65,247.96 L225.03,248.13 L224.44,248.27 L223.87,248.40 L223.34,248.49 L222.85,248.55 L222.40,248.58 L222.01,248.58 L221.69,248.54 L221.42,248.47 L221.23,248.36 L221.11,248.21 L221.07,248.04 L221.10,247.83 L221.21,247.59 L221.40,247.33 L221.67,247.04 L222.01,246.72 L222.43,246.39 L222.92,246.05 L223.47,245.69 L224.07,245.33 L224.73,244.96 L225.44,244.59 L226.19,244.22 L226.96,243.86 L227.76,243.51 L228.56,243.17 L229.37,242.85 L230.18,242.54 L230.97,242.25 L231.73,241.98 L232.46,241.74 L233.15,241.52 L233.79,241.32 L234.36,241.15 L234.87,241.00 L235.30,240.87 L235.66,240.77 L235.93,240.68 L236.11,240.62 L236.19,240.57 L236.18,240.54 L236.08,240.52 L235.87,240.51 L235.57,240.50 L235.17,240.51 L234.68,240.51 L234.10,240.52 L233.44,240.52 L232.70,240.51 L231.89,240.50 L231.01,240.47 L230.08,240.43 L229.09,240.38 L228.07,240.31 L227.02,240.23 L225.95,240.12 L224.88,240.00 L223.80,239.86 L222.73,239.70 L221.69,239.52 L220.67,239.33 L219.70,239.11 L218.78,238.89 L217.92,238.65 L217.12,238.40 L216.40,238.14 L215.76,237.88 L215.21,237.61 L214.74,237.35 L214.38,237.08 L214.10,236.82 L213.93,236.57 L213.86,236.33 L213.89,236.10 L214.02,235.88 L214.24,235.69 L214.55,235.51 L214.95,235.36 L215.44,235.23 L216.00,235.12 L216.62,235.03 L217.32,234.97 L218.06,234.94 L218.85,234.92 L219.68,234.93 L220.53,234.97 L221.41,235.02 L222.29,235.09 L223.17,235.17 L224.04,235.27 L224.89,235.38 L225.71,235.49 L226.50,235.61 L227.24,235.73 L227.93,235.84 L228.57,235.95 L229.14,236.05 L229.65,236.13 L230.09,236.20 L230.45,236.24 L230.74,236.26 L230.95,236.25 L231.09,236.22 L231.15,236.15 L231.14,236.05 L231.05,235.92 L230.90,235.76 L230.68,235.56 L230.41,235.32 L230.08,235.05 L229.71,234.76 L229.30,234.43 L228.85,234.07 L228.38,233.69 L227.89,233.29 L227.40,232.87 L226.90,232.44 L226.41,232.00 L225.93,231.55 L225.48,231.10 L225.05,230.66 L224.67,230.23 L224.32,229.82 L224.02,229.42 L223.77,229.05 L223.58,228.71 L223.45,228.41 L223.38,228.14 L223.38,227.92 L223.44,227.75 L223.57,227.62 L223.77,227.55 L224.03,227.52 L224.36,227.56 L224.74,227.64 L225.18,227.79 L225.68,227.98 L226.22,228.23 L226.80,228.53 L227.42,228.87 L228.07,229.26 L228.75,229.69 L229.44,230.15 L230.13,230.64 L230.84,231.15 L231.54,231.68 L232.22,232.22 L232.89,232.77 L233.53,233.30 L234.15,233.83 L234.73,234.34 L235.26,234.83 L235.75,235.28 L236.19,235.69 L236.57,236.06 L236.90,236.37 L237.17,236.62 L237.37,236.81 L237.52,236.94 L237.60,236.99 L237.63,236.96 L237.59,236.86 L237.50,236.68 L237.35,236.42 L237.15,236.07 L236.90,235.65 L236.61,235.15 L236.27,234.58 L235.91,233.93 L235.51,233.22 L235.10,232.45 L234.66,231.62 L234.22,230.75 L233.77,229.83 L233.32,228.88 L232.87,227.90 L232.44,226.90 L232.02,225.90 L231.63,224.89 L231.26,223.90 L230.92,222.93 L230.62,221.98 L230.35,221.07 L230.13,220.20 L229.95,219.39 L229.81,218.63 L229.72,217.95 L229.67,217.33 L229.67,216.80 L229.72,216.35 L229.81,215.98 L229.94,215.71 L230.11,215.53 L230.32,215.44 L230.57,215.44 L230.85,215.53 L231.16,215.72 L231.50,215.99 L231.85,216.34 L232.23,216.77 L232.62,217.27 L233.01,217.84 L233.42,218.47 L233.82,219.15 L234.23,219.87 L234.63,220.62 L235.02,221.41 L235.40,222.20 L235.76,223.01 L236.11,223.81 L236.44,224.60 L236.76,225.37 L237.05,226.11 L237.32,226.81 L237.56,227.47 L237.79,228.08 L237.99,228.62 L238.18,229.10 L238.34,229.51 L238.48,229.85 L238.61,230.11 L238.72,230.29 L238.82,230.39 L238.91,230.41 L238.99,230.35 L239.06,230.21 L239.12,230.00 L239.19,229.71 L239.26,229.35 L239.32,228.94 L239.40,228.47 L239.47,227.94 L239.56,227.38 L239.65,226.78 L239.76,226.16 L239.87,225.52 L240.00,224.88 L240.14,224.23 L240.29,223.59 L240.45,222.98 L240.62,222.39 L240.79,221.83 L240.98,221.33 L241.17,220.87 L241.37,220.47 L241.56,220.13 L241.76,219.87 L241.96,219.68 L242.15,219.57 L242.33,219.53 L242.51,219.58 L242.67,219.72 L242.82,219.93 L242.95,220.23 L243.07,220.61 L243.17,221.06 L243.25,221.59 L243.30,222.18 L243.34,222.83 L243.35,223.54 L243.34,224.30 L243.30,225.10 L243.25,225.92 L243.17,226.78 L243.08,227.64 L242.97,228.51 L242.85,229.37 L242.71,230.23 L242.57,231.05 L242.41,231.85 L242.26,232.60 L242.11,233.31 L241.96,233.96 L241.83,234.54 L241.70,235.06 L241.59,235.50 L241.51,235.86 L241.45,236.13 L241.41,236.32 L241.41,236.42 L241.44,236.43 L241.51,236.34 L241.63,236.17 L241.78,235.91 L241.97,235.57 L242.22,235.14 L242.50,234.64 L242.83,234.06 L243.21,233.42 L243.63,232.73 L244.09,231.98 L244.59,231.19 L245.12,230.37 L245.69,229.52 L246.29,228.65 L246.92,227.77 L247.56,226.90 L248.22,226.04 L248.90,225.20 L249.57,224.38 L250.25,223.60 L250.92,222.86 L251.57,222.18 L252.21,221.55 L252.82,220.99 L253.41,220.49 L253.96,220.07 L254.46,219.72 L254.93,219.45 L255.34,219.27 L255.70,219.16 L256.01,219.14 L256.25,219.20 L256.43,219.34 L256.56,219.55 L256.62,219.84 L256.61,220.20 L256.54,220.63 L256.42,221.11 L256.23,221.65 L255.99,222.24 L255.70,222.87 L255.36,223.53 L254.97,224.22 L254.55,224.94 L254.09,225.66 L253.61,226.39 L253.11,227.12 L252.60,227.84 L252.08,228.54 L251.56,229.22 L251.05,229.88 L250.55,230.50 L250.08,231.08 L249.63,231.63 L249.22,232.12 L248.85,232.57 L248.52,232.97 L248.25,233.32 L248.03,233.61 L247.87,233.85 L247.77,234.04 L247.73,234.17 L247.76,234.26 L247.85,234.30 L248.01,234.29 L248.23,234.24 L248.51,234.15 L248.85,234.03 L249.24,233.88 L249.69,233.71 L250.18,233.52 L250.71,233.31 L251.27,233.09 L251.86,232.87 L252.48,232.65 L253.10,232.44 L253.73,232.23 L254.35,232.04 L254.97,231.87 L255.56,231.73 L256.13,231.60 L256.66,231.51 L257.15,231.45 L257.60,231.42 L257.99,231.42 L258.31,231.46 L258.58,231.53 L258.77,231.64 L258.89,231.79 L258.93,231.96 L258.90,232.17 L258.79,232.41 L258.60,232.67 L258.33,232.96 L257.99,233.28 L257.57,233.61 L257.08,233.95 L256.53,234.31 L255.93,234.67 L255.27,235.04 L254.56,235.41 L253.81,235.78 L253.04,236.14 L252.24,236.49 L251.44,236.83 L250.63,237.15 L249.82,237.46 L249.03,237.75 L248.27,238.02 L247.54,238.26 L246.85,238.48 L246.21,238.68 L245.64,238.85 L245.13,239.00 L244.70,239.13 L244.34,239.23 L244.07,239.32 L243.89,239.38 L243.81,239.43 L243.82,239.46 L243.92,239.48 L244.13,239.49 L244.43,239.50 L244.83,239.49 L245.32,239.49 L245.90,239.48 L246.56,239.48 L247.30,239.49 L248.11,239.50 L248.99,239.53 L249.92,239.57 L250.91,239.62 L251.93,239.69 L252.98,239.77 L254.05,239.88Z" stroke="#e8e0d0" fill="none" stroke-width="0.5" stroke-linejoin="round"/>
<path d="M270.25,240.00 L272.41,240.28 L274.54,240.60 L276.63,240.96 L278.65,241.35 L280.60,241.77 L282.44,242.22 L284.16,242.70 L285.76,243.20 L287.20,243.71 L288.48,244.24 L289.59,244.77 L290.51,245.31 L291.25,245.84 L291.79,246.36 L292.13,246.86 L292.28,247.35 L292.22,247.80 L291.97,248.23 L291.53,248.62 L290.90,248.97 L290.10,249.28 L289.13,249.55 L288.01,249.77 L286.75,249.94 L285.37,250.06 L283.88,250.13 L282.30,250.15 L280.64,250.13 L278.93,250.07 L277.19,249.96 L275.43,249.82 L273.67,249.65 L271.93,249.46 L270.23,249.24 L268.58,249.01 L267.01,248.78 L265.52,248.54 L264.13,248.31 L262.86,248.10 L261.71,247.90 L260.70,247.74 L259.82,247.61 L259.09,247.52 L258.52,247.48 L258.09,247.49 L257.82,247.56 L257.70,247.70 L257.73,247.89 L257.90,248.16 L258.20,248.49 L258.64,248.89 L259.18,249.36 L259.84,249.89 L260.58,250.49 L261.41,251.14 L262.30,251.86 L263.24,252.62 L264.21,253.42 L265.20,254.26 L266.20,255.12 L267.18,256.01 L268.13,256.90 L269.04,257.80 L269.89,258.68 L270.67,259.54 L271.37,260.37 L271.97,261.16 L272.46,261.90 L272.84,262.57 L273.11,263.18 L273.24,263.71 L273.25,264.15 L273.12,264.51 L272.86,264.76 L272.46,264.91 L271.94,264.95 L271.29,264.89 L270.52,264.71 L269.63,264.43 L268.65,264.04 L267.56,263.54 L266.40,262.95 L265.16,262.26 L263.86,261.48 L262.51,260.63 L261.13,259.70 L259.73,258.72 L258.33,257.70 L256.93,256.64 L255.56,255.56 L254.22,254.47 L252.93,253.39 L251.70,252.33 L250.55,251.31 L249.48,250.34 L248.50,249.44 L247.62,248.62 L246.86,247.89 L246.20,247.26 L245.67,246.75 L245.25,246.37 L244.96,246.13 L244.79,246.03 L244.75,246.08 L244.82,246.28 L245.01,246.64 L245.31,247.17 L245.71,247.85 L246.20,248.70 L246.79,249.70 L247.45,250.84 L248.18,252.13 L248.97,253.55 L249.80,255.10 L250.67,256.75 L251.56,258.51 L252.47,260.34 L253.37,262.25 L254.26,264.21 L255.12,266.20 L255.96,268.21 L256.75,270.21 L257.48,272.20 L258.16,274.15 L258.76,276.04 L259.29,277.87 L259.74,279.60 L260.11,281.23 L260.38,282.73 L260.57,284.10 L260.66,285.33 L260.66,286.40 L260.57,287.30 L260.39,288.03 L260.12,288.58 L259.78,288.95 L259.35,289.13 L258.86,289.12 L258.30,288.93 L257.68,288.57 L257.01,288.03 L256.29,287.32 L255.55,286.46 L254.77,285.46 L253.97,284.32 L253.17,283.06 L252.35,281.71 L251.55,280.26 L250.75,278.75 L249.96,277.19 L249.20,275.59 L248.47,273.98 L247.77,272.38 L247.11,270.80 L246.49,269.26 L245.90,267.78 L245.37,266.37 L244.87,265.06 L244.42,263.85 L244.01,262.75 L243.65,261.79 L243.32,260.97 L243.03,260.30 L242.78,259.78 L242.56,259.42 L242.36,259.22 L242.19,259.18 L242.03,259.30 L241.89,259.58 L241.75,260.01 L241.62,260.58 L241.49,261.29 L241.35,262.12 L241.21,263.07 L241.05,264.11 L240.88,265.24 L240.69,266.43 L240.48,267.68 L240.25,268.96 L240.00,270.25 L239.72,271.54 L239.43,272.81 L239.11,274.05 L238.77,275.22 L238.41,276.33 L238.04,277.35 L237.66,278.26 L237.27,279.06 L236.87,279.73 L236.48,280.26 L236.09,280.64 L235.70,280.87 L235.34,280.93 L234.99,280.83 L234.66,280.57 L234.36,280.13 L234.09,279.54 L233.86,278.78 L233.66,277.88 L233.51,276.83 L233.39,275.64 L233.33,274.33 L233.30,272.91 L233.33,271.40 L233.39,269.81 L233.50,268.15 L233.65,266.45 L233.84,264.72 L234.06,262.98 L234.31,261.25 L234.58,259.55 L234.87,257.89 L235.17,256.30 L235.48,254.79 L235.78,253.38 L236.07,252.08 L236.35,250.91 L236.60,249.88 L236.81,249.00 L236.98,248.28 L237.11,247.73 L237.17,247.36 L237.18,247.16 L237.11,247.15 L236.97,247.31 L236.75,247.66 L236.44,248.18 L236.05,248.87 L235.57,249.72 L235.00,250.73 L234.34,251.87 L233.59,253.15 L232.75,254.55 L231.83,256.04 L230.83,257.62 L229.75,259.27 L228.61,260.97 L227.42,262.70 L226.17,264.45 L224.88,266.20 L223.55,267.92 L222.21,269.61 L220.86,271.24 L219.50,272.80 L218.17,274.27 L216.85,275.64 L215.58,276.90 L214.35,278.03 L213.18,279.02 L212.09,279.86 L211.07,280.56 L210.15,281.09 L209.32,281.46 L208.60,281.67 L207.99,281.72 L207.50,281.60 L207.13,281.32 L206.89,280.89 L206.77,280.31 L206.78,279.59 L206.91,278.74 L207.17,277.77 L207.54,276.69 L208.02,275.52 L208.61,274.26 L209.29,272.93 L210.06,271.55 L210.90,270.13 L211.81,268.68 L212.78,267.22 L213.78,265.77 L214.81,264.33 L215.85,262.92 L216.88,261.56 L217.90,260.25 L218.90,259.00 L219.84,257.83 L220.74,256.75 L221.56,255.75 L222.30,254.85 L222.95,254.05 L223.50,253.36 L223.94,252.78 L224.26,252.30 L224.46,251.92 L224.54,251.65 L224.48,251.48 L224.30,251.41 L223.99,251.42 L223.55,251.52 L222.98,251.69 L222.31,251.94 L221.52,252.23 L220.63,252.58 L219.64,252.97 L218.58,253.38 L217.45,253.82 L216.27,254.26 L215.05,254.70 L213.80,255.12 L212.55,255.53 L211.30,255.91 L210.07,256.25 L208.88,256.55 L207.74,256.79 L206.68,256.98 L205.69,257.10 L204.81,257.16 L204.03,257.16 L203.37,257.08 L202.85,256.93 L202.46,256.71 L202.22,256.43 L202.13,256.07 L202.20,255.66 L202.42,255.18 L202.80,254.65 L203.34,254.07 L204.03,253.45 L204.86,252.79 L205.83,252.10 L206.93,251.39 L208.15,250.66 L209.47,249.92 L210.88,249.18 L212.37,248.45 L213.92,247.73 L215.51,247.02 L217.13,246.34 L218.75,245.69 L220.36,245.08 L221.94,244.50 L223.47,243.97 L224.93,243.48 L226.30,243.04 L227.57,242.64 L228.72,242.29 L229.74,241.99 L230.61,241.74 L231.32,241.53 L231.86,241.36 L232.21,241.23 L232.39,241.14 L232.37,241.07 L232.15,241.03 L231.74,241.01 L231.14,241.01 L230.34,241.01 L229.37,241.02 L228.21,241.03 L226.88,241.03 L225.40,241.02 L223.78,240.99 L222.02,240.94 L220.15,240.87 L218.19,240.76 L216.15,240.62 L214.05,240.45 L211.91,240.25 L209.75,240.00 L207.59,239.72 L205.46,239.40 L203.37,239.04 L201.35,238.65 L199.40,238.23 L197.56,237.78 L195.84,237.30 L194.24,236.80 L192.80,236.29 L191.52,235.76 L190.41,235.23 L189.49,234.69 L188.75,234.16 L188.21,233.64 L187.87,233.14 L187.72,232.65 L187.78,232.20 L188.03,231.77 L188.47,231.38 L189.10,231.03 L189.90,230.72 L190.87,230.45 L191.99,230.23 L193.25,230.06 L194.63,229.94 L196.12,229.87 L197.70,229.85 L199.36,229.87 L201.07,229.93 L202.81,230.04 L204.57,230.18 L206.33,230.35 L208.07,230.54 L209.77,230.76 L211.42,230.99 L212.99,231.22 L214.48,231.46 L215.87,231.69 L217.14,231.90 L218.29,232.10 L219.30,232.26 L220.18,232.39 L220.91,232.48 L221.48,232.52 L221.91,232.51 L222.18,232.44 L222.30,232.30 L222.27,232.11 L222.10,231.84 L221.80,231.51 L221.36,231.11 L220.82,230.64 L220.16,230.11 L219.42,229.51 L218.59,228.86 L217.70,228.14 L216.76,227.38 L215.79,226.58 L214.80,225.74 L213.80,224.87 L212.82,223.99 L211.87,223.10 L210.96,222.20 L210.11,221.32 L209.33,220.46 L208.63,219.63 L208.03,218.84 L207.54,218.10 L207.16,217.43 L206.89,216.82 L206.76,216.29 L206.75,215.85 L206.88,215.49 L207.14,215.24 L207.54,215.09 L208.06,215.05 L208.71,215.11 L209.48,215.29 L210.37,215.57 L211.35,215.96 L212.44,216.46 L213.60,217.05 L214.84,217.74 L216.14,218.52 L217.49,219.37 L218.87,220.30 L220.27,221.28 L221.67,222.30 L223.07,223.36 L224.44,224.44 L225.78,225.53 L227.07,226.61 L228.30,227.67 L229.45,228.69 L230.52,229.66 L231.50,230.56 L232.38,231.38 L233.14,232.11 L233.80,232.74 L234.33,233.25 L234.75,233.63 L235.04,233.87 L235.21,233.97 L235.25,233.92 L235.18,233.72 L234.99,233.36 L234.69,232.83 L234.29,232.15 L233.80,231.30 L233.21,230.30 L232.55,229.16 L231.82,227.87 L231.03,226.45 L230.20,224.90 L229.33,223.25 L228.44,221.49 L227.53,219.66 L226.63,217.75 L225.74,215.79 L224.88,213.80 L224.04,211.79 L223.25,209.79 L222.52,207.80 L221.84,205.85 L221.24,203.96 L220.71,202.13 L220.26,200.40 L219.89,198.77 L219.62,197.27 L219.43,195.90 L219.34,194.67 L219.34,193.60 L219.43,192.70 L219.61,191.97 L219.88,191.42 L220.22,191.05 L220.65,190.87 L221.14,190.88 L221.70,191.07 L222.32,191.43 L222.99,191.97 L223.71,192.68 L224.45,193.54 L225.23,194.54 L226.03,195.68 L226.83,196.94 L227.65,198.29 L228.45,199.74 L229.25,201.25 L230.04,202.81 L230.80,204.41 L231.53,206.02 L232.23,207.62 L232.89,209.20 L233.51,210.74 L234.10,212.22 L234.63,213.63 L235.13,214.94 L235.58,216.15 L235.99,217.25 L236.35,218.21 L236.68,219.03 L236.97,219.70 L237.22,220.22 L237.44,220.58 L237.64,220.78 L237.81,220.82 L237.97,220.70 L238.11,220.42 L238.25,219.99 L238.38,219.42 L238.51,218.71 L238.65,217.88 L238.79,216.93 L238.95,215.89 L239.12,214.76 L239.31,213.57 L239.52,212.32 L239.75,211.04 L240.00,209.75 L240.28,208.46 L240.57,207.19 L240.89,205.95 L241.23,204.78 L241.59,203.67 L241.96,202.65 L242.34,201.74 L242.73,200.94 L243.13,200.27 L243.52,199.74 L243.91,199.36 L244.30,199.13 L244.66,199.07 L245.01,199.17 L245.34,199.43 L245.64,199.87 L245.91,200.46 L246.14,201.22 L246.34,202.12 L246.49,203.17 L246.61,204.36 L246.67,205.67 L246.70,207.09 L246.67,208.60 L246.61,210.19 L246.50,211.85 L246.35,213.55 L246.16,215.28 L245.94,217.02 L245.69,218.75 L245.42,220.45 L245.13,222.11 L244.83,223.70 L244.52,225.21 L244.22,226.62 L243.93,227.92 L243.65,229.09 L243.40,230.12 L243.19,231.00 L243.02,231.72 L242.89,232.27 L242.83,232.64 L242.82,232.84 L242.89,232.85 L243.03,232.69 L243.25,232.34 L243.56,231.82 L243.95,231.13 L244.43,230.28 L245.00,229.27 L245.66,228.13 L246.41,226.85 L247.25,225.45 L248.17,223.96 L249.17,222.38 L250.25,220.73 L251.39,219.03 L252.58,217.30 L253.83,215.55 L255.12,213.80 L256.45,212.08 L257.79,210.39 L259.14,208.76 L260.50,207.20 L261.83,205.73 L263.15,204.36 L264.42,203.10 L265.65,201.97 L266.82,200.98 L267.91,200.14 L268.93,199.44 L269.85,198.91 L270.68,198.54 L271.40,198.33 L272.01,198.28 L272.50,198.40 L272.87,198.68 L273.11,199.11 L273.23,199.69 L273.22,200.41 L273.09,201.26 L272.83,202.23 L272.46,203.31 L271.98,204.48 L271.39,205.74 L270.71,207.07 L269.94,208.45 L269.10,209.87 L268.19,211.32 L267.22,212.78 L266.22,214.23 L265.19,215.67 L264.15,217.08 L263.12,218.44 L262.10,219.75 L261.10,221.00 L260.16,222.17 L259.26,223.25 L258.44,224.25 L257.70,225.15 L257.05,225.95 L256.50,226.64 L256.06,227.22 L255.74,227.70 L255.54,228.08 L255.46,228.35 L255.52,228.52 L255.70,228.59 L256.01,228.58 L256.45,228.48 L257.02,228.31 L257.69,228.06 L258.48,227.77 L259.37,227.42 L260.36,227.03 L261.42,226.62 L262.55,226.18 L263.73,225.74 L264.95,225.30 L266.20,224.88 L267.45,224.47 L268.70,224.09 L269.93,223.75 L271.12,223.45 L272.26,223.21 L273.32,223.02 L274.31,222.90 L275.19,222.84 L275.97,222.84 L276.63,222.92 L277.15,223.07 L277.54,223.29 L277.78,223.57 L277.87,223.93 L277.80,224.34 L277.58,224.82 L277.20,225.35 L276.66,225.93 L275.97,226.55 L275.14,227.21 L274.17,227.90 L273.07,228.61 L271.85,229.34 L270.53,230.08 L269.12,230.82 L267.63,231.55 L266.08,232.27 L264.49,232.98 L262.87,233.66 L261.25,234.31 L259.64,234.92 L258.06,235.50 L256.53,236.03 L255.07,236.52 L253.70,236.96 L252.43,237.36 L251.28,237.71 L250.26,238.01 L249.39,238.26 L248.68,238.47 L248.14,238.64 L247.79,238.77 L247.61,238.86 L247.63,238.93 L247.85,238.97 L248.26,238.99 L248.86,238.99 L249.66,238.99 L250.63,238.98 L251.79,238.97 L253.12,238.97 L254.60,238.98 L256.22,239.01 L257.98,239.06 L259.85,239.13 L261.81,239.24 L263.85,239.38 L265.95,239.55 L268.09,239.75Z" stroke="#e8e0d0" fill="none" stroke-width="0.5" stroke-linejoin="round"/>
<path d="M285.38,240.00 L288.61,240.42 L291.81,240.90 L294.94,241.44 L297.98,242.02 L300.89,242.66 L303.66,243.34 L306.25,244.05 L308.63,244.80 L310.80,245.57 L312.72,246.36 L314.38,247.16 L315.77,247.96 L316.87,248.76 L317.69,249.54 L318.20,250.30 L318.42,251.02 L318.33,251.71 L317.95,252.35 L317.29,252.93 L316.35,253.46 L315.14,253.93 L313.69,254.32 L312.01,254.65 L310.13,254.91 L308.05,255.09 L305.82,255.19 L303.44,255.23 L300.96,255.20 L298.40,255.10 L295.78,254.95 L293.14,254.74 L290.50,254.48 L287.89,254.19 L285.34,253.86 L282.87,253.52 L280.51,253.16 L278.28,252.81 L276.20,252.47 L274.29,252.14 L272.57,251.85 L271.04,251.61 L269.73,251.41 L268.64,251.28 L267.78,251.22 L267.14,251.24 L266.73,251.35 L266.55,251.55 L266.59,251.84 L266.85,252.24 L267.31,252.73 L267.95,253.33 L268.78,254.03 L269.76,254.84 L270.87,255.73 L272.11,256.72 L273.45,257.78 L274.86,258.93 L276.32,260.13 L277.80,261.39 L279.30,262.69 L280.77,264.01 L282.20,265.35 L283.56,266.69 L284.84,268.02 L286.00,269.31 L287.05,270.55 L287.95,271.74 L288.69,272.84 L289.27,273.86 L289.66,274.77 L289.86,275.57 L289.87,276.23 L289.68,276.76 L289.28,277.14 L288.69,277.36 L287.91,277.43 L286.93,277.33 L285.78,277.07 L284.45,276.64 L282.97,276.06 L281.34,275.31 L279.59,274.42 L277.73,273.38 L275.78,272.22 L273.76,270.94 L271.69,269.56 L269.60,268.09 L267.49,266.55 L265.39,264.96 L263.33,263.33 L261.33,261.70 L259.40,260.09 L257.56,258.50 L255.82,256.97 L254.22,255.52 L252.75,254.16 L251.44,252.93 L250.29,251.83 L249.30,250.89 L248.50,250.13 L247.88,249.56 L247.44,249.19 L247.19,249.04 L247.12,249.11 L247.23,249.42 L247.51,249.97 L247.96,250.75 L248.56,251.78 L249.31,253.05 L250.18,254.54 L251.18,256.26 L252.27,258.20 L253.46,260.33 L254.71,262.65 L256.01,265.13 L257.35,267.76 L258.70,270.52 L260.05,273.37 L261.39,276.31 L262.69,279.30 L263.94,282.31 L265.12,285.32 L266.22,288.30 L267.24,291.22 L268.14,294.07 L268.94,296.80 L269.61,299.40 L270.16,301.84 L270.57,304.10 L270.85,306.16 L270.99,308.00 L270.99,309.60 L270.85,310.95 L270.58,312.05 L270.18,312.87 L269.66,313.42 L269.03,313.69 L268.28,313.68 L267.44,313.40 L266.52,312.85 L265.51,312.04 L264.44,310.98 L263.32,309.69 L262.15,308.18 L260.96,306.48 L259.75,304.59 L258.53,302.56 L257.32,300.39 L256.12,298.13 L254.95,295.78 L253.81,293.39 L252.71,290.98 L251.66,288.57 L250.67,286.20 L249.73,283.89 L248.86,281.67 L248.05,279.56 L247.31,277.58 L246.63,275.77 L246.02,274.13 L245.47,272.69 L244.98,271.46 L244.55,270.44 L244.17,269.67 L243.83,269.12 L243.54,268.82 L243.28,268.77 L243.04,268.95 L242.83,269.37 L242.63,270.01 L242.43,270.87 L242.23,271.94 L242.03,273.19 L241.81,274.60 L241.58,276.17 L241.32,277.86 L241.04,279.65 L240.72,281.52 L240.38,283.43 L240.00,285.38 L239.59,287.31 L239.14,289.22 L238.66,291.07 L238.15,292.84 L237.62,294.50 L237.06,296.02 L236.49,297.39 L235.90,298.59 L235.31,299.60 L234.72,300.39 L234.13,300.96 L233.56,301.30 L233.00,301.40 L232.48,301.25 L231.99,300.85 L231.54,300.20 L231.14,299.31 L230.79,298.18 L230.49,296.82 L230.26,295.24 L230.09,293.46 L229.99,291.50 L229.96,289.37 L229.99,287.10 L230.09,284.71 L230.25,282.23 L230.48,279.67 L230.76,277.08 L231.09,274.47 L231.46,271.88 L231.87,269.32 L232.30,266.84 L232.76,264.45 L233.22,262.19 L233.67,260.07 L234.11,258.13 L234.52,256.37 L234.90,254.82 L235.22,253.50 L235.48,252.43 L235.66,251.60 L235.76,251.04 L235.77,250.75 L235.67,250.72 L235.46,250.97 L235.12,251.49 L234.67,252.27 L234.08,253.30 L233.35,254.58 L232.50,256.09 L231.50,257.81 L230.38,259.73 L229.12,261.82 L227.74,264.06 L226.24,266.43 L224.63,268.90 L222.92,271.45 L221.12,274.05 L219.25,276.68 L217.31,279.30 L215.33,281.88 L213.31,284.41 L211.28,286.86 L209.26,289.20 L207.25,291.41 L205.28,293.46 L203.37,295.35 L201.53,297.04 L199.78,298.53 L198.13,299.80 L196.61,300.83 L195.22,301.64 L193.98,302.20 L192.90,302.51 L191.98,302.58 L191.25,302.40 L190.70,301.98 L190.33,301.34 L190.15,300.47 L190.17,299.39 L190.37,298.11 L190.75,296.66 L191.30,295.04 L192.03,293.28 L192.91,291.39 L193.93,289.40 L195.09,287.33 L196.36,285.19 L197.72,283.02 L199.16,280.84 L200.67,278.65 L202.21,276.49 L203.77,274.38 L205.32,272.34 L206.86,270.37 L208.34,268.50 L209.77,266.75 L211.10,265.12 L212.34,263.63 L213.45,262.28 L214.43,261.08 L215.25,260.04 L215.91,259.16 L216.39,258.44 L216.69,257.88 L216.81,257.48 L216.73,257.22 L216.45,257.11 L215.98,257.13 L215.32,257.28 L214.48,257.54 L213.46,257.90 L212.27,258.35 L210.94,258.87 L209.47,259.45 L207.87,260.07 L206.18,260.72 L204.41,261.39 L202.57,262.05 L200.70,262.69 L198.82,263.30 L196.94,263.87 L195.10,264.38 L193.32,264.82 L191.62,265.19 L190.02,265.47 L188.54,265.66 L187.21,265.75 L186.04,265.74 L185.06,265.62 L184.27,265.40 L183.69,265.07 L183.33,264.64 L183.20,264.11 L183.30,263.49 L183.63,262.77 L184.21,261.98 L185.01,261.11 L186.04,260.17 L187.29,259.18 L188.75,258.15 L190.40,257.08 L192.22,255.99 L194.20,254.88 L196.32,253.77 L198.56,252.67 L200.88,251.59 L203.27,250.53 L205.69,249.51 L208.12,248.54 L210.54,247.62 L212.91,246.75 L215.20,245.95 L217.39,245.22 L219.45,244.56 L221.36,243.96 L223.09,243.44 L224.61,242.99 L225.91,242.61 L226.98,242.30 L227.78,242.04 L228.32,241.85 L228.58,241.71 L228.55,241.61 L228.23,241.55 L227.61,241.52 L226.71,241.51 L225.52,241.52 L224.05,241.54 L222.31,241.55 L220.33,241.55 L218.10,241.53 L215.67,241.49 L213.03,241.41 L210.23,241.30 L207.28,241.14 L204.22,240.94 L201.07,240.68 L197.86,240.37 L194.63,240.00 L191.39,239.58 L188.19,239.10 L185.06,238.56 L182.02,237.98 L179.11,237.34 L176.34,236.66 L173.75,235.95 L171.37,235.20 L169.20,234.43 L167.28,233.64 L165.62,232.84 L164.23,232.04 L163.13,231.24 L162.31,230.46 L161.80,229.70 L161.58,228.98 L161.67,228.29 L162.05,227.65 L162.71,227.07 L163.65,226.54 L164.86,226.07 L166.31,225.68 L167.99,225.35 L169.87,225.09 L171.95,224.91 L174.18,224.81 L176.56,224.77 L179.04,224.80 L181.60,224.90 L184.22,225.05 L186.86,225.26 L189.50,225.52 L192.11,225.81 L194.66,226.14 L197.13,226.48 L199.49,226.84 L201.72,227.19 L203.80,227.53 L205.71,227.86 L207.43,228.15 L208.96,228.39 L210.27,228.59 L211.36,228.72 L212.22,228.78 L212.86,228.76 L213.27,228.65 L213.45,228.45 L213.41,228.16 L213.15,227.76 L212.69,227.27 L212.05,226.67 L211.22,225.97 L210.24,225.16 L209.13,224.27 L207.89,223.28 L206.55,222.22 L205.14,221.07 L203.68,219.87 L202.20,218.61 L200.70,217.31 L199.23,215.99 L197.80,214.65 L196.44,213.31 L195.16,211.98 L194.00,210.69 L192.95,209.45 L192.05,208.26 L191.31,207.16 L190.73,206.14 L190.34,205.23 L190.14,204.43 L190.13,203.77 L190.32,203.24 L190.72,202.86 L191.31,202.64 L192.09,202.57 L193.07,202.67 L194.22,202.93 L195.55,203.36 L197.03,203.94 L198.66,204.69 L200.41,205.58 L202.27,206.62 L204.22,207.78 L206.24,209.06 L208.31,210.44 L210.40,211.91 L212.51,213.45 L214.61,215.04 L216.67,216.67 L218.67,218.30 L220.60,219.91 L222.44,221.50 L224.18,223.03 L225.78,224.48 L227.25,225.84 L228.56,227.07 L229.71,228.17 L230.70,229.11 L231.50,229.87 L232.12,230.44 L232.56,230.81 L232.81,230.96 L232.88,230.89 L232.77,230.58 L232.49,230.03 L232.04,229.25 L231.44,228.22 L230.69,226.95 L229.82,225.46 L228.82,223.74 L227.73,221.80 L226.54,219.67 L225.29,217.35 L223.99,214.87 L222.65,212.24 L221.30,209.48 L219.95,206.63 L218.61,203.69 L217.31,200.70 L216.06,197.69 L214.88,194.68 L213.78,191.70 L212.76,188.78 L211.86,185.93 L211.06,183.20 L210.39,180.60 L209.84,178.16 L209.43,175.90 L209.15,173.84 L209.01,172.00 L209.01,170.40 L209.15,169.05 L209.42,167.95 L209.82,167.13 L210.34,166.58 L210.97,166.31 L211.72,166.32 L212.56,166.60 L213.48,167.15 L214.49,167.96 L215.56,169.02 L216.68,170.31 L217.85,171.82 L219.04,173.52 L220.25,175.41 L221.47,177.44 L222.68,179.61 L223.88,181.87 L225.05,184.22 L226.19,186.61 L227.29,189.02 L228.34,191.43 L229.33,193.80 L230.27,196.11 L231.14,198.33 L231.95,200.44 L232.69,202.42 L233.37,204.23 L233.98,205.87 L234.53,207.31 L235.02,208.54 L235.45,209.56 L235.83,210.33 L236.17,210.88 L236.46,211.18 L236.72,211.23 L236.96,211.05 L237.17,210.63 L237.37,209.99 L237.57,209.13 L237.77,208.06 L237.97,206.81 L238.19,205.40 L238.42,203.83 L238.68,202.14 L238.96,200.35 L239.28,198.48 L239.62,196.57 L240.00,194.63 L240.41,192.69 L240.86,190.78 L241.34,188.93 L241.85,187.16 L242.38,185.50 L242.94,183.98 L243.51,182.61 L244.10,181.41 L244.69,180.40 L245.28,179.61 L245.87,179.04 L246.44,178.70 L247.00,178.60 L247.52,178.75 L248.01,179.15 L248.46,179.80 L248.86,180.69 L249.21,181.82 L249.51,183.18 L249.74,184.76 L249.91,186.54 L250.01,188.50 L250.04,190.63 L250.01,192.90 L249.91,195.29 L249.75,197.77 L249.52,200.33 L249.24,202.92 L248.91,205.53 L248.54,208.12 L248.13,210.68 L247.70,213.16 L247.24,215.55 L246.78,217.81 L246.33,219.93 L245.89,221.87 L245.48,223.63 L245.10,225.18 L244.78,226.50 L244.52,227.57 L244.34,228.40 L244.24,228.96 L244.23,229.25 L244.33,229.28 L244.54,229.03 L244.88,228.51 L245.33,227.73 L245.92,226.70 L246.65,225.42 L247.50,223.91 L248.50,222.19 L249.62,220.27 L250.88,218.18 L252.26,215.94 L253.76,213.57 L255.37,211.10 L257.08,208.55 L258.88,205.95 L260.75,203.32 L262.69,200.70 L264.67,198.12 L266.69,195.59 L268.72,193.14 L270.74,190.80 L272.75,188.59 L274.72,186.54 L276.63,184.65 L278.47,182.96 L280.22,181.47 L281.87,180.20 L283.39,179.17 L284.78,178.36 L286.02,177.80 L287.10,177.49 L288.02,177.42 L288.75,177.60 L289.30,178.02 L289.67,178.66 L289.85,179.53 L289.83,180.61 L289.63,181.89 L289.25,183.34 L288.70,184.96 L287.97,186.72 L287.09,188.61 L286.07,190.60 L284.91,192.67 L283.64,194.81 L282.28,196.98 L280.84,199.16 L279.33,201.35 L277.79,203.51 L276.23,205.62 L274.68,207.66 L273.14,209.63 L271.66,211.50 L270.23,213.25 L268.90,214.88 L267.66,216.37 L266.55,217.72 L265.57,218.92 L264.75,219.96 L264.09,220.84 L263.61,221.56 L263.31,222.12 L263.19,222.52 L263.27,222.78 L263.55,222.89 L264.02,222.87 L264.68,222.72 L265.52,222.46 L266.54,222.10 L267.73,221.65 L269.06,221.13 L270.53,220.55 L272.13,219.93 L273.82,219.28 L275.59,218.61 L277.43,217.95 L279.30,217.31 L281.18,216.70 L283.06,216.13 L284.90,215.62 L286.68,215.18 L288.38,214.81 L289.98,214.53 L291.46,214.34 L292.79,214.25 L293.96,214.26 L294.94,214.38 L295.73,214.60 L296.31,214.93 L296.67,215.36 L296.80,215.89 L296.70,216.51 L296.37,217.23 L295.79,218.02 L294.99,218.89 L293.96,219.83 L292.71,220.82 L291.25,221.85 L289.60,222.92 L287.78,224.01 L285.80,225.12 L283.68,226.23 L281.44,227.33 L279.12,228.41 L276.73,229.47 L274.31,230.49 L271.88,231.46 L269.46,232.38 L267.09,233.25 L264.80,234.05 L262.61,234.78 L260.55,235.44 L258.64,236.04 L256.91,236.56 L255.39,237.01 L254.09,237.39 L253.02,237.70 L252.22,237.96 L251.68,238.15 L251.42,238.29 L251.45,238.39 L251.77,238.45 L252.39,238.48 L253.29,238.49 L254.48,238.48 L255.95,238.46 L257.69,238.45 L259.67,238.45 L261.90,238.47 L264.33,238.51 L266.97,238.59 L269.77,238.70 L272.72,238.86 L275.78,239.06 L278.93,239.32 L282.14,239.63Z" stroke="#e8e0d0" fill="none" stroke-width="0.8" stroke-linejoin="round"/>
<path d="M300.50,240.00 L304.81,240.57 L309.08,241.21 L313.25,241.92 L317.31,242.70 L321.19,243.54 L324.88,244.45 L328.33,245.40 L331.51,246.40 L334.40,247.43 L336.96,248.48 L339.17,249.55 L341.03,250.62 L342.50,251.68 L343.58,252.72 L344.27,253.73 L344.55,254.69 L344.44,255.61 L343.94,256.46 L343.05,257.25 L341.80,257.95 L340.19,258.57 L338.26,259.10 L336.02,259.54 L333.50,259.87 L330.73,260.12 L327.75,260.26 L324.59,260.31 L321.28,260.27 L317.87,260.14 L314.38,259.93 L310.85,259.65 L307.33,259.31 L303.86,258.92 L300.45,258.48 L297.16,258.02 L294.02,257.55 L291.04,257.08 L288.27,256.62 L285.72,256.19 L283.42,255.80 L281.39,255.48 L279.64,255.22 L278.19,255.04 L277.03,254.96 L276.19,254.99 L275.64,255.13 L275.40,255.39 L275.46,255.79 L275.80,256.31 L276.41,256.98 L277.27,257.78 L278.37,258.71 L279.67,259.78 L281.17,260.98 L282.82,262.29 L284.60,263.71 L286.48,265.23 L288.42,266.84 L290.41,268.52 L292.39,270.25 L294.36,272.02 L296.26,273.81 L298.08,275.59 L299.78,277.35 L301.34,279.08 L302.73,280.74 L303.93,282.32 L304.92,283.79 L305.69,285.15 L306.21,286.36 L306.48,287.42 L306.49,288.31 L306.23,289.01 L305.71,289.52 L304.92,289.82 L303.87,289.90 L302.57,289.77 L301.03,289.42 L299.27,288.86 L297.29,288.07 L295.13,287.08 L292.79,285.89 L290.31,284.51 L287.71,282.96 L285.02,281.25 L282.26,279.41 L279.46,277.45 L276.65,275.39 L273.86,273.27 L271.11,271.11 L268.44,268.94 L265.86,266.78 L263.41,264.67 L261.10,262.63 L258.96,260.69 L257.00,258.88 L255.25,257.24 L253.71,255.78 L252.40,254.52 L251.33,253.51 L250.50,252.74 L249.92,252.25 L249.59,252.05 L249.49,252.15 L249.64,252.56 L250.01,253.29 L250.61,254.34 L251.41,255.71 L252.41,257.39 L253.58,259.39 L254.90,261.68 L256.36,264.26 L257.94,267.11 L259.61,270.20 L261.35,273.51 L263.13,277.01 L264.93,280.69 L266.74,284.50 L268.52,288.41 L270.25,292.39 L271.92,296.41 L273.49,300.42 L274.97,304.40 L276.31,308.30 L277.53,312.09 L278.59,315.73 L279.49,319.20 L280.21,322.45 L280.76,325.46 L281.13,328.21 L281.32,330.66 L281.32,332.80 L281.14,334.61 L280.78,336.06 L280.25,337.16 L279.55,337.89 L278.70,338.25 L277.71,338.24 L276.59,337.87 L275.35,337.13 L274.01,336.05 L272.59,334.64 L271.09,332.92 L269.54,330.91 L267.95,328.64 L266.33,326.13 L264.71,323.41 L263.09,320.53 L261.49,317.50 L259.93,314.38 L258.41,311.19 L256.95,307.97 L255.55,304.76 L254.22,301.60 L252.97,298.52 L251.81,295.55 L250.73,292.74 L249.74,290.11 L248.84,287.69 L248.02,285.51 L247.29,283.59 L246.64,281.94 L246.07,280.59 L245.56,279.55 L245.11,278.83 L244.72,278.43 L244.37,278.36 L244.06,278.60 L243.77,279.16 L243.50,280.02 L243.24,281.17 L242.98,282.58 L242.71,284.25 L242.42,286.14 L242.11,288.22 L241.76,290.48 L241.38,292.87 L240.97,295.36 L240.51,297.91 L240.00,300.50 L239.45,303.08 L238.85,305.63 L238.22,308.09 L237.54,310.45 L236.83,312.66 L236.09,314.70 L235.32,316.53 L234.54,318.12 L233.75,319.46 L232.96,320.52 L232.17,321.28 L231.41,321.74 L230.67,321.87 L229.97,321.67 L229.32,321.13 L228.72,320.27 L228.18,319.08 L227.71,317.57 L227.32,315.76 L227.01,313.65 L226.79,311.28 L226.65,308.67 L226.61,305.83 L226.65,302.80 L226.78,299.61 L227.00,296.30 L227.30,292.90 L227.67,289.44 L228.11,285.96 L228.61,282.50 L229.16,279.10 L229.74,275.79 L230.34,272.61 L230.95,269.59 L231.56,266.76 L232.15,264.17 L232.70,261.83 L233.19,259.76 L233.62,258.01 L233.97,256.57 L234.22,255.47 L234.35,254.72 L234.36,254.33 L234.22,254.30 L233.94,254.63 L233.50,255.32 L232.89,256.36 L232.10,257.74 L231.14,259.44 L230.00,261.45 L228.67,263.75 L227.17,266.30 L225.50,269.09 L223.65,272.08 L221.65,275.24 L219.51,278.54 L217.23,281.94 L214.83,285.41 L212.33,288.90 L209.75,292.39 L207.10,295.84 L204.42,299.22 L201.71,302.48 L199.01,305.60 L196.33,308.54 L193.71,311.28 L191.16,313.79 L188.70,316.05 L186.37,318.04 L184.17,319.73 L182.14,321.11 L180.29,322.18 L178.64,322.93 L177.19,323.35 L175.98,323.43 L175.00,323.20 L174.26,322.64 L173.77,321.78 L173.54,320.62 L173.56,319.18 L173.82,317.48 L174.33,315.54 L175.07,313.39 L176.04,311.04 L177.21,308.52 L178.58,305.87 L180.12,303.10 L181.81,300.26 L183.63,297.36 L185.55,294.45 L187.56,291.54 L189.61,288.66 L191.69,285.84 L193.77,283.11 L195.81,280.49 L197.79,278.00 L199.69,275.66 L201.47,273.49 L203.12,271.50 L204.60,269.70 L205.90,268.11 L207.00,266.72 L207.88,265.55 L208.52,264.59 L208.93,263.84 L209.08,263.30 L208.97,262.96 L208.60,262.81 L207.97,262.84 L207.09,263.04 L205.97,263.39 L204.61,263.87 L203.03,264.47 L201.25,265.16 L199.29,265.94 L197.17,266.77 L194.91,267.63 L192.54,268.51 L190.10,269.39 L187.61,270.25 L185.09,271.06 L182.59,271.82 L180.14,272.50 L177.76,273.09 L175.49,273.58 L173.35,273.96 L171.39,274.21 L169.61,274.33 L168.06,274.31 L166.74,274.16 L165.69,273.86 L164.92,273.43 L164.44,272.85 L164.26,272.15 L164.40,271.32 L164.84,270.36 L165.61,269.30 L166.68,268.14 L168.06,266.90 L169.72,265.58 L171.66,264.20 L173.86,262.77 L176.29,261.32 L178.94,259.84 L181.76,258.36 L184.74,256.89 L187.84,255.45 L191.02,254.04 L194.25,252.69 L197.50,251.39 L200.72,250.16 L203.88,249.01 L206.93,247.94 L209.85,246.96 L212.60,246.07 L215.14,245.28 L217.45,244.59 L219.48,243.99 L221.22,243.48 L222.64,243.06 L223.71,242.73 L224.43,242.47 L224.77,242.28 L224.73,242.15 L224.30,242.07 L223.48,242.03 L222.28,242.02 L220.69,242.03 L218.73,242.05 L216.42,242.06 L213.77,242.06 L210.81,242.04 L207.56,241.98 L204.05,241.88 L200.31,241.73 L196.38,241.52 L192.30,241.25 L188.09,240.91 L183.82,240.49 L179.50,240.00 L175.19,239.43 L170.92,238.79 L166.75,238.08 L162.69,237.30 L158.81,236.46 L155.12,235.55 L151.67,234.60 L148.49,233.60 L145.60,232.57 L143.04,231.52 L140.83,230.45 L138.97,229.38 L137.50,228.32 L136.42,227.28 L135.73,226.27 L135.45,225.31 L135.56,224.39 L136.06,223.54 L136.95,222.75 L138.20,222.05 L139.81,221.43 L141.74,220.90 L143.98,220.46 L146.50,220.13 L149.27,219.88 L152.25,219.74 L155.41,219.69 L158.72,219.73 L162.13,219.86 L165.62,220.07 L169.15,220.35 L172.67,220.69 L176.14,221.08 L179.55,221.52 L182.84,221.98 L185.98,222.45 L188.96,222.92 L191.73,223.38 L194.28,223.81 L196.58,224.20 L198.61,224.52 L200.36,224.78 L201.81,224.96 L202.97,225.04 L203.81,225.01 L204.36,224.87 L204.60,224.61 L204.54,224.21 L204.20,223.69 L203.59,223.02 L202.73,222.22 L201.63,221.29 L200.33,220.22 L198.83,219.02 L197.18,217.71 L195.40,216.29 L193.52,214.77 L191.58,213.16 L189.59,211.48 L187.61,209.75 L185.64,207.98 L183.74,206.19 L181.92,204.41 L180.22,202.65 L178.66,200.92 L177.27,199.26 L176.07,197.68 L175.08,196.21 L174.31,194.85 L173.79,193.64 L173.52,192.58 L173.51,191.69 L173.77,190.99 L174.29,190.48 L175.08,190.18 L176.13,190.10 L177.43,190.23 L178.97,190.58 L180.73,191.14 L182.71,191.93 L184.87,192.92 L187.21,194.11 L189.69,195.49 L192.29,197.04 L194.98,198.75 L197.74,200.59 L200.54,202.55 L203.35,204.61 L206.14,206.73 L208.89,208.89 L211.56,211.06 L214.14,213.22 L216.59,215.33 L218.90,217.37 L221.04,219.31 L223.00,221.12 L224.75,222.76 L226.29,224.22 L227.60,225.48 L228.67,226.49 L229.50,227.26 L230.08,227.75 L230.41,227.95 L230.51,227.85 L230.36,227.44 L229.99,226.71 L229.39,225.66 L228.59,224.29 L227.59,222.61 L226.42,220.61 L225.10,218.32 L223.64,215.74 L222.06,212.89 L220.39,209.80 L218.65,206.49 L216.87,202.99 L215.07,199.31 L213.26,195.50 L211.48,191.59 L209.75,187.61 L208.08,183.59 L206.51,179.58 L205.03,175.60 L203.69,171.70 L202.47,167.91 L201.41,164.27 L200.51,160.80 L199.79,157.55 L199.24,154.54 L198.87,151.79 L198.68,149.34 L198.68,147.20 L198.86,145.39 L199.22,143.94 L199.75,142.84 L200.45,142.11 L201.30,141.75 L202.29,141.76 L203.41,142.13 L204.65,142.87 L205.99,143.95 L207.41,145.36 L208.91,147.08 L210.46,149.09 L212.05,151.36 L213.67,153.87 L215.29,156.59 L216.91,159.47 L218.51,162.50 L220.07,165.62 L221.59,168.81 L223.05,172.03 L224.45,175.24 L225.78,178.40 L227.03,181.48 L228.19,184.45 L229.27,187.26 L230.26,189.89 L231.16,192.31 L231.98,194.49 L232.71,196.41 L233.36,198.06 L233.93,199.41 L234.44,200.45 L234.89,201.17 L235.28,201.57 L235.63,201.64 L235.94,201.40 L236.23,200.84 L236.50,199.98 L236.76,198.83 L237.02,197.42 L237.29,195.75 L237.58,193.86 L237.89,191.78 L238.24,189.52 L238.62,187.13 L239.03,184.64 L239.49,182.09 L240.00,179.50 L240.55,176.92 L241.15,174.37 L241.78,171.91 L242.46,169.55 L243.17,167.34 L243.91,165.30 L244.68,163.47 L245.46,161.88 L246.25,160.54 L247.04,159.48 L247.83,158.72 L248.59,158.26 L249.33,158.13 L250.03,158.33 L250.68,158.87 L251.28,159.73 L251.82,160.92 L252.29,162.43 L252.68,164.24 L252.99,166.35 L253.21,168.72 L253.35,171.33 L253.39,174.17 L253.35,177.20 L253.22,180.39 L253.00,183.70 L252.70,187.10 L252.33,190.56 L251.89,194.04 L251.39,197.50 L250.84,200.90 L250.26,204.21 L249.66,207.39 L249.05,210.41 L248.44,213.24 L247.85,215.83 L247.30,218.17 L246.81,220.24 L246.38,221.99 L246.03,223.43 L245.78,224.53 L245.65,225.28 L245.64,225.67 L245.78,225.70 L246.06,225.37 L246.50,224.68 L247.11,223.64 L247.90,222.26 L248.86,220.56 L250.00,218.55 L251.33,216.25 L252.83,213.70 L254.50,210.91 L256.35,207.92 L258.35,204.76 L260.49,201.46 L262.77,198.06 L265.17,194.59 L267.67,191.10 L270.25,187.61 L272.90,184.16 L275.58,180.78 L278.29,177.52 L280.99,174.40 L283.67,171.46 L286.29,168.72 L288.84,166.21 L291.30,163.95 L293.63,161.96 L295.83,160.27 L297.86,158.89 L299.71,157.82 L301.36,157.07 L302.81,156.65 L304.02,156.57 L305.00,156.80 L305.74,157.36 L306.23,158.22 L306.46,159.38 L306.44,160.82 L306.18,162.52 L305.67,164.46 L304.93,166.61 L303.96,168.96 L302.79,171.48 L301.42,174.13 L299.88,176.90 L298.19,179.74 L296.37,182.64 L294.45,185.55 L292.44,188.46 L290.39,191.34 L288.31,194.16 L286.23,196.89 L284.19,199.51 L282.21,202.00 L280.31,204.34 L278.53,206.51 L276.88,208.50 L275.40,210.30 L274.10,211.89 L273.00,213.28 L272.12,214.45 L271.48,215.41 L271.07,216.16 L270.92,216.70 L271.03,217.04 L271.40,217.19 L272.03,217.16 L272.91,216.96 L274.03,216.61 L275.39,216.13 L276.97,215.53 L278.75,214.84 L280.71,214.06 L282.83,213.23 L285.09,212.37 L287.46,211.49 L289.90,210.61 L292.39,209.75 L294.91,208.94 L297.41,208.18 L299.86,207.50 L302.24,206.91 L304.51,206.42 L306.65,206.04 L308.61,205.79 L310.39,205.67 L311.94,205.69 L313.26,205.84 L314.31,206.14 L315.08,206.57 L315.56,207.15 L315.74,207.85 L315.60,208.68 L315.16,209.64 L314.39,210.70 L313.32,211.86 L311.94,213.10 L310.28,214.42 L308.34,215.80 L306.14,217.23 L303.71,218.68 L301.06,220.16 L298.24,221.64 L295.26,223.11 L292.16,224.55 L288.98,225.96 L285.75,227.31 L282.50,228.61 L279.28,229.84 L276.12,230.99 L273.07,232.06 L270.15,233.04 L267.40,233.93 L264.86,234.72 L262.55,235.41 L260.52,236.01 L258.78,236.52 L257.36,236.94 L256.29,237.27 L255.57,237.53 L255.23,237.72 L255.27,237.85 L255.70,237.93 L256.52,237.97 L257.72,237.98 L259.31,237.97 L261.27,237.95 L263.58,237.94 L266.23,237.94 L269.19,237.96 L272.44,238.02 L275.95,238.12 L279.69,238.27 L283.62,238.48 L287.70,238.75 L291.91,239.09 L296.18,239.51Z" stroke="#e8e0d0" fill="none" stroke-width="1.4" stroke-linejoin="round"/>
<line x1="322.50" y1="240.00" x2="377.50" y2="240.00" stroke="#e8e0d0" stroke-width="0.7" stroke-linecap="round"/>
<polygon points="383.55,240.00 377.50,243.03 375.38,240.00 377.50,236.97" stroke="#e8e0d0" fill="#e8e0d0" stroke-width="0.4"/>
<line x1="311.45" y1="281.25" x2="359.08" y2="308.75" stroke="#e8e0d0" stroke-width="0.7" stroke-linecap="round"/>
<polygon points="364.32,311.77 357.57,311.37 357.24,307.69 360.59,306.13" stroke="#e8e0d0" fill="#e8e0d0" stroke-width="0.4"/>
<line x1="281.25" y1="311.45" x2="308.75" y2="359.08" stroke="#e8e0d0" stroke-width="0.7" stroke-linecap="round"/>
<polygon points="311.77,364.32 306.13,360.59 307.69,357.24 311.37,357.57" stroke="#e8e0d0" fill="#e8e0d0" stroke-width="0.4"/>
<line x1="240.00" y1="322.50" x2="240.00" y2="377.50" stroke="#e8e0d0" stroke-width="0.7" stroke-linecap="round"/>
<polygon points="240.00,383.55 236.97,377.50 240.00,375.38 243.03,377.50" stroke="#e8e0d0" fill="#e8e0d0" stroke-width="0.4"/>
<line x1="198.75" y1="311.45" x2="171.25" y2="359.08" stroke="#e8e0d0" stroke-width="0.7" stroke-linecap="round"/>
<polygon points="168.23,364.32 168.63,357.57 172.31,357.24 173.87,360.59" stroke="#e8e0d0" fill="#e8e0d0" stroke-width="0.4"/>
<line x1="168.55" y1="281.25" x2="120.92" y2="308.75" stroke="#e8e0d0" stroke-width="0.7" stroke-linecap="round"/>
<polygon points="115.68,311.77 119.41,306.13 122.76,307.69 122.43,311.37" stroke="#e8e0d0" fill="#e8e0d0" stroke-width="0.4"/>
<line x1="157.50" y1="240.00" x2="102.50" y2="240.00" stroke="#e8e0d0" stroke-width="0.7" stroke-linecap="round"/>
<polygon points="96.45,240.00 102.50,236.98 104.62,240.00 102.50,243.03" stroke="#e8e0d0" fill="#e8e0d0" stroke-width="0.4"/>
<line x1="168.55" y1="198.75" x2="120.92" y2="171.25" stroke="#e8e0d0" stroke-width="0.7" stroke-linecap="round"/>
<polygon points="115.68,168.23 122.43,168.63 122.76,172.31 119.41,173.87" stroke="#e8e0d0" fill="#e8e0d0" stroke-width="0.4"/>
<line x1="198.75" y1="168.55" x2="171.25" y2="120.92" stroke="#e8e0d0" stroke-width="0.7" stroke-linecap="round"/>
<polygon points="168.22,115.68 173.87,119.41 172.31,122.76 168.63,122.43" stroke="#e8e0d0" fill="#e8e0d0" stroke-width="0.4"/>
<line x1="240.00" y1="157.50" x2="240.00" y2="102.50" stroke="#e8e0d0" stroke-width="0.7" stroke-linecap="round"/>
<polygon points="240.00,96.45 243.02,102.50 240.00,104.62 236.97,102.50" stroke="#e8e0d0" fill="#e8e0d0" stroke-width="0.4"/>
<line x1="281.25" y1="168.55" x2="308.75" y2="120.92" stroke="#e8e0d0" stroke-width="0.7" stroke-linecap="round"/>
<polygon points="311.77,115.68 311.37,122.43 307.69,122.76 306.13,119.41" stroke="#e8e0d0" fill="#e8e0d0" stroke-width="0.4"/>
<line x1="311.45" y1="198.75" x2="359.08" y2="171.25" stroke="#e8e0d0" stroke-width="0.7" stroke-linecap="round"/>
<polygon points="364.32,168.22 360.59,173.87 357.24,172.31 357.57,168.63" stroke="#e8e0d0" fill="#e8e0d0" stroke-width="0.4"/>
<line x1="240.00" y1="240.00" x2="281.80" y2="240.00" stroke="#e8e0d0" stroke-width="0.3" stroke-linecap="round"/>
<line x1="240.00" y1="240.00" x2="280.38" y2="250.82" stroke="#e8e0d0" stroke-width="0.3" stroke-linecap="round"/>
<line x1="240.00" y1="240.00" x2="276.20" y2="260.90" stroke="#e8e0d0" stroke-width="0.3" stroke-linecap="round"/>
<line x1="240.00" y1="240.00" x2="269.56" y2="269.56" stroke="#e8e0d0" stroke-width="0.3" stroke-linecap="round"/>
<line x1="240.00" y1="240.00" x2="260.90" y2="276.20" stroke="#e8e0d0" stroke-width="0.3" stroke-linecap="round"/>
<line x1="240.00" y1="240.00" x2="250.82" y2="280.38" stroke="#e8e0d0" stroke-width="0.3" stroke-linecap="round"/>
<line x1="240.00" y1="240.00" x2="240.00" y2="281.80" stroke="#e8e0d0" stroke-width="0.3" stroke-linecap="round"/>
<line x1="240.00" y1="240.00" x2="229.18" y2="280.38" stroke="#e8e0d0" stroke-width="0.3" stroke-linecap="round"/>
<line x1="240.00" y1="240.00" x2="219.10" y2="276.20" stroke="#e8e0d0" stroke-width="0.3" stroke-linecap="round"/>
<line x1="240.00" y1="240.00" x2="210.44" y2="269.56" stroke="#e8e0d0" stroke-width="0.3" stroke-linecap="round"/>
<line x1="240.00" y1="240.00" x2="203.80" y2="260.90" stroke="#e8e0d0" stroke-width="0.3" stroke-linecap="round"/>
<line x1="240.00" y1="240.00" x2="199.62" y2="250.82" stroke="#e8e0d0" stroke-width="0.3" stroke-linecap="round"/>
<line x1="240.00" y1="240.00" x2="198.20" y2="240.00" stroke="#e8e0d0" stroke-width="0.3" stroke-linecap="round"/>
<line x1="240.00" y1="240.00" x2="199.62" y2="229.18" stroke="#e8e0d0" stroke-width="0.3" stroke-linecap="round"/>
<line x1="240.00" y1="240.00" x2="203.80" y2="219.10" stroke="#e8e0d0" stroke-width="0.3" stroke-linecap="round"/>
<line x1="240.00" y1="240.00" x2="210.44" y2="210.44" stroke="#e8e0d0" stroke-width="0.3" stroke-linecap="round"/>
<line x1="240.00" y1="240.00" x2="219.10" y2="203.80" stroke="#e8e0d0" stroke-width="0.3" stroke-linecap="round"/>
<line x1="240.00" y1="240.00" x2="229.18" y2="199.62" stroke="#e8e0d0" stroke-width="0.3" stroke-linecap="round"/>
<line x1="240.00" y1="240.00" x2="240.00" y2="198.20" stroke="#e8e0d0" stroke-width="0.3" stroke-linecap="round"/>
<line x1="240.00" y1="240.00" x2="250.82" y2="199.62" stroke="#e8e0d0" stroke-width="0.3" stroke-linecap="round"/>
<line x1="240.00" y1="240.00" x2="260.90" y2="203.80" stroke="#e8e0d0" stroke-width="0.3" stroke-linecap="round"/>
<line x1="240.00" y1="240.00" x2="269.56" y2="210.44" stroke="#e8e0d0" stroke-width="0.3" stroke-linecap="round"/>
<line x1="240.00" y1="240.00" x2="276.20" y2="219.10" stroke="#e8e0d0" stroke-width="0.3" stroke-linecap="round"/>
<line x1="240.00" y1="240.00" x2="280.38" y2="229.18" stroke="#e8e0d0" stroke-width="0.3" stroke-linecap="round"/>
<circle cx="240.00" cy="240.00" r="41.80" stroke="#e8e0d0" fill="none" stroke-width="0.35"/>
<circle cx="240.00" cy="240.00" r="27.50" stroke="#e8e0d0" fill="none" stroke-width="0.3"/>
<circle cx="240.00" cy="240.00" r="14.30" stroke="#4dd9c0" fill="none" stroke-width="0.9"/>
<circle cx="240.00" cy="240.00" r="6.60" stroke="none" fill="#4dd9c0"/>
</svg>