<svg xmlns="http://www.w3.org/2000/svg" viewBox="0 0 400 400" width="400" height="400">
  <rect width="400" height="400" fill="#1c1c1e"/>
  <line x1="211.39" y1="181.92" x2="213.71" y2="216.97" stroke="rgb(245,240,230)" stroke-opacity="0.500" stroke-width="0.9"/>
  <line x1="211.39" y1="181.92" x2="189.44" y2="203.24" stroke="rgb(245,240,230)" stroke-opacity="0.730" stroke-width="0.9"/>
  <line x1="211.39" y1="181.92" x2="185.27" y2="197.87" stroke="rgb(245,240,230)" stroke-opacity="0.355" stroke-width="0.9"/>
  <line x1="213.71" y1="216.97" x2="189.44" y2="203.24" stroke="rgb(245,240,230)" stroke-opacity="0.670" stroke-width="0.9"/>
  <line x1="213.71" y1="216.97" x2="185.27" y2="197.87" stroke="rgb(245,240,230)" stroke-opacity="0.295" stroke-width="0.9"/>
  <line x1="189.44" y1="203.24" x2="185.27" y2="197.87" stroke="rgb(245,240,230)" stroke-opacity="0.525" stroke-width="0.9"/>
  <line x1="224.98" y1="193.32" x2="227.74" y2="226.15" stroke="rgb(245,240,230)" stroke-opacity="0.690" stroke-width="0.9"/>
  <line x1="224.98" y1="193.32" x2="210.48" y2="163.49" stroke="rgb(245,240,230)" stroke-opacity="0.693" stroke-width="0.9"/>
  <line x1="224.98" y1="193.32" x2="190.83" y2="184.54" stroke="rgb(245,240,230)" stroke-opacity="0.859" stroke-width="0.9"/>
  <line x1="224.98" y1="193.32" x2="237.42" y2="189.59" stroke="rgb(245,240,230)" stroke-opacity="0.588" stroke-width="0.9"/>
  <line x1="224.98" y1="193.32" x2="200.13" y2="218.42" stroke="rgb(245,240,230)" stroke-opacity="0.858" stroke-width="0.9"/>
  <line x1="227.74" y1="226.15" x2="212.76" y2="221.51" stroke="rgb(245,240,230)" stroke-opacity="0.356" stroke-width="0.9"/>
  <line x1="227.74" y1="226.15" x2="189.13" y2="237.88" stroke="rgb(245,240,230)" stroke-opacity="0.522" stroke-width="0.9"/>
  <line x1="227.74" y1="226.15" x2="237.42" y2="189.59" stroke="rgb(245,240,230)" stroke-opacity="0.459" stroke-width="0.9"/>
  <line x1="227.74" y1="226.15" x2="200.13" y2="218.42" stroke="rgb(245,240,230)" stroke-opacity="0.729" stroke-width="0.9"/>
  <line x1="171.36" y1="173.01" x2="167.67" y2="208.64" stroke="rgb(245,240,230)" stroke-opacity="0.360" stroke-width="0.9"/>
  <line x1="171.36" y1="173.01" x2="210.48" y2="163.49" stroke="rgb(245,240,230)" stroke-opacity="0.528" stroke-width="0.9"/>
  <line x1="171.36" y1="173.01" x2="190.83" y2="184.54" stroke="rgb(245,240,230)" stroke-opacity="0.694" stroke-width="0.9"/>
  <line x1="171.36" y1="173.01" x2="199.82" y2="174.45" stroke="rgb(245,240,230)" stroke-opacity="0.321" stroke-width="0.9"/>
  <line x1="171.36" y1="173.01" x2="167.67" y2="208.99" stroke="rgb(245,240,230)" stroke-opacity="0.591" stroke-width="0.9"/>
  <line x1="167.67" y1="208.64" x2="212.76" y2="221.51" stroke="rgb(245,240,230)" stroke-opacity="0.191" stroke-width="0.9"/>
  <line x1="167.67" y1="208.64" x2="189.13" y2="237.88" stroke="rgb(245,240,230)" stroke-opacity="0.357" stroke-width="0.9"/>
  <line x1="167.67" y1="208.64" x2="199.82" y2="174.45" stroke="rgb(245,240,230)" stroke-opacity="0.192" stroke-width="0.9"/>
  <line x1="167.67" y1="208.64" x2="167.67" y2="208.99" stroke="rgb(245,240,230)" stroke-opacity="0.462" stroke-width="0.9"/>
  <line x1="210.48" y1="163.49" x2="190.83" y2="184.54" stroke="rgb(245,240,230)" stroke-opacity="0.734" stroke-width="0.9"/>
  <line x1="210.48" y1="163.49" x2="237.42" y2="189.59" stroke="rgb(245,240,230)" stroke-opacity="0.462" stroke-width="0.9"/>
  <line x1="210.48" y1="163.49" x2="199.82" y2="174.45" stroke="rgb(245,240,230)" stroke-opacity="0.360" stroke-width="0.9"/>
  <line x1="190.83" y1="184.54" x2="200.13" y2="218.42" stroke="rgb(245,240,230)" stroke-opacity="0.898" stroke-width="0.9"/>
  <line x1="190.83" y1="184.54" x2="167.67" y2="208.99" stroke="rgb(245,240,230)" stroke-opacity="0.796" stroke-width="0.9"/>
  <line x1="212.76" y1="221.51" x2="189.13" y2="237.88" stroke="rgb(245,240,230)" stroke-opacity="0.316" stroke-width="0.9"/>
  <line x1="212.76" y1="221.51" x2="237.42" y2="189.59" stroke="rgb(245,240,230)" stroke-opacity="0.254" stroke-width="0.9"/>
  <line x1="212.76" y1="221.51" x2="199.82" y2="174.45" stroke="rgb(245,240,230)" stroke-opacity="0.152" stroke-width="0.9"/>
  <line x1="189.13" y1="237.88" x2="200.13" y2="218.42" stroke="rgb(245,240,230)" stroke-opacity="0.690" stroke-width="0.9"/>
  <line x1="189.13" y1="237.88" x2="167.67" y2="208.99" stroke="rgb(245,240,230)" stroke-opacity="0.588" stroke-width="0.9"/>
  <line x1="237.42" y1="189.59" x2="199.82" y2="174.45" stroke="rgb(245,240,230)" stroke-opacity="0.256" stroke-width="0.9"/>
  <line x1="200.13" y1="218.42" x2="167.67" y2="208.99" stroke="rgb(245,240,230)" stroke-opacity="0.794" stroke-width="0.9"/>
  <line x1="243.54" y1="172.26" x2="231.09" y2="198.36" stroke="rgb(245,240,230)" stroke-opacity="0.715" stroke-width="0.9"/>
  <line x1="243.54" y1="172.26" x2="213.72" y2="148.28" stroke="rgb(245,240,230)" stroke-opacity="0.606" stroke-width="0.9"/>
  <line x1="243.54" y1="172.26" x2="258.29" y2="188.69" stroke="rgb(245,240,230)" stroke-opacity="0.503" stroke-width="0.9"/>
  <line x1="200.00" y1="141.99" x2="156.82" y2="160.25" stroke="rgb(245,240,230)" stroke-opacity="0.349" stroke-width="0.9"/>
  <line x1="200.00" y1="141.99" x2="213.72" y2="148.28" stroke="rgb(245,240,230)" stroke-opacity="0.467" stroke-width="0.9"/>
  <line x1="200.00" y1="141.99" x2="230.49" y2="170.41" stroke="rgb(245,240,230)" stroke-opacity="0.276" stroke-width="0.9"/>
  <line x1="250.25" y1="232.02" x2="233.53" y2="230.87" stroke="rgb(245,240,230)" stroke-opacity="0.561" stroke-width="0.9"/>
  <line x1="250.25" y1="232.02" x2="217.60" y2="251.07" stroke="rgb(245,240,230)" stroke-opacity="0.357" stroke-width="0.9"/>
  <line x1="250.25" y1="232.02" x2="258.29" y2="188.69" stroke="rgb(245,240,230)" stroke-opacity="0.407" stroke-width="0.9"/>
  <line x1="200.00" y1="213.20" x2="151.96" y2="202.54" stroke="rgb(245,240,230)" stroke-opacity="0.195" stroke-width="0.9"/>
  <line x1="200.00" y1="213.20" x2="217.60" y2="251.07" stroke="rgb(245,240,230)" stroke-opacity="0.217" stroke-width="0.9"/>
  <line x1="200.00" y1="213.20" x2="230.49" y2="170.41" stroke="rgb(245,240,230)" stroke-opacity="0.181" stroke-width="0.9"/>
  <line x1="200.00" y1="192.60" x2="231.09" y2="198.36" stroke="rgb(245,240,230)" stroke-opacity="0.855" stroke-width="0.9"/>
  <line x1="200.00" y1="192.60" x2="187.79" y2="164.57" stroke="rgb(245,240,230)" stroke-opacity="0.833" stroke-width="0.9"/>
  <line x1="200.00" y1="192.60" x2="181.11" y2="218.33" stroke="rgb(245,240,230)" stroke-opacity="0.869" stroke-width="0.9"/>
  <line x1="156.46" y1="172.26" x2="156.82" y2="160.25" stroke="rgb(245,240,230)" stroke-opacity="0.489" stroke-width="0.9"/>
  <line x1="156.46" y1="172.26" x2="187.79" y2="164.57" stroke="rgb(245,240,230)" stroke-opacity="0.693" stroke-width="0.9"/>
  <line x1="156.46" y1="172.26" x2="152.80" y2="209.16" stroke="rgb(245,240,230)" stroke-opacity="0.643" stroke-width="0.9"/>
  <line x1="200.00" y1="243.89" x2="233.53" y2="230.87" stroke="rgb(245,240,230)" stroke-opacity="0.701" stroke-width="0.9"/>
  <line x1="200.00" y1="243.89" x2="184.81" y2="257.26" stroke="rgb(245,240,230)" stroke-opacity="0.583" stroke-width="0.9"/>
  <line x1="200.00" y1="243.89" x2="181.11" y2="218.33" stroke="rgb(245,240,230)" stroke-opacity="0.774" stroke-width="0.9"/>
  <line x1="149.75" y1="232.02" x2="151.96" y2="202.54" stroke="rgb(245,240,230)" stroke-opacity="0.335" stroke-width="0.9"/>
  <line x1="149.75" y1="232.02" x2="184.81" y2="257.26" stroke="rgb(245,240,230)" stroke-opacity="0.444" stroke-width="0.9"/>
  <line x1="149.75" y1="232.02" x2="152.80" y2="209.16" stroke="rgb(245,240,230)" stroke-opacity="0.547" stroke-width="0.9"/>
  <line x1="231.09" y1="198.36" x2="233.53" y2="230.87" stroke="rgb(245,240,230)" stroke-opacity="0.751" stroke-width="0.9"/>
  <line x1="156.82" y1="160.25" x2="151.96" y2="202.54" stroke="rgb(245,240,230)" stroke-opacity="0.299" stroke-width="0.9"/>
  <line x1="213.72" y1="148.28" x2="187.79" y2="164.57" stroke="rgb(245,240,230)" stroke-opacity="0.679" stroke-width="0.9"/>
  <line x1="217.60" y1="251.07" x2="184.81" y2="257.26" stroke="rgb(245,240,230)" stroke-opacity="0.371" stroke-width="0.9"/>
  <line x1="258.29" y1="188.69" x2="230.49" y2="170.41" stroke="rgb(245,240,230)" stroke-opacity="0.299" stroke-width="0.9"/>
  <line x1="181.11" y1="218.33" x2="152.80" y2="209.16" stroke="rgb(245,240,230)" stroke-opacity="0.751" stroke-width="0.9"/>
</svg>