<svg xmlns="http://www.w3.org/2000/svg" viewBox="0 0 640 640" width="640" height="640">
  <rect width="640" height="640" fill="#f5f0e6"/>
  <path d="M 50.0,20.0 A 10.0,10.0 0 0 1 40.0,30.0 M 60.0,30.0 A 10.0,10.0 0 0 0 50.0,40.0 M 90.0,20.0 A 10.0,10.0 0 0 1 80.0,30.0 M 100.0,30.0 A 10.0,10.0 0 0 0 90.0,40.0 M 110.0,20.0 A 10.0,10.0 0 0 1 100.0,30.0 M 120.0,30.0 A 10.0,10.0 0 0 0 110.0,40.0 M 130.0,20.0 A 10.0,10.0 0 0 1 120.0,30.0 M 140.0,30.0 A 10.0,10.0 0 0 0 130.0,40.0 M 170.0,20.0 A 10.0,10.0 0 0 1 160.0,30.0 M 180.0,30.0 A 10.0,10.0 0 0 0 170.0,40.0 M 190.0,20.0 A 10.0,10.0 0 0 1 180.0,30.0 M 200.0,30.0 A 10.0,10.0 0 0 0 190.0,40.0 M 210.0,20.0 A 10.0,10.0 0 0 1 200.0,30.0 M 220.0,30.0 A 10.0,10.0 0 0 0 210.0,40.0 M 230.0,20.0 A 10.0,10.0 0 0 1 220.0,30.0 M 240.0,30.0 A 10.0,10.0 0 0 0 230.0,40.0 M 290.0,20.0 A 10.0,10.0 0 0 1 280.0,30.0 M 300.0,30.0 A 10.0,10.0 0 0 0 290.0,40.0 M 310.0,20.0 A 10.0,10.0 0 0 1 300.0,30.0 M 320.0,30.0 A 10.0,10.0 0 0 0 310.0,40.0 M 330.0,20.0 A 10.0,10.0 0 0 1 320.0,30.0 M 340.0,30.0 A 10.0,10.0 0 0 0 330.0,40.0 M 370.0,20.0 A 10.0,10.0 0 0 1 360.0,30.0 M 380.0,30.0 A 10.0,10.0 0 0 0 370.0,40.0 M 390.0,20.0 A 10.0,10.0 0 0 1 380.0,30.0 M 400.0,30.0 A 10.0,10.0 0 0 0 390.0,40.0 M 410.0,20.0 A 10.0,10.0 0 0 1 400.0,30.0 M 420.0,30.0 A 10.0,10.0 0 0 0 410.0,40.0 M 430.0,20.0 A 10.0,10.0 0 0 1 420.0,30.0 M 440.0,30.0 A 10.0,10.0 0 0 0 430.0,40.0 M 470.0,20.0 A 10.0,10.0 0 0 1 460.0,30.0 M 480.0,30.0 A 10.0,10.0 0 0 0 470.0,40.0 M 490.0,20.0 A 10.0,10.0 0 0 1 480.0,30.0 M 500.0,30.0 A 10.0,10.0 0 0 0 490.0,40.0 M 510.0,20.0 A 10.0,10.0 0 0 1 500.0,30.0 M 520.0,30.0 A 10.0,10.0 0 0 0 510.0,40.0 M 530.0,20.0 A 10.0,10.0 0 0 1 520.0,30.0 M 540.0,30.0 A 10.0,10.0 0 0 0 530.0,40.0 M 590.0,20.0 A 10.0,10.0 0 0 1 580.0,30.0 M 600.0,30.0 A 10.0,10.0 0 0 0 590.0,40.0 M 610.0,20.0 A 10.0,10.0 0 0 1 600.0,30.0 M 620.0,30.0 A 10.0,10.0 0 0 0 610.0,40.0 M 50.0,40.0 A 10.0,10.0 0 0 1 40.0,50.0 M 60.0,50.0 A 10.0,10.0 0 0 0 50.0,60.0 M 70.0,40.0 A 10.0,10.0 0 0 1 60.0,50.0 M 80.0,50.0 A 10.0,10.0 0 0 0 70.0,60.0 M 90.0,40.0 A 10.0,10.0 0 0 1 80.0,50.0 M 100.0,50.0 A 10.0,10.0 0 0 0 90.0,60.0 M 130.0,40.0 A 10.0,10.0 0 0 1 120.0,50.0 M 140.0,50.0 A 10.0,10.0 0 0 0 130.0,60.0 M 150.0,40.0 A 10.0,10.0 0 0 1 140.0,50.0 M 160.0,50.0 A 10.0,10.0 0 0 0 150.0,60.0 M 170.0,40.0 A 10.0,10.0 0 0 1 160.0,50.0 M 180.0,50.0 A 10.0,10.0 0 0 0 170.0,60.0 M 190.0,40.0 A 10.0,10.0 0 0 1 180.0,50.0 M 200.0,50.0 A 10.0,10.0 0 0 0 190.0,60.0 M 350.0,40.0 A 10.0,10.0 0 0 1 340.0,50.0 M 360.0,50.0 A 10.0,10.0 0 0 0 350.0,60.0 M 370.0,40.0 A 10.0,10.0 0 0 1 360.0,50.0 M 380.0,50.0 A 10.0,10.0 0 0 0 370.0,60.0 M 390.0,40.0 A 10.0,10.0 0 0 1 380.0,50.0 M 400.0,50.0 A 10.0,10.0 0 0 0 390.0,60.0 M 410.0,40.0 A 10.0,10.0 0 0 1 400.0,50.0 M 420.0,50.0 A 10.0,10.0 0 0 0 410.0,60.0 M 530.0,40.0 A 10.0,10.0 0 0 1 520.0,50.0 M 540.0,50.0 A 10.0,10.0 0 0 0 530.0,60.0 M 550.0,40.0 A 10.0,10.0 0 0 1 540.0,50.0 M 560.0,50.0 A 10.0,10.0 0 0 0 550.0,60.0 M 590.0,40.0 A 10.0,10.0 0 0 1 580.0,50.0 M 600.0,50.0 A 10.0,10.0 0 0 0 590.0,60.0 M 30.0,60.0 A 10.0,10.0 0 0 1 20.0,70.0 M 40.0,70.0 A 10.0,10.0 0 0 0 30.0,80.0 M 90.0,60.0 A 10.0,10.0 0 0 1 80.0,70.0 M 100.0,70.0 A 10.0,10.0 0 0 0 90.0,80.0 M 110.0,60.0 A 10.0,10.0 0 0 1 100.0,70.0 M 120.0,70.0 A 10.0,10.0 0 0 0 110.0,80.0 M 230.0,60.0 A 10.0,10.0 0 0 1 220.0,70.0 M 240.0,70.0 A 10.0,10.0 0 0 0 230.0,80.0 M 250.0,60.0 A 10.0,10.0 0 0 1 240.0,70.0 M 260.0,70.0 A 10.0,10.0 0 0 0 250.0,80.0 M 310.0,60.0 A 10.0,10.0 0 0 1 300.0,70.0 M 320.0,70.0 A 10.0,10.0 0 0 0 310.0,80.0 M 330.0,60.0 A 10.0,10.0 0 0 1 320.0,70.0 M 340.0,70.0 A 10.0,10.0 0 0 0 330.0,80.0 M 450.0,60.0 A 10.0,10.0 0 0 1 440.0,70.0 M 460.0,70.0 A 10.0,10.0 0 0 0 450.0,80.0 M 510.0,60.0 A 10.0,10.0 0 0 1 500.0,70.0 M 520.0,70.0 A 10.0,10.0 0 0 0 510.0,80.0 M 530.0,60.0 A 10.0,10.0 0 0 1 520.0,70.0 M 540.0,70.0 A 10.0,10.0 0 0 0 530.0,80.0 M 570.0,60.0 A 10.0,10.0 0 0 1 560.0,70.0 M 580.0,70.0 A 10.0,10.0 0 0 0 570.0,80.0 M 590.0,60.0 A 10.0,10.0 0 0 1 580.0,70.0 M 600.0,70.0 A 10.0,10.0 0 0 0 590.0,80.0 M 30.0,80.0 A 10.0,10.0 0 0 1 20.0,90.0 M 40.0,90.0 A 10.0,10.0 0 0 0 30.0,100.0 M 50.0,80.0 A 10.0,10.0 0 0 1 40.0,90.0 M 60.0,90.0 A 10.0,10.0 0 0 0 50.0,100.0 M 130.0,80.0 A 10.0,10.0 0 0 1 120.0,90.0 M 140.0,90.0 A 10.0,10.0 0 0 0 130.0,100.0 M 150.0,80.0 A 10.0,10.0 0 0 1 140.0,90.0 M 160.0,90.0 A 10.0,10.0 0 0 0 150.0,100.0 M 230.0,80.0 A 10.0,10.0 0 0 1 220.0,90.0 M 240.0,90.0 A 10.0,10.0 0 0 0 230.0,100.0 M 350.0,80.0 A 10.0,10.0 0 0 1 340.0,90.0 M 360.0,90.0 A 10.0,10.0 0 0 0 350.0,100.0 M 370.0,80.0 A 10.0,10.0 0 0 1 360.0,90.0 M 380.0,90.0 A 10.0,10.0 0 0 0 370.0,100.0 M 390.0,80.0 A 10.0,10.0 0 0 1 380.0,90.0 M 400.0,90.0 A 10.0,10.0 0 0 0 390.0,100.0 M 410.0,80.0 A 10.0,10.0 0 0 1 400.0,90.0 M 420.0,90.0 A 10.0,10.0 0 0 0 410.0,100.0 M 430.0,80.0 A 10.0,10.0 0 0 1 420.0,90.0 M 440.0,90.0 A 10.0,10.0 0 0 0 430.0,100.0 M 450.0,80.0 A 10.0,10.0 0 0 1 440.0,90.0 M 460.0,90.0 A 10.0,10.0 0 0 0 450.0,100.0 M 470.0,80.0 A 10.0,10.0 0 0 1 460.0,90.0 M 480.0,90.0 A 10.0,10.0 0 0 0 470.0,100.0 M 490.0,80.0 A 10.0,10.0 0 0 1 480.0,90.0 M 500.0,90.0 A 10.0,10.0 0 0 0 490.0,100.0 M 530.0,80.0 A 10.0,10.0 0 0 1 520.0,90.0 M 540.0,90.0 A 10.0,10.0 0 0 0 530.0,100.0 M 590.0,80.0 A 10.0,10.0 0 0 1 580.0,90.0 M 600.0,90.0 A 10.0,10.0 0 0 0 590.0,100.0 M 610.0,80.0 A 10.0,10.0 0 0 1 600.0,90.0 M 620.0,90.0 A 10.0,10.0 0 0 0 610.0,100.0 M 90.0,100.0 A 10.0,10.0 0 0 1 80.0,110.0 M 100.0,110.0 A 10.0,10.0 0 0 0 90.0,120.0 M 110.0,100.0 A 10.0,10.0 0 0 1 100.0,110.0 M 120.0,110.0 A 10.0,10.0 0 0 0 110.0,120.0 M 230.0,100.0 A 10.0,10.0 0 0 1 220.0,110.0 M 240.0,110.0 A 10.0,10.0 0 0 0 230.0,120.0 M 290.0,100.0 A 10.0,10.0 0 0 1 280.0,110.0 M 300.0,110.0 A 10.0,10.0 0 0 0 290.0,120.0 M 310.0,100.0 A 10.0,10.0 0 0 1 300.0,110.0 M 320.0,110.0 A 10.0,10.0 0 0 0 310.0,120.0 M 330.0,100.0 A 10.0,10.0 0 0 1 320.0,110.0 M 340.0,110.0 A 10.0,10.0 0 0 0 330.0,120.0 M 350.0,100.0 A 10.0,10.0 0 0 1 340.0,110.0 M 360.0,110.0 A 10.0,10.0 0 0 0 350.0,120.0 M 390.0,100.0 A 10.0,10.0 0 0 1 380.0,110.0 M 400.0,110.0 A 10.0,10.0 0 0 0 390.0,120.0 M 410.0,100.0 A 10.0,10.0 0 0 1 400.0,110.0 M 420.0,110.0 A 10.0,10.0 0 0 0 410.0,120.0 M 450.0,100.0 A 10.0,10.0 0 0 1 440.0,110.0 M 460.0,110.0 A 10.0,10.0 0 0 0 450.0,120.0 M 470.0,100.0 A 10.0,10.0 0 0 1 460.0,110.0 M 480.0,110.0 A 10.0,10.0 0 0 0 470.0,120.0 M 490.0,100.0 A 10.0,10.0 0 0 1 480.0,110.0 M 500.0,110.0 A 10.0,10.0 0 0 0 490.0,120.0 M 510.0,100.0 A 10.0,10.0 0 0 1 500.0,110.0 M 520.0,110.0 A 10.0,10.0 0 0 0 510.0,120.0 M 530.0,100.0 A 10.0,10.0 0 0 1 520.0,110.0 M 540.0,110.0 A 10.0,10.0 0 0 0 530.0,120.0 M 570.0,100.0 A 10.0,10.0 0 0 1 560.0,110.0 M 580.0,110.0 A 10.0,10.0 0 0 0 570.0,120.0 M 590.0,100.0 A 10.0,10.0 0 0 1 580.0,110.0 M 600.0,110.0 A 10.0,10.0 0 0 0 590.0,120.0 M 610.0,100.0 A 10.0,10.0 0 0 1 600.0,110.0 M 620.0,110.0 A 10.0,10.0 0 0 0 610.0,120.0 M 50.0,120.0 A 10.0,10.0 0 0 1 40.0,130.0 M 60.0,130.0 A 10.0,10.0 0 0 0 50.0,140.0 M 150.0,120.0 A 10.0,10.0 0 0 1 140.0,130.0 M 160.0,130.0 A 10.0,10.0 0 0 0 150.0,140.0 M 170.0,120.0 A 10.0,10.0 0 0 1 160.0,130.0 M 180.0,130.0 A 10.0,10.0 0 0 0 170.0,140.0 M 290.0,120.0 A 10.0,10.0 0 0 1 280.0,130.0 M 300.0,130.0 A 10.0,10.0 0 0 0 290.0,140.0 M 310.0,120.0 A 10.0,10.0 0 0 1 300.0,130.0 M 320.0,130.0 A 10.0,10.0 0 0 0 310.0,140.0 M 330.0,120.0 A 10.0,10.0 0 0 1 320.0,130.0 M 340.0,130.0 A 10.0,10.0 0 0 0 330.0,140.0 M 410.0,120.0 A 10.0,10.0 0 0 1 400.0,130.0 M 420.0,130.0 A 10.0,10.0 0 0 0 410.0,140.0 M 430.0,120.0 A 10.0,10.0 0 0 1 420.0,130.0 M 440.0,130.0 A 10.0,10.0 0 0 0 430.0,140.0 M 450.0,120.0 A 10.0,10.0 0 0 1 440.0,130.0 M 460.0,130.0 A 10.0,10.0 0 0 0 450.0,140.0 M 490.0,120.0 A 10.0,10.0 0 0 1 480.0,130.0 M 500.0,130.0 A 10.0,10.0 0 0 0 490.0,140.0 M 510.0,120.0 A 10.0,10.0 0 0 1 500.0,130.0 M 520.0,130.0 A 10.0,10.0 0 0 0 510.0,140.0 M 550.0,120.0 A 10.0,10.0 0 0 1 540.0,130.0 M 560.0,130.0 A 10.0,10.0 0 0 0 550.0,140.0 M 610.0,120.0 A 10.0,10.0 0 0 1 600.0,130.0 M 620.0,130.0 A 10.0,10.0 0 0 0 610.0,140.0 M 50.0,140.0 A 10.0,10.0 0 0 1 40.0,150.0 M 60.0,150.0 A 10.0,10.0 0 0 0 50.0,160.0 M 90.0,140.0 A 10.0,10.0 0 0 1 80.0,150.0 M 100.0,150.0 A 10.0,10.0 0 0 0 90.0,160.0 M 110.0,140.0 A 10.0,10.0 0 0 1 100.0,150.0 M 120.0,150.0 A 10.0,10.0 0 0 0 110.0,160.0 M 130.0,140.0 A 10.0,10.0 0 0 1 120.0,150.0 M 140.0,150.0 A 10.0,10.0 0 0 0 130.0,160.0 M 170.0,140.0 A 10.0,10.0 0 0 1 160.0,150.0 M 180.0,150.0 A 10.0,10.0 0 0 0 170.0,160.0 M 190.0,140.0 A 10.0,10.0 0 0 1 180.0,150.0 M 200.0,150.0 A 10.0,10.0 0 0 0 190.0,160.0 M 250.0,140.0 A 10.0,10.0 0 0 1 240.0,150.0 M 260.0,150.0 A 10.0,10.0 0 0 0 250.0,160.0 M 270.0,140.0 A 10.0,10.0 0 0 1 260.0,150.0 M 280.0,150.0 A 10.0,10.0 0 0 0 270.0,160.0 M 350.0,140.0 A 10.0,10.0 0 0 1 340.0,150.0 M 360.0,150.0 A 10.0,10.0 0 0 0 350.0,160.0 M 450.0,140.0 A 10.0,10.0 0 0 1 440.0,150.0 M 460.0,150.0 A 10.0,10.0 0 0 0 450.0,160.0 M 470.0,140.0 A 10.0,10.0 0 0 1 460.0,150.0 M 480.0,150.0 A 10.0,10.0 0 0 0 470.0,160.0 M 490.0,140.0 A 10.0,10.0 0 0 1 480.0,150.0 M 500.0,150.0 A 10.0,10.0 0 0 0 490.0,160.0 M 510.0,140.0 A 10.0,10.0 0 0 1 500.0,150.0 M 520.0,150.0 A 10.0,10.0 0 0 0 510.0,160.0 M 550.0,140.0 A 10.0,10.0 0 0 1 540.0,150.0 M 560.0,150.0 A 10.0,10.0 0 0 0 550.0,160.0 M 590.0,140.0 A 10.0,10.0 0 0 1 580.0,150.0 M 600.0,150.0 A 10.0,10.0 0 0 0 590.0,160.0 M 30.0,160.0 A 10.0,10.0 0 0 1 20.0,170.0 M 40.0,170.0 A 10.0,10.0 0 0 0 30.0,180.0 M 90.0,160.0 A 10.0,10.0 0 0 1 80.0,170.0 M 100.0,170.0 A 10.0,10.0 0 0 0 90.0,180.0 M 110.0,160.0 A 10.0,10.0 0 0 1 100.0,170.0 M 120.0,170.0 A 10.0,10.0 0 0 0 110.0,180.0 M 150.0,160.0 A 10.0,10.0 0 0 1 140.0,170.0 M 160.0,170.0 A 10.0,10.0 0 0 0 150.0,180.0 M 190.0,160.0 A 10.0,10.0 0 0 1 180.0,170.0 M 200.0,170.0 A 10.0,10.0 0 0 0 190.0,180.0 M 250.0,160.0 A 10.0,10.0 0 0 1 240.0,170.0 M 260.0,170.0 A 10.0,10.0 0 0 0 250.0,180.0 M 330.0,160.0 A 10.0,10.0 0 0 1 320.0,170.0 M 340.0,170.0 A 10.0,10.0 0 0 0 330.0,180.0 M 350.0,160.0 A 10.0,10.0 0 0 1 340.0,170.0 M 360.0,170.0 A 10.0,10.0 0 0 0 350.0,180.0 M 370.0,160.0 A 10.0,10.0 0 0 1 360.0,170.0 M 380.0,170.0 A 10.0,10.0 0 0 0 370.0,180.0 M 390.0,160.0 A 10.0,10.0 0 0 1 380.0,170.0 M 400.0,170.0 A 10.0,10.0 0 0 0 390.0,180.0 M 410.0,160.0 A 10.0,10.0 0 0 1 400.0,170.0 M 420.0,170.0 A 10.0,10.0 0 0 0 410.0,180.0 M 430.0,160.0 A 10.0,10.0 0 0 1 420.0,170.0 M 440.0,170.0 A 10.0,10.0 0 0 0 430.0,180.0 M 470.0,160.0 A 10.0,10.0 0 0 1 460.0,170.0 M 480.0,170.0 A 10.0,10.0 0 0 0 470.0,180.0 M 530.0,160.0 A 10.0,10.0 0 0 1 520.0,170.0 M 540.0,170.0 A 10.0,10.0 0 0 0 530.0,180.0 M 550.0,160.0 A 10.0,10.0 0 0 1 540.0,170.0 M 560.0,170.0 A 10.0,10.0 0 0 0 550.0,180.0 M 570.0,160.0 A 10.0,10.0 0 0 1 560.0,170.0 M 580.0,170.0 A 10.0,10.0 0 0 0 570.0,180.0 M 590.0,160.0 A 10.0,10.0 0 0 1 580.0,170.0 M 600.0,170.0 A 10.0,10.0 0 0 0 590.0,180.0 M 610.0,160.0 A 10.0,10.0 0 0 1 600.0,170.0 M 620.0,170.0 A 10.0,10.0 0 0 0 610.0,180.0 M 30.0,180.0 A 10.0,10.0 0 0 1 20.0,190.0 M 40.0,190.0 A 10.0,10.0 0 0 0 30.0,200.0 M 70.0,180.0 A 10.0,10.0 0 0 1 60.0,190.0 M 80.0,190.0 A 10.0,10.0 0 0 0 70.0,200.0 M 90.0,180.0 A 10.0,10.0 0 0 1 80.0,190.0 M 100.0,190.0 A 10.0,10.0 0 0 0 90.0,200.0 M 110.0,180.0 A 10.0,10.0 0 0 1 100.0,190.0 M 120.0,190.0 A 10.0,10.0 0 0 0 110.0,200.0 M 150.0,180.0 A 10.0,10.0 0 0 1 140.0,190.0 M 160.0,190.0 A 10.0,10.0 0 0 0 150.0,200.0 M 190.0,180.0 A 10.0,10.0 0 0 1 180.0,190.0 M 200.0,190.0 A 10.0,10.0 0 0 0 190.0,200.0 M 270.0,180.0 A 10.0,10.0 0 0 1 260.0,190.0 M 280.0,190.0 A 10.0,10.0 0 0 0 270.0,200.0 M 290.0,180.0 A 10.0,10.0 0 0 1 280.0,190.0 M 300.0,190.0 A 10.0,10.0 0 0 0 290.0,200.0 M 370.0,180.0 A 10.0,10.0 0 0 1 360.0,190.0 M 380.0,190.0 A 10.0,10.0 0 0 0 370.0,200.0 M 390.0,180.0 A 10.0,10.0 0 0 1 380.0,190.0 M 400.0,190.0 A 10.0,10.0 0 0 0 390.0,200.0 M 410.0,180.0 A 10.0,10.0 0 0 1 400.0,190.0 M 420.0,190.0 A 10.0,10.0 0 0 0 410.0,200.0 M 450.0,180.0 A 10.0,10.0 0 0 1 440.0,190.0 M 460.0,190.0 A 10.0,10.0 0 0 0 450.0,200.0 M 470.0,180.0 A 10.0,10.0 0 0 1 460.0,190.0 M 480.0,190.0 A 10.0,10.0 0 0 0 470.0,200.0 M 490.0,180.0 A 10.0,10.0 0 0 1 480.0,190.0 M 500.0,190.0 A 10.0,10.0 0 0 0 490.0,200.0 M 510.0,180.0 A 10.0,10.0 0 0 1 500.0,190.0 M 520.0,190.0 A 10.0,10.0 0 0 0 510.0,200.0 M 530.0,180.0 A 10.0,10.0 0 0 1 520.0,190.0 M 540.0,190.0 A 10.0,10.0 0 0 0 530.0,200.0 M 570.0,180.0 A 10.0,10.0 0 0 1 560.0,190.0 M 580.0,190.0 A 10.0,10.0 0 0 0 570.0,200.0 M 590.0,180.0 A 10.0,10.0 0 0 1 580.0,190.0 M 600.0,190.0 A 10.0,10.0 0 0 0 590.0,200.0 M 50.0,200.0 A 10.0,10.0 0 0 1 40.0,210.0 M 60.0,210.0 A 10.0,10.0 0 0 0 50.0,220.0 M 70.0,200.0 A 10.0,10.0 0 0 1 60.0,210.0 M 80.0,210.0 A 10.0,10.0 0 0 0 70.0,220.0 M 90.0,200.0 A 10.0,10.0 0 0 1 80.0,210.0 M 100.0,210.0 A 10.0,10.0 0 0 0 90.0,220.0 M 110.0,200.0 A 10.0,10.0 0 0 1 100.0,210.0 M 120.0,210.0 A 10.0,10.0 0 0 0 110.0,220.0 M 150.0,200.0 A 10.0,10.0 0 0 1 140.0,210.0 M 160.0,210.0 A 10.0,10.0 0 0 0 150.0,220.0 M 170.0,200.0 A 10.0,10.0 0 0 1 160.0,210.0 M 180.0,210.0 A 10.0,10.0 0 0 0 170.0,220.0 M 210.0,200.0 A 10.0,10.0 0 0 1 200.0,210.0 M 220.0,210.0 A 10.0,10.0 0 0 0 210.0,220.0 M 230.0,200.0 A 10.0,10.0 0 0 1 220.0,210.0 M 240.0,210.0 A 10.0,10.0 0 0 0 230.0,220.0 M 290.0,200.0 A 10.0,10.0 0 0 1 280.0,210.0 M 300.0,210.0 A 10.0,10.0 0 0 0 290.0,220.0 M 370.0,200.0 A 10.0,10.0 0 0 1 360.0,210.0 M 380.0,210.0 A 10.0,10.0 0 0 0 370.0,220.0 M 410.0,200.0 A 10.0,10.0 0 0 1 400.0,210.0 M 420.0,210.0 A 10.0,10.0 0 0 0 410.0,220.0 M 450.0,200.0 A 10.0,10.0 0 0 1 440.0,210.0 M 460.0,210.0 A 10.0,10.0 0 0 0 450.0,220.0 M 490.0,200.0 A 10.0,10.0 0 0 1 480.0,210.0 M 500.0,210.0 A 10.0,10.0 0 0 0 490.0,220.0 M 570.0,200.0 A 10.0,10.0 0 0 1 560.0,210.0 M 580.0,210.0 A 10.0,10.0 0 0 0 570.0,220.0 M 590.0,200.0 A 10.0,10.0 0 0 1 580.0,210.0 M 600.0,210.0 A 10.0,10.0 0 0 0 590.0,220.0 M 30.0,220.0 A 10.0,10.0 0 0 1 20.0,230.0 M 40.0,230.0 A 10.0,10.0 0 0 0 30.0,240.0 M 50.0,220.0 A 10.0,10.0 0 0 1 40.0,230.0 M 60.0,230.0 A 10.0,10.0 0 0 0 50.0,240.0 M 90.0,220.0 A 10.0,10.0 0 0 1 80.0,230.0 M 100.0,230.0 A 10.0,10.0 0 0 0 90.0,240.0 M 110.0,220.0 A 10.0,10.0 0 0 1 100.0,230.0 M 120.0,230.0 A 10.0,10.0 0 0 0 110.0,240.0 M 150.0,220.0 A 10.0,10.0 0 0 1 140.0,230.0 M 160.0,230.0 A 10.0,10.0 0 0 0 150.0,240.0 M 190.0,220.0 A 10.0,10.0 0 0 1 180.0,230.0 M 200.0,230.0 A 10.0,10.0 0 0 0 190.0,240.0 M 230.0,220.0 A 10.0,10.0 0 0 1 220.0,230.0 M 240.0,230.0 A 10.0,10.0 0 0 0 230.0,240.0 M 250.0,220.0 A 10.0,10.0 0 0 1 240.0,230.0 M 260.0,230.0 A 10.0,10.0 0 0 0 250.0,240.0 M 310.0,220.0 A 10.0,10.0 0 0 1 300.0,230.0 M 320.0,230.0 A 10.0,10.0 0 0 0 310.0,240.0 M 330.0,220.0 A 10.0,10.0 0 0 1 320.0,230.0 M 340.0,230.0 A 10.0,10.0 0 0 0 330.0,240.0 M 350.0,220.0 A 10.0,10.0 0 0 1 340.0,230.0 M 360.0,230.0 A 10.0,10.0 0 0 0 350.0,240.0 M 450.0,220.0 A 10.0,10.0 0 0 1 440.0,230.0 M 460.0,230.0 A 10.0,10.0 0 0 0 450.0,240.0 M 510.0,220.0 A 10.0,10.0 0 0 1 500.0,230.0 M 520.0,230.0 A 10.0,10.0 0 0 0 510.0,240.0 M 550.0,220.0 A 10.0,10.0 0 0 1 540.0,230.0 M 560.0,230.0 A 10.0,10.0 0 0 0 550.0,240.0 M 30.0,240.0 A 10.0,10.0 0 0 1 20.0,250.0 M 40.0,250.0 A 10.0,10.0 0 0 0 30.0,260.0 M 110.0,240.0 A 10.0,10.0 0 0 1 100.0,250.0 M 120.0,250.0 A 10.0,10.0 0 0 0 110.0,260.0 M 130.0,240.0 A 10.0,10.0 0 0 1 120.0,250.0 M 140.0,250.0 A 10.0,10.0 0 0 0 130.0,260.0 M 150.0,240.0 A 10.0,10.0 0 0 1 140.0,250.0 M 160.0,250.0 A 10.0,10.0 0 0 0 150.0,260.0 M 170.0,240.0 A 10.0,10.0 0 0 1 160.0,250.0 M 180.0,250.0 A 10.0,10.0 0 0 0 170.0,260.0 M 190.0,240.0 A 10.0,10.0 0 0 1 180.0,250.0 M 200.0,250.0 A 10.0,10.0 0 0 0 190.0,260.0 M 250.0,240.0 A 10.0,10.0 0 0 1 240.0,250.0 M 260.0,250.0 A 10.0,10.0 0 0 0 250.0,260.0 M 270.0,240.0 A 10.0,10.0 0 0 1 260.0,250.0 M 280.0,250.0 A 10.0,10.0 0 0 0 270.0,260.0 M 310.0,240.0 A 10.0,10.0 0 0 1 300.0,250.0 M 320.0,250.0 A 10.0,10.0 0 0 0 310.0,260.0 M 390.0,240.0 A 10.0,10.0 0 0 1 380.0,250.0 M 400.0,250.0 A 10.0,10.0 0 0 0 390.0,260.0 M 450.0,240.0 A 10.0,10.0 0 0 1 440.0,250.0 M 460.0,250.0 A 10.0,10.0 0 0 0 450.0,260.0 M 490.0,240.0 A 10.0,10.0 0 0 1 480.0,250.0 M 500.0,250.0 A 10.0,10.0 0 0 0 490.0,260.0 M 510.0,240.0 A 10.0,10.0 0 0 1 500.0,250.0 M 520.0,250.0 A 10.0,10.0 0 0 0 510.0,260.0 M 550.0,240.0 A 10.0,10.0 0 0 1 540.0,250.0 M 560.0,250.0 A 10.0,10.0 0 0 0 550.0,260.0 M 590.0,240.0 A 10.0,10.0 0 0 1 580.0,250.0 M 600.0,250.0 A 10.0,10.0 0 0 0 590.0,260.0 M 610.0,240.0 A 10.0,10.0 0 0 1 600.0,250.0 M 620.0,250.0 A 10.0,10.0 0 0 0 610.0,260.0 M 50.0,260.0 A 10.0,10.0 0 0 1 40.0,270.0 M 60.0,270.0 A 10.0,10.0 0 0 0 50.0,280.0 M 70.0,260.0 A 10.0,10.0 0 0 1 60.0,270.0 M 80.0,270.0 A 10.0,10.0 0 0 0 70.0,280.0 M 90.0,260.0 A 10.0,10.0 0 0 1 80.0,270.0 M 100.0,270.0 A 10.0,10.0 0 0 0 90.0,280.0 M 130.0,260.0 A 10.0,10.0 0 0 1 120.0,270.0 M 140.0,270.0 A 10.0,10.0 0 0 0 130.0,280.0 M 170.0,260.0 A 10.0,10.0 0 0 1 160.0,270.0 M 180.0,270.0 A 10.0,10.0 0 0 0 170.0,280.0 M 250.0,260.0 A 10.0,10.0 0 0 1 240.0,270.0 M 260.0,270.0 A 10.0,10.0 0 0 0 250.0,280.0 M 270.0,260.0 A 10.0,10.0 0 0 1 260.0,270.0 M 280.0,270.0 A 10.0,10.0 0 0 0 270.0,280.0 M 290.0,260.0 A 10.0,10.0 0 0 1 280.0,270.0 M 300.0,270.0 A 10.0,10.0 0 0 0 290.0,280.0 M 310.0,260.0 A 10.0,10.0 0 0 1 300.0,270.0 M 320.0,270.0 A 10.0,10.0 0 0 0 310.0,280.0 M 330.0,260.0 A 10.0,10.0 0 0 1 320.0,270.0 M 340.0,270.0 A 10.0,10.0 0 0 0 330.0,280.0 M 370.0,260.0 A 10.0,10.0 0 0 1 360.0,270.0 M 380.0,270.0 A 10.0,10.0 0 0 0 370.0,280.0 M 390.0,260.0 A 10.0,10.0 0 0 1 380.0,270.0 M 400.0,270.0 A 10.0,10.0 0 0 0 390.0,280.0 M 410.0,260.0 A 10.0,10.0 0 0 1 400.0,270.0 M 420.0,270.0 A 10.0,10.0 0 0 0 410.0,280.0 M 470.0,260.0 A 10.0,10.0 0 0 1 460.0,270.0 M 480.0,270.0 A 10.0,10.0 0 0 0 470.0,280.0 M 530.0,260.0 A 10.0,10.0 0 0 1 520.0,270.0 M 540.0,270.0 A 10.0,10.0 0 0 0 530.0,280.0 M 590.0,260.0 A 10.0,10.0 0 0 1 580.0,270.0 M 600.0,270.0 A 10.0,10.0 0 0 0 590.0,280.0 M 30.0,280.0 A 10.0,10.0 0 0 1 20.0,290.0 M 40.0,290.0 A 10.0,10.0 0 0 0 30.0,300.0 M 50.0,280.0 A 10.0,10.0 0 0 1 40.0,290.0 M 60.0,290.0 A 10.0,10.0 0 0 0 50.0,300.0 M 70.0,280.0 A 10.0,10.0 0 0 1 60.0,290.0 M 80.0,290.0 A 10.0,10.0 0 0 0 70.0,300.0 M 90.0,280.0 A 10.0,10.0 0 0 1 80.0,290.0 M 100.0,290.0 A 10.0,10.0 0 0 0 90.0,300.0 M 130.0,280.0 A 10.0,10.0 0 0 1 120.0,290.0 M 140.0,290.0 A 10.0,10.0 0 0 0 130.0,300.0 M 170.0,280.0 A 10.0,10.0 0 0 1 160.0,290.0 M 180.0,290.0 A 10.0,10.0 0 0 0 170.0,300.0 M 270.0,280.0 A 10.0,10.0 0 0 1 260.0,290.0 M 280.0,290.0 A 10.0,10.0 0 0 0 270.0,300.0 M 290.0,280.0 A 10.0,10.0 0 0 1 280.0,290.0 M 300.0,290.0 A 10.0,10.0 0 0 0 290.0,300.0 M 330.0,280.0 A 10.0,10.0 0 0 1 320.0,290.0 M 340.0,290.0 A 10.0,10.0 0 0 0 330.0,300.0 M 350.0,280.0 A 10.0,10.0 0 0 1 340.0,290.0 M 360.0,290.0 A 10.0,10.0 0 0 0 350.0,300.0 M 410.0,280.0 A 10.0,10.0 0 0 1 400.0,290.0 M 420.0,290.0 A 10.0,10.0 0 0 0 410.0,300.0 M 430.0,280.0 A 10.0,10.0 0 0 1 420.0,290.0 M 440.0,290.0 A 10.0,10.0 0 0 0 430.0,300.0 M 450.0,280.0 A 10.0,10.0 0 0 1 440.0,290.0 M 460.0,290.0 A 10.0,10.0 0 0 0 450.0,300.0 M 470.0,280.0 A 10.0,10.0 0 0 1 460.0,290.0 M 480.0,290.0 A 10.0,10.0 0 0 0 470.0,300.0 M 530.0,280.0 A 10.0,10.0 0 0 1 520.0,290.0 M 540.0,290.0 A 10.0,10.0 0 0 0 530.0,300.0 M 550.0,280.0 A 10.0,10.0 0 0 1 540.0,290.0 M 560.0,290.0 A 10.0,10.0 0 0 0 550.0,300.0 M 570.0,280.0 A 10.0,10.0 0 0 1 560.0,290.0 M 580.0,290.0 A 10.0,10.0 0 0 0 570.0,300.0 M 30.0,300.0 A 10.0,10.0 0 0 1 20.0,310.0 M 40.0,310.0 A 10.0,10.0 0 0 0 30.0,320.0 M 70.0,300.0 A 10.0,10.0 0 0 1 60.0,310.0 M 80.0,310.0 A 10.0,10.0 0 0 0 70.0,320.0 M 110.0,300.0 A 10.0,10.0 0 0 1 100.0,310.0 M 120.0,310.0 A 10.0,10.0 0 0 0 110.0,320.0 M 130.0,300.0 A 10.0,10.0 0 0 1 120.0,310.0 M 140.0,310.0 A 10.0,10.0 0 0 0 130.0,320.0 M 190.0,300.0 A 10.0,10.0 0 0 1 180.0,310.0 M 200.0,310.0 A 10.0,10.0 0 0 0 190.0,320.0 M 290.0,300.0 A 10.0,10.0 0 0 1 280.0,310.0 M 300.0,310.0 A 10.0,10.0 0 0 0 290.0,320.0 M 310.0,300.0 A 10.0,10.0 0 0 1 300.0,310.0 M 320.0,310.0 A 10.0,10.0 0 0 0 310.0,320.0 M 350.0,300.0 A 10.0,10.0 0 0 1 340.0,310.0 M 360.0,310.0 A 10.0,10.0 0 0 0 350.0,320.0 M 390.0,300.0 A 10.0,10.0 0 0 1 380.0,310.0 M 400.0,310.0 A 10.0,10.0 0 0 0 390.0,320.0 M 410.0,300.0 A 10.0,10.0 0 0 1 400.0,310.0 M 420.0,310.0 A 10.0,10.0 0 0 0 410.0,320.0 M 470.0,300.0 A 10.0,10.0 0 0 1 460.0,310.0 M 480.0,310.0 A 10.0,10.0 0 0 0 470.0,320.0 M 530.0,300.0 A 10.0,10.0 0 0 1 520.0,310.0 M 540.0,310.0 A 10.0,10.0 0 0 0 530.0,320.0 M 550.0,300.0 A 10.0,10.0 0 0 1 540.0,310.0 M 560.0,310.0 A 10.0,10.0 0 0 0 550.0,320.0 M 570.0,300.0 A 10.0,10.0 0 0 1 560.0,310.0 M 580.0,310.0 A 10.0,10.0 0 0 0 570.0,320.0 M 590.0,300.0 A 10.0,10.0 0 0 1 580.0,310.0 M 600.0,310.0 A 10.0,10.0 0 0 0 590.0,320.0 M 30.0,320.0 A 10.0,10.0 0 0 1 20.0,330.0 M 40.0,330.0 A 10.0,10.0 0 0 0 30.0,340.0 M 50.0,320.0 A 10.0,10.0 0 0 1 40.0,330.0 M 60.0,330.0 A 10.0,10.0 0 0 0 50.0,340.0 M 90.0,320.0 A 10.0,10.0 0 0 1 80.0,330.0 M 100.0,330.0 A 10.0,10.0 0 0 0 90.0,340.0 M 130.0,320.0 A 10.0,10.0 0 0 1 120.0,330.0 M 140.0,330.0 A 10.0,10.0 0 0 0 130.0,340.0 M 190.0,320.0 A 10.0,10.0 0 0 1 180.0,330.0 M 200.0,330.0 A 10.0,10.0 0 0 0 190.0,340.0 M 210.0,320.0 A 10.0,10.0 0 0 1 200.0,330.0 M 220.0,330.0 A 10.0,10.0 0 0 0 210.0,340.0 M 230.0,320.0 A 10.0,10.0 0 0 1 220.0,330.0 M 240.0,330.0 A 10.0,10.0 0 0 0 230.0,340.0 M 310.0,320.0 A 10.0,10.0 0 0 1 300.0,330.0 M 320.0,330.0 A 10.0,10.0 0 0 0 310.0,340.0 M 350.0,320.0 A 10.0,10.0 0 0 1 340.0,330.0 M 360.0,330.0 A 10.0,10.0 0 0 0 350.0,340.0 M 370.0,320.0 A 10.0,10.0 0 0 1 360.0,330.0 M 380.0,330.0 A 10.0,10.0 0 0 0 370.0,340.0 M 410.0,320.0 A 10.0,10.0 0 0 1 400.0,330.0 M 420.0,330.0 A 10.0,10.0 0 0 0 410.0,340.0 M 430.0,320.0 A 10.0,10.0 0 0 1 420.0,330.0 M 440.0,330.0 A 10.0,10.0 0 0 0 430.0,340.0 M 450.0,320.0 A 10.0,10.0 0 0 1 440.0,330.0 M 460.0,330.0 A 10.0,10.0 0 0 0 450.0,340.0 M 470.0,320.0 A 10.0,10.0 0 0 1 460.0,330.0 M 480.0,330.0 A 10.0,10.0 0 0 0 470.0,340.0 M 490.0,320.0 A 10.0,10.0 0 0 1 480.0,330.0 M 500.0,330.0 A 10.0,10.0 0 0 0 490.0,340.0 M 510.0,320.0 A 10.0,10.0 0 0 1 500.0,330.0 M 520.0,330.0 A 10.0,10.0 0 0 0 510.0,340.0 M 530.0,320.0 A 10.0,10.0 0 0 1 520.0,330.0 M 540.0,330.0 A 10.0,10.0 0 0 0 530.0,340.0 M 570.0,320.0 A 10.0,10.0 0 0 1 560.0,330.0 M 580.0,330.0 A 10.0,10.0 0 0 0 570.0,340.0 M 30.0,340.0 A 10.0,10.0 0 0 1 20.0,350.0 M 40.0,350.0 A 10.0,10.0 0 0 0 30.0,360.0 M 50.0,340.0 A 10.0,10.0 0 0 1 40.0,350.0 M 60.0,350.0 A 10.0,10.0 0 0 0 50.0,360.0 M 70.0,340.0 A 10.0,10.0 0 0 1 60.0,350.0 M 80.0,350.0 A 10.0,10.0 0 0 0 70.0,360.0 M 130.0,340.0 A 10.0,10.0 0 0 1 120.0,350.0 M 140.0,350.0 A 10.0,10.0 0 0 0 130.0,360.0 M 170.0,340.0 A 10.0,10.0 0 0 1 160.0,350.0 M 180.0,350.0 A 10.0,10.0 0 0 0 170.0,360.0 M 190.0,340.0 A 10.0,10.0 0 0 1 180.0,350.0 M 200.0,350.0 A 10.0,10.0 0 0 0 190.0,360.0 M 210.0,340.0 A 10.0,10.0 0 0 1 200.0,350.0 M 220.0,350.0 A 10.0,10.0 0 0 0 210.0,360.0 M 270.0,340.0 A 10.0,10.0 0 0 1 260.0,350.0 M 280.0,350.0 A 10.0,10.0 0 0 0 270.0,360.0 M 310.0,340.0 A 10.0,10.0 0 0 1 300.0,350.0 M 320.0,350.0 A 10.0,10.0 0 0 0 310.0,360.0 M 330.0,340.0 A 10.0,10.0 0 0 1 320.0,350.0 M 340.0,350.0 A 10.0,10.0 0 0 0 330.0,360.0 M 350.0,340.0 A 10.0,10.0 0 0 1 340.0,350.0 M 360.0,350.0 A 10.0,10.0 0 0 0 350.0,360.0 M 430.0,340.0 A 10.0,10.0 0 0 1 420.0,350.0 M 440.0,350.0 A 10.0,10.0 0 0 0 430.0,360.0 M 490.0,340.0 A 10.0,10.0 0 0 1 480.0,350.0 M 500.0,350.0 A 10.0,10.0 0 0 0 490.0,360.0 M 510.0,340.0 A 10.0,10.0 0 0 1 500.0,350.0 M 520.0,350.0 A 10.0,10.0 0 0 0 510.0,360.0 M 530.0,340.0 A 10.0,10.0 0 0 1 520.0,350.0 M 540.0,350.0 A 10.0,10.0 0 0 0 530.0,360.0 M 550.0,340.0 A 10.0,10.0 0 0 1 540.0,350.0 M 560.0,350.0 A 10.0,10.0 0 0 0 550.0,360.0 M 30.0,360.0 A 10.0,10.0 0 0 1 20.0,370.0 M 40.0,370.0 A 10.0,10.0 0 0 0 30.0,380.0 M 50.0,360.0 A 10.0,10.0 0 0 1 40.0,370.0 M 60.0,370.0 A 10.0,10.0 0 0 0 50.0,380.0 M 90.0,360.0 A 10.0,10.0 0 0 1 80.0,370.0 M 100.0,370.0 A 10.0,10.0 0 0 0 90.0,380.0 M 150.0,360.0 A 10.0,10.0 0 0 1 140.0,370.0 M 160.0,370.0 A 10.0,10.0 0 0 0 150.0,380.0 M 170.0,360.0 A 10.0,10.0 0 0 1 160.0,370.0 M 180.0,370.0 A 10.0,10.0 0 0 0 170.0,380.0 M 310.0,360.0 A 10.0,10.0 0 0 1 300.0,370.0 M 320.0,370.0 A 10.0,10.0 0 0 0 310.0,380.0 M 330.0,360.0 A 10.0,10.0 0 0 1 320.0,370.0 M 340.0,370.0 A 10.0,10.0 0 0 0 330.0,380.0 M 370.0,360.0 A 10.0,10.0 0 0 1 360.0,370.0 M 380.0,370.0 A 10.0,10.0 0 0 0 370.0,380.0 M 410.0,360.0 A 10.0,10.0 0 0 1 400.0,370.0 M 420.0,370.0 A 10.0,10.0 0 0 0 410.0,380.0 M 470.0,360.0 A 10.0,10.0 0 0 1 460.0,370.0 M 480.0,370.0 A 10.0,10.0 0 0 0 470.0,380.0 M 550.0,360.0 A 10.0,10.0 0 0 1 540.0,370.0 M 560.0,370.0 A 10.0,10.0 0 0 0 550.0,380.0 M 570.0,360.0 A 10.0,10.0 0 0 1 560.0,370.0 M 580.0,370.0 A 10.0,10.0 0 0 0 570.0,380.0 M 590.0,360.0 A 10.0,10.0 0 0 1 580.0,370.0 M 600.0,370.0 A 10.0,10.0 0 0 0 590.0,380.0 M 610.0,360.0 A 10.0,10.0 0 0 1 600.0,370.0 M 620.0,370.0 A 10.0,10.0 0 0 0 610.0,380.0 M 30.0,380.0 A 10.0,10.0 0 0 1 20.0,390.0 M 40.0,390.0 A 10.0,10.0 0 0 0 30.0,400.0 M 90.0,380.0 A 10.0,10.0 0 0 1 80.0,390.0 M 100.0,390.0 A 10.0,10.0 0 0 0 90.0,400.0 M 130.0,380.0 A 10.0,10.0 0 0 1 120.0,390.0 M 140.0,390.0 A 10.0,10.0 0 0 0 130.0,400.0 M 170.0,380.0 A 10.0,10.0 0 0 1 160.0,390.0 M 180.0,390.0 A 10.0,10.0 0 0 0 170.0,400.0 M 250.0,380.0 A 10.0,10.0 0 0 1 240.0,390.0 M 260.0,390.0 A 10.0,10.0 0 0 0 250.0,400.0 M 270.0,380.0 A 10.0,10.0 0 0 1 260.0,390.0 M 280.0,390.0 A 10.0,10.0 0 0 0 270.0,400.0 M 290.0,380.0 A 10.0,10.0 0 0 1 280.0,390.0 M 300.0,390.0 A 10.0,10.0 0 0 0 290.0,400.0 M 390.0,380.0 A 10.0,10.0 0 0 1 380.0,390.0 M 400.0,390.0 A 10.0,10.0 0 0 0 390.0,400.0 M 490.0,380.0 A 10.0,10.0 0 0 1 480.0,390.0 M 500.0,390.0 A 10.0,10.0 0 0 0 490.0,400.0 M 530.0,380.0 A 10.0,10.0 0 0 1 520.0,390.0 M 540.0,390.0 A 10.0,10.0 0 0 0 530.0,400.0 M 610.0,380.0 A 10.0,10.0 0 0 1 600.0,390.0 M 620.0,390.0 A 10.0,10.0 0 0 0 610.0,400.0 M 30.0,400.0 A 10.0,10.0 0 0 1 20.0,410.0 M 40.0,410.0 A 10.0,10.0 0 0 0 30.0,420.0 M 50.0,400.0 A 10.0,10.0 0 0 1 40.0,410.0 M 60.0,410.0 A 10.0,10.0 0 0 0 50.0,420.0 M 130.0,400.0 A 10.0,10.0 0 0 1 120.0,410.0 M 140.0,410.0 A 10.0,10.0 0 0 0 130.0,420.0 M 190.0,400.0 A 10.0,10.0 0 0 1 180.0,410.0 M 200.0,410.0 A 10.0,10.0 0 0 0 190.0,420.0 M 270.0,400.0 A 10.0,10.0 0 0 1 260.0,410.0 M 280.0,410.0 A 10.0,10.0 0 0 0 270.0,420.0 M 310.0,400.0 A 10.0,10.0 0 0 1 300.0,410.0 M 320.0,410.0 A 10.0,10.0 0 0 0 310.0,420.0 M 330.0,400.0 A 10.0,10.0 0 0 1 320.0,410.0 M 340.0,410.0 A 10.0,10.0 0 0 0 330.0,420.0 M 370.0,400.0 A 10.0,10.0 0 0 1 360.0,410.0 M 380.0,410.0 A 10.0,10.0 0 0 0 370.0,420.0 M 390.0,400.0 A 10.0,10.0 0 0 1 380.0,410.0 M 400.0,410.0 A 10.0,10.0 0 0 0 390.0,420.0 M 470.0,400.0 A 10.0,10.0 0 0 1 460.0,410.0 M 480.0,410.0 A 10.0,10.0 0 0 0 470.0,420.0 M 530.0,400.0 A 10.0,10.0 0 0 1 520.0,410.0 M 540.0,410.0 A 10.0,10.0 0 0 0 530.0,420.0 M 570.0,400.0 A 10.0,10.0 0 0 1 560.0,410.0 M 580.0,410.0 A 10.0,10.0 0 0 0 570.0,420.0 M 590.0,400.0 A 10.0,10.0 0 0 1 580.0,410.0 M 600.0,410.0 A 10.0,10.0 0 0 0 590.0,420.0 M 610.0,400.0 A 10.0,10.0 0 0 1 600.0,410.0 M 620.0,410.0 A 10.0,10.0 0 0 0 610.0,420.0 M 70.0,420.0 A 10.0,10.0 0 0 1 60.0,430.0 M 80.0,430.0 A 10.0,10.0 0 0 0 70.0,440.0 M 130.0,420.0 A 10.0,10.0 0 0 1 120.0,430.0 M 140.0,430.0 A 10.0,10.0 0 0 0 130.0,440.0 M 150.0,420.0 A 10.0,10.0 0 0 1 140.0,430.0 M 160.0,430.0 A 10.0,10.0 0 0 0 150.0,440.0 M 170.0,420.0 A 10.0,10.0 0 0 1 160.0,430.0 M 180.0,430.0 A 10.0,10.0 0 0 0 170.0,440.0 M 350.0,420.0 A 10.0,10.0 0 0 1 340.0,430.0 M 360.0,430.0 A 10.0,10.0 0 0 0 350.0,440.0 M 430.0,420.0 A 10.0,10.0 0 0 1 420.0,430.0 M 440.0,430.0 A 10.0,10.0 0 0 0 430.0,440.0 M 450.0,420.0 A 10.0,10.0 0 0 1 440.0,430.0 M 460.0,430.0 A 10.0,10.0 0 0 0 450.0,440.0 M 470.0,420.0 A 10.0,10.0 0 0 1 460.0,430.0 M 480.0,430.0 A 10.0,10.0 0 0 0 470.0,440.0 M 490.0,420.0 A 10.0,10.0 0 0 1 480.0,430.0 M 500.0,430.0 A 10.0,10.0 0 0 0 490.0,440.0 M 510.0,420.0 A 10.0,10.0 0 0 1 500.0,430.0 M 520.0,430.0 A 10.0,10.0 0 0 0 510.0,440.0 M 550.0,420.0 A 10.0,10.0 0 0 1 540.0,430.0 M 560.0,430.0 A 10.0,10.0 0 0 0 550.0,440.0 M 50.0,440.0 A 10.0,10.0 0 0 1 40.0,450.0 M 60.0,450.0 A 10.0,10.0 0 0 0 50.0,460.0 M 70.0,440.0 A 10.0,10.0 0 0 1 60.0,450.0 M 80.0,450.0 A 10.0,10.0 0 0 0 70.0,460.0 M 90.0,440.0 A 10.0,10.0 0 0 1 80.0,450.0 M 100.0,450.0 A 10.0,10.0 0 0 0 90.0,460.0 M 110.0,440.0 A 10.0,10.0 0 0 1 100.0,450.0 M 120.0,450.0 A 10.0,10.0 0 0 0 110.0,460.0 M 130.0,440.0 A 10.0,10.0 0 0 1 120.0,450.0 M 140.0,450.0 A 10.0,10.0 0 0 0 130.0,460.0 M 170.0,440.0 A 10.0,10.0 0 0 1 160.0,450.0 M 180.0,450.0 A 10.0,10.0 0 0 0 170.0,460.0 M 210.0,440.0 A 10.0,10.0 0 0 1 200.0,450.0 M 220.0,450.0 A 10.0,10.0 0 0 0 210.0,460.0 M 270.0,440.0 A 10.0,10.0 0 0 1 260.0,450.0 M 280.0,450.0 A 10.0,10.0 0 0 0 270.0,460.0 M 290.0,440.0 A 10.0,10.0 0 0 1 280.0,450.0 M 300.0,450.0 A 10.0,10.0 0 0 0 290.0,460.0 M 370.0,440.0 A 10.0,10.0 0 0 1 360.0,450.0 M 380.0,450.0 A 10.0,10.0 0 0 0 370.0,460.0 M 450.0,440.0 A 10.0,10.0 0 0 1 440.0,450.0 M 460.0,450.0 A 10.0,10.0 0 0 0 450.0,460.0 M 530.0,440.0 A 10.0,10.0 0 0 1 520.0,450.0 M 540.0,450.0 A 10.0,10.0 0 0 0 530.0,460.0 M 550.0,440.0 A 10.0,10.0 0 0 1 540.0,450.0 M 560.0,450.0 A 10.0,10.0 0 0 0 550.0,460.0 M 570.0,440.0 A 10.0,10.0 0 0 1 560.0,450.0 M 580.0,450.0 A 10.0,10.0 0 0 0 570.0,460.0 M 610.0,440.0 A 10.0,10.0 0 0 1 600.0,450.0 M 620.0,450.0 A 10.0,10.0 0 0 0 610.0,460.0 M 130.0,460.0 A 10.0,10.0 0 0 1 120.0,470.0 M 140.0,470.0 A 10.0,10.0 0 0 0 130.0,480.0 M 150.0,460.0 A 10.0,10.0 0 0 1 140.0,470.0 M 160.0,470.0 A 10.0,10.0 0 0 0 150.0,480.0 M 170.0,460.0 A 10.0,10.0 0 0 1 160.0,470.0 M 180.0,470.0 A 10.0,10.0 0 0 0 170.0,480.0 M 250.0,460.0 A 10.0,10.0 0 0 1 240.0,470.0 M 260.0,470.0 A 10.0,10.0 0 0 0 250.0,480.0 M 270.0,460.0 A 10.0,10.0 0 0 1 260.0,470.0 M 280.0,470.0 A 10.0,10.0 0 0 0 270.0,480.0 M 350.0,460.0 A 10.0,10.0 0 0 1 340.0,470.0 M 360.0,470.0 A 10.0,10.0 0 0 0 350.0,480.0 M 370.0,460.0 A 10.0,10.0 0 0 1 360.0,470.0 M 380.0,470.0 A 10.0,10.0 0 0 0 370.0,480.0 M 390.0,460.0 A 10.0,10.0 0 0 1 380.0,470.0 M 400.0,470.0 A 10.0,10.0 0 0 0 390.0,480.0 M 410.0,460.0 A 10.0,10.0 0 0 1 400.0,470.0 M 420.0,470.0 A 10.0,10.0 0 0 0 410.0,480.0 M 430.0,460.0 A 10.0,10.0 0 0 1 420.0,470.0 M 440.0,470.0 A 10.0,10.0 0 0 0 430.0,480.0 M 450.0,460.0 A 10.0,10.0 0 0 1 440.0,470.0 M 460.0,470.0 A 10.0,10.0 0 0 0 450.0,480.0 M 490.0,460.0 A 10.0,10.0 0 0 1 480.0,470.0 M 500.0,470.0 A 10.0,10.0 0 0 0 490.0,480.0 M 510.0,460.0 A 10.0,10.0 0 0 1 500.0,470.0 M 520.0,470.0 A 10.0,10.0 0 0 0 510.0,480.0 M 530.0,460.0 A 10.0,10.0 0 0 1 520.0,470.0 M 540.0,470.0 A 10.0,10.0 0 0 0 530.0,480.0 M 550.0,460.0 A 10.0,10.0 0 0 1 540.0,470.0 M 560.0,470.0 A 10.0,10.0 0 0 0 550.0,480.0 M 570.0,460.0 A 10.0,10.0 0 0 1 560.0,470.0 M 580.0,470.0 A 10.0,10.0 0 0 0 570.0,480.0 M 590.0,460.0 A 10.0,10.0 0 0 1 580.0,470.0 M 600.0,470.0 A 10.0,10.0 0 0 0 590.0,480.0 M 30.0,480.0 A 10.0,10.0 0 0 1 20.0,490.0 M 40.0,490.0 A 10.0,10.0 0 0 0 30.0,500.0 M 90.0,480.0 A 10.0,10.0 0 0 1 80.0,490.0 M 100.0,490.0 A 10.0,10.0 0 0 0 90.0,500.0 M 110.0,480.0 A 10.0,10.0 0 0 1 100.0,490.0 M 120.0,490.0 A 10.0,10.0 0 0 0 110.0,500.0 M 130.0,480.0 A 10.0,10.0 0 0 1 120.0,490.0 M 140.0,490.0 A 10.0,10.0 0 0 0 130.0,500.0 M 170.0,480.0 A 10.0,10.0 0 0 1 160.0,490.0 M 180.0,490.0 A 10.0,10.0 0 0 0 170.0,500.0 M 230.0,480.0 A 10.0,10.0 0 0 1 220.0,490.0 M 240.0,490.0 A 10.0,10.0 0 0 0 230.0,500.0 M 250.0,480.0 A 10.0,10.0 0 0 1 240.0,490.0 M 260.0,490.0 A 10.0,10.0 0 0 0 250.0,500.0 M 270.0,480.0 A 10.0,10.0 0 0 1 260.0,490.0 M 280.0,490.0 A 10.0,10.0 0 0 0 270.0,500.0 M 370.0,480.0 A 10.0,10.0 0 0 1 360.0,490.0 M 380.0,490.0 A 10.0,10.0 0 0 0 370.0,500.0 M 410.0,480.0 A 10.0,10.0 0 0 1 400.0,490.0 M 420.0,490.0 A 10.0,10.0 0 0 0 410.0,500.0 M 430.0,480.0 A 10.0,10.0 0 0 1 420.0,490.0 M 440.0,490.0 A 10.0,10.0 0 0 0 430.0,500.0 M 450.0,480.0 A 10.0,10.0 0 0 1 440.0,490.0 M 460.0,490.0 A 10.0,10.0 0 0 0 450.0,500.0 M 510.0,480.0 A 10.0,10.0 0 0 1 500.0,490.0 M 520.0,490.0 A 10.0,10.0 0 0 0 510.0,500.0 M 530.0,480.0 A 10.0,10.0 0 0 1 520.0,490.0 M 540.0,490.0 A 10.0,10.0 0 0 0 530.0,500.0 M 550.0,480.0 A 10.0,10.0 0 0 1 540.0,490.0 M 560.0,490.0 A 10.0,10.0 0 0 0 550.0,500.0 M 610.0,480.0 A 10.0,10.0 0 0 1 600.0,490.0 M 620.0,490.0 A 10.0,10.0 0 0 0 610.0,500.0 M 50.0,500.0 A 10.0,10.0 0 0 1 40.0,510.0 M 60.0,510.0 A 10.0,10.0 0 0 0 50.0,520.0 M 110.0,500.0 A 10.0,10.0 0 0 1 100.0,510.0 M 120.0,510.0 A 10.0,10.0 0 0 0 110.0,520.0 M 150.0,500.0 A 10.0,10.0 0 0 1 140.0,510.0 M 160.0,510.0 A 10.0,10.0 0 0 0 150.0,520.0 M 250.0,500.0 A 10.0,10.0 0 0 1 240.0,510.0 M 260.0,510.0 A 10.0,10.0 0 0 0 250.0,520.0 M 270.0,500.0 A 10.0,10.0 0 0 1 260.0,510.0 M 280.0,510.0 A 10.0,10.0 0 0 0 270.0,520.0 M 310.0,500.0 A 10.0,10.0 0 0 1 300.0,510.0 M 320.0,510.0 A 10.0,10.0 0 0 0 310.0,520.0 M 330.0,500.0 A 10.0,10.0 0 0 1 320.0,510.0 M 340.0,510.0 A 10.0,10.0 0 0 0 330.0,520.0 M 370.0,500.0 A 10.0,10.0 0 0 1 360.0,510.0 M 380.0,510.0 A 10.0,10.0 0 0 0 370.0,520.0 M 410.0,500.0 A 10.0,10.0 0 0 1 400.0,510.0 M 420.0,510.0 A 10.0,10.0 0 0 0 410.0,520.0 M 430.0,500.0 A 10.0,10.0 0 0 1 420.0,510.0 M 440.0,510.0 A 10.0,10.0 0 0 0 430.0,520.0 M 470.0,500.0 A 10.0,10.0 0 0 1 460.0,510.0 M 480.0,510.0 A 10.0,10.0 0 0 0 470.0,520.0 M 530.0,500.0 A 10.0,10.0 0 0 1 520.0,510.0 M 540.0,510.0 A 10.0,10.0 0 0 0 530.0,520.0 M 570.0,500.0 A 10.0,10.0 0 0 1 560.0,510.0 M 580.0,510.0 A 10.0,10.0 0 0 0 570.0,520.0 M 590.0,500.0 A 10.0,10.0 0 0 1 580.0,510.0 M 600.0,510.0 A 10.0,10.0 0 0 0 590.0,520.0 M 50.0,520.0 A 10.0,10.0 0 0 1 40.0,530.0 M 60.0,530.0 A 10.0,10.0 0 0 0 50.0,540.0 M 70.0,520.0 A 10.0,10.0 0 0 1 60.0,530.0 M 80.0,530.0 A 10.0,10.0 0 0 0 70.0,540.0 M 110.0,520.0 A 10.0,10.0 0 0 1 100.0,530.0 M 120.0,530.0 A 10.0,10.0 0 0 0 110.0,540.0 M 130.0,520.0 A 10.0,10.0 0 0 1 120.0,530.0 M 140.0,530.0 A 10.0,10.0 0 0 0 130.0,540.0 M 150.0,520.0 A 10.0,10.0 0 0 1 140.0,530.0 M 160.0,530.0 A 10.0,10.0 0 0 0 150.0,540.0 M 170.0,520.0 A 10.0,10.0 0 0 1 160.0,530.0 M 180.0,530.0 A 10.0,10.0 0 0 0 170.0,540.0 M 210.0,520.0 A 10.0,10.0 0 0 1 200.0,530.0 M 220.0,530.0 A 10.0,10.0 0 0 0 210.0,540.0 M 230.0,520.0 A 10.0,10.0 0 0 1 220.0,530.0 M 240.0,530.0 A 10.0,10.0 0 0 0 230.0,540.0 M 250.0,520.0 A 10.0,10.0 0 0 1 240.0,530.0 M 260.0,530.0 A 10.0,10.0 0 0 0 250.0,540.0 M 330.0,520.0 A 10.0,10.0 0 0 1 320.0,530.0 M 340.0,530.0 A 10.0,10.0 0 0 0 330.0,540.0 M 350.0,520.0 A 10.0,10.0 0 0 1 340.0,530.0 M 360.0,530.0 A 10.0,10.0 0 0 0 350.0,540.0 M 370.0,520.0 A 10.0,10.0 0 0 1 360.0,530.0 M 380.0,530.0 A 10.0,10.0 0 0 0 370.0,540.0 M 410.0,520.0 A 10.0,10.0 0 0 1 400.0,530.0 M 420.0,530.0 A 10.0,10.0 0 0 0 410.0,540.0 M 430.0,520.0 A 10.0,10.0 0 0 1 420.0,530.0 M 440.0,530.0 A 10.0,10.0 0 0 0 430.0,540.0 M 470.0,520.0 A 10.0,10.0 0 0 1 460.0,530.0 M 480.0,530.0 A 10.0,10.0 0 0 0 470.0,540.0 M 590.0,520.0 A 10.0,10.0 0 0 1 580.0,530.0 M 600.0,530.0 A 10.0,10.0 0 0 0 590.0,540.0 M 610.0,520.0 A 10.0,10.0 0 0 1 600.0,530.0 M 620.0,530.0 A 10.0,10.0 0 0 0 610.0,540.0 M 30.0,540.0 A 10.0,10.0 0 0 1 20.0,550.0 M 40.0,550.0 A 10.0,10.0 0 0 0 30.0,560.0 M 50.0,540.0 A 10.0,10.0 0 0 1 40.0,550.0 M 60.0,550.0 A 10.0,10.0 0 0 0 50.0,560.0 M 90.0,540.0 A 10.0,10.0 0 0 1 80.0,550.0 M 100.0,550.0 A 10.0,10.0 0 0 0 90.0,560.0 M 150.0,540.0 A 10.0,10.0 0 0 1 140.0,550.0 M 160.0,550.0 A 10.0,10.0 0 0 0 150.0,560.0 M 170.0,540.0 A 10.0,10.0 0 0 1 160.0,550.0 M 180.0,550.0 A 10.0,10.0 0 0 0 170.0,560.0 M 270.0,540.0 A 10.0,10.0 0 0 1 260.0,550.0 M 280.0,550.0 A 10.0,10.0 0 0 0 270.0,560.0 M 290.0,540.0 A 10.0,10.0 0 0 1 280.0,550.0 M 300.0,550.0 A 10.0,10.0 0 0 0 290.0,560.0 M 330.0,540.0 A 10.0,10.0 0 0 1 320.0,550.0 M 340.0,550.0 A 10.0,10.0 0 0 0 330.0,560.0 M 390.0,540.0 A 10.0,10.0 0 0 1 380.0,550.0 M 400.0,550.0 A 10.0,10.0 0 0 0 390.0,560.0 M 470.0,540.0 A 10.0,10.0 0 0 1 460.0,550.0 M 480.0,550.0 A 10.0,10.0 0 0 0 470.0,560.0 M 510.0,540.0 A 10.0,10.0 0 0 1 500.0,550.0 M 520.0,550.0 A 10.0,10.0 0 0 0 510.0,560.0 M 550.0,540.0 A 10.0,10.0 0 0 1 540.0,550.0 M 560.0,550.0 A 10.0,10.0 0 0 0 550.0,560.0 M 590.0,540.0 A 10.0,10.0 0 0 1 580.0,550.0 M 600.0,550.0 A 10.0,10.0 0 0 0 590.0,560.0 M 30.0,560.0 A 10.0,10.0 0 0 1 20.0,570.0 M 40.0,570.0 A 10.0,10.0 0 0 0 30.0,580.0 M 50.0,560.0 A 10.0,10.0 0 0 1 40.0,570.0 M 60.0,570.0 A 10.0,10.0 0 0 0 50.0,580.0 M 90.0,560.0 A 10.0,10.0 0 0 1 80.0,570.0 M 100.0,570.0 A 10.0,10.0 0 0 0 90.0,580.0 M 110.0,560.0 A 10.0,10.0 0 0 1 100.0,570.0 M 120.0,570.0 A 10.0,10.0 0 0 0 110.0,580.0 M 210.0,560.0 A 10.0,10.0 0 0 1 200.0,570.0 M 220.0,570.0 A 10.0,10.0 0 0 0 210.0,580.0 M 310.0,560.0 A 10.0,10.0 0 0 1 300.0,570.0 M 320.0,570.0 A 10.0,10.0 0 0 0 310.0,580.0 M 330.0,560.0 A 10.0,10.0 0 0 1 320.0,570.0 M 340.0,570.0 A 10.0,10.0 0 0 0 330.0,580.0 M 350.0,560.0 A 10.0,10.0 0 0 1 340.0,570.0 M 360.0,570.0 A 10.0,10.0 0 0 0 350.0,580.0 M 370.0,560.0 A 10.0,10.0 0 0 1 360.0,570.0 M 380.0,570.0 A 10.0,10.0 0 0 0 370.0,580.0 M 390.0,560.0 A 10.0,10.0 0 0 1 380.0,570.0 M 400.0,570.0 A 10.0,10.0 0 0 0 390.0,580.0 M 530.0,560.0 A 10.0,10.0 0 0 1 520.0,570.0 M 540.0,570.0 A 10.0,10.0 0 0 0 530.0,580.0 M 570.0,560.0 A 10.0,10.0 0 0 1 560.0,570.0 M 580.0,570.0 A 10.0,10.0 0 0 0 570.0,580.0 M 590.0,560.0 A 10.0,10.0 0 0 1 580.0,570.0 M 600.0,570.0 A 10.0,10.0 0 0 0 590.0,580.0 M 30.0,580.0 A 10.0,10.0 0 0 1 20.0,590.0 M 40.0,590.0 A 10.0,10.0 0 0 0 30.0,600.0 M 50.0,580.0 A 10.0,10.0 0 0 1 40.0,590.0 M 60.0,590.0 A 10.0,10.0 0 0 0 50.0,600.0 M 150.0,580.0 A 10.0,10.0 0 0 1 140.0,590.0 M 160.0,590.0 A 10.0,10.0 0 0 0 150.0,600.0 M 170.0,580.0 A 10.0,10.0 0 0 1 160.0,590.0 M 180.0,590.0 A 10.0,10.0 0 0 0 170.0,600.0 M 210.0,580.0 A 10.0,10.0 0 0 1 200.0,590.0 M 220.0,590.0 A 10.0,10.0 0 0 0 210.0,600.0 M 230.0,580.0 A 10.0,10.0 0 0 1 220.0,590.0 M 240.0,590.0 A 10.0,10.0 0 0 0 230.0,600.0 M 270.0,580.0 A 10.0,10.0 0 0 1 260.0,590.0 M 280.0,590.0 A 10.0,10.0 0 0 0 270.0,600.0 M 290.0,580.0 A 10.0,10.0 0 0 1 280.0,590.0 M 300.0,590.0 A 10.0,10.0 0 0 0 290.0,600.0 M 350.0,580.0 A 10.0,10.0 0 0 1 340.0,590.0 M 360.0,590.0 A 10.0,10.0 0 0 0 350.0,600.0 M 390.0,580.0 A 10.0,10.0 0 0 1 380.0,590.0 M 400.0,590.0 A 10.0,10.0 0 0 0 390.0,600.0 M 410.0,580.0 A 10.0,10.0 0 0 1 400.0,590.0 M 420.0,590.0 A 10.0,10.0 0 0 0 410.0,600.0 M 450.0,580.0 A 10.0,10.0 0 0 1 440.0,590.0 M 460.0,590.0 A 10.0,10.0 0 0 0 450.0,600.0 M 470.0,580.0 A 10.0,10.0 0 0 1 460.0,590.0 M 480.0,590.0 A 10.0,10.0 0 0 0 470.0,600.0 M 490.0,580.0 A 10.0,10.0 0 0 1 480.0,590.0 M 500.0,590.0 A 10.0,10.0 0 0 0 490.0,600.0 M 570.0,580.0 A 10.0,10.0 0 0 1 560.0,590.0 M 580.0,590.0 A 10.0,10.0 0 0 0 570.0,600.0 M 590.0,580.0 A 10.0,10.0 0 0 1 580.0,590.0 M 600.0,590.0 A 10.0,10.0 0 0 0 590.0,600.0 M 610.0,580.0 A 10.0,10.0 0 0 1 600.0,590.0 M 620.0,590.0 A 10.0,10.0 0 0 0 610.0,600.0 M 70.0,600.0 A 10.0,10.0 0 0 1 60.0,610.0 M 80.0,610.0 A 10.0,10.0 0 0 0 70.0,620.0 M 90.0,600.0 A 10.0,10.0 0 0 1 80.0,610.0 M 100.0,610.0 A 10.0,10.0 0 0 0 90.0,620.0 M 250.0,600.0 A 10.0,10.0 0 0 1 240.0,610.0 M 260.0,610.0 A 10.0,10.0 0 0 0 250.0,620.0 M 290.0,600.0 A 10.0,10.0 0 0 1 280.0,610.0 M 300.0,610.0 A 10.0,10.0 0 0 0 290.0,620.0 M 310.0,600.0 A 10.0,10.0 0 0 1 300.0,610.0 M 320.0,610.0 A 10.0,10.0 0 0 0 310.0,620.0 M 330.0,600.0 A 10.0,10.0 0 0 1 320.0,610.0 M 340.0,610.0 A 10.0,10.0 0 0 0 330.0,620.0 M 350.0,600.0 A 10.0,10.0 0 0 1 340.0,610.0 M 360.0,610.0 A 10.0,10.0 0 0 0 350.0,620.0 M 370.0,600.0 A 10.0,10.0 0 0 1 360.0,610.0 M 380.0,610.0 A 10.0,10.0 0 0 0 370.0,620.0 M 410.0,600.0 A 10.0,10.0 0 0 1 400.0,610.0 M 420.0,610.0 A 10.0,10.0 0 0 0 410.0,620.0 M 450.0,600.0 A 10.0,10.0 0 0 1 440.0,610.0 M 460.0,610.0 A 10.0,10.0 0 0 0 450.0,620.0 M 510.0,600.0 A 10.0,10.0 0 0 1 500.0,610.0 M 520.0,610.0 A 10.0,10.0 0 0 0 510.0,620.0 M 530.0,600.0 A 10.0,10.0 0 0 1 520.0,610.0 M 540.0,610.0 A 10.0,10.0 0 0 0 530.0,620.0 M 550.0,600.0 A 10.0,10.0 0 0 1 540.0,610.0 M 560.0,610.0 A 10.0,10.0 0 0 0 550.0,620.0 M 590.0,600.0 A 10.0,10.0 0 0 1 580.0,610.0 M 600.0,610.0 A 10.0,10.0 0 0 0 590.0,620.0 M 610.0,600.0 A 10.0,10.0 0 0 1 600.0,610.0 M 620.0,610.0 A 10.0,10.0 0 0 0 610.0,620.0" fill="none" stroke="#1e1b4b" stroke-width="3.6" stroke-linecap="round"/>
  <path d="M 30.0,20.0 A 10.0,10.0 0 0 0 40.0,30.0 M 20.0,30.0 A 10.0,10.0 0 0 1 30.0,40.0 M 70.0,20.0 A 10.0,10.0 0 0 0 80.0,30.0 M 60.0,30.0 A 10.0,10.0 0 0 1 70.0,40.0 M 150.0,20.0 A 10.0,10.0 0 0 0 160.0,30.0 M 140.0,30.0 A 10.0,10.0 0 0 1 150.0,40.0 M 250.0,20.0 A 10.0,10.0 0 0 0 260.0,30.0 M 240.0,30.0 A 10.0,10.0 0 0 1 250.0,40.0 M 270.0,20.0 A 10.0,10.0 0 0 0 280.0,30.0 M 260.0,30.0 A 10.0,10.0 0 0 1 270.0,40.0 M 350.0,20.0 A 10.0,10.0 0 0 0 360.0,30.0 M 340.0,30.0 A 10.0,10.0 0 0 1 350.0,40.0 M 450.0,20.0 A 10.0,10.0 0 0 0 460.0,30.0 M 440.0,30.0 A 10.0,10.0 0 0 1 450.0,40.0 M 550.0,20.0 A 10.0,10.0 0 0 0 560.0,30.0 M 540.0,30.0 A 10.0,10.0 0 0 1 550.0,40.0 M 570.0,20.0 A 10.0,10.0 0 0 0 580.0,30.0 M 560.0,30.0 A 10.0,10.0 0 0 1 570.0,40.0 M 30.0,40.0 A 10.0,10.0 0 0 0 40.0,50.0 M 20.0,50.0 A 10.0,10.0 0 0 1 30.0,60.0 M 110.0,40.0 A 10.0,10.0 0 0 0 120.0,50.0 M 100.0,50.0 A 10.0,10.0 0 0 1 110.0,60.0 M 210.0,40.0 A 10.0,10.0 0 0 0 220.0,50.0 M 200.0,50.0 A 10.0,10.0 0 0 1 210.0,60.0 M 230.0,40.0 A 10.0,10.0 0 0 0 240.0,50.0 M 220.0,50.0 A 10.0,10.0 0 0 1 230.0,60.0 M 250.0,40.0 A 10.0,10.0 0 0 0 260.0,50.0 M 240.0,50.0 A 10.0,10.0 0 0 1 250.0,60.0 M 270.0,40.0 A 10.0,10.0 0 0 0 280.0,50.0 M 260.0,50.0 A 10.0,10.0 0 0 1 270.0,60.0 M 290.0,40.0 A 10.0,10.0 0 0 0 300.0,50.0 M 280.0,50.0 A 10.0,10.0 0 0 1 290.0,60.0 M 310.0,40.0 A 10.0,10.0 0 0 0 320.0,50.0 M 300.0,50.0 A 10.0,10.0 0 0 1 310.0,60.0 M 330.0,40.0 A 10.0,10.0 0 0 0 340.0,50.0 M 320.0,50.0 A 10.0,10.0 0 0 1 330.0,60.0 M 430.0,40.0 A 10.0,10.0 0 0 0 440.0,50.0 M 420.0,50.0 A 10.0,10.0 0 0 1 430.0,60.0 M 450.0,40.0 A 10.0,10.0 0 0 0 460.0,50.0 M 440.0,50.0 A 10.0,10.0 0 0 1 450.0,60.0 M 470.0,40.0 A 10.0,10.0 0 0 0 480.0,50.0 M 460.0,50.0 A 10.0,10.0 0 0 1 470.0,60.0 M 490.0,40.0 A 10.0,10.0 0 0 0 500.0,50.0 M 480.0,50.0 A 10.0,10.0 0 0 1 490.0,60.0 M 510.0,40.0 A 10.0,10.0 0 0 0 520.0,50.0 M 500.0,50.0 A 10.0,10.0 0 0 1 510.0,60.0 M 570.0,40.0 A 10.0,10.0 0 0 0 580.0,50.0 M 560.0,50.0 A 10.0,10.0 0 0 1 570.0,60.0 M 610.0,40.0 A 10.0,10.0 0 0 0 620.0,50.0 M 600.0,50.0 A 10.0,10.0 0 0 1 610.0,60.0 M 50.0,60.0 A 10.0,10.0 0 0 0 60.0,70.0 M 40.0,70.0 A 10.0,10.0 0 0 1 50.0,80.0 M 70.0,60.0 A 10.0,10.0 0 0 0 80.0,70.0 M 60.0,70.0 A 10.0,10.0 0 0 1 70.0,80.0 M 130.0,60.0 A 10.0,10.0 0 0 0 140.0,70.0 M 120.0,70.0 A 10.0,10.0 0 0 1 130.0,80.0 M 150.0,60.0 A 10.0,10.0 0 0 0 160.0,70.0 M 140.0,70.0 A 10.0,10.0 0 0 1 150.0,80.0 M 170.0,60.0 A 10.0,10.0 0 0 0 180.0,70.0 M 160.0,70.0 A 10.0,10.0 0 0 1 170.0,80.0 M 190.0,60.0 A 10.0,10.0 0 0 0 200.0,70.0 M 180.0,70.0 A 10.0,10.0 0 0 1 190.0,80.0 M 210.0,60.0 A 10.0,10.0 0 0 0 220.0,70.0 M 200.0,70.0 A 10.0,10.0 0 0 1 210.0,80.0 M 270.0,60.0 A 10.0,10.0 0 0 0 280.0,70.0 M 260.0,70.0 A 10.0,10.0 0 0 1 270.0,80.0 M 290.0,60.0 A 10.0,10.0 0 0 0 300.0,70.0 M 280.0,70.0 A 10.0,10.0 0 0 1 290.0,80.0 M 350.0,60.0 A 10.0,10.0 0 0 0 360.0,70.0 M 340.0,70.0 A 10.0,10.0 0 0 1 350.0,80.0 M 370.0,60.0 A 10.0,10.0 0 0 0 380.0,70.0 M 360.0,70.0 A 10.0,10.0 0 0 1 370.0,80.0 M 390.0,60.0 A 10.0,10.0 0 0 0 400.0,70.0 M 380.0,70.0 A 10.0,10.0 0 0 1 390.0,80.0 M 410.0,60.0 A 10.0,10.0 0 0 0 420.0,70.0 M 400.0,70.0 A 10.0,10.0 0 0 1 410.0,80.0 M 430.0,60.0 A 10.0,10.0 0 0 0 440.0,70.0 M 420.0,70.0 A 10.0,10.0 0 0 1 430.0,80.0 M 470.0,60.0 A 10.0,10.0 0 0 0 480.0,70.0 M 460.0,70.0 A 10.0,10.0 0 0 1 470.0,80.0 M 490.0,60.0 A 10.0,10.0 0 0 0 500.0,70.0 M 480.0,70.0 A 10.0,10.0 0 0 1 490.0,80.0 M 550.0,60.0 A 10.0,10.0 0 0 0 560.0,70.0 M 540.0,70.0 A 10.0,10.0 0 0 1 550.0,80.0 M 610.0,60.0 A 10.0,10.0 0 0 0 620.0,70.0 M 600.0,70.0 A 10.0,10.0 0 0 1 610.0,80.0 M 70.0,80.0 A 10.0,10.0 0 0 0 80.0,90.0 M 60.0,90.0 A 10.0,10.0 0 0 1 70.0,100.0 M 90.0,80.0 A 10.0,10.0 0 0 0 100.0,90.0 M 80.0,90.0 A 10.0,10.0 0 0 1 90.0,100.0 M 110.0,80.0 A 10.0,10.0 0 0 0 120.0,90.0 M 100.0,90.0 A 10.0,10.0 0 0 1 110.0,100.0 M 170.0,80.0 A 10.0,10.0 0 0 0 180.0,90.0 M 160.0,90.0 A 10.0,10.0 0 0 1 170.0,100.0 M 190.0,80.0 A 10.0,10.0 0 0 0 200.0,90.0 M 180.0,90.0 A 10.0,10.0 0 0 1 190.0,100.0 M 210.0,80.0 A 10.0,10.0 0 0 0 220.0,90.0 M 200.0,90.0 A 10.0,10.0 0 0 1 210.0,100.0 M 250.0,80.0 A 10.0,10.0 0 0 0 260.0,90.0 M 240.0,90.0 A 10.0,10.0 0 0 1 250.0,100.0 M 270.0,80.0 A 10.0,10.0 0 0 0 280.0,90.0 M 260.0,90.0 A 10.0,10.0 0 0 1 270.0,100.0 M 290.0,80.0 A 10.0,10.0 0 0 0 300.0,90.0 M 280.0,90.0 A 10.0,10.0 0 0 1 290.0,100.0 M 310.0,80.0 A 10.0,10.0 0 0 0 320.0,90.0 M 300.0,90.0 A 10.0,10.0 0 0 1 310.0,100.0 M 330.0,80.0 A 10.0,10.0 0 0 0 340.0,90.0 M 320.0,90.0 A 10.0,10.0 0 0 1 330.0,100.0 M 510.0,80.0 A 10.0,10.0 0 0 0 520.0,90.0 M 500.0,90.0 A 10.0,10.0 0 0 1 510.0,100.0 M 550.0,80.0 A 10.0,10.0 0 0 0 560.0,90.0 M 540.0,90.0 A 10.0,10.0 0 0 1 550.0,100.0 M 570.0,80.0 A 10.0,10.0 0 0 0 580.0,90.0 M 560.0,90.0 A 10.0,10.0 0 0 1 570.0,100.0 M 30.0,100.0 A 10.0,10.0 0 0 0 40.0,110.0 M 20.0,110.0 A 10.0,10.0 0 0 1 30.0,120.0 M 50.0,100.0 A 10.0,10.0 0 0 0 60.0,110.0 M 40.0,110.0 A 10.0,10.0 0 0 1 50.0,120.0 M 70.0,100.0 A 10.0,10.0 0 0 0 80.0,110.0 M 60.0,110.0 A 10.0,10.0 0 0 1 70.0,120.0 M 130.0,100.0 A 10.0,10.0 0 0 0 140.0,110.0 M 120.0,110.0 A 10.0,10.0 0 0 1 130.0,120.0 M 150.0,100.0 A 10.0,10.0 0 0 0 160.0,110.0 M 140.0,110.0 A 10.0,10.0 0 0 1 150.0,120.0 M 170.0,100.0 A 10.0,10.0 0 0 0 180.0,110.0 M 160.0,110.0 A 10.0,10.0 0 0 1 170.0,120.0 M 190.0,100.0 A 10.0,10.0 0 0 0 200.0,110.0 M 180.0,110.0 A 10.0,10.0 0 0 1 190.0,120.0 M 210.0,100.0 A 10.0,10.0 0 0 0 220.0,110.0 M 200.0,110.0 A 10.0,10.0 0 0 1 210.0,120.0 M 250.0,100.0 A 10.0,10.0 0 0 0 260.0,110.0 M 240.0,110.0 A 10.0,10.0 0 0 1 250.0,120.0 M 270.0,100.0 A 10.0,10.0 0 0 0 280.0,110.0 M 260.0,110.0 A 10.0,10.0 0 0 1 270.0,120.0 M 370.0,100.0 A 10.0,10.0 0 0 0 380.0,110.0 M 360.0,110.0 A 10.0,10.0 0 0 1 370.0,120.0 M 430.0,100.0 A 10.0,10.0 0 0 0 440.0,110.0 M 420.0,110.0 A 10.0,10.0 0 0 1 430.0,120.0 M 550.0,100.0 A 10.0,10.0 0 0 0 560.0,110.0 M 540.0,110.0 A 10.0,10.0 0 0 1 550.0,120.0 M 30.0,120.0 A 10.0,10.0 0 0 0 40.0,130.0 M 20.0,130.0 A 10.0,10.0 0 0 1 30.0,140.0 M 70.0,120.0 A 10.0,10.0 0 0 0 80.0,130.0 M 60.0,130.0 A 10.0,10.0 0 0 1 70.0,140.0 M 90.0,120.0 A 10.0,10.0 0 0 0 100.0,130.0 M 80.0,130.0 A 10.0,10.0 0 0 1 90.0,140.0 M 110.0,120.0 A 10.0,10.0 0 0 0 120.0,130.0 M 100.0,130.0 A 10.0,10.0 0 0 1 110.0,140.0 M 130.0,120.0 A 10.0,10.0 0 0 0 140.0,130.0 M 120.0,130.0 A 10.0,10.0 0 0 1 130.0,140.0 M 190.0,120.0 A 10.0,10.0 0 0 0 200.0,130.0 M 180.0,130.0 A 10.0,10.0 0 0 1 190.0,140.0 M 210.0,120.0 A 10.0,10.0 0 0 0 220.0,130.0 M 200.0,130.0 A 10.0,10.0 0 0 1 210.0,140.0 M 230.0,120.0 A 10.0,10.0 0 0 0 240.0,130.0 M 220.0,130.0 A 10.0,10.0 0 0 1 230.0,140.0 M 250.0,120.0 A 10.0,10.0 0 0 0 260.0,130.0 M 240.0,130.0 A 10.0,10.0 0 0 1 250.0,140.0 M 270.0,120.0 A 10.0,10.0 0 0 0 280.0,130.0 M 260.0,130.0 A 10.0,10.0 0 0 1 270.0,140.0 M 350.0,120.0 A 10.0,10.0 0 0 0 360.0,130.0 M 340.0,130.0 A 10.0,10.0 0 0 1 350.0,140.0 M 370.0,120.0 A 10.0,10.0 0 0 0 380.0,130.0 M 360.0,130.0 A 10.0,10.0 0 0 1 370.0,140.0 M 390.0,120.0 A 10.0,10.0 0 0 0 400.0,130.0 M 380.0,130.0 A 10.0,10.0 0 0 1 390.0,140.0 M 470.0,120.0 A 10.0,10.0 0 0 0 480.0,130.0 M 460.0,130.0 A 10.0,10.0 0 0 1 470.0,140.0 M 530.0,120.0 A 10.0,10.0 0 0 0 540.0,130.0 M 520.0,130.0 A 10.0,10.0 0 0 1 530.0,140.0 M 570.0,120.0 A 10.0,10.0 0 0 0 580.0,130.0 M 560.0,130.0 A 10.0,10.0 0 0 1 570.0,140.0 M 590.0,120.0 A 10.0,10.0 0 0 0 600.0,130.0 M 580.0,130.0 A 10.0,10.0 0 0 1 590.0,140.0 M 30.0,140.0 A 10.0,10.0 0 0 0 40.0,150.0 M 20.0,150.0 A 10.0,10.0 0 0 1 30.0,160.0 M 70.0,140.0 A 10.0,10.0 0 0 0 80.0,150.0 M 60.0,150.0 A 10.0,10.0 0 0 1 70.0,160.0 M 150.0,140.0 A 10.0,10.0 0 0 0 160.0,150.0 M 140.0,150.0 A 10.0,10.0 0 0 1 150.0,160.0 M 210.0,140.0 A 10.0,10.0 0 0 0 220.0,150.0 M 200.0,150.0 A 10.0,10.0 0 0 1 210.0,160.0 M 230.0,140.0 A 10.0,10.0 0 0 0 240.0,150.0 M 220.0,150.0 A 10.0,10.0 0 0 1 230.0,160.0 M 290.0,140.0 A 10.0,10.0 0 0 0 300.0,150.0 M 280.0,150.0 A 10.0,10.0 0 0 1 290.0,160.0 M 310.0,140.0 A 10.0,10.0 0 0 0 320.0,150.0 M 300.0,150.0 A 10.0,10.0 0 0 1 310.0,160.0 M 330.0,140.0 A 10.0,10.0 0 0 0 340.0,150.0 M 320.0,150.0 A 10.0,10.0 0 0 1 330.0,160.0 M 370.0,140.0 A 10.0,10.0 0 0 0 380.0,150.0 M 360.0,150.0 A 10.0,10.0 0 0 1 370.0,160.0 M 390.0,140.0 A 10.0,10.0 0 0 0 400.0,150.0 M 380.0,150.0 A 10.0,10.0 0 0 1 390.0,160.0 M 410.0,140.0 A 10.0,10.0 0 0 0 420.0,150.0 M 400.0,150.0 A 10.0,10.0 0 0 1 410.0,160.0 M 430.0,140.0 A 10.0,10.0 0 0 0 440.0,150.0 M 420.0,150.0 A 10.0,10.0 0 0 1 430.0,160.0 M 530.0,140.0 A 10.0,10.0 0 0 0 540.0,150.0 M 520.0,150.0 A 10.0,10.0 0 0 1 530.0,160.0 M 570.0,140.0 A 10.0,10.0 0 0 0 580.0,150.0 M 560.0,150.0 A 10.0,10.0 0 0 1 570.0,160.0 M 610.0,140.0 A 10.0,10.0 0 0 0 620.0,150.0 M 600.0,150.0 A 10.0,10.0 0 0 1 610.0,160.0 M 50.0,160.0 A 10.0,10.0 0 0 0 60.0,170.0 M 40.0,170.0 A 10.0,10.0 0 0 1 50.0,180.0 M 70.0,160.0 A 10.0,10.0 0 0 0 80.0,170.0 M 60.0,170.0 A 10.0,10.0 0 0 1 70.0,180.0 M 130.0,160.0 A 10.0,10.0 0 0 0 140.0,170.0 M 120.0,170.0 A 10.0,10.0 0 0 1 130.0,180.0 M 170.0,160.0 A 10.0,10.0 0 0 0 180.0,170.0 M 160.0,170.0 A 10.0,10.0 0 0 1 170.0,180.0 M 210.0,160.0 A 10.0,10.0 0 0 0 220.0,170.0 M 200.0,170.0 A 10.0,10.0 0 0 1 210.0,180.0 M 230.0,160.0 A 10.0,10.0 0 0 0 240.0,170.0 M 220.0,170.0 A 10.0,10.0 0 0 1 230.0,180.0 M 270.0,160.0 A 10.0,10.0 0 0 0 280.0,170.0 M 260.0,170.0 A 10.0,10.0 0 0 1 270.0,180.0 M 290.0,160.0 A 10.0,10.0 0 0 0 300.0,170.0 M 280.0,170.0 A 10.0,10.0 0 0 1 290.0,180.0 M 310.0,160.0 A 10.0,10.0 0 0 0 320.0,170.0 M 300.0,170.0 A 10.0,10.0 0 0 1 310.0,180.0 M 450.0,160.0 A 10.0,10.0 0 0 0 460.0,170.0 M 440.0,170.0 A 10.0,10.0 0 0 1 450.0,180.0 M 490.0,160.0 A 10.0,10.0 0 0 0 500.0,170.0 M 480.0,170.0 A 10.0,10.0 0 0 1 490.0,180.0 M 510.0,160.0 A 10.0,10.0 0 0 0 520.0,170.0 M 500.0,170.0 A 10.0,10.0 0 0 1 510.0,180.0 M 50.0,180.0 A 10.0,10.0 0 0 0 60.0,190.0 M 40.0,190.0 A 10.0,10.0 0 0 1 50.0,200.0 M 130.0,180.0 A 10.0,10.0 0 0 0 140.0,190.0 M 120.0,190.0 A 10.0,10.0 0 0 1 130.0,200.0 M 170.0,180.0 A 10.0,10.0 0 0 0 180.0,190.0 M 160.0,190.0 A 10.0,10.0 0 0 1 170.0,200.0 M 210.0,180.0 A 10.0,10.0 0 0 0 220.0,190.0 M 200.0,190.0 A 10.0,10.0 0 0 1 210.0,200.0 M 230.0,180.0 A 10.0,10.0 0 0 0 240.0,190.0 M 220.0,190.0 A 10.0,10.0 0 0 1 230.0,200.0 M 250.0,180.0 A 10.0,10.0 0 0 0 260.0,190.0 M 240.0,190.0 A 10.0,10.0 0 0 1 250.0,200.0 M 310.0,180.0 A 10.0,10.0 0 0 0 320.0,190.0 M 300.0,190.0 A 10.0,10.0 0 0 1 310.0,200.0 M 330.0,180.0 A 10.0,10.0 0 0 0 340.0,190.0 M 320.0,190.0 A 10.0,10.0 0 0 1 330.0,200.0 M 350.0,180.0 A 10.0,10.0 0 0 0 360.0,190.0 M 340.0,190.0 A 10.0,10.0 0 0 1 350.0,200.0 M 430.0,180.0 A 10.0,10.0 0 0 0 440.0,190.0 M 420.0,190.0 A 10.0,10.0 0 0 1 430.0,200.0 M 550.0,180.0 A 10.0,10.0 0 0 0 560.0,190.0 M 540.0,190.0 A 10.0,10.0 0 0 1 550.0,200.0 M 610.0,180.0 A 10.0,10.0 0 0 0 620.0,190.0 M 600.0,190.0 A 10.0,10.0 0 0 1 610.0,200.0 M 30.0,200.0 A 10.0,10.0 0 0 0 40.0,210.0 M 20.0,210.0 A 10.0,10.0 0 0 1 30.0,220.0 M 130.0,200.0 A 10.0,10.0 0 0 0 140.0,210.0 M 120.0,210.0 A 10.0,10.0 0 0 1 130.0,220.0 M 190.0,200.0 A 10.0,10.0 0 0 0 200.0,210.0 M 180.0,210.0 A 10.0,10.0 0 0 1 190.0,220.0 M 250.0,200.0 A 10.0,10.0 0 0 0 260.0,210.0 M 240.0,210.0 A 10.0,10.0 0 0 1 250.0,220.0 M 270.0,200.0 A 10.0,10.0 0 0 0 280.0,210.0 M 260.0,210.0 A 10.0,10.0 0 0 1 270.0,220.0 M 310.0,200.0 A 10.0,10.0 0 0 0 320.0,210.0 M 300.0,210.0 A 10.0,10.0 0 0 1 310.0,220.0 M 330.0,200.0 A 10.0,10.0 0 0 0 340.0,210.0 M 320.0,210.0 A 10.0,10.0 0 0 1 330.0,220.0 M 350.0,200.0 A 10.0,10.0 0 0 0 360.0,210.0 M 340.0,210.0 A 10.0,10.0 0 0 1 350.0,220.0 M 390.0,200.0 A 10.0,10.0 0 0 0 400.0,210.0 M 380.0,210.0 A 10.0,10.0 0 0 1 390.0,220.0 M 430.0,200.0 A 10.0,10.0 0 0 0 440.0,210.0 M 420.0,210.0 A 10.0,10.0 0 0 1 430.0,220.0 M 470.0,200.0 A 10.0,10.0 0 0 0 480.0,210.0 M 460.0,210.0 A 10.0,10.0 0 0 1 470.0,220.0 M 510.0,200.0 A 10.0,10.0 0 0 0 520.0,210.0 M 500.0,210.0 A 10.0,10.0 0 0 1 510.0,220.0 M 530.0,200.0 A 10.0,10.0 0 0 0 540.0,210.0 M 520.0,210.0 A 10.0,10.0 0 0 1 530.0,220.0 M 550.0,200.0 A 10.0,10.0 0 0 0 560.0,210.0 M 540.0,210.0 A 10.0,10.0 0 0 1 550.0,220.0 M 610.0,200.0 A 10.0,10.0 0 0 0 620.0,210.0 M 600.0,210.0 A 10.0,10.0 0 0 1 610.0,220.0 M 70.0,220.0 A 10.0,10.0 0 0 0 80.0,230.0 M 60.0,230.0 A 10.0,10.0 0 0 1 70.0,240.0 M 130.0,220.0 A 10.0,10.0 0 0 0 140.0,230.0 M 120.0,230.0 A 10.0,10.0 0 0 1 130.0,240.0 M 170.0,220.0 A 10.0,10.0 0 0 0 180.0,230.0 M 160.0,230.0 A 10.0,10.0 0 0 1 170.0,240.0 M 210.0,220.0 A 10.0,10.0 0 0 0 220.0,230.0 M 200.0,230.0 A 10.0,10.0 0 0 1 210.0,240.0 M 270.0,220.0 A 10.0,10.0 0 0 0 280.0,230.0 M 260.0,230.0 A 10.0,10.0 0 0 1 270.0,240.0 M 290.0,220.0 A 10.0,10.0 0 0 0 300.0,230.0 M 280.0,230.0 A 10.0,10.0 0 0 1 290.0,240.0 M 370.0,220.0 A 10.0,10.0 0 0 0 380.0,230.0 M 360.0,230.0 A 10.0,10.0 0 0 1 370.0,240.0 M 390.0,220.0 A 10.0,10.0 0 0 0 400.0,230.0 M 380.0,230.0 A 10.0,10.0 0 0 1 390.0,240.0 M 410.0,220.0 A 10.0,10.0 0 0 0 420.0,230.0 M 400.0,230.0 A 10.0,10.0 0 0 1 410.0,240.0 M 430.0,220.0 A 10.0,10.0 0 0 0 440.0,230.0 M 420.0,230.0 A 10.0,10.0 0 0 1 430.0,240.0 M 470.0,220.0 A 10.0,10.0 0 0 0 480.0,230.0 M 460.0,230.0 A 10.0,10.0 0 0 1 470.0,240.0 M 490.0,220.0 A 10.0,10.0 0 0 0 500.0,230.0 M 480.0,230.0 A 10.0,10.0 0 0 1 490.0,240.0 M 530.0,220.0 A 10.0,10.0 0 0 0 540.0,230.0 M 520.0,230.0 A 10.0,10.0 0 0 1 530.0,240.0 M 570.0,220.0 A 10.0,10.0 0 0 0 580.0,230.0 M 560.0,230.0 A 10.0,10.0 0 0 1 570.0,240.0 M 590.0,220.0 A 10.0,10.0 0 0 0 600.0,230.0 M 580.0,230.0 A 10.0,10.0 0 0 1 590.0,240.0 M 610.0,220.0 A 10.0,10.0 0 0 0 620.0,230.0 M 600.0,230.0 A 10.0,10.0 0 0 1 610.0,240.0 M 50.0,240.0 A 10.0,10.0 0 0 0 60.0,250.0 M 40.0,250.0 A 10.0,10.0 0 0 1 50.0,260.0 M 70.0,240.0 A 10.0,10.0 0 0 0 80.0,250.0 M 60.0,250.0 A 10.0,10.0 0 0 1 70.0,260.0 M 90.0,240.0 A 10.0,10.0 0 0 0 100.0,250.0 M 80.0,250.0 A 10.0,10.0 0 0 1 90.0,260.0 M 210.0,240.0 A 10.0,10.0 0 0 0 220.0,250.0 M 200.0,250.0 A 10.0,10.0 0 0 1 210.0,260.0 M 230.0,240.0 A 10.0,10.0 0 0 0 240.0,250.0 M 220.0,250.0 A 10.0,10.0 0 0 1 230.0,260.0 M 290.0,240.0 A 10.0,10.0 0 0 0 300.0,250.0 M 280.0,250.0 A 10.0,10.0 0 0 1 290.0,260.0 M 330.0,240.0 A 10.0,10.0 0 0 0 340.0,250.0 M 320.0,250.0 A 10.0,10.0 0 0 1 330.0,260.0 M 350.0,240.0 A 10.0,10.0 0 0 0 360.0,250.0 M 340.0,250.0 A 10.0,10.0 0 0 1 350.0,260.0 M 370.0,240.0 A 10.0,10.0 0 0 0 380.0,250.0 M 360.0,250.0 A 10.0,10.0 0 0 1 370.0,260.0 M 410.0,240.0 A 10.0,10.0 0 0 0 420.0,250.0 M 400.0,250.0 A 10.0,10.0 0 0 1 410.0,260.0 M 430.0,240.0 A 10.0,10.0 0 0 0 440.0,250.0 M 420.0,250.0 A 10.0,10.0 0 0 1 430.0,260.0 M 470.0,240.0 A 10.0,10.0 0 0 0 480.0,250.0 M 460.0,250.0 A 10.0,10.0 0 0 1 470.0,260.0 M 530.0,240.0 A 10.0,10.0 0 0 0 540.0,250.0 M 520.0,250.0 A 10.0,10.0 0 0 1 530.0,260.0 M 570.0,240.0 A 10.0,10.0 0 0 0 580.0,250.0 M 560.0,250.0 A 10.0,10.0 0 0 1 570.0,260.0 M 30.0,260.0 A 10.0,10.0 0 0 0 40.0,270.0 M 20.0,270.0 A 10.0,10.0 0 0 1 30.0,280.0 M 110.0,260.0 A 10.0,10.0 0 0 0 120.0,270.0 M 100.0,270.0 A 10.0,10.0 0 0 1 110.0,280.0 M 150.0,260.0 A 10.0,10.0 0 0 0 160.0,270.0 M 140.0,270.0 A 10.0,10.0 0 0 1 150.0,280.0 M 190.0,260.0 A 10.0,10.0 0 0 0 200.0,270.0 M 180.0,270.0 A 10.0,10.0 0 0 1 190.0,280.0 M 210.0,260.0 A 10.0,10.0 0 0 0 220.0,270.0 M 200.0,270.0 A 10.0,10.0 0 0 1 210.0,280.0 M 230.0,260.0 A 10.0,10.0 0 0 0 240.0,270.0 M 220.0,270.0 A 10.0,10.0 0 0 1 230.0,280.0 M 350.0,260.0 A 10.0,10.0 0 0 0 360.0,270.0 M 340.0,270.0 A 10.0,10.0 0 0 1 350.0,280.0 M 430.0,260.0 A 10.0,10.0 0 0 0 440.0,270.0 M 420.0,270.0 A 10.0,10.0 0 0 1 430.0,280.0 M 450.0,260.0 A 10.0,10.0 0 0 0 460.0,270.0 M 440.0,270.0 A 10.0,10.0 0 0 1 450.0,280.0 M 490.0,260.0 A 10.0,10.0 0 0 0 500.0,270.0 M 480.0,270.0 A 10.0,10.0 0 0 1 490.0,280.0 M 510.0,260.0 A 10.0,10.0 0 0 0 520.0,270.0 M 500.0,270.0 A 10.0,10.0 0 0 1 510.0,280.0 M 550.0,260.0 A 10.0,10.0 0 0 0 560.0,270.0 M 540.0,270.0 A 10.0,10.0 0 0 1 550.0,280.0 M 570.0,260.0 A 10.0,10.0 0 0 0 580.0,270.0 M 560.0,270.0 A 10.0,10.0 0 0 1 570.0,280.0 M 610.0,260.0 A 10.0,10.0 0 0 0 620.0,270.0 M 600.0,270.0 A 10.0,10.0 0 0 1 610.0,280.0 M 110.0,280.0 A 10.0,10.0 0 0 0 120.0,290.0 M 100.0,290.0 A 10.0,10.0 0 0 1 110.0,300.0 M 150.0,280.0 A 10.0,10.0 0 0 0 160.0,290.0 M 140.0,290.0 A 10.0,10.0 0 0 1 150.0,300.0 M 190.0,280.0 A 10.0,10.0 0 0 0 200.0,290.0 M 180.0,290.0 A 10.0,10.0 0 0 1 190.0,300.0 M 210.0,280.0 A 10.0,10.0 0 0 0 220.0,290.0 M 200.0,290.0 A 10.0,10.0 0 0 1 210.0,300.0 M 230.0,280.0 A 10.0,10.0 0 0 0 240.0,290.0 M 220.0,290.0 A 10.0,10.0 0 0 1 230.0,300.0 M 250.0,280.0 A 10.0,10.0 0 0 0 260.0,290.0 M 240.0,290.0 A 10.0,10.0 0 0 1 250.0,300.0 M 310.0,280.0 A 10.0,10.0 0 0 0 320.0,290.0 M 300.0,290.0 A 10.0,10.0 0 0 1 310.0,300.0 M 370.0,280.0 A 10.0,10.0 0 0 0 380.0,290.0 M 360.0,290.0 A 10.0,10.0 0 0 1 370.0,300.0 M 390.0,280.0 A 10.0,10.0 0 0 0 400.0,290.0 M 380.0,290.0 A 10.0,10.0 0 0 1 390.0,300.0 M 490.0,280.0 A 10.0,10.0 0 0 0 500.0,290.0 M 480.0,290.0 A 10.0,10.0 0 0 1 490.0,300.0 M 510.0,280.0 A 10.0,10.0 0 0 0 520.0,290.0 M 500.0,290.0 A 10.0,10.0 0 0 1 510.0,300.0 M 590.0,280.0 A 10.0,10.0 0 0 0 600.0,290.0 M 580.0,290.0 A 10.0,10.0 0 0 1 590.0,300.0 M 610.0,280.0 A 10.0,10.0 0 0 0 620.0,290.0 M 600.0,290.0 A 10.0,10.0 0 0 1 610.0,300.0 M 50.0,300.0 A 10.0,10.0 0 0 0 60.0,310.0 M 40.0,310.0 A 10.0,10.0 0 0 1 50.0,320.0 M 90.0,300.0 A 10.0,10.0 0 0 0 100.0,310.0 M 80.0,310.0 A 10.0,10.0 0 0 1 90.0,320.0 M 150.0,300.0 A 10.0,10.0 0 0 0 160.0,310.0 M 140.0,310.0 A 10.0,10.0 0 0 1 150.0,320.0 M 170.0,300.0 A 10.0,10.0 0 0 0 180.0,310.0 M 160.0,310.0 A 10.0,10.0 0 0 1 170.0,320.0 M 210.0,300.0 A 10.0,10.0 0 0 0 220.0,310.0 M 200.0,310.0 A 10.0,10.0 0 0 1 210.0,320.0 M 230.0,300.0 A 10.0,10.0 0 0 0 240.0,310.0 M 220.0,310.0 A 10.0,10.0 0 0 1 230.0,320.0 M 250.0,300.0 A 10.0,10.0 0 0 0 260.0,310.0 M 240.0,310.0 A 10.0,10.0 0 0 1 250.0,320.0 M 270.0,300.0 A 10.0,10.0 0 0 0 280.0,310.0 M 260.0,310.0 A 10.0,10.0 0 0 1 270.0,320.0 M 330.0,300.0 A 10.0,10.0 0 0 0 340.0,310.0 M 320.0,310.0 A 10.0,10.0 0 0 1 330.0,320.0 M 370.0,300.0 A 10.0,10.0 0 0 0 380.0,310.0 M 360.0,310.0 A 10.0,10.0 0 0 1 370.0,320.0 M 430.0,300.0 A 10.0,10.0 0 0 0 440.0,310.0 M 420.0,310.0 A 10.0,10.0 0 0 1 430.0,320.0 M 450.0,300.0 A 10.0,10.0 0 0 0 460.0,310.0 M 440.0,310.0 A 10.0,10.0 0 0 1 450.0,320.0 M 490.0,300.0 A 10.0,10.0 0 0 0 500.0,310.0 M 480.0,310.0 A 10.0,10.0 0 0 1 490.0,320.0 M 510.0,300.0 A 10.0,10.0 0 0 0 520.0,310.0 M 500.0,310.0 A 10.0,10.0 0 0 1 510.0,320.0 M 610.0,300.0 A 10.0,10.0 0 0 0 620.0,310.0 M 600.0,310.0 A 10.0,10.0 0 0 1 610.0,320.0 M 70.0,320.0 A 10.0,10.0 0 0 0 80.0,330.0 M 60.0,330.0 A 10.0,10.0 0 0 1 70.0,340.0 M 110.0,320.0 A 10.0,10.0 0 0 0 120.0,330.0 M 100.0,330.0 A 10.0,10.0 0 0 1 110.0,340.0 M 150.0,320.0 A 10.0,10.0 0 0 0 160.0,330.0 M 140.0,330.0 A 10.0,10.0 0 0 1 150.0,340.0 M 170.0,320.0 A 10.0,10.0 0 0 0 180.0,330.0 M 160.0,330.0 A 10.0,10.0 0 0 1 170.0,340.0 M 250.0,320.0 A 10.0,10.0 0 0 0 260.0,330.0 M 240.0,330.0 A 10.0,10.0 0 0 1 250.0,340.0 M 270.0,320.0 A 10.0,10.0 0 0 0 280.0,330.0 M 260.0,330.0 A 10.0,10.0 0 0 1 270.0,340.0 M 290.0,320.0 A 10.0,10.0 0 0 0 300.0,330.0 M 280.0,330.0 A 10.0,10.0 0 0 1 290.0,340.0 M 330.0,320.0 A 10.0,10.0 0 0 0 340.0,330.0 M 320.0,330.0 A 10.0,10.0 0 0 1 330.0,340.0 M 390.0,320.0 A 10.0,10.0 0 0 0 400.0,330.0 M 380.0,330.0 A 10.0,10.0 0 0 1 390.0,340.0 M 550.0,320.0 A 10.0,10.0 0 0 0 560.0,330.0 M 540.0,330.0 A 10.0,10.0 0 0 1 550.0,340.0 M 590.0,320.0 A 10.0,10.0 0 0 0 600.0,330.0 M 580.0,330.0 A 10.0,10.0 0 0 1 590.0,340.0 M 610.0,320.0 A 10.0,10.0 0 0 0 620.0,330.0 M 600.0,330.0 A 10.0,10.0 0 0 1 610.0,340.0 M 90.0,340.0 A 10.0,10.0 0 0 0 100.0,350.0 M 80.0,350.0 A 10.0,10.0 0 0 1 90.0,360.0 M 110.0,340.0 A 10.0,10.0 0 0 0 120.0,350.0 M 100.0,350.0 A 10.0,10.0 0 0 1 110.0,360.0 M 150.0,340.0 A 10.0,10.0 0 0 0 160.0,350.0 M 140.0,350.0 A 10.0,10.0 0 0 1 150.0,360.0 M 230.0,340.0 A 10.0,10.0 0 0 0 240.0,350.0 M 220.0,350.0 A 10.0,10.0 0 0 1 230.0,360.0 M 250.0,340.0 A 10.0,10.0 0 0 0 260.0,350.0 M 240.0,350.0 A 10.0,10.0 0 0 1 250.0,360.0 M 290.0,340.0 A 10.0,10.0 0 0 0 300.0,350.0 M 280.0,350.0 A 10.0,10.0 0 0 1 290.0,360.0 M 370.0,340.0 A 10.0,10.0 0 0 0 380.0,350.0 M 360.0,350.0 A 10.0,10.0 0 0 1 370.0,360.0 M 390.0,340.0 A 10.0,10.0 0 0 0 400.0,350.0 M 380.0,350.0 A 10.0,10.0 0 0 1 390.0,360.0 M 410.0,340.0 A 10.0,10.0 0 0 0 420.0,350.0 M 400.0,350.0 A 10.0,10.0 0 0 1 410.0,360.0 M 450.0,340.0 A 10.0,10.0 0 0 0 460.0,350.0 M 440.0,350.0 A 10.0,10.0 0 0 1 450.0,360.0 M 470.0,340.0 A 10.0,10.0 0 0 0 480.0,350.0 M 460.0,350.0 A 10.0,10.0 0 0 1 470.0,360.0 M 570.0,340.0 A 10.0,10.0 0 0 0 580.0,350.0 M 560.0,350.0 A 10.0,10.0 0 0 1 570.0,360.0 M 590.0,340.0 A 10.0,10.0 0 0 0 600.0,350.0 M 580.0,350.0 A 10.0,10.0 0 0 1 590.0,360.0 M 610.0,340.0 A 10.0,10.0 0 0 0 620.0,350.0 M 600.0,350.0 A 10.0,10.0 0 0 1 610.0,360.0 M 70.0,360.0 A 10.0,10.0 0 0 0 80.0,370.0 M 60.0,370.0 A 10.0,10.0 0 0 1 70.0,380.0 M 110.0,360.0 A 10.0,10.0 0 0 0 120.0,370.0 M 100.0,370.0 A 10.0,10.0 0 0 1 110.0,380.0 M 130.0,360.0 A 10.0,10.0 0 0 0 140.0,370.0 M 120.0,370.0 A 10.0,10.0 0 0 1 130.0,380.0 M 190.0,360.0 A 10.0,10.0 0 0 0 200.0,370.0 M 180.0,370.0 A 10.0,10.0 0 0 1 190.0,380.0 M 210.0,360.0 A 10.0,10.0 0 0 0 220.0,370.0 M 200.0,370.0 A 10.0,10.0 0 0 1 210.0,380.0 M 230.0,360.0 A 10.0,10.0 0 0 0 240.0,370.0 M 220.0,370.0 A 10.0,10.0 0 0 1 230.0,380.0 M 250.0,360.0 A 10.0,10.0 0 0 0 260.0,370.0 M 240.0,370.0 A 10.0,10.0 0 0 1 250.0,380.0 M 270.0,360.0 A 10.0,10.0 0 0 0 280.0,370.0 M 260.0,370.0 A 10.0,10.0 0 0 1 270.0,380.0 M 290.0,360.0 A 10.0,10.0 0 0 0 300.0,370.0 M 280.0,370.0 A 10.0,10.0 0 0 1 290.0,380.0 M 350.0,360.0 A 10.0,10.0 0 0 0 360.0,370.0 M 340.0,370.0 A 10.0,10.0 0 0 1 350.0,380.0 M 390.0,360.0 A 10.0,10.0 0 0 0 400.0,370.0 M 380.0,370.0 A 10.0,10.0 0 0 1 390.0,380.0 M 430.0,360.0 A 10.0,10.0 0 0 0 440.0,370.0 M 420.0,370.0 A 10.0,10.0 0 0 1 430.0,380.0 M 450.0,360.0 A 10.0,10.0 0 0 0 460.0,370.0 M 440.0,370.0 A 10.0,10.0 0 0 1 450.0,380.0 M 490.0,360.0 A 10.0,10.0 0 0 0 500.0,370.0 M 480.0,370.0 A 10.0,10.0 0 0 1 490.0,380.0 M 510.0,360.0 A 10.0,10.0 0 0 0 520.0,370.0 M 500.0,370.0 A 10.0,10.0 0 0 1 510.0,380.0 M 530.0,360.0 A 10.0,10.0 0 0 0 540.0,370.0 M 520.0,370.0 A 10.0,10.0 0 0 1 530.0,380.0 M 50.0,380.0 A 10.0,10.0 0 0 0 60.0,390.0 M 40.0,390.0 A 10.0,10.0 0 0 1 50.0,400.0 M 70.0,380.0 A 10.0,10.0 0 0 0 80.0,390.0 M 60.0,390.0 A 10.0,10.0 0 0 1 70.0,400.0 M 110.0,380.0 A 10.0,10.0 0 0 0 120.0,390.0 M 100.0,390.0 A 10.0,10.0 0 0 1 110.0,400.0 M 150.0,380.0 A 10.0,10.0 0 0 0 160.0,390.0 M 140.0,390.0 A 10.0,10.0 0 0 1 150.0,400.0 M 190.0,380.0 A 10.0,10.0 0 0 0 200.0,390.0 M 180.0,390.0 A 10.0,10.0 0 0 1 190.0,400.0 M 210.0,380.0 A 10.0,10.0 0 0 0 220.0,390.0 M 200.0,390.0 A 10.0,10.0 0 0 1 210.0,400.0 M 230.0,380.0 A 10.0,10.0 0 0 0 240.0,390.0 M 220.0,390.0 A 10.0,10.0 0 0 1 230.0,400.0 M 310.0,380.0 A 10.0,10.0 0 0 0 320.0,390.0 M 300.0,390.0 A 10.0,10.0 0 0 1 310.0,400.0 M 330.0,380.0 A 10.0,10.0 0 0 0 340.0,390.0 M 320.0,390.0 A 10.0,10.0 0 0 1 330.0,400.0 M 350.0,380.0 A 10.0,10.0 0 0 0 360.0,390.0 M 340.0,390.0 A 10.0,10.0 0 0 1 350.0,400.0 M 370.0,380.0 A 10.0,10.0 0 0 0 380.0,390.0 M 360.0,390.0 A 10.0,10.0 0 0 1 370.0,400.0 M 410.0,380.0 A 10.0,10.0 0 0 0 420.0,390.0 M 400.0,390.0 A 10.0,10.0 0 0 1 410.0,400.0 M 430.0,380.0 A 10.0,10.0 0 0 0 440.0,390.0 M 420.0,390.0 A 10.0,10.0 0 0 1 430.0,400.0 M 450.0,380.0 A 10.0,10.0 0 0 0 460.0,390.0 M 440.0,390.0 A 10.0,10.0 0 0 1 450.0,400.0 M 470.0,380.0 A 10.0,10.0 0 0 0 480.0,390.0 M 460.0,390.0 A 10.0,10.0 0 0 1 470.0,400.0 M 510.0,380.0 A 10.0,10.0 0 0 0 520.0,390.0 M 500.0,390.0 A 10.0,10.0 0 0 1 510.0,400.0 M 550.0,380.0 A 10.0,10.0 0 0 0 560.0,390.0 M 540.0,390.0 A 10.0,10.0 0 0 1 550.0,400.0 M 570.0,380.0 A 10.0,10.0 0 0 0 580.0,390.0 M 560.0,390.0 A 10.0,10.0 0 0 1 570.0,400.0 M 590.0,380.0 A 10.0,10.0 0 0 0 600.0,390.0 M 580.0,390.0 A 10.0,10.0 0 0 1 590.0,400.0 M 70.0,400.0 A 10.0,10.0 0 0 0 80.0,410.0 M 60.0,410.0 A 10.0,10.0 0 0 1 70.0,420.0 M 90.0,400.0 A 10.0,10.0 0 0 0 100.0,410.0 M 80.0,410.0 A 10.0,10.0 0 0 1 90.0,420.0 M 110.0,400.0 A 10.0,10.0 0 0 0 120.0,410.0 M 100.0,410.0 A 10.0,10.0 0 0 1 110.0,420.0 M 150.0,400.0 A 10.0,10.0 0 0 0 160.0,410.0 M 140.0,410.0 A 10.0,10.0 0 0 1 150.0,420.0 M 170.0,400.0 A 10.0,10.0 0 0 0 180.0,410.0 M 160.0,410.0 A 10.0,10.0 0 0 1 170.0,420.0 M 210.0,400.0 A 10.0,10.0 0 0 0 220.0,410.0 M 200.0,410.0 A 10.0,10.0 0 0 1 210.0,420.0 M 230.0,400.0 A 10.0,10.0 0 0 0 240.0,410.0 M 220.0,410.0 A 10.0,10.0 0 0 1 230.0,420.0 M 250.0,400.0 A 10.0,10.0 0 0 0 260.0,410.0 M 240.0,410.0 A 10.0,10.0 0 0 1 250.0,420.0 M 290.0,400.0 A 10.0,10.0 0 0 0 300.0,410.0 M 280.0,410.0 A 10.0,10.0 0 0 1 290.0,420.0 M 350.0,400.0 A 10.0,10.0 0 0 0 360.0,410.0 M 340.0,410.0 A 10.0,10.0 0 0 1 350.0,420.0 M 410.0,400.0 A 10.0,10.0 0 0 0 420.0,410.0 M 400.0,410.0 A 10.0,10.0 0 0 1 410.0,420.0 M 430.0,400.0 A 10.0,10.0 0 0 0 440.0,410.0 M 420.0,410.0 A 10.0,10.0 0 0 1 430.0,420.0 M 450.0,400.0 A 10.0,10.0 0 0 0 460.0,410.0 M 440.0,410.0 A 10.0,10.0 0 0 1 450.0,420.0 M 490.0,400.0 A 10.0,10.0 0 0 0 500.0,410.0 M 480.0,410.0 A 10.0,10.0 0 0 1 490.0,420.0 M 510.0,400.0 A 10.0,10.0 0 0 0 520.0,410.0 M 500.0,410.0 A 10.0,10.0 0 0 1 510.0,420.0 M 550.0,400.0 A 10.0,10.0 0 0 0 560.0,410.0 M 540.0,410.0 A 10.0,10.0 0 0 1 550.0,420.0 M 30.0,420.0 A 10.0,10.0 0 0 0 40.0,430.0 M 20.0,430.0 A 10.0,10.0 0 0 1 30.0,440.0 M 50.0,420.0 A 10.0,10.0 0 0 0 60.0,430.0 M 40.0,430.0 A 10.0,10.0 0 0 1 50.0,440.0 M 90.0,420.0 A 10.0,10.0 0 0 0 100.0,430.0 M 80.0,430.0 A 10.0,10.0 0 0 1 90.0,440.0 M 110.0,420.0 A 10.0,10.0 0 0 0 120.0,430.0 M 100.0,430.0 A 10.0,10.0 0 0 1 110.0,440.0 M 190.0,420.0 A 10.0,10.0 0 0 0 200.0,430.0 M 180.0,430.0 A 10.0,10.0 0 0 1 190.0,440.0 M 210.0,420.0 A 10.0,10.0 0 0 0 220.0,430.0 M 200.0,430.0 A 10.0,10.0 0 0 1 210.0,440.0 M 230.0,420.0 A 10.0,10.0 0 0 0 240.0,430.0 M 220.0,430.0 A 10.0,10.0 0 0 1 230.0,440.0 M 250.0,420.0 A 10.0,10.0 0 0 0 260.0,430.0 M 240.0,430.0 A 10.0,10.0 0 0 1 250.0,440.0 M 270.0,420.0 A 10.0,10.0 0 0 0 280.0,430.0 M 260.0,430.0 A 10.0,10.0 0 0 1 270.0,440.0 M 290.0,420.0 A 10.0,10.0 0 0 0 300.0,430.0 M 280.0,430.0 A 10.0,10.0 0 0 1 290.0,440.0 M 310.0,420.0 A 10.0,10.0 0 0 0 320.0,430.0 M 300.0,430.0 A 10.0,10.0 0 0 1 310.0,440.0 M 330.0,420.0 A 10.0,10.0 0 0 0 340.0,430.0 M 320.0,430.0 A 10.0,10.0 0 0 1 330.0,440.0 M 370.0,420.0 A 10.0,10.0 0 0 0 380.0,430.0 M 360.0,430.0 A 10.0,10.0 0 0 1 370.0,440.0 M 390.0,420.0 A 10.0,10.0 0 0 0 400.0,430.0 M 380.0,430.0 A 10.0,10.0 0 0 1 390.0,440.0 M 410.0,420.0 A 10.0,10.0 0 0 0 420.0,430.0 M 400.0,430.0 A 10.0,10.0 0 0 1 410.0,440.0 M 530.0,420.0 A 10.0,10.0 0 0 0 540.0,430.0 M 520.0,430.0 A 10.0,10.0 0 0 1 530.0,440.0 M 570.0,420.0 A 10.0,10.0 0 0 0 580.0,430.0 M 560.0,430.0 A 10.0,10.0 0 0 1 570.0,440.0 M 590.0,420.0 A 10.0,10.0 0 0 0 600.0,430.0 M 580.0,430.0 A 10.0,10.0 0 0 1 590.0,440.0 M 610.0,420.0 A 10.0,10.0 0 0 0 620.0,430.0 M 600.0,430.0 A 10.0,10.0 0 0 1 610.0,440.0 M 30.0,440.0 A 10.0,10.0 0 0 0 40.0,450.0 M 20.0,450.0 A 10.0,10.0 0 0 1 30.0,460.0 M 150.0,440.0 A 10.0,10.0 0 0 0 160.0,450.0 M 140.0,450.0 A 10.0,10.0 0 0 1 150.0,460.0 M 190.0,440.0 A 10.0,10.0 0 0 0 200.0,450.0 M 180.0,450.0 A 10.0,10.0 0 0 1 190.0,460.0 M 230.0,440.0 A 10.0,10.0 0 0 0 240.0,450.0 M 220.0,450.0 A 10.0,10.0 0 0 1 230.0,460.0 M 250.0,440.0 A 10.0,10.0 0 0 0 260.0,450.0 M 240.0,450.0 A 10.0,10.0 0 0 1 250.0,460.0 M 310.0,440.0 A 10.0,10.0 0 0 0 320.0,450.0 M 300.0,450.0 A 10.0,10.0 0 0 1 310.0,460.0 M 330.0,440.0 A 10.0,10.0 0 0 0 340.0,450.0 M 320.0,450.0 A 10.0,10.0 0 0 1 330.0,460.0 M 350.0,440.0 A 10.0,10.0 0 0 0 360.0,450.0 M 340.0,450.0 A 10.0,10.0 0 0 1 350.0,460.0 M 390.0,440.0 A 10.0,10.0 0 0 0 400.0,450.0 M 380.0,450.0 A 10.0,10.0 0 0 1 390.0,460.0 M 410.0,440.0 A 10.0,10.0 0 0 0 420.0,450.0 M 400.0,450.0 A 10.0,10.0 0 0 1 410.0,460.0 M 430.0,440.0 A 10.0,10.0 0 0 0 440.0,450.0 M 420.0,450.0 A 10.0,10.0 0 0 1 430.0,460.0 M 470.0,440.0 A 10.0,10.0 0 0 0 480.0,450.0 M 460.0,450.0 A 10.0,10.0 0 0 1 470.0,460.0 M 490.0,440.0 A 10.0,10.0 0 0 0 500.0,450.0 M 480.0,450.0 A 10.0,10.0 0 0 1 490.0,460.0 M 510.0,440.0 A 10.0,10.0 0 0 0 520.0,450.0 M 500.0,450.0 A 10.0,10.0 0 0 1 510.0,460.0 M 590.0,440.0 A 10.0,10.0 0 0 0 600.0,450.0 M 580.0,450.0 A 10.0,10.0 0 0 1 590.0,460.0 M 30.0,460.0 A 10.0,10.0 0 0 0 40.0,470.0 M 20.0,470.0 A 10.0,10.0 0 0 1 30.0,480.0 M 50.0,460.0 A 10.0,10.0 0 0 0 60.0,470.0 M 40.0,470.0 A 10.0,10.0 0 0 1 50.0,480.0 M 70.0,460.0 A 10.0,10.0 0 0 0 80.0,470.0 M 60.0,470.0 A 10.0,10.0 0 0 1 70.0,480.0 M 90.0,460.0 A 10.0,10.0 0 0 0 100.0,470.0 M 80.0,470.0 A 10.0,10.0 0 0 1 90.0,480.0 M 110.0,460.0 A 10.0,10.0 0 0 0 120.0,470.0 M 100.0,470.0 A 10.0,10.0 0 0 1 110.0,480.0 M 190.0,460.0 A 10.0,10.0 0 0 0 200.0,470.0 M 180.0,470.0 A 10.0,10.0 0 0 1 190.0,480.0 M 210.0,460.0 A 10.0,10.0 0 0 0 220.0,470.0 M 200.0,470.0 A 10.0,10.0 0 0 1 210.0,480.0 M 230.0,460.0 A 10.0,10.0 0 0 0 240.0,470.0 M 220.0,470.0 A 10.0,10.0 0 0 1 230.0,480.0 M 290.0,460.0 A 10.0,10.0 0 0 0 300.0,470.0 M 280.0,470.0 A 10.0,10.0 0 0 1 290.0,480.0 M 310.0,460.0 A 10.0,10.0 0 0 0 320.0,470.0 M 300.0,470.0 A 10.0,10.0 0 0 1 310.0,480.0 M 330.0,460.0 A 10.0,10.0 0 0 0 340.0,470.0 M 320.0,470.0 A 10.0,10.0 0 0 1 330.0,480.0 M 470.0,460.0 A 10.0,10.0 0 0 0 480.0,470.0 M 460.0,470.0 A 10.0,10.0 0 0 1 470.0,480.0 M 610.0,460.0 A 10.0,10.0 0 0 0 620.0,470.0 M 600.0,470.0 A 10.0,10.0 0 0 1 610.0,480.0 M 50.0,480.0 A 10.0,10.0 0 0 0 60.0,490.0 M 40.0,490.0 A 10.0,10.0 0 0 1 50.0,500.0 M 70.0,480.0 A 10.0,10.0 0 0 0 80.0,490.0 M 60.0,490.0 A 10.0,10.0 0 0 1 70.0,500.0 M 150.0,480.0 A 10.0,10.0 0 0 0 160.0,490.0 M 140.0,490.0 A 10.0,10.0 0 0 1 150.0,500.0 M 190.0,480.0 A 10.0,10.0 0 0 0 200.0,490.0 M 180.0,490.0 A 10.0,10.0 0 0 1 190.0,500.0 M 210.0,480.0 A 10.0,10.0 0 0 0 220.0,490.0 M 200.0,490.0 A 10.0,10.0 0 0 1 210.0,500.0 M 290.0,480.0 A 10.0,10.0 0 0 0 300.0,490.0 M 280.0,490.0 A 10.0,10.0 0 0 1 290.0,500.0 M 310.0,480.0 A 10.0,10.0 0 0 0 320.0,490.0 M 300.0,490.0 A 10.0,10.0 0 0 1 310.0,500.0 M 330.0,480.0 A 10.0,10.0 0 0 0 340.0,490.0 M 320.0,490.0 A 10.0,10.0 0 0 1 330.0,500.0 M 350.0,480.0 A 10.0,10.0 0 0 0 360.0,490.0 M 340.0,490.0 A 10.0,10.0 0 0 1 350.0,500.0 M 390.0,480.0 A 10.0,10.0 0 0 0 400.0,490.0 M 380.0,490.0 A 10.0,10.0 0 0 1 390.0,500.0 M 470.0,480.0 A 10.0,10.0 0 0 0 480.0,490.0 M 460.0,490.0 A 10.0,10.0 0 0 1 470.0,500.0 M 490.0,480.0 A 10.0,10.0 0 0 0 500.0,490.0 M 480.0,490.0 A 10.0,10.0 0 0 1 490.0,500.0 M 570.0,480.0 A 10.0,10.0 0 0 0 580.0,490.0 M 560.0,490.0 A 10.0,10.0 0 0 1 570.0,500.0 M 590.0,480.0 A 10.0,10.0 0 0 0 600.0,490.0 M 580.0,490.0 A 10.0,10.0 0 0 1 590.0,500.0 M 30.0,500.0 A 10.0,10.0 0 0 0 40.0,510.0 M 20.0,510.0 A 10.0,10.0 0 0 1 30.0,520.0 M 70.0,500.0 A 10.0,10.0 0 0 0 80.0,510.0 M 60.0,510.0 A 10.0,10.0 0 0 1 70.0,520.0 M 90.0,500.0 A 10.0,10.0 0 0 0 100.0,510.0 M 80.0,510.0 A 10.0,10.0 0 0 1 90.0,520.0 M 130.0,500.0 A 10.0,10.0 0 0 0 140.0,510.0 M 120.0,510.0 A 10.0,10.0 0 0 1 130.0,520.0 M 170.0,500.0 A 10.0,10.0 0 0 0 180.0,510.0 M 160.0,510.0 A 10.0,10.0 0 0 1 170.0,520.0 M 190.0,500.0 A 10.0,10.0 0 0 0 200.0,510.0 M 180.0,510.0 A 10.0,10.0 0 0 1 190.0,520.0 M 210.0,500.0 A 10.0,10.0 0 0 0 220.0,510.0 M 200.0,510.0 A 10.0,10.0 0 0 1 210.0,520.0 M 230.0,500.0 A 10.0,10.0 0 0 0 240.0,510.0 M 220.0,510.0 A 10.0,10.0 0 0 1 230.0,520.0 M 290.0,500.0 A 10.0,10.0 0 0 0 300.0,510.0 M 280.0,510.0 A 10.0,10.0 0 0 1 290.0,520.0 M 350.0,500.0 A 10.0,10.0 0 0 0 360.0,510.0 M 340.0,510.0 A 10.0,10.0 0 0 1 350.0,520.0 M 390.0,500.0 A 10.0,10.0 0 0 0 400.0,510.0 M 380.0,510.0 A 10.0,10.0 0 0 1 390.0,520.0 M 450.0,500.0 A 10.0,10.0 0 0 0 460.0,510.0 M 440.0,510.0 A 10.0,10.0 0 0 1 450.0,520.0 M 490.0,500.0 A 10.0,10.0 0 0 0 500.0,510.0 M 480.0,510.0 A 10.0,10.0 0 0 1 490.0,520.0 M 510.0,500.0 A 10.0,10.0 0 0 0 520.0,510.0 M 500.0,510.0 A 10.0,10.0 0 0 1 510.0,520.0 M 550.0,500.0 A 10.0,10.0 0 0 0 560.0,510.0 M 540.0,510.0 A 10.0,10.0 0 0 1 550.0,520.0 M 610.0,500.0 A 10.0,10.0 0 0 0 620.0,510.0 M 600.0,510.0 A 10.0,10.0 0 0 1 610.0,520.0 M 30.0,520.0 A 10.0,10.0 0 0 0 40.0,530.0 M 20.0,530.0 A 10.0,10.0 0 0 1 30.0,540.0 M 90.0,520.0 A 10.0,10.0 0 0 0 100.0,530.0 M 80.0,530.0 A 10.0,10.0 0 0 1 90.0,540.0 M 190.0,520.0 A 10.0,10.0 0 0 0 200.0,530.0 M 180.0,530.0 A 10.0,10.0 0 0 1 190.0,540.0 M 270.0,520.0 A 10.0,10.0 0 0 0 280.0,530.0 M 260.0,530.0 A 10.0,10.0 0 0 1 270.0,540.0 M 290.0,520.0 A 10.0,10.0 0 0 0 300.0,530.0 M 280.0,530.0 A 10.0,10.0 0 0 1 290.0,540.0 M 310.0,520.0 A 10.0,10.0 0 0 0 320.0,530.0 M 300.0,530.0 A 10.0,10.0 0 0 1 310.0,540.0 M 390.0,520.0 A 10.0,10.0 0 0 0 400.0,530.0 M 380.0,530.0 A 10.0,10.0 0 0 1 390.0,540.0 M 450.0,520.0 A 10.0,10.0 0 0 0 460.0,530.0 M 440.0,530.0 A 10.0,10.0 0 0 1 450.0,540.0 M 490.0,520.0 A 10.0,10.0 0 0 0 500.0,530.0 M 480.0,530.0 A 10.0,10.0 0 0 1 490.0,540.0 M 510.0,520.0 A 10.0,10.0 0 0 0 520.0,530.0 M 500.0,530.0 A 10.0,10.0 0 0 1 510.0,540.0 M 530.0,520.0 A 10.0,10.0 0 0 0 540.0,530.0 M 520.0,530.0 A 10.0,10.0 0 0 1 530.0,540.0 M 550.0,520.0 A 10.0,10.0 0 0 0 560.0,530.0 M 540.0,530.0 A 10.0,10.0 0 0 1 550.0,540.0 M 570.0,520.0 A 10.0,10.0 0 0 0 580.0,530.0 M 560.0,530.0 A 10.0,10.0 0 0 1 570.0,540.0 M 70.0,540.0 A 10.0,10.0 0 0 0 80.0,550.0 M 60.0,550.0 A 10.0,10.0 0 0 1 70.0,560.0 M 110.0,540.0 A 10.0,10.0 0 0 0 120.0,550.0 M 100.0,550.0 A 10.0,10.0 0 0 1 110.0,560.0 M 130.0,540.0 A 10.0,10.0 0 0 0 140.0,550.0 M 120.0,550.0 A 10.0,10.0 0 0 1 130.0,560.0 M 190.0,540.0 A 10.0,10.0 0 0 0 200.0,550.0 M 180.0,550.0 A 10.0,10.0 0 0 1 190.0,560.0 M 210.0,540.0 A 10.0,10.0 0 0 0 220.0,550.0 M 200.0,550.0 A 10.0,10.0 0 0 1 210.0,560.0 M 230.0,540.0 A 10.0,10.0 0 0 0 240.0,550.0 M 220.0,550.0 A 10.0,10.0 0 0 1 230.0,560.0 M 250.0,540.0 A 10.0,10.0 0 0 0 260.0,550.0 M 240.0,550.0 A 10.0,10.0 0 0 1 250.0,560.0 M 310.0,540.0 A 10.0,10.0 0 0 0 320.0,550.0 M 300.0,550.0 A 10.0,10.0 0 0 1 310.0,560.0 M 350.0,540.0 A 10.0,10.0 0 0 0 360.0,550.0 M 340.0,550.0 A 10.0,10.0 0 0 1 350.0,560.0 M 370.0,540.0 A 10.0,10.0 0 0 0 380.0,550.0 M 360.0,550.0 A 10.0,10.0 0 0 1 370.0,560.0 M 410.0,540.0 A 10.0,10.0 0 0 0 420.0,550.0 M 400.0,550.0 A 10.0,10.0 0 0 1 410.0,560.0 M 430.0,540.0 A 10.0,10.0 0 0 0 440.0,550.0 M 420.0,550.0 A 10.0,10.0 0 0 1 430.0,560.0 M 450.0,540.0 A 10.0,10.0 0 0 0 460.0,550.0 M 440.0,550.0 A 10.0,10.0 0 0 1 450.0,560.0 M 490.0,540.0 A 10.0,10.0 0 0 0 500.0,550.0 M 480.0,550.0 A 10.0,10.0 0 0 1 490.0,560.0 M 530.0,540.0 A 10.0,10.0 0 0 0 540.0,550.0 M 520.0,550.0 A 10.0,10.0 0 0 1 530.0,560.0 M 570.0,540.0 A 10.0,10.0 0 0 0 580.0,550.0 M 560.0,550.0 A 10.0,10.0 0 0 1 570.0,560.0 M 610.0,540.0 A 10.0,10.0 0 0 0 620.0,550.0 M 600.0,550.0 A 10.0,10.0 0 0 1 610.0,560.0 M 70.0,560.0 A 10.0,10.0 0 0 0 80.0,570.0 M 60.0,570.0 A 10.0,10.0 0 0 1 70.0,580.0 M 130.0,560.0 A 10.0,10.0 0 0 0 140.0,570.0 M 120.0,570.0 A 10.0,10.0 0 0 1 130.0,580.0 M 150.0,560.0 A 10.0,10.0 0 0 0 160.0,570.0 M 140.0,570.0 A 10.0,10.0 0 0 1 150.0,580.0 M 170.0,560.0 A 10.0,10.0 0 0 0 180.0,570.0 M 160.0,570.0 A 10.0,10.0 0 0 1 170.0,580.0 M 190.0,560.0 A 10.0,10.0 0 0 0 200.0,570.0 M 180.0,570.0 A 10.0,10.0 0 0 1 190.0,580.0 M 230.0,560.0 A 10.0,10.0 0 0 0 240.0,570.0 M 220.0,570.0 A 10.0,10.0 0 0 1 230.0,580.0 M 250.0,560.0 A 10.0,10.0 0 0 0 260.0,570.0 M 240.0,570.0 A 10.0,10.0 0 0 1 250.0,580.0 M 270.0,560.0 A 10.0,10.0 0 0 0 280.0,570.0 M 260.0,570.0 A 10.0,10.0 0 0 1 270.0,580.0 M 290.0,560.0 A 10.0,10.0 0 0 0 300.0,570.0 M 280.0,570.0 A 10.0,10.0 0 0 1 290.0,580.0 M 410.0,560.0 A 10.0,10.0 0 0 0 420.0,570.0 M 400.0,570.0 A 10.0,10.0 0 0 1 410.0,580.0 M 430.0,560.0 A 10.0,10.0 0 0 0 440.0,570.0 M 420.0,570.0 A 10.0,10.0 0 0 1 430.0,580.0 M 450.0,560.0 A 10.0,10.0 0 0 0 460.0,570.0 M 440.0,570.0 A 10.0,10.0 0 0 1 450.0,580.0 M 470.0,560.0 A 10.0,10.0 0 0 0 480.0,570.0 M 460.0,570.0 A 10.0,10.0 0 0 1 470.0,580.0 M 490.0,560.0 A 10.0,10.0 0 0 0 500.0,570.0 M 480.0,570.0 A 10.0,10.0 0 0 1 490.0,580.0 M 510.0,560.0 A 10.0,10.0 0 0 0 520.0,570.0 M 500.0,570.0 A 10.0,10.0 0 0 1 510.0,580.0 M 550.0,560.0 A 10.0,10.0 0 0 0 560.0,570.0 M 540.0,570.0 A 10.0,10.0 0 0 1 550.0,580.0 M 610.0,560.0 A 10.0,10.0 0 0 0 620.0,570.0 M 600.0,570.0 A 10.0,10.0 0 0 1 610.0,580.0 M 70.0,580.0 A 10.0,10.0 0 0 0 80.0,590.0 M 60.0,590.0 A 10.0,10.0 0 0 1 70.0,600.0 M 90.0,580.0 A 10.0,10.0 0 0 0 100.0,590.0 M 80.0,590.0 A 10.0,10.0 0 0 1 90.0,600.0 M 110.0,580.0 A 10.0,10.0 0 0 0 120.0,590.0 M 100.0,590.0 A 10.0,10.0 0 0 1 110.0,600.0 M 130.0,580.0 A 10.0,10.0 0 0 0 140.0,590.0 M 120.0,590.0 A 10.0,10.0 0 0 1 130.0,600.0 M 190.0,580.0 A 10.0,10.0 0 0 0 200.0,590.0 M 180.0,590.0 A 10.0,10.0 0 0 1 190.0,600.0 M 250.0,580.0 A 10.0,10.0 0 0 0 260.0,590.0 M 240.0,590.0 A 10.0,10.0 0 0 1 250.0,600.0 M 310.0,580.0 A 10.0,10.0 0 0 0 320.0,590.0 M 300.0,590.0 A 10.0,10.0 0 0 1 310.0,600.0 M 330.0,580.0 A 10.0,10.0 0 0 0 340.0,590.0 M 320.0,590.0 A 10.0,10.0 0 0 1 330.0,600.0 M 370.0,580.0 A 10.0,10.0 0 0 0 380.0,590.0 M 360.0,590.0 A 10.0,10.0 0 0 1 370.0,600.0 M 430.0,580.0 A 10.0,10.0 0 0 0 440.0,590.0 M 420.0,590.0 A 10.0,10.0 0 0 1 430.0,600.0 M 510.0,580.0 A 10.0,10.0 0 0 0 520.0,590.0 M 500.0,590.0 A 10.0,10.0 0 0 1 510.0,600.0 M 530.0,580.0 A 10.0,10.0 0 0 0 540.0,590.0 M 520.0,590.0 A 10.0,10.0 0 0 1 530.0,600.0 M 550.0,580.0 A 10.0,10.0 0 0 0 560.0,590.0 M 540.0,590.0 A 10.0,10.0 0 0 1 550.0,600.0 M 30.0,600.0 A 10.0,10.0 0 0 0 40.0,610.0 M 20.0,610.0 A 10.0,10.0 0 0 1 30.0,620.0 M 50.0,600.0 A 10.0,10.0 0 0 0 60.0,610.0 M 40.0,610.0 A 10.0,10.0 0 0 1 50.0,620.0 M 110.0,600.0 A 10.0,10.0 0 0 0 120.0,610.0 M 100.0,610.0 A 10.0,10.0 0 0 1 110.0,620.0 M 130.0,600.0 A 10.0,10.0 0 0 0 140.0,610.0 M 120.0,610.0 A 10.0,10.0 0 0 1 130.0,620.0 M 150.0,600.0 A 10.0,10.0 0 0 0 160.0,610.0 M 140.0,610.0 A 10.0,10.0 0 0 1 150.0,620.0 M 170.0,600.0 A 10.0,10.0 0 0 0 180.0,610.0 M 160.0,610.0 A 10.0,10.0 0 0 1 170.0,620.0 M 190.0,600.0 A 10.0,10.0 0 0 0 200.0,610.0 M 180.0,610.0 A 10.0,10.0 0 0 1 190.0,620.0 M 210.0,600.0 A 10.0,10.0 0 0 0 220.0,610.0 M 200.0,610.0 A 10.0,10.0 0 0 1 210.0,620.0 M 230.0,600.0 A 10.0,10.0 0 0 0 240.0,610.0 M 220.0,610.0 A 10.0,10.0 0 0 1 230.0,620.0 M 270.0,600.0 A 10.0,10.0 0 0 0 280.0,610.0 M 260.0,610.0 A 10.0,10.0 0 0 1 270.0,620.0 M 390.0,600.0 A 10.0,10.0 0 0 0 400.0,610.0 M 380.0,610.0 A 10.0,10.0 0 0 1 390.0,620.0 M 430.0,600.0 A 10.0,10.0 0 0 0 440.0,610.0 M 420.0,610.0 A 10.0,10.0 0 0 1 430.0,620.0 M 470.0,600.0 A 10.0,10.0 0 0 0 480.0,610.0 M 460.0,610.0 A 10.0,10.0 0 0 1 470.0,620.0 M 490.0,600.0 A 10.0,10.0 0 0 0 500.0,610.0 M 480.0,610.0 A 10.0,10.0 0 0 1 490.0,620.0 M 570.0,600.0 A 10.0,10.0 0 0 0 580.0,610.0 M 560.0,610.0 A 10.0,10.0 0 0 1 570.0,620.0" fill="none" stroke="#7c3030" stroke-width="3.6" stroke-linecap="round"/>
</svg>