<svg xmlns="http://www.w3.org/2000/svg" viewBox="0 0 238 238" width="238" height="238">
  <rect width="238" height="238" fill="#f5f0e6"/>
  <path d="M 35.0,14.0 A 7.0,7.0 0 0 1 28.0,21.0 M 42.0,21.0 A 7.0,7.0 0 0 0 35.0,28.0 M 63.0,14.0 A 7.0,7.0 0 0 1 56.0,21.0 M 70.0,21.0 A 7.0,7.0 0 0 0 63.0,28.0 M 77.0,14.0 A 7.0,7.0 0 0 1 70.0,21.0 M 84.0,21.0 A 7.0,7.0 0 0 0 77.0,28.0 M 91.0,14.0 A 7.0,7.0 0 0 1 84.0,21.0 M 98.0,21.0 A 7.0,7.0 0 0 0 91.0,28.0 M 119.0,14.0 A 7.0,7.0 0 0 1 112.0,21.0 M 126.0,21.0 A 7.0,7.0 0 0 0 119.0,28.0 M 133.0,14.0 A 7.0,7.0 0 0 1 126.0,21.0 M 140.0,21.0 A 7.0,7.0 0 0 0 133.0,28.0 M 147.0,14.0 A 7.0,7.0 0 0 1 140.0,21.0 M 154.0,21.0 A 7.0,7.0 0 0 0 147.0,28.0 M 161.0,14.0 A 7.0,7.0 0 0 1 154.0,21.0 M 168.0,21.0 A 7.0,7.0 0 0 0 161.0,28.0 M 203.0,14.0 A 7.0,7.0 0 0 1 196.0,21.0 M 210.0,21.0 A 7.0,7.0 0 0 0 203.0,28.0 M 217.0,14.0 A 7.0,7.0 0 0 1 210.0,21.0 M 224.0,21.0 A 7.0,7.0 0 0 0 217.0,28.0 M 21.0,28.0 A 7.0,7.0 0 0 1 14.0,35.0 M 28.0,35.0 A 7.0,7.0 0 0 0 21.0,42.0 M 49.0,28.0 A 7.0,7.0 0 0 1 42.0,35.0 M 56.0,35.0 A 7.0,7.0 0 0 0 49.0,42.0 M 63.0,28.0 A 7.0,7.0 0 0 1 56.0,35.0 M 70.0,35.0 A 7.0,7.0 0 0 0 63.0,42.0 M 77.0,28.0 A 7.0,7.0 0 0 1 70.0,35.0 M 84.0,35.0 A 7.0,7.0 0 0 0 77.0,42.0 M 91.0,28.0 A 7.0,7.0 0 0 1 84.0,35.0 M 98.0,35.0 A 7.0,7.0 0 0 0 91.0,42.0 M 119.0,28.0 A 7.0,7.0 0 0 1 112.0,35.0 M 126.0,35.0 A 7.0,7.0 0 0 0 119.0,42.0 M 133.0,28.0 A 7.0,7.0 0 0 1 126.0,35.0 M 140.0,35.0 A 7.0,7.0 0 0 0 133.0,42.0 M 147.0,28.0 A 7.0,7.0 0 0 1 140.0,35.0 M 154.0,35.0 A 7.0,7.0 0 0 0 147.0,42.0 M 161.0,28.0 A 7.0,7.0 0 0 1 154.0,35.0 M 168.0,35.0 A 7.0,7.0 0 0 0 161.0,42.0 M 203.0,28.0 A 7.0,7.0 0 0 1 196.0,35.0 M 210.0,35.0 A 7.0,7.0 0 0 0 203.0,42.0 M 217.0,28.0 A 7.0,7.0 0 0 1 210.0,35.0 M 224.0,35.0 A 7.0,7.0 0 0 0 217.0,42.0 M 35.0,42.0 A 7.0,7.0 0 0 1 28.0,49.0 M 42.0,49.0 A 7.0,7.0 0 0 0 35.0,56.0 M 49.0,42.0 A 7.0,7.0 0 0 1 42.0,49.0 M 56.0,49.0 A 7.0,7.0 0 0 0 49.0,56.0 M 63.0,42.0 A 7.0,7.0 0 0 1 56.0,49.0 M 70.0,49.0 A 7.0,7.0 0 0 0 63.0,56.0 M 91.0,42.0 A 7.0,7.0 0 0 1 84.0,49.0 M 98.0,49.0 A 7.0,7.0 0 0 0 91.0,56.0 M 105.0,42.0 A 7.0,7.0 0 0 1 98.0,49.0 M 112.0,49.0 A 7.0,7.0 0 0 0 105.0,56.0 M 119.0,42.0 A 7.0,7.0 0 0 1 112.0,49.0 M 126.0,49.0 A 7.0,7.0 0 0 0 119.0,56.0 M 133.0,42.0 A 7.0,7.0 0 0 1 126.0,49.0 M 140.0,49.0 A 7.0,7.0 0 0 0 133.0,56.0 M 35.0,56.0 A 7.0,7.0 0 0 1 28.0,63.0 M 42.0,63.0 A 7.0,7.0 0 0 0 35.0,70.0 M 49.0,56.0 A 7.0,7.0 0 0 1 42.0,63.0 M 56.0,63.0 A 7.0,7.0 0 0 0 49.0,70.0 M 63.0,56.0 A 7.0,7.0 0 0 1 56.0,63.0 M 70.0,63.0 A 7.0,7.0 0 0 0 63.0,70.0 M 77.0,56.0 A 7.0,7.0 0 0 1 70.0,63.0 M 84.0,63.0 A 7.0,7.0 0 0 0 77.0,70.0 M 161.0,56.0 A 7.0,7.0 0 0 1 154.0,63.0 M 168.0,63.0 A 7.0,7.0 0 0 0 161.0,70.0 M 175.0,56.0 A 7.0,7.0 0 0 1 168.0,63.0 M 182.0,63.0 A 7.0,7.0 0 0 0 175.0,70.0 M 203.0,56.0 A 7.0,7.0 0 0 1 196.0,63.0 M 210.0,63.0 A 7.0,7.0 0 0 0 203.0,70.0 M 21.0,70.0 A 7.0,7.0 0 0 1 14.0,77.0 M 28.0,77.0 A 7.0,7.0 0 0 0 21.0,84.0 M 63.0,70.0 A 7.0,7.0 0 0 1 56.0,77.0 M 70.0,77.0 A 7.0,7.0 0 0 0 63.0,84.0 M 77.0,70.0 A 7.0,7.0 0 0 1 70.0,77.0 M 84.0,77.0 A 7.0,7.0 0 0 0 77.0,84.0 M 161.0,70.0 A 7.0,7.0 0 0 1 154.0,77.0 M 168.0,77.0 A 7.0,7.0 0 0 0 161.0,84.0 M 175.0,70.0 A 7.0,7.0 0 0 1 168.0,77.0 M 182.0,77.0 A 7.0,7.0 0 0 0 175.0,84.0 M 217.0,70.0 A 7.0,7.0 0 0 1 210.0,77.0 M 224.0,77.0 A 7.0,7.0 0 0 0 217.0,84.0 M 21.0,84.0 A 7.0,7.0 0 0 1 14.0,91.0 M 28.0,91.0 A 7.0,7.0 0 0 0 21.0,98.0 M 105.0,84.0 A 7.0,7.0 0 0 1 98.0,91.0 M 112.0,91.0 A 7.0,7.0 0 0 0 105.0,98.0 M 147.0,84.0 A 7.0,7.0 0 0 1 140.0,91.0 M 154.0,91.0 A 7.0,7.0 0 0 0 147.0,98.0 M 161.0,84.0 A 7.0,7.0 0 0 1 154.0,91.0 M 168.0,91.0 A 7.0,7.0 0 0 0 161.0,98.0 M 189.0,84.0 A 7.0,7.0 0 0 1 182.0,91.0 M 196.0,91.0 A 7.0,7.0 0 0 0 189.0,98.0 M 203.0,84.0 A 7.0,7.0 0 0 1 196.0,91.0 M 210.0,91.0 A 7.0,7.0 0 0 0 203.0,98.0 M 21.0,98.0 A 7.0,7.0 0 0 1 14.0,105.0 M 28.0,105.0 A 7.0,7.0 0 0 0 21.0,112.0 M 35.0,98.0 A 7.0,7.0 0 0 1 28.0,105.0 M 42.0,105.0 A 7.0,7.0 0 0 0 35.0,112.0 M 91.0,98.0 A 7.0,7.0 0 0 1 84.0,105.0 M 98.0,105.0 A 7.0,7.0 0 0 0 91.0,112.0 M 105.0,98.0 A 7.0,7.0 0 0 1 98.0,105.0 M 112.0,105.0 A 7.0,7.0 0 0 0 105.0,112.0 M 161.0,98.0 A 7.0,7.0 0 0 1 154.0,105.0 M 168.0,105.0 A 7.0,7.0 0 0 0 161.0,112.0 M 35.0,112.0 A 7.0,7.0 0 0 1 28.0,119.0 M 42.0,119.0 A 7.0,7.0 0 0 0 35.0,126.0 M 49.0,112.0 A 7.0,7.0 0 0 1 42.0,119.0 M 56.0,119.0 A 7.0,7.0 0 0 0 49.0,126.0 M 63.0,112.0 A 7.0,7.0 0 0 1 56.0,119.0 M 70.0,119.0 A 7.0,7.0 0 0 0 63.0,126.0 M 77.0,112.0 A 7.0,7.0 0 0 1 70.0,119.0 M 84.0,119.0 A 7.0,7.0 0 0 0 77.0,126.0 M 91.0,112.0 A 7.0,7.0 0 0 1 84.0,119.0 M 98.0,119.0 A 7.0,7.0 0 0 0 91.0,126.0 M 105.0,112.0 A 7.0,7.0 0 0 1 98.0,119.0 M 112.0,119.0 A 7.0,7.0 0 0 0 105.0,126.0 M 119.0,112.0 A 7.0,7.0 0 0 1 112.0,119.0 M 126.0,119.0 A 7.0,7.0 0 0 0 119.0,126.0 M 133.0,112.0 A 7.0,7.0 0 0 1 126.0,119.0 M 140.0,119.0 A 7.0,7.0 0 0 0 133.0,126.0 M 161.0,112.0 A 7.0,7.0 0 0 1 154.0,119.0 M 168.0,119.0 A 7.0,7.0 0 0 0 161.0,126.0 M 203.0,112.0 A 7.0,7.0 0 0 1 196.0,119.0 M 210.0,119.0 A 7.0,7.0 0 0 0 203.0,126.0 M 217.0,112.0 A 7.0,7.0 0 0 1 210.0,119.0 M 224.0,119.0 A 7.0,7.0 0 0 0 217.0,126.0 M 63.0,126.0 A 7.0,7.0 0 0 1 56.0,133.0 M 70.0,133.0 A 7.0,7.0 0 0 0 63.0,140.0 M 77.0,126.0 A 7.0,7.0 0 0 1 70.0,133.0 M 84.0,133.0 A 7.0,7.0 0 0 0 77.0,140.0 M 161.0,126.0 A 7.0,7.0 0 0 1 154.0,133.0 M 168.0,133.0 A 7.0,7.0 0 0 0 161.0,140.0 M 203.0,126.0 A 7.0,7.0 0 0 1 196.0,133.0 M 210.0,133.0 A 7.0,7.0 0 0 0 203.0,140.0 M 217.0,126.0 A 7.0,7.0 0 0 1 210.0,133.0 M 224.0,133.0 A 7.0,7.0 0 0 0 217.0,140.0 M 21.0,140.0 A 7.0,7.0 0 0 1 14.0,147.0 M 28.0,147.0 A 7.0,7.0 0 0 0 21.0,154.0 M 35.0,140.0 A 7.0,7.0 0 0 1 28.0,147.0 M 42.0,147.0 A 7.0,7.0 0 0 0 35.0,154.0 M 63.0,140.0 A 7.0,7.0 0 0 1 56.0,147.0 M 70.0,147.0 A 7.0,7.0 0 0 0 63.0,154.0 M 77.0,140.0 A 7.0,7.0 0 0 1 70.0,147.0 M 84.0,147.0 A 7.0,7.0 0 0 0 77.0,154.0 M 105.0,140.0 A 7.0,7.0 0 0 1 98.0,147.0 M 112.0,147.0 A 7.0,7.0 0 0 0 105.0,154.0 M 119.0,140.0 A 7.0,7.0 0 0 1 112.0,147.0 M 126.0,147.0 A 7.0,7.0 0 0 0 119.0,154.0 M 133.0,140.0 A 7.0,7.0 0 0 1 126.0,147.0 M 140.0,147.0 A 7.0,7.0 0 0 0 133.0,154.0 M 147.0,140.0 A 7.0,7.0 0 0 1 140.0,147.0 M 154.0,147.0 A 7.0,7.0 0 0 0 147.0,154.0 M 161.0,140.0 A 7.0,7.0 0 0 1 154.0,147.0 M 168.0,147.0 A 7.0,7.0 0 0 0 161.0,154.0 M 189.0,140.0 A 7.0,7.0 0 0 1 182.0,147.0 M 196.0,147.0 A 7.0,7.0 0 0 0 189.0,154.0 M 203.0,140.0 A 7.0,7.0 0 0 1 196.0,147.0 M 210.0,147.0 A 7.0,7.0 0 0 0 203.0,154.0 M 217.0,140.0 A 7.0,7.0 0 0 1 210.0,147.0 M 224.0,147.0 A 7.0,7.0 0 0 0 217.0,154.0 M 35.0,154.0 A 7.0,7.0 0 0 1 28.0,161.0 M 42.0,161.0 A 7.0,7.0 0 0 0 35.0,168.0 M 105.0,154.0 A 7.0,7.0 0 0 1 98.0,161.0 M 112.0,161.0 A 7.0,7.0 0 0 0 105.0,168.0 M 119.0,154.0 A 7.0,7.0 0 0 1 112.0,161.0 M 126.0,161.0 A 7.0,7.0 0 0 0 119.0,168.0 M 203.0,154.0 A 7.0,7.0 0 0 1 196.0,161.0 M 210.0,161.0 A 7.0,7.0 0 0 0 203.0,168.0 M 217.0,154.0 A 7.0,7.0 0 0 1 210.0,161.0 M 224.0,161.0 A 7.0,7.0 0 0 0 217.0,168.0 M 21.0,168.0 A 7.0,7.0 0 0 1 14.0,175.0 M 28.0,175.0 A 7.0,7.0 0 0 0 21.0,182.0 M 77.0,168.0 A 7.0,7.0 0 0 1 70.0,175.0 M 84.0,175.0 A 7.0,7.0 0 0 0 77.0,182.0 M 91.0,168.0 A 7.0,7.0 0 0 1 84.0,175.0 M 98.0,175.0 A 7.0,7.0 0 0 0 91.0,182.0 M 105.0,168.0 A 7.0,7.0 0 0 1 98.0,175.0 M 112.0,175.0 A 7.0,7.0 0 0 0 105.0,182.0 M 133.0,168.0 A 7.0,7.0 0 0 1 126.0,175.0 M 140.0,175.0 A 7.0,7.0 0 0 0 133.0,182.0 M 147.0,168.0 A 7.0,7.0 0 0 1 140.0,175.0 M 154.0,175.0 A 7.0,7.0 0 0 0 147.0,182.0 M 175.0,168.0 A 7.0,7.0 0 0 1 168.0,175.0 M 182.0,175.0 A 7.0,7.0 0 0 0 175.0,182.0 M 217.0,168.0 A 7.0,7.0 0 0 1 210.0,175.0 M 224.0,175.0 A 7.0,7.0 0 0 0 217.0,182.0 M 35.0,182.0 A 7.0,7.0 0 0 1 28.0,189.0 M 42.0,189.0 A 7.0,7.0 0 0 0 35.0,196.0 M 63.0,182.0 A 7.0,7.0 0 0 1 56.0,189.0 M 70.0,189.0 A 7.0,7.0 0 0 0 63.0,196.0 M 77.0,182.0 A 7.0,7.0 0 0 1 70.0,189.0 M 84.0,189.0 A 7.0,7.0 0 0 0 77.0,196.0 M 91.0,182.0 A 7.0,7.0 0 0 1 84.0,189.0 M 98.0,189.0 A 7.0,7.0 0 0 0 91.0,196.0 M 119.0,182.0 A 7.0,7.0 0 0 1 112.0,189.0 M 126.0,189.0 A 7.0,7.0 0 0 0 119.0,196.0 M 133.0,182.0 A 7.0,7.0 0 0 1 126.0,189.0 M 140.0,189.0 A 7.0,7.0 0 0 0 133.0,196.0 M 175.0,182.0 A 7.0,7.0 0 0 1 168.0,189.0 M 182.0,189.0 A 7.0,7.0 0 0 0 175.0,196.0 M 189.0,182.0 A 7.0,7.0 0 0 1 182.0,189.0 M 196.0,189.0 A 7.0,7.0 0 0 0 189.0,196.0 M 35.0,196.0 A 7.0,7.0 0 0 1 28.0,203.0 M 42.0,203.0 A 7.0,7.0 0 0 0 35.0,210.0 M 105.0,196.0 A 7.0,7.0 0 0 1 98.0,203.0 M 112.0,203.0 A 7.0,7.0 0 0 0 105.0,210.0 M 119.0,196.0 A 7.0,7.0 0 0 1 112.0,203.0 M 126.0,203.0 A 7.0,7.0 0 0 0 119.0,210.0 M 133.0,196.0 A 7.0,7.0 0 0 1 126.0,203.0 M 140.0,203.0 A 7.0,7.0 0 0 0 133.0,210.0 M 147.0,196.0 A 7.0,7.0 0 0 1 140.0,203.0 M 154.0,203.0 A 7.0,7.0 0 0 0 147.0,210.0 M 175.0,196.0 A 7.0,7.0 0 0 1 168.0,203.0 M 182.0,203.0 A 7.0,7.0 0 0 0 175.0,210.0 M 203.0,196.0 A 7.0,7.0 0 0 1 196.0,203.0 M 210.0,203.0 A 7.0,7.0 0 0 0 203.0,210.0 M 21.0,210.0 A 7.0,7.0 0 0 1 14.0,217.0 M 28.0,217.0 A 7.0,7.0 0 0 0 21.0,224.0 M 63.0,210.0 A 7.0,7.0 0 0 1 56.0,217.0 M 70.0,217.0 A 7.0,7.0 0 0 0 63.0,224.0 M 77.0,210.0 A 7.0,7.0 0 0 1 70.0,217.0 M 84.0,217.0 A 7.0,7.0 0 0 0 77.0,224.0 M 105.0,210.0 A 7.0,7.0 0 0 1 98.0,217.0 M 112.0,217.0 A 7.0,7.0 0 0 0 105.0,224.0 M 133.0,210.0 A 7.0,7.0 0 0 1 126.0,217.0 M 140.0,217.0 A 7.0,7.0 0 0 0 133.0,224.0 M 175.0,210.0 A 7.0,7.0 0 0 1 168.0,217.0 M 182.0,217.0 A 7.0,7.0 0 0 0 175.0,224.0" fill="none" stroke="#1e1b4b" stroke-width="2.52" stroke-linecap="round"/>
  <path d="M 21.0,14.0 A 7.0,7.0 0 0 0 28.0,21.0 M 14.0,21.0 A 7.0,7.0 0 0 1 21.0,28.0 M 49.0,14.0 A 7.0,7.0 0 0 0 56.0,21.0 M 42.0,21.0 A 7.0,7.0 0 0 1 49.0,28.0 M 105.0,14.0 A 7.0,7.0 0 0 0 112.0,21.0 M 98.0,21.0 A 7.0,7.0 0 0 1 105.0,28.0 M 175.0,14.0 A 7.0,7.0 0 0 0 182.0,21.0 M 168.0,21.0 A 7.0,7.0 0 0 1 175.0,28.0 M 189.0,14.0 A 7.0,7.0 0 0 0 196.0,21.0 M 182.0,21.0 A 7.0,7.0 0 0 1 189.0,28.0 M 35.0,28.0 A 7.0,7.0 0 0 0 42.0,35.0 M 28.0,35.0 A 7.0,7.0 0 0 1 35.0,42.0 M 105.0,28.0 A 7.0,7.0 0 0 0 112.0,35.0 M 98.0,35.0 A 7.0,7.0 0 0 1 105.0,42.0 M 175.0,28.0 A 7.0,7.0 0 0 0 182.0,35.0 M 168.0,35.0 A 7.0,7.0 0 0 1 175.0,42.0 M 189.0,28.0 A 7.0,7.0 0 0 0 196.0,35.0 M 182.0,35.0 A 7.0,7.0 0 0 1 189.0,42.0 M 21.0,42.0 A 7.0,7.0 0 0 0 28.0,49.0 M 14.0,49.0 A 7.0,7.0 0 0 1 21.0,56.0 M 77.0,42.0 A 7.0,7.0 0 0 0 84.0,49.0 M 70.0,49.0 A 7.0,7.0 0 0 1 77.0,56.0 M 147.0,42.0 A 7.0,7.0 0 0 0 154.0,49.0 M 140.0,49.0 A 7.0,7.0 0 0 1 147.0,56.0 M 161.0,42.0 A 7.0,7.0 0 0 0 168.0,49.0 M 154.0,49.0 A 7.0,7.0 0 0 1 161.0,56.0 M 175.0,42.0 A 7.0,7.0 0 0 0 182.0,49.0 M 168.0,49.0 A 7.0,7.0 0 0 1 175.0,56.0 M 189.0,42.0 A 7.0,7.0 0 0 0 196.0,49.0 M 182.0,49.0 A 7.0,7.0 0 0 1 189.0,56.0 M 203.0,42.0 A 7.0,7.0 0 0 0 210.0,49.0 M 196.0,49.0 A 7.0,7.0 0 0 1 203.0,56.0 M 217.0,42.0 A 7.0,7.0 0 0 0 224.0,49.0 M 210.0,49.0 A 7.0,7.0 0 0 1 217.0,56.0 M 21.0,56.0 A 7.0,7.0 0 0 0 28.0,63.0 M 14.0,63.0 A 7.0,7.0 0 0 1 21.0,70.0 M 91.0,56.0 A 7.0,7.0 0 0 0 98.0,63.0 M 84.0,63.0 A 7.0,7.0 0 0 1 91.0,70.0 M 105.0,56.0 A 7.0,7.0 0 0 0 112.0,63.0 M 98.0,63.0 A 7.0,7.0 0 0 1 105.0,70.0 M 119.0,56.0 A 7.0,7.0 0 0 0 126.0,63.0 M 112.0,63.0 A 7.0,7.0 0 0 1 119.0,70.0 M 133.0,56.0 A 7.0,7.0 0 0 0 140.0,63.0 M 126.0,63.0 A 7.0,7.0 0 0 1 133.0,70.0 M 147.0,56.0 A 7.0,7.0 0 0 0 154.0,63.0 M 140.0,63.0 A 7.0,7.0 0 0 1 147.0,70.0 M 189.0,56.0 A 7.0,7.0 0 0 0 196.0,63.0 M 182.0,63.0 A 7.0,7.0 0 0 1 189.0,70.0 M 217.0,56.0 A 7.0,7.0 0 0 0 224.0,63.0 M 210.0,63.0 A 7.0,7.0 0 0 1 217.0,70.0 M 35.0,70.0 A 7.0,7.0 0 0 0 42.0,77.0 M 28.0,77.0 A 7.0,7.0 0 0 1 35.0,84.0 M 49.0,70.0 A 7.0,7.0 0 0 0 56.0,77.0 M 42.0,77.0 A 7.0,7.0 0 0 1 49.0,84.0 M 91.0,70.0 A 7.0,7.0 0 0 0 98.0,77.0 M 84.0,77.0 A 7.0,7.0 0 0 1 91.0,84.0 M 105.0,70.0 A 7.0,7.0 0 0 0 112.0,77.0 M 98.0,77.0 A 7.0,7.0 0 0 1 105.0,84.0 M 119.0,70.0 A 7.0,7.0 0 0 0 126.0,77.0 M 112.0,77.0 A 7.0,7.0 0 0 1 119.0,84.0 M 133.0,70.0 A 7.0,7.0 0 0 0 140.0,77.0 M 126.0,77.0 A 7.0,7.0 0 0 1 133.0,84.0 M 147.0,70.0 A 7.0,7.0 0 0 0 154.0,77.0 M 140.0,77.0 A 7.0,7.0 0 0 1 147.0,84.0 M 189.0,70.0 A 7.0,7.0 0 0 0 196.0,77.0 M 182.0,77.0 A 7.0,7.0 0 0 1 189.0,84.0 M 203.0,70.0 A 7.0,7.0 0 0 0 210.0,77.0 M 196.0,77.0 A 7.0,7.0 0 0 1 203.0,84.0 M 35.0,84.0 A 7.0,7.0 0 0 0 42.0,91.0 M 28.0,91.0 A 7.0,7.0 0 0 1 35.0,98.0 M 49.0,84.0 A 7.0,7.0 0 0 0 56.0,91.0 M 42.0,91.0 A 7.0,7.0 0 0 1 49.0,98.0 M 63.0,84.0 A 7.0,7.0 0 0 0 70.0,91.0 M 56.0,91.0 A 7.0,7.0 0 0 1 63.0,98.0 M 77.0,84.0 A 7.0,7.0 0 0 0 84.0,91.0 M 70.0,91.0 A 7.0,7.0 0 0 1 77.0,98.0 M 91.0,84.0 A 7.0,7.0 0 0 0 98.0,91.0 M 84.0,91.0 A 7.0,7.0 0 0 1 91.0,98.0 M 119.0,84.0 A 7.0,7.0 0 0 0 126.0,91.0 M 112.0,91.0 A 7.0,7.0 0 0 1 119.0,98.0 M 133.0,84.0 A 7.0,7.0 0 0 0 140.0,91.0 M 126.0,91.0 A 7.0,7.0 0 0 1 133.0,98.0 M 175.0,84.0 A 7.0,7.0 0 0 0 182.0,91.0 M 168.0,91.0 A 7.0,7.0 0 0 1 175.0,98.0 M 217.0,84.0 A 7.0,7.0 0 0 0 224.0,91.0 M 210.0,91.0 A 7.0,7.0 0 0 1 217.0,98.0 M 49.0,98.0 A 7.0,7.0 0 0 0 56.0,105.0 M 42.0,105.0 A 7.0,7.0 0 0 1 49.0,112.0 M 63.0,98.0 A 7.0,7.0 0 0 0 70.0,105.0 M 56.0,105.0 A 7.0,7.0 0 0 1 63.0,112.0 M 77.0,98.0 A 7.0,7.0 0 0 0 84.0,105.0 M 70.0,105.0 A 7.0,7.0 0 0 1 77.0,112.0 M 119.0,98.0 A 7.0,7.0 0 0 0 126.0,105.0 M 112.0,105.0 A 7.0,7.0 0 0 1 119.0,112.0 M 133.0,98.0 A 7.0,7.0 0 0 0 140.0,105.0 M 126.0,105.0 A 7.0,7.0 0 0 1 133.0,112.0 M 147.0,98.0 A 7.0,7.0 0 0 0 154.0,105.0 M 140.0,105.0 A 7.0,7.0 0 0 1 147.0,112.0 M 175.0,98.0 A 7.0,7.0 0 0 0 182.0,105.0 M 168.0,105.0 A 7.0,7.0 0 0 1 175.0,112.0 M 189.0,98.0 A 7.0,7.0 0 0 0 196.0,105.0 M 182.0,105.0 A 7.0,7.0 0 0 1 189.0,112.0 M 203.0,98.0 A 7.0,7.0 0 0 0 210.0,105.0 M 196.0,105.0 A 7.0,7.0 0 0 1 203.0,112.0 M 217.0,98.0 A 7.0,7.0 0 0 0 224.0,105.0 M 210.0,105.0 A 7.0,7.0 0 0 1 217.0,112.0 M 21.0,112.0 A 7.0,7.0 0 0 0 28.0,119.0 M 14.0,119.0 A 7.0,7.0 0 0 1 21.0,126.0 M 147.0,112.0 A 7.0,7.0 0 0 0 154.0,119.0 M 140.0,119.0 A 7.0,7.0 0 0 1 147.0,126.0 M 175.0,112.0 A 7.0,7.0 0 0 0 182.0,119.0 M 168.0,119.0 A 7.0,7.0 0 0 1 175.0,126.0 M 189.0,112.0 A 7.0,7.0 0 0 0 196.0,119.0 M 182.0,119.0 A 7.0,7.0 0 0 1 189.0,126.0 M 21.0,126.0 A 7.0,7.0 0 0 0 28.0,133.0 M 14.0,133.0 A 7.0,7.0 0 0 1 21.0,140.0 M 35.0,126.0 A 7.0,7.0 0 0 0 42.0,133.0 M 28.0,133.0 A 7.0,7.0 0 0 1 35.0,140.0 M 49.0,126.0 A 7.0,7.0 0 0 0 56.0,133.0 M 42.0,133.0 A 7.0,7.0 0 0 1 49.0,140.0 M 91.0,126.0 A 7.0,7.0 0 0 0 98.0,133.0 M 84.0,133.0 A 7.0,7.0 0 0 1 91.0,140.0 M 105.0,126.0 A 7.0,7.0 0 0 0 112.0,133.0 M 98.0,133.0 A 7.0,7.0 0 0 1 105.0,140.0 M 119.0,126.0 A 7.0,7.0 0 0 0 126.0,133.0 M 112.0,133.0 A 7.0,7.0 0 0 1 119.0,140.0 M 133.0,126.0 A 7.0,7.0 0 0 0 140.0,133.0 M 126.0,133.0 A 7.0,7.0 0 0 1 133.0,140.0 M 147.0,126.0 A 7.0,7.0 0 0 0 154.0,133.0 M 140.0,133.0 A 7.0,7.0 0 0 1 147.0,140.0 M 175.0,126.0 A 7.0,7.0 0 0 0 182.0,133.0 M 168.0,133.0 A 7.0,7.0 0 0 1 175.0,140.0 M 189.0,126.0 A 7.0,7.0 0 0 0 196.0,133.0 M 182.0,133.0 A 7.0,7.0 0 0 1 189.0,140.0 M 49.0,140.0 A 7.0,7.0 0 0 0 56.0,147.0 M 42.0,147.0 A 7.0,7.0 0 0 1 49.0,154.0 M 91.0,140.0 A 7.0,7.0 0 0 0 98.0,147.0 M 84.0,147.0 A 7.0,7.0 0 0 1 91.0,154.0 M 175.0,140.0 A 7.0,7.0 0 0 0 182.0,147.0 M 168.0,147.0 A 7.0,7.0 0 0 1 175.0,154.0 M 21.0,154.0 A 7.0,7.0 0 0 0 28.0,161.0 M 14.0,161.0 A 7.0,7.0 0 0 1 21.0,168.0 M 49.0,154.0 A 7.0,7.0 0 0 0 56.0,161.0 M 42.0,161.0 A 7.0,7.0 0 0 1 49.0,168.0 M 63.0,154.0 A 7.0,7.0 0 0 0 70.0,161.0 M 56.0,161.0 A 7.0,7.0 0 0 1 63.0,168.0 M 77.0,154.0 A 7.0,7.0 0 0 0 84.0,161.0 M 70.0,161.0 A 7.0,7.0 0 0 1 77.0,168.0 M 91.0,154.0 A 7.0,7.0 0 0 0 98.0,161.0 M 84.0,161.0 A 7.0,7.0 0 0 1 91.0,168.0 M 133.0,154.0 A 7.0,7.0 0 0 0 140.0,161.0 M 126.0,161.0 A 7.0,7.0 0 0 1 133.0,168.0 M 147.0,154.0 A 7.0,7.0 0 0 0 154.0,161.0 M 140.0,161.0 A 7.0,7.0 0 0 1 147.0,168.0 M 161.0,154.0 A 7.0,7.0 0 0 0 168.0,161.0 M 154.0,161.0 A 7.0,7.0 0 0 1 161.0,168.0 M 175.0,154.0 A 7.0,7.0 0 0 0 182.0,161.0 M 168.0,161.0 A 7.0,7.0 0 0 1 175.0,168.0 M 189.0,154.0 A 7.0,7.0 0 0 0 196.0,161.0 M 182.0,161.0 A 7.0,7.0 0 0 1 189.0,168.0 M 35.0,168.0 A 7.0,7.0 0 0 0 42.0,175.0 M 28.0,175.0 A 7.0,7.0 0 0 1 35.0,182.0 M 49.0,168.0 A 7.0,7.0 0 0 0 56.0,175.0 M 42.0,175.0 A 7.0,7.0 0 0 1 49.0,182.0 M 63.0,168.0 A 7.0,7.0 0 0 0 70.0,175.0 M 56.0,175.0 A 7.0,7.0 0 0 1 63.0,182.0 M 119.0,168.0 A 7.0,7.0 0 0 0 126.0,175.0 M 112.0,175.0 A 7.0,7.0 0 0 1 119.0,182.0 M 161.0,168.0 A 7.0,7.0 0 0 0 168.0,175.0 M 154.0,175.0 A 7.0,7.0 0 0 1 161.0,182.0 M 189.0,168.0 A 7.0,7.0 0 0 0 196.0,175.0 M 182.0,175.0 A 7.0,7.0 0 0 1 189.0,182.0 M 203.0,168.0 A 7.0,7.0 0 0 0 210.0,175.0 M 196.0,175.0 A 7.0,7.0 0 0 1 203.0,182.0 M 21.0,182.0 A 7.0,7.0 0 0 0 28.0,189.0 M 14.0,189.0 A 7.0,7.0 0 0 1 21.0,196.0 M 49.0,182.0 A 7.0,7.0 0 0 0 56.0,189.0 M 42.0,189.0 A 7.0,7.0 0 0 1 49.0,196.0 M 105.0,182.0 A 7.0,7.0 0 0 0 112.0,189.0 M 98.0,189.0 A 7.0,7.0 0 0 1 105.0,196.0 M 147.0,182.0 A 7.0,7.0 0 0 0 154.0,189.0 M 140.0,189.0 A 7.0,7.0 0 0 1 147.0,196.0 M 161.0,182.0 A 7.0,7.0 0 0 0 168.0,189.0 M 154.0,189.0 A 7.0,7.0 0 0 1 161.0,196.0 M 203.0,182.0 A 7.0,7.0 0 0 0 210.0,189.0 M 196.0,189.0 A 7.0,7.0 0 0 1 203.0,196.0 M 217.0,182.0 A 7.0,7.0 0 0 0 224.0,189.0 M 210.0,189.0 A 7.0,7.0 0 0 1 217.0,196.0 M 21.0,196.0 A 7.0,7.0 0 0 0 28.0,203.0 M 14.0,203.0 A 7.0,7.0 0 0 1 21.0,210.0 M 49.0,196.0 A 7.0,7.0 0 0 0 56.0,203.0 M 42.0,203.0 A 7.0,7.0 0 0 1 49.0,210.0 M 63.0,196.0 A 7.0,7.0 0 0 0 70.0,203.0 M 56.0,203.0 A 7.0,7.0 0 0 1 63.0,210.0 M 77.0,196.0 A 7.0,7.0 0 0 0 84.0,203.0 M 70.0,203.0 A 7.0,7.0 0 0 1 77.0,210.0 M 91.0,196.0 A 7.0,7.0 0 0 0 98.0,203.0 M 84.0,203.0 A 7.0,7.0 0 0 1 91.0,210.0 M 161.0,196.0 A 7.0,7.0 0 0 0 168.0,203.0 M 154.0,203.0 A 7.0,7.0 0 0 1 161.0,210.0 M 189.0,196.0 A 7.0,7.0 0 0 0 196.0,203.0 M 182.0,203.0 A 7.0,7.0 0 0 1 189.0,210.0 M 217.0,196.0 A 7.0,7.0 0 0 0 224.0,203.0 M 210.0,203.0 A 7.0,7.0 0 0 1 217.0,210.0 M 35.0,210.0 A 7.0,7.0 0 0 0 42.0,217.0 M 28.0,217.0 A 7.0,7.0 0 0 1 35.0,224.0 M 49.0,210.0 A 7.0,7.0 0 0 0 56.0,217.0 M 42.0,217.0 A 7.0,7.0 0 0 1 49.0,224.0 M 91.0,210.0 A 7.0,7.0 0 0 0 98.0,217.0 M 84.0,217.0 A 7.0,7.0 0 0 1 91.0,224.0 M 119.0,210.0 A 7.0,7.0 0 0 0 126.0,217.0 M 112.0,217.0 A 7.0,7.0 0 0 1 119.0,224.0 M 147.0,210.0 A 7.0,7.0 0 0 0 154.0,217.0 M 140.0,217.0 A 7.0,7.0 0 0 1 147.0,224.0 M 161.0,210.0 A 7.0,7.0 0 0 0 168.0,217.0 M 154.0,217.0 A 7.0,7.0 0 0 1 161.0,224.0 M 189.0,210.0 A 7.0,7.0 0 0 0 196.0,217.0 M 182.0,217.0 A 7.0,7.0 0 0 1 189.0,224.0 M 203.0,210.0 A 7.0,7.0 0 0 0 210.0,217.0 M 196.0,217.0 A 7.0,7.0 0 0 1 203.0,224.0 M 217.0,210.0 A 7.0,7.0 0 0 0 224.0,217.0 M 210.0,217.0 A 7.0,7.0 0 0 1 217.0,224.0" fill="none" stroke="#7c3030" stroke-width="2.52" stroke-linecap="round"/>
</svg>