<svg xmlns="http://www.w3.org/2000/svg" viewBox="0 0 400 400" width="400" height="400">
  <rect width="400" height="400" fill="#1a0a2e"/>
  <polyline points="12.5,12.5 37.5,12.5 37.5,37.5 12.5,37.5 12.5,62.5 12.5,87.5 37.5,87.5 37.5,62.5 62.5,62.5 62.5,87.5 87.5,87.5 87.5,62.5 87.5,37.5 62.5,37.5 62.5,12.5 87.5,12.5 112.5,12.5 112.5,37.5 137.5,37.5 137.5,12.5 162.5,12.5 187.5,12.5 187.5,37.5 162.5,37.5 162.5,62.5 187.5,62.5 187.5,87.5 162.5,87.5 137.5,87.5 137.5,62.5 112.5,62.5 112.5,87.5 112.5,112.5 112.5,137.5 137.5,137.5 137.5,112.5 162.5,112.5 187.5,112.5 187.5,137.5 162.5,137.5 162.5,162.5 187.5,162.5 187.5,187.5 162.5,187.5 137.5,187.5 137.5,162.5 112.5,162.5 112.5,187.5 87.5,187.5 62.5,187.5 62.5,162.5 87.5,162.5 87.5,137.5 87.5,112.5 62.5,112.5 62.5,137.5 37.5,137.5 37.5,112.5 12.5,112.5 12.5,137.5 12.5,162.5 37.5,162.5 37.5,187.5 12.5,187.5 12.5,212.5 12.5,237.5 37.5,237.5 37.5,212.5 62.5,212.5 87.5,212.5 87.5,237.5 62.5,237.5 62.5,262.5 87.5,262.5 87.5,287.5 62.5,287.5 37.5,287.5 37.5,262.5 12.5,262.5 12.5,287.5 12.5,312.5 37.5,312.5 37.5,337.5 12.5,337.5 12.5,362.5 12.5,387.5 37.5,387.5 37.5,362.5 62.5,362.5 62.5,387.5 87.5,387.5 87.5,362.5 87.5,337.5 62.5,337.5 62.5,312.5 87.5,312.5 112.5,312.5 137.5,312.5 137.5,337.5 112.5,337.5 112.5,362.5 112.5,387.5 137.5,387.5 137.5,362.5 162.5,362.5 162.5,387.5 187.5,387.5 187.5,362.5 187.5,337.5 162.5,337.5 162.5,312.5 187.5,312.5 187.5,287.5 187.5,262.5 162.5,262.5 162.5,287.5 137.5,287.5 112.5,287.5 112.5,262.5 137.5,262.5 137.5,237.5 112.5,237.5 112.5,212.5 137.5,212.5 162.5,212.5 162.5,237.5 187.5,237.5 187.5,212.5 212.5,212.5 212.5,237.5 237.5,237.5 237.5,212.5 262.5,212.5 287.5,212.5 287.5,237.5 262.5,237.5 262.5,262.5 287.5,262.5 287.5,287.5 262.5,287.5 237.5,287.5 237.5,262.5 212.5,262.5 212.5,287.5 212.5,312.5 237.5,312.5 237.5,337.5 212.5,337.5 212.5,362.5 212.5,387.5 237.5,387.5 237.5,362.5 262.5,362.5 262.5,387.5 287.5,387.5 287.5,362.5 287.5,337.5 262.5,337.5 262.5,312.5 287.5,312.5 312.5,312.5 337.5,312.5 337.5,337.5 312.5,337.5 312.5,362.5 312.5,387.5 337.5,387.5 337.5,362.5 362.5,362.5 362.5,387.5 387.5,387.5 387.5,362.5 387.5,337.5 362.5,337.5 362.5,312.5 387.5,312.5 387.5,287.5 387.5,262.5 362.5,262.5 362.5,287.5 337.5,287.5 312.5,287.5 312.5,262.5 337.5,262.5 337.5,237.5 312.5,237.5 312.5,212.5 337.5,212.5 362.5,212.5 362.5,237.5 387.5,237.5 387.5,212.5 387.5,187.5 362.5,187.5 362.5,162.5 387.5,162.5 387.5,137.5 387.5,112.5 362.5,112.5 362.5,137.5 337.5,137.5 337.5,112.5 312.5,112.5 312.5,137.5 312.5,162.5 337.5,162.5 337.5,187.5 312.5,187.5 287.5,187.5 287.5,162.5 262.5,162.5 262.5,187.5 237.5,187.5 212.5,187.5 212.5,162.5 237.5,162.5 237.5,137.5 212.5,137.5 212.5,112.5 237.5,112.5 262.5,112.5 262.5,137.5 287.5,137.5 287.5,112.5 287.5,87.5 287.5,62.5 262.5,62.5 262.5,87.5 237.5,87.5 212.5,87.5 212.5,62.5 237.5,62.5 237.5,37.5 212.5,37.5 212.5,12.5 237.5,12.5 262.5,12.5 262.5,37.5 287.5,37.5 287.5,12.5 312.5,12.5 337.5,12.5 337.5,37.5 312.5,37.5 312.5,62.5 312.5,87.5 337.5,87.5 337.5,62.5 362.5,62.5 362.5,87.5 387.5,87.5 387.5,62.5 387.5,37.5 362.5,37.5 362.5,12.5 387.5,12.5" fill="none" stroke="#d4a256" stroke-width="1.5" stroke-linejoin="round" stroke-linecap="round"/>
</svg>