<svg xmlns="http://www.w3.org/2000/svg" viewBox="0 0 400 400" width="400" height="400">
<rect width="400" height="400" fill="#f5f0e8"/>
<g fill="#c84b31" stroke="#3d2b1f" stroke-width="0.8" stroke-linejoin="round">
<polygon points="351.1,200.0 351.1,230.3 369.0,224.6"/>
<polygon points="369.0,254.9 351.1,230.3 369.0,224.6"/>
<polygon points="369.0,175.4 397.8,166.1 397.8,184.8"/>
<polygon points="397.8,233.9 380.0,209.4 369.0,224.6"/>
<polygon points="351.1,200.0 380.0,209.4 369.0,224.6"/>
<polygon points="293.4,200.0 293.4,230.3 275.6,224.6"/>
<polygon points="228.9,209.4 257.7,200.0 246.7,184.8"/>
<polygon points="275.6,175.4 257.7,200.0 246.7,184.8"/>
<polygon points="369.0,175.4 369.0,145.1 351.1,150.9"/>
<polygon points="304.4,166.1 333.3,175.4 322.3,190.6"/>
<polygon points="351.1,200.0 333.3,175.4 322.3,190.6"/>
<polygon points="351.1,200.0 322.3,209.4 322.3,190.6"/>
<polygon points="293.4,200.0 322.3,209.4 322.3,190.6"/>
<polygon points="322.3,288.8 340.1,264.3 351.1,279.4"/>
<polygon points="369.0,254.9 340.1,264.3 351.1,279.4"/>
<polygon points="322.3,319.2 340.1,343.7 351.1,328.6"/>
<polygon points="380.0,288.8 351.1,298.2 351.1,279.4"/>
<polygon points="322.3,288.8 351.1,298.2 351.1,279.4"/>
<polygon points="275.6,254.9 293.4,230.3 275.6,224.6"/>
<polygon points="228.9,209.4 246.7,233.9 228.9,239.7"/>
<polygon points="246.7,264.3 246.7,233.9 228.9,239.7"/>
<polygon points="322.3,319.2 304.4,343.7 293.4,328.6"/>
<polygon points="264.5,288.8 293.4,298.2 293.4,279.4"/>
<polygon points="322.3,288.8 293.4,298.2 293.4,279.4"/>
<polygon points="322.3,288.8 304.4,264.3 293.4,279.4"/>
<polygon points="275.6,254.9 304.4,264.3 293.4,279.4"/>
<polygon points="246.7,343.7 217.8,353.1 228.9,368.3"/>
<polygon points="200.0,377.7 217.8,353.1 228.9,368.3"/>
<polygon points="275.6,353.1 293.4,377.7 275.6,383.4"/>
<polygon points="228.9,398.6 246.7,374.1 228.9,368.3"/>
<polygon points="246.7,343.7 246.7,374.1 228.9,368.3"/>
<polygon points="228.9,288.8 200.0,298.2 200.0,279.4"/>
<polygon points="200.0,230.3 217.8,254.9 228.9,239.7"/>
<polygon points="246.7,264.3 217.8,254.9 228.9,239.7"/>
<polygon points="275.6,353.1 304.4,343.7 293.4,328.6"/>
<polygon points="264.5,288.8 264.5,319.2 246.7,313.4"/>
<polygon points="246.7,343.7 264.5,319.2 246.7,313.4"/>
<polygon points="246.7,343.7 228.9,319.2 246.7,313.4"/>
<polygon points="228.9,288.8 228.9,319.2 246.7,313.4"/>
<polygon points="153.3,343.7 182.2,353.1 171.1,368.3"/>
<polygon points="200.0,377.7 182.2,353.1 171.1,368.3"/>
<polygon points="124.4,353.1 106.6,377.7 124.4,383.4"/>
<polygon points="171.1,398.6 153.3,374.1 171.1,368.3"/>
<polygon points="153.3,343.7 153.3,374.1 171.1,368.3"/>
<polygon points="171.1,288.8 200.0,298.2 200.0,279.4"/>
<polygon points="200.0,230.3 182.2,254.9 171.1,239.7"/>
<polygon points="153.3,264.3 182.2,254.9 171.1,239.7"/>
<polygon points="124.4,353.1 95.6,343.7 106.6,328.6"/>
<polygon points="135.5,288.8 135.5,319.2 153.3,313.4"/>
<polygon points="153.3,343.7 135.5,319.2 153.3,313.4"/>
<polygon points="153.3,343.7 171.1,319.2 153.3,313.4"/>
<polygon points="171.1,288.8 171.1,319.2 153.3,313.4"/>
<polygon points="77.7,288.8 59.9,264.3 48.9,279.4"/>
<polygon points="31.0,254.9 59.9,264.3 48.9,279.4"/>
<polygon points="77.7,319.2 59.9,343.7 48.9,328.6"/>
<polygon points="20.0,288.8 48.9,298.2 48.9,279.4"/>
<polygon points="77.7,288.8 48.9,298.2 48.9,279.4"/>
<polygon points="124.4,254.9 106.6,230.3 124.4,224.6"/>
<polygon points="171.1,209.4 153.3,233.9 171.1,239.7"/>
<polygon points="153.3,264.3 153.3,233.9 171.1,239.7"/>
<polygon points="77.7,319.2 95.6,343.7 106.6,328.6"/>
<polygon points="135.5,288.8 106.6,298.2 106.6,279.4"/>
<polygon points="77.7,288.8 106.6,298.2 106.6,279.4"/>
<polygon points="77.7,288.8 95.6,264.3 106.6,279.4"/>
<polygon points="124.4,254.9 95.6,264.3 106.6,279.4"/>
<polygon points="48.9,200.0 48.9,230.3 31.0,224.6"/>
<polygon points="31.0,254.9 48.9,230.3 31.0,224.6"/>
<polygon points="31.0,175.4 2.2,166.1 2.2,184.8"/>
<polygon points="2.2,233.9 20.0,209.4 31.0,224.6"/>
<polygon points="48.9,200.0 20.0,209.4 31.0,224.6"/>
<polygon points="106.6,200.0 106.6,230.3 124.4,224.6"/>
<polygon points="171.1,209.4 142.3,200.0 153.3,184.8"/>
<polygon points="124.4,175.4 142.3,200.0 153.3,184.8"/>
<polygon points="31.0,175.4 31.0,145.1 48.9,150.9"/>
<polygon points="95.6,166.1 66.7,175.4 77.7,190.6"/>
<polygon points="48.9,200.0 66.7,175.4 77.7,190.6"/>
<polygon points="48.9,200.0 77.7,209.4 77.7,190.6"/>
<polygon points="106.6,200.0 77.7,209.4 77.7,190.6"/>
<polygon points="77.7,111.2 95.6,86.6 77.7,80.8"/>
<polygon points="95.6,56.3 95.6,86.6 77.7,80.8"/>
<polygon points="48.9,120.6 20.0,111.2 31.0,96.0"/>
<polygon points="59.9,56.3 59.9,86.6 77.7,80.8"/>
<polygon points="77.7,111.2 59.9,86.6 77.7,80.8"/>
<polygon points="124.4,145.1 142.3,120.6 153.3,135.7"/>
<polygon points="182.2,175.4 153.3,166.1 153.3,184.8"/>
<polygon points="124.4,175.4 153.3,166.1 153.3,184.8"/>
<polygon points="48.9,120.6 31.0,145.1 48.9,150.9"/>
<polygon points="95.6,166.1 77.7,141.5 95.6,135.7"/>
<polygon points="77.7,111.2 77.7,141.5 95.6,135.7"/>
<polygon points="77.7,111.2 106.6,120.6 95.6,135.7"/>
<polygon points="124.4,145.1 106.6,120.6 95.6,135.7"/>
<polygon points="153.3,56.3 124.4,65.7 124.4,46.9"/>
<polygon points="95.6,56.3 124.4,65.7 124.4,46.9"/>
<polygon points="171.1,31.7 171.1,1.4 153.3,7.2"/>
<polygon points="106.6,22.3 135.5,31.7 124.4,46.9"/>
<polygon points="153.3,56.3 135.5,31.7 124.4,46.9"/>
<polygon points="171.1,111.2 142.3,120.6 153.3,135.7"/>
<polygon points="182.2,175.4 182.2,145.1 200.0,150.9"/>
<polygon points="200.0,120.6 182.2,145.1 200.0,150.9"/>
<polygon points="171.1,31.7 200.0,22.3 200.0,41.1"/>
<polygon points="200.0,90.2 182.2,65.7 171.1,80.8"/>
<polygon points="153.3,56.3 182.2,65.7 171.1,80.8"/>
<polygon points="153.3,56.3 153.3,86.6 171.1,80.8"/>
<polygon points="171.1,111.2 153.3,86.6 171.1,80.8"/>
<polygon points="246.7,56.3 275.6,65.7 275.6,46.9"/>
<polygon points="304.4,56.3 275.6,65.7 275.6,46.9"/>
<polygon points="228.9,31.7 228.9,1.4 246.7,7.2"/>
<polygon points="293.4,22.3 264.5,31.7 275.6,46.9"/>
<polygon points="246.7,56.3 264.5,31.7 275.6,46.9"/>
<polygon points="228.9,111.2 257.7,120.6 246.7,135.7"/>
<polygon points="217.8,175.4 217.8,145.1 200.0,150.9"/>
<polygon points="200.0,120.6 217.8,145.1 200.0,150.9"/>
<polygon points="228.9,31.7 200.0,22.3 200.0,41.1"/>
<polygon points="200.0,90.2 217.8,65.7 228.9,80.8"/>
<polygon points="246.7,56.3 217.8,65.7 228.9,80.8"/>
<polygon points="246.7,56.3 246.7,86.6 228.9,80.8"/>
<polygon points="228.9,111.2 246.7,86.6 228.9,80.8"/>
<polygon points="322.3,111.2 304.4,86.6 322.3,80.8"/>
<polygon points="304.4,56.3 304.4,86.6 322.3,80.8"/>
<polygon points="351.1,120.6 380.0,111.2 369.0,96.0"/>
<polygon points="340.1,56.3 340.1,86.6 322.3,80.8"/>
<polygon points="322.3,111.2 340.1,86.6 322.3,80.8"/>
<polygon points="275.6,145.1 257.7,120.6 246.7,135.7"/>
<polygon points="217.8,175.4 246.7,166.1 246.7,184.8"/>
<polygon points="275.6,175.4 246.7,166.1 246.7,184.8"/>
<polygon points="351.1,120.6 369.0,145.1 351.1,150.9"/>
<polygon points="304.4,166.1 322.3,141.5 304.4,135.7"/>
<polygon points="322.3,111.2 322.3,141.5 304.4,135.7"/>
<polygon points="322.3,111.2 293.4,120.6 304.4,135.7"/>
<polygon points="275.6,145.1 293.4,120.6 304.4,135.7"/>
</g>
<g fill="#7a9e7e" stroke="#3d2b1f" stroke-width="0.8" stroke-linejoin="round">
<polygon points="351.1,230.3 351.1,200.0 322.3,239.7"/>
<polygon points="369.0,254.9 397.8,264.3 369.0,224.6"/>
<polygon points="351.1,230.3 369.0,254.9 322.3,239.7"/>
<polygon points="369.0,175.4 351.1,200.0 397.8,184.8"/>
<polygon points="397.8,166.1 369.0,175.4 397.8,135.7"/>
<polygon points="397.8,233.9 397.8,264.3 369.0,224.6"/>
<polygon points="380.0,209.4 397.8,233.9 397.8,184.8"/>
<polygon points="380.0,209.4 351.1,200.0 397.8,184.8"/>
<polygon points="293.4,200.0 275.6,175.4 275.6,224.6"/>
<polygon points="293.4,230.3 293.4,200.0 322.3,239.7"/>
<polygon points="228.9,209.4 200.0,200.0 246.7,184.8"/>
<polygon points="257.7,200.0 228.9,209.4 275.6,224.6"/>
<polygon points="257.7,200.0 275.6,175.4 275.6,224.6"/>
<polygon points="369.0,175.4 351.1,200.0 351.1,150.9"/>
<polygon points="369.0,145.1 369.0,175.4 397.8,135.7"/>
<polygon points="304.4,166.1 275.6,175.4 322.3,190.6"/>
<polygon points="333.3,175.4 304.4,166.1 351.1,150.9"/>
<polygon points="333.3,175.4 351.1,200.0 351.1,150.9"/>
<polygon points="322.3,209.4 351.1,200.0 322.3,239.7"/>
<polygon points="293.4,200.0 275.6,175.4 322.3,190.6"/>
<polygon points="322.3,209.4 293.4,200.0 322.3,239.7"/>
<polygon points="340.1,264.3 322.3,288.8 322.3,239.7"/>
<polygon points="369.0,254.9 397.8,264.3 351.1,279.4"/>
<polygon points="340.1,264.3 369.0,254.9 322.3,239.7"/>
<polygon points="322.3,319.2 322.3,288.8 351.1,328.6"/>
<polygon points="340.1,343.7 322.3,319.2 322.3,368.3"/>
<polygon points="380.0,288.8 397.8,264.3 351.1,279.4"/>
<polygon points="351.1,298.2 380.0,288.8 351.1,328.6"/>
<polygon points="351.1,298.2 322.3,288.8 351.1,328.6"/>
<polygon points="275.6,254.9 246.7,264.3 275.6,224.6"/>
<polygon points="293.4,230.3 275.6,254.9 322.3,239.7"/>
<polygon points="228.9,209.4 200.0,200.0 228.9,239.7"/>
<polygon points="246.7,233.9 228.9,209.4 275.6,224.6"/>
<polygon points="246.7,233.9 246.7,264.3 275.6,224.6"/>
<polygon points="322.3,319.2 322.3,288.8 293.4,328.6"/>
<polygon points="304.4,343.7 322.3,319.2 322.3,368.3"/>
<polygon points="264.5,288.8 246.7,264.3 293.4,279.4"/>
<polygon points="293.4,298.2 264.5,288.8 293.4,328.6"/>
<polygon points="293.4,298.2 322.3,288.8 293.4,328.6"/>
<polygon points="304.4,264.3 322.3,288.8 322.3,239.7"/>
<polygon points="275.6,254.9 246.7,264.3 293.4,279.4"/>
<polygon points="304.4,264.3 275.6,254.9 322.3,239.7"/>
<polygon points="217.8,353.1 246.7,343.7 200.0,328.6"/>
<polygon points="200.0,377.7 200.0,408.0 228.9,368.3"/>
<polygon points="217.8,353.1 200.0,377.7 200.0,328.6"/>
<polygon points="275.6,353.1 246.7,343.7 275.6,383.4"/>
<polygon points="293.4,377.7 275.6,353.1 322.3,368.3"/>
<polygon points="228.9,398.6 200.0,408.0 228.9,368.3"/>
<polygon points="246.7,374.1 228.9,398.6 275.6,383.4"/>
<polygon points="246.7,374.1 246.7,343.7 275.6,383.4"/>
<polygon points="228.9,288.8 246.7,264.3 200.0,279.4"/>
<polygon points="200.0,298.2 228.9,288.8 200.0,328.6"/>
<polygon points="200.0,230.3 200.0,200.0 228.9,239.7"/>
<polygon points="217.8,254.9 200.0,230.3 200.0,279.4"/>
<polygon points="217.8,254.9 246.7,264.3 200.0,279.4"/>
<polygon points="275.6,353.1 246.7,343.7 293.4,328.6"/>
<polygon points="304.4,343.7 275.6,353.1 322.3,368.3"/>
<polygon points="264.5,288.8 246.7,264.3 246.7,313.4"/>
<polygon points="264.5,319.2 264.5,288.8 293.4,328.6"/>
<polygon points="264.5,319.2 246.7,343.7 293.4,328.6"/>
<polygon points="228.9,319.2 246.7,343.7 200.0,328.6"/>
<polygon points="228.9,288.8 246.7,264.3 246.7,313.4"/>
<polygon points="228.9,319.2 228.9,288.8 200.0,328.6"/>
<polygon points="182.2,353.1 153.3,343.7 200.0,328.6"/>
<polygon points="200.0,377.7 200.0,408.0 171.1,368.3"/>
<polygon points="182.2,353.1 200.0,377.7 200.0,328.6"/>
<polygon points="124.4,353.1 153.3,343.7 124.4,383.4"/>
<polygon points="106.6,377.7 124.4,353.1 77.7,368.3"/>
<polygon points="171.1,398.6 200.0,408.0 171.1,368.3"/>
<polygon points="153.3,374.1 171.1,398.6 124.4,383.4"/>
<polygon points="153.3,374.1 153.3,343.7 124.4,383.4"/>
<polygon points="171.1,288.8 153.3,264.3 200.0,279.4"/>
<polygon points="200.0,298.2 171.1,288.8 200.0,328.6"/>
<polygon points="200.0,230.3 200.0,200.0 171.1,239.7"/>
<polygon points="182.2,254.9 200.0,230.3 200.0,279.4"/>
<polygon points="182.2,254.9 153.3,264.3 200.0,279.4"/>
<polygon points="124.4,353.1 153.3,343.7 106.6,328.6"/>
<polygon points="95.6,343.7 124.4,353.1 77.7,368.3"/>
<polygon points="135.5,288.8 153.3,264.3 153.3,313.4"/>
<polygon points="135.5,319.2 135.5,288.8 106.6,328.6"/>
<polygon points="135.5,319.2 153.3,343.7 106.6,328.6"/>
<polygon points="171.1,319.2 153.3,343.7 200.0,328.6"/>
<polygon points="171.1,288.8 153.3,264.3 153.3,313.4"/>
<polygon points="171.1,319.2 171.1,288.8 200.0,328.6"/>
<polygon points="59.9,264.3 77.7,288.8 77.7,239.7"/>
<polygon points="31.0,254.9 2.2,264.3 48.9,279.4"/>
<polygon points="59.9,264.3 31.0,254.9 77.7,239.7"/>
<polygon points="77.7,319.2 77.7,288.8 48.9,328.6"/>
<polygon points="59.9,343.7 77.7,319.2 77.7,368.3"/>
<polygon points="20.0,288.8 2.2,264.3 48.9,279.4"/>
<polygon points="48.9,298.2 20.0,288.8 48.9,328.6"/>
<polygon points="48.9,298.2 77.7,288.8 48.9,328.6"/>
<polygon points="124.4,254.9 153.3,264.3 124.4,224.6"/>
<polygon points="106.6,230.3 124.4,254.9 77.7,239.7"/>
<polygon points="171.1,209.4 200.0,200.0 171.1,239.7"/>
<polygon points="153.3,233.9 171.1,209.4 124.4,224.6"/>
<polygon points="153.3,233.9 153.3,264.3 124.4,224.6"/>
<polygon points="77.7,319.2 77.7,288.8 106.6,328.6"/>
<polygon points="95.6,343.7 77.7,319.2 77.7,368.3"/>
<polygon points="135.5,288.8 153.3,264.3 106.6,279.4"/>
<polygon points="106.6,298.2 135.5,288.8 106.6,328.6"/>
<polygon points="106.6,298.2 77.7,288.8 106.6,328.6"/>
<polygon points="95.6,264.3 77.7,288.8 77.7,239.7"/>
<polygon points="124.4,254.9 153.3,264.3 106.6,279.4"/>
<polygon points="95.6,264.3 124.4,254.9 77.7,239.7"/>
<polygon points="48.9,230.3 48.9,200.0 77.7,239.7"/>
<polygon points="31.0,254.9 2.2,264.3 31.0,224.6"/>
<polygon points="48.9,230.3 31.0,254.9 77.7,239.7"/>
<polygon points="31.0,175.4 48.9,200.0 2.2,184.8"/>
<polygon points="2.2,166.1 31.0,175.4 2.2,135.7"/>
<polygon points="2.2,233.9 2.2,264.3 31.0,224.6"/>
<polygon points="20.0,209.4 2.2,233.9 2.2,184.8"/>
<polygon points="20.0,209.4 48.9,200.0 2.2,184.8"/>
<polygon points="106.6,200.0 124.4,175.4 124.4,224.6"/>
<polygon points="106.6,230.3 106.6,200.0 77.7,239.7"/>
<polygon points="171.1,209.4 200.0,200.0 153.3,184.8"/>
<polygon points="142.3,200.0 171.1,209.4 124.4,224.6"/>
<polygon points="142.3,200.0 124.4,175.4 124.4,224.6"/>
<polygon points="31.0,175.4 48.9,200.0 48.9,150.9"/>
<polygon points="31.0,145.1 31.0,175.4 2.2,135.7"/>
<polygon points="95.6,166.1 124.4,175.4 77.7,190.6"/>
<polygon points="66.7,175.4 95.6,166.1 48.9,150.9"/>
<polygon points="66.7,175.4 48.9,200.0 48.9,150.9"/>
<polygon points="77.7,209.4 48.9,200.0 77.7,239.7"/>
<polygon points="106.6,200.0 124.4,175.4 77.7,190.6"/>
<polygon points="77.7,209.4 106.6,200.0 77.7,239.7"/>
<polygon points="95.6,86.6 77.7,111.2 124.4,96.0"/>
<polygon points="95.6,56.3 77.7,31.7 77.7,80.8"/>
<polygon points="95.6,86.6 95.6,56.3 124.4,96.0"/>
<polygon points="48.9,120.6 77.7,111.2 31.0,96.0"/>
<polygon points="20.0,111.2 48.9,120.6 2.2,135.7"/>
<polygon points="59.9,56.3 77.7,31.7 77.7,80.8"/>
<polygon points="59.9,86.6 59.9,56.3 31.0,96.0"/>
<polygon points="59.9,86.6 77.7,111.2 31.0,96.0"/>
<polygon points="124.4,145.1 124.4,175.4 153.3,135.7"/>
<polygon points="142.3,120.6 124.4,145.1 124.4,96.0"/>
<polygon points="182.2,175.4 200.0,200.0 153.3,184.8"/>
<polygon points="153.3,166.1 182.2,175.4 153.3,135.7"/>
<polygon points="153.3,166.1 124.4,175.4 153.3,135.7"/>
<polygon points="48.9,120.6 77.7,111.2 48.9,150.9"/>
<polygon points="31.0,145.1 48.9,120.6 2.2,135.7"/>
<polygon points="95.6,166.1 124.4,175.4 95.6,135.7"/>
<polygon points="77.7,141.5 95.6,166.1 48.9,150.9"/>
<polygon points="77.7,141.5 77.7,111.2 48.9,150.9"/>
<polygon points="106.6,120.6 77.7,111.2 124.4,96.0"/>
<polygon points="124.4,145.1 124.4,175.4 95.6,135.7"/>
<polygon points="106.6,120.6 124.4,145.1 124.4,96.0"/>
<polygon points="124.4,65.7 153.3,56.3 124.4,96.0"/>
<polygon points="95.6,56.3 77.7,31.7 124.4,46.9"/>
<polygon points="124.4,65.7 95.6,56.3 124.4,96.0"/>
<polygon points="171.1,31.7 153.3,56.3 153.3,7.2"/>
<polygon points="171.1,1.4 171.1,31.7 200.0,-8.0"/>
<polygon points="106.6,22.3 77.7,31.7 124.4,46.9"/>
<polygon points="135.5,31.7 106.6,22.3 153.3,7.2"/>
<polygon points="135.5,31.7 153.3,56.3 153.3,7.2"/>
<polygon points="171.1,111.2 200.0,120.6 153.3,135.7"/>
<polygon points="142.3,120.6 171.1,111.2 124.4,96.0"/>
<polygon points="182.2,175.4 200.0,200.0 200.0,150.9"/>
<polygon points="182.2,145.1 182.2,175.4 153.3,135.7"/>
<polygon points="182.2,145.1 200.0,120.6 153.3,135.7"/>
<polygon points="171.1,31.7 153.3,56.3 200.0,41.1"/>
<polygon points="200.0,22.3 171.1,31.7 200.0,-8.0"/>
<polygon points="200.0,90.2 200.0,120.6 171.1,80.8"/>
<polygon points="182.2,65.7 200.0,90.2 200.0,41.1"/>
<polygon points="182.2,65.7 153.3,56.3 200.0,41.1"/>
<polygon points="153.3,86.6 153.3,56.3 124.4,96.0"/>
<polygon points="171.1,111.2 200.0,120.6 171.1,80.8"/>
<polygon points="153.3,86.6 171.1,111.2 124.4,96.0"/>
<polygon points="275.6,65.7 246.7,56.3 275.6,96.0"/>
<polygon points="304.4,56.3 322.3,31.7 275.6,46.9"/>
<polygon points="275.6,65.7 304.4,56.3 275.6,96.0"/>
<polygon points="228.9,31.7 246.7,56.3 246.7,7.2"/>
<polygon points="228.9,1.4 228.9,31.7 200.0,-8.0"/>
<polygon points="293.4,22.3 322.3,31.7 275.6,46.9"/>
<polygon points="264.5,31.7 293.4,22.3 246.7,7.2"/>
<polygon points="264.5,31.7 246.7,56.3 246.7,7.2"/>
<polygon points="228.9,111.2 200.0,120.6 246.7,135.7"/>
<polygon points="257.7,120.6 228.9,111.2 275.6,96.0"/>
<polygon points="217.8,175.4 200.0,200.0 200.0,150.9"/>
<polygon points="217.8,145.1 217.8,175.4 246.7,135.7"/>
<polygon points="217.8,145.1 200.0,120.6 246.7,135.7"/>
<polygon points="228.9,31.7 246.7,56.3 200.0,41.1"/>
<polygon points="200.0,22.3 228.9,31.7 200.0,-8.0"/>
<polygon points="200.0,90.2 200.0,120.6 228.9,80.8"/>
<polygon points="217.8,65.7 200.0,90.2 200.0,41.1"/>
<polygon points="217.8,65.7 246.7,56.3 200.0,41.1"/>
<polygon points="246.7,86.6 246.7,56.3 275.6,96.0"/>
<polygon points="228.9,111.2 200.0,120.6 228.9,80.8"/>
<polygon points="246.7,86.6 228.9,111.2 275.6,96.0"/>
<polygon points="304.4,86.6 322.3,111.2 275.6,96.0"/>
<polygon points="304.4,56.3 322.3,31.7 322.3,80.8"/>
<polygon points="304.4,86.6 304.4,56.3 275.6,96.0"/>
<polygon points="351.1,120.6 322.3,111.2 369.0,96.0"/>
<polygon points="380.0,111.2 351.1,120.6 397.8,135.7"/>
<polygon points="340.1,56.3 322.3,31.7 322.3,80.8"/>
<polygon points="340.1,86.6 340.1,56.3 369.0,96.0"/>
<polygon points="340.1,86.6 322.3,111.2 369.0,96.0"/>
<polygon points="275.6,145.1 275.6,175.4 246.7,135.7"/>
<polygon points="257.7,120.6 275.6,145.1 275.6,96.0"/>
<polygon points="217.8,175.4 200.0,200.0 246.7,184.8"/>
<polygon points="246.7,166.1 217.8,175.4 246.7,135.7"/>
<polygon points="246.7,166.1 275.6,175.4 246.7,135.7"/>
<polygon points="351.1,120.6 322.3,111.2 351.1,150.9"/>
<polygon points="369.0,145.1 351.1,120.6 397.8,135.7"/>
<polygon points="304.4,166.1 275.6,175.4 304.4,135.7"/>
<polygon points="322.3,141.5 304.4,166.1 351.1,150.9"/>
<polygon points="322.3,141.5 322.3,111.2 351.1,150.9"/>
<polygon points="293.4,120.6 322.3,111.2 275.6,96.0"/>
<polygon points="275.6,145.1 275.6,175.4 304.4,135.7"/>
<polygon points="293.4,120.6 275.6,145.1 275.6,96.0"/>
</g>
</svg>