<svg xmlns="http://www.w3.org/2000/svg" viewBox="0 0 400 400" width="400" height="400">
  <rect width="400" height="400" fill="#0a080f"/>
  <path fill="#ffb000" d="M200,0h4v4h-4zM196,4h4v4h-4zM200,4h4v4h-4zM204,4h4v4h-4zM192,8h4v4h-4zM196,8h4v4h-4zM208,8h4v4h-4zM188,12h4v4h-4zM192,12h4v4h-4zM200,12h4v4h-4zM204,12h4v4h-4zM208,12h4v4h-4zM212,12h4v4h-4zM184,16h4v4h-4zM188,16h4v4h-4zM200,16h4v4h-4zM216,16h4v4h-4zM180,20h4v4h-4zM184,20h4v4h-4zM192,20h4v4h-4zM196,20h4v4h-4zM200,20h4v4h-4zM204,20h4v4h-4zM212,20h4v4h-4zM216,20h4v4h-4zM220,20h4v4h-4zM176,24h4v4h-4zM180,24h4v4h-4zM192,24h4v4h-4zM212,24h4v4h-4zM224,24h4v4h-4zM172,28h4v4h-4zM176,28h4v4h-4zM184,28h4v4h-4zM188,28h4v4h-4zM192,28h4v4h-4zM196,28h4v4h-4zM208,28h4v4h-4zM212,28h4v4h-4zM216,28h4v4h-4zM220,28h4v4h-4zM224,28h4v4h-4zM228,28h4v4h-4zM168,32h4v4h-4zM172,32h4v4h-4zM184,32h4v4h-4zM200,32h4v4h-4zM204,32h4v4h-4zM208,32h4v4h-4zM232,32h4v4h-4zM164,36h4v4h-4zM168,36h4v4h-4zM176,36h4v4h-4zM180,36h4v4h-4zM184,36h4v4h-4zM188,36h4v4h-4zM196,36h4v4h-4zM200,36h4v4h-4zM212,36h4v4h-4zM228,36h4v4h-4zM232,36h4v4h-4zM236,36h4v4h-4zM160,40h4v4h-4zM164,40h4v4h-4zM176,40h4v4h-4zM196,40h4v4h-4zM204,40h4v4h-4zM208,40h4v4h-4zM212,40h4v4h-4zM216,40h4v4h-4zM224,40h4v4h-4zM228,40h4v4h-4zM240,40h4v4h-4zM156,44h4v4h-4zM160,44h4v4h-4zM168,44h4v4h-4zM172,44h4v4h-4zM176,44h4v4h-4zM180,44h4v4h-4zM192,44h4v4h-4zM196,44h4v4h-4zM204,44h4v4h-4zM224,44h4v4h-4zM232,44h4v4h-4zM236,44h4v4h-4zM240,44h4v4h-4zM244,44h4v4h-4zM152,48h4v4h-4zM156,48h4v4h-4zM168,48h4v4h-4zM184,48h4v4h-4zM188,48h4v4h-4zM192,48h4v4h-4zM204,48h4v4h-4zM208,48h4v4h-4zM220,48h4v4h-4zM224,48h4v4h-4zM232,48h4v4h-4zM248,48h4v4h-4zM148,52h4v4h-4zM152,52h4v4h-4zM160,52h4v4h-4zM164,52h4v4h-4zM168,52h4v4h-4zM172,52h4v4h-4zM180,52h4v4h-4zM184,52h4v4h-4zM196,52h4v4h-4zM200,52h4v4h-4zM204,52h4v4h-4zM212,52h4v4h-4zM216,52h4v4h-4zM220,52h4v4h-4zM232,52h4v4h-4zM236,52h4v4h-4zM244,52h4v4h-4zM248,52h4v4h-4zM252,52h4v4h-4zM144,56h4v4h-4zM148,56h4v4h-4zM160,56h4v4h-4zM180,56h4v4h-4zM188,56h4v4h-4zM192,56h4v4h-4zM196,56h4v4h-4zM212,56h4v4h-4zM224,56h4v4h-4zM228,56h4v4h-4zM232,56h4v4h-4zM244,56h4v4h-4zM256,56h4v4h-4zM140,60h4v4h-4zM144,60h4v4h-4zM152,60h4v4h-4zM156,60h4v4h-4zM160,60h4v4h-4zM164,60h4v4h-4zM176,60h4v4h-4zM180,60h4v4h-4zM188,60h4v4h-4zM200,60h4v4h-4zM208,60h4v4h-4zM212,60h4v4h-4zM216,60h4v4h-4zM220,60h4v4h-4zM224,60h4v4h-4zM236,60h4v4h-4zM240,60h4v4h-4zM244,60h4v4h-4zM248,60h4v4h-4zM252,60h4v4h-4zM256,60h4v4h-4zM260,60h4v4h-4zM136,64h4v4h-4zM140,64h4v4h-4zM152,64h4v4h-4zM168,64h4v4h-4zM172,64h4v4h-4zM176,64h4v4h-4zM188,64h4v4h-4zM192,64h4v4h-4zM196,64h4v4h-4zM200,64h4v4h-4zM208,64h4v4h-4zM228,64h4v4h-4zM232,64h4v4h-4zM236,64h4v4h-4zM264,64h4v4h-4zM132,68h4v4h-4zM136,68h4v4h-4zM144,68h4v4h-4zM148,68h4v4h-4zM152,68h4v4h-4zM156,68h4v4h-4zM164,68h4v4h-4zM168,68h4v4h-4zM180,68h4v4h-4zM184,68h4v4h-4zM188,68h4v4h-4zM208,68h4v4h-4zM212,68h4v4h-4zM224,68h4v4h-4zM228,68h4v4h-4zM240,68h4v4h-4zM260,68h4v4h-4zM264,68h4v4h-4zM268,68h4v4h-4zM128,72h4v4h-4zM132,72h4v4h-4zM144,72h4v4h-4zM164,72h4v4h-4zM172,72h4v4h-4zM176,72h4v4h-4zM180,72h4v4h-4zM192,72h4v4h-4zM204,72h4v4h-4zM208,72h4v4h-4zM216,72h4v4h-4zM220,72h4v4h-4zM224,72h4v4h-4zM232,72h4v4h-4zM236,72h4v4h-4zM240,72h4v4h-4zM244,72h4v4h-4zM256,72h4v4h-4zM260,72h4v4h-4zM272,72h4v4h-4zM124,76h4v4h-4zM128,76h4v4h-4zM136,76h4v4h-4zM140,76h4v4h-4zM144,76h4v4h-4zM148,76h4v4h-4zM160,76h4v4h-4zM164,76h4v4h-4zM172,76h4v4h-4zM184,76h4v4h-4zM188,76h4v4h-4zM192,76h4v4h-4zM196,76h4v4h-4zM200,76h4v4h-4zM204,76h4v4h-4zM216,76h4v4h-4zM232,76h4v4h-4zM248,76h4v4h-4zM252,76h4v4h-4zM256,76h4v4h-4zM264,76h4v4h-4zM268,76h4v4h-4zM272,76h4v4h-4zM276,76h4v4h-4zM120,80h4v4h-4zM124,80h4v4h-4zM136,80h4v4h-4zM152,80h4v4h-4zM156,80h4v4h-4zM160,80h4v4h-4zM172,80h4v4h-4zM176,80h4v4h-4zM180,80h4v4h-4zM184,80h4v4h-4zM208,80h4v4h-4zM212,80h4v4h-4zM216,80h4v4h-4zM220,80h4v4h-4zM228,80h4v4h-4zM232,80h4v4h-4zM236,80h4v4h-4zM244,80h4v4h-4zM248,80h4v4h-4zM264,80h4v4h-4zM280,80h4v4h-4zM116,84h4v4h-4zM120,84h4v4h-4zM128,84h4v4h-4zM132,84h4v4h-4zM136,84h4v4h-4zM140,84h4v4h-4zM148,84h4v4h-4zM152,84h4v4h-4zM164,84h4v4h-4zM168,84h4v4h-4zM172,84h4v4h-4zM188,84h4v4h-4zM204,84h4v4h-4zM208,84h4v4h-4zM228,84h4v4h-4zM244,84h4v4h-4zM252,84h4v4h-4zM260,84h4v4h-4zM264,84h4v4h-4zM268,84h4v4h-4zM276,84h4v4h-4zM280,84h4v4h-4zM284,84h4v4h-4zM112,88h4v4h-4zM116,88h4v4h-4zM128,88h4v4h-4zM148,88h4v4h-4zM156,88h4v4h-4zM160,88h4v4h-4zM164,88h4v4h-4zM176,88h4v4h-4zM184,88h4v4h-4zM188,88h4v4h-4zM192,88h4v4h-4zM200,88h4v4h-4zM204,88h4v4h-4zM212,88h4v4h-4zM224,88h4v4h-4zM228,88h4v4h-4zM232,88h4v4h-4zM240,88h4v4h-4zM244,88h4v4h-4zM252,88h4v4h-4zM260,88h4v4h-4zM276,88h4v4h-4zM288,88h4v4h-4zM108,92h4v4h-4zM112,92h4v4h-4zM120,92h4v4h-4zM124,92h4v4h-4zM128,92h4v4h-4zM132,92h4v4h-4zM144,92h4v4h-4zM148,92h4v4h-4zM156,92h4v4h-4zM168,92h4v4h-4zM172,92h4v4h-4zM176,92h4v4h-4zM184,92h4v4h-4zM200,92h4v4h-4zM212,92h4v4h-4zM216,92h4v4h-4zM220,92h4v4h-4zM224,92h4v4h-4zM240,92h4v4h-4zM252,92h4v4h-4zM260,92h4v4h-4zM264,92h4v4h-4zM272,92h4v4h-4zM276,92h4v4h-4zM280,92h4v4h-4zM284,92h4v4h-4zM288,92h4v4h-4zM292,92h4v4h-4zM104,96h4v4h-4zM108,96h4v4h-4zM120,96h4v4h-4zM136,96h4v4h-4zM140,96h4v4h-4zM144,96h4v4h-4zM156,96h4v4h-4zM160,96h4v4h-4zM164,96h4v4h-4zM168,96h4v4h-4zM184,96h4v4h-4zM188,96h4v4h-4zM196,96h4v4h-4zM200,96h4v4h-4zM204,96h4v4h-4zM208,96h4v4h-4zM212,96h4v4h-4zM228,96h4v4h-4zM236,96h4v4h-4zM240,96h4v4h-4zM244,96h4v4h-4zM248,96h4v4h-4zM252,96h4v4h-4zM260,96h4v4h-4zM272,96h4v4h-4zM296,96h4v4h-4zM100,100h4v4h-4zM104,100h4v4h-4zM112,100h4v4h-4zM116,100h4v4h-4zM120,100h4v4h-4zM124,100h4v4h-4zM132,100h4v4h-4zM136,100h4v4h-4zM148,100h4v4h-4zM152,100h4v4h-4zM156,100h4v4h-4zM172,100h4v4h-4zM180,100h4v4h-4zM184,100h4v4h-4zM196,100h4v4h-4zM216,100h4v4h-4zM224,100h4v4h-4zM228,100h4v4h-4zM236,100h4v4h-4zM260,100h4v4h-4zM264,100h4v4h-4zM268,100h4v4h-4zM272,100h4v4h-4zM276,100h4v4h-4zM292,100h4v4h-4zM296,100h4v4h-4zM300,100h4v4h-4zM96,104h4v4h-4zM100,104h4v4h-4zM112,104h4v4h-4zM132,104h4v4h-4zM140,104h4v4h-4zM144,104h4v4h-4zM148,104h4v4h-4zM160,104h4v4h-4zM168,104h4v4h-4zM172,104h4v4h-4zM180,104h4v4h-4zM188,104h4v4h-4zM192,104h4v4h-4zM196,104h4v4h-4zM200,104h4v4h-4zM212,104h4v4h-4zM216,104h4v4h-4zM224,104h4v4h-4zM236,104h4v4h-4zM240,104h4v4h-4zM256,104h4v4h-4zM260,104h4v4h-4zM280,104h4v4h-4zM288,104h4v4h-4zM292,104h4v4h-4zM304,104h4v4h-4zM92,108h4v4h-4zM96,108h4v4h-4zM104,108h4v4h-4zM108,108h4v4h-4zM112,108h4v4h-4zM116,108h4v4h-4zM128,108h4v4h-4zM132,108h4v4h-4zM140,108h4v4h-4zM152,108h4v4h-4zM156,108h4v4h-4zM160,108h4v4h-4zM168,108h4v4h-4zM180,108h4v4h-4zM188,108h4v4h-4zM204,108h4v4h-4zM208,108h4v4h-4zM212,108h4v4h-4zM224,108h4v4h-4zM228,108h4v4h-4zM232,108h4v4h-4zM236,108h4v4h-4zM244,108h4v4h-4zM252,108h4v4h-4zM256,108h4v4h-4zM264,108h4v4h-4zM276,108h4v4h-4zM280,108h4v4h-4zM288,108h4v4h-4zM296,108h4v4h-4zM300,108h4v4h-4zM304,108h4v4h-4zM308,108h4v4h-4zM88,112h4v4h-4zM92,112h4v4h-4zM104,112h4v4h-4zM120,112h4v4h-4zM124,112h4v4h-4zM128,112h4v4h-4zM140,112h4v4h-4zM144,112h4v4h-4zM148,112h4v4h-4zM152,112h4v4h-4zM168,112h4v4h-4zM172,112h4v4h-4zM176,112h4v4h-4zM180,112h4v4h-4zM188,112h4v4h-4zM192,112h4v4h-4zM200,112h4v4h-4zM204,112h4v4h-4zM216,112h4v4h-4zM220,112h4v4h-4zM224,112h4v4h-4zM244,112h4v4h-4zM252,112h4v4h-4zM264,112h4v4h-4zM268,112h4v4h-4zM272,112h4v4h-4zM276,112h4v4h-4zM288,112h4v4h-4zM296,112h4v4h-4zM312,112h4v4h-4zM84,116h4v4h-4zM88,116h4v4h-4zM96,116h4v4h-4zM100,116h4v4h-4zM104,116h4v4h-4zM108,116h4v4h-4zM116,116h4v4h-4zM120,116h4v4h-4zM132,116h4v4h-4zM136,116h4v4h-4zM140,116h4v4h-4zM156,116h4v4h-4zM164,116h4v4h-4zM168,116h4v4h-4zM188,116h4v4h-4zM200,116h4v4h-4zM208,116h4v4h-4zM212,116h4v4h-4zM216,116h4v4h-4zM228,116h4v4h-4zM240,116h4v4h-4zM244,116h4v4h-4zM252,116h4v4h-4zM256,116h4v4h-4zM260,116h4v4h-4zM264,116h4v4h-4zM280,116h4v4h-4zM284,116h4v4h-4zM288,116h4v4h-4zM296,116h4v4h-4zM300,116h4v4h-4zM308,116h4v4h-4zM312,116h4v4h-4zM316,116h4v4h-4zM80,120h4v4h-4zM84,120h4v4h-4zM96,120h4v4h-4zM116,120h4v4h-4zM124,120h4v4h-4zM128,120h4v4h-4zM132,120h4v4h-4zM144,120h4v4h-4zM152,120h4v4h-4zM156,120h4v4h-4zM164,120h4v4h-4zM172,120h4v4h-4zM184,120h4v4h-4zM188,120h4v4h-4zM192,120h4v4h-4zM196,120h4v4h-4zM200,120h4v4h-4zM208,120h4v4h-4zM220,120h4v4h-4zM224,120h4v4h-4zM228,120h4v4h-4zM232,120h4v4h-4zM236,120h4v4h-4zM240,120h4v4h-4zM252,120h4v4h-4zM268,120h4v4h-4zM276,120h4v4h-4zM280,120h4v4h-4zM296,120h4v4h-4zM308,120h4v4h-4zM320,120h4v4h-4zM76,124h4v4h-4zM80,124h4v4h-4zM88,124h4v4h-4zM92,124h4v4h-4zM96,124h4v4h-4zM100,124h4v4h-4zM112,124h4v4h-4zM116,124h4v4h-4zM124,124h4v4h-4zM136,124h4v4h-4zM140,124h4v4h-4zM144,124h4v4h-4zM152,124h4v4h-4zM164,124h4v4h-4zM172,124h4v4h-4zM176,124h4v4h-4zM180,124h4v4h-4zM184,124h4v4h-4zM208,124h4v4h-4zM212,124h4v4h-4zM216,124h4v4h-4zM220,124h4v4h-4zM244,124h4v4h-4zM248,124h4v4h-4zM252,124h4v4h-4zM256,124h4v4h-4zM264,124h4v4h-4zM268,124h4v4h-4zM276,124h4v4h-4zM284,124h4v4h-4zM292,124h4v4h-4zM296,124h4v4h-4zM300,124h4v4h-4zM304,124h4v4h-4zM308,124h4v4h-4zM312,124h4v4h-4zM316,124h4v4h-4zM320,124h4v4h-4zM324,124h4v4h-4zM72,128h4v4h-4zM76,128h4v4h-4zM88,128h4v4h-4zM104,128h4v4h-4zM108,128h4v4h-4zM112,128h4v4h-4zM124,128h4v4h-4zM128,128h4v4h-4zM132,128h4v4h-4zM136,128h4v4h-4zM152,128h4v4h-4zM156,128h4v4h-4zM160,128h4v4h-4zM164,128h4v4h-4zM172,128h4v4h-4zM188,128h4v4h-4zM204,128h4v4h-4zM208,128h4v4h-4zM224,128h4v4h-4zM240,128h4v4h-4zM244,128h4v4h-4zM264,128h4v4h-4zM276,128h4v4h-4zM284,128h4v4h-4zM292,128h4v4h-4zM328,128h4v4h-4zM68,132h4v4h-4zM72,132h4v4h-4zM80,132h4v4h-4zM84,132h4v4h-4zM88,132h4v4h-4zM92,132h4v4h-4zM100,132h4v4h-4zM104,132h4v4h-4zM116,132h4v4h-4zM120,132h4v4h-4zM124,132h4v4h-4zM140,132h4v4h-4zM148,132h4v4h-4zM152,132h4v4h-4zM172,132h4v4h-4zM176,132h4v4h-4zM184,132h4v4h-4zM188,132h4v4h-4zM192,132h4v4h-4zM200,132h4v4h-4zM204,132h4v4h-4zM212,132h4v4h-4zM220,132h4v4h-4zM224,132h4v4h-4zM228,132h4v4h-4zM236,132h4v4h-4zM240,132h4v4h-4zM248,132h4v4h-4zM260,132h4v4h-4zM264,132h4v4h-4zM268,132h4v4h-4zM272,132h4v4h-4zM276,132h4v4h-4zM284,132h4v4h-4zM292,132h4v4h-4zM296,132h4v4h-4zM324,132h4v4h-4zM328,132h4v4h-4zM332,132h4v4h-4zM64,136h4v4h-4zM68,136h4v4h-4zM80,136h4v4h-4zM100,136h4v4h-4zM108,136h4v4h-4zM112,136h4v4h-4zM116,136h4v4h-4zM128,136h4v4h-4zM136,136h4v4h-4zM140,136h4v4h-4zM148,136h4v4h-4zM156,136h4v4h-4zM168,136h4v4h-4zM172,136h4v4h-4zM184,136h4v4h-4zM200,136h4v4h-4zM212,136h4v4h-4zM220,136h4v4h-4zM236,136h4v4h-4zM248,136h4v4h-4zM252,136h4v4h-4zM256,136h4v4h-4zM260,136h4v4h-4zM284,136h4v4h-4zM292,136h4v4h-4zM300,136h4v4h-4zM320,136h4v4h-4zM324,136h4v4h-4zM336,136h4v4h-4zM60,140h4v4h-4zM64,140h4v4h-4zM72,140h4v4h-4zM76,140h4v4h-4zM80,140h4v4h-4zM84,140h4v4h-4zM96,140h4v4h-4zM100,140h4v4h-4zM108,140h4v4h-4zM120,140h4v4h-4zM124,140h4v4h-4zM128,140h4v4h-4zM136,140h4v4h-4zM148,140h4v4h-4zM156,140h4v4h-4zM160,140h4v4h-4zM164,140h4v4h-4zM168,140h4v4h-4zM176,140h4v4h-4zM180,140h4v4h-4zM184,140h4v4h-4zM188,140h4v4h-4zM196,140h4v4h-4zM200,140h4v4h-4zM204,140h4v4h-4zM208,140h4v4h-4zM212,140h4v4h-4zM220,140h4v4h-4zM224,140h4v4h-4zM232,140h4v4h-4zM236,140h4v4h-4zM240,140h4v4h-4zM244,140h4v4h-4zM248,140h4v4h-4zM264,140h4v4h-4zM280,140h4v4h-4zM284,140h4v4h-4zM292,140h4v4h-4zM300,140h4v4h-4zM304,140h4v4h-4zM316,140h4v4h-4zM320,140h4v4h-4zM328,140h4v4h-4zM332,140h4v4h-4zM336,140h4v4h-4zM340,140h4v4h-4zM56,144h4v4h-4zM60,144h4v4h-4zM72,144h4v4h-4zM88,144h4v4h-4zM92,144h4v4h-4zM96,144h4v4h-4zM108,144h4v4h-4zM112,144h4v4h-4zM116,144h4v4h-4zM120,144h4v4h-4zM136,144h4v4h-4zM140,144h4v4h-4zM144,144h4v4h-4zM148,144h4v4h-4zM156,144h4v4h-4zM176,144h4v4h-4zM196,144h4v4h-4zM220,144h4v4h-4zM232,144h4v4h-4zM252,144h4v4h-4zM260,144h4v4h-4zM264,144h4v4h-4zM268,144h4v4h-4zM276,144h4v4h-4zM280,144h4v4h-4zM292,144h4v4h-4zM300,144h4v4h-4zM308,144h4v4h-4zM312,144h4v4h-4zM316,144h4v4h-4zM328,144h4v4h-4zM344,144h4v4h-4zM52,148h4v4h-4zM56,148h4v4h-4zM64,148h4v4h-4zM68,148h4v4h-4zM72,148h4v4h-4zM76,148h4v4h-4zM84,148h4v4h-4zM88,148h4v4h-4zM100,148h4v4h-4zM104,148h4v4h-4zM108,148h4v4h-4zM124,148h4v4h-4zM132,148h4v4h-4zM136,148h4v4h-4zM156,148h4v4h-4zM160,148h4v4h-4zM172,148h4v4h-4zM176,148h4v4h-4zM180,148h4v4h-4zM192,148h4v4h-4zM196,148h4v4h-4zM200,148h4v4h-4zM216,148h4v4h-4zM220,148h4v4h-4zM224,148h4v4h-4zM228,148h4v4h-4zM232,148h4v4h-4zM236,148h4v4h-4zM248,148h4v4h-4zM252,148h4v4h-4zM260,148h4v4h-4zM276,148h4v4h-4zM284,148h4v4h-4zM288,148h4v4h-4zM292,148h4v4h-4zM300,148h4v4h-4zM308,148h4v4h-4zM320,148h4v4h-4zM324,148h4v4h-4zM328,148h4v4h-4zM332,148h4v4h-4zM340,148h4v4h-4zM344,148h4v4h-4zM348,148h4v4h-4zM48,152h4v4h-4zM52,152h4v4h-4zM64,152h4v4h-4zM84,152h4v4h-4zM92,152h4v4h-4zM96,152h4v4h-4zM100,152h4v4h-4zM112,152h4v4h-4zM120,152h4v4h-4zM124,152h4v4h-4zM132,152h4v4h-4zM140,152h4v4h-4zM152,152h4v4h-4zM156,152h4v4h-4zM164,152h4v4h-4zM168,152h4v4h-4zM172,152h4v4h-4zM184,152h4v4h-4zM188,152h4v4h-4zM192,152h4v4h-4zM204,152h4v4h-4zM212,152h4v4h-4zM216,152h4v4h-4zM240,152h4v4h-4zM244,152h4v4h-4zM248,152h4v4h-4zM260,152h4v4h-4zM264,152h4v4h-4zM272,152h4v4h-4zM276,152h4v4h-4zM284,152h4v4h-4zM300,152h4v4h-4zM308,152h4v4h-4zM312,152h4v4h-4zM316,152h4v4h-4zM320,152h4v4h-4zM340,152h4v4h-4zM352,152h4v4h-4zM44,156h4v4h-4zM48,156h4v4h-4zM56,156h4v4h-4zM60,156h4v4h-4zM64,156h4v4h-4zM68,156h4v4h-4zM80,156h4v4h-4zM84,156h4v4h-4zM92,156h4v4h-4zM104,156h4v4h-4zM108,156h4v4h-4zM112,156h4v4h-4zM120,156h4v4h-4zM132,156h4v4h-4zM140,156h4v4h-4zM144,156h4v4h-4zM148,156h4v4h-4zM152,156h4v4h-4zM164,156h4v4h-4zM176,156h4v4h-4zM180,156h4v4h-4zM184,156h4v4h-4zM196,156h4v4h-4zM200,156h4v4h-4zM204,156h4v4h-4zM212,156h4v4h-4zM220,156h4v4h-4zM236,156h4v4h-4zM240,156h4v4h-4zM252,156h4v4h-4zM256,156h4v4h-4zM260,156h4v4h-4zM272,156h4v4h-4zM284,156h4v4h-4zM288,156h4v4h-4zM296,156h4v4h-4zM300,156h4v4h-4zM308,156h4v4h-4zM324,156h4v4h-4zM336,156h4v4h-4zM340,156h4v4h-4zM344,156h4v4h-4zM348,156h4v4h-4zM352,156h4v4h-4zM356,156h4v4h-4zM40,160h4v4h-4zM44,160h4v4h-4zM56,160h4v4h-4zM72,160h4v4h-4zM76,160h4v4h-4zM80,160h4v4h-4zM92,160h4v4h-4zM96,160h4v4h-4zM100,160h4v4h-4zM104,160h4v4h-4zM120,160h4v4h-4zM124,160h4v4h-4zM128,160h4v4h-4zM132,160h4v4h-4zM140,160h4v4h-4zM156,160h4v4h-4zM160,160h4v4h-4zM164,160h4v4h-4zM168,160h4v4h-4zM172,160h4v4h-4zM176,160h4v4h-4zM188,160h4v4h-4zM192,160h4v4h-4zM196,160h4v4h-4zM212,160h4v4h-4zM220,160h4v4h-4zM224,160h4v4h-4zM232,160h4v4h-4zM236,160h4v4h-4zM244,160h4v4h-4zM248,160h4v4h-4zM252,160h4v4h-4zM264,160h4v4h-4zM268,160h4v4h-4zM272,160h4v4h-4zM276,160h4v4h-4zM280,160h4v4h-4zM284,160h4v4h-4zM296,160h4v4h-4zM308,160h4v4h-4zM312,160h4v4h-4zM320,160h4v4h-4zM324,160h4v4h-4zM328,160h4v4h-4zM332,160h4v4h-4zM336,160h4v4h-4zM360,160h4v4h-4zM36,164h4v4h-4zM40,164h4v4h-4zM48,164h4v4h-4zM52,164h4v4h-4zM56,164h4v4h-4zM60,164h4v4h-4zM68,164h4v4h-4zM72,164h4v4h-4zM84,164h4v4h-4zM88,164h4v4h-4zM92,164h4v4h-4zM108,164h4v4h-4zM116,164h4v4h-4zM120,164h4v4h-4zM140,164h4v4h-4zM144,164h4v4h-4zM152,164h4v4h-4zM156,164h4v4h-4zM180,164h4v4h-4zM184,164h4v4h-4zM188,164h4v4h-4zM200,164h4v4h-4zM208,164h4v4h-4zM212,164h4v4h-4zM220,164h4v4h-4zM232,164h4v4h-4zM244,164h4v4h-4zM256,164h4v4h-4zM260,164h4v4h-4zM264,164h4v4h-4zM288,164h4v4h-4zM292,164h4v4h-4zM296,164h4v4h-4zM300,164h4v4h-4zM304,164h4v4h-4zM308,164h4v4h-4zM320,164h4v4h-4zM340,164h4v4h-4zM356,164h4v4h-4zM360,164h4v4h-4zM364,164h4v4h-4zM32,168h4v4h-4zM36,168h4v4h-4zM48,168h4v4h-4zM68,168h4v4h-4zM76,168h4v4h-4zM80,168h4v4h-4zM84,168h4v4h-4zM96,168h4v4h-4zM104,168h4v4h-4zM108,168h4v4h-4zM116,168h4v4h-4zM124,168h4v4h-4zM136,168h4v4h-4zM140,168h4v4h-4zM152,168h4v4h-4zM160,168h4v4h-4zM176,168h4v4h-4zM180,168h4v4h-4zM192,168h4v4h-4zM196,168h4v4h-4zM200,168h4v4h-4zM208,168h4v4h-4zM220,168h4v4h-4zM224,168h4v4h-4zM228,168h4v4h-4zM232,168h4v4h-4zM236,168h4v4h-4zM240,168h4v4h-4zM244,168h4v4h-4zM248,168h4v4h-4zM252,168h4v4h-4zM256,168h4v4h-4zM268,168h4v4h-4zM284,168h4v4h-4zM288,168h4v4h-4zM312,168h4v4h-4zM316,168h4v4h-4zM320,168h4v4h-4zM324,168h4v4h-4zM336,168h4v4h-4zM340,168h4v4h-4zM344,168h4v4h-4zM352,168h4v4h-4zM356,168h4v4h-4zM368,168h4v4h-4zM28,172h4v4h-4zM32,172h4v4h-4zM40,172h4v4h-4zM44,172h4v4h-4zM48,172h4v4h-4zM52,172h4v4h-4zM64,172h4v4h-4zM68,172h4v4h-4zM76,172h4v4h-4zM88,172h4v4h-4zM92,172h4v4h-4zM96,172h4v4h-4zM104,172h4v4h-4zM116,172h4v4h-4zM124,172h4v4h-4zM128,172h4v4h-4zM132,172h4v4h-4zM136,172h4v4h-4zM144,172h4v4h-4zM148,172h4v4h-4zM152,172h4v4h-4zM160,172h4v4h-4zM164,172h4v4h-4zM172,172h4v4h-4zM176,172h4v4h-4zM184,172h4v4h-4zM188,172h4v4h-4zM192,172h4v4h-4zM208,172h4v4h-4zM212,172h4v4h-4zM216,172h4v4h-4zM220,172h4v4h-4zM260,172h4v4h-4zM264,172h4v4h-4zM268,172h4v4h-4zM272,172h4v4h-4zM280,172h4v4h-4zM284,172h4v4h-4zM292,172h4v4h-4zM308,172h4v4h-4zM312,172h4v4h-4zM328,172h4v4h-4zM332,172h4v4h-4zM336,172h4v4h-4zM352,172h4v4h-4zM360,172h4v4h-4zM364,172h4v4h-4zM368,172h4v4h-4zM372,172h4v4h-4zM24,176h4v4h-4zM28,176h4v4h-4zM40,176h4v4h-4zM56,176h4v4h-4zM60,176h4v4h-4zM64,176h4v4h-4zM76,176h4v4h-4zM80,176h4v4h-4zM84,176h4v4h-4zM88,176h4v4h-4zM104,176h4v4h-4zM108,176h4v4h-4zM112,176h4v4h-4zM116,176h4v4h-4zM124,176h4v4h-4zM144,176h4v4h-4zM160,176h4v4h-4zM172,176h4v4h-4zM184,176h4v4h-4zM196,176h4v4h-4zM204,176h4v4h-4zM208,176h4v4h-4zM224,176h4v4h-4zM256,176h4v4h-4zM260,176h4v4h-4zM280,176h4v4h-4zM292,176h4v4h-4zM296,176h4v4h-4zM304,176h4v4h-4zM308,176h4v4h-4zM316,176h4v4h-4zM324,176h4v4h-4zM328,176h4v4h-4zM340,176h4v4h-4zM348,176h4v4h-4zM352,176h4v4h-4zM360,176h4v4h-4zM376,176h4v4h-4zM20,180h4v4h-4zM24,180h4v4h-4zM32,180h4v4h-4zM36,180h4v4h-4zM40,180h4v4h-4zM44,180h4v4h-4zM52,180h4v4h-4zM56,180h4v4h-4zM68,180h4v4h-4zM72,180h4v4h-4zM76,180h4v4h-4zM92,180h4v4h-4zM100,180h4v4h-4zM104,180h4v4h-4zM124,180h4v4h-4zM128,180h4v4h-4zM140,180h4v4h-4zM144,180h4v4h-4zM148,180h4v4h-4zM156,180h4v4h-4zM160,180h4v4h-4zM164,180h4v4h-4zM168,180h4v4h-4zM172,180h4v4h-4zM176,180h4v4h-4zM180,180h4v4h-4zM184,180h4v4h-4zM188,180h4v4h-4zM192,180h4v4h-4zM196,180h4v4h-4zM204,180h4v4h-4zM212,180h4v4h-4zM220,180h4v4h-4zM224,180h4v4h-4zM228,180h4v4h-4zM252,180h4v4h-4zM256,180h4v4h-4zM264,180h4v4h-4zM276,180h4v4h-4zM280,180h4v4h-4zM284,180h4v4h-4zM288,180h4v4h-4zM292,180h4v4h-4zM304,180h4v4h-4zM316,180h4v4h-4zM324,180h4v4h-4zM332,180h4v4h-4zM336,180h4v4h-4zM340,180h4v4h-4zM348,180h4v4h-4zM360,180h4v4h-4zM364,180h4v4h-4zM372,180h4v4h-4zM376,180h4v4h-4zM380,180h4v4h-4zM16,184h4v4h-4zM20,184h4v4h-4zM32,184h4v4h-4zM52,184h4v4h-4zM60,184h4v4h-4zM64,184h4v4h-4zM68,184h4v4h-4zM80,184h4v4h-4zM88,184h4v4h-4zM92,184h4v4h-4zM100,184h4v4h-4zM108,184h4v4h-4zM120,184h4v4h-4zM124,184h4v4h-4zM132,184h4v4h-4zM136,184h4v4h-4zM140,184h4v4h-4zM156,184h4v4h-4zM204,184h4v4h-4zM212,184h4v4h-4zM220,184h4v4h-4zM232,184h4v4h-4zM248,184h4v4h-4zM252,184h4v4h-4zM264,184h4v4h-4zM268,184h4v4h-4zM272,184h4v4h-4zM276,184h4v4h-4zM296,184h4v4h-4zM300,184h4v4h-4zM304,184h4v4h-4zM308,184h4v4h-4zM312,184h4v4h-4zM316,184h4v4h-4zM324,184h4v4h-4zM332,184h4v4h-4zM348,184h4v4h-4zM352,184h4v4h-4zM356,184h4v4h-4zM360,184h4v4h-4zM372,184h4v4h-4zM384,184h4v4h-4zM12,188h4v4h-4zM16,188h4v4h-4zM24,188h4v4h-4zM28,188h4v4h-4zM32,188h4v4h-4zM36,188h4v4h-4zM48,188h4v4h-4zM52,188h4v4h-4zM60,188h4v4h-4zM72,188h4v4h-4zM76,188h4v4h-4zM80,188h4v4h-4zM88,188h4v4h-4zM100,188h4v4h-4zM108,188h4v4h-4zM112,188h4v4h-4zM116,188h4v4h-4zM120,188h4v4h-4zM132,188h4v4h-4zM144,188h4v4h-4zM152,188h4v4h-4zM156,188h4v4h-4zM160,188h4v4h-4zM200,188h4v4h-4zM204,188h4v4h-4zM212,188h4v4h-4zM220,188h4v4h-4zM224,188h4v4h-4zM228,188h4v4h-4zM232,188h4v4h-4zM236,188h4v4h-4zM244,188h4v4h-4zM248,188h4v4h-4zM256,188h4v4h-4zM260,188h4v4h-4zM264,188h4v4h-4zM280,188h4v4h-4zM292,188h4v4h-4zM296,188h4v4h-4zM324,188h4v4h-4zM332,188h4v4h-4zM336,188h4v4h-4zM344,188h4v4h-4zM348,188h4v4h-4zM364,188h4v4h-4zM368,188h4v4h-4zM372,188h4v4h-4zM376,188h4v4h-4zM380,188h4v4h-4zM384,188h4v4h-4zM388,188h4v4h-4zM8,192h4v4h-4zM12,192h4v4h-4zM24,192h4v4h-4zM40,192h4v4h-4zM44,192h4v4h-4zM48,192h4v4h-4zM60,192h4v4h-4zM64,192h4v4h-4zM68,192h4v4h-4zM72,192h4v4h-4zM88,192h4v4h-4zM92,192h4v4h-4zM96,192h4v4h-4zM100,192h4v4h-4zM108,192h4v4h-4zM124,192h4v4h-4zM128,192h4v4h-4zM132,192h4v4h-4zM136,192h4v4h-4zM140,192h4v4h-4zM144,192h4v4h-4zM152,192h4v4h-4zM164,192h4v4h-4zM196,192h4v4h-4zM200,192h4v4h-4zM212,192h4v4h-4zM220,192h4v4h-4zM244,192h4v4h-4zM256,192h4v4h-4zM268,192h4v4h-4zM276,192h4v4h-4zM280,192h4v4h-4zM284,192h4v4h-4zM288,192h4v4h-4zM292,192h4v4h-4zM300,192h4v4h-4zM320,192h4v4h-4zM324,192h4v4h-4zM332,192h4v4h-4zM344,192h4v4h-4zM352,192h4v4h-4zM360,192h4v4h-4zM364,192h4v4h-4zM392,192h4v4h-4zM4,196h4v4h-4zM8,196h4v4h-4zM16,196h4v4h-4zM20,196h4v4h-4zM24,196h4v4h-4zM28,196h4v4h-4zM36,196h4v4h-4zM40,196h4v4h-4zM52,196h4v4h-4zM56,196h4v4h-4zM60,196h4v4h-4zM76,196h4v4h-4zM84,196h4v4h-4zM88,196h4v4h-4zM108,196h4v4h-4zM112,196h4v4h-4zM120,196h4v4h-4zM124,196h4v4h-4zM152,196h4v4h-4zM156,196h4v4h-4zM160,196h4v4h-4zM164,196h4v4h-4zM168,196h4v4h-4zM192,196h4v4h-4zM196,196h4v4h-4zM204,196h4v4h-4zM208,196h4v4h-4zM212,196h4v4h-4zM220,196h4v4h-4zM224,196h4v4h-4zM240,196h4v4h-4zM244,196h4v4h-4zM248,196h4v4h-4zM252,196h4v4h-4zM256,196h4v4h-4zM260,196h4v4h-4zM264,196h4v4h-4zM268,196h4v4h-4zM276,196h4v4h-4zM300,196h4v4h-4zM304,196h4v4h-4zM316,196h4v4h-4zM320,196h4v4h-4zM332,196h4v4h-4zM336,196h4v4h-4zM340,196h4v4h-4zM344,196h4v4h-4zM352,196h4v4h-4zM360,196h4v4h-4zM368,196h4v4h-4zM388,196h4v4h-4zM392,196h4v4h-4zM396,196h4v4h-4zM4,200h4v4h-4zM16,200h4v4h-4zM36,200h4v4h-4zM44,200h4v4h-4zM48,200h4v4h-4zM52,200h4v4h-4zM64,200h4v4h-4zM72,200h4v4h-4zM76,200h4v4h-4zM84,200h4v4h-4zM92,200h4v4h-4zM104,200h4v4h-4zM108,200h4v4h-4zM120,200h4v4h-4zM128,200h4v4h-4zM148,200h4v4h-4zM152,200h4v4h-4zM172,200h4v4h-4zM188,200h4v4h-4zM192,200h4v4h-4zM204,200h4v4h-4zM220,200h4v4h-4zM228,200h4v4h-4zM236,200h4v4h-4zM240,200h4v4h-4zM276,200h4v4h-4zM280,200h4v4h-4zM296,200h4v4h-4zM300,200h4v4h-4zM308,200h4v4h-4zM312,200h4v4h-4zM316,200h4v4h-4zM324,200h4v4h-4zM328,200h4v4h-4zM332,200h4v4h-4zM352,200h4v4h-4zM360,200h4v4h-4zM368,200h4v4h-4zM372,200h4v4h-4zM384,200h4v4h-4zM388,200h4v4h-4zM0,204h4v4h-4zM4,204h4v4h-4zM8,204h4v4h-4zM12,204h4v4h-4zM16,204h4v4h-4zM20,204h4v4h-4zM32,204h4v4h-4zM36,204h4v4h-4zM44,204h4v4h-4zM56,204h4v4h-4zM60,204h4v4h-4zM64,204h4v4h-4zM72,204h4v4h-4zM84,204h4v4h-4zM92,204h4v4h-4zM96,204h4v4h-4zM100,204h4v4h-4zM104,204h4v4h-4zM112,204h4v4h-4zM116,204h4v4h-4zM120,204h4v4h-4zM128,204h4v4h-4zM132,204h4v4h-4zM144,204h4v4h-4zM148,204h4v4h-4zM156,204h4v4h-4zM168,204h4v4h-4zM172,204h4v4h-4zM176,204h4v4h-4zM184,204h4v4h-4zM188,204h4v4h-4zM196,204h4v4h-4zM200,204h4v4h-4zM204,204h4v4h-4zM208,204h4v4h-4zM216,204h4v4h-4zM220,204h4v4h-4zM228,204h4v4h-4zM236,204h4v4h-4zM244,204h4v4h-4zM272,204h4v4h-4zM276,204h4v4h-4zM284,204h4v4h-4zM292,204h4v4h-4zM296,204h4v4h-4zM308,204h4v4h-4zM324,204h4v4h-4zM336,204h4v4h-4zM348,204h4v4h-4zM352,204h4v4h-4zM360,204h4v4h-4zM368,204h4v4h-4zM376,204h4v4h-4zM380,204h4v4h-4zM384,204h4v4h-4zM392,204h4v4h-4zM0,208h4v4h-4zM24,208h4v4h-4zM28,208h4v4h-4zM32,208h4v4h-4zM44,208h4v4h-4zM48,208h4v4h-4zM52,208h4v4h-4zM56,208h4v4h-4zM72,208h4v4h-4zM76,208h4v4h-4zM80,208h4v4h-4zM84,208h4v4h-4zM92,208h4v4h-4zM112,208h4v4h-4zM128,208h4v4h-4zM136,208h4v4h-4zM140,208h4v4h-4zM144,208h4v4h-4zM156,208h4v4h-4zM160,208h4v4h-4zM164,208h4v4h-4zM168,208h4v4h-4zM184,208h4v4h-4zM196,208h4v4h-4zM216,208h4v4h-4zM228,208h4v4h-4zM236,208h4v4h-4zM244,208h4v4h-4zM248,208h4v4h-4zM268,208h4v4h-4zM272,208h4v4h-4zM284,208h4v4h-4zM292,208h4v4h-4zM300,208h4v4h-4zM304,208h4v4h-4zM308,208h4v4h-4zM312,208h4v4h-4zM320,208h4v4h-4zM324,208h4v4h-4zM328,208h4v4h-4zM332,208h4v4h-4zM336,208h4v4h-4zM340,208h4v4h-4zM344,208h4v4h-4zM348,208h4v4h-4zM360,208h4v4h-4zM368,208h4v4h-4zM376,208h4v4h-4zM392,208h4v4h-4zM0,212h4v4h-4zM4,212h4v4h-4zM20,212h4v4h-4zM24,212h4v4h-4zM36,212h4v4h-4zM40,212h4v4h-4zM44,212h4v4h-4zM60,212h4v4h-4zM68,212h4v4h-4zM72,212h4v4h-4zM92,212h4v4h-4zM96,212h4v4h-4zM108,212h4v4h-4zM112,212h4v4h-4zM116,212h4v4h-4zM124,212h4v4h-4zM128,212h4v4h-4zM136,212h4v4h-4zM148,212h4v4h-4zM152,212h4v4h-4zM156,212h4v4h-4zM172,212h4v4h-4zM180,212h4v4h-4zM184,212h4v4h-4zM188,212h4v4h-4zM192,212h4v4h-4zM196,212h4v4h-4zM200,212h4v4h-4zM212,212h4v4h-4zM216,212h4v4h-4zM220,212h4v4h-4zM224,212h4v4h-4zM228,212h4v4h-4zM236,212h4v4h-4zM244,212h4v4h-4zM252,212h4v4h-4zM264,212h4v4h-4zM268,212h4v4h-4zM276,212h4v4h-4zM280,212h4v4h-4zM284,212h4v4h-4zM292,212h4v4h-4zM300,212h4v4h-4zM320,212h4v4h-4zM352,212h4v4h-4zM356,212h4v4h-4zM360,212h4v4h-4zM368,212h4v4h-4zM376,212h4v4h-4zM380,212h4v4h-4zM388,212h4v4h-4zM392,212h4v4h-4zM0,216h4v4h-4zM8,216h4v4h-4zM16,216h4v4h-4zM20,216h4v4h-4zM28,216h4v4h-4zM32,216h4v4h-4zM36,216h4v4h-4zM48,216h4v4h-4zM56,216h4v4h-4zM60,216h4v4h-4zM68,216h4v4h-4zM76,216h4v4h-4zM88,216h4v4h-4zM92,216h4v4h-4zM100,216h4v4h-4zM104,216h4v4h-4zM108,216h4v4h-4zM124,216h4v4h-4zM136,216h4v4h-4zM140,216h4v4h-4zM144,216h4v4h-4zM148,216h4v4h-4zM160,216h4v4h-4zM168,216h4v4h-4zM172,216h4v4h-4zM180,216h4v4h-4zM204,216h4v4h-4zM208,216h4v4h-4zM212,216h4v4h-4zM236,216h4v4h-4zM244,216h4v4h-4zM252,216h4v4h-4zM256,216h4v4h-4zM260,216h4v4h-4zM264,216h4v4h-4zM276,216h4v4h-4zM292,216h4v4h-4zM300,216h4v4h-4zM304,216h4v4h-4zM316,216h4v4h-4zM320,216h4v4h-4zM324,216h4v4h-4zM348,216h4v4h-4zM352,216h4v4h-4zM368,216h4v4h-4zM376,216h4v4h-4zM388,216h4v4h-4zM0,220h4v4h-4zM8,220h4v4h-4zM16,220h4v4h-4zM28,220h4v4h-4zM40,220h4v4h-4zM44,220h4v4h-4zM48,220h4v4h-4zM56,220h4v4h-4zM68,220h4v4h-4zM76,220h4v4h-4zM80,220h4v4h-4zM84,220h4v4h-4zM88,220h4v4h-4zM100,220h4v4h-4zM112,220h4v4h-4zM120,220h4v4h-4zM124,220h4v4h-4zM128,220h4v4h-4zM132,220h4v4h-4zM136,220h4v4h-4zM152,220h4v4h-4zM156,220h4v4h-4zM160,220h4v4h-4zM168,220h4v4h-4zM180,220h4v4h-4zM184,220h4v4h-4zM200,220h4v4h-4zM204,220h4v4h-4zM216,220h4v4h-4zM232,220h4v4h-4zM236,220h4v4h-4zM244,220h4v4h-4zM252,220h4v4h-4zM268,220h4v4h-4zM272,220h4v4h-4zM276,220h4v4h-4zM280,220h4v4h-4zM288,220h4v4h-4zM292,220h4v4h-4zM300,220h4v4h-4zM308,220h4v4h-4zM312,220h4v4h-4zM316,220h4v4h-4zM328,220h4v4h-4zM344,220h4v4h-4zM348,220h4v4h-4zM356,220h4v4h-4zM364,220h4v4h-4zM368,220h4v4h-4zM376,220h4v4h-4zM380,220h4v4h-4zM384,220h4v4h-4zM388,220h4v4h-4zM392,220h4v4h-4zM396,220h4v4h-4zM8,224h4v4h-4zM16,224h4v4h-4zM20,224h4v4h-4zM24,224h4v4h-4zM28,224h4v4h-4zM32,224h4v4h-4zM36,224h4v4h-4zM40,224h4v4h-4zM56,224h4v4h-4zM60,224h4v4h-4zM64,224h4v4h-4zM68,224h4v4h-4zM76,224h4v4h-4zM92,224h4v4h-4zM96,224h4v4h-4zM100,224h4v4h-4zM104,224h4v4h-4zM108,224h4v4h-4zM112,224h4v4h-4zM120,224h4v4h-4zM140,224h4v4h-4zM148,224h4v4h-4zM152,224h4v4h-4zM168,224h4v4h-4zM172,224h4v4h-4zM176,224h4v4h-4zM180,224h4v4h-4zM188,224h4v4h-4zM196,224h4v4h-4zM200,224h4v4h-4zM208,224h4v4h-4zM212,224h4v4h-4zM216,224h4v4h-4zM220,224h4v4h-4zM228,224h4v4h-4zM232,224h4v4h-4zM244,224h4v4h-4zM252,224h4v4h-4zM256,224h4v4h-4zM264,224h4v4h-4zM268,224h4v4h-4zM288,224h4v4h-4zM300,224h4v4h-4zM308,224h4v4h-4zM320,224h4v4h-4zM324,224h4v4h-4zM328,224h4v4h-4zM332,224h4v4h-4zM340,224h4v4h-4zM344,224h4v4h-4zM356,224h4v4h-4zM364,224h4v4h-4zM376,224h4v4h-4zM4,228h4v4h-4zM8,228h4v4h-4zM16,228h4v4h-4zM44,228h4v4h-4zM52,228h4v4h-4zM56,228h4v4h-4zM76,228h4v4h-4zM80,228h4v4h-4zM88,228h4v4h-4zM92,228h4v4h-4zM120,228h4v4h-4zM124,228h4v4h-4zM136,228h4v4h-4zM140,228h4v4h-4zM148,228h4v4h-4zM156,228h4v4h-4zM164,228h4v4h-4zM168,228h4v4h-4zM188,228h4v4h-4zM196,228h4v4h-4zM208,228h4v4h-4zM228,228h4v4h-4zM236,228h4v4h-4zM240,228h4v4h-4zM244,228h4v4h-4zM252,228h4v4h-4zM264,228h4v4h-4zM272,228h4v4h-4zM284,228h4v4h-4zM288,228h4v4h-4zM292,228h4v4h-4zM296,228h4v4h-4zM300,228h4v4h-4zM308,228h4v4h-4zM312,228h4v4h-4zM316,228h4v4h-4zM320,228h4v4h-4zM340,228h4v4h-4zM348,228h4v4h-4zM352,228h4v4h-4zM356,228h4v4h-4zM364,228h4v4h-4zM368,228h4v4h-4zM372,228h4v4h-4zM376,228h4v4h-4zM380,228h4v4h-4zM0,232h4v4h-4zM4,232h4v4h-4zM16,232h4v4h-4zM20,232h4v4h-4zM40,232h4v4h-4zM44,232h4v4h-4zM52,232h4v4h-4zM60,232h4v4h-4zM72,232h4v4h-4zM76,232h4v4h-4zM88,232h4v4h-4zM96,232h4v4h-4zM116,232h4v4h-4zM120,232h4v4h-4zM128,232h4v4h-4zM132,232h4v4h-4zM136,232h4v4h-4zM148,232h4v4h-4zM156,232h4v4h-4zM164,232h4v4h-4zM172,232h4v4h-4zM184,232h4v4h-4zM188,232h4v4h-4zM196,232h4v4h-4zM200,232h4v4h-4zM204,232h4v4h-4zM208,232h4v4h-4zM212,232h4v4h-4zM224,232h4v4h-4zM228,232h4v4h-4zM236,232h4v4h-4zM252,232h4v4h-4zM256,232h4v4h-4zM260,232h4v4h-4zM264,232h4v4h-4zM272,232h4v4h-4zM276,232h4v4h-4zM280,232h4v4h-4zM284,232h4v4h-4zM308,232h4v4h-4zM324,232h4v4h-4zM336,232h4v4h-4zM340,232h4v4h-4zM348,232h4v4h-4zM364,232h4v4h-4zM384,232h4v4h-4zM0,236h4v4h-4zM8,236h4v4h-4zM12,236h4v4h-4zM16,236h4v4h-4zM24,236h4v4h-4zM36,236h4v4h-4zM40,236h4v4h-4zM52,236h4v4h-4zM60,236h4v4h-4zM64,236h4v4h-4zM68,236h4v4h-4zM72,236h4v4h-4zM80,236h4v4h-4zM84,236h4v4h-4zM88,236h4v4h-4zM96,236h4v4h-4zM100,236h4v4h-4zM112,236h4v4h-4zM116,236h4v4h-4zM128,236h4v4h-4zM140,236h4v4h-4zM144,236h4v4h-4zM148,236h4v4h-4zM156,236h4v4h-4zM164,236h4v4h-4zM172,236h4v4h-4zM176,236h4v4h-4zM180,236h4v4h-4zM184,236h4v4h-4zM196,236h4v4h-4zM216,236h4v4h-4zM220,236h4v4h-4zM224,236h4v4h-4zM236,236h4v4h-4zM240,236h4v4h-4zM248,236h4v4h-4zM252,236h4v4h-4zM272,236h4v4h-4zM288,236h4v4h-4zM304,236h4v4h-4zM308,236h4v4h-4zM312,236h4v4h-4zM320,236h4v4h-4zM324,236h4v4h-4zM328,236h4v4h-4zM332,236h4v4h-4zM336,236h4v4h-4zM348,236h4v4h-4zM352,236h4v4h-4zM360,236h4v4h-4zM364,236h4v4h-4zM368,236h4v4h-4zM380,236h4v4h-4zM384,236h4v4h-4zM388,236h4v4h-4zM396,236h4v4h-4zM8,240h4v4h-4zM24,240h4v4h-4zM28,240h4v4h-4zM32,240h4v4h-4zM36,240h4v4h-4zM44,240h4v4h-4zM48,240h4v4h-4zM52,240h4v4h-4zM60,240h4v4h-4zM80,240h4v4h-4zM96,240h4v4h-4zM104,240h4v4h-4zM108,240h4v4h-4zM112,240h4v4h-4zM120,240h4v4h-4zM124,240h4v4h-4zM128,240h4v4h-4zM132,240h4v4h-4zM136,240h4v4h-4zM140,240h4v4h-4zM156,240h4v4h-4zM164,240h4v4h-4zM172,240h4v4h-4zM188,240h4v4h-4zM192,240h4v4h-4zM196,240h4v4h-4zM200,240h4v4h-4zM212,240h4v4h-4zM216,240h4v4h-4zM228,240h4v4h-4zM232,240h4v4h-4zM236,240h4v4h-4zM248,240h4v4h-4zM256,240h4v4h-4zM268,240h4v4h-4zM272,240h4v4h-4zM276,240h4v4h-4zM284,240h4v4h-4zM288,240h4v4h-4zM292,240h4v4h-4zM300,240h4v4h-4zM304,240h4v4h-4zM320,240h4v4h-4zM340,240h4v4h-4zM344,240h4v4h-4zM348,240h4v4h-4zM360,240h4v4h-4zM372,240h4v4h-4zM376,240h4v4h-4zM380,240h4v4h-4zM396,240h4v4h-4zM0,244h4v4h-4zM4,244h4v4h-4zM8,244h4v4h-4zM12,244h4v4h-4zM20,244h4v4h-4zM24,244h4v4h-4zM44,244h4v4h-4zM60,244h4v4h-4zM64,244h4v4h-4zM76,244h4v4h-4zM80,244h4v4h-4zM84,244h4v4h-4zM92,244h4v4h-4zM96,244h4v4h-4zM104,244h4v4h-4zM120,244h4v4h-4zM144,244h4v4h-4zM152,244h4v4h-4zM156,244h4v4h-4zM164,244h4v4h-4zM172,244h4v4h-4zM176,244h4v4h-4zM184,244h4v4h-4zM188,244h4v4h-4zM204,244h4v4h-4zM208,244h4v4h-4zM212,244h4v4h-4zM220,244h4v4h-4zM224,244h4v4h-4zM228,244h4v4h-4zM240,244h4v4h-4zM244,244h4v4h-4zM248,244h4v4h-4zM256,244h4v4h-4zM260,244h4v4h-4zM264,244h4v4h-4zM268,244h4v4h-4zM284,244h4v4h-4zM300,244h4v4h-4zM308,244h4v4h-4zM316,244h4v4h-4zM320,244h4v4h-4zM324,244h4v4h-4zM336,244h4v4h-4zM340,244h4v4h-4zM352,244h4v4h-4zM356,244h4v4h-4zM360,244h4v4h-4zM364,244h4v4h-4zM368,244h4v4h-4zM372,244h4v4h-4zM384,244h4v4h-4zM392,244h4v4h-4zM396,244h4v4h-4zM20,248h4v4h-4zM28,248h4v4h-4zM40,248h4v4h-4zM44,248h4v4h-4zM48,248h4v4h-4zM56,248h4v4h-4zM60,248h4v4h-4zM68,248h4v4h-4zM72,248h4v4h-4zM76,248h4v4h-4zM92,248h4v4h-4zM104,248h4v4h-4zM108,248h4v4h-4zM116,248h4v4h-4zM120,248h4v4h-4zM124,248h4v4h-4zM140,248h4v4h-4zM144,248h4v4h-4zM152,248h4v4h-4zM164,248h4v4h-4zM172,248h4v4h-4zM184,248h4v4h-4zM192,248h4v4h-4zM200,248h4v4h-4zM204,248h4v4h-4zM220,248h4v4h-4zM232,248h4v4h-4zM236,248h4v4h-4zM240,248h4v4h-4zM256,248h4v4h-4zM272,248h4v4h-4zM280,248h4v4h-4zM284,248h4v4h-4zM288,248h4v4h-4zM296,248h4v4h-4zM300,248h4v4h-4zM308,248h4v4h-4zM316,248h4v4h-4zM328,248h4v4h-4zM332,248h4v4h-4zM336,248h4v4h-4zM344,248h4v4h-4zM348,248h4v4h-4zM352,248h4v4h-4zM376,248h4v4h-4zM380,248h4v4h-4zM384,248h4v4h-4zM392,248h4v4h-4zM16,252h4v4h-4zM20,252h4v4h-4zM28,252h4v4h-4zM32,252h4v4h-4zM36,252h4v4h-4zM40,252h4v4h-4zM56,252h4v4h-4zM68,252h4v4h-4zM80,252h4v4h-4zM88,252h4v4h-4zM92,252h4v4h-4zM96,252h4v4h-4zM100,252h4v4h-4zM104,252h4v4h-4zM116,252h4v4h-4zM128,252h4v4h-4zM136,252h4v4h-4zM140,252h4v4h-4zM152,252h4v4h-4zM156,252h4v4h-4zM160,252h4v4h-4zM164,252h4v4h-4zM172,252h4v4h-4zM176,252h4v4h-4zM180,252h4v4h-4zM184,252h4v4h-4zM192,252h4v4h-4zM200,252h4v4h-4zM208,252h4v4h-4zM216,252h4v4h-4zM220,252h4v4h-4zM224,252h4v4h-4zM228,252h4v4h-4zM232,252h4v4h-4zM244,252h4v4h-4zM252,252h4v4h-4zM256,252h4v4h-4zM260,252h4v4h-4zM268,252h4v4h-4zM272,252h4v4h-4zM280,252h4v4h-4zM296,252h4v4h-4zM308,252h4v4h-4zM316,252h4v4h-4zM320,252h4v4h-4zM324,252h4v4h-4zM328,252h4v4h-4zM344,252h4v4h-4zM356,252h4v4h-4zM372,252h4v4h-4zM376,252h4v4h-4zM392,252h4v4h-4zM396,252h4v4h-4zM0,256h4v4h-4zM12,256h4v4h-4zM16,256h4v4h-4zM28,256h4v4h-4zM44,256h4v4h-4zM52,256h4v4h-4zM56,256h4v4h-4zM60,256h4v4h-4zM64,256h4v4h-4zM68,256h4v4h-4zM72,256h4v4h-4zM76,256h4v4h-4zM80,256h4v4h-4zM88,256h4v4h-4zM108,256h4v4h-4zM112,256h4v4h-4zM116,256h4v4h-4zM120,256h4v4h-4zM124,256h4v4h-4zM128,256h4v4h-4zM136,256h4v4h-4zM144,256h4v4h-4zM148,256h4v4h-4zM152,256h4v4h-4zM172,256h4v4h-4zM192,256h4v4h-4zM200,256h4v4h-4zM208,256h4v4h-4zM216,256h4v4h-4zM236,256h4v4h-4zM240,256h4v4h-4zM244,256h4v4h-4zM252,256h4v4h-4zM268,256h4v4h-4zM280,256h4v4h-4zM284,256h4v4h-4zM292,256h4v4h-4zM296,256h4v4h-4zM300,256h4v4h-4zM304,256h4v4h-4zM308,256h4v4h-4zM316,256h4v4h-4zM332,256h4v4h-4zM340,256h4v4h-4zM344,256h4v4h-4zM348,256h4v4h-4zM352,256h4v4h-4zM356,256h4v4h-4zM360,256h4v4h-4zM368,256h4v4h-4zM372,256h4v4h-4zM380,256h4v4h-4zM388,256h4v4h-4zM392,256h4v4h-4zM0,260h4v4h-4zM4,260h4v4h-4zM8,260h4v4h-4zM12,260h4v4h-4zM20,260h4v4h-4zM24,260h4v4h-4zM28,260h4v4h-4zM32,260h4v4h-4zM40,260h4v4h-4zM44,260h4v4h-4zM52,260h4v4h-4zM88,260h4v4h-4zM92,260h4v4h-4zM104,260h4v4h-4zM108,260h4v4h-4zM136,260h4v4h-4zM144,260h4v4h-4zM156,260h4v4h-4zM168,260h4v4h-4zM172,260h4v4h-4zM176,260h4v4h-4zM188,260h4v4h-4zM192,260h4v4h-4zM200,260h4v4h-4zM208,260h4v4h-4zM216,260h4v4h-4zM220,260h4v4h-4zM232,260h4v4h-4zM236,260h4v4h-4zM252,260h4v4h-4zM256,260h4v4h-4zM264,260h4v4h-4zM268,260h4v4h-4zM272,260h4v4h-4zM276,260h4v4h-4zM280,260h4v4h-4zM292,260h4v4h-4zM316,260h4v4h-4zM320,260h4v4h-4zM328,260h4v4h-4zM332,260h4v4h-4zM340,260h4v4h-4zM368,260h4v4h-4zM380,260h4v4h-4zM388,260h4v4h-4zM0,264h4v4h-4zM20,264h4v4h-4zM40,264h4v4h-4zM52,264h4v4h-4zM56,264h4v4h-4zM84,264h4v4h-4zM88,264h4v4h-4zM96,264h4v4h-4zM100,264h4v4h-4zM104,264h4v4h-4zM112,264h4v4h-4zM132,264h4v4h-4zM136,264h4v4h-4zM144,264h4v4h-4zM148,264h4v4h-4zM152,264h4v4h-4zM156,264h4v4h-4zM160,264h4v4h-4zM164,264h4v4h-4zM168,264h4v4h-4zM180,264h4v4h-4zM184,264h4v4h-4zM188,264h4v4h-4zM200,264h4v4h-4zM208,264h4v4h-4zM216,264h4v4h-4zM224,264h4v4h-4zM228,264h4v4h-4zM232,264h4v4h-4zM240,264h4v4h-4zM248,264h4v4h-4zM252,264h4v4h-4zM264,264h4v4h-4zM284,264h4v4h-4zM288,264h4v4h-4zM292,264h4v4h-4zM296,264h4v4h-4zM312,264h4v4h-4zM316,264h4v4h-4zM328,264h4v4h-4zM340,264h4v4h-4zM344,264h4v4h-4zM364,264h4v4h-4zM368,264h4v4h-4zM372,264h4v4h-4zM376,264h4v4h-4zM380,264h4v4h-4zM388,264h4v4h-4zM392,264h4v4h-4zM396,264h4v4h-4zM4,268h4v4h-4zM16,268h4v4h-4zM20,268h4v4h-4zM24,268h4v4h-4zM36,268h4v4h-4zM40,268h4v4h-4zM44,268h4v4h-4zM48,268h4v4h-4zM52,268h4v4h-4zM60,268h4v4h-4zM80,268h4v4h-4zM84,268h4v4h-4zM96,268h4v4h-4zM112,268h4v4h-4zM116,268h4v4h-4zM128,268h4v4h-4zM132,268h4v4h-4zM144,268h4v4h-4zM172,268h4v4h-4zM176,268h4v4h-4zM180,268h4v4h-4zM192,268h4v4h-4zM196,268h4v4h-4zM200,268h4v4h-4zM208,268h4v4h-4zM216,268h4v4h-4zM224,268h4v4h-4zM240,268h4v4h-4zM248,268h4v4h-4zM256,268h4v4h-4zM260,268h4v4h-4zM264,268h4v4h-4zM268,268h4v4h-4zM280,268h4v4h-4zM284,268h4v4h-4zM300,268h4v4h-4zM308,268h4v4h-4zM312,268h4v4h-4zM320,268h4v4h-4zM324,268h4v4h-4zM328,268h4v4h-4zM332,268h4v4h-4zM336,268h4v4h-4zM340,268h4v4h-4zM348,268h4v4h-4zM360,268h4v4h-4zM364,268h4v4h-4zM388,268h4v4h-4zM0,272h4v4h-4zM4,272h4v4h-4zM8,272h4v4h-4zM12,272h4v4h-4zM16,272h4v4h-4zM28,272h4v4h-4zM32,272h4v4h-4zM36,272h4v4h-4zM60,272h4v4h-4zM64,272h4v4h-4zM76,272h4v4h-4zM80,272h4v4h-4zM88,272h4v4h-4zM92,272h4v4h-4zM96,272h4v4h-4zM100,272h4v4h-4zM108,272h4v4h-4zM112,272h4v4h-4zM120,272h4v4h-4zM124,272h4v4h-4zM128,272h4v4h-4zM136,272h4v4h-4zM140,272h4v4h-4zM144,272h4v4h-4zM148,272h4v4h-4zM168,272h4v4h-4zM172,272h4v4h-4zM184,272h4v4h-4zM188,272h4v4h-4zM192,272h4v4h-4zM208,272h4v4h-4zM216,272h4v4h-4zM224,272h4v4h-4zM228,272h4v4h-4zM236,272h4v4h-4zM240,272h4v4h-4zM248,272h4v4h-4zM256,272h4v4h-4zM272,272h4v4h-4zM276,272h4v4h-4zM280,272h4v4h-4zM288,272h4v4h-4zM296,272h4v4h-4zM300,272h4v4h-4zM308,272h4v4h-4zM320,272h4v4h-4zM348,272h4v4h-4zM352,272h4v4h-4zM356,272h4v4h-4zM360,272h4v4h-4zM368,272h4v4h-4zM384,272h4v4h-4zM388,272h4v4h-4zM392,272h4v4h-4zM0,276h4v4h-4zM20,276h4v4h-4zM24,276h4v4h-4zM28,276h4v4h-4zM40,276h4v4h-4zM56,276h4v4h-4zM60,276h4v4h-4zM68,276h4v4h-4zM72,276h4v4h-4zM76,276h4v4h-4zM88,276h4v4h-4zM108,276h4v4h-4zM120,276h4v4h-4zM136,276h4v4h-4zM152,276h4v4h-4zM164,276h4v4h-4zM168,276h4v4h-4zM176,276h4v4h-4zM180,276h4v4h-4zM184,276h4v4h-4zM196,276h4v4h-4zM204,276h4v4h-4zM208,276h4v4h-4zM216,276h4v4h-4zM224,276h4v4h-4zM236,276h4v4h-4zM248,276h4v4h-4zM256,276h4v4h-4zM260,276h4v4h-4zM268,276h4v4h-4zM272,276h4v4h-4zM288,276h4v4h-4zM296,276h4v4h-4zM308,276h4v4h-4zM312,276h4v4h-4zM316,276h4v4h-4zM320,276h4v4h-4zM324,276h4v4h-4zM344,276h4v4h-4zM348,276h4v4h-4zM368,276h4v4h-4zM372,276h4v4h-4zM380,276h4v4h-4zM384,276h4v4h-4zM0,280h4v4h-4zM4,280h4v4h-4zM16,280h4v4h-4zM20,280h4v4h-4zM32,280h4v4h-4zM36,280h4v4h-4zM40,280h4v4h-4zM44,280h4v4h-4zM52,280h4v4h-4zM56,280h4v4h-4zM68,280h4v4h-4zM80,280h4v4h-4zM84,280h4v4h-4zM88,280h4v4h-4zM92,280h4v4h-4zM104,280h4v4h-4zM108,280h4v4h-4zM112,280h4v4h-4zM116,280h4v4h-4zM120,280h4v4h-4zM124,280h4v4h-4zM132,280h4v4h-4zM136,280h4v4h-4zM140,280h4v4h-4zM148,280h4v4h-4zM152,280h4v4h-4zM156,280h4v4h-4zM160,280h4v4h-4zM164,280h4v4h-4zM176,280h4v4h-4zM188,280h4v4h-4zM192,280h4v4h-4zM196,280h4v4h-4zM204,280h4v4h-4zM216,280h4v4h-4zM224,280h4v4h-4zM228,280h4v4h-4zM232,280h4v4h-4zM236,280h4v4h-4zM240,280h4v4h-4zM244,280h4v4h-4zM248,280h4v4h-4zM256,280h4v4h-4zM268,280h4v4h-4zM276,280h4v4h-4zM284,280h4v4h-4zM288,280h4v4h-4zM296,280h4v4h-4zM300,280h4v4h-4zM304,280h4v4h-4zM308,280h4v4h-4zM328,280h4v4h-4zM340,280h4v4h-4zM344,280h4v4h-4zM352,280h4v4h-4zM364,280h4v4h-4zM368,280h4v4h-4zM380,280h4v4h-4zM388,280h4v4h-4zM396,280h4v4h-4zM8,284h4v4h-4zM12,284h4v4h-4zM16,284h4v4h-4zM24,284h4v4h-4zM28,284h4v4h-4zM32,284h4v4h-4zM52,284h4v4h-4zM60,284h4v4h-4zM64,284h4v4h-4zM68,284h4v4h-4zM72,284h4v4h-4zM76,284h4v4h-4zM80,284h4v4h-4zM96,284h4v4h-4zM100,284h4v4h-4zM104,284h4v4h-4zM132,284h4v4h-4zM148,284h4v4h-4zM168,284h4v4h-4zM172,284h4v4h-4zM176,284h4v4h-4zM180,284h4v4h-4zM184,284h4v4h-4zM188,284h4v4h-4zM204,284h4v4h-4zM208,284h4v4h-4zM212,284h4v4h-4zM216,284h4v4h-4zM224,284h4v4h-4zM256,284h4v4h-4zM260,284h4v4h-4zM264,284h4v4h-4zM268,284h4v4h-4zM276,284h4v4h-4zM284,284h4v4h-4zM296,284h4v4h-4zM312,284h4v4h-4zM324,284h4v4h-4zM328,284h4v4h-4zM332,284h4v4h-4zM336,284h4v4h-4zM340,284h4v4h-4zM352,284h4v4h-4zM356,284h4v4h-4zM360,284h4v4h-4zM364,284h4v4h-4zM372,284h4v4h-4zM376,284h4v4h-4zM380,284h4v4h-4zM388,284h4v4h-4zM396,284h4v4h-4zM0,288h4v4h-4zM4,288h4v4h-4zM8,288h4v4h-4zM24,288h4v4h-4zM36,288h4v4h-4zM48,288h4v4h-4zM52,288h4v4h-4zM60,288h4v4h-4zM84,288h4v4h-4zM92,288h4v4h-4zM96,288h4v4h-4zM108,288h4v4h-4zM128,288h4v4h-4zM132,288h4v4h-4zM136,288h4v4h-4zM144,288h4v4h-4zM148,288h4v4h-4zM152,288h4v4h-4zM164,288h4v4h-4zM168,288h4v4h-4zM192,288h4v4h-4zM200,288h4v4h-4zM204,288h4v4h-4zM224,288h4v4h-4zM228,288h4v4h-4zM252,288h4v4h-4zM256,288h4v4h-4zM276,288h4v4h-4zM284,288h4v4h-4zM288,288h4v4h-4zM292,288h4v4h-4zM296,288h4v4h-4zM300,288h4v4h-4zM308,288h4v4h-4zM312,288h4v4h-4zM316,288h4v4h-4zM320,288h4v4h-4zM324,288h4v4h-4zM344,288h4v4h-4zM348,288h4v4h-4zM352,288h4v4h-4zM372,288h4v4h-4zM388,288h4v4h-4zM396,288h4v4h-4zM12,292h4v4h-4zM20,292h4v4h-4zM24,292h4v4h-4zM28,292h4v4h-4zM32,292h4v4h-4zM36,292h4v4h-4zM40,292h4v4h-4zM44,292h4v4h-4zM48,292h4v4h-4zM60,292h4v4h-4zM64,292h4v4h-4zM80,292h4v4h-4zM84,292h4v4h-4zM92,292h4v4h-4zM100,292h4v4h-4zM104,292h4v4h-4zM108,292h4v4h-4zM112,292h4v4h-4zM124,292h4v4h-4zM128,292h4v4h-4zM144,292h4v4h-4zM156,292h4v4h-4zM160,292h4v4h-4zM164,292h4v4h-4zM172,292h4v4h-4zM188,292h4v4h-4zM192,292h4v4h-4zM200,292h4v4h-4zM208,292h4v4h-4zM220,292h4v4h-4zM224,292h4v4h-4zM232,292h4v4h-4zM248,292h4v4h-4zM252,292h4v4h-4zM260,292h4v4h-4zM272,292h4v4h-4zM276,292h4v4h-4zM284,292h4v4h-4zM308,292h4v4h-4zM328,292h4v4h-4zM340,292h4v4h-4zM344,292h4v4h-4zM356,292h4v4h-4zM368,292h4v4h-4zM372,292h4v4h-4zM376,292h4v4h-4zM384,292h4v4h-4zM388,292h4v4h-4zM396,292h4v4h-4zM0,296h4v4h-4zM8,296h4v4h-4zM12,296h4v4h-4zM20,296h4v4h-4zM52,296h4v4h-4zM56,296h4v4h-4zM60,296h4v4h-4zM68,296h4v4h-4zM76,296h4v4h-4zM80,296h4v4h-4zM92,296h4v4h-4zM100,296h4v4h-4zM116,296h4v4h-4zM120,296h4v4h-4zM124,296h4v4h-4zM132,296h4v4h-4zM140,296h4v4h-4zM144,296h4v4h-4zM148,296h4v4h-4zM152,296h4v4h-4zM156,296h4v4h-4zM172,296h4v4h-4zM176,296h4v4h-4zM184,296h4v4h-4zM188,296h4v4h-4zM200,296h4v4h-4zM208,296h4v4h-4zM212,296h4v4h-4zM216,296h4v4h-4zM220,296h4v4h-4zM232,296h4v4h-4zM236,296h4v4h-4zM244,296h4v4h-4zM248,296h4v4h-4zM260,296h4v4h-4zM264,296h4v4h-4zM268,296h4v4h-4zM272,296h4v4h-4zM284,296h4v4h-4zM288,296h4v4h-4zM304,296h4v4h-4zM308,296h4v4h-4zM312,296h4v4h-4zM324,296h4v4h-4zM328,296h4v4h-4zM332,296h4v4h-4zM336,296h4v4h-4zM340,296h4v4h-4zM348,296h4v4h-4zM352,296h4v4h-4zM356,296h4v4h-4zM360,296h4v4h-4zM364,296h4v4h-4zM368,296h4v4h-4zM384,296h4v4h-4zM396,296h4v4h-4zM8,300h4v4h-4zM20,300h4v4h-4zM24,300h4v4h-4zM48,300h4v4h-4zM52,300h4v4h-4zM68,300h4v4h-4zM76,300h4v4h-4zM84,300h4v4h-4zM88,300h4v4h-4zM92,300h4v4h-4zM100,300h4v4h-4zM104,300h4v4h-4zM112,300h4v4h-4zM116,300h4v4h-4zM132,300h4v4h-4zM140,300h4v4h-4zM160,300h4v4h-4zM168,300h4v4h-4zM172,300h4v4h-4zM184,300h4v4h-4zM192,300h4v4h-4zM196,300h4v4h-4zM200,300h4v4h-4zM208,300h4v4h-4zM224,300h4v4h-4zM228,300h4v4h-4zM232,300h4v4h-4zM244,300h4v4h-4zM252,300h4v4h-4zM256,300h4v4h-4zM260,300h4v4h-4zM276,300h4v4h-4zM280,300h4v4h-4zM284,300h4v4h-4zM292,300h4v4h-4zM300,300h4v4h-4zM304,300h4v4h-4zM316,300h4v4h-4zM320,300h4v4h-4zM324,300h4v4h-4zM348,300h4v4h-4zM372,300h4v4h-4zM380,300h4v4h-4zM384,300h4v4h-4zM388,300h4v4h-4zM392,300h4v4h-4zM396,300h4v4h-4zM0,304h4v4h-4zM4,304h4v4h-4zM8,304h4v4h-4zM12,304h4v4h-4zM16,304h4v4h-4zM20,304h4v4h-4zM28,304h4v4h-4zM44,304h4v4h-4zM48,304h4v4h-4zM56,304h4v4h-4zM64,304h4v4h-4zM68,304h4v4h-4zM76,304h4v4h-4zM84,304h4v4h-4zM100,304h4v4h-4zM112,304h4v4h-4zM120,304h4v4h-4zM128,304h4v4h-4zM132,304h4v4h-4zM140,304h4v4h-4zM144,304h4v4h-4zM156,304h4v4h-4zM160,304h4v4h-4zM168,304h4v4h-4zM176,304h4v4h-4zM180,304h4v4h-4zM184,304h4v4h-4zM192,304h4v4h-4zM208,304h4v4h-4zM212,304h4v4h-4zM220,304h4v4h-4zM224,304h4v4h-4zM236,304h4v4h-4zM240,304h4v4h-4zM244,304h4v4h-4zM252,304h4v4h-4zM264,304h4v4h-4zM272,304h4v4h-4zM276,304h4v4h-4zM292,304h4v4h-4zM300,304h4v4h-4zM308,304h4v4h-4zM312,304h4v4h-4zM316,304h4v4h-4zM328,304h4v4h-4zM344,304h4v4h-4zM348,304h4v4h-4zM352,304h4v4h-4zM368,304h4v4h-4zM372,304h4v4h-4zM380,304h4v4h-4zM0,308h4v4h-4zM28,308h4v4h-4zM32,308h4v4h-4zM40,308h4v4h-4zM44,308h4v4h-4zM56,308h4v4h-4zM64,308h4v4h-4zM76,308h4v4h-4zM84,308h4v4h-4zM88,308h4v4h-4zM96,308h4v4h-4zM100,308h4v4h-4zM104,308h4v4h-4zM108,308h4v4h-4zM112,308h4v4h-4zM120,308h4v4h-4zM128,308h4v4h-4zM140,308h4v4h-4zM148,308h4v4h-4zM152,308h4v4h-4zM156,308h4v4h-4zM168,308h4v4h-4zM176,308h4v4h-4zM192,308h4v4h-4zM196,308h4v4h-4zM204,308h4v4h-4zM208,308h4v4h-4zM220,308h4v4h-4zM228,308h4v4h-4zM232,308h4v4h-4zM236,308h4v4h-4zM252,308h4v4h-4zM256,308h4v4h-4zM260,308h4v4h-4zM264,308h4v4h-4zM272,308h4v4h-4zM280,308h4v4h-4zM288,308h4v4h-4zM292,308h4v4h-4zM300,308h4v4h-4zM308,308h4v4h-4zM320,308h4v4h-4zM324,308h4v4h-4zM328,308h4v4h-4zM332,308h4v4h-4zM340,308h4v4h-4zM344,308h4v4h-4zM356,308h4v4h-4zM364,308h4v4h-4zM368,308h4v4h-4zM380,308h4v4h-4zM384,308h4v4h-4zM396,308h4v4h-4zM4,312h4v4h-4zM24,312h4v4h-4zM28,312h4v4h-4zM40,312h4v4h-4zM48,312h4v4h-4zM52,312h4v4h-4zM56,312h4v4h-4zM64,312h4v4h-4zM68,312h4v4h-4zM72,312h4v4h-4zM76,312h4v4h-4zM84,312h4v4h-4zM96,312h4v4h-4zM120,312h4v4h-4zM128,312h4v4h-4zM132,312h4v4h-4zM136,312h4v4h-4zM140,312h4v4h-4zM148,312h4v4h-4zM160,312h4v4h-4zM164,312h4v4h-4zM168,312h4v4h-4zM176,312h4v4h-4zM180,312h4v4h-4zM188,312h4v4h-4zM192,312h4v4h-4zM204,312h4v4h-4zM212,312h4v4h-4zM216,312h4v4h-4zM220,312h4v4h-4zM228,312h4v4h-4zM240,312h4v4h-4zM248,312h4v4h-4zM252,312h4v4h-4zM272,312h4v4h-4zM280,312h4v4h-4zM288,312h4v4h-4zM300,312h4v4h-4zM308,312h4v4h-4zM312,312h4v4h-4zM316,312h4v4h-4zM320,312h4v4h-4zM340,312h4v4h-4zM348,312h4v4h-4zM352,312h4v4h-4zM356,312h4v4h-4zM364,312h4v4h-4zM372,312h4v4h-4zM376,312h4v4h-4zM380,312h4v4h-4zM388,312h4v4h-4zM392,312h4v4h-4zM396,312h4v4h-4zM4,316h4v4h-4zM8,316h4v4h-4zM20,316h4v4h-4zM24,316h4v4h-4zM32,316h4v4h-4zM36,316h4v4h-4zM40,316h4v4h-4zM48,316h4v4h-4zM64,316h4v4h-4zM84,316h4v4h-4zM88,316h4v4h-4zM92,316h4v4h-4zM96,316h4v4h-4zM100,316h4v4h-4zM116,316h4v4h-4zM120,316h4v4h-4zM128,316h4v4h-4zM148,316h4v4h-4zM152,316h4v4h-4zM156,316h4v4h-4zM160,316h4v4h-4zM176,316h4v4h-4zM188,316h4v4h-4zM196,316h4v4h-4zM200,316h4v4h-4zM204,316h4v4h-4zM212,316h4v4h-4zM228,316h4v4h-4zM232,316h4v4h-4zM236,316h4v4h-4zM240,316h4v4h-4zM248,316h4v4h-4zM256,316h4v4h-4zM268,316h4v4h-4zM272,316h4v4h-4zM280,316h4v4h-4zM288,316h4v4h-4zM292,316h4v4h-4zM296,316h4v4h-4zM300,316h4v4h-4zM308,316h4v4h-4zM324,316h4v4h-4zM336,316h4v4h-4zM340,316h4v4h-4zM348,316h4v4h-4zM364,316h4v4h-4zM372,316h4v4h-4zM388,316h4v4h-4zM0,320h4v4h-4zM4,320h4v4h-4zM12,320h4v4h-4zM16,320h4v4h-4zM20,320h4v4h-4zM32,320h4v4h-4zM48,320h4v4h-4zM52,320h4v4h-4zM60,320h4v4h-4zM64,320h4v4h-4zM68,320h4v4h-4zM80,320h4v4h-4zM84,320h4v4h-4zM104,320h4v4h-4zM112,320h4v4h-4zM116,320h4v4h-4zM128,320h4v4h-4zM132,320h4v4h-4zM144,320h4v4h-4zM148,320h4v4h-4zM164,320h4v4h-4zM172,320h4v4h-4zM176,320h4v4h-4zM180,320h4v4h-4zM184,320h4v4h-4zM188,320h4v4h-4zM196,320h4v4h-4zM212,320h4v4h-4zM216,320h4v4h-4zM224,320h4v4h-4zM228,320h4v4h-4zM248,320h4v4h-4zM256,320h4v4h-4zM260,320h4v4h-4zM264,320h4v4h-4zM268,320h4v4h-4zM280,320h4v4h-4zM288,320h4v4h-4zM308,320h4v4h-4zM312,320h4v4h-4zM320,320h4v4h-4zM324,320h4v4h-4zM328,320h4v4h-4zM332,320h4v4h-4zM336,320h4v4h-4zM348,320h4v4h-4zM352,320h4v4h-4zM360,320h4v4h-4zM364,320h4v4h-4zM372,320h4v4h-4zM376,320h4v4h-4zM384,320h4v4h-4zM388,320h4v4h-4zM392,320h4v4h-4zM0,324h4v4h-4zM12,324h4v4h-4zM24,324h4v4h-4zM28,324h4v4h-4zM32,324h4v4h-4zM36,324h4v4h-4zM44,324h4v4h-4zM48,324h4v4h-4zM60,324h4v4h-4zM72,324h4v4h-4zM76,324h4v4h-4zM80,324h4v4h-4zM88,324h4v4h-4zM100,324h4v4h-4zM104,324h4v4h-4zM112,324h4v4h-4zM120,324h4v4h-4zM124,324h4v4h-4zM128,324h4v4h-4zM136,324h4v4h-4zM140,324h4v4h-4zM144,324h4v4h-4zM152,324h4v4h-4zM160,324h4v4h-4zM164,324h4v4h-4zM172,324h4v4h-4zM196,324h4v4h-4zM200,324h4v4h-4zM208,324h4v4h-4zM212,324h4v4h-4zM224,324h4v4h-4zM232,324h4v4h-4zM244,324h4v4h-4zM248,324h4v4h-4zM256,324h4v4h-4zM272,324h4v4h-4zM276,324h4v4h-4zM280,324h4v4h-4zM288,324h4v4h-4zM292,324h4v4h-4zM304,324h4v4h-4zM308,324h4v4h-4zM320,324h4v4h-4zM340,324h4v4h-4zM344,324h4v4h-4zM348,324h4v4h-4zM360,324h4v4h-4zM372,324h4v4h-4zM384,324h4v4h-4zM0,328h4v4h-4zM4,328h4v4h-4zM8,328h4v4h-4zM12,328h4v4h-4zM16,328h4v4h-4zM20,328h4v4h-4zM24,328h4v4h-4zM44,328h4v4h-4zM52,328h4v4h-4zM56,328h4v4h-4zM60,328h4v4h-4zM64,328h4v4h-4zM68,328h4v4h-4zM72,328h4v4h-4zM88,328h4v4h-4zM92,328h4v4h-4zM96,328h4v4h-4zM100,328h4v4h-4zM112,328h4v4h-4zM120,328h4v4h-4zM136,328h4v4h-4zM152,328h4v4h-4zM160,328h4v4h-4zM172,328h4v4h-4zM176,328h4v4h-4zM192,328h4v4h-4zM196,328h4v4h-4zM208,328h4v4h-4zM216,328h4v4h-4zM220,328h4v4h-4zM224,328h4v4h-4zM232,328h4v4h-4zM236,328h4v4h-4zM240,328h4v4h-4zM244,328h4v4h-4zM256,328h4v4h-4zM260,328h4v4h-4zM268,328h4v4h-4zM272,328h4v4h-4zM288,328h4v4h-4zM296,328h4v4h-4zM300,328h4v4h-4zM304,328h4v4h-4zM312,328h4v4h-4zM316,328h4v4h-4zM320,328h4v4h-4zM324,328h4v4h-4zM336,328h4v4h-4zM340,328h4v4h-4zM352,328h4v4h-4zM356,328h4v4h-4zM360,328h4v4h-4zM364,328h4v4h-4zM368,328h4v4h-4zM372,328h4v4h-4zM376,328h4v4h-4zM380,328h4v4h-4zM384,328h4v4h-4zM388,328h4v4h-4zM396,328h4v4h-4zM28,332h4v4h-4zM40,332h4v4h-4zM44,332h4v4h-4zM52,332h4v4h-4zM76,332h4v4h-4zM84,332h4v4h-4zM88,332h4v4h-4zM104,332h4v4h-4zM108,332h4v4h-4zM112,332h4v4h-4zM120,332h4v4h-4zM124,332h4v4h-4zM132,332h4v4h-4zM136,332h4v4h-4zM140,332h4v4h-4zM148,332h4v4h-4zM152,332h4v4h-4zM160,332h4v4h-4zM164,332h4v4h-4zM168,332h4v4h-4zM172,332h4v4h-4zM180,332h4v4h-4zM188,332h4v4h-4zM192,332h4v4h-4zM200,332h4v4h-4zM204,332h4v4h-4zM208,332h4v4h-4zM216,332h4v4h-4zM232,332h4v4h-4zM248,332h4v4h-4zM252,332h4v4h-4zM256,332h4v4h-4zM268,332h4v4h-4zM276,332h4v4h-4zM284,332h4v4h-4zM288,332h4v4h-4zM296,332h4v4h-4zM312,332h4v4h-4zM328,332h4v4h-4zM332,332h4v4h-4zM336,332h4v4h-4zM344,332h4v4h-4zM348,332h4v4h-4zM352,332h4v4h-4zM396,332h4v4h-4zM0,336h4v4h-4zM24,336h4v4h-4zM28,336h4v4h-4zM32,336h4v4h-4zM36,336h4v4h-4zM40,336h4v4h-4zM52,336h4v4h-4zM56,336h4v4h-4zM72,336h4v4h-4zM76,336h4v4h-4zM84,336h4v4h-4zM92,336h4v4h-4zM100,336h4v4h-4zM104,336h4v4h-4zM120,336h4v4h-4zM132,336h4v4h-4zM148,336h4v4h-4zM160,336h4v4h-4zM180,336h4v4h-4zM188,336h4v4h-4zM200,336h4v4h-4zM216,336h4v4h-4zM220,336h4v4h-4zM228,336h4v4h-4zM232,336h4v4h-4zM236,336h4v4h-4zM244,336h4v4h-4zM248,336h4v4h-4zM260,336h4v4h-4zM264,336h4v4h-4zM268,336h4v4h-4zM276,336h4v4h-4zM284,336h4v4h-4zM296,336h4v4h-4zM300,336h4v4h-4zM308,336h4v4h-4zM312,336h4v4h-4zM316,336h4v4h-4zM324,336h4v4h-4zM328,336h4v4h-4zM344,336h4v4h-4zM356,336h4v4h-4zM392,336h4v4h-4zM396,336h4v4h-4zM4,340h4v4h-4zM20,340h4v4h-4zM24,340h4v4h-4zM44,340h4v4h-4zM48,340h4v4h-4zM52,340h4v4h-4zM60,340h4v4h-4zM68,340h4v4h-4zM72,340h4v4h-4zM84,340h4v4h-4zM92,340h4v4h-4zM100,340h4v4h-4zM108,340h4v4h-4zM116,340h4v4h-4zM120,340h4v4h-4zM124,340h4v4h-4zM128,340h4v4h-4zM132,340h4v4h-4zM136,340h4v4h-4zM144,340h4v4h-4zM148,340h4v4h-4zM152,340h4v4h-4zM156,340h4v4h-4zM160,340h4v4h-4zM164,340h4v4h-4zM176,340h4v4h-4zM180,340h4v4h-4zM188,340h4v4h-4zM192,340h4v4h-4zM196,340h4v4h-4zM200,340h4v4h-4zM204,340h4v4h-4zM212,340h4v4h-4zM216,340h4v4h-4zM228,340h4v4h-4zM244,340h4v4h-4zM252,340h4v4h-4zM256,340h4v4h-4zM260,340h4v4h-4zM276,340h4v4h-4zM284,340h4v4h-4zM288,340h4v4h-4zM292,340h4v4h-4zM296,340h4v4h-4zM308,340h4v4h-4zM324,340h4v4h-4zM332,340h4v4h-4zM340,340h4v4h-4zM344,340h4v4h-4zM348,340h4v4h-4zM352,340h4v4h-4zM356,340h4v4h-4zM360,340h4v4h-4zM388,340h4v4h-4zM392,340h4v4h-4zM0,344h4v4h-4zM4,344h4v4h-4zM8,344h4v4h-4zM16,344h4v4h-4zM20,344h4v4h-4zM28,344h4v4h-4zM40,344h4v4h-4zM44,344h4v4h-4zM60,344h4v4h-4zM68,344h4v4h-4zM76,344h4v4h-4zM80,344h4v4h-4zM84,344h4v4h-4zM92,344h4v4h-4zM100,344h4v4h-4zM108,344h4v4h-4zM116,344h4v4h-4zM144,344h4v4h-4zM168,344h4v4h-4zM172,344h4v4h-4zM176,344h4v4h-4zM188,344h4v4h-4zM212,344h4v4h-4zM220,344h4v4h-4zM224,344h4v4h-4zM228,344h4v4h-4zM232,344h4v4h-4zM240,344h4v4h-4zM244,344h4v4h-4zM252,344h4v4h-4zM264,344h4v4h-4zM272,344h4v4h-4zM276,344h4v4h-4zM284,344h4v4h-4zM300,344h4v4h-4zM304,344h4v4h-4zM308,344h4v4h-4zM312,344h4v4h-4zM320,344h4v4h-4zM324,344h4v4h-4zM332,344h4v4h-4zM340,344h4v4h-4zM364,344h4v4h-4zM384,344h4v4h-4zM388,344h4v4h-4zM396,344h4v4h-4zM16,348h4v4h-4zM28,348h4v4h-4zM32,348h4v4h-4zM36,348h4v4h-4zM40,348h4v4h-4zM48,348h4v4h-4zM56,348h4v4h-4zM60,348h4v4h-4zM68,348h4v4h-4zM76,348h4v4h-4zM92,348h4v4h-4zM100,348h4v4h-4zM108,348h4v4h-4zM116,348h4v4h-4zM120,348h4v4h-4zM140,348h4v4h-4zM144,348h4v4h-4zM148,348h4v4h-4zM164,348h4v4h-4zM168,348h4v4h-4zM180,348h4v4h-4zM184,348h4v4h-4zM188,348h4v4h-4zM192,348h4v4h-4zM208,348h4v4h-4zM212,348h4v4h-4zM220,348h4v4h-4zM240,348h4v4h-4zM252,348h4v4h-4zM256,348h4v4h-4zM260,348h4v4h-4zM264,348h4v4h-4zM272,348h4v4h-4zM284,348h4v4h-4zM288,348h4v4h-4zM296,348h4v4h-4zM300,348h4v4h-4zM320,348h4v4h-4zM332,348h4v4h-4zM340,348h4v4h-4zM344,348h4v4h-4zM360,348h4v4h-4zM364,348h4v4h-4zM368,348h4v4h-4zM380,348h4v4h-4zM384,348h4v4h-4zM396,348h4v4h-4zM0,352h4v4h-4zM12,352h4v4h-4zM16,352h4v4h-4zM20,352h4v4h-4zM24,352h4v4h-4zM28,352h4v4h-4zM48,352h4v4h-4zM56,352h4v4h-4zM68,352h4v4h-4zM76,352h4v4h-4zM80,352h4v4h-4zM88,352h4v4h-4zM92,352h4v4h-4zM100,352h4v4h-4zM108,352h4v4h-4zM116,352h4v4h-4zM124,352h4v4h-4zM136,352h4v4h-4zM140,352h4v4h-4zM152,352h4v4h-4zM160,352h4v4h-4zM164,352h4v4h-4zM172,352h4v4h-4zM176,352h4v4h-4zM180,352h4v4h-4zM196,352h4v4h-4zM204,352h4v4h-4zM208,352h4v4h-4zM220,352h4v4h-4zM224,352h4v4h-4zM236,352h4v4h-4zM240,352h4v4h-4zM244,352h4v4h-4zM248,352h4v4h-4zM252,352h4v4h-4zM272,352h4v4h-4zM276,352h4v4h-4zM280,352h4v4h-4zM284,352h4v4h-4zM296,352h4v4h-4zM304,352h4v4h-4zM316,352h4v4h-4zM320,352h4v4h-4zM324,352h4v4h-4zM328,352h4v4h-4zM332,352h4v4h-4zM340,352h4v4h-4zM348,352h4v4h-4zM356,352h4v4h-4zM360,352h4v4h-4zM372,352h4v4h-4zM376,352h4v4h-4zM380,352h4v4h-4zM388,352h4v4h-4zM392,352h4v4h-4zM396,352h4v4h-4zM4,356h4v4h-4zM8,356h4v4h-4zM12,356h4v4h-4zM32,356h4v4h-4zM44,356h4v4h-4zM48,356h4v4h-4zM56,356h4v4h-4zM60,356h4v4h-4zM64,356h4v4h-4zM68,356h4v4h-4zM76,356h4v4h-4zM88,356h4v4h-4zM100,356h4v4h-4zM108,356h4v4h-4zM116,356h4v4h-4zM124,356h4v4h-4zM128,356h4v4h-4zM132,356h4v4h-4zM136,356h4v4h-4zM144,356h4v4h-4zM148,356h4v4h-4zM152,356h4v4h-4zM160,356h4v4h-4zM172,356h4v4h-4zM184,356h4v4h-4zM192,356h4v4h-4zM196,356h4v4h-4zM204,356h4v4h-4zM212,356h4v4h-4zM216,356h4v4h-4zM220,356h4v4h-4zM228,356h4v4h-4zM232,356h4v4h-4zM236,356h4v4h-4zM256,356h4v4h-4zM268,356h4v4h-4zM272,356h4v4h-4zM288,356h4v4h-4zM292,356h4v4h-4zM296,356h4v4h-4zM304,356h4v4h-4zM308,356h4v4h-4zM312,356h4v4h-4zM316,356h4v4h-4zM340,356h4v4h-4zM348,356h4v4h-4zM356,356h4v4h-4zM364,356h4v4h-4zM368,356h4v4h-4zM372,356h4v4h-4zM388,356h4v4h-4zM0,360h4v4h-4zM4,360h4v4h-4zM16,360h4v4h-4zM28,360h4v4h-4zM32,360h4v4h-4zM36,360h4v4h-4zM40,360h4v4h-4zM44,360h4v4h-4zM56,360h4v4h-4zM76,360h4v4h-4zM80,360h4v4h-4zM84,360h4v4h-4zM88,360h4v4h-4zM92,360h4v4h-4zM96,360h4v4h-4zM100,360h4v4h-4zM108,360h4v4h-4zM116,360h4v4h-4zM124,360h4v4h-4zM144,360h4v4h-4zM160,360h4v4h-4zM164,360h4v4h-4zM168,360h4v4h-4zM172,360h4v4h-4zM176,360h4v4h-4zM180,360h4v4h-4zM184,360h4v4h-4zM192,360h4v4h-4zM204,360h4v4h-4zM212,360h4v4h-4zM228,360h4v4h-4zM240,360h4v4h-4zM252,360h4v4h-4zM256,360h4v4h-4zM260,360h4v4h-4zM264,360h4v4h-4zM268,360h4v4h-4zM276,360h4v4h-4zM284,360h4v4h-4zM288,360h4v4h-4zM304,360h4v4h-4zM320,360h4v4h-4zM336,360h4v4h-4zM340,360h4v4h-4zM348,360h4v4h-4zM356,360h4v4h-4zM364,360h4v4h-4zM376,360h4v4h-4zM384,360h4v4h-4zM388,360h4v4h-4zM392,360h4v4h-4zM0,364h4v4h-4zM8,364h4v4h-4zM12,364h4v4h-4zM16,364h4v4h-4zM20,364h4v4h-4zM24,364h4v4h-4zM28,364h4v4h-4zM48,364h4v4h-4zM52,364h4v4h-4zM56,364h4v4h-4zM60,364h4v4h-4zM72,364h4v4h-4zM76,364h4v4h-4zM108,364h4v4h-4zM116,364h4v4h-4zM124,364h4v4h-4zM128,364h4v4h-4zM140,364h4v4h-4zM144,364h4v4h-4zM148,364h4v4h-4zM156,364h4v4h-4zM160,364h4v4h-4zM192,364h4v4h-4zM196,364h4v4h-4zM200,364h4v4h-4zM204,364h4v4h-4zM212,364h4v4h-4zM216,364h4v4h-4zM224,364h4v4h-4zM228,364h4v4h-4zM232,364h4v4h-4zM236,364h4v4h-4zM240,364h4v4h-4zM244,364h4v4h-4zM248,364h4v4h-4zM252,364h4v4h-4zM276,364h4v4h-4zM284,364h4v4h-4zM292,364h4v4h-4zM300,364h4v4h-4zM304,364h4v4h-4zM308,364h4v4h-4zM316,364h4v4h-4zM320,364h4v4h-4zM324,364h4v4h-4zM332,364h4v4h-4zM336,364h4v4h-4zM348,364h4v4h-4zM356,364h4v4h-4zM364,364h4v4h-4zM368,364h4v4h-4zM372,364h4v4h-4zM376,364h4v4h-4zM384,364h4v4h-4zM0,368h4v4h-4zM8,368h4v4h-4zM32,368h4v4h-4zM44,368h4v4h-4zM48,368h4v4h-4zM64,368h4v4h-4zM68,368h4v4h-4zM72,368h4v4h-4zM80,368h4v4h-4zM104,368h4v4h-4zM108,368h4v4h-4zM116,368h4v4h-4zM124,368h4v4h-4zM132,368h4v4h-4zM136,368h4v4h-4zM140,368h4v4h-4zM156,368h4v4h-4zM164,368h4v4h-4zM188,368h4v4h-4zM192,368h4v4h-4zM212,368h4v4h-4zM224,368h4v4h-4zM256,368h4v4h-4zM272,368h4v4h-4zM276,368h4v4h-4zM284,368h4v4h-4zM292,368h4v4h-4zM300,368h4v4h-4zM316,368h4v4h-4zM332,368h4v4h-4zM340,368h4v4h-4zM344,368h4v4h-4zM348,368h4v4h-4zM356,368h4v4h-4zM364,368h4v4h-4zM384,368h4v4h-4zM388,368h4v4h-4zM396,368h4v4h-4zM8,372h4v4h-4zM12,372h4v4h-4zM28,372h4v4h-4zM32,372h4v4h-4zM36,372h4v4h-4zM40,372h4v4h-4zM44,372h4v4h-4zM52,372h4v4h-4zM60,372h4v4h-4zM64,372h4v4h-4zM80,372h4v4h-4zM84,372h4v4h-4zM100,372h4v4h-4zM104,372h4v4h-4zM116,372h4v4h-4zM124,372h4v4h-4zM132,372h4v4h-4zM144,372h4v4h-4zM152,372h4v4h-4zM156,372h4v4h-4zM164,372h4v4h-4zM168,372h4v4h-4zM184,372h4v4h-4zM188,372h4v4h-4zM196,372h4v4h-4zM208,372h4v4h-4zM212,372h4v4h-4zM216,372h4v4h-4zM220,372h4v4h-4zM224,372h4v4h-4zM228,372h4v4h-4zM252,372h4v4h-4zM256,372h4v4h-4zM260,372h4v4h-4zM268,372h4v4h-4zM272,372h4v4h-4zM284,372h4v4h-4zM292,372h4v4h-4zM300,372h4v4h-4zM304,372h4v4h-4zM312,372h4v4h-4zM316,372h4v4h-4zM320,372h4v4h-4zM328,372h4v4h-4zM332,372h4v4h-4zM340,372h4v4h-4zM356,372h4v4h-4zM364,372h4v4h-4zM368,372h4v4h-4zM380,372h4v4h-4zM384,372h4v4h-4zM396,372h4v4h-4zM0,376h4v4h-4zM4,376h4v4h-4zM8,376h4v4h-4zM16,376h4v4h-4zM24,376h4v4h-4zM28,376h4v4h-4zM52,376h4v4h-4zM60,376h4v4h-4zM68,376h4v4h-4zM76,376h4v4h-4zM80,376h4v4h-4zM88,376h4v4h-4zM96,376h4v4h-4zM100,376h4v4h-4zM108,376h4v4h-4zM112,376h4v4h-4zM116,376h4v4h-4zM124,376h4v4h-4zM132,376h4v4h-4zM136,376h4v4h-4zM140,376h4v4h-4zM144,376h4v4h-4zM152,376h4v4h-4zM164,376h4v4h-4zM172,376h4v4h-4zM180,376h4v4h-4zM184,376h4v4h-4zM196,376h4v4h-4zM200,376h4v4h-4zM204,376h4v4h-4zM208,376h4v4h-4zM232,376h4v4h-4zM248,376h4v4h-4zM252,376h4v4h-4zM268,376h4v4h-4zM276,376h4v4h-4zM280,376h4v4h-4zM284,376h4v4h-4zM292,376h4v4h-4zM300,376h4v4h-4zM312,376h4v4h-4zM328,376h4v4h-4zM340,376h4v4h-4zM344,376h4v4h-4zM352,376h4v4h-4zM356,376h4v4h-4zM364,376h4v4h-4zM372,376h4v4h-4zM376,376h4v4h-4zM380,376h4v4h-4zM388,376h4v4h-4zM392,376h4v4h-4zM396,376h4v4h-4zM16,380h4v4h-4zM24,380h4v4h-4zM32,380h4v4h-4zM48,380h4v4h-4zM52,380h4v4h-4zM60,380h4v4h-4zM68,380h4v4h-4zM76,380h4v4h-4zM88,380h4v4h-4zM96,380h4v4h-4zM108,380h4v4h-4zM124,380h4v4h-4zM132,380h4v4h-4zM152,380h4v4h-4zM156,380h4v4h-4zM160,380h4v4h-4zM164,380h4v4h-4zM172,380h4v4h-4zM180,380h4v4h-4zM188,380h4v4h-4zM192,380h4v4h-4zM196,380h4v4h-4zM212,380h4v4h-4zM228,380h4v4h-4zM232,380h4v4h-4zM236,380h4v4h-4zM244,380h4v4h-4zM248,380h4v4h-4zM256,380h4v4h-4zM264,380h4v4h-4zM268,380h4v4h-4zM276,380h4v4h-4zM292,380h4v4h-4zM300,380h4v4h-4zM304,380h4v4h-4zM308,380h4v4h-4zM312,380h4v4h-4zM316,380h4v4h-4zM324,380h4v4h-4zM328,380h4v4h-4zM332,380h4v4h-4zM336,380h4v4h-4zM340,380h4v4h-4zM352,380h4v4h-4zM364,380h4v4h-4zM372,380h4v4h-4zM388,380h4v4h-4zM12,384h4v4h-4zM16,384h4v4h-4zM24,384h4v4h-4zM32,384h4v4h-4zM36,384h4v4h-4zM44,384h4v4h-4zM48,384h4v4h-4zM60,384h4v4h-4zM68,384h4v4h-4zM76,384h4v4h-4zM80,384h4v4h-4zM84,384h4v4h-4zM88,384h4v4h-4zM96,384h4v4h-4zM100,384h4v4h-4zM104,384h4v4h-4zM108,384h4v4h-4zM112,384h4v4h-4zM120,384h4v4h-4zM124,384h4v4h-4zM132,384h4v4h-4zM136,384h4v4h-4zM148,384h4v4h-4zM152,384h4v4h-4zM172,384h4v4h-4zM180,384h4v4h-4zM188,384h4v4h-4zM200,384h4v4h-4zM208,384h4v4h-4zM212,384h4v4h-4zM216,384h4v4h-4zM224,384h4v4h-4zM228,384h4v4h-4zM244,384h4v4h-4zM256,384h4v4h-4zM264,384h4v4h-4zM276,384h4v4h-4zM280,384h4v4h-4zM288,384h4v4h-4zM292,384h4v4h-4zM300,384h4v4h-4zM324,384h4v4h-4zM344,384h4v4h-4zM348,384h4v4h-4zM352,384h4v4h-4zM356,384h4v4h-4zM360,384h4v4h-4zM364,384h4v4h-4zM372,384h4v4h-4zM376,384h4v4h-4zM384,384h4v4h-4zM388,384h4v4h-4zM392,384h4v4h-4zM8,388h4v4h-4zM12,388h4v4h-4zM24,388h4v4h-4zM32,388h4v4h-4zM44,388h4v4h-4zM52,388h4v4h-4zM56,388h4v4h-4zM60,388h4v4h-4zM68,388h4v4h-4zM76,388h4v4h-4zM96,388h4v4h-4zM120,388h4v4h-4zM132,388h4v4h-4zM140,388h4v4h-4zM144,388h4v4h-4zM148,388h4v4h-4zM156,388h4v4h-4zM168,388h4v4h-4zM172,388h4v4h-4zM180,388h4v4h-4zM188,388h4v4h-4zM192,388h4v4h-4zM196,388h4v4h-4zM200,388h4v4h-4zM208,388h4v4h-4zM224,388h4v4h-4zM232,388h4v4h-4zM240,388h4v4h-4zM244,388h4v4h-4zM248,388h4v4h-4zM252,388h4v4h-4zM256,388h4v4h-4zM264,388h4v4h-4zM268,388h4v4h-4zM272,388h4v4h-4zM276,388h4v4h-4zM288,388h4v4h-4zM300,388h4v4h-4zM304,388h4v4h-4zM320,388h4v4h-4zM324,388h4v4h-4zM328,388h4v4h-4zM340,388h4v4h-4zM344,388h4v4h-4zM372,388h4v4h-4zM384,388h4v4h-4zM396,388h4v4h-4zM0,392h4v4h-4zM4,392h4v4h-4zM8,392h4v4h-4zM16,392h4v4h-4zM20,392h4v4h-4zM24,392h4v4h-4zM32,392h4v4h-4zM36,392h4v4h-4zM40,392h4v4h-4zM44,392h4v4h-4zM52,392h4v4h-4zM68,392h4v4h-4zM76,392h4v4h-4zM80,392h4v4h-4zM92,392h4v4h-4zM96,392h4v4h-4zM100,392h4v4h-4zM116,392h4v4h-4zM120,392h4v4h-4zM124,392h4v4h-4zM128,392h4v4h-4zM132,392h4v4h-4zM140,392h4v4h-4zM156,392h4v4h-4zM160,392h4v4h-4zM164,392h4v4h-4zM168,392h4v4h-4zM180,392h4v4h-4zM188,392h4v4h-4zM208,392h4v4h-4zM212,392h4v4h-4zM220,392h4v4h-4zM224,392h4v4h-4zM232,392h4v4h-4zM240,392h4v4h-4zM264,392h4v4h-4zM280,392h4v4h-4zM284,392h4v4h-4zM288,392h4v4h-4zM292,392h4v4h-4zM296,392h4v4h-4zM300,392h4v4h-4zM308,392h4v4h-4zM316,392h4v4h-4zM320,392h4v4h-4zM332,392h4v4h-4zM336,392h4v4h-4zM340,392h4v4h-4zM348,392h4v4h-4zM368,392h4v4h-4zM372,392h4v4h-4zM376,392h4v4h-4zM380,392h4v4h-4zM384,392h4v4h-4zM388,392h4v4h-4zM392,392h4v4h-4zM396,392h4v4h-4zM16,396h4v4h-4zM32,396h4v4h-4zM52,396h4v4h-4zM56,396h4v4h-4zM64,396h4v4h-4zM68,396h4v4h-4zM76,396h4v4h-4zM84,396h4v4h-4zM88,396h4v4h-4zM92,396h4v4h-4zM104,396h4v4h-4zM112,396h4v4h-4zM116,396h4v4h-4zM140,396h4v4h-4zM144,396h4v4h-4zM152,396h4v4h-4zM156,396h4v4h-4zM172,396h4v4h-4zM176,396h4v4h-4zM180,396h4v4h-4zM188,396h4v4h-4zM192,396h4v4h-4zM204,396h4v4h-4zM208,396h4v4h-4zM220,396h4v4h-4zM232,396h4v4h-4zM240,396h4v4h-4zM244,396h4v4h-4zM260,396h4v4h-4zM264,396h4v4h-4zM268,396h4v4h-4zM276,396h4v4h-4zM280,396h4v4h-4zM308,396h4v4h-4zM316,396h4v4h-4zM324,396h4v4h-4zM328,396h4v4h-4zM332,396h4v4h-4zM348,396h4v4h-4zM352,396h4v4h-4zM364,396h4v4h-4zM368,396h4v4h-4z"/>
</svg>