<svg xmlns="http://www.w3.org/2000/svg" width="400" height="400" viewBox="0 0 400 400">
<rect width="400" height="400" fill="#0d0a14"/>
<line x1="365.0" y1="200.0" x2="364.8" y2="205.0" stroke="#e88c1a" stroke-width="3.62" stroke-linecap="round"/>
<line x1="364.8" y1="205.0" x2="364.1" y2="210.0" stroke="#e88c1a" stroke-width="3.87" stroke-linecap="round"/>
<line x1="364.1" y1="210.0" x2="362.9" y2="214.9" stroke="#e88c1a" stroke-width="4.11" stroke-linecap="round"/>
<line x1="362.9" y1="214.9" x2="361.3" y2="219.7" stroke="#f5c830" stroke-width="4.36" stroke-linecap="round"/>
<line x1="361.3" y1="219.7" x2="359.2" y2="224.4" stroke="#f5c830" stroke-width="4.59" stroke-linecap="round"/>
<line x1="359.2" y1="224.4" x2="356.8" y2="229.0" stroke="#f5c830" stroke-width="4.83" stroke-linecap="round"/>
<line x1="356.8" y1="229.0" x2="353.9" y2="233.5" stroke="#f5c830" stroke-width="5.05" stroke-linecap="round"/>
<line x1="353.9" y1="233.5" x2="350.6" y2="237.8" stroke="#f5c830" stroke-width="5.27" stroke-linecap="round"/>
<line x1="350.6" y1="237.8" x2="346.9" y2="241.9" stroke="#f5c830" stroke-width="5.49" stroke-linecap="round"/>
<line x1="346.9" y1="241.9" x2="342.9" y2="245.8" stroke="#f5c830" stroke-width="5.69" stroke-linecap="round"/>
<line x1="342.9" y1="245.8" x2="338.5" y2="249.4" stroke="#f5c830" stroke-width="5.88" stroke-linecap="round"/>
<line x1="338.5" y1="249.4" x2="333.9" y2="252.9" stroke="#f5c830" stroke-width="6.07" stroke-linecap="round"/>
<line x1="333.9" y1="252.9" x2="329.0" y2="256.1" stroke="#f5c830" stroke-width="6.24" stroke-linecap="round"/>
<line x1="329.0" y1="256.1" x2="323.8" y2="259.0" stroke="#f5c830" stroke-width="6.40" stroke-linecap="round"/>
<line x1="323.8" y1="259.0" x2="318.5" y2="261.7" stroke="#f5c830" stroke-width="6.55" stroke-linecap="round"/>
<line x1="318.5" y1="261.7" x2="312.9" y2="264.1" stroke="#f5c830" stroke-width="6.69" stroke-linecap="round"/>
<line x1="312.9" y1="264.1" x2="307.3" y2="266.2" stroke="#f5c830" stroke-width="6.81" stroke-linecap="round"/>
<line x1="307.3" y1="266.2" x2="301.4" y2="268.1" stroke="#f5c830" stroke-width="6.92" stroke-linecap="round"/>
<line x1="301.4" y1="268.1" x2="295.5" y2="269.7" stroke="#f5c830" stroke-width="7.02" stroke-linecap="round"/>
<line x1="295.5" y1="269.7" x2="289.6" y2="271.0" stroke="#f5c830" stroke-width="7.10" stroke-linecap="round"/>
<line x1="289.6" y1="271.0" x2="283.6" y2="272.1" stroke="#f5c830" stroke-width="7.17" stroke-linecap="round"/>
<line x1="283.6" y1="272.1" x2="277.6" y2="272.9" stroke="#f5c830" stroke-width="7.22" stroke-linecap="round"/>
<line x1="277.6" y1="272.9" x2="271.7" y2="273.5" stroke="#f5c830" stroke-width="7.26" stroke-linecap="round"/>
<line x1="271.7" y1="273.5" x2="265.8" y2="273.8" stroke="#f5c830" stroke-width="7.29" stroke-linecap="round"/>
<line x1="265.8" y1="273.8" x2="260.0" y2="274.0" stroke="#f5c830" stroke-width="7.31" stroke-linecap="round"/>
<line x1="260.0" y1="274.0" x2="254.3" y2="274.0" stroke="#f5c830" stroke-width="7.31" stroke-linecap="round"/>
<line x1="254.3" y1="274.0" x2="248.7" y2="273.8" stroke="#f5c830" stroke-width="7.30" stroke-linecap="round"/>
<line x1="248.7" y1="273.8" x2="243.2" y2="273.4" stroke="#f5c830" stroke-width="7.27" stroke-linecap="round"/>
<line x1="243.2" y1="273.4" x2="237.9" y2="272.9" stroke="#f5c830" stroke-width="7.24" stroke-linecap="round"/>
<line x1="237.9" y1="272.9" x2="232.8" y2="272.2" stroke="#f5c830" stroke-width="7.19" stroke-linecap="round"/>
<line x1="232.8" y1="272.2" x2="227.8" y2="271.5" stroke="#f5c830" stroke-width="7.13" stroke-linecap="round"/>
<line x1="227.8" y1="271.5" x2="223.0" y2="270.7" stroke="#f5c830" stroke-width="7.06" stroke-linecap="round"/>
<line x1="223.0" y1="270.7" x2="218.4" y2="269.8" stroke="#f5c830" stroke-width="6.99" stroke-linecap="round"/>
<line x1="218.4" y1="269.8" x2="214.0" y2="268.9" stroke="#f5c830" stroke-width="6.90" stroke-linecap="round"/>
<line x1="214.0" y1="268.9" x2="209.8" y2="267.9" stroke="#f5c830" stroke-width="6.80" stroke-linecap="round"/>
<line x1="209.8" y1="267.9" x2="205.7" y2="267.0" stroke="#f5c830" stroke-width="6.70" stroke-linecap="round"/>
<line x1="205.7" y1="267.0" x2="201.9" y2="266.0" stroke="#f5c830" stroke-width="6.59" stroke-linecap="round"/>
<line x1="201.9" y1="266.0" x2="198.2" y2="265.1" stroke="#f5c830" stroke-width="6.48" stroke-linecap="round"/>
<line x1="198.2" y1="265.1" x2="194.6" y2="264.2" stroke="#f5c830" stroke-width="6.36" stroke-linecap="round"/>
<line x1="194.6" y1="264.2" x2="191.3" y2="263.4" stroke="#f5c830" stroke-width="6.23" stroke-linecap="round"/>
<line x1="191.3" y1="263.4" x2="188.0" y2="262.6" stroke="#f5c830" stroke-width="6.10" stroke-linecap="round"/>
<line x1="188.0" y1="262.6" x2="184.9" y2="261.8" stroke="#f5c830" stroke-width="5.97" stroke-linecap="round"/>
<line x1="184.9" y1="261.8" x2="181.9" y2="261.2" stroke="#f5c830" stroke-width="5.83" stroke-linecap="round"/>
<line x1="181.9" y1="261.2" x2="179.0" y2="260.6" stroke="#f5c830" stroke-width="5.69" stroke-linecap="round"/>
<line x1="179.0" y1="260.6" x2="176.1" y2="260.1" stroke="#f5c830" stroke-width="5.55" stroke-linecap="round"/>
<line x1="176.1" y1="260.1" x2="173.4" y2="259.6" stroke="#f5c830" stroke-width="5.40" stroke-linecap="round"/>
<line x1="173.4" y1="259.6" x2="170.6" y2="259.3" stroke="#f5c830" stroke-width="5.26" stroke-linecap="round"/>
<line x1="170.6" y1="259.3" x2="167.9" y2="258.9" stroke="#f5c830" stroke-width="5.12" stroke-linecap="round"/>
<line x1="167.9" y1="258.9" x2="165.2" y2="258.7" stroke="#f5c830" stroke-width="4.97" stroke-linecap="round"/>
<line x1="165.2" y1="258.7" x2="162.5" y2="258.5" stroke="#f5c830" stroke-width="4.83" stroke-linecap="round"/>
<line x1="162.5" y1="258.5" x2="159.8" y2="258.3" stroke="#f5c830" stroke-width="4.68" stroke-linecap="round"/>
<line x1="159.8" y1="258.3" x2="157.0" y2="258.2" stroke="#f5c830" stroke-width="4.54" stroke-linecap="round"/>
<line x1="157.0" y1="258.2" x2="154.2" y2="258.0" stroke="#f5c830" stroke-width="4.40" stroke-linecap="round"/>
<line x1="154.2" y1="258.0" x2="151.3" y2="257.9" stroke="#f5c830" stroke-width="4.26" stroke-linecap="round"/>
<line x1="151.3" y1="257.9" x2="148.3" y2="257.7" stroke="#e88c1a" stroke-width="4.12" stroke-linecap="round"/>
<line x1="148.3" y1="257.7" x2="145.3" y2="257.5" stroke="#e88c1a" stroke-width="3.98" stroke-linecap="round"/>
<line x1="145.3" y1="257.5" x2="142.2" y2="257.2" stroke="#e88c1a" stroke-width="3.85" stroke-linecap="round"/>
<line x1="142.2" y1="257.2" x2="139.0" y2="256.8" stroke="#e88c1a" stroke-width="3.72" stroke-linecap="round"/>
<line x1="139.0" y1="256.8" x2="135.7" y2="256.4" stroke="#e88c1a" stroke-width="3.58" stroke-linecap="round"/>
<line x1="135.7" y1="256.4" x2="132.4" y2="255.7" stroke="#e88c1a" stroke-width="3.46" stroke-linecap="round"/>
<line x1="132.4" y1="255.7" x2="128.9" y2="255.0" stroke="#e88c1a" stroke-width="3.33" stroke-linecap="round"/>
<line x1="128.9" y1="255.0" x2="125.4" y2="254.1" stroke="#e88c1a" stroke-width="3.20" stroke-linecap="round"/>
<line x1="125.4" y1="254.1" x2="121.8" y2="253.0" stroke="#e88c1a" stroke-width="3.08" stroke-linecap="round"/>
<line x1="121.8" y1="253.0" x2="118.2" y2="251.6" stroke="#e88c1a" stroke-width="2.96" stroke-linecap="round"/>
<line x1="118.2" y1="251.6" x2="114.5" y2="250.1" stroke="#e88c1a" stroke-width="2.84" stroke-linecap="round"/>
<line x1="114.5" y1="250.1" x2="110.8" y2="248.3" stroke="#c8405a" stroke-width="2.72" stroke-linecap="round"/>
<line x1="110.8" y1="248.3" x2="107.1" y2="246.3" stroke="#c8405a" stroke-width="2.60" stroke-linecap="round"/>
<line x1="107.1" y1="246.3" x2="103.5" y2="244.0" stroke="#c8405a" stroke-width="2.49" stroke-linecap="round"/>
<line x1="103.5" y1="244.0" x2="99.8" y2="241.4" stroke="#c8405a" stroke-width="2.38" stroke-linecap="round"/>
<line x1="99.8" y1="241.4" x2="96.2" y2="238.5" stroke="#c8405a" stroke-width="2.27" stroke-linecap="round"/>
<line x1="96.2" y1="238.5" x2="92.7" y2="235.3" stroke="#c8405a" stroke-width="2.16" stroke-linecap="round"/>
<line x1="92.7" y1="235.3" x2="89.3" y2="231.8" stroke="#c8405a" stroke-width="2.05" stroke-linecap="round"/>
<line x1="89.3" y1="231.8" x2="86.0" y2="228.0" stroke="#c8405a" stroke-width="1.95" stroke-linecap="round"/>
<line x1="86.0" y1="228.0" x2="82.9" y2="224.0" stroke="#c8405a" stroke-width="1.85" stroke-linecap="round"/>
<line x1="82.9" y1="224.0" x2="80.0" y2="219.6" stroke="#c8405a" stroke-width="1.75" stroke-linecap="round"/>
<line x1="80.0" y1="219.6" x2="77.3" y2="214.9" stroke="#c8405a" stroke-width="1.65" stroke-linecap="round"/>
<line x1="77.3" y1="214.9" x2="74.8" y2="210.0" stroke="#c8405a" stroke-width="1.56" stroke-linecap="round"/>
<line x1="74.8" y1="210.0" x2="72.6" y2="204.7" stroke="#c8405a" stroke-width="1.46" stroke-linecap="round"/>
<line x1="72.6" y1="204.7" x2="70.6" y2="199.3" stroke="#c8405a" stroke-width="1.38" stroke-linecap="round"/>
<line x1="70.6" y1="199.3" x2="69.0" y2="193.5" stroke="#c8405a" stroke-width="1.29" stroke-linecap="round"/>
<line x1="69.0" y1="193.5" x2="67.7" y2="187.6" stroke="#c8405a" stroke-width="1.21" stroke-linecap="round"/>
<line x1="67.7" y1="187.6" x2="66.8" y2="181.5" stroke="#c8405a" stroke-width="1.13" stroke-linecap="round"/>
<line x1="66.8" y1="181.5" x2="66.2" y2="175.2" stroke="#c8405a" stroke-width="1.06" stroke-linecap="round"/>
<line x1="66.2" y1="175.2" x2="66.0" y2="168.8" stroke="#c8405a" stroke-width="0.99" stroke-linecap="round"/>
<line x1="66.0" y1="168.8" x2="66.2" y2="162.2" stroke="#c8405a" stroke-width="0.92" stroke-linecap="round"/>
<line x1="66.2" y1="162.2" x2="66.8" y2="155.6" stroke="#c8405a" stroke-width="0.86" stroke-linecap="round"/>
<line x1="66.8" y1="155.6" x2="67.8" y2="148.9" stroke="#c8405a" stroke-width="0.81" stroke-linecap="round"/>
<line x1="67.8" y1="148.9" x2="69.3" y2="142.1" stroke="#c8405a" stroke-width="0.76" stroke-linecap="round"/>
<line x1="69.3" y1="142.1" x2="71.2" y2="135.4" stroke="#c8405a" stroke-width="0.72" stroke-linecap="round"/>
<line x1="71.2" y1="135.4" x2="73.5" y2="128.7" stroke="#c8405a" stroke-width="0.68" stroke-linecap="round"/>
<line x1="73.5" y1="128.7" x2="76.2" y2="122.1" stroke="#c8405a" stroke-width="0.65" stroke-linecap="round"/>
<line x1="76.2" y1="122.1" x2="79.3" y2="115.6" stroke="#c8405a" stroke-width="0.63" stroke-linecap="round"/>
<line x1="79.3" y1="115.6" x2="82.8" y2="109.3" stroke="#c8405a" stroke-width="0.61" stroke-linecap="round"/>
<line x1="82.8" y1="109.3" x2="86.8" y2="103.1" stroke="#c8405a" stroke-width="0.60" stroke-linecap="round"/>
<line x1="86.8" y1="103.1" x2="91.1" y2="97.1" stroke="#c8405a" stroke-width="0.60" stroke-linecap="round"/>
<line x1="91.1" y1="97.1" x2="95.7" y2="91.4" stroke="#c8405a" stroke-width="0.61" stroke-linecap="round"/>
<line x1="95.7" y1="91.4" x2="100.7" y2="85.9" stroke="#c8405a" stroke-width="0.62" stroke-linecap="round"/>
<line x1="100.7" y1="85.9" x2="106.0" y2="80.7" stroke="#c8405a" stroke-width="0.65" stroke-linecap="round"/>
<line x1="106.0" y1="80.7" x2="111.6" y2="75.9" stroke="#c8405a" stroke-width="0.68" stroke-linecap="round"/>
<line x1="111.6" y1="75.9" x2="117.5" y2="71.3" stroke="#c8405a" stroke-width="0.72" stroke-linecap="round"/>
<line x1="117.5" y1="71.3" x2="123.6" y2="67.2" stroke="#c8405a" stroke-width="0.76" stroke-linecap="round"/>
<line x1="123.6" y1="67.2" x2="129.9" y2="63.4" stroke="#c8405a" stroke-width="0.82" stroke-linecap="round"/>
<line x1="129.9" y1="63.4" x2="136.4" y2="60.0" stroke="#c8405a" stroke-width="0.88" stroke-linecap="round"/>
<line x1="136.4" y1="60.0" x2="143.0" y2="57.1" stroke="#c8405a" stroke-width="0.95" stroke-linecap="round"/>
<line x1="143.0" y1="57.1" x2="149.7" y2="54.5" stroke="#c8405a" stroke-width="1.02" stroke-linecap="round"/>
<line x1="149.7" y1="54.5" x2="156.5" y2="52.4" stroke="#c8405a" stroke-width="1.11" stroke-linecap="round"/>
<line x1="156.5" y1="52.4" x2="163.3" y2="50.8" stroke="#c8405a" stroke-width="1.20" stroke-linecap="round"/>
<line x1="163.3" y1="50.8" x2="170.1" y2="49.6" stroke="#c8405a" stroke-width="1.29" stroke-linecap="round"/>
<line x1="170.1" y1="49.6" x2="176.9" y2="48.8" stroke="#c8405a" stroke-width="1.39" stroke-linecap="round"/>
<line x1="176.9" y1="48.8" x2="183.7" y2="48.4" stroke="#c8405a" stroke-width="1.50" stroke-linecap="round"/>
<line x1="183.7" y1="48.4" x2="190.3" y2="48.5" stroke="#c8405a" stroke-width="1.61" stroke-linecap="round"/>
<line x1="190.3" y1="48.5" x2="196.8" y2="49.0" stroke="#c8405a" stroke-width="1.72" stroke-linecap="round"/>
<line x1="196.8" y1="49.0" x2="203.2" y2="50.0" stroke="#c8405a" stroke-width="1.84" stroke-linecap="round"/>
<line x1="203.2" y1="50.0" x2="209.3" y2="51.3" stroke="#c8405a" stroke-width="1.96" stroke-linecap="round"/>
<line x1="209.3" y1="51.3" x2="215.3" y2="53.0" stroke="#c8405a" stroke-width="2.08" stroke-linecap="round"/>
<line x1="215.3" y1="53.0" x2="221.1" y2="55.1" stroke="#c8405a" stroke-width="2.20" stroke-linecap="round"/>
<line x1="221.1" y1="55.1" x2="226.5" y2="57.5" stroke="#c8405a" stroke-width="2.33" stroke-linecap="round"/>
<line x1="226.5" y1="57.5" x2="231.8" y2="60.3" stroke="#c8405a" stroke-width="2.45" stroke-linecap="round"/>
<line x1="231.8" y1="60.3" x2="236.7" y2="63.4" stroke="#c8405a" stroke-width="2.57" stroke-linecap="round"/>
<line x1="236.7" y1="63.4" x2="241.4" y2="66.7" stroke="#c8405a" stroke-width="2.69" stroke-linecap="round"/>
<line x1="241.4" y1="66.7" x2="245.7" y2="70.3" stroke="#c8405a" stroke-width="2.81" stroke-linecap="round"/>
<line x1="245.7" y1="70.3" x2="249.8" y2="74.2" stroke="#e88c1a" stroke-width="2.92" stroke-linecap="round"/>
<line x1="249.8" y1="74.2" x2="253.5" y2="78.2" stroke="#e88c1a" stroke-width="3.03" stroke-linecap="round"/>
<line x1="253.5" y1="78.2" x2="256.9" y2="82.5" stroke="#e88c1a" stroke-width="3.14" stroke-linecap="round"/>
<line x1="256.9" y1="82.5" x2="260.0" y2="86.8" stroke="#e88c1a" stroke-width="3.24" stroke-linecap="round"/>
<line x1="260.0" y1="86.8" x2="262.8" y2="91.4" stroke="#e88c1a" stroke-width="3.34" stroke-linecap="round"/>
<line x1="262.8" y1="91.4" x2="265.3" y2="96.0" stroke="#e88c1a" stroke-width="3.43" stroke-linecap="round"/>
<line x1="265.3" y1="96.0" x2="267.5" y2="100.8" stroke="#e88c1a" stroke-width="3.51" stroke-linecap="round"/>
<line x1="267.5" y1="100.8" x2="269.4" y2="105.5" stroke="#e88c1a" stroke-width="3.59" stroke-linecap="round"/>
<line x1="269.4" y1="105.5" x2="271.0" y2="110.4" stroke="#e88c1a" stroke-width="3.66" stroke-linecap="round"/>
<line x1="271.0" y1="110.4" x2="272.4" y2="115.3" stroke="#e88c1a" stroke-width="3.72" stroke-linecap="round"/>
<line x1="272.4" y1="115.3" x2="273.5" y2="120.1" stroke="#e88c1a" stroke-width="3.77" stroke-linecap="round"/>
<line x1="273.5" y1="120.1" x2="274.4" y2="125.0" stroke="#e88c1a" stroke-width="3.82" stroke-linecap="round"/>
<line x1="274.4" y1="125.0" x2="275.1" y2="129.8" stroke="#e88c1a" stroke-width="3.85" stroke-linecap="round"/>
<line x1="275.1" y1="129.8" x2="275.7" y2="134.7" stroke="#e88c1a" stroke-width="3.88" stroke-linecap="round"/>
<line x1="275.7" y1="134.7" x2="276.1" y2="139.4" stroke="#e88c1a" stroke-width="3.90" stroke-linecap="round"/>
<line x1="276.1" y1="139.4" x2="276.3" y2="144.1" stroke="#e88c1a" stroke-width="3.92" stroke-linecap="round"/>
<line x1="276.3" y1="144.1" x2="276.4" y2="148.8" stroke="#e88c1a" stroke-width="3.92" stroke-linecap="round"/>
<line x1="276.4" y1="148.8" x2="276.4" y2="153.4" stroke="#e88c1a" stroke-width="3.92" stroke-linecap="round"/>
<line x1="276.4" y1="153.4" x2="276.4" y2="157.9" stroke="#e88c1a" stroke-width="3.91" stroke-linecap="round"/>
<line x1="276.4" y1="157.9" x2="276.2" y2="162.3" stroke="#e88c1a" stroke-width="3.89" stroke-linecap="round"/>
<line x1="276.2" y1="162.3" x2="276.1" y2="166.7" stroke="#e88c1a" stroke-width="3.87" stroke-linecap="round"/>
<line x1="276.1" y1="166.7" x2="275.9" y2="171.0" stroke="#e88c1a" stroke-width="3.84" stroke-linecap="round"/>
<line x1="275.9" y1="171.0" x2="275.7" y2="175.3" stroke="#e88c1a" stroke-width="3.81" stroke-linecap="round"/>
<line x1="275.7" y1="175.3" x2="275.5" y2="179.5" stroke="#e88c1a" stroke-width="3.77" stroke-linecap="round"/>
<line x1="275.5" y1="179.5" x2="275.3" y2="183.7" stroke="#e88c1a" stroke-width="3.72" stroke-linecap="round"/>
<line x1="275.3" y1="183.7" x2="275.2" y2="187.8" stroke="#e88c1a" stroke-width="3.68" stroke-linecap="round"/>
<line x1="275.2" y1="187.8" x2="275.1" y2="191.9" stroke="#e88c1a" stroke-width="3.63" stroke-linecap="round"/>
<line x1="275.1" y1="191.9" x2="275.0" y2="195.9" stroke="#e88c1a" stroke-width="3.58" stroke-linecap="round"/>
<line x1="275.0" y1="195.9" x2="275.0" y2="200.0" stroke="#e88c1a" stroke-width="3.53" stroke-linecap="round"/>
<line x1="275.0" y1="200.0" x2="275.0" y2="204.1" stroke="#e88c1a" stroke-width="3.47" stroke-linecap="round"/>
<line x1="275.0" y1="204.1" x2="275.1" y2="208.1" stroke="#e88c1a" stroke-width="3.42" stroke-linecap="round"/>
<line x1="275.1" y1="208.1" x2="275.2" y2="212.2" stroke="#e88c1a" stroke-width="3.37" stroke-linecap="round"/>
<line x1="275.2" y1="212.2" x2="275.3" y2="216.3" stroke="#e88c1a" stroke-width="3.32" stroke-linecap="round"/>
<line x1="275.3" y1="216.3" x2="275.5" y2="220.5" stroke="#e88c1a" stroke-width="3.28" stroke-linecap="round"/>
<line x1="275.5" y1="220.5" x2="275.7" y2="224.7" stroke="#e88c1a" stroke-width="3.23" stroke-linecap="round"/>
<line x1="275.7" y1="224.7" x2="275.9" y2="229.0" stroke="#e88c1a" stroke-width="3.19" stroke-linecap="round"/>
<line x1="275.9" y1="229.0" x2="276.1" y2="233.3" stroke="#e88c1a" stroke-width="3.16" stroke-linecap="round"/>
<line x1="276.1" y1="233.3" x2="276.2" y2="237.7" stroke="#e88c1a" stroke-width="3.13" stroke-linecap="round"/>
<line x1="276.2" y1="237.7" x2="276.4" y2="242.1" stroke="#e88c1a" stroke-width="3.11" stroke-linecap="round"/>
<line x1="276.4" y1="242.1" x2="276.4" y2="246.6" stroke="#e88c1a" stroke-width="3.09" stroke-linecap="round"/>
<line x1="276.4" y1="246.6" x2="276.4" y2="251.2" stroke="#e88c1a" stroke-width="3.08" stroke-linecap="round"/>
<line x1="276.4" y1="251.2" x2="276.3" y2="255.9" stroke="#e88c1a" stroke-width="3.08" stroke-linecap="round"/>
<line x1="276.3" y1="255.9" x2="276.1" y2="260.6" stroke="#e88c1a" stroke-width="3.08" stroke-linecap="round"/>
<line x1="276.1" y1="260.6" x2="275.7" y2="265.3" stroke="#e88c1a" stroke-width="3.10" stroke-linecap="round"/>
<line x1="275.7" y1="265.3" x2="275.1" y2="270.2" stroke="#e88c1a" stroke-width="3.12" stroke-linecap="round"/>
<line x1="275.1" y1="270.2" x2="274.4" y2="275.0" stroke="#e88c1a" stroke-width="3.15" stroke-linecap="round"/>
<line x1="274.4" y1="275.0" x2="273.5" y2="279.9" stroke="#e88c1a" stroke-width="3.18" stroke-linecap="round"/>
<line x1="273.5" y1="279.9" x2="272.4" y2="284.7" stroke="#e88c1a" stroke-width="3.23" stroke-linecap="round"/>
<line x1="272.4" y1="284.7" x2="271.0" y2="289.6" stroke="#e88c1a" stroke-width="3.28" stroke-linecap="round"/>
<line x1="271.0" y1="289.6" x2="269.4" y2="294.5" stroke="#e88c1a" stroke-width="3.34" stroke-linecap="round"/>
<line x1="269.4" y1="294.5" x2="267.5" y2="299.2" stroke="#e88c1a" stroke-width="3.41" stroke-linecap="round"/>
<line x1="267.5" y1="299.2" x2="265.3" y2="304.0" stroke="#e88c1a" stroke-width="3.49" stroke-linecap="round"/>
<line x1="265.3" y1="304.0" x2="262.8" y2="308.6" stroke="#e88c1a" stroke-width="3.57" stroke-linecap="round"/>
<line x1="262.8" y1="308.6" x2="260.0" y2="313.2" stroke="#e88c1a" stroke-width="3.66" stroke-linecap="round"/>
<line x1="260.0" y1="313.2" x2="256.9" y2="317.5" stroke="#e88c1a" stroke-width="3.76" stroke-linecap="round"/>
<line x1="256.9" y1="317.5" x2="253.5" y2="321.8" stroke="#e88c1a" stroke-width="3.86" stroke-linecap="round"/>
<line x1="253.5" y1="321.8" x2="249.8" y2="325.8" stroke="#e88c1a" stroke-width="3.97" stroke-linecap="round"/>
<line x1="249.8" y1="325.8" x2="245.7" y2="329.7" stroke="#e88c1a" stroke-width="4.08" stroke-linecap="round"/>
<line x1="245.7" y1="329.7" x2="241.4" y2="333.3" stroke="#f5c830" stroke-width="4.19" stroke-linecap="round"/>
<line x1="241.4" y1="333.3" x2="236.7" y2="336.6" stroke="#f5c830" stroke-width="4.31" stroke-linecap="round"/>
<line x1="236.7" y1="336.6" x2="231.8" y2="339.7" stroke="#f5c830" stroke-width="4.43" stroke-linecap="round"/>
<line x1="231.8" y1="339.7" x2="226.5" y2="342.5" stroke="#f5c830" stroke-width="4.55" stroke-linecap="round"/>
<line x1="226.5" y1="342.5" x2="221.1" y2="344.9" stroke="#f5c830" stroke-width="4.67" stroke-linecap="round"/>
<line x1="221.1" y1="344.9" x2="215.3" y2="347.0" stroke="#f5c830" stroke-width="4.80" stroke-linecap="round"/>
<line x1="215.3" y1="347.0" x2="209.3" y2="348.7" stroke="#f5c830" stroke-width="4.92" stroke-linecap="round"/>
<line x1="209.3" y1="348.7" x2="203.2" y2="350.0" stroke="#f5c830" stroke-width="5.04" stroke-linecap="round"/>
<line x1="203.2" y1="350.0" x2="196.8" y2="351.0" stroke="#f5c830" stroke-width="5.16" stroke-linecap="round"/>
<line x1="196.8" y1="351.0" x2="190.3" y2="351.5" stroke="#f5c830" stroke-width="5.28" stroke-linecap="round"/>
<line x1="190.3" y1="351.5" x2="183.7" y2="351.6" stroke="#f5c830" stroke-width="5.39" stroke-linecap="round"/>
<line x1="183.7" y1="351.6" x2="176.9" y2="351.2" stroke="#f5c830" stroke-width="5.50" stroke-linecap="round"/>
<line x1="176.9" y1="351.2" x2="170.1" y2="350.4" stroke="#f5c830" stroke-width="5.61" stroke-linecap="round"/>
<line x1="170.1" y1="350.4" x2="163.3" y2="349.2" stroke="#f5c830" stroke-width="5.71" stroke-linecap="round"/>
<line x1="163.3" y1="349.2" x2="156.5" y2="347.6" stroke="#f5c830" stroke-width="5.80" stroke-linecap="round"/>
<line x1="156.5" y1="347.6" x2="149.7" y2="345.5" stroke="#f5c830" stroke-width="5.89" stroke-linecap="round"/>
<line x1="149.7" y1="345.5" x2="143.0" y2="342.9" stroke="#f5c830" stroke-width="5.98" stroke-linecap="round"/>
<line x1="143.0" y1="342.9" x2="136.4" y2="340.0" stroke="#f5c830" stroke-width="6.05" stroke-linecap="round"/>
<line x1="136.4" y1="340.0" x2="129.9" y2="336.6" stroke="#f5c830" stroke-width="6.12" stroke-linecap="round"/>
<line x1="129.9" y1="336.6" x2="123.6" y2="332.8" stroke="#f5c830" stroke-width="6.18" stroke-linecap="round"/>
<line x1="123.6" y1="332.8" x2="117.5" y2="328.7" stroke="#f5c830" stroke-width="6.24" stroke-linecap="round"/>
<line x1="117.5" y1="328.7" x2="111.6" y2="324.1" stroke="#f5c830" stroke-width="6.28" stroke-linecap="round"/>
<line x1="111.6" y1="324.1" x2="106.0" y2="319.3" stroke="#f5c830" stroke-width="6.32" stroke-linecap="round"/>
<line x1="106.0" y1="319.3" x2="100.7" y2="314.1" stroke="#f5c830" stroke-width="6.35" stroke-linecap="round"/>
<line x1="100.7" y1="314.1" x2="95.7" y2="308.6" stroke="#f5c830" stroke-width="6.38" stroke-linecap="round"/>
<line x1="95.7" y1="308.6" x2="91.1" y2="302.9" stroke="#f5c830" stroke-width="6.39" stroke-linecap="round"/>
<line x1="91.1" y1="302.9" x2="86.8" y2="296.9" stroke="#f5c830" stroke-width="6.40" stroke-linecap="round"/>
<line x1="86.8" y1="296.9" x2="82.8" y2="290.7" stroke="#f5c830" stroke-width="6.40" stroke-linecap="round"/>
<line x1="82.8" y1="290.7" x2="79.3" y2="284.4" stroke="#f5c830" stroke-width="6.39" stroke-linecap="round"/>
<line x1="79.3" y1="284.4" x2="76.2" y2="277.9" stroke="#f5c830" stroke-width="6.37" stroke-linecap="round"/>
<line x1="76.2" y1="277.9" x2="73.5" y2="271.3" stroke="#f5c830" stroke-width="6.35" stroke-linecap="round"/>
<line x1="73.5" y1="271.3" x2="71.2" y2="264.6" stroke="#f5c830" stroke-width="6.32" stroke-linecap="round"/>
<line x1="71.2" y1="264.6" x2="69.3" y2="257.9" stroke="#f5c830" stroke-width="6.28" stroke-linecap="round"/>
<line x1="69.3" y1="257.9" x2="67.8" y2="251.1" stroke="#f5c830" stroke-width="6.24" stroke-linecap="round"/>
<line x1="67.8" y1="251.1" x2="66.8" y2="244.4" stroke="#f5c830" stroke-width="6.19" stroke-linecap="round"/>
<line x1="66.8" y1="244.4" x2="66.2" y2="237.8" stroke="#f5c830" stroke-width="6.14" stroke-linecap="round"/>
<line x1="66.2" y1="237.8" x2="66.0" y2="231.2" stroke="#f5c830" stroke-width="6.08" stroke-linecap="round"/>
<line x1="66.0" y1="231.2" x2="66.2" y2="224.8" stroke="#f5c830" stroke-width="6.01" stroke-linecap="round"/>
<line x1="66.2" y1="224.8" x2="66.8" y2="218.5" stroke="#f5c830" stroke-width="5.94" stroke-linecap="round"/>
<line x1="66.8" y1="218.5" x2="67.7" y2="212.4" stroke="#f5c830" stroke-width="5.87" stroke-linecap="round"/>
<line x1="67.7" y1="212.4" x2="69.0" y2="206.5" stroke="#f5c830" stroke-width="5.79" stroke-linecap="round"/>
<line x1="69.0" y1="206.5" x2="70.6" y2="200.7" stroke="#f5c830" stroke-width="5.71" stroke-linecap="round"/>
<line x1="70.6" y1="200.7" x2="72.6" y2="195.3" stroke="#f5c830" stroke-width="5.62" stroke-linecap="round"/>
<line x1="72.6" y1="195.3" x2="74.8" y2="190.0" stroke="#f5c830" stroke-width="5.54" stroke-linecap="round"/>
<line x1="74.8" y1="190.0" x2="77.3" y2="185.1" stroke="#f5c830" stroke-width="5.44" stroke-linecap="round"/>
<line x1="77.3" y1="185.1" x2="80.0" y2="180.4" stroke="#f5c830" stroke-width="5.35" stroke-linecap="round"/>
<line x1="80.0" y1="180.4" x2="82.9" y2="176.0" stroke="#f5c830" stroke-width="5.25" stroke-linecap="round"/>
<line x1="82.9" y1="176.0" x2="86.0" y2="172.0" stroke="#f5c830" stroke-width="5.15" stroke-linecap="round"/>
<line x1="86.0" y1="172.0" x2="89.3" y2="168.2" stroke="#f5c830" stroke-width="5.05" stroke-linecap="round"/>
<line x1="89.3" y1="168.2" x2="92.7" y2="164.7" stroke="#f5c830" stroke-width="4.95" stroke-linecap="round"/>
<line x1="92.7" y1="164.7" x2="96.2" y2="161.5" stroke="#f5c830" stroke-width="4.84" stroke-linecap="round"/>
<line x1="96.2" y1="161.5" x2="99.8" y2="158.6" stroke="#f5c830" stroke-width="4.73" stroke-linecap="round"/>
<line x1="99.8" y1="158.6" x2="103.5" y2="156.0" stroke="#f5c830" stroke-width="4.62" stroke-linecap="round"/>
<line x1="103.5" y1="156.0" x2="107.1" y2="153.7" stroke="#f5c830" stroke-width="4.51" stroke-linecap="round"/>
<line x1="107.1" y1="153.7" x2="110.8" y2="151.7" stroke="#f5c830" stroke-width="4.40" stroke-linecap="round"/>
<line x1="110.8" y1="151.7" x2="114.5" y2="149.9" stroke="#f5c830" stroke-width="4.28" stroke-linecap="round"/>
<line x1="114.5" y1="149.9" x2="118.2" y2="148.4" stroke="#e88c1a" stroke-width="4.16" stroke-linecap="round"/>
<line x1="118.2" y1="148.4" x2="121.8" y2="147.0" stroke="#e88c1a" stroke-width="4.04" stroke-linecap="round"/>
<line x1="121.8" y1="147.0" x2="125.4" y2="145.9" stroke="#e88c1a" stroke-width="3.92" stroke-linecap="round"/>
<line x1="125.4" y1="145.9" x2="128.9" y2="145.0" stroke="#e88c1a" stroke-width="3.80" stroke-linecap="round"/>
<line x1="128.9" y1="145.0" x2="132.4" y2="144.3" stroke="#e88c1a" stroke-width="3.67" stroke-linecap="round"/>
<line x1="132.4" y1="144.3" x2="135.7" y2="143.6" stroke="#e88c1a" stroke-width="3.54" stroke-linecap="round"/>
<line x1="135.7" y1="143.6" x2="139.0" y2="143.2" stroke="#e88c1a" stroke-width="3.42" stroke-linecap="round"/>
<line x1="139.0" y1="143.2" x2="142.2" y2="142.8" stroke="#e88c1a" stroke-width="3.28" stroke-linecap="round"/>
<line x1="142.2" y1="142.8" x2="145.3" y2="142.5" stroke="#e88c1a" stroke-width="3.15" stroke-linecap="round"/>
<line x1="145.3" y1="142.5" x2="148.3" y2="142.3" stroke="#e88c1a" stroke-width="3.02" stroke-linecap="round"/>
<line x1="148.3" y1="142.3" x2="151.3" y2="142.1" stroke="#e88c1a" stroke-width="2.88" stroke-linecap="round"/>
<line x1="151.3" y1="142.1" x2="154.2" y2="142.0" stroke="#c8405a" stroke-width="2.74" stroke-linecap="round"/>
<line x1="154.2" y1="142.0" x2="157.0" y2="141.8" stroke="#c8405a" stroke-width="2.60" stroke-linecap="round"/>
<line x1="157.0" y1="141.8" x2="159.8" y2="141.7" stroke="#c8405a" stroke-width="2.46" stroke-linecap="round"/>
<line x1="159.8" y1="141.7" x2="162.5" y2="141.5" stroke="#c8405a" stroke-width="2.32" stroke-linecap="round"/>
<line x1="162.5" y1="141.5" x2="165.2" y2="141.3" stroke="#c8405a" stroke-width="2.17" stroke-linecap="round"/>
<line x1="165.2" y1="141.3" x2="167.9" y2="141.1" stroke="#c8405a" stroke-width="2.03" stroke-linecap="round"/>
<line x1="167.9" y1="141.1" x2="170.6" y2="140.7" stroke="#c8405a" stroke-width="1.88" stroke-linecap="round"/>
<line x1="170.6" y1="140.7" x2="173.4" y2="140.4" stroke="#c8405a" stroke-width="1.74" stroke-linecap="round"/>
<line x1="173.4" y1="140.4" x2="176.1" y2="139.9" stroke="#c8405a" stroke-width="1.60" stroke-linecap="round"/>
<line x1="176.1" y1="139.9" x2="179.0" y2="139.4" stroke="#c8405a" stroke-width="1.45" stroke-linecap="round"/>
<line x1="179.0" y1="139.4" x2="181.9" y2="138.8" stroke="#c8405a" stroke-width="1.31" stroke-linecap="round"/>
<line x1="181.9" y1="138.8" x2="184.9" y2="138.2" stroke="#c8405a" stroke-width="1.17" stroke-linecap="round"/>
<line x1="184.9" y1="138.2" x2="188.0" y2="137.4" stroke="#c8405a" stroke-width="1.03" stroke-linecap="round"/>
<line x1="188.0" y1="137.4" x2="191.3" y2="136.6" stroke="#c8405a" stroke-width="0.90" stroke-linecap="round"/>
<line x1="191.3" y1="136.6" x2="194.6" y2="135.8" stroke="#c8405a" stroke-width="0.77" stroke-linecap="round"/>
<line x1="194.6" y1="135.8" x2="198.2" y2="134.9" stroke="#c8405a" stroke-width="0.64" stroke-linecap="round"/>
<line x1="198.2" y1="134.9" x2="201.9" y2="134.0" stroke="#c8405a" stroke-width="0.52" stroke-linecap="round"/>
<line x1="201.9" y1="134.0" x2="205.7" y2="133.0" stroke="#c8405a" stroke-width="0.41" stroke-linecap="round"/>
<line x1="205.7" y1="133.0" x2="209.8" y2="132.1" stroke="#c8405a" stroke-width="0.30" stroke-linecap="round"/>
<line x1="209.8" y1="132.1" x2="214.0" y2="131.1" stroke="#c8405a" stroke-width="0.20" stroke-linecap="round"/>
<line x1="214.0" y1="131.1" x2="218.4" y2="130.2" stroke="#f5c830" stroke-width="0.10" stroke-linecap="round"/>
<line x1="218.4" y1="130.2" x2="223.0" y2="129.3" stroke="#f5c830" stroke-width="0.01" stroke-linecap="round"/>
<line x1="223.0" y1="129.3" x2="227.8" y2="128.5" stroke="#f5c830" stroke-width="-0.06" stroke-linecap="round"/>
<line x1="227.8" y1="128.5" x2="232.8" y2="127.8" stroke="#f5c830" stroke-width="-0.13" stroke-linecap="round"/>
<line x1="232.8" y1="127.8" x2="237.9" y2="127.1" stroke="#f5c830" stroke-width="-0.19" stroke-linecap="round"/>
<line x1="237.9" y1="127.1" x2="243.2" y2="126.6" stroke="#f5c830" stroke-width="-0.24" stroke-linecap="round"/>
<line x1="243.2" y1="126.6" x2="248.7" y2="126.2" stroke="#f5c830" stroke-width="-0.27" stroke-linecap="round"/>
<line x1="248.7" y1="126.2" x2="254.3" y2="126.0" stroke="#f5c830" stroke-width="-0.30" stroke-linecap="round"/>
<line x1="254.3" y1="126.0" x2="260.0" y2="126.0" stroke="#f5c830" stroke-width="-0.31" stroke-linecap="round"/>
<line x1="260.0" y1="126.0" x2="265.8" y2="126.2" stroke="#f5c830" stroke-width="-0.31" stroke-linecap="round"/>
<line x1="265.8" y1="126.2" x2="271.7" y2="126.5" stroke="#f5c830" stroke-width="-0.29" stroke-linecap="round"/>
<line x1="271.7" y1="126.5" x2="277.6" y2="127.1" stroke="#f5c830" stroke-width="-0.26" stroke-linecap="round"/>
<line x1="277.6" y1="127.1" x2="283.6" y2="127.9" stroke="#f5c830" stroke-width="-0.22" stroke-linecap="round"/>
<line x1="283.6" y1="127.9" x2="289.6" y2="129.0" stroke="#f5c830" stroke-width="-0.17" stroke-linecap="round"/>
<line x1="289.6" y1="129.0" x2="295.5" y2="130.3" stroke="#f5c830" stroke-width="-0.10" stroke-linecap="round"/>
<line x1="295.5" y1="130.3" x2="301.4" y2="131.9" stroke="#f5c830" stroke-width="-0.02" stroke-linecap="round"/>
<line x1="301.4" y1="131.9" x2="307.3" y2="133.8" stroke="#f5c830" stroke-width="0.08" stroke-linecap="round"/>
<line x1="307.3" y1="133.8" x2="312.9" y2="135.9" stroke="#c8405a" stroke-width="0.19" stroke-linecap="round"/>
<line x1="312.9" y1="135.9" x2="318.5" y2="138.3" stroke="#c8405a" stroke-width="0.31" stroke-linecap="round"/>
<line x1="318.5" y1="138.3" x2="323.8" y2="141.0" stroke="#c8405a" stroke-width="0.45" stroke-linecap="round"/>
<line x1="323.8" y1="141.0" x2="329.0" y2="143.9" stroke="#c8405a" stroke-width="0.60" stroke-linecap="round"/>
<line x1="329.0" y1="143.9" x2="333.9" y2="147.1" stroke="#c8405a" stroke-width="0.76" stroke-linecap="round"/>
<line x1="333.9" y1="147.1" x2="338.5" y2="150.6" stroke="#c8405a" stroke-width="0.93" stroke-linecap="round"/>
<line x1="338.5" y1="150.6" x2="342.9" y2="154.2" stroke="#c8405a" stroke-width="1.12" stroke-linecap="round"/>
<line x1="342.9" y1="154.2" x2="346.9" y2="158.1" stroke="#c8405a" stroke-width="1.31" stroke-linecap="round"/>
<line x1="346.9" y1="158.1" x2="350.6" y2="162.2" stroke="#c8405a" stroke-width="1.51" stroke-linecap="round"/>
<line x1="350.6" y1="162.2" x2="353.9" y2="166.5" stroke="#c8405a" stroke-width="1.73" stroke-linecap="round"/>
<line x1="353.9" y1="166.5" x2="356.8" y2="171.0" stroke="#c8405a" stroke-width="1.95" stroke-linecap="round"/>
<line x1="356.8" y1="171.0" x2="359.2" y2="175.6" stroke="#c8405a" stroke-width="2.17" stroke-linecap="round"/>
<line x1="359.2" y1="175.6" x2="361.3" y2="180.3" stroke="#c8405a" stroke-width="2.41" stroke-linecap="round"/>
<line x1="361.3" y1="180.3" x2="362.9" y2="185.1" stroke="#c8405a" stroke-width="2.64" stroke-linecap="round"/>
<line x1="362.9" y1="185.1" x2="364.1" y2="190.0" stroke="#e88c1a" stroke-width="2.89" stroke-linecap="round"/>
<line x1="364.1" y1="190.0" x2="364.8" y2="195.0" stroke="#e88c1a" stroke-width="3.13" stroke-linecap="round"/>
<line x1="364.8" y1="195.0" x2="365.0" y2="200.0" stroke="#e88c1a" stroke-width="3.38" stroke-linecap="round"/>
</svg>