<svg xmlns="http://www.w3.org/2000/svg" viewBox="0 0 400 400" width="400" height="400">
  <rect width="400" height="400" fill="#111014"/>
  <g stroke="#c97ca3" stroke-width="0.9" opacity="0.55">
  <line x1="375.0" y1="200.0" x2="375.0" y2="200.0"/>
  <line x1="374.9" y1="205.5" x2="374.2" y2="216.5"/>
  <line x1="374.7" y1="211.0" x2="371.9" y2="232.8"/>
  <line x1="374.2" y1="216.5" x2="368.1" y2="248.8"/>
  <line x1="373.6" y1="221.9" x2="362.7" y2="264.4"/>
  <line x1="372.8" y1="227.4" x2="355.9" y2="279.4"/>
  <line x1="371.9" y1="232.8" x2="347.8" y2="293.8"/>
  <line x1="370.8" y1="238.2" x2="338.3" y2="307.3"/>
  <line x1="369.5" y1="243.5" x2="327.6" y2="319.8"/>
  <line x1="368.1" y1="248.8" x2="315.7" y2="331.3"/>
  <line x1="366.4" y1="254.1" x2="302.9" y2="341.6"/>
  <line x1="364.7" y1="259.3" x2="289.1" y2="350.6"/>
  <line x1="362.7" y1="264.4" x2="274.5" y2="358.3"/>
  <line x1="360.6" y1="269.5" x2="259.3" y2="364.7"/>
  <line x1="358.3" y1="274.5" x2="243.5" y2="369.5"/>
  <line x1="355.9" y1="279.4" x2="227.4" y2="372.8"/>
  <line x1="353.4" y1="284.3" x2="211.0" y2="374.7"/>
  <line x1="350.6" y1="289.1" x2="194.5" y2="374.9"/>
  <line x1="347.8" y1="293.8" x2="178.1" y2="373.6"/>
  <line x1="344.7" y1="298.4" x2="161.8" y2="370.8"/>
  <line x1="341.6" y1="302.9" x2="145.9" y2="366.4"/>
  <line x1="338.3" y1="307.3" x2="130.5" y2="360.6"/>
  <line x1="334.8" y1="311.5" x2="115.7" y2="353.4"/>
  <line x1="331.3" y1="315.7" x2="101.6" y2="344.7"/>
  <line x1="327.6" y1="319.8" x2="88.5" y2="334.8"/>
  <line x1="323.7" y1="323.7" x2="76.3" y2="323.7"/>
  <line x1="319.8" y1="327.6" x2="65.2" y2="311.5"/>
  <line x1="315.7" y1="331.3" x2="55.3" y2="298.4"/>
  <line x1="311.5" y1="334.8" x2="46.6" y2="284.3"/>
  <line x1="307.3" y1="338.3" x2="39.4" y2="269.5"/>
  <line x1="302.9" y1="341.6" x2="33.6" y2="254.1"/>
  <line x1="298.4" y1="344.7" x2="29.2" y2="238.2"/>
  <line x1="293.8" y1="347.8" x2="26.4" y2="221.9"/>
  <line x1="289.1" y1="350.6" x2="25.1" y2="205.5"/>
  <line x1="284.3" y1="353.4" x2="25.3" y2="189.0"/>
  <line x1="279.4" y1="355.9" x2="27.2" y2="172.6"/>
  <line x1="274.5" y1="358.3" x2="30.5" y2="156.5"/>
  <line x1="269.5" y1="360.6" x2="35.3" y2="140.7"/>
  <line x1="264.4" y1="362.7" x2="41.7" y2="125.5"/>
  <line x1="259.3" y1="364.7" x2="49.4" y2="110.9"/>
  <line x1="254.1" y1="366.4" x2="58.4" y2="97.1"/>
  <line x1="248.8" y1="368.1" x2="68.7" y2="84.3"/>
  <line x1="243.5" y1="369.5" x2="80.2" y2="72.4"/>
  <line x1="238.2" y1="370.8" x2="92.7" y2="61.7"/>
  <line x1="232.8" y1="371.9" x2="106.2" y2="52.2"/>
  <line x1="227.4" y1="372.8" x2="120.6" y2="44.1"/>
  <line x1="221.9" y1="373.6" x2="135.6" y2="37.3"/>
  <line x1="216.5" y1="374.2" x2="151.2" y2="31.9"/>
  <line x1="211.0" y1="374.7" x2="167.2" y2="28.1"/>
  <line x1="205.5" y1="374.9" x2="183.5" y2="25.8"/>
  <line x1="200.0" y1="375.0" x2="200.0" y2="25.0"/>
  <line x1="194.5" y1="374.9" x2="216.5" y2="25.8"/>
  <line x1="189.0" y1="374.7" x2="232.8" y2="28.1"/>
  <line x1="183.5" y1="374.2" x2="248.8" y2="31.9"/>
  <line x1="178.1" y1="373.6" x2="264.4" y2="37.3"/>
  <line x1="172.6" y1="372.8" x2="279.4" y2="44.1"/>
  <line x1="167.2" y1="371.9" x2="293.8" y2="52.2"/>
  <line x1="161.8" y1="370.8" x2="307.3" y2="61.7"/>
  <line x1="156.5" y1="369.5" x2="319.8" y2="72.4"/>
  <line x1="151.2" y1="368.1" x2="331.3" y2="84.3"/>
  <line x1="145.9" y1="366.4" x2="341.6" y2="97.1"/>
  <line x1="140.7" y1="364.7" x2="350.6" y2="110.9"/>
  <line x1="135.6" y1="362.7" x2="358.3" y2="125.5"/>
  <line x1="130.5" y1="360.6" x2="364.7" y2="140.7"/>
  <line x1="125.5" y1="358.3" x2="369.5" y2="156.5"/>
  <line x1="120.6" y1="355.9" x2="372.8" y2="172.6"/>
  <line x1="115.7" y1="353.4" x2="374.7" y2="189.0"/>
  <line x1="110.9" y1="350.6" x2="374.9" y2="205.5"/>
  <line x1="106.2" y1="347.8" x2="373.6" y2="221.9"/>
  <line x1="101.6" y1="344.7" x2="370.8" y2="238.2"/>
  <line x1="97.1" y1="341.6" x2="366.4" y2="254.1"/>
  <line x1="92.7" y1="338.3" x2="360.6" y2="269.5"/>
  <line x1="88.5" y1="334.8" x2="353.4" y2="284.3"/>
  <line x1="84.3" y1="331.3" x2="344.7" y2="298.4"/>
  <line x1="80.2" y1="327.6" x2="334.8" y2="311.5"/>
  <line x1="76.3" y1="323.7" x2="323.7" y2="323.7"/>
  <line x1="72.4" y1="319.8" x2="311.5" y2="334.8"/>
  <line x1="68.7" y1="315.7" x2="298.4" y2="344.7"/>
  <line x1="65.2" y1="311.5" x2="284.3" y2="353.4"/>
  <line x1="61.7" y1="307.3" x2="269.5" y2="360.6"/>
  <line x1="58.4" y1="302.9" x2="254.1" y2="366.4"/>
  <line x1="55.3" y1="298.4" x2="238.2" y2="370.8"/>
  <line x1="52.2" y1="293.8" x2="221.9" y2="373.6"/>
  <line x1="49.4" y1="289.1" x2="205.5" y2="374.9"/>
  <line x1="46.6" y1="284.3" x2="189.0" y2="374.7"/>
  <line x1="44.1" y1="279.4" x2="172.6" y2="372.8"/>
  <line x1="41.7" y1="274.5" x2="156.5" y2="369.5"/>
  <line x1="39.4" y1="269.5" x2="140.7" y2="364.7"/>
  <line x1="37.3" y1="264.4" x2="125.5" y2="358.3"/>
  <line x1="35.3" y1="259.3" x2="110.9" y2="350.6"/>
  <line x1="33.6" y1="254.1" x2="97.1" y2="341.6"/>
  <line x1="31.9" y1="248.8" x2="84.3" y2="331.3"/>
  <line x1="30.5" y1="243.5" x2="72.4" y2="319.8"/>
  <line x1="29.2" y1="238.2" x2="61.7" y2="307.3"/>
  <line x1="28.1" y1="232.8" x2="52.2" y2="293.8"/>
  <line x1="27.2" y1="227.4" x2="44.1" y2="279.4"/>
  <line x1="26.4" y1="221.9" x2="37.3" y2="264.4"/>
  <line x1="25.8" y1="216.5" x2="31.9" y2="248.8"/>
  <line x1="25.3" y1="211.0" x2="28.1" y2="232.8"/>
  <line x1="25.1" y1="205.5" x2="25.8" y2="216.5"/>
  <line x1="25.0" y1="200.0" x2="25.0" y2="200.0"/>
  <line x1="25.1" y1="194.5" x2="25.8" y2="183.5"/>
  <line x1="25.3" y1="189.0" x2="28.1" y2="167.2"/>
  <line x1="25.8" y1="183.5" x2="31.9" y2="151.2"/>
  <line x1="26.4" y1="178.1" x2="37.3" y2="135.6"/>
  <line x1="27.2" y1="172.6" x2="44.1" y2="120.6"/>
  <line x1="28.1" y1="167.2" x2="52.2" y2="106.2"/>
  <line x1="29.2" y1="161.8" x2="61.7" y2="92.7"/>
  <line x1="30.5" y1="156.5" x2="72.4" y2="80.2"/>
  <line x1="31.9" y1="151.2" x2="84.3" y2="68.7"/>
  <line x1="33.6" y1="145.9" x2="97.1" y2="58.4"/>
  <line x1="35.3" y1="140.7" x2="110.9" y2="49.4"/>
  <line x1="37.3" y1="135.6" x2="125.5" y2="41.7"/>
  <line x1="39.4" y1="130.5" x2="140.7" y2="35.3"/>
  <line x1="41.7" y1="125.5" x2="156.5" y2="30.5"/>
  <line x1="44.1" y1="120.6" x2="172.6" y2="27.2"/>
  <line x1="46.6" y1="115.7" x2="189.0" y2="25.3"/>
  <line x1="49.4" y1="110.9" x2="205.5" y2="25.1"/>
  <line x1="52.2" y1="106.2" x2="221.9" y2="26.4"/>
  <line x1="55.3" y1="101.6" x2="238.2" y2="29.2"/>
  <line x1="58.4" y1="97.1" x2="254.1" y2="33.6"/>
  <line x1="61.7" y1="92.7" x2="269.5" y2="39.4"/>
  <line x1="65.2" y1="88.5" x2="284.3" y2="46.6"/>
  <line x1="68.7" y1="84.3" x2="298.4" y2="55.3"/>
  <line x1="72.4" y1="80.2" x2="311.5" y2="65.2"/>
  <line x1="76.3" y1="76.3" x2="323.7" y2="76.3"/>
  <line x1="80.2" y1="72.4" x2="334.8" y2="88.5"/>
  <line x1="84.3" y1="68.7" x2="344.7" y2="101.6"/>
  <line x1="88.5" y1="65.2" x2="353.4" y2="115.7"/>
  <line x1="92.7" y1="61.7" x2="360.6" y2="130.5"/>
  <line x1="97.1" y1="58.4" x2="366.4" y2="145.9"/>
  <line x1="101.6" y1="55.3" x2="370.8" y2="161.8"/>
  <line x1="106.2" y1="52.2" x2="373.6" y2="178.1"/>
  <line x1="110.9" y1="49.4" x2="374.9" y2="194.5"/>
  <line x1="115.7" y1="46.6" x2="374.7" y2="211.0"/>
  <line x1="120.6" y1="44.1" x2="372.8" y2="227.4"/>
  <line x1="125.5" y1="41.7" x2="369.5" y2="243.5"/>
  <line x1="130.5" y1="39.4" x2="364.7" y2="259.3"/>
  <line x1="135.6" y1="37.3" x2="358.3" y2="274.5"/>
  <line x1="140.7" y1="35.3" x2="350.6" y2="289.1"/>
  <line x1="145.9" y1="33.6" x2="341.6" y2="302.9"/>
  <line x1="151.2" y1="31.9" x2="331.3" y2="315.7"/>
  <line x1="156.5" y1="30.5" x2="319.8" y2="327.6"/>
  <line x1="161.8" y1="29.2" x2="307.3" y2="338.3"/>
  <line x1="167.2" y1="28.1" x2="293.8" y2="347.8"/>
  <line x1="172.6" y1="27.2" x2="279.4" y2="355.9"/>
  <line x1="178.1" y1="26.4" x2="264.4" y2="362.7"/>
  <line x1="183.5" y1="25.8" x2="248.8" y2="368.1"/>
  <line x1="189.0" y1="25.3" x2="232.8" y2="371.9"/>
  <line x1="194.5" y1="25.1" x2="216.5" y2="374.2"/>
  <line x1="200.0" y1="25.0" x2="200.0" y2="375.0"/>
  <line x1="205.5" y1="25.1" x2="183.5" y2="374.2"/>
  <line x1="211.0" y1="25.3" x2="167.2" y2="371.9"/>
  <line x1="216.5" y1="25.8" x2="151.2" y2="368.1"/>
  <line x1="221.9" y1="26.4" x2="135.6" y2="362.7"/>
  <line x1="227.4" y1="27.2" x2="120.6" y2="355.9"/>
  <line x1="232.8" y1="28.1" x2="106.2" y2="347.8"/>
  <line x1="238.2" y1="29.2" x2="92.7" y2="338.3"/>
  <line x1="243.5" y1="30.5" x2="80.2" y2="327.6"/>
  <line x1="248.8" y1="31.9" x2="68.7" y2="315.7"/>
  <line x1="254.1" y1="33.6" x2="58.4" y2="302.9"/>
  <line x1="259.3" y1="35.3" x2="49.4" y2="289.1"/>
  <line x1="264.4" y1="37.3" x2="41.7" y2="274.5"/>
  <line x1="269.5" y1="39.4" x2="35.3" y2="259.3"/>
  <line x1="274.5" y1="41.7" x2="30.5" y2="243.5"/>
  <line x1="279.4" y1="44.1" x2="27.2" y2="227.4"/>
  <line x1="284.3" y1="46.6" x2="25.3" y2="211.0"/>
  <line x1="289.1" y1="49.4" x2="25.1" y2="194.5"/>
  <line x1="293.8" y1="52.2" x2="26.4" y2="178.1"/>
  <line x1="298.4" y1="55.3" x2="29.2" y2="161.8"/>
  <line x1="302.9" y1="58.4" x2="33.6" y2="145.9"/>
  <line x1="307.3" y1="61.7" x2="39.4" y2="130.5"/>
  <line x1="311.5" y1="65.2" x2="46.6" y2="115.7"/>
  <line x1="315.7" y1="68.7" x2="55.3" y2="101.6"/>
  <line x1="319.8" y1="72.4" x2="65.2" y2="88.5"/>
  <line x1="323.7" y1="76.3" x2="76.3" y2="76.3"/>
  <line x1="327.6" y1="80.2" x2="88.5" y2="65.2"/>
  <line x1="331.3" y1="84.3" x2="101.6" y2="55.3"/>
  <line x1="334.8" y1="88.5" x2="115.7" y2="46.6"/>
  <line x1="338.3" y1="92.7" x2="130.5" y2="39.4"/>
  <line x1="341.6" y1="97.1" x2="145.9" y2="33.6"/>
  <line x1="344.7" y1="101.6" x2="161.8" y2="29.2"/>
  <line x1="347.8" y1="106.2" x2="178.1" y2="26.4"/>
  <line x1="350.6" y1="110.9" x2="194.5" y2="25.1"/>
  <line x1="353.4" y1="115.7" x2="211.0" y2="25.3"/>
  <line x1="355.9" y1="120.6" x2="227.4" y2="27.2"/>
  <line x1="358.3" y1="125.5" x2="243.5" y2="30.5"/>
  <line x1="360.6" y1="130.5" x2="259.3" y2="35.3"/>
  <line x1="362.7" y1="135.6" x2="274.5" y2="41.7"/>
  <line x1="364.7" y1="140.7" x2="289.1" y2="49.4"/>
  <line x1="366.4" y1="145.9" x2="302.9" y2="58.4"/>
  <line x1="368.1" y1="151.2" x2="315.7" y2="68.7"/>
  <line x1="369.5" y1="156.5" x2="327.6" y2="80.2"/>
  <line x1="370.8" y1="161.8" x2="338.3" y2="92.7"/>
  <line x1="371.9" y1="167.2" x2="347.8" y2="106.2"/>
  <line x1="372.8" y1="172.6" x2="355.9" y2="120.6"/>
  <line x1="373.6" y1="178.1" x2="362.7" y2="135.6"/>
  <line x1="374.2" y1="183.5" x2="368.1" y2="151.2"/>
  <line x1="374.7" y1="189.0" x2="371.9" y2="167.2"/>
  <line x1="374.9" y1="194.5" x2="374.2" y2="183.5"/>
  </g>
</svg>
