<svg xmlns="http://www.w3.org/2000/svg" viewBox="0 0 400 250" width="400" height="250">
<defs>
  <linearGradient id="bg" x1="0" y1="0" x2="0" y2="1" gradientUnits="objectBoundingBox">
    <stop offset="0" stop-color="#0a0a2e"/>
    <stop offset="1" stop-color="#1a0a28"/>
  </linearGradient>
</defs>
<rect width="400" height="250" fill="url(#bg)"/>
  <polygon points="252.8,18.8 251.9,11.6 255.8,12.2" fill="rgba(220,230,255,0.85)"/>
  <polygon points="91.5,175.9 96.3,181.2 92.8,182.9" fill="rgba(220,230,255,0.85)"/>
  <polygon points="346.2,30.7 351.4,25.7 353.2,29.1" fill="rgba(220,230,255,0.85)"/>
  <polygon points="14.4,59.0 21.5,57.3 21.3,61.2" fill="rgba(220,230,255,0.85)"/>
  <polygon points="15.2,50.5 20.9,55.0 17.8,57.2" fill="rgba(220,230,255,0.85)"/>
  <polygon points="213.0,56.9 219.9,59.0 217.9,62.3" fill="rgba(220,230,255,0.85)"/>
  <polygon points="320.5,4.8 320.0,12.0 316.3,10.7" fill="rgba(220,230,255,0.85)"/>
  <polygon points="278.9,91.8 273.4,87.1 276.6,84.9" fill="rgba(220,230,255,0.85)"/>
  <polygon points="379.7,89.5 372.9,87.3 375.0,84.1" fill="rgba(220,230,255,0.85)"/>
  <polygon points="41.2,203.3 47.9,205.9 45.5,209.0" fill="rgba(220,230,255,0.85)"/>
  <polygon points="313.1,177.6 320.3,177.3 319.4,181.1" fill="rgba(220,230,255,0.85)"/>
  <polygon points="376.9,95.0 384.1,95.4 382.9,99.0" fill="rgba(220,230,255,0.85)"/>
  <polygon points="329.7,148.9 326.7,155.5 323.8,153.0" fill="rgba(220,230,255,0.85)"/>
  <polygon points="234.5,174.3 227.3,174.2 228.4,170.5" fill="rgba(220,230,255,0.85)"/>
  <polygon points="99.9,78.1 92.9,76.5 94.7,73.1" fill="rgba(220,230,255,0.85)"/>
  <polygon points="96.5,36.6 95.8,29.4 99.6,30.1" fill="rgba(220,230,255,0.85)"/>
  <polygon points="248.7,97.0 252.0,90.6 254.9,93.3" fill="rgba(220,230,255,0.85)"/>
  <polygon points="93.1,68.5 87.4,73.0 85.9,69.4" fill="rgba(220,230,255,0.85)"/>
  <polygon points="259.2,154.9 254.2,149.8 257.6,147.9" fill="rgba(220,230,255,0.85)"/>
  <polygon points="284.4,49.7 288.1,43.5 290.7,46.3" fill="rgba(220,230,255,0.85)"/>
  <polygon points="383.3,156.0 390.5,156.6 389.1,160.3" fill="rgba(220,230,255,0.85)"/>
  <polygon points="271.7,200.3 272.5,207.5 268.7,206.8" fill="rgba(220,230,255,0.85)"/>
  <polygon points="94.0,20.1 94.9,13.0 98.5,14.5" fill="rgba(220,230,255,0.85)"/>
  <polygon points="115.5,55.6 109.7,59.9 108.3,56.2" fill="rgba(220,230,255,0.85)"/>
  <polygon points="341.7,77.5 347.2,82.2 344.0,84.3" fill="rgba(220,230,255,0.85)"/>
  <polygon points="155.1,223.3 161.3,219.6 162.3,223.4" fill="rgba(220,230,255,0.85)"/>
  <polygon points="105.1,63.8 112.2,64.6 110.8,68.2" fill="rgba(220,230,255,0.85)"/>
  <polygon points="112.9,141.8 108.5,147.5 106.2,144.4" fill="rgba(220,230,255,0.85)"/>
  <polygon points="166.4,59.2 159.5,61.3 159.4,57.4" fill="rgba(220,230,255,0.85)"/>
  <polygon points="208.4,30.7 201.2,30.6 202.4,26.8" fill="rgba(220,230,255,0.85)"/>
  <polygon points="51.4,150.0 51.5,157.2 47.7,156.2" fill="rgba(220,230,255,0.85)"/>
  <polygon points="166.4,26.3 170.2,20.1 172.9,23.0" fill="rgba(220,230,255,0.85)"/>
  <polygon points="395.4,130.9 388.9,134.1 388.2,130.3" fill="rgba(220,230,255,0.85)"/>
  <polygon points="337.6,5.8 340.8,12.2 337.0,13.0" fill="rgba(220,230,255,0.85)"/>
  <polygon points="269.2,138.6 268.0,131.5 271.9,131.9" fill="rgba(220,230,255,0.85)"/>
  <polygon points="249.5,36.1 255.1,31.5 256.7,35.1" fill="rgba(220,230,255,0.85)"/>
  <polygon points="185.8,227.7 182.2,233.9 179.5,231.2" fill="rgba(220,230,255,0.85)"/>
  <polygon points="111.3,129.6 106.5,124.2 110.1,122.5" fill="rgba(220,230,255,0.85)"/>
  <polygon points="357.0,216.5 357.2,209.3 360.9,210.4" fill="rgba(220,230,255,0.85)"/>
  <polygon points="256.2,154.6 250.6,150.0 253.8,147.8" fill="rgba(220,230,255,0.85)"/>
  <polygon points="301.7,129.3 302.4,136.5 298.5,135.8" fill="rgba(220,230,255,0.85)"/>
  <polygon points="209.4,12.6 210.8,5.5 214.3,7.3" fill="rgba(220,230,255,0.85)"/>
  <polygon points="19.1,222.0 15.4,228.2 12.7,225.3" fill="rgba(220,230,255,0.85)"/>
  <polygon points="332.0,81.7 324.9,81.1 326.2,77.4" fill="rgba(220,230,255,0.85)"/>
  <polygon points="349.4,232.1 342.5,230.3 344.5,226.9" fill="rgba(220,230,255,0.85)"/>
  <polygon points="195.0,19.2 196.4,26.3 192.6,26.0" fill="rgba(220,230,255,0.85)"/>
  <polygon points="297.1,38.8 303.7,35.8 304.3,39.7" fill="rgba(220,230,255,0.85)"/>
  <polygon points="222.6,66.4 219.2,72.8 216.4,70.1" fill="rgba(220,230,255,0.85)"/>
  <polygon points="165.6,56.3 172.8,56.2 171.9,59.9" fill="rgba(220,230,255,0.85)"/>
  <polygon points="286.4,59.7 287.2,52.5 290.8,54.0" fill="rgba(220,230,255,0.85)"/>
  <polygon points="385.5,162.0 391.2,157.5 392.7,161.1" fill="rgba(220,230,255,0.85)"/>
  <polygon points="207.5,41.3 204.5,34.7 208.4,34.1" fill="rgba(220,230,255,0.85)"/>
  <polygon points="138.4,150.6 135.7,144.0 139.5,143.5" fill="rgba(220,230,255,0.85)"/>
  <polygon points="89.2,20.9 95.3,24.7 92.5,27.4" fill="rgba(220,230,255,0.85)"/>
  <polygon points="99.1,216.0 96.2,222.6 93.2,220.1" fill="rgba(220,230,255,0.85)"/>
  <polygon points="32.8,59.3 37.9,64.4 34.5,66.3" fill="rgba(220,230,255,0.85)"/>
  <polygon points="94.9,37.0 89.2,41.5 87.7,37.9" fill="rgba(220,230,255,0.85)"/>
  <polygon points="228.4,113.7 228.8,120.9 225.0,120.1" fill="rgba(220,230,255,0.85)"/>
  <polygon points="322.2,55.4 315.4,53.0 317.6,49.8" fill="rgba(220,230,255,0.85)"/>
  <polygon points="168.6,108.1 175.0,104.8 175.8,108.6" fill="rgba(220,230,255,0.85)"/>
  <polygon points="292.9,165.1 286.2,167.7 285.8,163.8" fill="rgba(220,230,255,0.85)"/>
  <polygon points="43.1,106.4 45.2,99.5 48.5,101.6" fill="rgba(220,230,255,0.85)"/>
  <polygon points="340.7,70.8 336.4,65.1 340.0,63.7" fill="rgba(220,230,255,0.85)"/>
  <polygon points="179.4,111.6 178.7,104.5 182.5,105.2" fill="rgba(220,230,255,0.85)"/>
  <polygon points="99.2,225.8 105.1,221.5 106.4,225.2" fill="rgba(220,230,255,0.85)"/>
  <polygon points="343.5,138.3 336.3,138.0 337.5,134.3" fill="rgba(220,230,255,0.85)"/>
  <polygon points="396.6,202.7 390.2,205.9 389.4,202.1" fill="rgba(220,230,255,0.85)"/>
  <polygon points="366.2,210.9 361.1,205.9 364.4,203.9" fill="rgba(220,230,255,0.85)"/>
  <polygon points="190.4,60.9 194.9,55.3 197.2,58.5" fill="rgba(220,230,255,0.85)"/>
  <polygon points="35.5,96.2 28.8,98.8 28.4,94.9" fill="rgba(220,230,255,0.85)"/>
  <polygon points="105.0,192.9 111.2,189.1 112.2,192.8" fill="rgba(220,230,255,0.85)"/>
  <polygon points="175.4,231.9 168.5,234.0 168.4,230.1" fill="rgba(220,230,255,0.85)"/>
  <polygon points="224.2,180.2 218.7,175.6 221.9,173.4" fill="rgba(220,230,255,0.85)"/>
  <polygon points="117.5,232.3 124.6,233.9 122.7,237.3" fill="rgba(220,230,255,0.85)"/>
  <polygon points="220.9,184.8 213.7,184.2 215.1,180.5" fill="rgba(220,230,255,0.85)"/>
  <polygon points="235.3,121.7 232.7,128.4 229.6,126.1" fill="rgba(220,230,255,0.85)"/>
  <polygon points="72.8,235.2 65.8,233.6 67.7,230.2" fill="rgba(220,230,255,0.85)"/>
  <polygon points="77.1,142.8 82.0,148.1 78.5,149.9" fill="rgba(220,230,255,0.85)"/>
  <polygon points="102.2,32.9 98.1,38.8 95.6,35.8" fill="rgba(220,230,255,0.85)"/>
  <polygon points="98.9,143.7 105.3,147.0 102.6,149.9" fill="rgba(220,230,255,0.85)"/>
  <polygon points="164.0,143.9 171.2,142.9 170.6,146.8" fill="rgba(220,230,255,0.85)"/>
  <polygon points="365.9,50.9 369.2,57.3 365.4,58.1" fill="rgba(220,230,255,0.85)"/>
  <polygon points="97.3,96.2 102.3,101.4 98.9,103.2" fill="rgba(220,230,255,0.85)"/>
  <polygon points="123.3,77.0 125.1,84.0 121.2,83.9" fill="rgba(220,230,255,0.85)"/>
  <polygon points="40.9,115.2 33.9,117.2 33.9,113.3" fill="rgba(220,230,255,0.85)"/>
  <polygon points="391.6,30.0 388.2,23.7 391.9,22.8" fill="rgba(220,230,255,0.85)"/>
  <polygon points="113.5,223.0 109.7,229.1 107.1,226.3" fill="rgba(220,230,255,0.85)"/>
  <polygon points="348.4,98.7 342.9,93.9 346.2,91.8" fill="rgba(220,230,255,0.85)"/>
  <polygon points="324.3,169.4 330.9,172.4 328.4,175.4" fill="rgba(220,230,255,0.85)"/>
  <polygon points="392.1,161.3 385.1,162.9 385.3,159.0" fill="rgba(220,230,255,0.85)"/>
  <polygon points="319.2,73.8 324.4,78.7 321.1,80.7" fill="rgba(220,230,255,0.85)"/>
  <polygon points="372.3,42.7 365.8,39.6 368.4,36.7" fill="rgba(220,230,255,0.85)"/>
  <polygon points="48.4,142.4 47.4,135.3 51.3,135.8" fill="rgba(220,230,255,0.85)"/>
  <polygon points="241.7,180.7 237.8,174.6 241.6,173.5" fill="rgba(220,230,255,0.85)"/>
  <polygon points="246.6,70.1 253.3,67.7 253.6,71.6" fill="rgba(220,230,255,0.85)"/>
  <polygon points="359.8,208.7 353.0,206.5 355.1,203.3" fill="rgba(220,230,255,0.85)"/>
  <polygon points="175.7,72.9 168.7,74.6 168.8,70.8" fill="rgba(220,230,255,0.85)"/>
  <polygon points="303.7,162.1 302.3,155.0 306.2,155.3" fill="rgba(220,230,255,0.85)"/>
  <polygon points="288.1,139.3 293.5,134.5 295.2,138.0" fill="rgba(220,230,255,0.85)"/>
  <polygon points="15.4,22.3 11.6,28.4 9.0,25.5" fill="rgba(220,230,255,0.85)"/>
</svg>