<svg xmlns="http://www.w3.org/2000/svg" viewBox="0 0 400 400" width="400" height="400">
  <rect width="400" height="400" fill="#0d0d0d"/>
  <polyline points="316.90,200.00 361.28,273.30 324.05,328.55 224.77,352.27 115.12,338.71 51.62,291.22 65.85,221.49 148.12,146.61 253.25,84.90 325.02,51.44 326.35,54.38 258.78,92.94 161.06,157.63 87.73,232.59 79.37,299.47 140.48,341.91 237.17,349.57 315.58,320.62 331.31,262.21 273.79,188.66 172.43,118.00 81.18,67.51 49.66,49.51 96.41,68.35 198.53,119.37 303.51,190.04 356.81,263.04 330.73,320.51 238.98,348.41 129.42,339.96 58.63,297.28 62.18,230.86 136.08,157.00 239.51,93.76 317.01,56.61 328.23,54.60 269.25,88.16 174.15,149.03 96.09,222.29 78.26,289.98 130.42,335.55 223.64,347.90 306.07,324.04 331.24,269.87 283.53,198.69 187.02,127.94 92.93,74.92 52.25,52.58 88.27,66.35 183.74,112.79 289.66,180.50 351.03,252.87 335.91,312.21 252.32,344.00 143.88,340.52 66.75,302.66 59.95,239.74 125.03,167.20 225.81,102.79 308.07,62.25 328.75,55.48 278.69,84.08 187.10,140.99 105.27,212.26 78.50,280.41 121.49,328.80 210.38,345.60 295.81,326.75 329.79,276.92 291.99,208.35 201.12,137.84 105.26,82.64 56.20,56.23 81.57,65.04 169.71,106.85 275.50,171.39 344.03,242.83 339.61,303.69 264.68,339.08 158.38,340.40 75.87,307.36 59.13,248.11 115.05,177.18 212.26,111.93 298.33,68.33 327.94,57.01 287.02,80.69 199.78,133.52 115.16,202.54 80.05,270.83 113.74,321.69 197.54,342.70 284.95,328.77 327.03,283.36 299.12,217.62 214.59,147.67 118.02,90.62 61.42,60.42 76.32,64.42 156.56,101.57 261.19,162.76 335.92,232.96 341.85,294.99 275.97,333.69 172.76,339.63 85.85,311.39 59.68,255.95 106.20,186.90 199.01,121.16 287.89,74.80 325.86,59.15 294.20,77.98 212.06,126.63 125.63,193.16 82.82,261.26 107.20,314.28 185.21,339.25 273.61,330.12 323.02,289.17 304.91,226.46 227.34,157.38 131.06,98.82 67.80,65.11 72.51,64.45 144.38,96.95 246.86,154.61 326.84,223.30 342.65,286.18 286.13,327.88 186.90,338.23 96.58,314.75 61.56,263.23 98.54,196.32 186.18,130.41 276.90,81.62 322.58,61.87 300.19,75.94 223.83,120.34 136.54,184.16 86.76,251.77 101.90,306.60 173.51,335.28 261.93,330.81 317.88,294.35 309.35,234.86 239.26,166.93 144.25,107.19 75.24,70.25 70.13,65.11 133.24,92.97 232.66,146.98 316.89,213.88 342.06,277.28 295.10,321.68 200.65,336.25 107.93,317.45 64.70,269.96 92.10,205.41 173.88,139.64 265.49,88.74 318.15,65.13 304.97,74.55 234.98,114.65 147.77,175.57 91.78,242.38 97.85,298.71 162.55,330.82 250.06,330.87 311.70,298.90 312.46,242.78 250.27,176.29 157.44,115.69 83.62,75.81 69.14,66.37 123.22,89.65 218.72,139.88 306.22,204.75 340.14,268.36 302.84,315.15 213.91,333.70 119.76,319.51 69.02,276.10 86.91,214.15 162.22,148.82 253.77,96.11 312.68,68.90 308.53,73.80 245.41,109.57 159.18,167.41 97.78,233.14 95.05,290.65 152.41,325.91 238.12,330.31 304.58,302.82 314.25,250.22 260.28,185.41 170.51,124.27 92.82,81.74 69.49,68.22 114.37,86.95 205.16,133.32 294.94,195.93 336.96,259.44 309.31,308.31 226.57,330.61 131.95,320.93 74.46,281.67 82.97,222.49 151.29,157.90 241.88,103.70 306.24,73.15 310.88,73.67 255.05,105.10 170.65,159.70 104.66,224.08 93.47,282.47 143.15,320.60 226.24,329.16 296.63,306.11 314.77,257.14 269.24,194.26 183.31,132.88 102.70,88.01 71.13,70.61 106.73,84.89 192.11,127.31 283.20,187.45 332.59,250.57 314.50,301.22 238.51,327.04 144.36,321.73 80.91,286.65 80.28,230.43 141.18,166.84 229.95,111.46 298.93,77.83 312.02,74.13 263.81,101.24 182.06,152.46 112.33,215.24 93.09,274.20 134.86,314.91 214.54,327.45 287.98,308.79 314.05,263.54 277.10,202.82 195.75,141.49 113.15,94.57 73.98,73.52 100.33,83.44 179.66,121.86 271.13,179.34 327.11,241.79 318.41,293.93 249.66,323.00 156.87,321.94 88.28,291.05 78.83,237.93 131.95,175.61 218.09,119.35 290.86,82.91 311.99,75.17 271.64,97.98 193.29,145.72 120.67,206.66 93.86,265.89 127.57,308.91 203.14,325.21 278.74,310.87 312.16,269.41 283.83,211.04 207.69,150.06 124.04,101.38 77.97,76.91 95.18,82.58 167.93,116.98 258.85,171.63 320.64,233.15 321.04,286.46 259.93,318.54 169.35,321.57 96.46,294.85 78.60,244.97 123.68,184.16 206.42,127.32 282.13,88.34 310.83,76.74 278.49,95.31 204.23,139.47 129.57,198.37 95.75,257.58 121.33,302.61 192.14,322.47 269.03,312.34 309.17,274.74 289.40,218.91 219.05,158.54 135.23,108.40 83.02,80.75 91.28,82.31 156.98,112.66 246.49,164.34 313.25,224.66 322.41,278.86 269.25,313.68 181.68,320.64 105.36,298.08 79.54,251.55 116.42,192.48 195.05,135.34 272.85,94.10 308.58,78.84 284.32,93.23 214.77,133.73 138.91,190.38 98.68,249.30 116.16,296.07 181.65,319.26 258.97,313.24 305.14,279.53 293.80,226.41 229.74,166.91 146.61,115.59 89.03,85.00 88.62,82.59 146.91,108.91 234.18,157.48 305.07,216.37 322.56,271.17 277.58,308.48 193.75,319.19 114.86,300.73 81.60,257.64 110.19,200.53 184.08,143.36 263.13,100.14 305.30,81.42 289.10,91.73 224.83,128.52 148.59,182.74 102.58,241.10 112.07,289.32 171.76,315.61 248.68,313.58 300.16,283.77 297.03,233.50 239.66,175.12 158.05,122.91 95.90,89.64 87.18,83.41 137.77,105.73 222.03,151.07 296.19,208.31 321.53,263.44 284.85,302.96 205.45,317.24 124.84,302.81 84.73,263.25 105.04,208.27 173.62,151.36 253.09,106.43 301.07,84.46 292.83,90.79 234.30,123.83 158.50,175.46 107.39,233.01 109.07,282.40 162.54,311.56 238.28,313.38 294.33,287.46 299.12,240.18 248.76,183.14 169.44,130.32 103.53,94.61 86.92,84.75 129.62,103.10 210.15,145.12 286.74,200.51 319.38,255.69 291.05,297.17 216.68,314.80 135.19,304.33 88.86,268.35 100.97,215.70 163.74,159.28 242.84,112.92 295.95,87.93 295.48,90.39 243.11,119.67 168.51,168.55 113.02,225.06 107.15,275.35 154.07,307.13 227.87,312.65 287.73,290.61 300.08,246.43 256.97,190.95 180.65,137.78 111.81,99.90 87.80,86.57 122.50,101.02 198.66,139.65 276.82,193.00 316.16,247.97 296.15,291.13 227.35,311.93 145.81,305.31 93.92,272.94 98.00,222.77 154.54,167.11 232.48,119.58 290.03,91.79 297.09,90.52 251.20,116.04 178.52,162.06 119.37,217.29 106.29,268.21 146.41,302.37 217.58,311.43 280.47,293.22 299.95,252.22 264.25,198.52 191.60,145.25 120.64,105.46 89.76,88.86 116.44,99.47 187.64,134.67 266.54,185.79 311.96,240.31 300.14,284.89 237.36,308.63 156.57,305.76 99.83,277.02 96.10,229.48 146.07,174.80 222.13,126.36 283.39,96.02 297.65,91.15 258.51,112.93 188.43,155.97 126.36,209.72 106.46,261.02 139.60,297.30 207.49,309.73 272.65,295.29 298.77,257.57 270.55,205.81 202.17,152.71 129.89,111.26 92.74,91.58 111.45,98.46 177.19,130.17 256.04,178.91 306.83,232.74 303.01,278.48 246.66,304.95 167.37,305.71 106.50,280.60 95.27,235.81 138.40,182.32 211.88,133.24 276.12,100.57 297.21,92.27 264.98,110.34 198.14,150.32 133.89,202.39 107.62,253.80 133.69,291.97 197.71,307.58 264.36,296.85 296.61,262.44 275.86,212.81 212.27,160.11 139.47,117.26 96.67,94.71 107.54,97.95 167.39,126.16 245.40,172.39 300.88,225.30 304.80,271.95 255.18,300.92 178.10,305.16 113.83,283.66 95.48,241.73 131.57,189.65 201.84,140.18 268.32,105.42 295.80,93.85 270.57,108.27 207.54,145.10 141.86,195.32 109.71,246.60 128.70,286.40 188.33,305.01 255.73,297.90 293.51,266.85 280.16,219.49 221.82,167.43 149.27,123.42 101.48,98.21 104.72,97.94 158.31,122.64 234.75,166.23 294.18,218.02 305.51,265.32 262.85,296.56 188.66,304.14 121.74,286.23 96.69,247.25 125.64,196.76 192.11,147.15 260.09,110.54 293.46,95.87 275.27,106.70 216.57,140.34 150.17,188.52 112.69,239.44 124.66,280.64 179.43,302.04 246.84,298.45 289.56,270.78 283.44,225.83 230.75,174.63 159.17,129.71 107.07,102.06 102.95,98.41 150.00,119.62 224.18,160.46 286.84,210.92 305.18,258.62 269.64,291.92 198.95,302.67 130.13,288.29 98.85,252.33 120.61,203.63 182.76,154.10 251.52,115.88 290.26,98.30 279.04,105.62 225.13,136.03 158.73,182.03 116.49,232.37 121.56,274.71 171.09,298.71 237.80,298.52 284.82,274.23 285.72,231.82 238.99,181.68 169.07,136.10 113.37,106.23 102.23,99.33 142.53,117.08 213.80,155.09 278.94,204.03 303.85,251.90 275.51,287.01 208.89,300.78 138.90,289.87 101.92,256.99 116.53,210.22 173.88,161.01 242.71,121.42 286.24,101.11 281.89,105.03 233.15,132.17 167.44,175.87 121.04,225.40 119.41,268.65 163.37,295.04 228.72,298.13 279.38,277.21 287.01,237.44 246.49,188.56 178.87,142.56 120.27,110.67 102.50,100.69 135.93,115.02 203.70,150.12 270.58,197.37 301.57,245.19 280.44,281.88 218.38,298.49 147.95,290.97 105.83,261.21 113.39,216.52 165.54,167.85 233.75,127.12 281.49,104.29 283.82,104.90 240.57,128.77 176.19,170.04 126.27,218.58 118.19,262.49 156.33,291.06 219.68,297.30 273.32,279.73 287.34,242.68 253.19,195.24 188.48,149.04 127.70,115.38 103.75,102.47 130.23,113.44 193.97,145.57 261.87,190.97 298.40,238.51 284.42,276.56 227.35,295.82 157.18,291.61 110.51,264.99 111.19,222.51 157.81,174.59 224.75,132.96 276.07,107.79 284.83,105.22 247.34,125.84 184.91,164.57 132.09,211.91 117.88,256.27 150.01,286.80 210.79,296.04 266.73,281.77 286.74,247.52 259.07,201.70 197.81,155.52 135.54,120.30 105.90,104.63 125.45,112.31 184.69,141.44 252.90,184.85 294.40,231.90 287.43,271.08 235.74,292.80 166.50,291.79 115.90,268.33 109.92,228.18 150.74,181.20 215.78,138.89 270.06,111.59 284.95,105.96 253.39,123.35 193.49,159.46 138.43,205.44 118.45,250.02 144.45,282.29 202.12,294.38 259.69,283.36 285.26,251.97 264.09,207.91 206.77,161.97 143.72,125.41 108.90,107.16 121.61,111.64 175.93,137.74 243.77,179.02 289.64,225.38 289.49,265.46 243.48,289.46 175.81,291.54 121.91,271.22 109.57,233.51 144.38,187.65 206.95,144.89 263.55,115.67 284.20,107.12 258.71,121.32 201.85,154.74 145.19,199.18 119.86,243.76 139.69,277.56 193.76,292.34 252.30,284.51 282.94,256.01 268.24,213.85 215.29,168.37 152.12,130.69 112.70,110.03 118.70,111.41 167.77,134.46 234.58,173.51 284.20,218.99 290.62,259.75 250.51,285.83 185.03,290.88 128.47,273.68 110.11,238.49 138.77,193.93 198.34,150.92 256.60,119.99 282.63,108.67 263.25,119.72 209.92,150.39 152.30,193.15 122.07,237.53 135.75,272.65 185.78,289.95 244.65,285.21 279.85,259.64 271.51,219.51 223.30,174.67 160.66,136.09 117.21,113.21 116.72,111.59 160.24,131.61 225.41,168.33 278.16,212.74 290.82,253.97 256.81,281.93 194.06,289.81 135.49,275.70 111.50,243.10 133.95,200.00 190.02,156.96 249.31,124.52 280.27,110.59 267.00,118.56 217.62,146.44 159.67,187.38 125.02,231.35 132.63,267.58 178.25,287.22 236.83,285.50 276.05,262.86 273.90,224.87 230.75,180.86 169.25,141.60 122.37,116.68 115.65,112.18 153.42,129.18 216.36,163.48 271.59,206.66 290.14,248.14 262.32,277.79 202.82,288.36 142.88,277.30 113.70,247.34 129.93,205.84 182.06,162.98 241.77,129.24 277.18,112.86 269.94,117.82 224.89,142.89 167.21,181.88 128.66,225.25 130.33,262.38 171.24,284.19 228.92,285.37 271.59,265.66 275.43,229.92 237.56,186.91 177.80,147.17 128.10,120.41 115.46,113.16 147.33,127.17 207.50,158.98 264.58,200.77 288.62,242.31 267.04,273.44 211.24,286.55 150.57,278.47 116.66,251.20 126.72,211.45 174.54,168.95 234.05,134.12 273.41,115.45 272.08,117.50 231.66,139.73 174.84,176.67 132.92,219.26 128.85,257.08 164.80,280.88 221.02,284.85 266.57,268.06 276.11,234.64 243.71,192.80 186.22,152.78 134.32,124.38 116.12,114.51 142.01,125.58 198.93,154.84 257.21,195.10 286.30,236.50 270.93,268.91 219.25,284.41 158.47,279.24 120.33,254.69 124.34,216.79 167.52,174.85 226.25,139.12 269.03,118.34 273.41,117.57 237.88,136.96 182.47,171.75 137.74,213.40 128.18,251.71 158.97,277.31 213.19,283.95 261.04,270.05 275.97,239.03 249.16,198.51 194.44,158.41 140.95,128.55 117.60,116.21 137.48,124.39 190.70,151.06 249.58,189.66 283.23,230.73 273.99,264.22 226.79,281.95 166.48,279.61 124.64,257.79 122.77,221.86 161.04,180.65 218.43,144.22 264.09,121.50 273.96,118.02 243.51,134.60 190.03,167.15 143.04,207.70 128.28,246.29 153.78,273.51 205.53,282.70 255.09,271.64 275.04,243.07 253.88,204.01 202.37,164.03 147.90,132.90 119.84,118.24 133.75,123.60 182.90,147.65 241.76,184.46 279.47,225.03 276.22,259.41 233.79,279.20 174.54,279.59 129.53,260.50 122.00,226.65 155.16,186.32 210.69,149.40 258.67,124.92 273.73,118.84 248.51,132.63 197.44,162.88 148.76,202.16 129.14,240.86 149.28,269.51 198.10,281.10 248.79,272.84 273.37,246.77 257.85,209.30 209.95,169.60 155.10,137.41 122.80,120.57 130.83,123.20 175.58,144.61 233.85,179.54 275.09,219.42 277.64,254.49 240.21,276.18 182.56,279.20 134.93,262.84 122.02,231.13 149.92,191.85 203.09,154.62 252.84,128.56 272.77,120.01 252.85,131.04 204.63,158.93 154.81,196.82 130.71,235.44 145.48,265.33 190.97,279.19 242.23,273.65 271.00,250.11 261.05,214.34 217.12,175.12 162.45,142.04 126.40,123.19 128.71,123.17 168.79,141.94 225.91,174.88 270.14,213.93 278.25,249.50 246.01,272.92 190.46,278.46 140.78,264.79 122.79,235.30 145.33,197.21 195.71,159.86 246.68,132.39 271.11,121.50 256.51,129.83 211.53,155.32 161.13,191.70 132.96,230.05 142.39,261.00 184.21,276.97 235.48,274.09 267.98,253.09 263.50,219.13 223.82,180.54 169.88,146.77 130.60,126.07 127.39,123.49 162.58,139.63 218.03,170.52 264.70,208.57 278.08,244.47 251.15,269.43 198.17,277.37 146.99,266.37 124.29,239.15 141.44,202.39 188.61,165.10 240.24,136.40 268.78,123.31 259.47,129.00 218.08,152.05 167.64,186.80 135.82,224.72 140.02,256.54 177.87,274.48 228.62,274.17 264.37,255.72 265.19,223.66 230.01,185.86 177.32,151.58 135.33,129.19 126.85,124.17 156.99,137.70 210.29,166.45 258.85,203.37 277.16,239.41 255.61,265.75 205.62,275.97 153.50,267.58 126.47,242.68 138.24,207.37 181.86,170.31 233.62,140.57 265.84,125.41 261.73,128.53 224.23,149.12 174.26,182.14 139.26,219.47 138.36,251.99 171.99,271.73 221.72,273.90 260.22,257.99 266.13,227.91 235.63,191.05 184.68,156.43 140.52,132.53 127.07,125.17 152.05,136.13 202.75,162.69 252.65,198.35 275.52,234.36 259.37,261.90 212.75,274.26 160.23,268.44 129.30,245.88 135.76,212.13 175.51,175.46 226.87,144.85 262.33,127.78 263.29,128.41 229.93,146.54 180.92,177.73 143.22,214.32 137.42,247.36 166.64,268.75 214.86,273.29 255.62,259.90 266.35,231.87 240.66,196.09 191.90,161.31 146.09,136.06 128.00,126.48 147.78,134.91 195.48,159.25 246.17,193.52 273.22,229.33 262.41,257.90 219.50,272.27 167.11,268.94 132.71,248.74 133.99,216.65 169.61,180.54 220.08,149.24 258.31,130.40 264.15,128.62 235.13,144.31 187.56,173.60 147.63,209.30 137.16,242.67 161.83,265.56 208.10,272.37 250.61,261.46 265.87,235.54 245.06,200.96 198.90,166.19 151.98,139.75 129.61,128.09 144.21,134.04 188.54,156.12 239.50,188.90 270.29,224.34 264.73,253.78 225.81,270.02 174.07,269.10 136.65,251.28 132.92,220.94 164.21,185.52 213.31,153.70 253.83,133.25 264.34,129.17 239.80,142.42 194.10,169.74 152.43,204.42 137.57,237.97 157.60,262.18 201.52,271.14 245.27,262.68 264.72,238.91 248.82,205.64 205.63,171.05 158.12,143.59 131.87,129.98 141.33,133.51 182.00,153.31 232.69,184.50 266.79,219.43 266.34,249.56 231.64,267.52 181.02,268.93 141.08,253.48 132.54,224.96 159.33,190.39 206.64,158.21 248.96,136.31 263.87,130.02 243.90,140.86 200.48,166.16 157.56,199.69 138.63,233.26 153.97,258.63 195.17,269.62 239.66,263.57 262.95,241.97 251.93,210.13 212.03,175.87 164.43,147.56 134.71,132.12 139.15,133.31 175.89,150.82 225.84,180.33 262.77,214.61 267.25,245.27 236.96,264.80 187.92,268.45 145.92,255.35 132.83,228.73 155.02,195.12 200.11,162.75 243.77,139.55 262.76,131.17 247.42,139.64 206.64,162.87 162.96,195.14 140.28,228.56 150.96,254.94 189.11,267.84 233.85,264.12 260.59,244.72 254.37,214.41 218.05,180.62 170.85,151.62 138.10,134.50 137.66,133.43 170.26,148.65 219.00,176.41 258.30,209.90 267.47,240.92 241.72,261.88 194.68,267.67 151.12,256.89 133.77,232.22 151.29,199.70 193.80,167.30 238.30,142.95 261.06,132.59 250.34,138.74 212.53,159.87 168.55,190.79 142.50,223.91 148.57,251.13 183.40,265.80 227.92,264.35 257.69,247.16 256.15,218.46 223.64,185.28 177.30,155.76 141.98,137.10 136.86,133.86 165.15,146.80 212.24,172.74 253.43,205.31 267.02,236.54 245.90,258.77 201.25,266.60 156.61,258.12 135.32,235.43 148.17,204.11 187.77,171.83 232.63,146.49 258.81,134.28 252.66,138.17 218.09,157.18 174.28,186.63 145.25,219.31 146.81,247.22 178.07,263.53 221.92,264.28 254.31,249.30 257.28,222.28 228.76,189.85 183.72,159.95 146.28,139.89 136.72,134.58 160.59,145.27 205.63,169.34 248.22,200.87 265.95,232.15 249.48,255.51 207.58,265.25 162.33,259.02 137.45,238.36 145.66,208.34 182.05,176.33 226.83,150.16 256.03,136.22 254.35,137.90 223.27,154.78 180.08,182.69 148.47,214.80 145.67,243.24 173.17,261.05 215.92,263.91 250.49,251.12 257.78,225.85 233.38,194.29 190.05,164.17 150.95,142.87 137.22,135.57 156.60,144.05 199.22,166.20 242.75,196.59 264.27,227.77 252.45,252.10 213.60,263.66 168.21,259.62 140.11,241.00 143.77,212.38 176.70,180.77 220.95,153.92 252.78,138.38 255.45,137.94 228.04,152.68 185.89,178.98 152.11,210.38 145.14,239.20 168.73,258.38 209.98,263.25 246.29,252.64 257.65,229.17 237.47,198.59 196.22,168.41 155.92,146.00 138.32,136.83 153.20,143.14 193.07,163.34 237.06,192.48 262.02,223.42 254.80,248.58 219.27,261.82 174.19,259.91 143.27,243.35 142.49,216.21 171.76,185.14 215.05,157.76 249.11,140.75 255.94,138.26 232.37,150.88 191.64,175.50 156.12,206.08 145.20,235.12 164.79,255.53 204.16,262.32 241.78,253.86 256.93,232.23 241.00,202.75 202.18,172.64 161.14,149.27 140.00,138.34 150.40,142.52 187.23,160.75 231.24,188.56 259.26,219.12 256.53,244.96 224.55,259.76 180.22,259.92 146.86,245.42 141.82,219.82 167.26,189.42 209.20,161.65 245.07,143.30 255.85,138.86 236.22,149.37 197.28,172.26 160.45,201.90 145.83,231.03 161.36,252.53 198.53,261.14 237.01,254.78 255.65,235.03 243.98,206.74 207.88,176.84 166.54,152.65 142.21,140.09 148.21,142.20 181.75,158.45 225.34,184.84 256.03,214.90 257.65,241.27 229.39,257.50 186.21,259.65 150.85,247.19 141.74,223.21 163.24,193.59 203.45,165.58 240.71,146.03 255.20,139.72 239.57,148.16 202.76,169.27 165.04,197.87 147.00,226.95 158.46,249.39 193.11,259.71 232.03,255.41 253.85,237.56 246.38,210.55 213.27,180.99 172.07,156.13 144.92,142.04 146.62,142.15 176.67,156.42 219.41,181.32 252.37,210.76 258.16,237.52 233.78,255.06 192.13,259.10 155.18,248.68 142.23,226.37 159.71,197.63 197.87,169.52 236.09,148.91 254.01,140.83 242.41,147.23 208.03,166.54 169.83,194.00 148.69,222.89 156.10,246.14 187.98,258.06 226.91,255.76 251.55,239.82 248.21,214.17 218.30,185.08 177.65,159.69 148.07,144.20 145.63,142.38 172.02,154.67 213.53,178.02 248.34,206.72 258.09,233.73 237.67,252.45 197.91,258.31 159.79,249.89 143.27,229.28 156.70,201.54 192.48,173.47 231.26,151.92 252.32,142.17 244.72,146.59 213.03,164.06 174.77,190.30 150.84,218.88 154.28,242.79 183.16,256.20 221.71,255.84 248.81,241.82 249.47,217.59 222.95,189.09 183.24,163.31 151.62,146.54 145.22,142.87 167.83,153.19 207.74,174.94 243.99,202.80 257.45,229.92 241.06,249.69 203.51,257.27 164.63,250.82 144.83,231.96 154.22,205.30 187.36,177.39 226.28,155.05 250.16,143.74 246.50,146.21 217.73,161.84 179.79,186.78 153.44,214.92 153.01,239.36 178.70,254.14 216.48,255.65 245.67,243.54 250.17,220.80 227.17,193.00 188.77,166.96 155.51,149.04 145.37,143.61 164.12,151.99 202.10,172.10 239.37,199.01 256.28,226.12 243.92,246.80 208.86,256.00 169.65,251.48 146.87,234.38 152.27,208.89 182.53,181.27 221.20,158.27 247.56,145.51 247.75,146.10 222.09,159.88 184.86,183.45 156.42,211.04 152.27,235.88 174.63,251.91 211.28,255.21 242.18,245.00 250.32,223.80 230.95,196.80 194.19,170.63 159.69,151.68 146.07,144.58 160.92,151.05 196.66,169.49 234.55,195.36 254.60,222.33 246.24,243.79 213.94,254.51 174.78,251.88 149.36,236.56 150.85,212.31 178.04,185.10 216.08,161.56 244.58,147.47 248.47,146.25 226.08,158.18 189.90,180.33 159.75,207.25 152.06,232.36 170.97,249.52 206.15,254.53 238.38,246.20 249.95,226.57 234.26,200.48 199.46,174.31 164.12,154.46 147.28,145.78 158.23,150.38 191.47,167.12 229.58,191.87 252.45,218.57 248.03,240.70 218.70,252.83 179.97,252.02 152.26,238.48 149.97,215.55 173.91,188.85 210.97,164.92 241.24,149.61 248.67,146.64 229.66,156.74 194.88,177.41 163.39,203.57 152.35,228.82 167.75,246.98 201.16,253.62 234.33,247.13 249.07,229.12 237.08,204.02 204.52,177.97 168.73,157.34 148.96,147.19 156.07,149.97 186.57,164.98 224.50,188.55 249.87,214.87 249.29,237.52 223.10,250.96 185.18,251.91 155.53,240.15 149.61,218.60 170.18,192.52 205.93,168.31 237.60,151.90 248.38,147.27 232.83,155.55 199.73,174.70 167.27,200.00 153.13,225.27 164.99,244.32 196.34,252.49 230.08,247.81 247.72,231.44 239.42,207.41 209.33,181.59 173.47,160.32 151.10,148.79 154.43,149.80 181.99,163.10 219.39,185.40 246.90,211.24 250.01,234.29 227.11,248.92 190.34,251.56 159.11,241.58 149.75,221.44 166.87,196.09 200.99,171.73 233.71,154.33 247.61,148.12 235.55,154.62 204.43,172.21 171.36,196.57 154.37,221.74 162.69,241.55 191.75,251.16 225.69,248.25 245.93,233.53 241.25,210.64 213.86,185.17 178.29,163.37 153.64,150.57 153.31,149.88 177.77,161.45 214.28,182.43 243.59,207.69 250.23,231.02 230.72,246.73 195.41,250.98 162.97,242.76 150.38,224.08 164.01,199.55 196.22,175.15 229.61,156.88 246.38,149.18 237.81,153.93 208.91,169.94 175.59,193.28 156.04,218.23 160.86,238.68 187.41,249.64 221.19,248.44 243.74,235.39 242.59,213.70 218.06,188.69 183.14,166.49 156.54,152.51 152.70,150.18 173.94,160.04 209.22,179.66 239.97,204.23 249.94,227.72 233.89,244.40 200.35,250.19 167.05,243.69 151.48,226.52 161.59,202.88 191.64,178.57 225.36,159.54 244.73,150.44 239.62,153.48 213.16,167.89 179.94,190.14 158.10,214.77 159.51,235.75 183.36,247.95 216.64,248.40 241.17,237.01 243.43,216.58 221.91,192.13 187.96,169.64 159.77,154.61 152.58,150.71 170.51,158.87 204.28,177.08 236.10,200.88 249.17,224.42 236.61,241.95 205.10,249.19 171.31,244.39 153.01,228.73 159.63,206.07 187.29,181.96 220.99,162.29 242.68,151.88 240.96,153.26 217.12,166.07 184.34,187.16 160.53,211.36 158.63,232.75 179.64,246.09 212.10,248.13 238.28,238.40 243.80,219.28 225.38,195.48 192.72,172.82 163.27,156.84 152.95,151.45 167.52,157.94 199.48,174.71 232.02,197.65 247.96,221.12 238.88,239.40 209.63,248.00 175.70,244.86 154.95,230.74 158.14,209.12 183.23,185.30 216.56,165.12 240.27,153.50 241.84,153.27 220.77,164.48 188.75,184.36 163.27,208.03 158.21,229.71 176.27,244.08 207.60,247.65 235.11,239.56 243.70,221.80 228.46,198.73 197.36,176.01 167.01,159.19 153.77,152.38 164.96,157.23 194.88,172.54 227.79,194.54 246.31,217.85 240.68,236.75 213.90,246.63 180.17,245.09 157.27,232.52 157.11,212.01 179.46,188.60 212.11,168.00 237.54,155.27 242.27,153.50 224.09,163.11 193.12,181.73 166.31,204.79 158.23,226.64 173.26,241.95 203.19,246.97 231.69,240.49 243.15,224.11 231.12,201.86 201.84,179.19 170.93,161.64 155.03,153.51 162.86,156.76 190.50,170.58 223.44,191.58 244.28,214.61 242.02,234.03 217.88,245.10 184.67,245.11 159.92,234.09 156.54,214.75 176.03,191.82 207.70,170.93 234.52,157.19 242.26,153.94 227.04,161.96 197.41,179.28 169.58,201.64 158.70,223.57 170.65,239.70 198.91,246.09 228.07,241.20 242.18,226.23 233.36,204.87 206.12,182.35 174.99,164.19 156.68,154.81 161.21,156.50 186.39,168.83 219.03,188.77 241.89,211.43 242.89,231.25 221.54,243.41 189.16,244.92 162.87,235.44 156.42,217.31 172.95,194.97 203.36,173.89 231.26,159.23 241.82,154.57 229.63,161.03 201.58,177.02 173.05,198.60 159.57,220.49 168.44,237.34 194.81,245.03 224.31,241.69 240.81,228.15 235.16,207.75 210.18,185.48 179.14,166.80 158.71,156.27 160.01,156.45 182.58,167.29 214.60,186.11 239.18,208.30 243.32,228.43 224.86,241.57 193.60,244.52 166.08,236.58 156.73,219.70 170.24,198.02 199.13,176.86 227.80,161.39 240.97,155.40 231.82,160.32 205.59,174.94 176.67,195.68 160.83,217.44 166.64,234.90 190.92,243.79 220.43,241.96 239.07,229.87 236.54,210.49 213.97,188.57 183.33,169.48 161.07,157.88 159.26,156.61 179.08,165.96 210.20,183.62 236.19,205.26 243.30,225.58 227.81,239.62 197.94,243.94 169.51,237.50 157.45,221.90 167.92,200.97 195.05,179.83 224.17,163.65 239.74,156.40 233.61,159.82 209.40,173.07 180.41,192.88 162.45,214.41 165.25,232.38 187.26,242.40 216.49,242.04 237.00,231.38 237.48,213.07 217.46,191.59 187.53,172.19 163.73,159.63 158.94,156.97 175.94,164.83 205.87,181.29 232.95,202.30 242.86,222.72 230.38,237.54 202.14,243.17 173.11,238.22 158.57,223.93 166.00,203.80 191.16,182.78 220.43,166.00 238.15,157.57 235.00,159.52 212.99,171.38 184.22,190.22 164.40,211.43 164.27,229.81 183.87,240.86 212.53,241.91 234.62,232.70 238.01,215.50 220.64,194.54 191.69,174.94 166.65,161.51 159.05,157.51 173.15,163.91 201.65,179.14 229.52,199.44 242.02,219.85 232.55,235.37 206.17,242.22 176.85,238.73 160.05,225.76 164.48,206.52 187.49,185.71 216.61,168.42 236.23,158.89 235.99,159.43 216.32,169.89 188.06,187.71 166.65,208.50 163.69,227.19 180.78,239.19 208.59,241.59 231.98,233.81 238.12,217.77 223.48,197.41 195.77,177.71 169.79,163.49 159.56,158.23 170.74,163.20 197.57,177.16 225.92,196.69 240.79,217.00 234.33,233.12 209.99,241.11 180.68,239.04 161.88,227.41 163.36,209.10 184.07,188.59 212.75,170.90 234.01,160.36 236.58,159.53 219.37,168.60 191.89,185.34 169.16,205.65 163.51,224.54 178.00,237.40 204.71,241.09 229.11,234.72 237.83,219.87 225.98,200.18 199.73,180.47 173.11,165.58 160.46,159.12 168.72,162.68 193.68,175.36 222.21,194.05 239.22,214.17 235.71,230.79 213.58,239.86 184.57,239.15 164.01,228.88 162.64,211.55 180.93,191.42 208.90,173.42 231.52,161.95 236.78,159.81 222.11,167.50 195.67,183.13 171.90,202.87 163.72,221.87 175.55,235.50 200.93,240.41 226.04,235.44 237.17,221.80 228.10,202.85 203.53,183.23 176.57,167.74 161.72,160.17 167.09,162.35 190.00,173.74 218.42,191.54 237.31,211.38 236.68,228.41 216.90,238.46 188.47,239.08 166.42,230.15 162.31,213.85 178.08,194.19 205.09,175.98 228.80,163.67 236.61,160.27 224.54,166.60 199.36,181.08 174.83,200.18 164.29,219.20 173.44,233.50 197.28,239.58 222.83,235.96 236.15,223.56 229.86,205.41 207.16,185.96 180.14,169.98 163.32,161.36 165.85,162.22 186.57,172.31 214.60,189.16 235.11,208.64 237.26,225.98 219.93,236.93 192.34,238.83 169.08,231.23 162.37,216.00 175.55,196.88 201.36,178.55 225.89,165.49 236.07,160.90 226.64,165.88 202.93,179.20 177.92,197.59 165.22,216.54 171.69,231.42 193.79,238.58 219.50,236.30 234.80,225.14 231.24,207.85 210.56,188.66 183.76,172.27 165.22,162.70 165.00,162.26 183.40,171.06 210.77,186.92 232.65,205.96 237.46,223.52 222.66,235.29 196.14,238.41 171.94,232.13 162.80,218.00 173.35,199.49 197.74,181.13 222.81,167.41 235.18,161.69 228.39,165.35 206.35,177.48 181.13,195.10 166.47,213.90 170.29,229.27 190.50,237.45 216.10,236.46 233.14,226.55 232.25,210.16 213.72,191.31 187.40,174.61 167.40,164.15 164.53,162.48 180.52,169.99 206.99,184.82 229.96,203.35 237.27,221.04 225.07,233.54 199.85,237.83 174.98,232.85 163.57,219.84 171.48,202.00 194.27,183.70 219.62,169.41 233.97,162.62 229.79,165.00 209.58,175.93 184.42,192.73 168.02,211.29 169.25,227.06 187.43,236.18 212.66,236.44 231.20,227.78 232.88,212.34 216.62,193.90 191.03,176.99 169.82,165.72 164.44,162.86 177.94,169.09 203.28,182.88 227.08,200.83 236.73,218.55 227.14,231.71 203.42,237.09 178.16,233.39 164.68,221.52 169.97,204.41 190.98,186.25 216.33,171.47 232.46,163.70 230.85,164.82 212.60,174.55 187.75,190.48 169.84,208.72 168.57,224.80 184.60,234.79 209.22,236.25 229.02,228.84 233.16,214.38 219.24,196.43 194.61,179.38 172.45,167.40 164.71,163.41 175.69,168.38 199.69,181.08 224.04,198.39 235.85,216.07 228.87,229.79 206.83,236.20 181.44,233.75 166.10,223.04 168.80,206.72 187.89,188.77 213.00,173.60 230.67,164.91 231.55,164.82 215.39,173.33 191.10,188.36 171.91,206.21 168.23,222.52 182.04,233.29 205.81,235.90 226.62,229.72 233.08,216.28 221.56,198.88 198.10,181.78 175.25,169.16 165.32,164.10 173.76,167.84 196.24,179.43 220.88,196.05 234.64,213.60 230.25,227.80 210.05,235.18 184.78,233.94 167.80,224.40 167.98,208.90 185.02,191.25 209.65,175.77 228.64,166.24 231.91,164.98 217.93,172.29 194.41,186.37 174.19,203.77 168.24,220.21 179.76,231.69 202.48,235.39 224.03,230.44 232.67,218.04 223.56,201.25 201.47,184.18 178.19,171.00 166.25,164.94 172.18,167.47 192.95,177.95 217.63,193.81 233.14,211.16 231.28,225.76 213.05,234.03 188.15,233.96 169.76,225.59 167.51,210.97 182.40,193.68 206.31,177.97 226.38,167.67 231.94,165.30 220.19,171.42 197.67,184.52 176.66,201.39 168.57,217.89 177.77,230.00 199.24,234.74 221.30,230.98 231.94,219.65 225.25,203.52 204.70,186.56 181.24,172.91 167.49,165.91 170.93,167.26 189.87,176.62 214.33,191.68 231.38,208.76 231.97,223.67 215.82,232.76 191.52,233.83 171.94,226.62 167.37,212.90 180.05,196.05 203.03,180.20 223.95,169.21 231.64,165.77 222.17,170.71 200.84,182.81 179.28,199.10 169.22,215.58 176.08,228.23 196.13,233.95 218.45,231.36 230.90,221.10 226.61,205.69 207.75,188.92 184.36,174.88 169.01,167.00 170.02,167.22 187.00,175.45 211.02,189.67 229.37,206.41 232.31,221.55 218.33,231.39 194.85,233.54 174.32,227.48 167.56,214.71 177.98,198.36 199.84,182.43 221.35,170.83 231.04,166.38 223.86,170.16 203.88,181.24 182.02,196.89 170.16,213.28 174.71,226.39 193.17,233.03 215.53,231.58 229.59,222.40 227.65,207.76 210.60,191.24 187.51,176.89 170.78,168.21 169.45,167.33 184.38,174.43 207.73,187.79 227.14,204.11 232.33,219.40 220.56,229.92 198.11,233.11 176.88,228.19 168.07,216.38 176.20,200.58 196.75,184.67 218.63,172.52 230.14,167.12 225.25,169.77 206.79,179.81 184.85,194.78 171.37,211.00 173.64,224.50 190.40,231.99 212.55,231.64 228.03,223.55 228.36,209.71 213.23,193.52 190.67,178.93 172.77,169.52 169.20,167.58 182.01,173.58 204.48,186.03 224.73,201.88 232.03,217.24 222.51,228.37 201.27,232.54 179.56,228.74 168.87,217.91 174.71,202.72 193.80,186.89 215.82,174.29 228.97,167.99 226.34,169.54 209.52,178.54 187.74,192.77 172.84,208.75 172.88,222.57 187.83,230.84 209.55,231.56 226.23,224.55 228.76,211.55 215.63,195.74 193.80,181.00 174.96,170.93 169.27,167.98 179.91,172.88 201.32,184.40 222.17,199.72 231.42,215.09 224.17,226.74 204.30,231.83 182.36,229.13 169.95,219.31 173.53,204.77 191.02,189.09 212.94,176.11 227.55,168.98 227.12,169.46 212.06,177.41 190.64,190.87 174.53,206.55 172.44,220.60 185.48,229.59 206.57,231.33 224.24,225.40 228.85,213.27 217.77,197.90 196.87,183.08 177.32,172.42 169.65,168.52 178.10,172.33 198.26,182.90 219.49,197.64 230.53,212.94 225.53,225.05 207.18,231.01 185.22,229.38 171.28,220.56 172.65,206.72 188.42,191.27 210.04,177.97 225.90,170.08 227.60,169.52 214.38,176.42 193.55,189.08 176.42,204.39 172.29,218.61 183.37,228.24 203.63,230.96 222.07,226.10 228.63,214.86 219.65,200.00 199.85,185.16 179.81,173.98 170.32,169.18 176.57,171.93 195.34,181.54 216.72,195.65 229.37,210.81 226.59,223.30 209.88,230.07 188.13,229.47 172.86,221.67 172.07,208.57 186.03,193.40 207.13,179.87 224.04,171.28 227.78,169.73 216.49,175.59 196.41,187.41 178.49,202.30 172.43,216.60 181.50,226.82 200.77,230.46 219.76,226.65 228.13,216.32 221.26,202.01 202.71,187.24 182.41,175.61 171.26,169.96 175.34,171.67 192.58,180.31 213.88,193.76 227.96,208.71 227.35,221.51 212.39,229.02 191.05,229.43 174.64,222.63 171.79,210.31 183.86,195.49 204.25,181.79 222.01,172.56 227.67,170.07 218.35,174.90 199.21,185.86 180.70,200.27 172.85,214.59 179.90,225.32 198.00,229.84 217.33,227.05 227.37,217.65 222.58,203.95 205.44,189.30 185.08,177.29 172.45,170.85 174.40,171.56 189.99,179.22 211.02,191.96 226.33,206.64 227.81,219.68 214.69,227.88 193.96,229.25 176.61,223.46 171.80,211.94 181.92,197.52 201.44,183.72 219.83,173.93 227.30,170.53 219.96,174.35 201.92,184.43 183.03,198.31 173.54,212.58 178.56,223.76 195.36,229.10 214.82,227.31 226.35,218.85 223.62,205.79 208.00,191.33 187.81,179.01 173.88,171.85 173.75,171.58 187.61,178.27 208.16,190.26 224.50,204.62 227.97,217.83 216.75,226.65 196.81,228.94 178.75,224.15 172.08,213.45 180.23,199.48 198.70,185.66 217.53,175.37 226.65,171.12 221.31,173.94 204.52,183.13 185.46,196.44 174.47,210.59 177.49,222.14 192.87,228.25 212.25,227.44 225.10,219.92 224.39,207.54 210.39,193.33 190.55,180.77 175.51,172.94 173.39,171.74 185.44,177.46 205.32,188.68 222.50,202.65 227.86,215.96 218.58,225.34 199.60,228.51 181.01,224.70 172.64,214.85 178.80,201.38 196.07,187.60 215.13,176.87 225.77,171.81 222.39,173.66 206.98,181.95 187.94,194.65 175.63,208.63 176.69,220.48 190.54,227.30 209.64,227.44 223.64,220.86 224.87,209.18 212.57,195.28 193.27,182.56 177.32,174.12 173.32,172.02 183.50,176.78 202.54,187.20 220.35,200.75 227.47,214.09 220.15,223.96 202.29,227.96 183.38,225.11 173.44,216.12 177.63,203.20 193.58,189.52 212.66,178.42 224.65,172.62 223.22,173.52 209.28,180.91 190.47,192.95 177.00,206.70 176.16,218.79 188.39,226.26 207.04,227.30 221.99,221.66 225.08,210.73 214.54,197.19 195.97,184.36 179.29,175.37 173.51,172.42 181.80,176.23 199.84,185.84 218.08,198.91 226.83,212.22 221.47,222.52 204.86,227.30 185.83,225.39 174.47,217.27 176.72,204.94 191.23,191.42 210.15,180.02 223.32,173.52 223.78,173.51 211.41,179.98 193.00,191.34 178.56,204.80 175.90,217.07 186.44,225.14 204.47,227.05 220.18,222.33 225.02,212.17 216.29,199.04 198.59,186.16 181.40,176.69 173.96,172.94 180.35,175.81 197.25,184.60 215.72,197.14 225.95,210.36 222.53,221.03 207.28,226.53 188.34,225.54 175.73,218.30 176.07,206.59 189.05,193.29 207.62,181.65 221.81,174.51 224.08,173.63 213.34,179.19 195.51,189.84 180.28,202.96 175.89,215.33 184.71,223.94 201.94,226.67 218.23,222.88 224.72,213.49 217.81,200.82 201.13,187.97 183.61,178.08 174.66,173.56 179.15,175.52 194.79,183.47 213.29,195.45 224.85,208.52 223.32,219.49 209.55,225.68 190.86,225.57 177.17,219.21 175.68,208.15 187.06,195.12 205.11,183.31 220.13,175.59 224.13,173.86 215.07,178.52 197.98,188.44 182.14,201.16 176.13,213.59 183.20,222.67 199.49,226.19 216.17,223.30 224.17,214.71 219.08,202.54 203.56,189.76 185.90,179.51 175.58,174.29 178.21,175.36 192.47,182.46 210.82,193.84 223.54,206.71 223.86,217.92 211.64,224.73 193.39,225.48 178.79,219.99 175.55,209.62 185.27,196.91 202.63,184.98 218.30,176.74 223.93,174.20 216.59,177.98 200.38,187.14 184.11,199.43 176.61,211.84 181.91,221.34 197.13,225.60 214.02,223.59 223.39,215.81 220.11,204.18 205.86,191.54 188.24,180.99 176.71,175.10 177.52,175.32 190.31,181.57 208.34,192.33 222.04,204.94 224.14,216.33 213.54,223.70 195.89,225.27 180.57,220.65 175.67,210.99 183.68,198.65 200.21,186.66 216.36,177.96 223.49,174.66 217.89,177.56 202.69,185.95 186.18,197.77 177.31,210.11 180.86,219.96 194.90,224.91 211.80,223.76 222.40,216.80 220.90,205.74 208.01,193.29 190.61,182.50 178.03,176.01 177.08,175.39 188.33,180.80 205.87,190.90 220.39,203.21 224.17,214.71 215.23,222.60 198.34,224.95 182.47,221.19 176.02,212.25 182.31,200.33 197.88,188.34 214.32,179.23 222.84,175.21 218.96,177.26 204.90,184.87 188.32,196.17 178.22,208.39 180.04,218.54 192.79,224.14 209.55,223.82 221.22,217.68 221.44,207.22 210.00,195.01 192.98,184.04 179.53,176.99 176.88,175.58 186.55,180.15 203.44,189.57 218.59,201.52 223.96,213.09 216.71,221.44 200.71,224.52 184.47,221.61 176.59,213.41 181.17,201.94 195.65,190.02 212.20,180.55 221.98,175.86 219.81,177.08 206.98,183.90 190.50,194.66 179.31,206.70 179.46,217.09 190.84,223.28 207.29,223.76 219.87,218.43 221.74,208.60 211.80,196.68 195.34,185.59 181.17,178.04 176.93,175.88 184.97,179.61 201.06,188.33 216.68,199.90 223.53,211.47 217.97,220.21 203.00,224.00 186.56,221.91 177.38,214.47 180.25,203.49 193.53,191.68 210.04,181.92 220.92,176.60 220.42,177.01 208.91,183.05 192.70,193.22 180.58,205.04 179.11,215.61 189.06,222.34 205.03,223.60 218.37,219.08 221.81,209.90 213.42,198.32 197.65,187.16 182.94,179.16 177.21,176.27 183.60,179.19 198.77,187.20 214.68,198.33 222.87,209.85 219.01,218.94 205.17,223.39 188.70,222.10 178.36,215.42 179.57,204.97 191.56,193.32 207.85,183.32 219.70,177.42 220.80,177.05 210.69,182.30 194.90,191.87 182.01,203.41 178.99,214.11 187.45,221.33 202.81,223.33 216.74,219.61 221.65,211.11 214.84,199.89 199.89,188.73 184.81,180.33 177.70,176.76 182.45,178.88 196.57,186.17 212.60,196.83 222.02,208.24 219.83,217.63 207.21,222.68 190.88,222.18 179.52,216.26 179.10,206.36 189.74,194.93 205.66,184.75 218.31,178.32 220.96,177.20 212.29,181.66 197.07,190.61 183.56,201.83 179.08,212.60 186.04,220.26 200.65,222.96 214.99,220.03 221.28,212.21 216.05,201.42 202.05,190.29 186.76,181.55 178.40,177.35 181.51,178.69 194.50,185.24 210.48,195.39 220.98,206.66 220.41,216.28 209.10,221.90 193.07,222.16 180.85,216.99 178.87,207.68 188.09,196.50 203.49,186.19 216.80,179.28 220.91,177.45 213.71,181.13 199.19,189.43 185.23,200.30 179.39,211.08 184.81,219.14 198.55,222.49 213.16,220.35 220.70,213.22 217.05,202.87 204.10,191.84 188.77,182.82 179.29,178.01 180.80,178.59 192.55,184.41 208.34,194.03 219.77,205.10 220.77,214.91 210.84,221.05 195.25,222.03 182.31,217.62 178.85,208.91 186.61,198.03 201.36,187.65 215.16,180.30 220.64,177.79 214.95,180.71 201.25,188.35 186.99,198.83 179.90,209.57 183.79,217.96 196.55,221.94 211.26,220.55 219.94,214.13 217.84,204.27 206.04,193.37 190.82,184.11 180.36,178.76 180.31,178.60 190.76,183.69 206.19,192.75 218.41,203.58 220.92,213.51 212.40,220.13 197.40,221.80 183.90,218.15 179.04,210.05 185.32,199.51 199.30,189.11 213.43,181.38 220.18,178.23 215.99,180.40 203.22,187.36 188.82,197.41 180.59,208.08 182.98,216.75 194.66,221.31 209.32,220.65 219.00,214.94 218.42,205.59 207.83,194.88 192.88,185.44 181.58,179.57 180.03,178.72 189.13,183.07 204.07,191.55 216.92,202.10 220.85,212.11 213.78,219.14 199.50,221.48 185.59,218.57 179.43,211.11 184.22,200.95 197.31,190.57 211.63,182.51 219.53,178.75 216.83,180.19 205.08,186.47 190.70,196.06 181.46,206.59 182.36,215.50 192.90,220.60 207.35,220.66 217.90,215.66 218.79,206.83 209.48,196.35 194.93,186.78 182.94,180.45 179.96,178.92 187.66,182.55 201.98,190.44 215.31,200.66 220.58,210.70 214.98,218.11 201.52,221.08 187.36,218.88 180.01,212.07 183.32,202.32 195.41,192.01 209.77,183.68 218.70,179.35 217.47,180.07 206.84,185.68 192.60,194.77 182.49,205.14 181.95,214.23 191.27,219.82 205.39,220.56 216.66,216.27 218.95,208.00 210.97,197.79 196.96,188.13 184.42,181.39 180.10,179.22 186.38,182.13 199.95,189.41 213.62,199.27 220.11,209.29 215.99,217.03 203.45,220.58 189.19,219.10 180.77,212.95 182.61,203.63 193.64,193.45 207.88,184.88 217.72,180.02 217.91,180.06 208.45,184.98 194.52,193.56 183.66,203.71 181.74,212.93 189.79,218.98 203.44,220.37 215.29,216.78 218.92,209.09 212.29,199.18 198.93,189.49 185.99,182.39 180.43,179.60 185.28,181.81 198.01,188.47 211.85,197.93 219.46,207.89 216.80,215.91 205.29,220.02 191.07,219.22 181.70,213.73 182.10,204.88 191.98,194.86 205.98,186.10 216.59,180.76 218.16,180.14 209.93,184.37 196.42,192.42 184.95,202.32 181.73,211.63 188.47,218.08 201.53,220.10 213.83,217.20 218.69,210.09 213.44,200.53 200.85,190.85 187.65,183.43 180.95,180.07 184.37,181.59 196.15,187.61 210.04,196.66 218.65,206.51 217.41,214.75 207.00,219.37 192.96,219.25 182.77,214.41 181.79,206.06 190.47,196.24 204.09,187.35 215.33,181.57 218.21,180.31 211.25,183.86 198.29,191.36 186.35,200.97 181.90,210.32 187.32,217.13 199.68,219.74 212.27,217.52 218.28,211.02 214.40,201.83 202.68,192.20 189.37,184.50 181.64,180.61 183.66,181.46 194.41,186.85 208.19,195.44 217.68,205.14 217.83,213.57 208.58,218.66 194.86,219.18 183.97,215.01 181.67,207.17 189.10,197.59 202.22,188.61 213.97,182.43 218.08,180.56 212.42,183.45 200.11,190.38 187.84,199.66 182.25,209.00 186.34,216.13 197.89,219.30 210.65,217.75 217.69,211.85 215.18,203.06 204.41,193.54 191.13,185.61 182.48,181.22 183.13,181.42 192.78,186.17 206.33,194.30 216.57,203.81 218.05,212.37 210.01,217.89 196.74,219.03 185.29,215.51 181.73,208.20 187.89,198.90 200.39,189.87 212.51,183.34 217.77,180.90 213.41,183.13 201.87,189.48 189.40,198.40 182.77,207.70 185.54,215.10 196.20,218.79 208.98,217.88 216.95,212.60 215.78,204.24 206.03,194.86 192.92,186.75 183.47,181.89 182.79,181.47 191.29,185.59 204.48,193.22 215.33,202.50 218.09,211.16 211.30,217.07 198.58,218.80 186.71,215.92 181.98,209.16 186.84,200.16 198.63,191.14 210.98,184.30 217.29,181.31 214.24,182.90 203.54,188.67 191.02,197.20 183.45,206.40 184.91,214.03 194.61,218.21 207.28,217.93 216.07,213.26 216.19,205.36 207.53,196.16 194.70,187.91 184.59,182.63 182.64,181.61 189.95,185.09 202.65,192.21 213.99,201.23 217.95,209.94 212.42,216.20 200.37,218.48 188.21,216.25 182.39,210.04 185.96,201.38 196.94,192.40 209.39,185.29 216.66,181.79 214.89,182.75 205.12,187.93 192.66,196.05 184.27,205.13 184.46,212.94 193.13,217.57 205.57,217.89 215.05,213.84 216.42,206.41 208.89,197.42 196.47,189.08 185.82,183.42 182.67,181.82 188.76,184.68 200.87,191.28 212.57,200.00 217.64,208.71 213.38,215.28 202.09,218.10 189.77,216.48 182.97,210.84 185.26,202.55 195.34,193.65 207.76,186.32 215.88,182.35 215.37,182.70 206.59,187.28 194.33,194.97 185.22,203.88 184.19,211.82 191.77,216.86 203.87,217.77 213.92,214.33 216.48,207.39 210.11,198.65 198.21,190.25 187.15,184.25 182.87,182.12 187.72,184.36 199.14,190.42 211.07,198.82 217.16,207.49 214.18,214.32 203.72,217.64 191.37,216.63 183.69,211.56 184.72,203.67 193.84,194.89 206.12,187.37 214.96,182.96 215.67,182.72 207.94,186.71 195.99,193.95 186.29,202.65 184.09,210.69 190.55,216.11 202.19,217.58 212.69,214.74 216.36,208.30 211.19,199.84 199.90,191.43 188.55,185.13 183.24,182.48 186.85,184.12 197.49,189.64 209.52,197.68 216.53,206.29 214.80,213.34 205.26,217.11 193.01,216.70 184.55,212.20 184.36,204.72 192.46,196.10 204.47,188.45 213.93,183.63 215.81,182.83 209.16,186.23 197.63,192.99 187.46,201.46 184.15,209.56 189.48,215.31 200.55,217.30 211.37,215.06 216.09,209.14 212.10,200.99 201.53,192.61 190.02,186.05 183.76,182.92 186.14,183.96 195.93,188.93 207.93,196.60 215.76,205.09 215.25,212.32 206.69,216.53 194.65,216.68 185.53,212.76 184.16,205.72 191.20,197.29 202.83,189.53 212.80,184.35 215.78,183.01 210.25,185.82 199.24,192.10 188.72,200.30 184.37,208.42 188.55,214.46 198.96,216.96 209.99,215.30 215.66,209.90 212.86,202.09 203.08,193.78 191.53,187.00 184.42,183.41 185.60,183.89 194.46,188.30 206.32,195.58 214.86,203.92 215.54,211.29 208.00,215.89 196.29,216.59 186.62,213.24 184.13,206.65 190.07,198.44 201.22,190.63 211.57,185.12 215.60,183.26 211.19,185.50 200.79,191.28 190.04,199.19 184.75,207.28 187.77,213.58 197.45,216.55 208.56,215.46 215.08,210.60 213.46,203.14 204.54,194.93 193.07,187.98 185.22,183.97 185.22,183.89 193.11,187.76 204.71,194.61 213.85,202.77 215.66,210.24 209.19,215.20 197.90,216.43 187.80,213.64 184.25,207.51 189.09,199.56 199.66,191.73 210.28,185.93 215.26,183.58 211.99,185.26 202.29,190.54 191.42,198.12 185.27,206.15 187.14,212.67 196.02,216.08 207.10,215.54 214.38,211.21 213.90,204.14 205.89,196.07 194.62,188.97 186.13,184.58 185.01,183.97 191.88,187.28 203.12,193.70 212.74,201.65 215.62,209.19 210.24,214.46 199.48,216.19 189.07,213.96 184.53,208.31 188.24,200.64 198.15,192.83 208.92,186.78 214.78,183.97 212.64,185.09 203.71,189.86 192.84,197.10 185.92,205.04 186.67,211.73 194.68,215.55 205.61,215.55 213.55,211.75 214.19,205.08 207.14,197.18 196.16,189.98 187.15,185.24 184.95,184.12 190.78,186.89 201.55,192.86 211.54,200.57 215.43,208.12 211.15,213.68 201.00,215.89 190.39,214.20 184.96,209.04 187.55,201.68 196.72,193.92 207.53,187.65 214.17,184.42 213.14,185.00 205.04,189.26 194.28,196.13 186.69,203.94 186.35,210.77 193.45,214.96 204.13,215.48 212.62,212.22 214.31,205.97 208.26,198.26 197.69,191.00 188.26,185.95 185.05,184.34 189.81,186.57 200.03,192.08 210.27,199.52 215.09,207.07 211.92,212.87 202.46,215.52 191.76,214.37 185.51,209.70 187.00,202.67 195.37,195.00 206.11,188.56 213.44,184.92 213.49,184.99 206.27,188.72 195.72,195.21 187.56,202.86 186.18,209.80 192.32,214.33 202.66,215.35 211.59,212.61 214.29,206.79 209.26,199.32 199.18,192.02 189.44,186.69 185.29,184.62 188.98,186.32 198.56,191.36 208.95,198.51 214.61,206.01 212.54,212.03 203.84,215.10 193.17,214.47 186.19,210.30 186.60,203.61 194.12,196.06 204.67,189.48 212.60,185.48 213.68,185.04 207.39,188.26 197.16,194.35 188.54,201.81 186.17,208.82 191.32,213.66 201.21,215.15 210.49,212.93 214.12,207.55 210.12,200.33 200.62,193.05 190.69,187.47 185.67,184.97 188.29,186.15 197.17,190.72 207.59,197.55 214.01,204.97 213.01,211.16 205.13,214.62 194.59,214.49 186.99,210.82 186.35,204.51 192.97,197.10 203.24,190.41 211.67,186.08 213.74,185.17 208.40,187.88 198.58,193.55 189.59,200.79 186.29,207.83 190.45,212.94 199.81,214.88 209.31,213.17 213.81,208.25 210.85,201.31 202.00,194.06 191.98,188.28 186.19,185.37 187.74,186.05 195.85,190.14 206.20,196.63 213.29,203.94 213.33,210.28 206.33,214.09 196.01,214.45 187.88,211.27 186.25,205.34 191.93,198.12 201.83,191.36 210.64,186.73 213.65,185.35 209.29,187.56 199.96,192.81 190.71,199.81 186.55,206.84 189.70,212.19 198.46,214.55 208.09,213.35 213.38,208.88 211.45,202.25 203.30,195.07 193.30,189.11 186.82,185.83 187.34,186.01 194.63,189.62 204.81,195.76 212.46,202.93 213.51,209.37 207.41,213.51 197.42,214.34 188.87,211.65 186.28,206.12 191.00,199.10 200.45,192.31 209.55,187.41 213.43,185.60 210.05,187.31 201.29,192.13 191.89,198.86 186.93,205.86 189.09,211.42 197.18,214.17 206.83,213.46 212.82,209.45 211.90,203.14 204.53,196.07 194.64,189.97 187.56,186.33 187.08,186.05 193.51,189.18 203.42,194.95 211.54,201.95 213.55,208.46 208.39,212.89 198.81,214.16 189.92,211.97 186.45,206.85 190.20,200.06 199.12,193.27 208.40,188.13 213.08,185.91 210.69,187.13 202.56,191.51 193.10,197.95 187.44,204.89 188.61,210.62 195.97,213.74 205.55,213.50 212.16,209.95 212.22,203.98 205.66,197.04 195.99,190.84 188.39,186.88 186.96,186.15 192.49,188.80 202.05,194.19 210.55,200.99 213.46,207.54 209.24,212.24 200.15,213.93 191.04,212.22 186.75,207.51 189.53,200.98 197.84,194.22 207.21,188.88 212.61,186.27 211.19,187.02 203.75,190.95 194.35,197.08 188.05,203.92 188.26,209.79 194.85,213.26 204.26,213.47 211.40,210.39 212.39,204.77 206.69,198.00 197.32,191.72 189.32,187.48 186.98,186.30 191.59,188.49 200.71,193.48 209.48,200.06 213.23,206.62 209.97,211.55 201.45,213.64 192.21,212.40 187.17,208.12 188.98,201.86 196.63,195.16 205.99,189.65 212.03,186.68 211.56,186.97 204.87,190.45 195.60,196.26 188.76,202.98 188.05,208.96 193.82,212.73 202.97,213.39 210.55,210.77 212.44,205.52 207.61,198.92 198.63,192.60 190.31,188.10 187.12,186.52 190.81,188.24 199.41,192.83 208.36,199.17 212.88,205.70 210.58,210.83 202.68,213.30 193.41,212.51 187.70,208.67 188.57,202.70 195.49,196.09 204.75,190.44 211.36,187.14 211.81,186.99 205.90,190.02 196.86,195.49 189.57,202.06 187.96,208.11 192.90,212.17 201.70,213.24 209.62,211.08 212.36,206.20 208.42,199.82 199.90,193.49 191.36,188.76 187.39,186.79 190.14,188.05 198.17,192.24 207.20,198.31 212.42,204.79 211.06,210.09 203.85,212.91 194.64,212.57 188.34,209.15 188.28,203.50 194.45,197.00 203.50,191.25 210.59,187.64 211.92,187.07 206.83,189.65 198.10,194.77 190.45,201.16 188.00,207.25 192.08,211.56 200.47,213.04 208.63,211.32 212.15,206.84 209.12,200.69 201.13,194.38 192.46,189.45 187.78,187.12 189.61,187.93 196.99,191.70 206.01,197.50 211.85,203.89 211.41,209.33 204.93,212.47 195.87,212.56 189.07,209.58 188.12,204.25 193.49,197.90 202.27,192.07 209.74,188.18 211.91,187.20 207.66,189.35 199.31,194.10 191.39,200.29 188.17,206.39 191.37,210.93 199.27,212.78 207.59,211.51 211.83,207.42 209.69,201.52 202.30,195.26 193.60,190.17 188.27,187.49 189.19,187.87 195.89,191.23 204.80,196.72 211.18,203.01 211.63,208.55 205.92,211.99 197.10,212.50 189.88,209.94 188.08,204.96 192.63,198.77 201.05,192.89 208.82,188.76 211.78,187.39 208.38,189.10 200.49,193.48 192.39,199.44 188.44,205.54 190.78,210.27 198.12,212.48 206.51,211.63 211.40,207.94 210.15,202.31 203.40,196.13 194.76,190.90 188.87,187.90 188.90,187.87 194.87,190.81 203.59,195.99 210.43,202.14 211.73,207.76 206.82,211.48 198.32,212.38 190.76,210.25 188.17,205.61 191.88,199.61 199.87,193.72 207.85,189.37 211.54,187.63 208.99,188.91 201.63,192.91 193.43,198.64 188.83,204.69 190.30,209.58 197.04,212.13 205.41,211.70 210.88,208.41 210.49,203.07 204.42,196.98 195.92,191.65 189.55,188.36 188.74,187.93 193.94,190.45 202.39,195.30 209.60,201.30 211.71,206.97 207.61,210.92 199.50,212.20 191.70,210.49 188.37,206.22 191.23,200.43 198.74,194.54 206.83,190.00 211.19,187.91 209.49,188.79 202.70,192.40 194.50,197.87 189.31,203.85 189.94,208.88 196.02,211.73 204.29,211.71 210.26,208.82 210.70,203.78 205.36,197.82 197.08,192.41 190.31,188.86 188.69,188.04 193.10,190.15 201.22,194.66 208.70,200.48 211.57,206.17 208.31,210.34 200.65,211.98 192.70,210.68 188.67,206.77 190.70,201.21 197.65,195.37 205.78,190.66 210.74,188.25 209.88,188.71 203.71,191.94 195.58,197.13 189.89,203.02 189.69,208.16 195.09,211.29 203.17,211.66 209.56,209.18 210.80,204.45 206.21,198.64 198.23,193.17 191.14,189.38 188.76,188.20 192.37,189.90 200.07,194.07 207.76,199.69 211.33,205.37 208.89,209.73 201.75,211.70 193.72,210.81 189.08,207.27 190.28,201.96 196.63,196.18 204.71,191.34 210.19,188.63 210.15,188.70 204.65,191.54 196.68,196.44 190.55,202.21 189.56,207.43 194.24,210.82 202.05,211.56 208.78,209.47 210.79,205.07 206.97,199.43 199.35,193.94 192.03,189.94 188.94,188.41 191.74,189.71 198.97,193.53 206.77,198.93 210.98,204.58 209.36,209.10 202.79,211.39 194.78,210.89 189.59,207.72 189.97,202.67 195.68,196.98 203.64,192.03 209.57,189.04 210.31,188.74 205.50,191.19 197.76,195.79 191.28,201.42 189.54,206.69 193.48,210.32 200.96,211.41 207.95,209.72 210.66,205.65 207.62,200.20 200.44,194.71 192.97,190.53 189.22,188.67 191.22,189.58 197.92,193.04 205.75,198.20 210.53,203.79 209.73,208.45 203.77,211.03 195.84,210.91 190.17,208.12 189.77,203.35 194.80,197.76 202.56,192.74 208.87,189.49 210.36,188.83 206.27,190.89 198.83,195.18 192.07,200.65 189.62,205.95 192.81,209.78 199.90,211.22 207.07,209.91 210.44,206.17 208.17,200.94 201.48,195.48 193.94,191.14 189.60,188.97 190.81,189.50 196.93,192.60 204.71,197.51 210.00,203.02 209.98,207.78 204.67,210.63 196.91,210.88 190.84,208.46 189.68,203.98 194.01,198.53 201.49,193.45 208.10,189.98 210.30,188.96 206.95,190.65 199.88,194.62 192.91,199.90 189.81,205.20 192.24,209.22 198.88,210.97 206.15,210.04 210.11,206.65 208.62,201.64 202.47,196.24 194.93,191.76 190.07,189.31 190.50,189.47 196.01,192.21 203.66,196.85 209.38,202.26 210.12,207.10 205.49,210.20 197.97,210.80 191.57,208.76 189.69,204.57 193.31,199.28 200.45,194.17 207.28,190.49 210.15,189.15 207.53,190.46 200.88,194.11 193.80,199.19 190.10,204.46 191.77,208.63 197.91,210.69 205.20,210.13 209.70,207.09 208.97,202.32 203.39,196.99 195.94,192.40 190.62,189.69 190.30,189.49 195.16,191.87 202.62,196.24 208.70,201.51 210.16,206.41 206.23,209.74 199.01,210.67 192.36,209.00 189.81,205.12 192.70,200.00 199.44,194.88 206.42,191.03 209.89,189.38 208.02,190.32 201.85,193.64 194.71,198.50 190.47,203.73 191.40,208.03 197.00,210.37 204.23,210.16 209.20,207.47 209.21,202.95 204.24,197.72 196.95,193.06 191.25,190.10 190.20,189.56 194.39,191.58 201.59,195.66 207.95,200.79 210.10,205.72 206.88,209.25 200.03,210.50 193.20,209.19 190.03,205.62 192.18,200.69 198.48,195.60 205.52,191.59 209.55,189.64 208.41,190.23 202.75,193.21 195.65,197.85 190.93,203.00 191.14,207.41 196.15,210.01 203.26,210.14 208.63,207.80 209.35,203.55 205.02,198.44 197.96,193.72 191.94,190.54 190.21,189.68 193.71,191.35 200.58,195.13 207.16,200.09 209.94,205.03 207.44,208.73 201.01,210.29 194.07,209.32 190.33,206.08 191.76,201.36 197.56,196.31 204.60,192.17 209.12,189.95 208.70,190.20 203.60,192.84 196.60,197.23 191.47,202.29 190.97,206.78 195.37,209.61 202.29,210.08 207.99,208.09 209.39,204.12 205.72,199.14 198.94,194.39 192.69,191.01 190.32,189.84 193.12,191.16 199.60,194.63 206.32,199.42 209.68,204.34 207.90,208.19 201.94,210.03 194.98,209.42 190.73,206.50 191.44,201.99 196.70,197.01 203.67,192.76 208.61,190.30 208.89,190.20 204.38,192.51 197.55,196.64 192.07,201.59 190.90,206.15 194.67,209.19 201.33,209.98 207.29,208.32 209.33,204.64 206.34,199.82 199.90,195.06 193.48,191.51 190.51,190.04 192.61,191.02 198.67,194.18 205.45,198.77 209.34,203.65 208.27,207.63 202.81,209.74 195.89,209.46 191.20,206.87 191.21,202.60 195.90,197.70 202.73,193.37 208.04,190.67 208.98,190.26 205.09,192.23 198.48,196.10 192.73,200.92 190.93,205.50 194.05,208.74 200.39,209.83 206.55,208.51 209.18,205.12 206.86,200.48 200.83,195.72 194.30,192.03 190.80,190.28 192.21,190.92 197.78,193.78 204.55,198.15 208.91,202.98 208.54,207.06 203.63,209.41 196.82,209.46 191.74,207.19 191.08,203.17 195.18,198.37 201.80,193.99 207.40,191.08 208.98,190.36 205.72,191.99 199.40,195.59 193.44,200.26 191.05,204.86 193.51,208.26 199.49,209.64 205.76,208.66 208.94,205.56 207.30,201.10 201.71,196.39 195.16,192.56 191.17,190.56 191.89,190.87 196.95,193.42 203.65,197.57 208.42,202.31 208.71,206.48 204.38,209.05 197.75,209.41 192.34,207.47 191.05,203.70 194.53,199.03 200.89,194.61 206.72,191.51 208.89,190.49 206.28,191.81 200.30,195.12 194.19,199.62 191.25,204.21 193.05,207.76 198.62,209.41 204.95,208.75 208.62,205.95 207.65,201.70 202.54,197.04 196.03,193.11 191.61,190.87 191.67,190.87 196.18,193.10 202.74,197.02 207.86,201.66 208.79,205.88 205.06,208.67 198.66,209.32 193.00,207.70 191.10,204.19 193.95,199.67 200.00,195.23 205.99,191.97 208.72,190.67 206.74,191.66 201.15,194.69 194.97,199.01 191.53,203.57 192.69,207.25 197.80,209.15 204.12,208.80 208.23,206.31 207.90,202.27 203.31,197.69 196.90,193.67 192.12,191.21 191.54,190.91 195.48,192.83 201.84,196.50 207.24,201.02 208.79,205.29 205.67,208.25 199.55,209.19 193.71,207.89 191.25,204.65 193.46,200.28 199.14,195.85 205.22,192.44 208.46,190.89 207.13,191.56 201.97,194.30 195.78,198.43 191.90,202.94 192.41,206.72 197.03,208.85 203.27,208.81 207.76,206.62 208.07,202.81 204.02,198.32 197.78,194.24 192.69,191.59 191.50,190.99 194.85,192.60 200.96,196.01 206.57,200.40 208.69,204.68 206.19,207.81 200.42,209.03 194.45,208.03 191.47,205.07 193.05,200.87 198.32,196.47 204.44,192.94 208.13,191.14 207.43,191.51 202.74,193.95 196.60,197.88 192.33,202.31 192.22,206.18 196.33,208.52 202.43,208.78 207.24,206.89 208.15,203.32 204.66,198.94 198.64,194.82 193.32,191.98 191.55,191.11 194.29,192.41 200.09,195.57 205.86,199.80 208.51,204.08 206.64,207.36 201.25,208.83 195.22,208.13 191.77,205.45 192.72,201.44 197.54,197.08 203.63,193.45 207.72,191.42 207.64,191.49 203.45,193.65 197.42,197.36 192.82,201.70 192.11,205.63 195.68,208.17 201.59,208.71 206.66,207.12 208.14,203.79 205.23,199.53 199.49,195.40 193.98,192.40 191.68,191.26 193.81,192.27 199.26,195.16 205.12,199.23 208.25,203.49 207.00,206.88 202.03,208.59 196.01,208.19 192.14,205.79 192.48,201.98 196.82,197.69 202.82,193.97 207.26,191.73 207.76,191.52 204.10,193.38 198.24,196.86 193.37,201.11 192.09,205.07 195.10,207.79 200.77,208.60 206.03,207.30 208.05,204.22 205.73,200.11 200.31,195.98 194.68,192.84 191.89,191.45 193.42,192.16 198.47,194.79 204.36,198.68 207.92,202.89 207.28,206.39 202.77,208.32 196.81,208.21 192.58,206.09 192.32,202.49 196.16,198.28 202.01,194.50 206.73,192.07 207.81,191.58 204.68,193.16 199.05,196.40 193.96,200.53 192.15,204.51 194.59,207.39 199.97,208.45 205.37,207.45 207.88,204.62 206.15,200.67 201.09,196.56 195.41,193.30 192.17,191.68 193.10,192.10 197.73,194.45 203.58,198.16 207.53,202.31 207.48,205.89 203.45,208.02 197.61,208.19 193.07,206.35 192.25,202.97 195.56,198.86 201.21,195.03 206.16,192.43 207.77,191.68 205.20,192.97 199.84,195.98 194.60,199.96 192.29,203.95 194.16,206.97 199.19,208.27 204.67,207.55 207.64,204.99 206.49,201.20 201.84,197.13 196.16,193.77 192.52,191.93 192.87,192.08 197.03,194.16 202.79,197.66 207.07,201.74 207.59,205.38 204.08,207.70 198.41,208.13 193.62,206.58 192.25,203.41 195.02,199.42 200.42,195.57 205.55,192.82 207.66,191.82 205.64,192.83 200.60,195.59 195.26,199.42 192.50,203.40 193.80,206.53 198.46,208.06 203.96,207.62 207.33,205.31 206.76,201.71 202.53,197.70 196.92,194.25 192.93,192.22 192.71,192.09 196.39,193.90 202.01,197.20 206.56,201.18 207.62,204.86 204.64,207.35 199.20,208.04 194.21,206.76 192.34,203.83 194.55,199.96 199.66,196.11 204.90,193.22 207.48,191.99 206.02,192.72 201.33,195.23 195.95,198.91 192.78,202.84 193.52,206.08 197.77,207.82 203.23,207.65 206.96,205.60 206.94,202.19 203.18,198.25 197.68,194.74 193.40,192.52 192.64,192.14 195.81,193.68 201.23,196.76 206.00,200.63 207.58,204.34 205.13,206.98 199.96,207.91 194.84,206.91 192.49,204.21 194.16,200.49 198.93,196.65 204.23,193.64 207.22,192.19 206.32,192.65 202.02,194.91 196.66,198.41 193.12,202.30 193.32,205.61 197.12,207.55 202.50,207.64 206.53,205.86 207.05,202.65 203.77,198.79 198.44,195.24 193.92,192.86 192.64,192.23 195.29,193.50 200.47,196.36 205.41,200.10 207.46,203.82 205.55,206.60 200.70,207.75 195.49,207.01 192.72,204.56 193.84,200.99 198.23,197.19 203.54,194.08 206.90,192.42 206.54,192.62 202.66,194.63 197.37,197.94 193.52,201.76 193.19,205.14 196.53,207.26 201.76,207.59 206.05,206.07 207.08,203.07 204.30,199.32 199.18,195.74 194.48,193.21 192.71,192.34 194.85,193.35 199.74,195.98 204.78,199.60 207.28,203.30 205.90,206.19 201.40,207.56 196.17,207.08" fill="none" stroke="#f5e6c8" stroke-width="1.2" stroke-linejoin="round" stroke-linecap="round" opacity="0.85"/>
</svg>