<svg xmlns="http://www.w3.org/2000/svg" viewBox="0 0 400 400" width="400" height="400">
  <rect width="400" height="400" fill="#07070f"/>
  <polyline points="200.0,160.0 192.5,157.6 187.9,151.3 187.9,143.6 192.5,137.6 199.6,135.7 206.3,138.6 209.8,145.0 208.5,152.4 202.9,157.5 195.2,158.4 188.3,154.5 184.9,147.2 186.3,139.5 191.9,134.2 199.3,133.3 205.5,137.1 207.9,143.8 205.4,150.6 199.1,154.5 191.5,153.8 185.5,148.5 183.6,140.6 186.5,133.0 193.0,128.6 200.5,128.9 206.0,133.6 207.3,140.4 203.8,146.4 197.1,148.9 189.9,146.6 185.1,140.2 184.8,132.0 189.2,125.0 196.6,121.7 204.0,123.2 208.7,128.6 208.9,135.4 204.5,140.5 197.7,141.6 191.2,137.9 187.9,130.6 189.4,122.4 195.2,116.3 203.1,114.4 210.3,117.2 214.0,123.2 213.0,129.7 208.0,133.8 201.3,133.4 195.9,128.5 194.3,120.7 197.5,112.9 204.6,108.0 212.9,107.7 219.5,111.8 222.1,118.4 219.9,124.5 214.4,127.3 208.1,125.5 204.1,119.6 204.3,111.6 209.2,104.7 217.3,101.3 225.6,102.8 231.3,108.1 232.6,115.1 229.4,120.5 223.5,122.1 218.0,119.0 215.5,112.3 217.6,104.5 224.1,98.9 232.8,97.4 240.8,100.6 245.3,107.1 245.1,114.2 240.8,118.8 234.9,118.9 230.3,114.6 229.6,107.5 233.6,100.4 241.4,96.4 250.3,97.0 257.5,102.1 260.4,109.5 258.6,116.3 253.5,119.8 247.7,118.5 244.4,113.1 245.5,105.9 251.3,100.0 260.0,97.9 268.8,100.8 274.6,107.5 275.8,115.6 272.3,121.8 266.4,123.9 261.2,121.1 259.3,114.9 262.4,108.0 269.7,103.6 279.0,103.8 287.0,108.9 291.1,117.1 290.2,125.3 285.2,130.6 278.8,131.1 274.3,126.8 274.1,120.0 279.1,113.9 287.7,111.3 297.1,114.0 303.8,121.2 305.8,130.5 302.6,138.5 296.1,142.4 289.6,141.0 286.2,135.4 288.0,128.3 294.8,123.3 304.3,123.0 313.1,128.2 318.1,137.3 317.5,147.2 312.1,154.4 304.5,156.5 298.2,153.1 296.3,146.3 300.1,139.4 308.5,135.9 318.5,138.1 326.2,145.7 328.9,156.3 325.7,166.3 318.2,172.1 309.7,172.1 304.1,166.7 304.1,158.9 310.0,152.5 319.7,151.1 329.6,155.8 335.8,165.7 335.8,177.4 329.8,186.8 320.4,190.7 311.5,188.2 307.2,180.9 309.3,172.5 317.3,167.2 328.0,168.0 337.2,175.4 341.2,187.2 338.3,199.4 329.6,207.6 318.7,209.1 310.1,204.0 307.5,194.9 312.0,186.4 321.8,182.6 333.1,186.0 341.1,196.0 342.5,209.3 336.4,221.3 325.3,227.6 313.5,226.3 305.8,218.6 305.3,208.1 312.3,199.9 323.8,198.2 335.1,204.3 341.3,216.7 339.7,231.0 330.5,242.1 317.3,246.0 305.2,241.6 299.0,231.3 301.1,220.0 310.6,212.8 323.5,213.4 334.2,222.4 338.1,236.9 333.1,251.5 321.0,261.0 306.3,261.9 294.6,254.3 290.6,241.9 295.6,230.1 307.5,224.5 321.1,228.0 330.6,239.8 331.7,255.8 323.4,270.1 308.7,277.3 293.0,274.9 282.5,264.2 281.2,250.0 289.2,238.6 303.2,235.1 317.0,241.6 324.7,256.0 322.6,273.0 311.0,286.2 294.1,290.6 278.4,284.6 269.8,271.1 271.5,255.8 282.6,245.4 298.2,244.6 311.6,254.2 316.9,270.9 311.3,288.3 296.6,299.7 278.3,300.7 263.2,291.2 257.2,275.2 262.3,259.5 276.2,250.9 292.9,253.1 305.1,265.9 307.5,284.4 298.3,301.4 280.9,310.3 261.8,307.6 248.1,294.7 245.3,276.9 253.9,261.6 270.3,255.3 287.4,261.0 297.7,276.7 296.7,296.3 284.1,312.2 264.5,318.0 245.3,311.6 233.9,295.6 234.6,276.6 246.7,262.5 265.0,259.2 281.7,268.4 289.5,286.6 284.9,306.7 269.0,320.7 247.8,323.0 229.5,312.8 221.0,294.2 225.4,274.9 240.7,262.7 260.2,262.9 275.7,275.6 280.5,295.8 272.1,315.5 253.4,326.9 231.5,325.5 214.8,311.7 209.7,291.2 217.9,272.4 235.8,262.9 255.8,266.8 269.4,282.7 270.7,304.2 258.6,322.8 237.6,331.1 215.7,325.6 201.4,308.7 200.1,287.1 212.0,269.6 232.0,263.4 251.6,271.1 262.6,289.7 260.0,311.8 244.5,328.6 221.9,333.2 200.9,323.8 189.6,304.3 192.3,282.4 207.5,267.1 228.8,264.5 247.2,275.9 254.9,296.7 248.4,318.6 229.9,332.7 206.5,333.4 187.2,320.4 179.5,298.9 186.1,277.6 204.0,265.2 225.8,266.5 242.2,281.3 246.2,303.5 235.9,324.3 215.1,335.2 191.6,331.9 174.8,315.6 170.9,293.1 181.2,273.2 201.3,264.1 222.6,269.5 236.2,287.1 236.4,309.9 222.5,328.7 200.0,336.0" fill="none" stroke="#00e5ff" stroke-width="1.5" stroke-linejoin="round" stroke-linecap="round"/>
  <circle cx="200.0" cy="200.0" r="100.0" fill="none" stroke="#2a58a0" stroke-width="0.8" opacity="0.75"/>
  <line x1="200.0" y1="200.0" x2="200.0" y2="300.0" stroke="#4488cc" stroke-width="1.0" opacity="0.9"/>
  <circle cx="200.0" cy="300.0" r="24.0" fill="none" stroke="#2a58a0" stroke-width="0.8" opacity="0.75"/>
  <line x1="200.0" y1="300.0" x2="200.0" y2="276.0" stroke="#4488cc" stroke-width="1.0" opacity="0.9"/>
  <circle cx="200.0" cy="276.0" r="20.0" fill="none" stroke="#2a58a0" stroke-width="0.8" opacity="0.75"/>
  <line x1="200.0" y1="276.0" x2="200.0" y2="296.0" stroke="#4488cc" stroke-width="1.0" opacity="0.9"/>
  <circle cx="200.0" cy="296.0" r="20.0" fill="none" stroke="#2a58a0" stroke-width="0.8" opacity="0.75"/>
  <line x1="200.0" y1="296.0" x2="200.0" y2="316.0" stroke="#4488cc" stroke-width="1.0" opacity="0.9"/>
  <circle cx="200.0" cy="316.0" r="8.0" fill="none" stroke="#2a58a0" stroke-width="0.8" opacity="0.75"/>
  <line x1="200.0" y1="316.0" x2="200.0" y2="324.0" stroke="#4488cc" stroke-width="1.0" opacity="0.9"/>
  <circle cx="200.0" cy="324.0" r="4.0" fill="none" stroke="#2a58a0" stroke-width="0.8" opacity="0.75"/>
  <line x1="200.0" y1="324.0" x2="200.0" y2="328.0" stroke="#4488cc" stroke-width="1.0" opacity="0.9"/>
  <circle cx="200.0" cy="328.0" r="4.0" fill="none" stroke="#2a58a0" stroke-width="0.8" opacity="0.75"/>
  <line x1="200.0" y1="328.0" x2="200.0" y2="332.0" stroke="#4488cc" stroke-width="1.0" opacity="0.9"/>
  <circle cx="200.0" cy="332.0" r="4.0" fill="none" stroke="#2a58a0" stroke-width="0.8" opacity="0.75"/>
  <line x1="200.0" y1="332.0" x2="200.0" y2="336.0" stroke="#4488cc" stroke-width="1.0" opacity="0.9"/>
</svg>
