<svg xmlns="http://www.w3.org/2000/svg" viewBox="0 0 400 400" width="400" height="400">
<rect width="400" height="400" fill="#040E14"/>
<defs><clipPath id="bc">
<circle cx="200.0" cy="200.0" r="188.0"/></clipPath></defs>
<g clip-path="url(#bc)">
<circle cx="200.0" cy="300.7" r="87.3" fill="#0D3B4F"/>
<circle cx="112.7" cy="149.6" r="87.3" fill="#0D3B4F"/>
<circle cx="287.3" cy="149.6" r="87.3" fill="#0D3B4F"/>
<circle cx="73.7" cy="272.9" r="42.1" fill="#1A7A7A"/>
<circle cx="326.3" cy="272.9" r="42.1" fill="#1A7A7A"/>
<circle cx="200.0" cy="54.1" r="42.1" fill="#1A7A7A"/>
<circle cx="34.4" cy="223.9" r="20.7" fill="#2EB5A0"/>
<circle cx="365.6" cy="223.9" r="20.7" fill="#2EB5A0"/>
<circle cx="262.1" cy="44.6" r="20.7" fill="#2EB5A0"/>
<circle cx="96.5" cy="331.5" r="20.7" fill="#2EB5A0"/>
<circle cx="303.5" cy="331.5" r="20.7" fill="#2EB5A0"/>
<circle cx="137.9" cy="44.6" r="20.7" fill="#2EB5A0"/>
<circle cx="200.0" cy="200.0" r="13.5" fill="#2EB5A0"/>
<circle cx="23.9" cy="193.2" r="11.7" fill="#F0C040"/>
<circle cx="376.1" cy="193.2" r="11.7" fill="#F0C040"/>
<circle cx="293.9" cy="50.9" r="11.7" fill="#F0C040"/>
<circle cx="117.8" cy="355.9" r="11.7" fill="#F0C040"/>
<circle cx="282.2" cy="355.9" r="11.7" fill="#F0C040"/>
<circle cx="106.1" cy="50.9" r="11.7" fill="#F0C040"/>
<circle cx="118.9" cy="246.8" r="10.1" fill="#F0C040"/>
<circle cx="281.1" cy="246.8" r="10.1" fill="#F0C040"/>
<circle cx="200.0" cy="106.4" r="10.1" fill="#F0C040"/>
<circle cx="27.9" cy="252.0" r="8.2" fill="#F0C040"/>
<circle cx="68.9" cy="323.0" r="8.2" fill="#F0C040"/>
<circle cx="372.1" cy="252.0" r="8.2" fill="#F0C040"/>
<circle cx="331.1" cy="323.0" r="8.2" fill="#F0C040"/>
<circle cx="241.0" cy="24.9" r="8.2" fill="#F0C040"/>
<circle cx="159.0" cy="24.9" r="8.2" fill="#F0C040"/>
<circle cx="21.3" cy="174.2" r="7.4" fill="#F0C040"/>
<circle cx="378.7" cy="174.2" r="7.4" fill="#F0C040"/>
<circle cx="311.7" cy="58.1" r="7.4" fill="#F0C040"/>
<circle cx="133.0" cy="367.7" r="7.4" fill="#F0C040"/>
<circle cx="267.0" cy="367.7" r="7.4" fill="#F0C040"/>
<circle cx="88.3" cy="58.1" r="7.4" fill="#F0C040"/>
<circle cx="60.8" cy="226.8" r="5.8" fill="#E85C3A"/>
<circle cx="107.2" cy="307.2" r="5.8" fill="#E85C3A"/>
<circle cx="339.2" cy="226.8" r="5.8" fill="#E85C3A"/>
<circle cx="292.8" cy="307.2" r="5.8" fill="#E85C3A"/>
<circle cx="246.4" cy="66.0" r="5.8" fill="#E85C3A"/>
<circle cx="153.6" cy="66.0" r="5.8" fill="#E85C3A"/>
<circle cx="200.0" cy="181.0" r="5.5" fill="#E85C3A"/>
<circle cx="216.4" cy="209.5" r="5.5" fill="#E85C3A"/>
<circle cx="183.6" cy="209.5" r="5.5" fill="#E85C3A"/>
<circle cx="21.2" cy="161.7" r="5.1" fill="#E85C3A"/>
<circle cx="378.8" cy="161.7" r="5.1" fill="#E85C3A"/>
<circle cx="322.6" cy="64.3" r="5.1" fill="#E85C3A"/>
<circle cx="143.8" cy="374.0" r="5.1" fill="#E85C3A"/>
<circle cx="256.2" cy="374.0" r="5.1" fill="#E85C3A"/>
<circle cx="77.4" cy="64.3" r="5.1" fill="#E85C3A"/>
<circle cx="131.6" cy="239.5" r="4.6" fill="#E85C3A"/>
<circle cx="268.4" cy="239.5" r="4.6" fill="#E85C3A"/>
<circle cx="200.0" cy="121.1" r="4.6" fill="#E85C3A"/>
<circle cx="28.0" cy="264.5" r="4.3" fill="#E85C3A"/>
<circle cx="58.1" cy="316.7" r="4.3" fill="#E85C3A"/>
<circle cx="372.0" cy="264.5" r="4.3" fill="#E85C3A"/>
<circle cx="341.9" cy="316.7" r="4.3" fill="#E85C3A"/>
<circle cx="230.1" cy="18.8" r="4.3" fill="#E85C3A"/>
<circle cx="169.9" cy="18.8" r="4.3" fill="#E85C3A"/>
<circle cx="16.2" cy="207.1" r="4.1" fill="#E85C3A"/>
<circle cx="383.8" cy="207.1" r="4.1" fill="#E85C3A"/>
<circle cx="285.8" cy="37.3" r="4.1" fill="#E85C3A"/>
<circle cx="102.0" cy="355.6" r="4.1" fill="#E85C3A"/>
<circle cx="298.0" cy="355.6" r="4.1" fill="#E85C3A"/>
<circle cx="114.2" cy="37.3" r="4.1" fill="#E85C3A"/>
<circle cx="106.3" cy="240.6" r="3.9" fill="#E85C3A"/>
<circle cx="118.1" cy="260.8" r="3.9" fill="#E85C3A"/>
<circle cx="293.7" cy="240.6" r="3.9" fill="#E85C3A"/>
<circle cx="281.9" cy="260.8" r="3.9" fill="#E85C3A"/>
<circle cx="211.7" cy="98.6" r="3.9" fill="#E85C3A"/>
<circle cx="188.3" cy="98.6" r="3.9" fill="#E85C3A"/>
<circle cx="21.8" cy="152.9" r="3.7" fill="#FFF5E0"/>
<circle cx="378.2" cy="152.9" r="3.7" fill="#FFF5E0"/>
<circle cx="329.9" cy="69.3" r="3.7" fill="#FFF5E0"/>
<circle cx="151.7" cy="377.9" r="3.7" fill="#FFF5E0"/>
<circle cx="248.3" cy="377.9" r="3.7" fill="#FFF5E0"/>
<circle cx="70.1" cy="69.3" r="3.7" fill="#FFF5E0"/>
<circle cx="37.4" cy="200.0" r="3.4" fill="#FFF5E0"/>
<circle cx="118.7" cy="340.8" r="3.4" fill="#FFF5E0"/>
<circle cx="362.6" cy="200.0" r="3.4" fill="#FFF5E0"/>
<circle cx="281.3" cy="340.8" r="3.4" fill="#FFF5E0"/>
<circle cx="281.3" cy="59.2" r="3.4" fill="#FFF5E0"/>
<circle cx="118.7" cy="59.2" r="3.4" fill="#FFF5E0"/>
<circle cx="20.4" cy="243.4" r="3.3" fill="#FFF5E0"/>
<circle cx="72.7" cy="333.8" r="3.3" fill="#FFF5E0"/>
<circle cx="379.6" cy="243.4" r="3.3" fill="#FFF5E0"/>
<circle cx="327.3" cy="333.8" r="3.3" fill="#FFF5E0"/>
<circle cx="252.2" cy="22.8" r="3.3" fill="#FFF5E0"/>
<circle cx="147.8" cy="22.8" r="3.3" fill="#FFF5E0"/>
<circle cx="176.3" cy="213.7" r="3.0" fill="#FFF5E0"/>
<circle cx="200.0" cy="172.6" r="3.0" fill="#FFF5E0"/>
<circle cx="223.7" cy="213.7" r="3.0" fill="#FFF5E0"/>
<circle cx="22.7" cy="146.4" r="2.8" fill="#FFF5E0"/>
<circle cx="377.3" cy="146.4" r="2.8" fill="#FFF5E0"/>
<circle cx="335.1" cy="73.3" r="2.8" fill="#FFF5E0"/>
<circle cx="157.8" cy="380.3" r="2.8" fill="#FFF5E0"/>
<circle cx="242.2" cy="380.3" r="2.8" fill="#FFF5E0"/>
<circle cx="64.9" cy="73.3" r="2.8" fill="#FFF5E0"/>
<circle cx="69.1" cy="228.3" r="2.7" fill="#FFF5E0"/>
<circle cx="110.0" cy="299.2" r="2.7" fill="#FFF5E0"/>
<circle cx="330.9" cy="228.3" r="2.7" fill="#FFF5E0"/>
<circle cx="290.0" cy="299.2" r="2.7" fill="#FFF5E0"/>
<circle cx="240.9" cy="72.5" r="2.7" fill="#FFF5E0"/>
<circle cx="159.1" cy="72.5" r="2.7" fill="#FFF5E0"/>
<circle cx="28.9" cy="271.4" r="2.6" fill="#FFF5E0"/>
<circle cx="52.6" cy="312.4" r="2.6" fill="#FFF5E0"/>
<circle cx="371.1" cy="271.4" r="2.6" fill="#FFF5E0"/>
<circle cx="347.4" cy="312.4" r="2.6" fill="#FFF5E0"/>
<circle cx="223.7" cy="16.2" r="2.6" fill="#FFF5E0"/>
<circle cx="176.3" cy="16.2" r="2.6" fill="#FFF5E0"/>
<circle cx="137.8" cy="235.9" r="2.6" fill="#FFF5E0"/>
<circle cx="262.2" cy="235.9" r="2.6" fill="#FFF5E0"/>
<circle cx="200.0" cy="128.2" r="2.6" fill="#FFF5E0"/>
<circle cx="78.0" cy="317.4" r="2.5" fill="#FFF5E0"/>
<circle cx="322.0" cy="317.4" r="2.5" fill="#FFF5E0"/>
<circle cx="159.3" cy="35.7" r="2.5" fill="#FFF5E0"/>
<circle cx="37.3" cy="247.0" r="2.5" fill="#FFF5E0"/>
<circle cx="362.7" cy="247.0" r="2.5" fill="#FFF5E0"/>
<circle cx="240.7" cy="35.7" r="2.5" fill="#FFF5E0"/>
<circle cx="15.3" cy="182.0" r="2.4" fill="#FFF5E0"/>
<circle cx="384.7" cy="182.0" r="2.4" fill="#FFF5E0"/>
<circle cx="308.0" cy="49.0" r="2.4" fill="#FFF5E0"/>
<circle cx="123.2" cy="369.0" r="2.4" fill="#FFF5E0"/>
<circle cx="276.8" cy="369.0" r="2.4" fill="#FFF5E0"/>
<circle cx="92.0" cy="49.0" r="2.4" fill="#FFF5E0"/>
<circle cx="57.0" cy="219.7" r="2.3" fill="#FFF5E0"/>
<circle cx="111.5" cy="314.0" r="2.3" fill="#FFF5E0"/>
<circle cx="343.0" cy="219.7" r="2.3" fill="#FFF5E0"/>
<circle cx="288.5" cy="314.0" r="2.3" fill="#FFF5E0"/>
<circle cx="254.5" cy="66.3" r="2.3" fill="#FFF5E0"/>
<circle cx="145.5" cy="66.3" r="2.3" fill="#FFF5E0"/>
<circle cx="23.7" cy="141.5" r="2.2" fill="#FFF5E0"/>
<circle cx="376.3" cy="141.5" r="2.2" fill="#FFF5E0"/>
<circle cx="338.9" cy="76.6" r="2.2" fill="#FFF5E0"/>
<circle cx="162.5" cy="382.0" r="2.2" fill="#FFF5E0"/>
<circle cx="237.5" cy="382.0" r="2.2" fill="#FFF5E0"/>
<circle cx="61.1" cy="76.6" r="2.2" fill="#FFF5E0"/>
<circle cx="28.8" cy="180.2" r="2.1" fill="#FFF5E0"/>
<circle cx="371.2" cy="180.2" r="2.1" fill="#FFF5E0"/>
<circle cx="302.7" cy="61.6" r="2.1" fill="#FFF5E0"/>
<circle cx="131.5" cy="358.2" r="2.1" fill="#FFF5E0"/>
<circle cx="268.5" cy="358.2" r="2.1" fill="#FFF5E0"/>
<circle cx="97.3" cy="61.6" r="2.1" fill="#FFF5E0"/>
<circle cx="55.5" cy="232.7" r="2.1" fill="#FFF5E0"/>
<circle cx="99.4" cy="308.8" r="2.1" fill="#FFF5E0"/>
<circle cx="344.5" cy="232.7" r="2.1" fill="#FFF5E0"/>
<circle cx="300.6" cy="308.8" r="2.1" fill="#FFF5E0"/>
<circle cx="244.0" cy="58.5" r="2.1" fill="#FFF5E0"/>
<circle cx="156.0" cy="58.5" r="2.1" fill="#FFF5E0"/>
<circle cx="100.9" cy="238.1" r="2.1" fill="#FFF5E0"/>
<circle cx="117.4" cy="266.8" r="2.1" fill="#FFF5E0"/>
<circle cx="299.1" cy="238.1" r="2.1" fill="#FFF5E0"/>
<circle cx="282.6" cy="266.8" r="2.1" fill="#FFF5E0"/>
<circle cx="216.5" cy="95.1" r="2.1" fill="#FFF5E0"/>
<circle cx="183.5" cy="95.1" r="2.1" fill="#FFF5E0"/>
<circle cx="14.5" cy="212.9" r="2.0" fill="#FFF5E0"/>
<circle cx="385.5" cy="212.9" r="2.0" fill="#FFF5E0"/>
<circle cx="281.5" cy="32.9" r="2.0" fill="#FFF5E0"/>
<circle cx="96.0" cy="354.2" r="2.0" fill="#FFF5E0"/>
<circle cx="304.0" cy="354.2" r="2.0" fill="#FFF5E0"/>
<circle cx="118.5" cy="32.9" r="2.0" fill="#FFF5E0"/>
</g>
<circle cx="200.0" cy="200.0" r="188.0" fill="none" stroke="#1A3040" stroke-width="1.5"/>
</svg>