<svg xmlns="http://www.w3.org/2000/svg" viewBox="0 0 400 400" width="400" height="400">
<rect width="400" height="400" fill="#050A1A"/>
<defs><clipPath id="bc"><circle cx="200" cy="200" r="190"/></clipPath></defs>
<g clip-path="url(#bc)">
<circle cx="200.0" cy="98.2" r="88.2" fill="rgb(232,160,32)" fill-opacity="1.00"/>
<circle cx="288.2" cy="250.9" r="88.2" fill="rgb(232,160,32)" fill-opacity="1.00"/>
<circle cx="111.8" cy="250.9" r="88.2" fill="rgb(232,160,32)" fill-opacity="1.00"/>
<circle cx="200.0" cy="200.0" r="13.6" fill="rgb(212,90,64)" fill-opacity="0.92"/>
<circle cx="200.0" cy="347.4" r="42.6" fill="rgb(212,90,64)" fill-opacity="0.92"/>
<circle cx="72.3" cy="126.3" r="42.6" fill="rgb(212,90,64)" fill-opacity="0.92"/>
<circle cx="327.7" cy="126.3" r="42.6" fill="rgb(212,90,64)" fill-opacity="0.92"/>
<circle cx="200.0" cy="219.2" r="5.5" fill="rgb(180,60,120)" fill-opacity="0.84"/>
<circle cx="183.4" cy="190.4" r="5.5" fill="rgb(180,60,120)" fill-opacity="0.84"/>
<circle cx="216.6" cy="190.4" r="5.5" fill="rgb(180,60,120)" fill-opacity="0.84"/>
<circle cx="200.0" cy="294.6" r="10.2" fill="rgb(180,60,120)" fill-opacity="0.84"/>
<circle cx="137.2" cy="357.0" r="20.9" fill="rgb(180,60,120)" fill-opacity="0.84"/>
<circle cx="262.8" cy="357.0" r="20.9" fill="rgb(180,60,120)" fill-opacity="0.84"/>
<circle cx="118.0" cy="152.7" r="10.2" fill="rgb(180,60,120)" fill-opacity="0.84"/>
<circle cx="32.7" cy="175.8" r="20.9" fill="rgb(180,60,120)" fill-opacity="0.84"/>
<circle cx="95.4" cy="67.2" r="20.9" fill="rgb(180,60,120)" fill-opacity="0.84"/>
<circle cx="282.0" cy="152.7" r="10.2" fill="rgb(180,60,120)" fill-opacity="0.84"/>
<circle cx="367.3" cy="175.8" r="20.9" fill="rgb(180,60,120)" fill-opacity="0.84"/>
<circle cx="304.6" cy="67.2" r="20.9" fill="rgb(180,60,120)" fill-opacity="0.84"/>
<circle cx="194.2" cy="214.5" r="1.9" fill="rgb(130,70,190)" fill-opacity="0.76"/>
<circle cx="205.8" cy="214.5" r="1.9" fill="rgb(130,70,190)" fill-opacity="0.76"/>
<circle cx="200.0" cy="227.7" r="3.0" fill="rgb(130,70,190)" fill-opacity="0.76"/>
<circle cx="184.6" cy="197.8" r="1.9" fill="rgb(130,70,190)" fill-opacity="0.76"/>
<circle cx="190.4" cy="187.8" r="1.9" fill="rgb(130,70,190)" fill-opacity="0.76"/>
<circle cx="176.0" cy="186.1" r="3.0" fill="rgb(130,70,190)" fill-opacity="0.76"/>
<circle cx="215.4" cy="197.8" r="1.9" fill="rgb(130,70,190)" fill-opacity="0.76"/>
<circle cx="209.6" cy="187.8" r="1.9" fill="rgb(130,70,190)" fill-opacity="0.76"/>
<circle cx="224.0" cy="186.1" r="3.0" fill="rgb(130,70,190)" fill-opacity="0.76"/>
<circle cx="188.2" cy="302.5" r="3.9" fill="rgb(130,70,190)" fill-opacity="0.76"/>
<circle cx="211.8" cy="302.5" r="3.9" fill="rgb(130,70,190)" fill-opacity="0.76"/>
<circle cx="200.0" cy="279.8" r="4.6" fill="rgb(130,70,190)" fill-opacity="0.76"/>
<circle cx="153.1" cy="335.4" r="5.9" fill="rgb(130,70,190)" fill-opacity="0.76"/>
<circle cx="158.6" cy="376.9" r="8.3" fill="rgb(130,70,190)" fill-opacity="0.76"/>
<circle cx="105.1" cy="350.7" r="11.9" fill="rgb(130,70,190)" fill-opacity="0.76"/>
<circle cx="246.9" cy="335.4" r="5.9" fill="rgb(130,70,190)" fill-opacity="0.76"/>
<circle cx="241.4" cy="376.9" r="8.3" fill="rgb(130,70,190)" fill-opacity="0.76"/>
<circle cx="294.9" cy="350.7" r="11.9" fill="rgb(130,70,190)" fill-opacity="0.76"/>
<circle cx="105.3" cy="159.0" r="3.9" fill="rgb(130,70,190)" fill-opacity="0.76"/>
<circle cx="117.2" cy="138.5" r="3.9" fill="rgb(130,70,190)" fill-opacity="0.76"/>
<circle cx="130.9" cy="160.1" r="4.6" fill="rgb(130,70,190)" fill-opacity="0.76"/>
<circle cx="59.3" cy="172.9" r="5.9" fill="rgb(130,70,190)" fill-opacity="0.76"/>
<circle cx="26.1" cy="147.4" r="8.3" fill="rgb(130,70,190)" fill-opacity="0.76"/>
<circle cx="22.0" cy="206.9" r="11.9" fill="rgb(130,70,190)" fill-opacity="0.76"/>
<circle cx="106.2" cy="91.7" r="5.9" fill="rgb(130,70,190)" fill-opacity="0.76"/>
<circle cx="67.5" cy="75.7" r="8.3" fill="rgb(130,70,190)" fill-opacity="0.76"/>
<circle cx="116.9" cy="42.4" r="11.9" fill="rgb(130,70,190)" fill-opacity="0.76"/>
<circle cx="294.7" cy="159.0" r="3.9" fill="rgb(130,70,190)" fill-opacity="0.76"/>
<circle cx="282.8" cy="138.5" r="3.9" fill="rgb(130,70,190)" fill-opacity="0.76"/>
<circle cx="269.1" cy="160.1" r="4.6" fill="rgb(130,70,190)" fill-opacity="0.76"/>
<circle cx="340.7" cy="172.9" r="5.9" fill="rgb(130,70,190)" fill-opacity="0.76"/>
<circle cx="373.9" cy="147.4" r="8.3" fill="rgb(130,70,190)" fill-opacity="0.76"/>
<circle cx="378.0" cy="206.9" r="11.9" fill="rgb(130,70,190)" fill-opacity="0.76"/>
<circle cx="293.8" cy="91.7" r="5.9" fill="rgb(130,70,190)" fill-opacity="0.76"/>
<circle cx="332.5" cy="75.7" r="8.3" fill="rgb(130,70,190)" fill-opacity="0.76"/>
<circle cx="283.1" cy="42.4" r="11.9" fill="rgb(130,70,190)" fill-opacity="0.76"/>
<circle cx="200.0" cy="232.6" r="1.9" fill="rgb(80,90,220)" fill-opacity="0.68"/>
<circle cx="171.8" cy="183.7" r="1.9" fill="rgb(80,90,220)" fill-opacity="0.68"/>
<circle cx="228.2" cy="183.7" r="1.9" fill="rgb(80,90,220)" fill-opacity="0.68"/>
<circle cx="193.2" cy="304.0" r="1.4" fill="rgb(80,90,220)" fill-opacity="0.68"/>
<circle cx="188.6" cy="297.1" r="1.4" fill="rgb(80,90,220)" fill-opacity="0.68"/>
<circle cx="183.3" cy="306.0" r="2.1" fill="rgb(80,90,220)" fill-opacity="0.68"/>
<circle cx="206.8" cy="304.0" r="1.4" fill="rgb(80,90,220)" fill-opacity="0.68"/>
<circle cx="211.4" cy="297.1" r="1.4" fill="rgb(80,90,220)" fill-opacity="0.68"/>
<circle cx="216.7" cy="306.0" r="2.1" fill="rgb(80,90,220)" fill-opacity="0.68"/>
<circle cx="195.3" cy="283.8" r="1.6" fill="rgb(80,90,220)" fill-opacity="0.68"/>
<circle cx="204.7" cy="283.8" r="1.6" fill="rgb(80,90,220)" fill-opacity="0.68"/>
<circle cx="200.0" cy="272.6" r="2.6" fill="rgb(80,90,220)" fill-opacity="0.68"/>
<circle cx="155.5" cy="343.0" r="2.1" fill="rgb(80,90,220)" fill-opacity="0.68"/>
<circle cx="144.9" cy="335.1" r="2.3" fill="rgb(80,90,220)" fill-opacity="0.68"/>
<circle cx="158.7" cy="328.8" r="2.8" fill="rgb(80,90,220)" fill-opacity="0.68"/>
<circle cx="158.9" cy="366.1" r="2.6" fill="rgb(80,90,220)" fill-opacity="0.68"/>
<circle cx="147.2" cy="379.1" r="3.3" fill="rgb(80,90,220)" fill-opacity="0.68"/>
<circle cx="169.6" cy="383.1" r="4.3" fill="rgb(80,90,220)" fill-opacity="0.68"/>
<circle cx="117.8" cy="342.3" r="3.4" fill="rgb(80,90,220)" fill-opacity="0.68"/>
<circle cx="113.3" cy="364.4" r="4.1" fill="rgb(80,90,220)" fill-opacity="0.68"/>
<circle cx="87.1" cy="343.4" r="7.5" fill="rgb(80,90,220)" fill-opacity="0.68"/>
<circle cx="244.5" cy="343.0" r="2.1" fill="rgb(80,90,220)" fill-opacity="0.68"/>
<circle cx="255.1" cy="335.1" r="2.3" fill="rgb(80,90,220)" fill-opacity="0.68"/>
<circle cx="241.3" cy="328.8" r="2.8" fill="rgb(80,90,220)" fill-opacity="0.68"/>
<circle cx="241.1" cy="366.1" r="2.6" fill="rgb(80,90,220)" fill-opacity="0.68"/>
<circle cx="252.8" cy="379.1" r="3.3" fill="rgb(80,90,220)" fill-opacity="0.68"/>
<circle cx="230.4" cy="383.1" r="4.3" fill="rgb(80,90,220)" fill-opacity="0.68"/>
<circle cx="282.2" cy="342.3" r="3.4" fill="rgb(80,90,220)" fill-opacity="0.68"/>
<circle cx="286.7" cy="364.4" r="4.1" fill="rgb(80,90,220)" fill-opacity="0.68"/>
<circle cx="312.9" cy="343.4" r="7.5" fill="rgb(80,90,220)" fill-opacity="0.68"/>
<circle cx="106.5" cy="153.8" r="1.4" fill="rgb(80,90,220)" fill-opacity="0.68"/>
<circle cx="110.2" cy="161.3" r="1.4" fill="rgb(80,90,220)" fill-opacity="0.68"/>
<circle cx="99.8" cy="161.4" r="2.1" fill="rgb(80,90,220)" fill-opacity="0.68"/>
<circle cx="113.3" cy="142.1" r="1.4" fill="rgb(80,90,220)" fill-opacity="0.68"/>
<circle cx="121.6" cy="141.6" r="1.4" fill="rgb(80,90,220)" fill-opacity="0.68"/>
<circle cx="116.5" cy="132.5" r="2.1" fill="rgb(80,90,220)" fill-opacity="0.68"/>
<circle cx="125.1" cy="162.2" r="1.6" fill="rgb(80,90,220)" fill-opacity="0.68"/>
<circle cx="129.8" cy="154.0" r="1.6" fill="rgb(80,90,220)" fill-opacity="0.68"/>
<circle cx="137.2" cy="163.7" r="2.6" fill="rgb(80,90,220)" fill-opacity="0.68"/>
<circle cx="53.9" cy="167.0" r="2.1" fill="rgb(80,90,220)" fill-opacity="0.68"/>
<circle cx="55.5" cy="180.1" r="2.3" fill="rgb(80,90,220)" fill-opacity="0.68"/>
<circle cx="67.8" cy="171.4" r="2.8" fill="rgb(80,90,220)" fill-opacity="0.68"/>
<circle cx="35.6" cy="152.5" r="2.6" fill="rgb(80,90,220)" fill-opacity="0.68"/>
<circle cx="18.5" cy="156.2" r="3.3" fill="rgb(80,90,220)" fill-opacity="0.68"/>
<circle cx="26.2" cy="134.8" r="4.3" fill="rgb(80,90,220)" fill-opacity="0.68"/>
<circle cx="35.7" cy="200.0" r="3.4" fill="rgb(80,90,220)" fill-opacity="0.68"/>
<circle cx="14.3" cy="192.9" r="4.1" fill="rgb(80,90,220)" fill-opacity="0.68"/>
<circle cx="19.4" cy="226.1" r="7.5" fill="rgb(80,90,220)" fill-opacity="0.68"/>
<circle cx="98.4" cy="90.0" r="2.1" fill="rgb(80,90,220)" fill-opacity="0.68"/>
<circle cx="110.5" cy="84.8" r="2.3" fill="rgb(80,90,220)" fill-opacity="0.68"/>
<circle cx="109.1" cy="99.8" r="2.8" fill="rgb(80,90,220)" fill-opacity="0.68"/>
<circle cx="76.7" cy="81.4" r="2.6" fill="rgb(80,90,220)" fill-opacity="0.68"/>
<circle cx="71.3" cy="64.7" r="3.3" fill="rgb(80,90,220)" fill-opacity="0.68"/>
<circle cx="56.6" cy="82.1" r="4.3" fill="rgb(80,90,220)" fill-opacity="0.68"/>
<circle cx="117.8" cy="57.7" r="3.4" fill="rgb(80,90,220)" fill-opacity="0.68"/>
<circle cx="100.9" cy="42.7" r="4.1" fill="rgb(80,90,220)" fill-opacity="0.68"/>
<circle cx="132.3" cy="30.6" r="7.5" fill="rgb(80,90,220)" fill-opacity="0.68"/>
<circle cx="293.5" cy="153.8" r="1.4" fill="rgb(80,90,220)" fill-opacity="0.68"/>
<circle cx="289.8" cy="161.3" r="1.4" fill="rgb(80,90,220)" fill-opacity="0.68"/>
<circle cx="300.2" cy="161.4" r="2.1" fill="rgb(80,90,220)" fill-opacity="0.68"/>
<circle cx="286.7" cy="142.1" r="1.4" fill="rgb(80,90,220)" fill-opacity="0.68"/>
<circle cx="278.4" cy="141.6" r="1.4" fill="rgb(80,90,220)" fill-opacity="0.68"/>
<circle cx="283.5" cy="132.5" r="2.1" fill="rgb(80,90,220)" fill-opacity="0.68"/>
<circle cx="274.9" cy="162.2" r="1.6" fill="rgb(80,90,220)" fill-opacity="0.68"/>
<circle cx="270.2" cy="154.0" r="1.6" fill="rgb(80,90,220)" fill-opacity="0.68"/>
<circle cx="262.8" cy="163.7" r="2.6" fill="rgb(80,90,220)" fill-opacity="0.68"/>
<circle cx="346.1" cy="167.0" r="2.1" fill="rgb(80,90,220)" fill-opacity="0.68"/>
<circle cx="344.5" cy="180.1" r="2.3" fill="rgb(80,90,220)" fill-opacity="0.68"/>
<circle cx="332.2" cy="171.4" r="2.8" fill="rgb(80,90,220)" fill-opacity="0.68"/>
<circle cx="364.4" cy="152.5" r="2.6" fill="rgb(80,90,220)" fill-opacity="0.68"/>
<circle cx="381.5" cy="156.2" r="3.3" fill="rgb(80,90,220)" fill-opacity="0.68"/>
<circle cx="373.8" cy="134.8" r="4.3" fill="rgb(80,90,220)" fill-opacity="0.68"/>
<circle cx="364.3" cy="200.0" r="3.4" fill="rgb(80,90,220)" fill-opacity="0.68"/>
<circle cx="385.7" cy="192.9" r="4.1" fill="rgb(80,90,220)" fill-opacity="0.68"/>
<circle cx="380.6" cy="226.1" r="7.5" fill="rgb(80,90,220)" fill-opacity="0.68"/>
<circle cx="301.6" cy="90.0" r="2.1" fill="rgb(80,90,220)" fill-opacity="0.68"/>
<circle cx="289.5" cy="84.8" r="2.3" fill="rgb(80,90,220)" fill-opacity="0.68"/>
<circle cx="290.9" cy="99.8" r="2.8" fill="rgb(80,90,220)" fill-opacity="0.68"/>
<circle cx="323.3" cy="81.4" r="2.6" fill="rgb(80,90,220)" fill-opacity="0.68"/>
<circle cx="328.7" cy="64.7" r="3.3" fill="rgb(80,90,220)" fill-opacity="0.68"/>
<circle cx="343.4" cy="82.1" r="4.3" fill="rgb(80,90,220)" fill-opacity="0.68"/>
<circle cx="282.2" cy="57.7" r="3.4" fill="rgb(80,90,220)" fill-opacity="0.68"/>
<circle cx="299.1" cy="42.7" r="4.1" fill="rgb(80,90,220)" fill-opacity="0.68"/>
<circle cx="267.7" cy="30.6" r="7.5" fill="rgb(80,90,220)" fill-opacity="0.68"/>
<circle cx="200.0" cy="235.8" r="1.3" fill="rgb(50,120,220)" fill-opacity="0.60"/>
<circle cx="169.0" cy="182.1" r="1.3" fill="rgb(50,120,220)" fill-opacity="0.60"/>
<circle cx="231.0" cy="182.1" r="1.3" fill="rgb(50,120,220)" fill-opacity="0.60"/>
<circle cx="180.6" cy="308.1" r="1.3" fill="rgb(50,120,220)" fill-opacity="0.60"/>
<circle cx="219.4" cy="308.1" r="1.3" fill="rgb(50,120,220)" fill-opacity="0.60"/>
<circle cx="200.0" cy="268.3" r="1.7" fill="rgb(50,120,220)" fill-opacity="0.60"/>
<circle cx="156.4" cy="346.1" r="1.1" fill="rgb(50,120,220)" fill-opacity="0.60"/>
<circle cx="141.4" cy="335.3" r="1.2" fill="rgb(50,120,220)" fill-opacity="0.60"/>
<circle cx="161.6" cy="325.6" r="1.6" fill="rgb(50,120,220)" fill-opacity="0.60"/>
<circle cx="158.8" cy="362.3" r="1.2" fill="rgb(50,120,220)" fill-opacity="0.60"/>
<circle cx="149.4" cy="375.3" r="1.1" fill="rgb(50,120,220)" fill-opacity="0.60"/>
<circle cx="150.6" cy="382.1" r="1.3" fill="rgb(50,120,220)" fill-opacity="0.60"/>
<circle cx="142.2" cy="379.1" r="1.8" fill="rgb(50,120,220)" fill-opacity="0.60"/>
<circle cx="168.2" cy="377.7" r="1.3" fill="rgb(50,120,220)" fill-opacity="0.60"/>
<circle cx="164.1" cy="385.0" r="1.5" fill="rgb(50,120,220)" fill-opacity="0.60"/>
<circle cx="176.1" cy="385.8" r="2.7" fill="rgb(50,120,220)" fill-opacity="0.60"/>
<circle cx="117.6" cy="346.9" r="1.2" fill="rgb(50,120,220)" fill-opacity="0.60"/>
<circle cx="113.4" cy="340.4" r="1.4" fill="rgb(50,120,220)" fill-opacity="0.60"/>
<circle cx="122.4" cy="340.1" r="1.6" fill="rgb(50,120,220)" fill-opacity="0.60"/>
<circle cx="115.1" cy="359.3" r="1.3" fill="rgb(50,120,220)" fill-opacity="0.60"/>
<circle cx="107.5" cy="364.1" r="1.7" fill="rgb(50,120,220)" fill-opacity="0.60"/>
<circle cx="117.6" cy="368.9" r="2.1" fill="rgb(50,120,220)" fill-opacity="0.60"/>
<circle cx="96.2" cy="339.9" r="2.2" fill="rgb(50,120,220)" fill-opacity="0.60"/>
<circle cx="90.9" cy="352.6" r="2.4" fill="rgb(50,120,220)" fill-opacity="0.60"/>
<circle cx="76.1" cy="337.1" r="5.2" fill="rgb(50,120,220)" fill-opacity="0.60"/>
<circle cx="243.6" cy="346.1" r="1.1" fill="rgb(50,120,220)" fill-opacity="0.60"/>
<circle cx="258.6" cy="335.3" r="1.2" fill="rgb(50,120,220)" fill-opacity="0.60"/>
<circle cx="238.4" cy="325.6" r="1.6" fill="rgb(50,120,220)" fill-opacity="0.60"/>
<circle cx="241.2" cy="362.3" r="1.2" fill="rgb(50,120,220)" fill-opacity="0.60"/>
<circle cx="250.6" cy="375.3" r="1.1" fill="rgb(50,120,220)" fill-opacity="0.60"/>
<circle cx="249.4" cy="382.1" r="1.3" fill="rgb(50,120,220)" fill-opacity="0.60"/>
<circle cx="257.8" cy="379.1" r="1.8" fill="rgb(50,120,220)" fill-opacity="0.60"/>
<circle cx="231.8" cy="377.7" r="1.3" fill="rgb(50,120,220)" fill-opacity="0.60"/>
<circle cx="235.9" cy="385.0" r="1.5" fill="rgb(50,120,220)" fill-opacity="0.60"/>
<circle cx="223.9" cy="385.8" r="2.7" fill="rgb(50,120,220)" fill-opacity="0.60"/>
<circle cx="282.4" cy="346.9" r="1.2" fill="rgb(50,120,220)" fill-opacity="0.60"/>
<circle cx="286.6" cy="340.4" r="1.4" fill="rgb(50,120,220)" fill-opacity="0.60"/>
<circle cx="277.6" cy="340.1" r="1.6" fill="rgb(50,120,220)" fill-opacity="0.60"/>
<circle cx="284.9" cy="359.3" r="1.3" fill="rgb(50,120,220)" fill-opacity="0.60"/>
<circle cx="292.5" cy="364.1" r="1.7" fill="rgb(50,120,220)" fill-opacity="0.60"/>
<circle cx="282.4" cy="368.9" r="2.1" fill="rgb(50,120,220)" fill-opacity="0.60"/>
<circle cx="303.8" cy="339.9" r="2.2" fill="rgb(50,120,220)" fill-opacity="0.60"/>
<circle cx="309.1" cy="352.6" r="2.4" fill="rgb(50,120,220)" fill-opacity="0.60"/>
<circle cx="323.9" cy="337.1" r="5.2" fill="rgb(50,120,220)" fill-opacity="0.60"/>
<circle cx="96.7" cy="162.7" r="1.3" fill="rgb(50,120,220)" fill-opacity="0.60"/>
<circle cx="116.1" cy="129.2" r="1.3" fill="rgb(50,120,220)" fill-opacity="0.60"/>
<circle cx="140.9" cy="165.9" r="1.7" fill="rgb(50,120,220)" fill-opacity="0.60"/>
<circle cx="51.7" cy="164.7" r="1.1" fill="rgb(50,120,220)" fill-opacity="0.60"/>
<circle cx="53.6" cy="183.1" r="1.2" fill="rgb(50,120,220)" fill-opacity="0.60"/>
<circle cx="72.0" cy="170.4" r="1.6" fill="rgb(50,120,220)" fill-opacity="0.60"/>
<circle cx="38.9" cy="154.6" r="1.2" fill="rgb(50,120,220)" fill-opacity="0.60"/>
<circle cx="22.9" cy="156.2" r="1.1" fill="rgb(50,120,220)" fill-opacity="0.60"/>
<circle cx="17.5" cy="151.7" r="1.3" fill="rgb(50,120,220)" fill-opacity="0.60"/>
<circle cx="15.9" cy="160.5" r="1.8" fill="rgb(50,120,220)" fill-opacity="0.60"/>
<circle cx="30.2" cy="138.7" r="1.3" fill="rgb(50,120,220)" fill-opacity="0.60"/>
<circle cx="21.8" cy="138.6" r="1.5" fill="rgb(50,120,220)" fill-opacity="0.60"/>
<circle cx="27.1" cy="127.8" r="2.7" fill="rgb(50,120,220)" fill-opacity="0.60"/>
<circle cx="31.5" cy="197.9" r="1.2" fill="rgb(50,120,220)" fill-opacity="0.60"/>
<circle cx="35.1" cy="204.8" r="1.4" fill="rgb(50,120,220)" fill-opacity="0.60"/>
<circle cx="39.9" cy="197.2" r="1.6" fill="rgb(50,120,220)" fill-opacity="0.60"/>
<circle cx="19.6" cy="193.9" r="1.3" fill="rgb(50,120,220)" fill-opacity="0.60"/>
<circle cx="11.7" cy="198.1" r="1.7" fill="rgb(50,120,220)" fill-opacity="0.60"/>
<circle cx="12.5" cy="186.9" r="2.1" fill="rgb(50,120,220)" fill-opacity="0.60"/>
<circle cx="26.9" cy="220.0" r="2.2" fill="rgb(50,120,220)" fill-opacity="0.60"/>
<circle cx="13.3" cy="218.2" r="2.4" fill="rgb(50,120,220)" fill-opacity="0.60"/>
<circle cx="19.3" cy="238.8" r="5.2" fill="rgb(50,120,220)" fill-opacity="0.60"/>
<circle cx="95.3" cy="89.2" r="1.1" fill="rgb(50,120,220)" fill-opacity="0.60"/>
<circle cx="112.1" cy="81.6" r="1.2" fill="rgb(50,120,220)" fill-opacity="0.60"/>
<circle cx="110.4" cy="103.9" r="1.6" fill="rgb(50,120,220)" fill-opacity="0.60"/>
<circle cx="80.1" cy="83.2" r="1.2" fill="rgb(50,120,220)" fill-opacity="0.60"/>
<circle cx="73.5" cy="68.5" r="1.1" fill="rgb(50,120,220)" fill-opacity="0.60"/>
<circle cx="67.0" cy="66.1" r="1.3" fill="rgb(50,120,220)" fill-opacity="0.60"/>
<circle cx="73.8" cy="60.3" r="1.8" fill="rgb(50,120,220)" fill-opacity="0.60"/>
<circle cx="62.1" cy="83.6" r="1.3" fill="rgb(50,120,220)" fill-opacity="0.60"/>
<circle cx="57.7" cy="76.3" r="1.5" fill="rgb(50,120,220)" fill-opacity="0.60"/>
<circle cx="51.1" cy="86.4" r="2.7" fill="rgb(50,120,220)" fill-opacity="0.60"/>
<circle cx="114.0" cy="55.1" r="1.2" fill="rgb(50,120,220)" fill-opacity="0.60"/>
<circle cx="121.7" cy="54.8" r="1.4" fill="rgb(50,120,220)" fill-opacity="0.60"/>
<circle cx="117.5" cy="62.7" r="1.6" fill="rgb(50,120,220)" fill-opacity="0.60"/>
<circle cx="104.5" cy="46.9" r="1.3" fill="rgb(50,120,220)" fill-opacity="0.60"/>
<circle cx="104.2" cy="37.9" r="1.7" fill="rgb(50,120,220)" fill-opacity="0.60"/>
<circle cx="94.9" cy="44.2" r="2.1" fill="rgb(50,120,220)" fill-opacity="0.60"/>
<circle cx="130.8" cy="40.1" r="2.2" fill="rgb(50,120,220)" fill-opacity="0.60"/>
<circle cx="122.4" cy="29.2" r="2.4" fill="rgb(50,120,220)" fill-opacity="0.60"/>
<circle cx="143.2" cy="24.1" r="5.2" fill="rgb(50,120,220)" fill-opacity="0.60"/>
<circle cx="303.3" cy="162.7" r="1.3" fill="rgb(50,120,220)" fill-opacity="0.60"/>
<circle cx="283.9" cy="129.2" r="1.3" fill="rgb(50,120,220)" fill-opacity="0.60"/>
<circle cx="259.1" cy="165.9" r="1.7" fill="rgb(50,120,220)" fill-opacity="0.60"/>
<circle cx="348.3" cy="164.7" r="1.1" fill="rgb(50,120,220)" fill-opacity="0.60"/>
<circle cx="346.4" cy="183.1" r="1.2" fill="rgb(50,120,220)" fill-opacity="0.60"/>
<circle cx="328.0" cy="170.4" r="1.6" fill="rgb(50,120,220)" fill-opacity="0.60"/>
<circle cx="361.1" cy="154.6" r="1.2" fill="rgb(50,120,220)" fill-opacity="0.60"/>
<circle cx="377.1" cy="156.2" r="1.1" fill="rgb(50,120,220)" fill-opacity="0.60"/>
<circle cx="382.5" cy="151.7" r="1.3" fill="rgb(50,120,220)" fill-opacity="0.60"/>
<circle cx="384.1" cy="160.5" r="1.8" fill="rgb(50,120,220)" fill-opacity="0.60"/>
<circle cx="369.8" cy="138.7" r="1.3" fill="rgb(50,120,220)" fill-opacity="0.60"/>
<circle cx="378.2" cy="138.6" r="1.5" fill="rgb(50,120,220)" fill-opacity="0.60"/>
<circle cx="372.9" cy="127.8" r="2.7" fill="rgb(50,120,220)" fill-opacity="0.60"/>
<circle cx="368.5" cy="197.9" r="1.2" fill="rgb(50,120,220)" fill-opacity="0.60"/>
<circle cx="364.9" cy="204.8" r="1.4" fill="rgb(50,120,220)" fill-opacity="0.60"/>
<circle cx="360.1" cy="197.2" r="1.6" fill="rgb(50,120,220)" fill-opacity="0.60"/>
<circle cx="380.4" cy="193.9" r="1.3" fill="rgb(50,120,220)" fill-opacity="0.60"/>
<circle cx="388.3" cy="198.1" r="1.7" fill="rgb(50,120,220)" fill-opacity="0.60"/>
<circle cx="387.5" cy="186.9" r="2.1" fill="rgb(50,120,220)" fill-opacity="0.60"/>
<circle cx="373.1" cy="220.0" r="2.2" fill="rgb(50,120,220)" fill-opacity="0.60"/>
<circle cx="386.7" cy="218.2" r="2.4" fill="rgb(50,120,220)" fill-opacity="0.60"/>
<circle cx="380.7" cy="238.8" r="5.2" fill="rgb(50,120,220)" fill-opacity="0.60"/>
<circle cx="304.7" cy="89.2" r="1.1" fill="rgb(50,120,220)" fill-opacity="0.60"/>
<circle cx="287.9" cy="81.6" r="1.2" fill="rgb(50,120,220)" fill-opacity="0.60"/>
<circle cx="289.6" cy="103.9" r="1.6" fill="rgb(50,120,220)" fill-opacity="0.60"/>
<circle cx="319.9" cy="83.2" r="1.2" fill="rgb(50,120,220)" fill-opacity="0.60"/>
<circle cx="326.5" cy="68.5" r="1.1" fill="rgb(50,120,220)" fill-opacity="0.60"/>
<circle cx="333.0" cy="66.1" r="1.3" fill="rgb(50,120,220)" fill-opacity="0.60"/>
<circle cx="326.2" cy="60.3" r="1.8" fill="rgb(50,120,220)" fill-opacity="0.60"/>
<circle cx="337.9" cy="83.6" r="1.3" fill="rgb(50,120,220)" fill-opacity="0.60"/>
<circle cx="342.3" cy="76.3" r="1.5" fill="rgb(50,120,220)" fill-opacity="0.60"/>
<circle cx="348.9" cy="86.4" r="2.7" fill="rgb(50,120,220)" fill-opacity="0.60"/>
<circle cx="286.0" cy="55.1" r="1.2" fill="rgb(50,120,220)" fill-opacity="0.60"/>
<circle cx="278.3" cy="54.8" r="1.4" fill="rgb(50,120,220)" fill-opacity="0.60"/>
<circle cx="282.5" cy="62.7" r="1.6" fill="rgb(50,120,220)" fill-opacity="0.60"/>
<circle cx="295.5" cy="46.9" r="1.3" fill="rgb(50,120,220)" fill-opacity="0.60"/>
<circle cx="295.8" cy="37.9" r="1.7" fill="rgb(50,120,220)" fill-opacity="0.60"/>
<circle cx="305.1" cy="44.2" r="2.1" fill="rgb(50,120,220)" fill-opacity="0.60"/>
<circle cx="269.2" cy="40.1" r="2.2" fill="rgb(50,120,220)" fill-opacity="0.60"/>
<circle cx="277.6" cy="29.2" r="2.4" fill="rgb(50,120,220)" fill-opacity="0.60"/>
<circle cx="256.8" cy="24.1" r="5.2" fill="rgb(50,120,220)" fill-opacity="0.60"/>
</g>
<circle cx="200" cy="200" r="190" fill="none" stroke="#1a2a4a" stroke-width="1.5"/>
</svg>