<svg xmlns="http://www.w3.org/2000/svg" viewBox="0 0 400 400" width="400" height="400">
  <rect width="400" height="400" fill="#fdf6f0"/>
  <polygon points="356.8,200.0 356.8,201.9 356.8,203.8 356.9,205.8 356.9,207.7 356.9,209.6 357.0,211.6 357.1,213.5 357.1,215.5 357.2,217.4 357.3,219.4 357.4,221.4 357.4,223.4 357.5,225.3 357.6,227.3 357.6,229.4 357.7,231.4 357.8,233.4 357.8,235.4 357.9,237.5 357.9,239.6 357.9,241.6 357.9,243.7 357.9,245.8 357.9,247.9 357.8,250.0 357.7,252.1 357.6,254.2 357.5,256.4 357.3,258.5 357.1,260.6 356.9,262.8 356.7,264.9 356.4,267.0 356.0,269.2 355.6,271.3 355.2,273.4 354.8,275.5 354.2,277.6 353.7,279.7 353.1,281.8 352.4,283.9 351.7,285.9 350.9,287.9 350.1,289.9 349.2,291.9 348.2,293.9 347.2,295.8 346.2,297.7 345.0,299.5 343.9,301.3 342.6,303.1 341.4,304.8 340.0,306.5 338.6,308.2 337.2,309.8 335.7,311.4 334.1,312.9 332.6,314.3 330.9,315.8 329.3,317.2 327.6,318.5 325.8,319.8 324.0,321.0 322.2,322.2 320.4,323.4 318.5,324.5 316.7,325.6 314.8,326.6 312.8,327.6 310.9,328.6 309.0,329.5 307.0,330.4 305.0,331.2 303.1,332.0 301.1,332.8 299.1,333.6 297.1,334.3 295.1,335.1 293.1,335.7 291.1,336.4 289.2,337.1 287.2,337.7 285.2,338.3 283.3,338.9 281.3,339.5 279.4,340.1 277.4,340.6 275.5,341.2 273.5,341.7 271.6,342.3 269.7,342.8 267.8,343.4 265.9,343.9 264.0,344.4 262.1,345.0 260.3,345.5 258.4,346.1 256.6,346.6 254.7,347.2 252.9,347.7 251.0,348.3 249.2,348.9 247.4,349.5 245.5,350.1 243.7,350.7 241.9,351.3 240.1,352.0 238.2,352.6 236.4,353.3 234.6,354.0 232.7,354.6 230.9,355.3 229.0,356.0 227.2,356.7 225.3,357.4 223.4,358.0 221.6,358.7 219.7,359.4 217.8,360.1 215.8,360.8 213.9,361.5 212.0,362.1 210.0,362.8 208.0,363.4 206.0,364.1 204.0,364.7 202.0,365.3 200.0,365.9 198.0,366.4 195.9,367.0 193.8,367.5 191.7,368.0 189.7,368.5 187.5,368.9 185.4,369.3 183.3,369.6 181.2,369.9 179.0,370.2 176.9,370.4 174.7,370.6 172.5,370.8 170.4,370.8 168.2,370.9 166.0,370.8 163.9,370.7 161.7,370.6 159.5,370.4 157.4,370.1 155.3,369.8 153.1,369.4 151.0,368.9 148.9,368.4 146.8,367.8 144.8,367.1 142.8,366.4 140.7,365.6 138.8,364.7 136.8,363.8 134.9,362.9 133.0,361.8 131.1,360.7 129.2,359.6 127.4,358.4 125.7,357.2 123.9,355.9 122.2,354.6 120.5,353.2 118.9,351.8 117.3,350.3 115.7,348.9 114.1,347.4 112.6,345.8 111.1,344.3 109.6,342.7 108.2,341.1 106.8,339.5 105.4,337.8 104.1,336.2 102.8,334.5 101.5,332.9 100.2,331.2 98.9,329.5 97.7,327.8 96.5,326.2 95.3,324.5 94.1,322.8 92.9,321.1 91.8,319.4 90.6,317.7 89.5,316.1 88.4,314.4 87.2,312.8 86.1,311.1 85.0,309.4 83.9,307.8 82.9,306.2 81.8,304.6 80.7,302.9 79.6,301.3 78.5,299.7 77.4,298.1 76.3,296.6 75.2,295.0 74.0,293.4 72.9,291.9 71.8,290.3 70.6,288.8 69.5,287.2 68.3,285.7 67.1,284.1 65.9,282.6 64.7,281.1 63.5,279.5 62.3,278.0 61.1,276.4 59.9,274.9 58.7,273.3 57.4,271.8 56.2,270.2 55.0,268.6 53.7,267.0 52.5,265.4 51.2,263.8 50.0,262.1 48.8,260.5 47.5,258.8 46.3,257.1 45.1,255.4 43.9,253.7 42.7,252.0 41.5,250.2 40.4,248.4 39.2,246.6 38.1,244.8 37.0,243.0 36.0,241.1 34.9,239.2 33.9,237.3 32.9,235.4 32.0,233.4 31.1,231.4 30.2,229.5 29.4,227.4 28.7,225.4 27.9,223.4 27.3,221.3 26.7,219.2 26.1,217.1 25.6,215.0 25.2,212.9 24.8,210.8 24.5,208.6 24.3,206.5 24.1,204.3 24.0,202.2 24.0,200.0 24.0,197.8 24.1,195.7 24.3,193.5 24.5,191.4 24.8,189.2 25.2,187.1 25.6,185.0 26.1,182.9 26.7,180.8 27.3,178.7 27.9,176.6 28.7,174.6 29.4,172.6 30.2,170.5 31.1,168.6 32.0,166.6 32.9,164.6 33.9,162.7 34.9,160.8 36.0,158.9 37.0,157.0 38.1,155.2 39.2,153.4 40.4,151.6 41.5,149.8 42.7,148.0 43.9,146.3 45.1,144.6 46.3,142.9 47.5,141.2 48.8,139.5 50.0,137.9 51.2,136.2 52.5,134.6 53.7,133.0 55.0,131.4 56.2,129.8 57.4,128.2 58.7,126.7 59.9,125.1 61.1,123.6 62.3,122.0 63.5,120.5 64.7,118.9 65.9,117.4 67.1,115.9 68.3,114.3 69.5,112.8 70.6,111.2 71.8,109.7 72.9,108.1 74.0,106.6 75.2,105.0 76.3,103.4 77.4,101.9 78.5,100.3 79.6,98.7 80.7,97.1 81.8,95.4 82.9,93.8 83.9,92.2 85.0,90.6 86.1,88.9 87.2,87.2 88.4,85.6 89.5,83.9 90.6,82.3 91.8,80.6 92.9,78.9 94.1,77.2 95.3,75.5 96.5,73.8 97.7,72.2 98.9,70.5 100.2,68.8 101.5,67.1 102.8,65.5 104.1,63.8 105.4,62.2 106.8,60.5 108.2,58.9 109.6,57.3 111.1,55.7 112.6,54.2 114.1,52.6 115.7,51.1 117.3,49.7 118.9,48.2 120.5,46.8 122.2,45.4 123.9,44.1 125.7,42.8 127.4,41.6 129.2,40.4 131.1,39.3 133.0,38.2 134.9,37.1 136.8,36.2 138.8,35.3 140.7,34.4 142.8,33.6 144.8,32.9 146.8,32.2 148.9,31.6 151.0,31.1 153.1,30.6 155.3,30.2 157.4,29.9 159.5,29.6 161.7,29.4 163.9,29.3 166.0,29.2 168.2,29.1 170.4,29.2 172.5,29.2 174.7,29.4 176.9,29.6 179.0,29.8 181.2,30.1 183.3,30.4 185.4,30.7 187.5,31.1 189.7,31.5 191.7,32.0 193.8,32.5 195.9,33.0 198.0,33.6 200.0,34.1 202.0,34.7 204.0,35.3 206.0,35.9 208.0,36.6 210.0,37.2 212.0,37.9 213.9,38.5 215.8,39.2 217.8,39.9 219.7,40.6 221.6,41.3 223.4,42.0 225.3,42.6 227.2,43.3 229.0,44.0 230.9,44.7 232.7,45.4 234.6,46.0 236.4,46.7 238.2,47.4 240.1,48.0 241.9,48.7 243.7,49.3 245.5,49.9 247.4,50.5 249.2,51.1 251.0,51.7 252.9,52.3 254.7,52.8 256.6,53.4 258.4,53.9 260.3,54.5 262.1,55.0 264.0,55.6 265.9,56.1 267.8,56.6 269.7,57.2 271.6,57.7 273.5,58.3 275.5,58.8 277.4,59.4 279.4,59.9 281.3,60.5 283.3,61.1 285.2,61.7 287.2,62.3 289.2,62.9 291.1,63.6 293.1,64.3 295.1,64.9 297.1,65.7 299.1,66.4 301.1,67.2 303.1,68.0 305.0,68.8 307.0,69.6 309.0,70.5 310.9,71.4 312.8,72.4 314.8,73.4 316.7,74.4 318.5,75.5 320.4,76.6 322.2,77.8 324.0,79.0 325.8,80.2 327.6,81.5 329.3,82.8 330.9,84.2 332.6,85.7 334.1,87.1 335.7,88.6 337.2,90.2 338.6,91.8 340.0,93.5 341.4,95.2 342.6,96.9 343.9,98.7 345.0,100.5 346.2,102.3 347.2,104.2 348.2,106.1 349.2,108.1 350.1,110.1 350.9,112.1 351.7,114.1 352.4,116.1 353.1,118.2 353.7,120.3 354.2,122.4 354.8,124.5 355.2,126.6 355.6,128.7 356.0,130.8 356.4,133.0 356.7,135.1 356.9,137.2 357.1,139.4 357.3,141.5 357.5,143.6 357.6,145.8 357.7,147.9 357.8,150.0 357.9,152.1 357.9,154.2 357.9,156.3 357.9,158.4 357.9,160.4 357.9,162.5 357.8,164.6 357.8,166.6 357.7,168.6 357.6,170.6 357.6,172.7 357.5,174.7 357.4,176.6 357.4,178.6 357.3,180.6 357.2,182.6 357.1,184.5 357.1,186.5 357.0,188.4 356.9,190.4 356.9,192.3 356.9,194.2 356.8,196.2 356.8,198.1 356.8,200.0" fill="none" stroke="#d4a0b5" stroke-width="1.0" stroke-linejoin="round"/>
  <polygon points="309.8,200.0 309.8,201.3 309.8,202.7 309.8,204.0 309.8,205.4 309.9,206.7 309.9,208.1 309.9,209.5 310.0,210.8 310.0,212.2 310.1,213.6 310.1,215.0 310.2,216.3 310.3,217.7 310.3,219.1 310.4,220.5 310.4,222.0 310.4,223.4 310.5,224.8 310.5,226.2 310.5,227.7 310.5,229.1 310.5,230.6 310.5,232.1 310.5,233.5 310.5,235.0 310.4,236.5 310.3,238.0 310.2,239.4 310.1,240.9 310.0,242.4 309.8,243.9 309.7,245.4 309.5,246.9 309.2,248.4 309.0,249.9 308.7,251.4 308.3,252.9 308.0,254.3 307.6,255.8 307.1,257.3 306.7,258.7 306.2,260.1 305.6,261.6 305.0,263.0 304.4,264.3 303.8,265.7 303.1,267.0 302.3,268.4 301.5,269.7 300.7,270.9 299.8,272.2 298.9,273.4 298.0,274.6 297.0,275.7 296.0,276.9 295.0,277.9 293.9,279.0 292.8,280.0 291.7,281.0 290.5,282.0 289.3,282.9 288.1,283.8 286.8,284.7 285.6,285.6 284.3,286.4 283.0,287.2 281.7,287.9 280.3,288.6 279.0,289.3 277.6,290.0 276.3,290.6 274.9,291.3 273.5,291.9 272.1,292.4 270.8,293.0 269.4,293.5 268.0,294.0 266.6,294.5 265.2,295.0 263.8,295.5 262.4,295.9 261.0,296.4 259.7,296.8 258.3,297.2 256.9,297.6 255.5,298.1 254.2,298.4 252.8,298.8 251.5,299.2 250.1,299.6 248.8,300.0 247.5,300.4 246.1,300.7 244.8,301.1 243.5,301.5 242.2,301.9 240.9,302.2 239.6,302.6 238.3,303.0 237.0,303.4 235.7,303.8 234.4,304.2 233.1,304.6 231.9,305.1 230.6,305.5 229.3,305.9 228.0,306.4 226.8,306.8 225.5,307.3 224.2,307.8 222.9,308.2 221.6,308.7 220.3,309.2 219.0,309.7 217.7,310.1 216.4,310.6 215.1,311.1 213.8,311.6 212.4,312.1 211.1,312.5 209.7,313.0 208.4,313.5 207.0,313.9 205.6,314.4 204.2,314.8 202.8,315.3 201.4,315.7 200.0,316.1 198.6,316.5 197.1,316.9 195.7,317.3 194.2,317.6 192.8,317.9 191.3,318.2 189.8,318.5 188.3,318.7 186.8,319.0 185.3,319.2 183.8,319.3 182.3,319.4 180.8,319.5 179.3,319.6 177.7,319.6 176.2,319.6 174.7,319.5 173.2,319.4 171.7,319.3 170.2,319.1 168.7,318.8 167.2,318.6 165.7,318.2 164.2,317.9 162.8,317.4 161.4,317.0 159.9,316.5 158.5,315.9 157.1,315.3 155.8,314.7 154.4,314.0 153.1,313.3 151.8,312.5 150.5,311.7 149.2,310.9 148.0,310.0 146.7,309.1 145.5,308.2 144.4,307.2 143.2,306.3 142.1,305.2 141.0,304.2 139.9,303.2 138.8,302.1 137.8,301.0 136.8,299.9 135.8,298.8 134.8,297.6 133.8,296.5 132.9,295.3 131.9,294.2 131.0,293.0 130.1,291.8 129.2,290.7 128.4,289.5 127.5,288.3 126.7,287.1 125.9,285.9 125.0,284.8 124.2,283.6 123.4,282.4 122.6,281.3 121.9,280.1 121.1,278.9 120.3,277.8 119.5,276.6 118.8,275.5 118.0,274.3 117.2,273.2 116.5,272.1 115.7,270.9 114.9,269.8 114.2,268.7 113.4,267.6 112.6,266.5 111.8,265.4 111.0,264.3 110.2,263.2 109.4,262.1 108.6,261.0 107.8,260.0 107.0,258.9 106.2,257.8 105.3,256.7 104.5,255.7 103.6,254.6 102.8,253.5 101.9,252.4 101.1,251.3 100.2,250.2 99.3,249.1 98.5,248.0 97.6,246.9 96.7,245.8 95.9,244.6 95.0,243.5 94.1,242.3 93.3,241.2 92.4,240.0 91.6,238.8 90.7,237.6 89.9,236.4 89.1,235.1 88.3,233.9 87.5,232.6 86.7,231.4 85.9,230.1 85.2,228.8 84.4,227.4 83.7,226.1 83.1,224.8 82.4,223.4 81.8,222.0 81.2,220.6 80.6,219.2 80.1,217.8 79.6,216.4 79.1,214.9 78.7,213.5 78.3,212.0 77.9,210.5 77.6,209.0 77.4,207.5 77.2,206.0 77.0,204.5 76.9,203.0 76.8,201.5 76.8,200.0 76.8,198.5 76.9,197.0 77.0,195.5 77.2,194.0 77.4,192.5 77.6,191.0 77.9,189.5 78.3,188.0 78.7,186.5 79.1,185.1 79.6,183.6 80.1,182.2 80.6,180.8 81.2,179.4 81.8,178.0 82.4,176.6 83.1,175.2 83.7,173.9 84.4,172.6 85.2,171.2 85.9,169.9 86.7,168.6 87.5,167.4 88.3,166.1 89.1,164.9 89.9,163.6 90.7,162.4 91.6,161.2 92.4,160.0 93.3,158.8 94.1,157.7 95.0,156.5 95.9,155.4 96.7,154.2 97.6,153.1 98.5,152.0 99.3,150.9 100.2,149.8 101.1,148.7 101.9,147.6 102.8,146.5 103.6,145.4 104.5,144.3 105.3,143.3 106.2,142.2 107.0,141.1 107.8,140.0 108.6,139.0 109.4,137.9 110.2,136.8 111.0,135.7 111.8,134.6 112.6,133.5 113.4,132.4 114.2,131.3 114.9,130.2 115.7,129.1 116.5,127.9 117.2,126.8 118.0,125.7 118.8,124.5 119.5,123.4 120.3,122.2 121.1,121.1 121.9,119.9 122.6,118.7 123.4,117.6 124.2,116.4 125.0,115.2 125.9,114.1 126.7,112.9 127.5,111.7 128.4,110.5 129.2,109.3 130.1,108.2 131.0,107.0 131.9,105.8 132.9,104.7 133.8,103.5 134.8,102.4 135.8,101.2 136.8,100.1 137.8,99.0 138.8,97.9 139.9,96.8 141.0,95.8 142.1,94.8 143.2,93.7 144.4,92.8 145.5,91.8 146.7,90.9 148.0,90.0 149.2,89.1 150.5,88.3 151.8,87.5 153.1,86.7 154.4,86.0 155.8,85.3 157.1,84.7 158.5,84.1 159.9,83.5 161.4,83.0 162.8,82.6 164.2,82.1 165.7,81.8 167.2,81.4 168.7,81.2 170.2,80.9 171.7,80.7 173.2,80.6 174.7,80.5 176.2,80.4 177.7,80.4 179.3,80.4 180.8,80.5 182.3,80.6 183.8,80.7 185.3,80.8 186.8,81.0 188.3,81.3 189.8,81.5 191.3,81.8 192.8,82.1 194.2,82.4 195.7,82.7 197.1,83.1 198.6,83.5 200.0,83.9 201.4,84.3 202.8,84.7 204.2,85.2 205.6,85.6 207.0,86.1 208.4,86.5 209.7,87.0 211.1,87.5 212.4,87.9 213.8,88.4 215.1,88.9 216.4,89.4 217.7,89.9 219.0,90.3 220.3,90.8 221.6,91.3 222.9,91.8 224.2,92.2 225.5,92.7 226.8,93.2 228.0,93.6 229.3,94.1 230.6,94.5 231.9,94.9 233.1,95.4 234.4,95.8 235.7,96.2 237.0,96.6 238.3,97.0 239.6,97.4 240.9,97.8 242.2,98.1 243.5,98.5 244.8,98.9 246.1,99.3 247.5,99.6 248.8,100.0 250.1,100.4 251.5,100.8 252.8,101.2 254.2,101.6 255.5,101.9 256.9,102.4 258.3,102.8 259.7,103.2 261.0,103.6 262.4,104.1 263.8,104.5 265.2,105.0 266.6,105.5 268.0,106.0 269.4,106.5 270.8,107.0 272.1,107.6 273.5,108.1 274.9,108.7 276.3,109.4 277.6,110.0 279.0,110.7 280.3,111.4 281.7,112.1 283.0,112.8 284.3,113.6 285.6,114.4 286.8,115.3 288.1,116.2 289.3,117.1 290.5,118.0 291.7,119.0 292.8,120.0 293.9,121.0 295.0,122.1 296.0,123.1 297.0,124.3 298.0,125.4 298.9,126.6 299.8,127.8 300.7,129.1 301.5,130.3 302.3,131.6 303.1,133.0 303.8,134.3 304.4,135.7 305.0,137.0 305.6,138.4 306.2,139.9 306.7,141.3 307.1,142.7 307.6,144.2 308.0,145.7 308.3,147.1 308.7,148.6 309.0,150.1 309.2,151.6 309.5,153.1 309.7,154.6 309.8,156.1 310.0,157.6 310.1,159.1 310.2,160.6 310.3,162.0 310.4,163.5 310.5,165.0 310.5,166.5 310.5,167.9 310.5,169.4 310.5,170.9 310.5,172.3 310.5,173.8 310.5,175.2 310.4,176.6 310.4,178.0 310.4,179.5 310.3,180.9 310.3,182.3 310.2,183.7 310.1,185.0 310.1,186.4 310.0,187.8 310.0,189.2 309.9,190.5 309.9,191.9 309.9,193.3 309.8,194.6 309.8,196.0 309.8,197.3 309.8,198.7 309.8,200.0" fill="none" stroke="#b5748e" stroke-width="1.5" stroke-linejoin="round"/>
  <polygon points="270.6,200.0 270.6,200.9 270.6,201.7 270.6,202.6 270.6,203.5 270.6,204.3 270.6,205.2 270.7,206.1 270.7,207.0 270.7,207.8 270.8,208.7 270.8,209.6 270.8,210.5 270.9,211.4 270.9,212.3 270.9,213.2 271.0,214.1 271.0,215.0 271.0,215.9 271.0,216.9 271.1,217.8 271.1,218.7 271.1,219.7 271.1,220.6 271.0,221.5 271.0,222.5 271.0,223.4 270.9,224.4 270.9,225.4 270.8,226.3 270.7,227.3 270.6,228.2 270.5,229.2 270.4,230.2 270.2,231.1 270.0,232.1 269.9,233.0 269.6,234.0 269.4,234.9 269.2,235.9 268.9,236.8 268.6,237.7 268.3,238.7 267.9,239.6 267.5,240.5 267.1,241.4 266.7,242.2 266.3,243.1 265.8,243.9 265.3,244.8 264.7,245.6 264.2,246.4 263.6,247.2 263.0,247.9 262.4,248.7 261.7,249.4 261.1,250.1 260.4,250.8 259.7,251.5 258.9,252.1 258.2,252.7 257.4,253.3 256.6,253.9 255.8,254.5 255.0,255.0 254.2,255.5 253.3,256.0 252.5,256.5 251.6,257.0 250.8,257.4 249.9,257.9 249.0,258.3 248.1,258.7 247.3,259.1 246.4,259.4 245.5,259.8 244.6,260.1 243.7,260.5 242.8,260.8 241.9,261.1 241.0,261.4 240.1,261.7 239.2,262.0 238.4,262.2 237.5,262.5 236.6,262.8 235.7,263.0 234.8,263.3 234.0,263.5 233.1,263.8 232.2,264.0 231.4,264.3 230.5,264.5 229.7,264.8 228.8,265.0 228.0,265.2 227.1,265.5 226.3,265.7 225.4,266.0 224.6,266.2 223.8,266.5 223.0,266.7 222.1,267.0 221.3,267.3 220.5,267.5 219.7,267.8 218.8,268.1 218.0,268.4 217.2,268.7 216.4,269.0 215.6,269.3 214.7,269.6 213.9,269.9 213.1,270.2 212.2,270.5 211.4,270.8 210.5,271.1 209.7,271.4 208.8,271.7 208.0,272.0 207.1,272.4 206.3,272.7 205.4,273.0 204.5,273.3 203.6,273.5 202.7,273.8 201.8,274.1 200.9,274.4 200.0,274.6 199.1,274.9 198.2,275.1 197.2,275.4 196.3,275.6 195.3,275.8 194.4,276.0 193.4,276.2 192.5,276.3 191.5,276.5 190.6,276.6 189.6,276.7 188.6,276.8 187.6,276.8 186.7,276.9 185.7,276.9 184.7,276.9 183.7,276.8 182.8,276.8 181.8,276.7 180.8,276.5 179.9,276.4 178.9,276.2 178.0,276.0 177.0,275.8 176.1,275.5 175.2,275.2 174.2,274.9 173.3,274.5 172.4,274.1 171.6,273.7 170.7,273.3 169.8,272.8 169.0,272.3 168.2,271.8 167.3,271.3 166.5,270.7 165.8,270.2 165.0,269.6 164.2,268.9 163.5,268.3 162.8,267.7 162.1,267.0 161.4,266.3 160.7,265.6 160.0,264.9 159.3,264.2 158.7,263.5 158.1,262.8 157.4,262.0 156.8,261.3 156.2,260.5 155.7,259.8 155.1,259.0 154.5,258.3 154.0,257.5 153.4,256.8 152.9,256.0 152.3,255.3 151.8,254.5 151.3,253.7 150.8,253.0 150.3,252.2 149.8,251.5 149.3,250.7 148.8,250.0 148.3,249.3 147.8,248.5 147.3,247.8 146.8,247.0 146.3,246.3 145.8,245.6 145.3,244.9 144.8,244.2 144.3,243.4 143.8,242.7 143.3,242.0 142.8,241.3 142.3,240.6 141.8,239.9 141.3,239.2 140.7,238.6 140.2,237.9 139.7,237.2 139.1,236.5 138.6,235.8 138.1,235.1 137.5,234.4 137.0,233.7 136.4,233.0 135.8,232.3 135.3,231.6 134.7,230.9 134.2,230.2 133.6,229.4 133.1,228.7 132.5,228.0 131.9,227.2 131.4,226.5 130.8,225.7 130.3,224.9 129.8,224.2 129.2,223.4 128.7,222.6 128.2,221.8 127.7,221.0 127.2,220.2 126.7,219.3 126.2,218.5 125.7,217.6 125.3,216.8 124.8,215.9 124.4,215.0 124.0,214.2 123.6,213.3 123.2,212.4 122.9,211.4 122.6,210.5 122.3,209.6 122.0,208.6 121.8,207.7 121.5,206.8 121.3,205.8 121.2,204.8 121.0,203.9 120.9,202.9 120.9,201.9 120.8,201.0 120.8,200.0 120.8,199.0 120.9,198.1 120.9,197.1 121.0,196.1 121.2,195.2 121.3,194.2 121.5,193.2 121.8,192.3 122.0,191.4 122.3,190.4 122.6,189.5 122.9,188.6 123.2,187.6 123.6,186.7 124.0,185.8 124.4,185.0 124.8,184.1 125.3,183.2 125.7,182.4 126.2,181.5 126.7,180.7 127.2,179.8 127.7,179.0 128.2,178.2 128.7,177.4 129.2,176.6 129.8,175.8 130.3,175.1 130.8,174.3 131.4,173.5 131.9,172.8 132.5,172.0 133.1,171.3 133.6,170.6 134.2,169.8 134.7,169.1 135.3,168.4 135.8,167.7 136.4,167.0 137.0,166.3 137.5,165.6 138.1,164.9 138.6,164.2 139.1,163.5 139.7,162.8 140.2,162.1 140.7,161.4 141.3,160.8 141.8,160.1 142.3,159.4 142.8,158.7 143.3,158.0 143.8,157.3 144.3,156.6 144.8,155.8 145.3,155.1 145.8,154.4 146.3,153.7 146.8,153.0 147.3,152.2 147.8,151.5 148.3,150.7 148.8,150.0 149.3,149.3 149.8,148.5 150.3,147.8 150.8,147.0 151.3,146.3 151.8,145.5 152.3,144.7 152.9,144.0 153.4,143.2 154.0,142.5 154.5,141.7 155.1,141.0 155.7,140.2 156.2,139.5 156.8,138.7 157.4,138.0 158.1,137.2 158.7,136.5 159.3,135.8 160.0,135.1 160.7,134.4 161.4,133.7 162.1,133.0 162.8,132.3 163.5,131.7 164.2,131.1 165.0,130.4 165.8,129.8 166.5,129.3 167.3,128.7 168.2,128.2 169.0,127.7 169.8,127.2 170.7,126.7 171.6,126.3 172.4,125.9 173.3,125.5 174.2,125.1 175.2,124.8 176.1,124.5 177.0,124.2 178.0,124.0 178.9,123.8 179.9,123.6 180.8,123.5 181.8,123.3 182.8,123.2 183.7,123.2 184.7,123.1 185.7,123.1 186.7,123.1 187.6,123.2 188.6,123.2 189.6,123.3 190.6,123.4 191.5,123.5 192.5,123.7 193.4,123.8 194.4,124.0 195.3,124.2 196.3,124.4 197.2,124.6 198.2,124.9 199.1,125.1 200.0,125.4 200.9,125.6 201.8,125.9 202.7,126.2 203.6,126.5 204.5,126.7 205.4,127.0 206.3,127.3 207.1,127.6 208.0,128.0 208.8,128.3 209.7,128.6 210.5,128.9 211.4,129.2 212.2,129.5 213.1,129.8 213.9,130.1 214.7,130.4 215.6,130.7 216.4,131.0 217.2,131.3 218.0,131.6 218.8,131.9 219.7,132.2 220.5,132.5 221.3,132.7 222.1,133.0 223.0,133.3 223.8,133.5 224.6,133.8 225.4,134.0 226.3,134.3 227.1,134.5 228.0,134.8 228.8,135.0 229.7,135.2 230.5,135.5 231.4,135.7 232.2,136.0 233.1,136.2 234.0,136.5 234.8,136.7 235.7,137.0 236.6,137.2 237.5,137.5 238.4,137.8 239.2,138.0 240.1,138.3 241.0,138.6 241.9,138.9 242.8,139.2 243.7,139.5 244.6,139.9 245.5,140.2 246.4,140.6 247.3,140.9 248.1,141.3 249.0,141.7 249.9,142.1 250.8,142.6 251.6,143.0 252.5,143.5 253.3,144.0 254.2,144.5 255.0,145.0 255.8,145.5 256.6,146.1 257.4,146.7 258.2,147.3 258.9,147.9 259.7,148.5 260.4,149.2 261.1,149.9 261.7,150.6 262.4,151.3 263.0,152.1 263.6,152.8 264.2,153.6 264.7,154.4 265.3,155.2 265.8,156.1 266.3,156.9 266.7,157.8 267.1,158.6 267.5,159.5 267.9,160.4 268.3,161.3 268.6,162.3 268.9,163.2 269.2,164.1 269.4,165.1 269.6,166.0 269.9,167.0 270.0,167.9 270.2,168.9 270.4,169.8 270.5,170.8 270.6,171.8 270.7,172.7 270.8,173.7 270.9,174.6 270.9,175.6 271.0,176.6 271.0,177.5 271.0,178.5 271.1,179.4 271.1,180.3 271.1,181.3 271.1,182.2 271.0,183.1 271.0,184.1 271.0,185.0 271.0,185.9 270.9,186.8 270.9,187.7 270.9,188.6 270.8,189.5 270.8,190.4 270.8,191.3 270.7,192.2 270.7,193.0 270.7,193.9 270.6,194.8 270.6,195.7 270.6,196.5 270.6,197.4 270.6,198.3 270.6,199.1 270.6,200.0" fill="#c47088" fill-opacity="0.07" stroke="#8b4f6e" stroke-width="2.0" stroke-linejoin="round"/>
</svg>