<svg xmlns="http://www.w3.org/2000/svg" viewBox="0 0 238 238" width="238" height="238">
  <rect width="238" height="238" fill="#0d0d1a"/>
  <polyline points="21,21 35,21 49,21 49,35 63,35 63,21 77,21 91,21 105,21 105,35 119,35 119,21 133,21 147,21 161,21 175,21 189,21 189,35 203,35 217,35 217,49 217,63 217,77 203,77 203,91 203,105 217,105 217,119 217,133 217,147 203,147 203,133 189,133 189,147 175,147 175,133 161,133 147,133 147,119 161,119 161,105 147,105 133,105 119,105 105,105 105,119 91,119 91,105 91,91 91,77 77,77 77,63 91,63 91,49 91,35 77,35 77,49 63,49 49,49 35,49 35,35 21,35 21,49 21,63 21,77 35,77 35,91 21,91 21,105 35,105 49,105 63,105 77,105 77,119 77,133 63,133 63,147 77,147 91,147 91,133 105,133 105,147 105,161 119,161 119,147 133,147 147,147 147,161 161,161 161,175 147,175 133,175 119,175 105,175 91,175 91,161 77,161 63,161 63,175 77,175 77,189 91,189 105,189 105,203 91,203 91,217 105,217 119,217 119,203 119,189 133,189 147,189 147,203 161,203 161,217 175,217 175,203 189,203 189,217 203,217 217,217" fill="none" stroke="#d4a853" stroke-width="1.2000000000000002" stroke-linecap="round" stroke-linejoin="round" opacity="0.9"/>
  <line x1="14" y1="14" x2="14" y2="28" stroke="#e8dcc8" stroke-width="1.5" stroke-linecap="square"/>
  <line x1="28" y1="14" x2="42" y2="14" stroke="#e8dcc8" stroke-width="1.5" stroke-linecap="square"/>
  <line x1="42" y1="14" x2="56" y2="14" stroke="#e8dcc8" stroke-width="1.5" stroke-linecap="square"/>
  <line x1="56" y1="14" x2="70" y2="14" stroke="#e8dcc8" stroke-width="1.5" stroke-linecap="square"/>
  <line x1="56" y1="14" x2="56" y2="28" stroke="#e8dcc8" stroke-width="1.5" stroke-linecap="square"/>
  <line x1="70" y1="14" x2="84" y2="14" stroke="#e8dcc8" stroke-width="1.5" stroke-linecap="square"/>
  <line x1="84" y1="14" x2="98" y2="14" stroke="#e8dcc8" stroke-width="1.5" stroke-linecap="square"/>
  <line x1="98" y1="14" x2="112" y2="14" stroke="#e8dcc8" stroke-width="1.5" stroke-linecap="square"/>
  <line x1="112" y1="14" x2="126" y2="14" stroke="#e8dcc8" stroke-width="1.5" stroke-linecap="square"/>
  <line x1="112" y1="14" x2="112" y2="28" stroke="#e8dcc8" stroke-width="1.5" stroke-linecap="square"/>
  <line x1="126" y1="14" x2="140" y2="14" stroke="#e8dcc8" stroke-width="1.5" stroke-linecap="square"/>
  <line x1="140" y1="14" x2="154" y2="14" stroke="#e8dcc8" stroke-width="1.5" stroke-linecap="square"/>
  <line x1="154" y1="14" x2="168" y2="14" stroke="#e8dcc8" stroke-width="1.5" stroke-linecap="square"/>
  <line x1="168" y1="14" x2="182" y2="14" stroke="#e8dcc8" stroke-width="1.5" stroke-linecap="square"/>
  <line x1="182" y1="14" x2="196" y2="14" stroke="#e8dcc8" stroke-width="1.5" stroke-linecap="square"/>
  <line x1="196" y1="14" x2="210" y2="14" stroke="#e8dcc8" stroke-width="1.5" stroke-linecap="square"/>
  <line x1="196" y1="14" x2="196" y2="28" stroke="#e8dcc8" stroke-width="1.5" stroke-linecap="square"/>
  <line x1="210" y1="14" x2="224" y2="14" stroke="#e8dcc8" stroke-width="1.5" stroke-linecap="square"/>
  <line x1="14" y1="28" x2="28" y2="28" stroke="#e8dcc8" stroke-width="1.5" stroke-linecap="square"/>
  <line x1="14" y1="28" x2="14" y2="42" stroke="#e8dcc8" stroke-width="1.5" stroke-linecap="square"/>
  <line x1="28" y1="28" x2="42" y2="28" stroke="#e8dcc8" stroke-width="1.5" stroke-linecap="square"/>
  <line x1="42" y1="28" x2="42" y2="42" stroke="#e8dcc8" stroke-width="1.5" stroke-linecap="square"/>
  <line x1="70" y1="28" x2="84" y2="28" stroke="#e8dcc8" stroke-width="1.5" stroke-linecap="square"/>
  <line x1="70" y1="28" x2="70" y2="42" stroke="#e8dcc8" stroke-width="1.5" stroke-linecap="square"/>
  <line x1="84" y1="28" x2="98" y2="28" stroke="#e8dcc8" stroke-width="1.5" stroke-linecap="square"/>
  <line x1="98" y1="28" x2="98" y2="42" stroke="#e8dcc8" stroke-width="1.5" stroke-linecap="square"/>
  <line x1="126" y1="28" x2="140" y2="28" stroke="#e8dcc8" stroke-width="1.5" stroke-linecap="square"/>
  <line x1="126" y1="28" x2="126" y2="42" stroke="#e8dcc8" stroke-width="1.5" stroke-linecap="square"/>
  <line x1="140" y1="28" x2="154" y2="28" stroke="#e8dcc8" stroke-width="1.5" stroke-linecap="square"/>
  <line x1="140" y1="28" x2="140" y2="42" stroke="#e8dcc8" stroke-width="1.5" stroke-linecap="square"/>
  <line x1="154" y1="28" x2="168" y2="28" stroke="#e8dcc8" stroke-width="1.5" stroke-linecap="square"/>
  <line x1="168" y1="28" x2="182" y2="28" stroke="#e8dcc8" stroke-width="1.5" stroke-linecap="square"/>
  <line x1="182" y1="28" x2="182" y2="42" stroke="#e8dcc8" stroke-width="1.5" stroke-linecap="square"/>
  <line x1="196" y1="28" x2="210" y2="28" stroke="#e8dcc8" stroke-width="1.5" stroke-linecap="square"/>
  <line x1="14" y1="42" x2="14" y2="56" stroke="#e8dcc8" stroke-width="1.5" stroke-linecap="square"/>
  <line x1="28" y1="42" x2="28" y2="56" stroke="#e8dcc8" stroke-width="1.5" stroke-linecap="square"/>
  <line x1="42" y1="42" x2="56" y2="42" stroke="#e8dcc8" stroke-width="1.5" stroke-linecap="square"/>
  <line x1="56" y1="42" x2="70" y2="42" stroke="#e8dcc8" stroke-width="1.5" stroke-linecap="square"/>
  <line x1="84" y1="42" x2="84" y2="56" stroke="#e8dcc8" stroke-width="1.5" stroke-linecap="square"/>
  <line x1="98" y1="42" x2="112" y2="42" stroke="#e8dcc8" stroke-width="1.5" stroke-linecap="square"/>
  <line x1="112" y1="42" x2="126" y2="42" stroke="#e8dcc8" stroke-width="1.5" stroke-linecap="square"/>
  <line x1="126" y1="42" x2="126" y2="56" stroke="#e8dcc8" stroke-width="1.5" stroke-linecap="square"/>
  <line x1="154" y1="42" x2="154" y2="56" stroke="#e8dcc8" stroke-width="1.5" stroke-linecap="square"/>
  <line x1="168" y1="42" x2="168" y2="56" stroke="#e8dcc8" stroke-width="1.5" stroke-linecap="square"/>
  <line x1="182" y1="42" x2="196" y2="42" stroke="#e8dcc8" stroke-width="1.5" stroke-linecap="square"/>
  <line x1="182" y1="42" x2="182" y2="56" stroke="#e8dcc8" stroke-width="1.5" stroke-linecap="square"/>
  <line x1="196" y1="42" x2="210" y2="42" stroke="#e8dcc8" stroke-width="1.5" stroke-linecap="square"/>
  <line x1="210" y1="42" x2="210" y2="56" stroke="#e8dcc8" stroke-width="1.5" stroke-linecap="square"/>
  <line x1="14" y1="56" x2="14" y2="70" stroke="#e8dcc8" stroke-width="1.5" stroke-linecap="square"/>
  <line x1="28" y1="56" x2="42" y2="56" stroke="#e8dcc8" stroke-width="1.5" stroke-linecap="square"/>
  <line x1="28" y1="56" x2="28" y2="70" stroke="#e8dcc8" stroke-width="1.5" stroke-linecap="square"/>
  <line x1="42" y1="56" x2="56" y2="56" stroke="#e8dcc8" stroke-width="1.5" stroke-linecap="square"/>
  <line x1="56" y1="56" x2="70" y2="56" stroke="#e8dcc8" stroke-width="1.5" stroke-linecap="square"/>
  <line x1="70" y1="56" x2="84" y2="56" stroke="#e8dcc8" stroke-width="1.5" stroke-linecap="square"/>
  <line x1="70" y1="56" x2="70" y2="70" stroke="#e8dcc8" stroke-width="1.5" stroke-linecap="square"/>
  <line x1="98" y1="56" x2="112" y2="56" stroke="#e8dcc8" stroke-width="1.5" stroke-linecap="square"/>
  <line x1="98" y1="56" x2="98" y2="70" stroke="#e8dcc8" stroke-width="1.5" stroke-linecap="square"/>
  <line x1="112" y1="56" x2="112" y2="70" stroke="#e8dcc8" stroke-width="1.5" stroke-linecap="square"/>
  <line x1="126" y1="56" x2="140" y2="56" stroke="#e8dcc8" stroke-width="1.5" stroke-linecap="square"/>
  <line x1="140" y1="56" x2="154" y2="56" stroke="#e8dcc8" stroke-width="1.5" stroke-linecap="square"/>
  <line x1="168" y1="56" x2="168" y2="70" stroke="#e8dcc8" stroke-width="1.5" stroke-linecap="square"/>
  <line x1="182" y1="56" x2="196" y2="56" stroke="#e8dcc8" stroke-width="1.5" stroke-linecap="square"/>
  <line x1="182" y1="56" x2="182" y2="70" stroke="#e8dcc8" stroke-width="1.5" stroke-linecap="square"/>
  <line x1="210" y1="56" x2="210" y2="70" stroke="#e8dcc8" stroke-width="1.5" stroke-linecap="square"/>
  <line x1="14" y1="70" x2="14" y2="84" stroke="#e8dcc8" stroke-width="1.5" stroke-linecap="square"/>
  <line x1="28" y1="70" x2="42" y2="70" stroke="#e8dcc8" stroke-width="1.5" stroke-linecap="square"/>
  <line x1="42" y1="70" x2="42" y2="84" stroke="#e8dcc8" stroke-width="1.5" stroke-linecap="square"/>
  <line x1="56" y1="70" x2="70" y2="70" stroke="#e8dcc8" stroke-width="1.5" stroke-linecap="square"/>
  <line x1="70" y1="70" x2="70" y2="84" stroke="#e8dcc8" stroke-width="1.5" stroke-linecap="square"/>
  <line x1="84" y1="70" x2="98" y2="70" stroke="#e8dcc8" stroke-width="1.5" stroke-linecap="square"/>
  <line x1="98" y1="70" x2="98" y2="84" stroke="#e8dcc8" stroke-width="1.5" stroke-linecap="square"/>
  <line x1="112" y1="70" x2="126" y2="70" stroke="#e8dcc8" stroke-width="1.5" stroke-linecap="square"/>
  <line x1="112" y1="70" x2="112" y2="84" stroke="#e8dcc8" stroke-width="1.5" stroke-linecap="square"/>
  <line x1="126" y1="70" x2="140" y2="70" stroke="#e8dcc8" stroke-width="1.5" stroke-linecap="square"/>
  <line x1="140" y1="70" x2="154" y2="70" stroke="#e8dcc8" stroke-width="1.5" stroke-linecap="square"/>
  <line x1="154" y1="70" x2="168" y2="70" stroke="#e8dcc8" stroke-width="1.5" stroke-linecap="square"/>
  <line x1="168" y1="70" x2="168" y2="84" stroke="#e8dcc8" stroke-width="1.5" stroke-linecap="square"/>
  <line x1="182" y1="70" x2="182" y2="84" stroke="#e8dcc8" stroke-width="1.5" stroke-linecap="square"/>
  <line x1="196" y1="70" x2="210" y2="70" stroke="#e8dcc8" stroke-width="1.5" stroke-linecap="square"/>
  <line x1="196" y1="70" x2="196" y2="84" stroke="#e8dcc8" stroke-width="1.5" stroke-linecap="square"/>
  <line x1="14" y1="84" x2="28" y2="84" stroke="#e8dcc8" stroke-width="1.5" stroke-linecap="square"/>
  <line x1="14" y1="84" x2="14" y2="98" stroke="#e8dcc8" stroke-width="1.5" stroke-linecap="square"/>
  <line x1="42" y1="84" x2="42" y2="98" stroke="#e8dcc8" stroke-width="1.5" stroke-linecap="square"/>
  <line x1="56" y1="84" x2="56" y2="98" stroke="#e8dcc8" stroke-width="1.5" stroke-linecap="square"/>
  <line x1="70" y1="84" x2="84" y2="84" stroke="#e8dcc8" stroke-width="1.5" stroke-linecap="square"/>
  <line x1="84" y1="84" x2="84" y2="98" stroke="#e8dcc8" stroke-width="1.5" stroke-linecap="square"/>
  <line x1="98" y1="84" x2="98" y2="98" stroke="#e8dcc8" stroke-width="1.5" stroke-linecap="square"/>
  <line x1="126" y1="84" x2="140" y2="84" stroke="#e8dcc8" stroke-width="1.5" stroke-linecap="square"/>
  <line x1="140" y1="84" x2="140" y2="98" stroke="#e8dcc8" stroke-width="1.5" stroke-linecap="square"/>
  <line x1="154" y1="84" x2="168" y2="84" stroke="#e8dcc8" stroke-width="1.5" stroke-linecap="square"/>
  <line x1="182" y1="84" x2="182" y2="98" stroke="#e8dcc8" stroke-width="1.5" stroke-linecap="square"/>
  <line x1="196" y1="84" x2="196" y2="98" stroke="#e8dcc8" stroke-width="1.5" stroke-linecap="square"/>
  <line x1="210" y1="84" x2="224" y2="84" stroke="#e8dcc8" stroke-width="1.5" stroke-linecap="square"/>
  <line x1="210" y1="84" x2="210" y2="98" stroke="#e8dcc8" stroke-width="1.5" stroke-linecap="square"/>
  <line x1="14" y1="98" x2="14" y2="112" stroke="#e8dcc8" stroke-width="1.5" stroke-linecap="square"/>
  <line x1="28" y1="98" x2="42" y2="98" stroke="#e8dcc8" stroke-width="1.5" stroke-linecap="square"/>
  <line x1="42" y1="98" x2="56" y2="98" stroke="#e8dcc8" stroke-width="1.5" stroke-linecap="square"/>
  <line x1="56" y1="98" x2="70" y2="98" stroke="#e8dcc8" stroke-width="1.5" stroke-linecap="square"/>
  <line x1="84" y1="98" x2="84" y2="112" stroke="#e8dcc8" stroke-width="1.5" stroke-linecap="square"/>
  <line x1="98" y1="98" x2="112" y2="98" stroke="#e8dcc8" stroke-width="1.5" stroke-linecap="square"/>
  <line x1="98" y1="98" x2="98" y2="112" stroke="#e8dcc8" stroke-width="1.5" stroke-linecap="square"/>
  <line x1="112" y1="98" x2="126" y2="98" stroke="#e8dcc8" stroke-width="1.5" stroke-linecap="square"/>
  <line x1="126" y1="98" x2="140" y2="98" stroke="#e8dcc8" stroke-width="1.5" stroke-linecap="square"/>
  <line x1="140" y1="98" x2="154" y2="98" stroke="#e8dcc8" stroke-width="1.5" stroke-linecap="square"/>
  <line x1="154" y1="98" x2="168" y2="98" stroke="#e8dcc8" stroke-width="1.5" stroke-linecap="square"/>
  <line x1="168" y1="98" x2="168" y2="112" stroke="#e8dcc8" stroke-width="1.5" stroke-linecap="square"/>
  <line x1="196" y1="98" x2="196" y2="112" stroke="#e8dcc8" stroke-width="1.5" stroke-linecap="square"/>
  <line x1="14" y1="112" x2="28" y2="112" stroke="#e8dcc8" stroke-width="1.5" stroke-linecap="square"/>
  <line x1="14" y1="112" x2="14" y2="126" stroke="#e8dcc8" stroke-width="1.5" stroke-linecap="square"/>
  <line x1="28" y1="112" x2="42" y2="112" stroke="#e8dcc8" stroke-width="1.5" stroke-linecap="square"/>
  <line x1="42" y1="112" x2="56" y2="112" stroke="#e8dcc8" stroke-width="1.5" stroke-linecap="square"/>
  <line x1="42" y1="112" x2="42" y2="126" stroke="#e8dcc8" stroke-width="1.5" stroke-linecap="square"/>
  <line x1="56" y1="112" x2="70" y2="112" stroke="#e8dcc8" stroke-width="1.5" stroke-linecap="square"/>
  <line x1="70" y1="112" x2="70" y2="126" stroke="#e8dcc8" stroke-width="1.5" stroke-linecap="square"/>
  <line x1="84" y1="112" x2="84" y2="126" stroke="#e8dcc8" stroke-width="1.5" stroke-linecap="square"/>
  <line x1="112" y1="112" x2="126" y2="112" stroke="#e8dcc8" stroke-width="1.5" stroke-linecap="square"/>
  <line x1="112" y1="112" x2="112" y2="126" stroke="#e8dcc8" stroke-width="1.5" stroke-linecap="square"/>
  <line x1="126" y1="112" x2="140" y2="112" stroke="#e8dcc8" stroke-width="1.5" stroke-linecap="square"/>
  <line x1="140" y1="112" x2="154" y2="112" stroke="#e8dcc8" stroke-width="1.5" stroke-linecap="square"/>
  <line x1="140" y1="112" x2="140" y2="126" stroke="#e8dcc8" stroke-width="1.5" stroke-linecap="square"/>
  <line x1="168" y1="112" x2="182" y2="112" stroke="#e8dcc8" stroke-width="1.5" stroke-linecap="square"/>
  <line x1="168" y1="112" x2="168" y2="126" stroke="#e8dcc8" stroke-width="1.5" stroke-linecap="square"/>
  <line x1="196" y1="112" x2="210" y2="112" stroke="#e8dcc8" stroke-width="1.5" stroke-linecap="square"/>
  <line x1="210" y1="112" x2="210" y2="126" stroke="#e8dcc8" stroke-width="1.5" stroke-linecap="square"/>
  <line x1="14" y1="126" x2="14" y2="140" stroke="#e8dcc8" stroke-width="1.5" stroke-linecap="square"/>
  <line x1="28" y1="126" x2="28" y2="140" stroke="#e8dcc8" stroke-width="1.5" stroke-linecap="square"/>
  <line x1="56" y1="126" x2="70" y2="126" stroke="#e8dcc8" stroke-width="1.5" stroke-linecap="square"/>
  <line x1="56" y1="126" x2="56" y2="140" stroke="#e8dcc8" stroke-width="1.5" stroke-linecap="square"/>
  <line x1="84" y1="126" x2="98" y2="126" stroke="#e8dcc8" stroke-width="1.5" stroke-linecap="square"/>
  <line x1="84" y1="126" x2="84" y2="140" stroke="#e8dcc8" stroke-width="1.5" stroke-linecap="square"/>
  <line x1="98" y1="126" x2="112" y2="126" stroke="#e8dcc8" stroke-width="1.5" stroke-linecap="square"/>
  <line x1="112" y1="126" x2="112" y2="140" stroke="#e8dcc8" stroke-width="1.5" stroke-linecap="square"/>
  <line x1="126" y1="126" x2="140" y2="126" stroke="#e8dcc8" stroke-width="1.5" stroke-linecap="square"/>
  <line x1="140" y1="126" x2="140" y2="140" stroke="#e8dcc8" stroke-width="1.5" stroke-linecap="square"/>
  <line x1="154" y1="126" x2="168" y2="126" stroke="#e8dcc8" stroke-width="1.5" stroke-linecap="square"/>
  <line x1="168" y1="126" x2="182" y2="126" stroke="#e8dcc8" stroke-width="1.5" stroke-linecap="square"/>
  <line x1="182" y1="126" x2="196" y2="126" stroke="#e8dcc8" stroke-width="1.5" stroke-linecap="square"/>
  <line x1="182" y1="126" x2="182" y2="140" stroke="#e8dcc8" stroke-width="1.5" stroke-linecap="square"/>
  <line x1="196" y1="126" x2="210" y2="126" stroke="#e8dcc8" stroke-width="1.5" stroke-linecap="square"/>
  <line x1="210" y1="126" x2="210" y2="140" stroke="#e8dcc8" stroke-width="1.5" stroke-linecap="square"/>
  <line x1="14" y1="140" x2="14" y2="154" stroke="#e8dcc8" stroke-width="1.5" stroke-linecap="square"/>
  <line x1="28" y1="140" x2="42" y2="140" stroke="#e8dcc8" stroke-width="1.5" stroke-linecap="square"/>
  <line x1="42" y1="140" x2="42" y2="154" stroke="#e8dcc8" stroke-width="1.5" stroke-linecap="square"/>
  <line x1="56" y1="140" x2="56" y2="154" stroke="#e8dcc8" stroke-width="1.5" stroke-linecap="square"/>
  <line x1="70" y1="140" x2="84" y2="140" stroke="#e8dcc8" stroke-width="1.5" stroke-linecap="square"/>
  <line x1="98" y1="140" x2="98" y2="154" stroke="#e8dcc8" stroke-width="1.5" stroke-linecap="square"/>
  <line x1="112" y1="140" x2="126" y2="140" stroke="#e8dcc8" stroke-width="1.5" stroke-linecap="square"/>
  <line x1="112" y1="140" x2="112" y2="154" stroke="#e8dcc8" stroke-width="1.5" stroke-linecap="square"/>
  <line x1="140" y1="140" x2="154" y2="140" stroke="#e8dcc8" stroke-width="1.5" stroke-linecap="square"/>
  <line x1="154" y1="140" x2="168" y2="140" stroke="#e8dcc8" stroke-width="1.5" stroke-linecap="square"/>
  <line x1="154" y1="140" x2="154" y2="154" stroke="#e8dcc8" stroke-width="1.5" stroke-linecap="square"/>
  <line x1="168" y1="140" x2="168" y2="154" stroke="#e8dcc8" stroke-width="1.5" stroke-linecap="square"/>
  <line x1="196" y1="140" x2="196" y2="154" stroke="#e8dcc8" stroke-width="1.5" stroke-linecap="square"/>
  <line x1="14" y1="154" x2="28" y2="154" stroke="#e8dcc8" stroke-width="1.5" stroke-linecap="square"/>
  <line x1="14" y1="154" x2="14" y2="168" stroke="#e8dcc8" stroke-width="1.5" stroke-linecap="square"/>
  <line x1="42" y1="154" x2="42" y2="168" stroke="#e8dcc8" stroke-width="1.5" stroke-linecap="square"/>
  <line x1="56" y1="154" x2="70" y2="154" stroke="#e8dcc8" stroke-width="1.5" stroke-linecap="square"/>
  <line x1="56" y1="154" x2="56" y2="168" stroke="#e8dcc8" stroke-width="1.5" stroke-linecap="square"/>
  <line x1="70" y1="154" x2="84" y2="154" stroke="#e8dcc8" stroke-width="1.5" stroke-linecap="square"/>
  <line x1="84" y1="154" x2="98" y2="154" stroke="#e8dcc8" stroke-width="1.5" stroke-linecap="square"/>
  <line x1="98" y1="154" x2="98" y2="168" stroke="#e8dcc8" stroke-width="1.5" stroke-linecap="square"/>
  <line x1="126" y1="154" x2="140" y2="154" stroke="#e8dcc8" stroke-width="1.5" stroke-linecap="square"/>
  <line x1="126" y1="154" x2="126" y2="168" stroke="#e8dcc8" stroke-width="1.5" stroke-linecap="square"/>
  <line x1="140" y1="154" x2="140" y2="168" stroke="#e8dcc8" stroke-width="1.5" stroke-linecap="square"/>
  <line x1="168" y1="154" x2="182" y2="154" stroke="#e8dcc8" stroke-width="1.5" stroke-linecap="square"/>
  <line x1="168" y1="154" x2="168" y2="168" stroke="#e8dcc8" stroke-width="1.5" stroke-linecap="square"/>
  <line x1="182" y1="154" x2="196" y2="154" stroke="#e8dcc8" stroke-width="1.5" stroke-linecap="square"/>
  <line x1="196" y1="154" x2="210" y2="154" stroke="#e8dcc8" stroke-width="1.5" stroke-linecap="square"/>
  <line x1="210" y1="154" x2="224" y2="154" stroke="#e8dcc8" stroke-width="1.5" stroke-linecap="square"/>
  <line x1="14" y1="168" x2="14" y2="182" stroke="#e8dcc8" stroke-width="1.5" stroke-linecap="square"/>
  <line x1="28" y1="168" x2="42" y2="168" stroke="#e8dcc8" stroke-width="1.5" stroke-linecap="square"/>
  <line x1="42" y1="168" x2="56" y2="168" stroke="#e8dcc8" stroke-width="1.5" stroke-linecap="square"/>
  <line x1="56" y1="168" x2="56" y2="182" stroke="#e8dcc8" stroke-width="1.5" stroke-linecap="square"/>
  <line x1="70" y1="168" x2="84" y2="168" stroke="#e8dcc8" stroke-width="1.5" stroke-linecap="square"/>
  <line x1="84" y1="168" x2="84" y2="182" stroke="#e8dcc8" stroke-width="1.5" stroke-linecap="square"/>
  <line x1="98" y1="168" x2="112" y2="168" stroke="#e8dcc8" stroke-width="1.5" stroke-linecap="square"/>
  <line x1="112" y1="168" x2="126" y2="168" stroke="#e8dcc8" stroke-width="1.5" stroke-linecap="square"/>
  <line x1="140" y1="168" x2="154" y2="168" stroke="#e8dcc8" stroke-width="1.5" stroke-linecap="square"/>
  <line x1="168" y1="168" x2="168" y2="182" stroke="#e8dcc8" stroke-width="1.5" stroke-linecap="square"/>
  <line x1="182" y1="168" x2="182" y2="182" stroke="#e8dcc8" stroke-width="1.5" stroke-linecap="square"/>
  <line x1="196" y1="168" x2="210" y2="168" stroke="#e8dcc8" stroke-width="1.5" stroke-linecap="square"/>
  <line x1="196" y1="168" x2="196" y2="182" stroke="#e8dcc8" stroke-width="1.5" stroke-linecap="square"/>
  <line x1="210" y1="168" x2="224" y2="168" stroke="#e8dcc8" stroke-width="1.5" stroke-linecap="square"/>
  <line x1="14" y1="182" x2="28" y2="182" stroke="#e8dcc8" stroke-width="1.5" stroke-linecap="square"/>
  <line x1="14" y1="182" x2="14" y2="196" stroke="#e8dcc8" stroke-width="1.5" stroke-linecap="square"/>
  <line x1="28" y1="182" x2="42" y2="182" stroke="#e8dcc8" stroke-width="1.5" stroke-linecap="square"/>
  <line x1="56" y1="182" x2="70" y2="182" stroke="#e8dcc8" stroke-width="1.5" stroke-linecap="square"/>
  <line x1="56" y1="182" x2="56" y2="196" stroke="#e8dcc8" stroke-width="1.5" stroke-linecap="square"/>
  <line x1="70" y1="182" x2="70" y2="196" stroke="#e8dcc8" stroke-width="1.5" stroke-linecap="square"/>
  <line x1="84" y1="182" x2="98" y2="182" stroke="#e8dcc8" stroke-width="1.5" stroke-linecap="square"/>
  <line x1="98" y1="182" x2="112" y2="182" stroke="#e8dcc8" stroke-width="1.5" stroke-linecap="square"/>
  <line x1="112" y1="182" x2="126" y2="182" stroke="#e8dcc8" stroke-width="1.5" stroke-linecap="square"/>
  <line x1="112" y1="182" x2="112" y2="196" stroke="#e8dcc8" stroke-width="1.5" stroke-linecap="square"/>
  <line x1="126" y1="182" x2="140" y2="182" stroke="#e8dcc8" stroke-width="1.5" stroke-linecap="square"/>
  <line x1="140" y1="182" x2="154" y2="182" stroke="#e8dcc8" stroke-width="1.5" stroke-linecap="square"/>
  <line x1="154" y1="182" x2="168" y2="182" stroke="#e8dcc8" stroke-width="1.5" stroke-linecap="square"/>
  <line x1="154" y1="182" x2="154" y2="196" stroke="#e8dcc8" stroke-width="1.5" stroke-linecap="square"/>
  <line x1="182" y1="182" x2="196" y2="182" stroke="#e8dcc8" stroke-width="1.5" stroke-linecap="square"/>
  <line x1="210" y1="182" x2="210" y2="196" stroke="#e8dcc8" stroke-width="1.5" stroke-linecap="square"/>
  <line x1="14" y1="196" x2="14" y2="210" stroke="#e8dcc8" stroke-width="1.5" stroke-linecap="square"/>
  <line x1="28" y1="196" x2="42" y2="196" stroke="#e8dcc8" stroke-width="1.5" stroke-linecap="square"/>
  <line x1="42" y1="196" x2="42" y2="210" stroke="#e8dcc8" stroke-width="1.5" stroke-linecap="square"/>
  <line x1="70" y1="196" x2="84" y2="196" stroke="#e8dcc8" stroke-width="1.5" stroke-linecap="square"/>
  <line x1="84" y1="196" x2="98" y2="196" stroke="#e8dcc8" stroke-width="1.5" stroke-linecap="square"/>
  <line x1="84" y1="196" x2="84" y2="210" stroke="#e8dcc8" stroke-width="1.5" stroke-linecap="square"/>
  <line x1="112" y1="196" x2="112" y2="210" stroke="#e8dcc8" stroke-width="1.5" stroke-linecap="square"/>
  <line x1="126" y1="196" x2="140" y2="196" stroke="#e8dcc8" stroke-width="1.5" stroke-linecap="square"/>
  <line x1="126" y1="196" x2="126" y2="210" stroke="#e8dcc8" stroke-width="1.5" stroke-linecap="square"/>
  <line x1="140" y1="196" x2="140" y2="210" stroke="#e8dcc8" stroke-width="1.5" stroke-linecap="square"/>
  <line x1="154" y1="196" x2="168" y2="196" stroke="#e8dcc8" stroke-width="1.5" stroke-linecap="square"/>
  <line x1="168" y1="196" x2="182" y2="196" stroke="#e8dcc8" stroke-width="1.5" stroke-linecap="square"/>
  <line x1="168" y1="196" x2="168" y2="210" stroke="#e8dcc8" stroke-width="1.5" stroke-linecap="square"/>
  <line x1="182" y1="196" x2="196" y2="196" stroke="#e8dcc8" stroke-width="1.5" stroke-linecap="square"/>
  <line x1="196" y1="196" x2="196" y2="210" stroke="#e8dcc8" stroke-width="1.5" stroke-linecap="square"/>
  <line x1="210" y1="196" x2="210" y2="210" stroke="#e8dcc8" stroke-width="1.5" stroke-linecap="square"/>
  <line x1="14" y1="210" x2="14" y2="224" stroke="#e8dcc8" stroke-width="1.5" stroke-linecap="square"/>
  <line x1="28" y1="210" x2="28" y2="224" stroke="#e8dcc8" stroke-width="1.5" stroke-linecap="square"/>
  <line x1="42" y1="210" x2="56" y2="210" stroke="#e8dcc8" stroke-width="1.5" stroke-linecap="square"/>
  <line x1="56" y1="210" x2="70" y2="210" stroke="#e8dcc8" stroke-width="1.5" stroke-linecap="square"/>
  <line x1="70" y1="210" x2="84" y2="210" stroke="#e8dcc8" stroke-width="1.5" stroke-linecap="square"/>
  <line x1="98" y1="210" x2="112" y2="210" stroke="#e8dcc8" stroke-width="1.5" stroke-linecap="square"/>
  <line x1="126" y1="210" x2="126" y2="224" stroke="#e8dcc8" stroke-width="1.5" stroke-linecap="square"/>
  <line x1="140" y1="210" x2="154" y2="210" stroke="#e8dcc8" stroke-width="1.5" stroke-linecap="square"/>
  <line x1="182" y1="210" x2="182" y2="224" stroke="#e8dcc8" stroke-width="1.5" stroke-linecap="square"/>
  <line x1="196" y1="210" x2="210" y2="210" stroke="#e8dcc8" stroke-width="1.5" stroke-linecap="square"/>
  <line x1="14" y1="224" x2="28" y2="224" stroke="#e8dcc8" stroke-width="1.5" stroke-linecap="square"/>
  <line x1="28" y1="224" x2="42" y2="224" stroke="#e8dcc8" stroke-width="1.5" stroke-linecap="square"/>
  <line x1="42" y1="224" x2="56" y2="224" stroke="#e8dcc8" stroke-width="1.5" stroke-linecap="square"/>
  <line x1="56" y1="224" x2="70" y2="224" stroke="#e8dcc8" stroke-width="1.5" stroke-linecap="square"/>
  <line x1="70" y1="224" x2="84" y2="224" stroke="#e8dcc8" stroke-width="1.5" stroke-linecap="square"/>
  <line x1="84" y1="224" x2="98" y2="224" stroke="#e8dcc8" stroke-width="1.5" stroke-linecap="square"/>
  <line x1="98" y1="224" x2="112" y2="224" stroke="#e8dcc8" stroke-width="1.5" stroke-linecap="square"/>
  <line x1="112" y1="224" x2="126" y2="224" stroke="#e8dcc8" stroke-width="1.5" stroke-linecap="square"/>
  <line x1="126" y1="224" x2="140" y2="224" stroke="#e8dcc8" stroke-width="1.5" stroke-linecap="square"/>
  <line x1="140" y1="224" x2="154" y2="224" stroke="#e8dcc8" stroke-width="1.5" stroke-linecap="square"/>
  <line x1="154" y1="224" x2="168" y2="224" stroke="#e8dcc8" stroke-width="1.5" stroke-linecap="square"/>
  <line x1="168" y1="224" x2="182" y2="224" stroke="#e8dcc8" stroke-width="1.5" stroke-linecap="square"/>
  <line x1="182" y1="224" x2="196" y2="224" stroke="#e8dcc8" stroke-width="1.5" stroke-linecap="square"/>
  <line x1="196" y1="224" x2="210" y2="224" stroke="#e8dcc8" stroke-width="1.5" stroke-linecap="square"/>
  <line x1="224" y1="14" x2="224" y2="224" stroke="#e8dcc8" stroke-width="1.5" stroke-linecap="square"/>
</svg>