<?xml version="1.0" encoding="UTF-8"?>
<svg xmlns="http://www.w3.org/2000/svg" viewBox="0 0 300 300" width="300" height="300">
<rect width="300" height="300" fill="#0a0a14"/>
<circle cx="137.47" cy="156.87" r="137.47" fill="rgb(245,240,200)"/>
<circle cx="258.63" cy="278.17" r="21.83" fill="rgb(232,163,38)"/>
<circle cx="272.85" cy="36.28" r="27.15" fill="rgb(234,172,58)"/>
<circle cx="33.32" cy="31.70" r="25.36" fill="rgb(234,169,52)"/>
<circle cx="39.09" cy="282.08" r="17.92" fill="rgb(218,153,35)"/>
<circle cx="272.35" cy="238.27" r="20.07" fill="rgb(231,159,32)"/>
<circle cx="277.79" cy="87.33" r="19.14" fill="rgb(225,157,33)"/>
<circle cx="221.22" cy="19.74" r="19.74" fill="rgb(229,159,33)"/>
<circle cx="79.93" cy="18.81" r="12.10" fill="rgb(173,133,45)"/>
<circle cx="20.26" cy="248.16" r="11.10" fill="rgb(163,128,47)"/>
<circle cx="288.95" cy="134.85" r="11.05" fill="rgb(162,128,47)"/>
<circle cx="284.71" cy="205.59" r="14.87" fill="rgb(196,144,40)"/>
<circle cx="287.55" cy="179.35" r="11.52" fill="rgb(167,130,46)"/>
<circle cx="203.46" cy="286.87" r="8.32" fill="rgb(130,113,54)"/>
<circle cx="179.69" cy="9.66" r="9.66" fill="rgb(147,121,50)"/>
<circle cx="163.23" cy="14.52" r="7.19" fill="rgb(113,105,58)"/>
<circle cx="8.81" cy="288.02" r="8.81" fill="rgb(136,116,53)"/>
<circle cx="10.31" cy="267.71" r="10.31" fill="rgb(154,124,49)"/>
<circle cx="107.55" cy="11.58" r="10.86" fill="rgb(160,127,47)"/>
<circle cx="149.60" cy="6.67" r="6.67" fill="rgb(105,101,59)"/>
<circle cx="17.45" cy="69.39" r="11.05" fill="rgb(162,128,47)"/>
<circle cx="8.28" cy="225.32" r="8.28" fill="rgb(129,113,54)"/>
<circle cx="291.46" cy="258.63" r="7.85" fill="rgb(123,110,55)"/>
<circle cx="285.23" cy="115.23" r="8.92" fill="rgb(138,117,52)"/>
<circle cx="258.59" cy="67.75" r="7.40" fill="rgb(116,107,57)"/>
<circle cx="232.77" cy="292.20" r="7.59" fill="rgb(119,108,56)"/>
<circle cx="290.75" cy="288.48" r="9.25" fill="rgb(142,118,51)"/>
<circle cx="228.15" cy="271.09" r="8.38" fill="rgb(131,113,54)"/>
<circle cx="79.27" cy="291.92" r="8.08" fill="rgb(126,111,55)"/>
<circle cx="238.67" cy="40.05" r="7.03" fill="rgb(111,104,58)"/>
<circle cx="193.96" cy="22.36" r="7.64" fill="rgb(120,108,56)"/>
<circle cx="133.74" cy="13.55" r="5.90" fill="rgb(90,95,62)"/>
<circle cx="7.63" cy="83.11" r="5.82" fill="rgb(89,94,63)"/>
<circle cx="237.81" cy="260.65" r="5.38" fill="rgb(80,90,65)"/>
<circle cx="38.94" cy="258.01" r="3.73" fill="rgb(38,71,74)"/>
<circle cx="293.95" cy="62.21" r="6.05" fill="rgb(93,96,62)"/>
<circle cx="288.32" cy="160.81" r="7.04" fill="rgb(111,104,58)"/>
<circle cx="91.84" cy="7.75" r="4.15" fill="rgb(50,76,71)"/>
<circle cx="5.50" cy="236.95" r="3.68" fill="rgb(36,70,74)"/>
<circle cx="224.48" cy="284.98" r="3.41" fill="rgb(28,66,76)"/>
<circle cx="293.55" cy="8.24" r="6.45" fill="rgb(101,99,60)"/>
<circle cx="107.94" cy="295.65" r="4.35" fill="rgb(55,79,70)"/>
<circle cx="60.21" cy="295.44" r="4.56" fill="rgb(61,81,69)"/>
<circle cx="62.90" cy="21.45" r="5.13" fill="rgb(74,87,66)"/>
<circle cx="66.07" cy="283.57" r="7.54" fill="rgb(119,108,56)"/>
<circle cx="212.04" cy="277.19" r="4.09" fill="rgb(48,75,71)"/>
<circle cx="278.49" cy="145.78" r="3.99" fill="rgb(46,74,72)"/>
<circle cx="25.04" cy="265.66" r="3.69" fill="rgb(37,70,74)"/>
<circle cx="241.38" cy="53.77" r="6.96" fill="rgb(109,103,58)"/>
<circle cx="8.47" cy="47.24" r="3.94" fill="rgb(44,73,72)"/>
<circle cx="221.93" cy="293.77" r="3.36" fill="rgb(26,65,76)"/>
<circle cx="5.37" cy="103.23" r="5.10" fill="rgb(74,87,66)"/>
<circle cx="58.20" cy="8.62" r="8.53" fill="rgb(133,114,53)"/>
<circle cx="250.28" cy="7.46" r="7.46" fill="rgb(117,107,57)"/>
<circle cx="4.18" cy="31.60" r="3.78" fill="rgb(39,71,73)"/>
<circle cx="96.37" cy="294.28" r="5.72" fill="rgb(87,93,63)"/>
<circle cx="246.92" cy="250.99" r="6.90" fill="rgb(108,103,59)"/>
<circle cx="6.46" cy="212.30" r="4.79" fill="rgb(67,84,68)"/>
<circle cx="12.61" cy="4.28" r="4.28" fill="rgb(54,78,70)"/>
<circle cx="6.35" cy="13.79" r="6.35" fill="rgb(99,99,61)"/>
<circle cx="216.31" cy="283.70" r="3.69" fill="rgb(37,70,74)"/>
</svg>