<svg xmlns="http://www.w3.org/2000/svg" viewBox="0 0 200 200" width="200" height="200">
  <rect width="200" height="200" fill="#f5f0e8"/>
  <path d="
    M25,0 A25,25 0 0,1 0,25
    M25,50 A25,25 0 0,1 50,25
    M75,0 A25,25 0 0,0 100,25
    M50,25 A25,25 0 0,1 75,50
    M125,0 A25,25 0 0,0 150,25
    M100,25 A25,25 0 0,1 125,50
    M175,0 A25,25 0 0,1 150,25
    M175,50 A25,25 0 0,1 200,25
    M25,50 A25,25 0 0,0 50,75
    M0,75 A25,25 0 0,1 25,100
    M75,50 A25,25 0 0,1 50,75
    M75,100 A25,25 0 0,1 100,75
    M125,50 A25,25 0 0,1 100,75
    M125,100 A25,25 0 0,1 150,75
    M175,50 A25,25 0 0,0 200,75
    M150,75 A25,25 0 0,1 175,100
    M25,100 A25,25 0 0,0 50,125
    M0,125 A25,25 0 0,1 25,150
    M75,100 A25,25 0 0,1 50,125
    M75,150 A25,25 0 0,1 100,125
    M125,100 A25,25 0 0,1 100,125
    M125,150 A25,25 0 0,1 150,125
    M175,100 A25,25 0 0,0 200,125
    M150,125 A25,25 0 0,1 175,150
    M25,150 A25,25 0 0,1 0,175
    M25,200 A25,25 0 0,1 50,175
    M75,150 A25,25 0 0,0 100,175
    M50,175 A25,25 0 0,1 75,200
    M125,150 A25,25 0 0,0 150,175
    M100,175 A25,25 0 0,1 125,200
    M175,150 A25,25 0 0,1 150,175
    M175,200 A25,25 0 0,1 200,175
  " fill="none" stroke="#1a1260" stroke-width="5" stroke-linecap="round"/>
</svg>
