<svg xmlns="http://www.w3.org/2000/svg" viewBox="0 0 288 66" width="288" height="66">
<rect width="288" height="66" fill="#0a0a12"/>
<rect x="150" y="6" width="5" height="5" fill="#c8a96e"/>
<rect x="138" y="12" width="5" height="5" fill="#c8a96e"/>
<rect x="150" y="12" width="5" height="5" fill="#c8a96e"/>
<rect x="78" y="18" width="5" height="5" fill="#c8a96e"/>
<rect x="84" y="18" width="5" height="5" fill="#c8a96e"/>
<rect x="126" y="18" width="5" height="5" fill="#c8a96e"/>
<rect x="132" y="18" width="5" height="5" fill="#c8a96e"/>
<rect x="210" y="18" width="5" height="5" fill="#c8a96e"/>
<rect x="216" y="18" width="5" height="5" fill="#c8a96e"/>
<rect x="72" y="24" width="5" height="5" fill="#c8a96e"/>
<rect x="96" y="24" width="5" height="5" fill="#c8a96e"/>
<rect x="126" y="24" width="5" height="5" fill="#c8a96e"/>
<rect x="132" y="24" width="5" height="5" fill="#c8a96e"/>
<rect x="210" y="24" width="5" height="5" fill="#c8a96e"/>
<rect x="216" y="24" width="5" height="5" fill="#c8a96e"/>
<rect x="6" y="30" width="5" height="5" fill="#c8a96e"/>
<rect x="12" y="30" width="5" height="5" fill="#c8a96e"/>
<rect x="66" y="30" width="5" height="5" fill="#c8a96e"/>
<rect x="102" y="30" width="5" height="5" fill="#c8a96e"/>
<rect x="126" y="30" width="5" height="5" fill="#c8a96e"/>
<rect x="132" y="30" width="5" height="5" fill="#c8a96e"/>
<rect x="6" y="36" width="5" height="5" fill="#c8a96e"/>
<rect x="12" y="36" width="5" height="5" fill="#c8a96e"/>
<rect x="66" y="36" width="5" height="5" fill="#c8a96e"/>
<rect x="90" y="36" width="5" height="5" fill="#c8a96e"/>
<rect x="102" y="36" width="5" height="5" fill="#c8a96e"/>
<rect x="108" y="36" width="5" height="5" fill="#c8a96e"/>
<rect x="138" y="36" width="5" height="5" fill="#c8a96e"/>
<rect x="150" y="36" width="5" height="5" fill="#c8a96e"/>
<rect x="66" y="42" width="5" height="5" fill="#c8a96e"/>
<rect x="102" y="42" width="5" height="5" fill="#c8a96e"/>
<rect x="150" y="42" width="5" height="5" fill="#c8a96e"/>
<rect x="72" y="48" width="5" height="5" fill="#c8a96e"/>
<rect x="96" y="48" width="5" height="5" fill="#c8a96e"/>
<rect x="78" y="54" width="5" height="5" fill="#c8a96e"/>
<rect x="84" y="54" width="5" height="5" fill="#c8a96e"/>
<rect x="240" y="12" width="5" height="5" fill="#e8d070"/>
<rect x="246" y="18" width="5" height="5" fill="#e8d070"/>
<rect x="234" y="24" width="5" height="5" fill="#e8d070"/>
<rect x="240" y="24" width="5" height="5" fill="#e8d070"/>
<rect x="246" y="24" width="5" height="5" fill="#e8d070"/>
<rect x="270" y="36" width="5" height="5" fill="#e8d070"/>
<rect x="276" y="42" width="5" height="5" fill="#e8d070"/>
<rect x="264" y="48" width="5" height="5" fill="#e8d070"/>
<rect x="270" y="48" width="5" height="5" fill="#e8d070"/>
<rect x="276" y="48" width="5" height="5" fill="#e8d070"/>
</svg>