<svg xmlns="http://www.w3.org/2000/svg" width="480" height="480" viewBox="0 0 480 480">
<rect width="480" height="480" fill="#08080f"/>
<path d="M 343.1,240.0 L 354.2,248.6 L 364.9,257.2 L 375.2,265.7 L 385.0,274.3 L 394.2,282.7 L 402.9,291.1 L 411.1,299.4 L 418.6,307.6 L 425.4,315.7 L 431.6,323.7 L 437.1,331.6 L 441.9,339.3 L 446.0,346.8 L 449.3,354.2 L 451.9,361.4 L 453.7,368.4 L 454.7,375.2 L 455.0,381.8 L 454.5,388.1 L 453.2,394.2 L 451.2,400.1 L 448.4,405.7 L 444.8,411.1 L 440.5,416.1 L 435.5,420.9 L 429.8,425.4 L 423.4,429.6 L 416.3,433.5 L 408.6,437.1 L 400.3,440.4 L 391.4,443.3 L 382.0,446.0 L 372.1,448.3 L 361.7,450.2 L 350.8,451.9 L 339.6,453.2 L 328.0,454.1 L 316.1,454.7 L 303.9,455.0 L 291.4,454.9 L 278.8,454.5 L 266.1,453.7 L 253.2,452.6 L 240.3,451.2 L 227.4,449.4 L 214.6,447.3 L 201.8,444.8 L 189.2,442.0 L 176.8,438.9 L 164.6,435.5 L 152.6,431.8 L 141.0,427.7 L 129.8,423.4 L 118.9,418.7 L 108.5,413.8 L 98.5,408.6 L 89.0,403.2 L 80.1,397.4 L 71.8,391.4 L 64.1,385.2 L 57.0,378.8 L 50.5,372.1 L 44.8,365.2 L 39.7,358.1 L 35.4,350.8 L 31.8,343.4 L 29.0,335.8 L 26.9,328.0 L 25.6,320.1 L 25.0,312.0 L 25.2,303.9 L 26.2,295.6 L 28.0,287.3 L 30.5,278.8 L 33.8,270.3 L 37.9,261.8 L 42.6,253.2 L 48.1,244.6 L 54.2,236.0 L 61.1,227.4 L 68.5,218.9 L 76.6,210.3 L 85.3,201.8 L 94.5,193.4 L 104.3,185.1 L 114.5,176.8 L 125.2,168.6 L 136.3,160.6 L 147.8,152.6 L 159.6,144.9 L 171.7,137.2 L 184.1,129.8 L 196.6,122.5 L 209.3,115.4 L 222.1,108.5 L 235.0,101.8 L 247.9,95.3 L 260.8,89.0 L 273.6,83.0 L 286.3,77.3 L 298.8,71.8 L 311.1,66.6 L 323.1,61.6 L 334.8,57.0 L 346.2,52.6 L 357.3,48.5 L 367.8,44.8 L 378.0,41.3 L 387.6,38.2 L 396.7,35.4 L 405.3,32.9 L 413.2,30.8 L 420.5,29.0 L 427.2,27.5 L 433.2,26.4 L 438.5,25.6 L 443.1,25.1 L 447.0,25.0 L 450.1,25.2 L 452.5,25.8 L 454.1,26.7 L 454.9,28.0 L 454.9,29.6 L 454.2,31.6 L 452.7,33.8 L 450.5,36.4 L 447.4,39.4 L 443.7,42.6 L 439.2,46.2 L 434.0,50.1 L 428.1,54.2 L 421.5,58.7 L 414.2,63.5 L 406.4,68.5 L 397.9,73.9 L 388.9,79.4 L 379.3,85.3 L 369.2,91.4 L 358.7,97.7 L 347.7,104.3 L 336.4,111.1 L 324.7,118.0 L 312.7,125.2 L 300.4,132.6 L 287.9,140.1 L 275.3,147.8 L 262.5,155.6 L 249.6,163.6 L 236.7,171.7 L 223.8,179.9 L 211.0,188.2 L 198.3,196.6 L 185.7,205.1 L 173.3,213.6 L 161.2,222.1 L 149.4,230.7 L 137.8,239.3 L 126.7,247.9 L 115.9,256.5 L 105.6,265.1 L 95.8,273.6 L 86.5,282.0 L 77.7,290.4 L 69.6,298.8 L 62.0,307.0 L 55.1,315.1 L 48.9,323.1 L 43.3,331.0 L 38.4,338.7 L 34.3,346.2 L 30.9,353.6 L 28.3,360.8 L 26.4,367.8 L 25.3,374.7 L 25.0,381.3 L 25.4,387.6 L 26.7,393.8 L 28.6,399.6 L 31.4,405.3 L 34.9,410.6 L 39.1,415.7 L 44.1,420.5 L 49.7,425.1 L 56.1,429.3 L 63.1,433.2 L 70.7,436.8 L 79.0,440.1 L 87.8,443.1 L 97.2,445.8 L 107.1,448.1 L 117.5,450.1 L 128.3,451.8 L 139.5,453.1 L 151.1,454.1 L 163.0,454.7 L 175.2,455.0 L 187.6,454.9 L 200.2,454.5 L 212.9,453.8 L 225.7,452.7 L 238.6,451.3 L 251.5,449.5 L 264.4,447.4 L 277.1,445.0 L 289.8,442.3 L 302.2,439.2 L 314.5,435.8 L 326.4,432.1 L 338.1,428.1 L 349.4,423.7 L 360.3,419.1 L 370.7,414.2 L 380.7,409.1 L 390.2,403.6 L 399.2,397.9 L 407.6,391.9 L 415.3,385.7 L 422.5,379.3 L 429.0,372.6 L 434.8,365.8 L 439.9,358.7 L 444.3,351.4 L 447.9,344.0 L 450.8,336.4 L 453.0,328.6 L 454.4,320.7 L 455.0,312.7 L 454.8,304.5 L 453.9,296.3 L 452.2,287.9 L 449.7,279.5 L 446.5,271.0 L 442.5,262.5 L 437.8,253.9 L 432.4,245.3 L 426.3,236.7 L 419.5,228.1 L 412.1,219.6 L 404.0,211.0 L 395.4,202.5 L 386.2,194.1 L 376.5,185.7 L 366.3,177.4 L 355.7,169.3 L 344.6,161.2 L 333.1,153.3 L 321.3,145.5 L 309.3,137.8 L 296.9,130.3 L 284.4,123.0 L 271.7,115.9 L 258.9,109.0 L 246.0,102.3 L 233.1,95.8 L 220.2,89.5 L 207.4,83.5 L 194.8,77.7 L 182.2,72.2 L 169.9,67.0 L 157.9,62.0 L 146.1,57.3 L 134.7,52.9 L 123.6,48.9 L 113.0,45.1 L 102.8,41.6 L 93.1,38.4 L 84.0,35.6 L 75.4,33.1 L 67.4,30.9 L 60.0,29.1 L 53.3,27.6 L 47.2,26.4 L 41.9,25.6 L 37.2,25.1 L 33.3,25.0 L 30.1,25.2 L 27.7,25.8 L 26.0,26.7 L 25.2,27.9 L 25.0,29.5 L 25.7,31.4 L 27.1,33.6 L 29.3,36.2 L 32.3,39.1 L 36.0,42.3 L 40.4,45.9 L 45.6,49.7 L 51.4,53.9 L 58.0,58.3 L 65.2,63.1 L 73.0,68.1 L 81.4,73.4 L 90.4,79.0 L 99.9,84.8 L 110.0,90.9 L 120.5,97.2 L 131.4,103.7 L 142.7,110.5 L 154.4,117.5 L 166.4,124.6 L 178.6,132.0 L 191.1,139.5 L 203.7,147.2 L 216.5,155.0 L 229.3,163.0 L 242.2,171.1 L 255.1,179.3 L 268.0,187.6 L 280.7,195.9 L 293.3,204.4 L 305.7,212.9 L 317.8,221.5 L 329.7,230.0 L 341.3,238.6 L 352.5,247.2 L 363.2,255.8 L 373.6,264.4 L 383.4,272.9 L 392.8,281.4 L 401.6,289.8 L 409.8,298.1 L 417.4,306.3 L 424.4,314.5 L 430.7,322.5 L 436.3,330.3 L 441.2,338.1 L 445.4,345.6 L 448.8,353.0 L 451.5,360.3 L 453.4,367.3 L 454.6,374.1 L 455.0,380.7 L 454.6,387.1 L 453.5,393.3 L 451.5,399.2 L 448.9,404.8 L 445.4,410.2 L 441.2,415.3 L 436.3,420.2 L 430.7,424.7 L 424.4,429.0 L 417.5,432.9 L 409.9,436.6 L 401.7,439.9 L 392.9,442.9 L 383.6,445.6 L 373.7,447.9 L 363.4,450.0 L 352.6,451.6 L 341.4,453.0 L 329.9,454.0 L 318.0,454.6 L 305.8,455.0 L 293.4,454.9 L 280.8,454.6 L 268.1,453.9 L 255.3,452.8 L 242.4,451.4 L 229.5,449.7 L 216.6,447.6 L 203.9,445.2 L 191.2,442.5 L 178.8,439.4 L 166.5,436.1 L 154.5,432.4 L 142.8,428.4 L 131.5,424.1 L 120.6,419.5 L 110.1,414.6 L 100.0,409.5 L 90.5,404.0 L 81.5,398.4 L 73.1,392.4 L 65.3,386.2 L 58.1,379.8 L 51.5,373.2 L 45.7,366.3 L 40.5,359.3 L 36.0,352.0 L 32.3,344.6 L 29.4,337.0 L 27.2,329.2 L 25.7,321.3 L 25.1,313.3 L 25.2,305.2 L 26.0,296.9 L 27.7,288.6 L 30.1,280.2 L 33.3,271.7 L 37.2,263.2 L 41.8,254.6 L 47.2,246.0 L 53.2,237.4 L 59.9,228.8 L 67.3,220.2 L 75.3,211.7 L 83.9,203.2 L 93.0,194.8 L 102.7,186.4 L 112.9,178.1 L 123.5,169.9 L 134.5,161.8 L 146.0,153.9 L 157.7,146.1 L 169.8,138.4 L 182.1,130.9 L 194.6,123.6 L 207.3,116.5 L 220.1,109.5 L 233.0,102.8 L 245.9,96.3 L 258.7,90.0 L 271.5,84.0 L 284.2,78.2 L 296.8,72.7 L 309.1,67.4 L 321.2,62.4 L 333.0,57.7 L 344.4,53.3 L 355.5,49.2 L 366.2,45.4 L 376.4,41.9 L 386.1,38.7 L 395.3,35.8 L 404.0,33.3 L 412.0,31.1 L 419.4,29.2 L 426.2,27.7 L 432.3,26.5 L 437.7,25.7 L 442.4,25.2 L 446.4,25.0 L 449.7,25.2 L 452.1,25.7 L 453.8,26.6 L 454.8,27.8 L 455.0,29.3 L 454.4,31.2 L 453.0,33.4 L 450.9,36.0 L 448.0,38.9 L 444.3,42.1 L 439.9,45.6 L 434.8,49.4 L 429.0,53.6 L 422.6,58.0 L 415.4,62.7 L 407.7,67.7 L 399.3,73.0 L 390.3,78.5 L 380.8,84.3 L 370.9,90.4 L 360.4,96.7 L 349.5,103.2 L 338.2,110.0 L 326.6,116.9 L 314.6,124.1 L 302.4,131.4 L 289.9,138.9 L 277.3,146.6 L 264.5,154.4 L 251.7,162.3 L 238.8,170.4 L 225.9,178.6 L 213.1,186.9 L 200.3,195.3 L 187.7,203.7 L 175.3,212.2 L 163.1,220.8 L 151.2,229.3 L 139.6,237.9 L 128.4,246.5 L 117.6,255.1 L 107.2,263.7 L 97.3,272.2 L 87.9,280.7 L 79.1,289.1 L 70.8,297.4 L 63.2,305.7 L 56.2,313.8 L 49.8,321.8 L 44.1,329.7 L 39.2,337.5 L 34.9,345.0 L 31.4,352.5 L 28.7,359.7 L 26.7,366.7 L 25.5,373.6 L 25.0,380.2 L 25.3,386.6 L 26.4,392.8 L 28.3,398.7 L 30.9,404.4 L 34.3,409.8 L 38.4,414.9 L 43.2,419.8 L 48.8,424.4 L 55.0,428.6 L 61.9,432.6 L 69.5,436.3 L 77.6,439.6 L 86.4,442.7 L 95.7,445.4 L 105.5,447.8 L 115.8,449.8 L 126.5,451.5 L 137.7,452.9 L 149.2,453.9 L 161.1,454.6 L 173.2,455.0 L 185.6,455.0 L 198.1,454.6 L 210.9,453.9 L 223.7,452.9 L 236.6,451.5 L 249.5,449.8 L 262.3,447.8 L 275.1,445.4 L 287.8,442.7 L 300.3,439.7 L 312.5,436.3 L 324.5,432.7 L 336.2,428.7 L 347.6,424.4 L 358.6,419.9 L 369.1,415.0 L 379.2,409.9 L 388.8,404.5 L 397.8,398.8 L 406.3,392.9 L 414.1,386.7 L 421.4,380.3 L 428.0,373.7 L 433.9,366.9 L 439.1,359.8 L 443.6,352.6 L 447.4,345.2 L 450.4,337.6 L 452.7,329.9 L 454.2,322.0 L 454.9,314.0 L 454.9,305.8 L 454.1,297.6 L 452.5,289.3 L 450.1,280.8 L 447.0,272.4 L 443.2,263.8 L 438.6,255.3 L 433.3,246.7 L 427.3,238.1 L 420.6,229.5 L 413.3,220.9 L 405.4,212.4 L 396.8,203.9 L 387.7,195.4 L 378.1,187.0 L 368.0,178.8 L 357.4,170.6 L 346.4,162.5 L 335.0,154.5 L 323.2,146.7 L 311.2,139.0 L 298.9,131.5 L 286.4,124.2 L 273.7,117.0 L 260.9,110.1 L 248.1,103.3 L 235.2,96.8 L 222.3,90.5 L 209.5,84.4 L 196.8,78.6 L 184.2,73.1 L 171.9,67.8 L 159.8,62.8 L 147.9,58.1 L 136.5,53.6 L 125.3,49.5 L 114.6,45.7 L 104.4,42.1 L 94.6,38.9 L 85.4,36.0 L 76.7,33.5 L 68.6,31.3 L 61.1,29.4 L 54.3,27.8 L 48.1,26.6 L 42.7,25.7 L 37.9,25.2 L 33.9,25.0 L 30.6,25.2 L 28.0,25.7 L 26.3,26.5 L 25.3,27.7 L 25.0,29.2 L 25.6,31.1 L 26.9,33.3 L 28.9,35.8 L 31.8,38.6 L 35.4,41.8" stroke="hsla(180,80%,70%,0.25)" stroke-width="1.2" fill="none"/>
<path d="M 39.7,45.3 L 44.7,49.1 L 50.5,53.2 L 56.9,57.6 L 64.0,62.3 L 71.7,67.3 L 80.0,72.6 L 88.9,78.1 L 98.4,83.9 L 108.3,89.9 L 118.8,96.2 L 129.6,102.7 L 140.9,109.4 L 152.5,116.4 L 164.4,123.5 L 176.6,130.8 L 189.1,138.3 L 201.7,146.0 L 214.5,153.8 L 227.3,161.7 L 240.2,169.8 L 253.1,178.0 L 265.9,186.2 L 278.7,194.6 L 291.3,203.0 L 303.7,211.5 L 315.9,220.1 L 327.8,228.7 L 339.5,237.3 L 350.7,245.9 L 361.6,254.4 L 372.0,263.0 L 381.9,271.5 L 391.3,280.0 L 400.2,288.4 L 408.5,296.8 L 416.2,305.0 L 423.3,313.2 L 429.7,321.2 L 435.4,329.1 L 440.5,336.8 L 444.8,344.4 L 448.3,351.9 L 451.1,359.1 L 453.2,366.2 L 454.5,373.0 L 455.0,379.7 L 454.7,386.1 L 453.7,392.3 L 451.9,398.3 L 449.3,404.0 L 446.0,409.4 L 442.0,414.5 L 437.2,419.4 L 431.7,424.0 L 425.5,428.3 L 418.6,432.3 L 411.1,436.0 L 403.0,439.4 L 394.3,442.4 L 385.1,445.2 L 375.3,447.6 L 365.0,449.7 L 354.3,451.4 L 343.2,452.8 L 331.7,453.8 L 319.9,454.6 L 307.8,454.9 L 295.4,455.0 L 282.9,454.7 L 270.2,454.0 L 257.3,453.0 L 244.5,451.7 L 231.6,450.0 L 218.7,448.0 L 205.9,445.6 L 193.2,442.9 L 180.7,439.9 L 168.4,436.6 L 156.4,433.0 L 144.7,429.0 L 133.3,424.8 L 122.3,420.3 L 111.7,415.4 L 101.6,410.3 L 92.0,404.9 L 82.9,399.3 L 74.4,393.4 L 66.5,387.2 L 59.2,380.8 L 52.5,374.2 L 46.5,367.4 L 41.3,360.4 L 36.7,353.2 L 32.9,345.8 L 29.8,338.2 L 27.5,330.5 L 25.9,322.6 L 25.1,314.6 L 25.1,306.5 L 25.8,298.2 L 27.4,289.9 L 29.7,281.5 L 32.7,273.1 L 36.5,264.5 L 41.0,256.0 L 46.3,247.4 L 52.2,238.8 L 58.8,230.2 L 66.1,221.6 L 74.0,213.1 L 82.5,204.5 L 91.5,196.1 L 101.1,187.7 L 111.2,179.4 L 121.8,171.2 L 132.7,163.1 L 144.1,155.2 L 155.8,147.3 L 167.8,139.6 L 180.1,132.1 L 192.6,124.8 L 205.3,117.6 L 218.0,110.6 L 230.9,103.9 L 243.8,97.3 L 256.7,91.0 L 269.5,84.9 L 282.2,79.1 L 294.8,73.5 L 307.2,68.2 L 319.3,63.2 L 331.1,58.4 L 342.6,54.0 L 353.8,49.8 L 364.5,46.0 L 374.8,42.4 L 384.6,39.2 L 393.9,36.3 L 402.6,33.7 L 410.8,31.4 L 418.3,29.5 L 425.2,27.9 L 431.4,26.7 L 436.9,25.8 L 441.7,25.2 L 445.8,25.0 L 449.2,25.1 L 451.8,25.6 L 453.6,26.4 L 454.7,27.6 L 455.0,29.1 L 454.5,30.9 L 453.3,33.1 L 451.3,35.6 L 448.5,38.4 L 445.0,41.5 L 440.7,45.0 L 435.7,48.8 L 430.0,52.9 L 423.6,57.3 L 416.6,61.9 L 408.9,66.9 L 400.7,72.1 L 391.8,77.6 L 382.4,83.4 L 372.5,89.4 L 362.1,95.7 L 351.3,102.2 L 340.0,108.9 L 328.4,115.8 L 316.5,122.9 L 304.3,130.2 L 291.9,137.7 L 279.3,145.3 L 266.6,153.1 L 253.7,161.1 L 240.8,169.1 L 227.9,177.3 L 215.1,185.6 L 202.3,193.9 L 189.7,202.4 L 177.3,210.9 L 165.0,219.4 L 153.1,228.0 L 141.5,236.6 L 130.2,245.2 L 119.3,253.8 L 108.8,262.3 L 98.9,270.9 L 89.4,279.4 L 80.5,287.8 L 72.1,296.1 L 64.4,304.4 L 57.2,312.5 L 50.8,320.6 L 45.0,328.5 L 39.9,336.2 L 35.6,343.8 L 31.9,351.3 L 29.1,358.6 L 26.9,365.6 L 25.6,372.5 L 25.0,379.2 L 25.2,385.6 L 26.2,391.8 L 27.9,397.8 L 30.4,403.5 L 33.7,409.0 L 37.7,414.1 L 42.4,419.0 L 47.9,423.7 L 54.0,428.0 L 60.8,432.0 L 68.2,435.7 L 76.3,439.1 L 84.9,442.2 L 94.2,445.0 L 103.9,447.4 L 114.1,449.5 L 124.8,451.3 L 135.9,452.7 L 147.4,453.8 L 159.2,454.5 L 171.3,454.9 L 183.6,455.0 L 196.1,454.7 L 208.8,454.1 L 221.6,453.1 L 234.5,451.8 L 247.4,450.1 L 260.3,448.1 L 273.1,445.8 L 285.8,443.2 L 298.3,440.2 L 310.6,436.9 L 322.6,433.3 L 334.4,429.4 L 345.8,425.1 L 356.8,420.6 L 367.4,415.8 L 377.6,410.7 L 387.3,405.4 L 396.4,399.7 L 405.0,393.9 L 412.9,387.7 L 420.3,381.4 L 427.0,374.8 L 433.0,368.0 L 438.3,361.0 L 443.0,353.8 L 446.8,346.4 L 450.0,338.8 L 452.4,331.1 L 454.0,323.2 L 454.9,315.2 L 454.9,307.1 L 454.2,298.9 L 452.8,290.6 L 450.6,282.2 L 447.6,273.7 L 443.8,265.2 L 439.4,256.6 L 434.2,248.1 L 428.3,239.5 L 421.7,230.9 L 414.5,222.3 L 406.7,213.7 L 398.2,205.2 L 389.2,196.8 L 379.7,188.4 L 369.6,180.1 L 359.1,171.9 L 348.1,163.8 L 336.8,155.8 L 325.1,147.9 L 313.1,140.2 L 300.9,132.7 L 288.4,125.3 L 275.8,118.2 L 263.0,111.2 L 250.1,104.4 L 237.2,97.8 L 224.3,91.5 L 211.5,85.4 L 198.8,79.5 L 186.2,74.0 L 173.8,68.6 L 161.7,63.6 L 149.8,58.8 L 138.3,54.3 L 127.1,50.1 L 116.3,46.2 L 106.0,42.7 L 96.2,39.4 L 86.8,36.5 L 78.1,33.9 L 69.9,31.6 L 62.3,29.6 L 55.4,28.0 L 49.1,26.8 L 43.5,25.8 L 38.6,25.3 L 34.5,25.0 L 31.1,25.1 L 28.4,25.6 L 26.5,26.3 L 25.4,27.5 L 25.0,28.9 L 25.4,30.7 L 26.6,32.9 L 28.6,35.4 L 31.3,38.2 L 34.7,41.3 L 38.9,44.7 L 43.9,48.5 L 49.5,52.5 L 55.8,56.9 L 62.8,61.5 L 70.4,66.5 L 78.7,71.7 L 87.5,77.2 L 96.8,82.9 L 106.7,88.9 L 117.1,95.2 L 127.9,101.6 L 139.1,108.3 L 150.6,115.2 L 162.5,122.3 L 174.7,129.6 L 187.1,137.1 L 199.7,144.7 L 212.4,152.5 L 225.2,160.4 L 238.1,168.5 L 251.0,176.6 L 263.9,184.9 L 276.7,193.3 L 289.3,201.7 L 301.8,210.2 L 314.0,218.7 L 326.0,227.3 L 337.6,235.9 L 348.9,244.5 L 359.9,253.1 L 370.3,261.7 L 380.4,270.2 L 389.9,278.7 L 398.8,287.1 L 407.3,295.5 L 415.1,303.7 L 422.2,311.9 L 428.7,319.9 L 434.6,327.8 L 439.7,335.6 L 444.1,343.2 L 447.8,350.7 L 450.7,358.0 L 452.9,365.1 L 454.3,372.0 L 455.0,378.7 L 454.8,385.1 L 453.9,391.3 L 452.2,397.3 L 449.8,403.1 L 446.6,408.5 L 442.7,413.7 L 438.0,418.7 L 432.6,423.3 L 426.5,427.6 L 419.8,431.7 L 412.4,435.4 L 404.4,438.9 L 395.8,442.0 L 386.6,444.8 L 376.9,447.2 L 366.7,449.3 L 356.1,451.1 L 345.0,452.6 L 333.6,453.7 L 321.8,454.5 L 309.7,454.9 L 297.4,455.0 L 284.9,454.7 L 272.2,454.1 L 259.4,453.2 L 246.5,451.9 L 233.6,450.3 L 220.7,448.3 L 207.9,446.0 L 195.2,443.4 L 182.7,440.4 L 170.4,437.2 L 158.3,433.6 L 146.5,429.7 L 135.1,425.5 L 124.0,421.0 L 113.4,416.2 L 103.2,411.1 L 93.5,405.8 L 84.3,400.2 L 75.7,394.3 L 67.7,388.2 L 60.3,381.9 L 53.5,375.3 L 47.4,368.5 L 42.1,361.5 L 37.4,354.3 L 33.4,347.0 L 30.2,339.4 L 27.8,331.7 L 26.1,323.9 L 25.2,315.9 L 25.0,307.8 L 25.7,299.6 L 27.1,291.3 L 29.2,282.9 L 32.2,274.4 L 35.8,265.9 L 40.3,257.3 L 45.4,248.7 L 51.2,240.2 L 57.7,231.6 L 64.9,223.0 L 72.7,214.4 L 81.1,205.9 L 90.0,197.4 L 99.6,189.0 L 109.6,180.7 L 120.1,172.5 L 131.0,164.4 L 142.3,156.4 L 153.9,148.6 L 165.9,140.9 L 178.1,133.3 L 190.6,125.9 L 203.2,118.7 L 216.0,111.7 L 228.9,104.9 L 241.8,98.3 L 254.6,92.0 L 267.5,85.9 L 280.2,80.0 L 292.8,74.4 L 305.2,69.0 L 317.4,64.0 L 329.3,59.2 L 340.8,54.7 L 352.0,50.5 L 362.8,46.5 L 373.2,42.9 L 383.1,39.7 L 392.4,36.7 L 401.3,34.1 L 409.5,31.8 L 417.1,29.8 L 424.1,28.2 L 430.4,26.9 L 436.1,25.9 L 441.0,25.3 L 445.2,25.0 L 448.7,25.1 L 451.4,25.5 L 453.4,26.3 L 454.6,27.4 L 455.0,28.8 L 454.6,30.6 L 453.5,32.7 L 451.6,35.2 L 449.0,37.9 L 445.6,41.0 L 441.4,44.4 L 436.5,48.2 L 431.0,52.2 L 424.7,56.5 L 417.8,61.2 L 410.2,66.1 L 402.0,71.3 L 393.2,76.7 L 383.9,82.5 L 374.1,88.4 L 363.8,94.7 L 353.0,101.1 L 341.8,107.8 L 330.3,114.7 L 318.4,121.8 L 306.3,129.0 L 293.9,136.5 L 281.3,144.1 L 268.6,151.9 L 255.8,159.8 L 242.9,167.8 L 230.0,176.0 L 217.1,184.3 L 204.4,192.6 L 191.7,201.0 L 179.2,209.5 L 167.0,218.0 L 155.0,226.6 L 143.3,235.2 L 132.0,243.8 L 121.0,252.4 L 110.5,261.0 L 100.4,269.5 L 90.9,278.0 L 81.8,286.4 L 73.4,294.8 L 65.5,303.1 L 58.3,311.2 L 51.8,319.3 L 45.9,327.2 L 40.7,335.0 L 36.2,342.6 L 32.5,350.1 L 29.5,357.4 L 27.2,364.5 L 25.8,371.4 L 25.1,378.1 L 25.1,384.6 L 26.0,390.9 L 27.6,396.9 L 30.0,402.6 L 33.1,408.1 L 37.0,413.3 L 41.6,418.3 L 46.9,422.9 L 53.0,427.3 L 59.7,431.4 L 67.0,435.1 L 75.0,438.6 L 83.5,441.7 L 92.7,444.5 L 102.3,447.0 L 112.5,449.2 L 123.1,451.0 L 134.1,452.5 L 145.5,453.6 L 157.3,454.4 L 169.3,454.9 L 181.6,455.0 L 194.1,454.8 L 206.8,454.2 L 219.6,453.3 L 232.5,452.0 L 245.4,450.4 L 258.2,448.5 L 271.1,446.2 L 283.8,443.6 L 296.3,440.7 L 308.6,437.4 L 320.7,433.9 L 332.5,430.0 L 344.0,425.8 L 355.1,421.4 L 365.8,416.6 L 376.0,411.6 L 385.8,406.2 L 395.0,400.7 L 403.6,394.8 L 411.7,388.7 L 419.1,382.4 L 426.0,375.8 L 432.1,369.1 L 437.5,362.1 L 442.3,354.9 L 446.3,347.6 L 449.5,340.0 L 452.1,332.3 L 453.8,324.5 L 454.8,316.5 L 455.0,308.4 L 454.4,300.2 L 453.1,291.9 L 451.0,283.5 L 448.1,275.1 L 444.5,266.6 L 440.1,258.0 L 435.1,249.4 L 429.3,240.8 L 422.8,232.2 L 415.7,223.7 L 408.0,215.1 L 399.6,206.6 L 390.7,198.1 L 381.2,189.7 L 371.2,181.4 L 360.8,173.2 L 349.9,165.0 L 338.6,157.0 L 327.0,149.2 L 315.1,141.5 L 302.8,133.9 L 290.4,126.5 L 277.8,119.3 L 265.0,112.3 L 252.2,105.5 L 239.3,98.9 L 226.4,92.5 L 213.5,86.4 L 200.8,80.5" stroke="hsla(206,80%,70%,0.25)" stroke-width="1.2" fill="none"/>
<path d="M 188.2,74.8 L 175.8,69.5 L 163.6,64.4 L 151.7,59.5 L 140.1,55.0 L 128.8,50.8 L 118.0,46.8 L 107.6,43.2 L 97.7,39.9 L 88.3,36.9 L 79.4,34.3 L 71.1,31.9 L 63.5,29.9 L 56.4,28.3 L 50.0,26.9 L 44.3,26.0 L 39.4,25.3 L 35.1,25.0 L 31.5,25.1 L 28.8,25.5 L 26.7,26.2 L 25.5,27.3 L 25.0,28.7 L 25.3,30.4 L 26.4,32.5 L 28.2,34.9 L 30.8,37.7 L 34.1,40.8 L 38.2,44.2 L 43.0,47.9 L 48.6,51.9 L 54.8,56.2 L 61.7,60.8 L 69.2,65.7 L 77.3,70.9 L 86.0,76.3 L 95.3,82.0 L 105.1,88.0 L 115.4,94.2 L 126.1,100.6 L 137.3,107.3 L 148.8,114.1 L 160.6,121.2 L 172.7,128.5 L 185.1,135.9 L 197.7,143.5 L 210.4,151.3 L 223.2,159.2 L 236.1,167.2 L 249.0,175.3 L 261.8,183.6 L 274.6,191.9 L 287.3,200.3 L 299.8,208.8 L 312.1,217.4 L 324.1,225.9 L 335.8,234.5 L 347.2,243.1 L 358.1,251.7 L 368.7,260.3 L 378.8,268.8 L 388.4,277.3 L 397.5,285.8 L 406.0,294.1 L 413.8,302.4 L 421.1,310.6 L 427.7,318.7 L 433.7,326.6 L 438.9,334.4 L 443.5,342.0 L 447.3,349.5 L 450.3,356.8 L 452.6,364.0 L 454.1,370.9 L 454.9,377.6 L 454.9,384.1 L 454.1,390.4 L 452.6,396.4 L 450.2,402.2 L 447.2,407.7 L 443.3,412.9 L 438.8,417.9 L 433.5,422.6 L 427.5,427.0 L 420.9,431.1 L 413.6,434.9 L 405.7,438.3 L 397.2,441.5 L 388.1,444.3 L 378.5,446.8 L 368.4,449.0 L 357.8,450.9 L 346.8,452.4 L 335.4,453.5 L 323.7,454.4 L 311.7,454.9 L 299.4,455.0 L 286.9,454.8 L 274.2,454.2 L 261.4,453.4 L 248.6,452.1 L 235.7,450.6 L 222.8,448.6 L 210.0,446.4 L 197.2,443.8 L 184.7,440.9 L 172.3,437.7 L 160.2,434.2 L 148.4,430.3 L 136.9,426.2 L 125.8,421.7 L 115.0,417.0 L 104.8,412.0 L 95.0,406.7 L 85.7,401.1 L 77.0,395.3 L 68.9,389.2 L 61.4,382.9 L 54.6,376.4 L 48.4,369.6 L 42.9,362.7 L 38.1,355.5 L 34.0,348.1 L 30.7,340.6 L 28.1,333.0 L 26.3,325.1 L 25.3,317.2 L 25.0,309.1 L 25.5,300.9 L 26.8,292.6 L 28.8,284.2 L 31.7,275.8 L 35.2,267.2 L 39.5,258.7 L 44.5,250.1 L 50.2,241.5 L 56.6,232.9 L 63.7,224.3 L 71.4,215.8 L 79.7,207.2 L 88.6,198.8 L 98.0,190.4 L 107.9,182.0 L 118.4,173.8 L 129.2,165.7 L 140.4,157.7 L 152.1,149.8 L 164.0,142.1 L 176.2,134.5 L 188.6,127.1 L 201.2,119.9 L 214.0,112.8 L 226.8,106.0 L 239.7,99.4 L 252.6,93.0 L 265.4,86.8 L 278.2,80.9 L 290.8,75.3 L 303.2,69.9 L 315.5,64.8 L 327.4,59.9 L 339.0,55.4 L 350.3,51.1 L 361.1,47.1 L 371.6,43.5 L 381.5,40.2 L 391.0,37.2 L 399.9,34.5 L 408.2,32.1 L 416.0,30.1 L 423.0,28.4 L 429.5,27.0 L 435.2,26.0 L 440.3,25.4 L 444.6,25.0 L 448.2,25.1 L 451.0,25.4 L 453.1,26.1 L 454.4,27.2 L 455.0,28.6 L 454.8,30.3 L 453.8,32.3 L 452.0,34.7 L 449.4,37.5 L 446.2,40.5 L 442.1,43.9 L 437.4,47.6 L 431.9,51.5 L 425.7,55.8 L 418.9,60.4 L 411.4,65.3 L 403.4,70.4 L 394.7,75.9 L 385.4,81.5 L 375.7,87.5 L 365.4,93.7 L 354.8,100.1 L 343.6,106.7 L 332.2,113.6 L 320.3,120.6 L 308.2,127.9 L 295.9,135.3 L 283.3,142.9 L 270.6,150.6 L 257.8,158.5 L 244.9,166.5 L 232.0,174.7 L 219.2,182.9 L 206.4,191.3 L 193.7,199.7 L 181.2,208.2 L 168.9,216.7 L 156.9,225.2 L 145.1,233.8 L 133.7,242.4 L 122.7,251.0 L 112.1,259.6 L 102.0,268.2 L 92.4,276.7 L 83.2,285.1 L 74.7,293.5 L 66.8,301.8 L 59.4,309.9 L 52.8,318.0 L 46.8,326.0 L 41.5,333.8 L 36.9,341.4 L 33.0,348.9 L 29.9,356.3 L 27.5,363.4 L 25.9,370.3 L 25.1,377.1 L 25.1,383.6 L 25.8,389.9 L 27.3,395.9 L 29.6,401.7 L 32.6,407.3 L 36.3,412.5 L 40.8,417.5 L 46.1,422.2 L 52.0,426.6 L 58.6,430.8 L 65.8,434.6 L 73.7,438.1 L 82.1,441.3 L 91.2,444.1 L 100.7,446.7 L 110.8,448.9 L 121.3,450.7 L 132.3,452.3 L 143.7,453.5 L 155.4,454.3 L 167.4,454.8 L 179.6,455.0 L 192.1,454.8 L 204.8,454.3 L 217.6,453.4 L 230.4,452.2 L 243.3,450.7 L 256.2,448.8 L 269.0,446.6 L 281.7,444.0 L 294.3,441.2 L 306.7,438.0 L 318.8,434.5 L 330.7,430.7 L 342.2,426.5 L 353.4,422.1 L 364.1,417.4 L 374.4,412.4 L 384.2,407.1 L 393.5,401.6 L 402.3,395.8 L 410.5,389.7 L 418.0,383.4 L 424.9,376.9 L 431.2,370.2 L 436.7,363.2 L 441.6,356.1 L 445.7,348.7 L 449.1,341.2 L 451.7,333.6 L 453.6,325.8 L 454.7,317.8 L 455.0,309.7 L 454.6,301.5 L 453.3,293.2 L 451.3,284.9 L 448.6,276.4 L 445.1,267.9 L 440.9,259.4 L 435.9,250.8 L 430.2,242.2 L 423.9,233.6 L 416.9,225.0 L 409.2,216.5 L 401.0,207.9 L 392.1,199.5 L 382.8,191.0 L 372.9,182.7 L 362.5,174.5 L 351.7,166.3 L 340.5,158.3 L 328.9,150.4 L 317.0,142.7 L 304.8,135.1 L 292.4,127.7 L 279.8,120.4 L 267.1,113.4 L 254.2,106.5 L 241.3,99.9 L 228.4,93.5 L 215.6,87.3 L 202.8,81.4 L 190.2,75.7 L 177.7,70.3 L 165.5,65.1 L 153.5,60.3 L 141.9,55.7 L 130.6,51.4 L 119.7,47.4 L 109.2,43.8 L 99.2,40.4 L 89.7,37.4 L 80.8,34.7 L 72.4,32.3 L 64.6,30.2 L 57.5,28.5 L 51.0,27.1 L 45.2,26.1 L 40.1,25.4 L 35.7,25.0 L 32.1,25.0 L 29.2,25.4 L 27.0,26.1 L 25.6,27.1 L 25.0,28.4 L 25.2,30.1 L 26.1,32.2 L 27.9,34.5 L 30.3,37.2 L 33.6,40.3 L 37.5,43.6 L 42.2,47.2 L 47.6,51.2 L 53.7,55.5 L 60.5,60.0 L 67.9,64.9 L 76.0,70.0 L 84.6,75.4 L 93.8,81.1 L 103.5,87.0 L 113.7,93.2 L 124.4,99.6 L 135.5,106.2 L 146.9,113.0 L 158.7,120.1 L 170.8,127.3 L 183.1,134.7 L 195.6,142.3 L 208.3,150.0 L 221.2,157.9 L 234.0,165.9 L 246.9,174.0 L 259.8,182.3 L 272.6,190.6 L 285.3,199.0 L 297.8,207.5 L 310.1,216.0 L 322.2,224.6 L 333.9,233.2 L 345.4,241.8 L 356.4,250.3 L 367.1,258.9 L 377.2,267.5 L 386.9,276.0 L 396.1,284.4 L 404.6,292.8 L 412.6,301.1 L 420.0,309.3 L 426.7,317.4 L 432.8,325.3 L 438.1,333.2 L 442.8,340.8 L 446.7,348.3 L 449.9,355.7 L 452.3,362.8 L 454.0,369.8 L 454.8,376.5 L 455.0,383.1 L 454.3,389.4 L 452.9,395.4 L 450.7,401.3 L 447.7,406.8 L 444.0,412.1 L 439.5,417.1 L 434.4,421.9 L 428.5,426.3 L 422.0,430.4 L 414.8,434.3 L 407.0,437.8 L 398.6,441.0 L 389.6,443.9 L 380.0,446.5 L 370.0,448.7 L 359.5,450.6 L 348.6,452.2 L 337.3,453.4 L 325.6,454.3 L 313.6,454.8 L 301.4,455.0 L 288.9,454.9 L 276.2,454.4 L 263.5,453.5 L 250.6,452.3 L 237.7,450.8 L 224.8,449.0 L 212.0,446.8 L 199.3,444.3 L 186.7,441.4 L 174.3,438.2 L 162.1,434.8 L 150.3,431.0 L 138.7,426.9 L 127.5,422.5 L 116.7,417.8 L 106.4,412.8 L 96.5,407.5 L 87.2,402.0 L 78.4,396.2 L 70.2,390.2 L 62.6,383.9 L 55.6,377.4 L 49.3,370.7 L 43.7,363.8 L 38.8,356.6 L 34.6,349.3 L 31.2,341.8 L 28.5,334.2 L 26.6,326.4 L 25.4,318.4 L 25.0,310.4 L 25.4,302.2 L 26.5,293.9 L 28.5,285.5 L 31.2,277.1 L 34.6,268.6 L 38.8,260.1 L 43.7,251.5 L 49.3,242.9 L 55.6,234.3 L 62.5,225.7 L 70.1,217.1 L 78.3,208.6 L 87.1,200.1 L 96.5,191.7 L 106.3,183.4 L 116.7,175.1 L 127.4,167.0 L 138.6,158.9 L 150.2,151.0 L 162.1,143.3 L 174.2,135.7 L 186.6,128.3 L 199.2,121.0 L 211.9,113.9 L 224.8,107.1 L 237.6,100.4 L 250.5,94.0 L 263.4,87.8 L 276.2,81.8 L 288.8,76.1 L 301.3,70.7 L 313.5,65.5 L 325.5,60.7 L 337.2,56.1 L 348.5,51.8 L 359.4,47.8 L 369.9,44.1 L 380.0,40.7 L 389.5,37.6 L 398.5,34.9 L 406.9,32.5 L 414.8,30.4 L 422.0,28.6 L 428.5,27.2 L 434.4,26.2 L 439.5,25.4 L 444.0,25.1 L 447.7,25.0 L 450.6,25.3 L 452.8,26.0 L 454.3,27.0 L 454.9,28.3 L 454.8,30.0 L 454.0,32.0 L 452.3,34.3 L 449.9,37.0 L 446.7,40.0 L 442.8,43.3 L 438.2,46.9 L 432.8,50.9 L 426.8,55.1 L 420.0,59.7 L 412.7,64.5 L 404.7,69.6 L 396.1,75.0 L 387.0,80.6 L 377.3,86.5 L 367.1,92.7 L 356.5,99.0 L 345.4,105.6 L 334.0,112.5 L 322.2,119.5 L 310.2,126.7 L 297.9,134.1 L 285.4,141.7 L 272.7,149.4 L 259.9,157.3 L 247.0,165.3 L 234.1,173.4 L 221.2,181.6 L 208.4,189.9 L 195.7,198.3 L 183.2,206.8 L 170.9,215.3 L 158.8,223.9 L 147.0,232.5 L 135.5,241.1 L 124.4,249.7 L 113.8,258.2 L 103.6,266.8 L 93.9,275.3 L 84.7,283.8 L 76.0,292.1 L 68.0,300.4 L 60.6,308.6 L 53.8,316.7 L 47.7,324.7 L 42.3,332.5 L 37.5,340.2 L 33.6,347.8 L 30.3,355.1 L 27.9,362.3 L 26.1,369.3 L 25.2,376.0 L 25.0,382.6 L 25.6,388.9 L 27.0,395.0 L 29.1,400.8 L 32.0,406.4 L 35.7,411.7 L 40.1,416.7 L 45.2,421.5 L 51.0,426.0 L 57.5,430.1 L 64.6,434.0 L 72.4,437.5 L 80.7,440.8 L 89.7,443.7 L 99.2,446.3 L 109.2,448.5 L 119.6,450.5 L 130.5,452.1 L 141.8,453.3 L 153.5,454.2 L 165.4,454.8 L 177.7,455.0 L 190.1,454.9 L 202.7,454.4 L 215.5,453.6 L 228.4,452.5 L 241.3,451.0 L 254.1,449.1 L 267.0,447.0 L 279.7,444.5 L 292.3,441.7 L 304.7,438.5 L 316.9,435.1 L 328.8,431.3 L 340.4,427.2 L 351.6,422.8 L 362.4,418.2 L 372.8,413.2 L 382.7,408.0 L 392.1,402.5 L 400.9,396.7 L 409.2,390.7 L 416.8,384.4 L 423.9,378.0 L 430.2,371.2 L 435.9,364.3 L 440.8,357.2 L 445.1,349.9 L 448.6,342.4 L 451.3,334.8 L 453.3,327.0 L 454.5,319.1 L 455.0,311.0 L 454.7,302.8" stroke="hsla(232,80%,70%,0.25)" stroke-width="1.2" fill="none"/>
<path d="M 453.6,294.6 L 451.7,286.2 L 449.1,277.8 L 445.7,269.3 L 441.6,260.7 L 436.7,252.2 L 431.2,243.6 L 425.0,235.0 L 418.0,226.4 L 410.5,217.8 L 402.3,209.3 L 393.6,200.8 L 384.3,192.4 L 374.5,184.0 L 364.2,175.8 L 353.4,167.6 L 342.3,159.6 L 330.7,151.7 L 318.9,143.9 L 306.8,136.3 L 294.4,128.8 L 281.8,121.6 L 269.1,114.5 L 256.3,107.6 L 243.4,100.9 L 230.5,94.5 L 217.6,88.3 L 204.8,82.3 L 192.2,76.6 L 179.7,71.1 L 167.4,65.9 L 155.4,61.0 L 143.7,56.4 L 132.4,52.1 L 121.4,48.1 L 110.9,44.3 L 100.8,40.9 L 91.2,37.8 L 82.2,35.1 L 73.7,32.6 L 65.8,30.5 L 58.6,28.8 L 52.0,27.3 L 46.1,26.2 L 40.9,25.5 L 36.4,25.1 L 32.6,25.0 L 29.6,25.3 L 27.3,25.9 L 25.8,26.9 L 25.1,28.2 L 25.1,29.8 L 25.9,31.8 L 27.5,34.1 L 29.9,36.8 L 33.0,39.8 L 36.8,43.0 L 41.4,46.6 L 46.7,50.6 L 52.7,54.8 L 59.4,59.3 L 66.7,64.1 L 74.7,69.2 L 83.2,74.5 L 92.3,80.2 L 101.9,86.0 L 112.1,92.2 L 122.7,98.5 L 133.7,105.1 L 145.1,111.9 L 156.8,118.9 L 168.8,126.1 L 181.1,133.5 L 193.6,141.1 L 206.3,148.8 L 219.1,156.6 L 232.0,164.6 L 244.9,172.7 L 257.8,181.0 L 270.6,189.3 L 283.3,197.7 L 295.8,206.1 L 308.2,214.6 L 320.3,223.2 L 332.1,231.8 L 343.6,240.4 L 354.7,249.0 L 365.4,257.6 L 375.6,266.1 L 385.4,274.6 L 394.6,283.1 L 403.3,291.5 L 411.4,299.8 L 418.9,308.0 L 425.7,316.1 L 431.9,324.1 L 437.3,331.9 L 442.1,339.6 L 446.1,347.2 L 449.4,354.5 L 452.0,361.7 L 453.7,368.7 L 454.8,375.5 L 455.0,382.1 L 454.4,388.4 L 453.1,394.5 L 451.1,400.4 L 448.2,406.0 L 444.6,411.3 L 440.3,416.3 L 435.3,421.1 L 429.5,425.6 L 423.1,429.8 L 416.0,433.7 L 408.3,437.3 L 399.9,440.5 L 391.0,443.5 L 381.6,446.1 L 371.6,448.4 L 361.2,450.3 L 350.3,451.9 L 339.1,453.2 L 327.5,454.1 L 315.5,454.7 L 303.3,455.0 L 290.9,454.9 L 278.3,454.5 L 265.5,453.7 L 252.7,452.6 L 239.8,451.1 L 226.9,449.3 L 214.0,447.2 L 201.3,444.7 L 188.7,441.9 L 176.2,438.8 L 164.0,435.3 L 152.1,431.6 L 140.5,427.5 L 129.3,423.2 L 118.4,418.5 L 108.0,413.6 L 98.1,408.4 L 88.6,402.9 L 79.7,397.2 L 71.4,391.2 L 63.7,384.9 L 56.7,378.5 L 50.3,371.8 L 44.5,364.9 L 39.5,357.8 L 35.2,350.5 L 31.7,343.0 L 28.9,335.4 L 26.8,327.6 L 25.5,319.7 L 25.0,311.7 L 25.3,303.5 L 26.3,295.2 L 28.1,286.9 L 30.7,278.5 L 34.0,270.0 L 38.1,261.4 L 42.8,252.9 L 48.3,244.3 L 54.5,235.7 L 61.4,227.1 L 68.9,218.5 L 77.0,210.0 L 85.7,201.5 L 94.9,193.0 L 104.7,184.7 L 115.0,176.4 L 125.7,168.3 L 136.8,160.2 L 148.3,152.3 L 160.1,144.5 L 172.3,136.9 L 184.6,129.4 L 197.2,122.1 L 209.9,115.0 L 222.7,108.1 L 235.6,101.5 L 248.5,95.0 L 261.4,88.8 L 274.1,82.8 L 286.8,77.0 L 299.3,71.6 L 311.6,66.4 L 323.6,61.4 L 335.3,56.8 L 346.7,52.4 L 357.7,48.4 L 368.3,44.6 L 378.4,41.2 L 388.0,38.1 L 397.1,35.3 L 405.6,32.8 L 413.6,30.7 L 420.9,28.9 L 427.5,27.4 L 433.5,26.3 L 438.7,25.5 L 443.3,25.1 L 447.1,25.0 L 450.2,25.3 L 452.5,25.9 L 454.1,26.8 L 454.9,28.1 L 454.9,29.7 L 454.2,31.7 L 452.6,33.9 L 450.3,36.6 L 447.3,39.5 L 443.5,42.8 L 439.0,46.3 L 433.7,50.2 L 427.8,54.4 L 421.2,58.9 L 413.9,63.7 L 406.0,68.8 L 397.5,74.1 L 388.4,79.7 L 378.9,85.6 L 368.8,91.7 L 358.2,98.0 L 347.2,104.6 L 335.9,111.4 L 324.1,118.4 L 312.1,125.5 L 299.9,132.9 L 287.4,140.4 L 274.7,148.1 L 261.9,156.0 L 249.1,164.0 L 236.2,172.1 L 223.3,180.3 L 210.4,188.6 L 197.7,197.0 L 185.2,205.4 L 172.8,214.0 L 160.7,222.5 L 148.8,231.1 L 137.3,239.7 L 126.2,248.3 L 115.4,256.9 L 105.2,265.4 L 95.4,274.0 L 86.1,282.4 L 77.4,290.8 L 69.2,299.1 L 61.7,307.3 L 54.8,315.5 L 48.6,323.4 L 43.1,331.3 L 38.3,339.0 L 34.2,346.6 L 30.8,353.9 L 28.2,361.1 L 26.4,368.2 L 25.3,375.0 L 25.0,381.5 L 25.5,387.9 L 26.7,394.0 L 28.8,399.9 L 31.5,405.5 L 35.1,410.9 L 39.3,416.0 L 44.3,420.8 L 50.0,425.3 L 56.4,429.5 L 63.4,433.4 L 71.1,437.0 L 79.4,440.3 L 88.2,443.2 L 97.6,445.9 L 107.6,448.2 L 117.9,450.2 L 128.8,451.8 L 140.0,453.1 L 151.6,454.1 L 163.5,454.7 L 175.7,455.0 L 188.1,454.9 L 200.7,454.5 L 213.5,453.8 L 226.3,452.7 L 239.2,451.2 L 252.1,449.4 L 264.9,447.3 L 277.7,444.9 L 290.3,442.1 L 302.8,439.0 L 315.0,435.6 L 326.9,431.9 L 338.6,427.9 L 349.9,423.5 L 360.7,418.9 L 371.2,414.0 L 381.2,408.8 L 390.6,403.4 L 399.6,397.6 L 407.9,391.7 L 415.7,385.4 L 422.8,379.0 L 429.2,372.3 L 435.0,365.4 L 440.1,358.4 L 444.5,351.1 L 448.1,343.6 L 450.9,336.0 L 453.1,328.3 L 454.4,320.3 L 455.0,312.3 L 454.8,304.2 L 453.8,295.9 L 452.1,287.5 L 449.6,279.1 L 446.3,270.6 L 442.3,262.1 L 437.6,253.5 L 432.1,244.9 L 426.0,236.3 L 419.2,227.8 L 411.7,219.2 L 403.7,210.6 L 395.0,202.1 L 385.8,193.7 L 376.1,185.4 L 365.8,177.1 L 355.2,168.9 L 344.1,160.9 L 332.6,152.9 L 320.8,145.1 L 308.7,137.5 L 296.4,130.0 L 283.8,122.7 L 271.1,115.6 L 258.3,108.7 L 245.4,102.0 L 232.5,95.5 L 219.7,89.3 L 206.9,83.2 L 194.2,77.5 L 181.7,72.0 L 169.4,66.8 L 157.3,61.8 L 145.6,57.1 L 134.2,52.8 L 123.1,48.7 L 112.5,44.9 L 102.4,41.5 L 92.7,38.3 L 83.6,35.5 L 75.0,33.0 L 67.0,30.8 L 59.7,29.0 L 53.0,27.5 L 47.0,26.4 L 41.6,25.6 L 37.0,25.1 L 33.1,25.0 L 30.0,25.2 L 27.6,25.8 L 26.0,26.7 L 25.1,28.0 L 25.1,29.6 L 25.8,31.5 L 27.2,33.7 L 29.5,36.3 L 32.4,39.3 L 36.2,42.5 L 40.7,46.1 L 45.8,49.9 L 51.7,54.1 L 58.3,58.6 L 65.5,63.3 L 73.4,68.3 L 81.8,73.7 L 90.8,79.2 L 100.4,85.1 L 110.4,91.2 L 120.9,97.5 L 131.9,104.0 L 143.2,110.8 L 154.9,117.8 L 166.9,125.0 L 179.2,132.3 L 191.6,139.8 L 204.3,147.5 L 217.1,155.4 L 229.9,163.3 L 242.8,171.4 L 255.7,179.6 L 268.5,187.9 L 281.3,196.3 L 293.8,204.8 L 306.2,213.3 L 318.4,221.8 L 330.2,230.4 L 341.8,239.0 L 352.9,247.6 L 363.7,256.2 L 374.0,264.8 L 383.9,273.3 L 393.2,281.7 L 402.0,290.1 L 410.2,298.5 L 417.7,306.7 L 424.7,314.8 L 430.9,322.8 L 436.5,330.7 L 441.4,338.4 L 445.5,346.0 L 449.0,353.4 L 451.6,360.6 L 453.5,367.6 L 454.6,374.4 L 455.0,381.0 L 454.6,387.4 L 453.4,393.5 L 451.4,399.4 L 448.7,405.1 L 445.2,410.5 L 441.0,415.6 L 436.1,420.4 L 430.5,424.9 L 424.2,429.2 L 417.2,433.1 L 409.5,436.7 L 401.3,440.0 L 392.5,443.0 L 383.1,445.7 L 373.3,448.0 L 362.9,450.0 L 352.1,451.7 L 340.9,453.0 L 329.3,454.0 L 317.4,454.7 L 305.3,455.0 L 292.9,454.9 L 280.3,454.6 L 267.5,453.8 L 254.7,452.8 L 241.8,451.3 L 228.9,449.6 L 216.1,447.5 L 203.3,445.1 L 190.7,442.4 L 178.2,439.3 L 166.0,435.9 L 154.0,432.2 L 142.3,428.2 L 131.0,423.9 L 120.1,419.3 L 109.6,414.4 L 99.6,409.2 L 90.1,403.8 L 81.1,398.1 L 72.7,392.1 L 64.9,386.0 L 57.8,379.5 L 51.2,372.9 L 45.4,366.0 L 40.3,358.9 L 35.9,351.7 L 32.2,344.2 L 29.3,336.6 L 27.1,328.9 L 25.7,321.0 L 25.0,313.0 L 25.2,304.8 L 26.1,296.6 L 27.8,288.2 L 30.2,279.8 L 33.4,271.3 L 37.4,262.8 L 42.0,254.2 L 47.4,245.6 L 53.5,237.0 L 60.2,228.4 L 67.6,219.9 L 75.7,211.3 L 84.3,202.8 L 93.4,194.4 L 103.1,186.0 L 113.3,177.7 L 124.0,169.6 L 135.0,161.5 L 146.5,153.5 L 158.2,145.7 L 170.3,138.1 L 182.6,130.6 L 195.2,123.3 L 207.9,116.2 L 220.7,109.2 L 233.5,102.5 L 246.4,96.0 L 259.3,89.7 L 272.1,83.7 L 284.8,77.9 L 297.3,72.4 L 309.7,67.2 L 321.7,62.2 L 333.5,57.5 L 344.9,53.1 L 356.0,49.0 L 366.7,45.2 L 376.8,41.7 L 386.5,38.6 L 395.7,35.7 L 404.3,33.2 L 412.3,31.0 L 419.7,29.2 L 426.5,27.6 L 432.6,26.5 L 438.0,25.6 L 442.6,25.1 L 446.6,25.0 L 449.8,25.2 L 452.2,25.7 L 453.9,26.6 L 454.8,27.9 L 455.0,29.4 L 454.3,31.3 L 452.9,33.6 L 450.8,36.1 L 447.8,39.0 L 444.1,42.2 L 439.7,45.8 L 434.6,49.6 L 428.8,53.7 L 422.3,58.2 L 415.1,62.9 L 407.3,67.9 L 398.9,73.2 L 389.9,78.8 L 380.4,84.6 L 370.4,90.7 L 359.9,97.0 L 349.0,103.5 L 337.7,110.3 L 326.0,117.2 L 314.1,124.4 L 301.8,131.7 L 289.4,139.2 L 276.7,146.9 L 264.0,154.7 L 251.1,162.7 L 238.2,170.8 L 225.3,179.0 L 212.5,187.3 L 199.7,195.6 L 187.2,204.1 L 174.8,212.6 L 162.6,221.2 L 150.7,229.7 L 139.1,238.3 L 127.9,246.9 L 117.1,255.5 L 106.8,264.1 L 96.9,272.6 L 87.5,281.1 L 78.7,289.5 L 70.5,297.8 L 62.9,306.0 L 55.9,314.2 L 49.5,322.2 L 43.9,330.1 L 39.0,337.8 L 34.8,345.4 L 31.3,352.8 L 28.6,360.0 L 26.6,367.1 L 25.4,373.9 L 25.0,380.5 L 25.4,386.9 L 26.5,393.1 L 28.4,399.0 L 31.0,404.6 L 34.4,410.0 L 38.6,415.2 L 43.5,420.0 L 49.1,424.6 L 55.3,428.8 L 62.3,432.8 L 69.8,436.4 L 78.0,439.8 L 86.8,442.8 L 96.1,445.5 L 105.9,447.9 L 116.3,449.9 L 127.0,451.6 L 138.2,452.9 L 149.7,454.0 L 161.6,454.6 L 173.7,455.0 L 186.1,455.0 L 198.7,454.6 L 211.4,453.9 L 224.3,452.9" stroke="hsla(258,80%,70%,0.25)" stroke-width="1.2" fill="none"/>
<path d="M 237.1,451.5 L 250.0,449.8 L 262.9,447.7 L 275.7,445.3 L 288.3,442.6 L 300.8,439.5 L 313.1,436.2 L 325.1,432.5 L 336.7,428.5 L 348.1,424.2 L 359.0,419.7 L 369.6,414.8 L 379.6,409.7 L 389.2,404.2 L 398.2,398.6 L 406.6,392.6 L 414.5,386.5 L 421.7,380.0 L 428.3,373.4 L 434.1,366.6 L 439.3,359.5 L 443.8,352.3 L 447.5,344.8 L 450.5,337.3 L 452.8,329.5 L 454.2,321.6 L 454.9,313.6 L 454.9,305.5 L 454.0,297.2 L 452.4,288.9 L 450.0,280.5 L 446.9,272.0 L 443.0,263.5 L 438.4,254.9 L 433.0,246.3 L 427.0,237.7 L 420.3,229.1 L 413.0,220.5 L 405.0,212.0 L 396.4,203.5 L 387.3,195.0 L 377.7,186.7 L 367.5,178.4 L 356.9,170.2 L 345.9,162.1 L 334.5,154.2 L 322.7,146.4 L 310.7,138.7 L 298.4,131.2 L 285.8,123.9 L 273.2,116.7 L 260.4,109.8 L 247.5,103.0 L 234.6,96.5 L 221.7,90.2 L 208.9,84.2 L 196.2,78.4 L 183.7,72.8 L 171.3,67.6 L 159.2,62.6 L 147.4,57.9 L 136.0,53.4 L 124.9,49.3 L 114.2,45.5 L 104.0,42.0 L 94.2,38.8 L 85.0,35.9 L 76.3,33.4 L 68.3,31.2 L 60.8,29.3 L 54.0,27.8 L 47.9,26.6 L 42.4,25.7 L 37.7,25.2 L 33.7,25.0 L 30.5,25.2 L 27.9,25.7 L 26.2,26.5 L 25.2,27.7 L 25.0,29.3 L 25.6,31.2 L 26.9,33.4 L 29.0,35.9 L 31.9,38.8 L 35.5,42.0 L 39.9,45.5 L 45.0,49.3 L 50.7,53.4 L 57.2,57.8 L 64.3,62.5 L 72.1,67.5 L 80.4,72.8 L 89.3,78.3 L 98.8,84.1 L 108.8,90.2 L 119.2,96.5 L 130.1,103.0 L 141.4,109.7 L 153.0,116.7 L 165.0,123.8 L 177.2,131.1 L 189.6,138.6 L 202.3,146.3 L 215.0,154.1 L 227.9,162.1 L 240.8,170.1 L 253.7,178.3 L 266.5,186.6 L 279.2,195.0 L 291.8,203.4 L 304.3,211.9 L 316.5,220.5 L 328.4,229.0 L 340.0,237.6 L 351.2,246.2 L 362.0,254.8 L 372.4,263.4 L 382.3,271.9 L 391.7,280.4 L 400.6,288.8 L 408.9,297.1 L 416.6,305.4 L 423.6,313.5 L 430.0,321.5 L 435.7,329.4 L 440.7,337.2 L 444.9,344.8 L 448.5,352.2 L 451.2,359.4 L 453.3,366.5 L 454.5,373.3 L 455.0,380.0 L 454.7,386.4 L 453.6,392.6 L 451.8,398.5 L 449.2,404.2 L 445.9,409.6 L 441.8,414.8 L 436.9,419.6 L 431.4,424.2 L 425.2,428.5 L 418.3,432.5 L 410.8,436.2 L 402.7,439.5 L 393.9,442.6 L 384.7,445.3 L 374.9,447.7 L 364.6,449.7 L 353.8,451.5 L 342.7,452.8 L 331.2,453.9 L 319.4,454.6 L 307.2,454.9 L 294.9,455.0 L 282.3,454.6 L 269.6,454.0 L 256.8,452.9 L 243.9,451.6 L 231.0,449.9 L 218.1,447.9 L 205.3,445.5 L 192.7,442.8 L 180.2,439.8 L 167.9,436.5 L 155.9,432.8 L 144.2,428.9 L 132.8,424.6 L 121.8,420.0 L 111.3,415.2 L 101.2,410.1 L 91.6,404.7 L 82.5,399.0 L 74.0,393.1 L 66.1,387.0 L 58.9,380.6 L 52.2,373.9 L 46.3,367.1 L 41.0,360.1 L 36.5,352.8 L 32.7,345.4 L 29.7,337.9 L 27.4,330.1 L 25.8,322.2 L 25.1,314.2 L 25.1,306.1 L 25.9,297.9 L 27.5,289.6 L 29.8,281.1 L 32.9,272.7 L 36.7,264.1 L 41.2,255.6 L 46.5,247.0 L 52.5,238.4 L 59.1,229.8 L 66.4,221.2 L 74.3,212.7 L 82.9,204.2 L 91.9,195.7 L 101.6,187.3 L 111.7,179.0 L 122.2,170.9 L 133.2,162.8 L 144.6,154.8 L 156.3,147.0 L 168.4,139.3 L 180.7,131.8 L 193.2,124.4 L 205.8,117.3 L 218.6,110.3 L 231.5,103.6 L 244.4,97.0 L 257.3,90.7 L 270.1,84.7 L 282.8,78.8 L 295.3,73.3 L 307.7,68.0 L 319.8,63.0 L 331.6,58.2 L 343.1,53.8 L 354.3,49.6 L 365.0,45.8 L 375.3,42.3 L 385.0,39.0 L 394.3,36.1 L 403.0,33.6 L 411.1,31.3 L 418.6,29.4 L 425.5,27.9 L 431.6,26.6 L 437.1,25.7 L 441.9,25.2 L 446.0,25.0 L 449.3,25.1 L 451.9,25.6 L 453.7,26.5 L 454.7,27.6 L 455.0,29.1 L 454.5,31.0 L 453.2,33.2 L 451.1,35.7 L 448.3,38.5 L 444.8,41.7 L 440.5,45.2 L 435.5,49.0 L 429.7,53.1 L 423.3,57.5 L 416.3,62.1 L 408.6,67.1 L 400.3,72.4 L 391.4,77.9 L 382.0,83.7 L 372.0,89.7 L 361.6,96.0 L 350.8,102.5 L 339.5,109.2 L 327.9,116.1 L 316.0,123.2 L 303.8,130.5 L 291.4,138.0 L 278.8,145.7 L 266.0,153.5 L 253.2,161.4 L 240.3,169.5 L 227.4,177.7 L 214.5,185.9 L 201.8,194.3 L 189.1,202.7 L 176.7,211.2 L 164.5,219.8 L 152.6,228.4 L 141.0,237.0 L 129.7,245.6 L 118.8,254.1 L 108.4,262.7 L 98.4,271.2 L 89.0,279.7 L 80.1,288.1 L 71.7,296.5 L 64.0,304.7 L 56.9,312.9 L 50.5,320.9 L 44.8,328.8 L 39.7,336.6 L 35.4,344.2 L 31.8,351.6 L 29.0,358.9 L 26.9,365.9 L 25.6,372.8 L 25.0,379.5 L 25.2,385.9 L 26.3,392.1 L 28.0,398.1 L 30.6,403.8 L 33.9,409.2 L 37.9,414.4 L 42.6,419.3 L 48.1,423.9 L 54.3,428.2 L 61.1,432.2 L 68.6,435.9 L 76.7,439.3 L 85.3,442.3 L 94.6,445.1 L 104.3,447.5 L 114.6,449.6 L 125.3,451.3 L 136.4,452.7 L 147.9,453.8 L 159.7,454.5 L 171.8,454.9 L 184.1,455.0 L 196.7,454.7 L 209.4,454.0 L 222.2,453.0 L 235.1,451.7 L 248.0,450.0 L 260.9,448.0 L 273.7,445.7 L 286.3,443.0 L 298.8,440.1 L 311.1,436.7 L 323.2,433.1 L 334.9,429.2 L 346.3,425.0 L 357.3,420.4 L 367.9,415.6 L 378.0,410.5 L 387.7,405.1 L 396.8,399.5 L 405.3,393.6 L 413.3,387.5 L 420.6,381.1 L 427.3,374.5 L 433.3,367.7 L 438.6,360.6 L 443.1,353.4 L 447.0,346.0 L 450.1,338.5 L 452.5,330.7 L 454.1,322.9 L 454.9,314.9 L 454.9,306.8 L 454.2,298.5 L 452.7,290.2 L 450.4,281.8 L 447.4,273.3 L 443.6,264.8 L 439.1,256.3 L 433.9,247.7 L 428.0,239.1 L 421.4,230.5 L 414.2,221.9 L 406.3,213.4 L 397.8,204.8 L 388.8,196.4 L 379.2,188.0 L 369.2,179.7 L 358.6,171.5 L 347.7,163.4 L 336.3,155.4 L 324.6,147.6 L 312.6,139.9 L 300.3,132.4 L 287.8,125.0 L 275.2,117.8 L 262.4,110.9 L 249.5,104.1 L 236.6,97.5 L 223.8,91.2 L 210.9,85.1 L 198.2,79.3 L 185.6,73.7 L 173.3,68.4 L 161.1,63.4 L 149.3,58.6 L 137.8,54.1 L 126.6,49.9 L 115.9,46.1 L 105.5,42.5 L 95.7,39.3 L 86.4,36.4 L 77.7,33.8 L 69.5,31.5 L 62.0,29.6 L 55.1,28.0 L 48.8,26.7 L 43.3,25.8 L 38.4,25.2 L 34.3,25.0 L 30.9,25.1 L 28.3,25.6 L 26.4,26.4 L 25.3,27.5 L 25.0,29.0 L 25.5,30.8 L 26.7,33.0 L 28.7,35.5 L 31.4,38.3 L 34.9,41.4 L 39.1,44.9 L 44.1,48.7 L 49.8,52.7 L 56.1,57.1 L 63.1,61.8 L 70.8,66.7 L 79.0,71.9 L 87.9,77.4 L 97.3,83.2 L 107.2,89.2 L 117.5,95.5 L 128.4,101.9 L 139.6,108.6 L 151.2,115.5 L 163.1,122.7 L 175.2,130.0 L 187.6,137.4 L 200.2,145.1 L 213.0,152.9 L 225.8,160.8 L 238.7,168.8 L 251.6,177.0 L 264.5,185.3 L 277.2,193.6 L 289.9,202.1 L 302.3,210.6 L 314.5,219.1 L 326.5,227.7 L 338.1,236.3 L 349.4,244.9 L 360.3,253.5 L 370.8,262.0 L 380.8,270.6 L 390.3,279.1 L 399.2,287.5 L 407.6,295.8 L 415.4,304.1 L 422.5,312.2 L 429.0,320.3 L 434.8,328.2 L 439.9,336.0 L 444.3,343.6 L 447.9,351.0 L 450.8,358.3 L 453.0,365.4 L 454.4,372.3 L 455.0,378.9 L 454.8,385.4 L 453.9,391.6 L 452.1,397.6 L 449.7,403.3 L 446.4,408.8 L 442.5,414.0 L 437.8,418.9 L 432.3,423.5 L 426.2,427.8 L 419.5,431.9 L 412.0,435.6 L 404.0,439.0 L 395.4,442.1 L 386.2,444.9 L 376.5,447.3 L 366.2,449.4 L 355.6,451.2 L 344.5,452.6 L 333.1,453.7 L 321.3,454.5 L 309.2,454.9 L 296.8,455.0 L 284.3,454.7 L 271.6,454.1 L 258.8,453.1 L 245.9,451.8 L 233.0,450.2 L 220.2,448.2 L 207.4,445.9 L 194.7,443.3 L 182.2,440.3 L 169.8,437.0 L 157.8,433.4 L 146.0,429.5 L 134.6,425.3 L 123.5,420.8 L 112.9,416.0 L 102.7,410.9 L 93.1,405.6 L 83.9,399.9 L 75.3,394.1 L 67.3,388.0 L 60.0,381.6 L 53.2,375.0 L 47.2,368.2 L 41.8,361.2 L 37.2,354.0 L 33.3,346.6 L 30.1,339.1 L 27.7,331.4 L 26.0,323.5 L 25.2,315.5 L 25.1,307.4 L 25.7,299.2 L 27.2,290.9 L 29.4,282.5 L 32.3,274.0 L 36.0,265.5 L 40.5,257.0 L 45.6,248.4 L 51.5,239.8 L 58.0,231.2 L 65.2,222.6 L 73.0,214.0 L 81.5,205.5 L 90.5,197.1 L 100.0,188.7 L 110.0,180.4 L 120.5,172.1 L 131.5,164.0 L 142.8,156.1 L 154.5,148.2 L 166.4,140.5 L 178.7,133.0 L 191.2,125.6 L 203.8,118.4 L 216.6,111.4 L 229.4,104.6 L 242.3,98.1 L 255.2,91.7 L 268.0,85.6 L 280.8,79.7 L 293.4,74.1 L 305.8,68.8 L 317.9,63.7 L 329.8,59.0 L 341.3,54.5 L 352.5,50.3 L 363.3,46.4 L 373.6,42.8 L 383.5,39.5 L 392.8,36.6 L 401.6,34.0 L 409.9,31.7 L 417.4,29.7 L 424.4,28.1 L 430.7,26.8 L 436.3,25.9 L 441.2,25.3 L 445.4,25.0 L 448.8,25.1 L 451.5,25.5 L 453.5,26.3 L 454.6,27.4 L 455.0,28.9 L 454.6,30.7 L 453.5,32.8 L 451.5,35.3 L 448.8,38.1 L 445.4,41.2 L 441.2,44.6 L 436.3,48.3 L 430.7,52.4 L 424.4,56.7 L 417.4,61.4 L 409.8,66.3 L 401.6,71.5 L 392.8,77.0 L 383.5,82.7 L 373.6,88.7 L 363.3,94.9 L 352.5,101.4 L 341.3,108.1 L 329.8,115.0 L 317.9,122.1 L 305.7,129.4 L 293.4,136.8 L 280.8,144.5 L 268.0,152.2 L 255.2,160.1 L 242.3,168.2 L 229.4,176.4 L 216.6,184.6 L 203.8,193.0 L 191.1,201.4 L 178.7,209.9 L 166.4,218.4 L 154.5,227.0 L 142.8,235.6 L 131.5,244.2 L 120.5,252.8 L 110.0,261.4 L 100.0,269.9 L 90.5,278.4 L 81.5,286.8 L 73.0,295.2 L 65.2,303.4 L 58.0,311.6 L 51.5,319.6 L 45.6,327.6 L 40.5,335.3 L 36.0,343.0 L 32.3,350.4 L 29.4,357.7" stroke="hsla(284,80%,70%,0.25)" stroke-width="1.2" fill="none"/>
<path d="M 27.2,364.8 L 25.7,371.7 L 25.1,378.4 L 25.2,384.9 L 26.0,391.1 L 27.7,397.1 L 30.1,402.9 L 33.3,408.3 L 37.2,413.6 L 41.8,418.5 L 47.2,423.1 L 53.3,427.5 L 60.0,431.6 L 67.3,435.3 L 75.3,438.7 L 83.9,441.9 L 93.1,444.7 L 102.8,447.1 L 112.9,449.3 L 123.5,451.1 L 134.6,452.5 L 146.0,453.7 L 157.8,454.5 L 169.8,454.9 L 182.2,455.0 L 194.7,454.7 L 207.4,454.2 L 220.2,453.2 L 233.0,451.9 L 245.9,450.3 L 258.8,448.4 L 271.6,446.1 L 284.3,443.5 L 296.9,440.6 L 309.2,437.3 L 321.3,433.7 L 333.1,429.8 L 344.5,425.6 L 355.6,421.2 L 366.3,416.4 L 376.5,411.3 L 386.2,406.0 L 395.4,400.4 L 404.0,394.5 L 412.0,388.4 L 419.5,382.1 L 426.2,375.5 L 432.3,368.8 L 437.8,361.8 L 442.5,354.6 L 446.4,347.2 L 449.7,339.7 L 452.1,332.0 L 453.9,324.1 L 454.8,316.2 L 455.0,308.1 L 454.4,299.9 L 453.0,291.5 L 450.8,283.2 L 447.9,274.7 L 444.3,266.2 L 439.9,257.6 L 434.8,249.1 L 429.0,240.5 L 422.5,231.9 L 415.4,223.3 L 407.6,214.7 L 399.2,206.2 L 390.3,197.7 L 380.8,189.3 L 370.8,181.0 L 360.3,172.8 L 349.4,164.7 L 338.1,156.7 L 326.5,148.8 L 314.5,141.1 L 302.3,133.6 L 289.8,126.2 L 277.2,119.0 L 264.4,112.0 L 251.6,105.2 L 238.7,98.6 L 225.8,92.2 L 213.0,86.1 L 200.2,80.2 L 187.6,74.6 L 175.2,69.2 L 163.0,64.1 L 151.1,59.3 L 139.6,54.8 L 128.4,50.6 L 117.5,46.7 L 107.2,43.1 L 97.3,39.8 L 87.9,36.8 L 79.0,34.2 L 70.8,31.8 L 63.1,29.9 L 56.1,28.2 L 49.8,26.9 L 44.1,25.9 L 39.1,25.3 L 34.9,25.0 L 31.4,25.1 L 28.7,25.5 L 26.7,26.2 L 25.5,27.3 L 25.0,28.8 L 25.3,30.5 L 26.4,32.6 L 28.3,35.1 L 30.9,37.8 L 34.3,40.9 L 38.4,44.3 L 43.3,48.0 L 48.8,52.1 L 55.1,56.4 L 62.0,61.0 L 69.5,65.9 L 77.7,71.1 L 86.4,76.5 L 95.7,82.3 L 105.6,88.2 L 115.9,94.4 L 126.6,100.9 L 137.8,107.6 L 149.3,114.4 L 161.1,121.5 L 173.3,128.8 L 185.7,136.2 L 198.2,143.8 L 210.9,151.6 L 223.8,159.5 L 236.7,167.5 L 249.6,175.7 L 262.4,184.0 L 275.2,192.3 L 287.9,200.7 L 300.3,209.2 L 312.6,217.7 L 324.6,226.3 L 336.3,234.9 L 347.7,243.5 L 358.6,252.1 L 369.2,260.7 L 379.2,269.2 L 388.8,277.7 L 397.8,286.1 L 406.3,294.5 L 414.2,302.8 L 421.4,310.9 L 428.0,319.0 L 433.9,326.9 L 439.2,334.7 L 443.7,342.4 L 447.4,349.9 L 450.4,357.2 L 452.7,364.3 L 454.2,371.2 L 454.9,377.9 L 454.9,384.4 L 454.1,390.6 L 452.5,396.7 L 450.1,402.4 L 447.0,407.9 L 443.1,413.2 L 438.6,418.1 L 433.3,422.8 L 427.3,427.2 L 420.6,431.2 L 413.3,435.0 L 405.3,438.5 L 396.8,441.6 L 387.7,444.5 L 378.0,447.0 L 367.9,449.1 L 357.3,450.9 L 346.3,452.4 L 334.9,453.6 L 323.2,454.4 L 311.1,454.9 L 298.8,455.0 L 286.3,454.8 L 273.6,454.2 L 260.9,453.3 L 248.0,452.1 L 235.1,450.5 L 222.2,448.6 L 209.4,446.3 L 196.7,443.7 L 184.1,440.8 L 171.8,437.6 L 159.7,434.0 L 147.9,430.2 L 136.4,426.0 L 125.3,421.5 L 114.6,416.8 L 104.3,411.7 L 94.6,406.4 L 85.3,400.9 L 76.7,395.0 L 68.6,388.9 L 61.1,382.6 L 54.3,376.1 L 48.1,369.3 L 42.6,362.3 L 37.9,355.2 L 33.9,347.8 L 30.6,340.3 L 28.0,332.6 L 26.3,324.8 L 25.2,316.8 L 25.0,308.7 L 25.6,300.5 L 26.9,292.2 L 29.0,283.8 L 31.8,275.4 L 35.4,266.9 L 39.7,258.3 L 44.8,249.7 L 50.5,241.1 L 56.9,232.5 L 64.0,224.0 L 71.8,215.4 L 80.1,206.9 L 89.0,198.4 L 98.4,190.0 L 108.4,181.7 L 118.8,173.5 L 129.7,165.3 L 141.0,157.3 L 152.6,149.5 L 164.5,141.7 L 176.7,134.2 L 189.2,126.8 L 201.8,119.5 L 214.5,112.5 L 227.4,105.7 L 240.3,99.1 L 253.2,92.7 L 266.0,86.6 L 278.8,80.7 L 291.4,75.0 L 303.8,69.6 L 316.0,64.5 L 327.9,59.7 L 339.5,55.2 L 350.8,50.9 L 361.6,47.0 L 372.0,43.3 L 382.0,40.0 L 391.4,37.0 L 400.3,34.4 L 408.6,32.0 L 416.3,30.0 L 423.3,28.3 L 429.7,27.0 L 435.5,26.0 L 440.5,25.3 L 444.8,25.0 L 448.3,25.1 L 451.1,25.4 L 453.2,26.2 L 454.5,27.2 L 455.0,28.6 L 454.7,30.4 L 453.7,32.4 L 451.9,34.9 L 449.3,37.6 L 446.0,40.7 L 441.9,44.0 L 437.1,47.7 L 431.6,51.7 L 425.5,56.0 L 418.6,60.6 L 411.1,65.5 L 403.0,70.7 L 394.3,76.1 L 385.0,81.8 L 375.2,87.7 L 365.0,93.9 L 354.3,100.4 L 343.1,107.0 L 331.6,113.9 L 319.8,120.9 L 307.7,128.2 L 295.3,135.6 L 282.8,143.2 L 270.1,151.0 L 257.3,158.9 L 244.4,166.9 L 231.5,175.0 L 218.6,183.3 L 205.8,191.6 L 193.2,200.1 L 180.7,208.5 L 168.4,217.1 L 156.3,225.6 L 144.6,234.2 L 133.2,242.8 L 122.2,251.4 L 111.7,260.0 L 101.5,268.5 L 91.9,277.0 L 82.9,285.5 L 74.3,293.8 L 66.4,302.1 L 59.1,310.3 L 52.5,318.4 L 46.5,326.3 L 41.2,334.1 L 36.7,341.8 L 32.9,349.3 L 29.8,356.6 L 27.5,363.7 L 25.9,370.6 L 25.1,377.4 L 25.1,383.9 L 25.8,390.1 L 27.4,396.2 L 29.7,402.0 L 32.7,407.5 L 36.5,412.7 L 41.1,417.7 L 46.3,422.4 L 52.2,426.8 L 58.9,430.9 L 66.1,434.7 L 74.0,438.2 L 82.5,441.4 L 91.6,444.2 L 101.2,446.8 L 111.3,449.0 L 121.8,450.8 L 132.8,452.3 L 144.2,453.5 L 155.9,454.4 L 167.9,454.8 L 180.2,455.0 L 192.7,454.8 L 205.3,454.3 L 218.1,453.4 L 231.0,452.2 L 243.9,450.6 L 256.8,448.7 L 269.6,446.5 L 282.3,443.9 L 294.9,441.0 L 307.2,437.8 L 319.4,434.3 L 331.2,430.5 L 342.7,426.3 L 353.9,421.9 L 364.6,417.2 L 374.9,412.2 L 384.7,406.9 L 393.9,401.3 L 402.7,395.5 L 410.8,389.4 L 418.3,383.1 L 425.2,376.6 L 431.4,369.9 L 436.9,362.9 L 441.8,355.7 L 445.9,348.4 L 449.2,340.9 L 451.8,333.2 L 453.6,325.4 L 454.7,317.4 L 455.0,309.4 L 454.5,301.2 L 453.3,292.9 L 451.2,284.5 L 448.5,276.1 L 444.9,267.5 L 440.7,259.0 L 435.7,250.4 L 430.0,241.8 L 423.6,233.2 L 416.6,224.6 L 408.9,216.1 L 400.6,207.5 L 391.7,199.1 L 382.3,190.7 L 372.4,182.3 L 362.0,174.1 L 351.2,166.0 L 340.0,158.0 L 328.4,150.1 L 316.4,142.3 L 304.3,134.8 L 291.8,127.3 L 279.2,120.1 L 266.5,113.1 L 253.6,106.2 L 240.8,99.6 L 227.9,93.2 L 215.0,87.0 L 202.3,81.1 L 189.6,75.5 L 177.2,70.1 L 165.0,64.9 L 153.0,60.1 L 141.4,55.5 L 130.1,51.2 L 119.2,47.3 L 108.8,43.6 L 98.8,40.3 L 89.3,37.3 L 80.4,34.6 L 72.1,32.2 L 64.3,30.1 L 57.2,28.4 L 50.7,27.1 L 45.0,26.1 L 39.9,25.4 L 35.5,25.0 L 31.9,25.0 L 29.0,25.4 L 26.9,26.1 L 25.6,27.1 L 25.0,28.5 L 25.2,30.2 L 26.2,32.3 L 27.9,34.6 L 30.5,37.4 L 33.7,40.4 L 37.7,43.7 L 42.5,47.4 L 47.9,51.4 L 54.0,55.7 L 60.8,60.2 L 68.3,65.1 L 76.3,70.2 L 85.0,75.7 L 94.2,81.3 L 104.0,87.3 L 114.2,93.4 L 124.9,99.8 L 136.0,106.5 L 147.4,113.3 L 159.2,120.4 L 171.3,127.6 L 183.7,135.0 L 196.2,142.6 L 208.9,150.4 L 221.7,158.2 L 234.6,166.3 L 247.5,174.4 L 260.4,182.6 L 273.2,191.0 L 285.8,199.4 L 298.4,207.9 L 310.7,216.4 L 322.7,224.9 L 334.5,233.5 L 345.9,242.1 L 356.9,250.7 L 367.5,259.3 L 377.7,267.9 L 387.3,276.4 L 396.4,284.8 L 405.0,293.2 L 413.0,301.5 L 420.3,309.7 L 427.0,317.7 L 433.0,325.7 L 438.4,333.5 L 443.0,341.2 L 446.9,348.7 L 450.0,356.0 L 452.4,363.2 L 454.0,370.1 L 454.9,376.8 L 454.9,383.4 L 454.2,389.7 L 452.8,395.7 L 450.5,401.5 L 447.5,407.1 L 443.8,412.3 L 439.3,417.3 L 434.1,422.1 L 428.3,426.5 L 421.7,430.6 L 414.5,434.4 L 406.6,438.0 L 398.2,441.2 L 389.2,444.0 L 379.6,446.6 L 369.6,448.8 L 359.0,450.7 L 348.1,452.2 L 336.7,453.4 L 325.1,454.3 L 313.1,454.8 L 300.8,455.0 L 288.3,454.8 L 275.7,454.3 L 262.9,453.5 L 250.0,452.3 L 237.1,450.8 L 224.3,448.9 L 211.4,446.7 L 198.7,444.1 L 186.1,441.3 L 173.7,438.1 L 161.6,434.6 L 149.7,430.8 L 138.2,426.7 L 127.0,422.3 L 116.3,417.6 L 105.9,412.6 L 96.1,407.3 L 86.8,401.8 L 78.0,396.0 L 69.8,389.9 L 62.3,383.6 L 55.3,377.1 L 49.0,370.4 L 43.5,363.5 L 38.6,356.3 L 34.4,349.0 L 31.0,341.5 L 28.4,333.8 L 26.5,326.0 L 25.4,318.1 L 25.0,310.0 L 25.4,301.8 L 26.6,293.5 L 28.6,285.2 L 31.3,276.7 L 34.8,268.2 L 39.0,259.7 L 43.9,251.1 L 49.5,242.5 L 55.9,233.9 L 62.9,225.3 L 70.5,216.8 L 78.7,208.2 L 87.5,199.7 L 96.9,191.3 L 106.8,183.0 L 117.1,174.8 L 127.9,166.6 L 139.1,158.6 L 150.7,150.7 L 162.6,142.9 L 174.8,135.4 L 187.2,127.9 L 199.8,120.7 L 212.5,113.6 L 225.3,106.8 L 238.2,100.1 L 251.1,93.7 L 264.0,87.5 L 276.7,81.6 L 289.4,75.9 L 301.8,70.5 L 314.1,65.3 L 326.0,60.5 L 337.7,55.9 L 349.0,51.6 L 359.9,47.6 L 370.4,43.9 L 380.4,40.5 L 389.9,37.5 L 398.9,34.8 L 407.3,32.4 L 415.1,30.3 L 422.3,28.6 L 428.8,27.2 L 434.6,26.1 L 439.7,25.4 L 444.1,25.1 L 447.8,25.0 L 450.8,25.4 L 452.9,26.0 L 454.3,27.0 L 455.0,28.4 L 454.8,30.1 L 453.9,32.1 L 452.2,34.4 L 449.8,37.1 L 446.6,40.1 L 442.6,43.5 L 438.0,47.1 L 432.6,51.1 L 426.5,55.3 L 419.7,59.9 L 412.3,64.7 L 404.3,69.8 L 395.7,75.2 L 386.5,80.9 L 376.8,86.8 L 366.6,92.9 L 356.0,99.3 L 344.9,105.9 L 333.5,112.8 L 321.7,119.8 L 309.6,127.0" stroke="hsla(310,80%,70%,0.25)" stroke-width="1.2" fill="none"/>
<path d="M 297.3,134.4 L 284.8,142.0 L 272.1,149.7 L 259.3,157.6 L 246.4,165.6 L 233.5,173.7 L 220.7,182.0 L 207.8,190.3 L 195.2,198.7 L 182.6,207.2 L 170.3,215.7 L 158.2,224.3 L 146.5,232.8 L 135.0,241.4 L 124.0,250.0 L 113.3,258.6 L 103.1,267.2 L 93.4,275.7 L 84.3,284.1 L 75.7,292.5 L 67.6,300.8 L 60.2,309.0 L 53.5,317.1 L 47.4,325.1 L 42.0,332.9 L 37.4,340.6 L 33.4,348.1 L 30.2,355.4 L 27.8,362.6 L 26.1,369.6 L 25.2,376.3 L 25.0,382.9 L 25.7,389.2 L 27.1,395.2 L 29.3,401.1 L 32.2,406.6 L 35.9,411.9 L 40.3,417.0 L 45.4,421.7 L 51.2,426.1 L 57.8,430.3 L 64.9,434.1 L 72.7,437.7 L 81.1,440.9 L 90.1,443.8 L 99.6,446.4 L 109.6,448.6 L 120.1,450.5 L 131.0,452.1 L 142.3,453.3 L 154.0,454.2 L 166.0,454.8 L 178.2,455.0 L 190.7,454.9 L 203.3,454.4 L 216.1,453.6 L 228.9,452.4 L 241.8,450.9 L 254.7,449.0 L 267.6,446.9 L 280.3,444.4 L 292.9,441.5 L 305.3,438.4 L 317.4,434.9 L 329.3,431.1 L 340.9,427.0 L 352.1,422.6 L 362.9,417.9 L 373.3,413.0 L 383.1,407.7 L 392.5,402.2 L 401.3,396.4 L 409.5,390.4 L 417.2,384.2 L 424.2,377.7 L 430.5,370.9 L 436.1,364.0 L 441.0,356.9 L 445.3,349.6 L 448.7,342.1 L 451.4,334.5 L 453.4,326.7 L 454.6,318.7 L 455.0,310.7 L 454.6,302.5 L 453.5,294.2 L 451.6,285.8 L 449.0,277.4 L 445.5,268.9 L 441.4,260.4 L 436.5,251.8 L 430.9,243.2 L 424.7,234.6 L 417.7,226.0 L 410.1,217.4 L 402.0,208.9 L 393.2,200.4 L 383.9,192.0 L 374.0,183.7 L 363.7,175.4 L 352.9,167.3 L 341.8,159.2 L 330.2,151.3 L 318.4,143.6 L 306.2,136.0 L 293.8,128.5 L 281.3,121.3 L 268.5,114.2 L 255.7,107.3 L 242.8,100.6 L 229.9,94.2 L 217.1,88.0 L 204.3,82.1 L 191.6,76.3 L 179.2,70.9 L 166.9,65.7 L 154.9,60.8 L 143.2,56.2 L 131.9,51.9 L 120.9,47.9 L 110.4,44.2 L 100.4,40.8 L 90.8,37.7 L 81.8,35.0 L 73.3,32.5 L 65.5,30.5 L 58.3,28.7 L 51.7,27.3 L 45.8,26.2 L 40.6,25.5 L 36.2,25.1 L 32.4,25.0 L 29.5,25.3 L 27.2,26.0 L 25.8,26.9 L 25.1,28.3 L 25.1,29.9 L 26.0,31.9 L 27.6,34.2 L 30.0,36.9 L 33.1,39.9 L 37.0,43.2 L 41.6,46.8 L 47.0,50.7 L 53.0,55.0 L 59.7,59.5 L 67.1,64.3 L 75.0,69.4 L 83.6,74.8 L 92.7,80.4 L 102.4,86.3 L 112.5,92.4 L 123.1,98.8 L 134.2,105.4 L 145.6,112.2 L 157.3,119.2 L 169.4,126.4 L 181.7,133.8 L 194.2,141.4 L 206.9,149.1 L 219.7,157.0 L 232.5,165.0 L 245.4,173.1 L 258.3,181.3 L 271.1,189.6 L 283.8,198.0 L 296.4,206.5 L 308.7,215.0 L 320.8,223.6 L 332.6,232.2 L 344.1,240.8 L 355.2,249.4 L 365.9,257.9 L 376.1,266.5 L 385.8,275.0 L 395.0,283.5 L 403.7,291.8 L 411.7,300.2 L 419.2,308.4 L 426.0,316.5 L 432.1,324.4 L 437.6,332.3 L 442.3,340.0 L 446.3,347.5 L 449.6,354.9 L 452.1,362.0 L 453.8,369.0 L 454.8,375.8 L 455.0,382.3 L 454.4,388.7 L 453.1,394.8 L 450.9,400.6 L 448.1,406.2 L 444.5,411.5 L 440.1,416.6 L 435.0,421.3 L 429.2,425.8 L 422.8,430.0 L 415.7,433.9 L 407.9,437.4 L 399.6,440.7 L 390.6,443.6 L 381.2,446.2 L 371.2,448.5 L 360.7,450.4 L 349.8,452.0 L 338.6,453.3 L 326.9,454.2 L 315.0,454.8 L 302.8,455.0 L 290.3,454.9 L 277.7,454.4 L 264.9,453.6 L 252.1,452.5 L 239.2,451.0 L 226.3,449.2 L 213.5,447.1 L 200.7,444.6 L 188.1,441.8 L 175.7,438.6 L 163.5,435.2 L 151.6,431.4 L 140.0,427.4 L 128.8,423.0 L 117.9,418.3 L 107.5,413.4 L 97.6,408.2 L 88.2,402.7 L 79.4,396.9 L 71.1,390.9 L 63.4,384.7 L 56.4,378.2 L 50.0,371.5 L 44.3,364.6 L 39.3,357.5 L 35.1,350.2 L 31.5,342.7 L 28.8,335.1 L 26.7,327.3 L 25.5,319.4 L 25.0,311.3 L 25.3,303.1 L 26.4,294.9 L 28.2,286.5 L 30.8,278.1 L 34.2,269.6 L 38.3,261.0 L 43.1,252.5 L 48.6,243.9 L 54.8,235.3 L 61.7,226.7 L 69.2,218.1 L 77.4,209.6 L 86.1,201.1 L 95.4,192.7 L 105.2,184.3 L 115.5,176.1 L 126.2,167.9 L 137.3,159.9 L 148.8,151.9 L 160.7,144.2 L 172.8,136.6 L 185.2,129.1 L 197.7,121.8 L 210.5,114.7 L 223.3,107.8 L 236.2,101.2 L 249.1,94.7 L 261.9,88.5 L 274.7,82.5 L 287.4,76.8 L 299.9,71.3 L 312.1,66.1 L 324.1,61.2 L 335.9,56.6 L 347.2,52.2 L 358.2,48.2 L 368.8,44.5 L 378.9,41.0 L 388.5,37.9 L 397.5,35.2 L 406.0,32.7 L 413.9,30.6 L 421.2,28.8 L 427.8,27.4 L 433.7,26.3 L 439.0,25.5 L 443.5,25.1 L 447.3,25.0 L 450.3,25.3 L 452.6,25.9 L 454.2,26.8 L 454.9,28.1 L 454.9,29.8 L 454.1,31.7 L 452.5,34.0 L 450.2,36.7 L 447.1,39.6 L 443.3,42.9 L 438.7,46.5 L 433.5,50.4 L 427.5,54.6 L 420.9,59.1 L 413.6,63.9 L 405.6,69.0 L 397.1,74.3 L 388.0,80.0 L 378.4,85.8 L 368.3,91.9 L 357.7,98.3 L 346.7,104.9 L 335.3,111.7 L 323.6,118.7 L 311.6,125.9 L 299.3,133.2 L 286.8,140.8 L 274.1,148.5 L 261.3,156.3 L 248.5,164.3 L 235.6,172.4 L 222.7,180.7 L 209.9,189.0 L 197.2,197.4 L 184.6,205.8 L 172.3,214.3 L 160.1,222.9 L 148.3,231.5 L 136.8,240.1 L 125.7,248.7 L 115.0,257.3 L 104.7,265.8 L 94.9,274.3 L 85.7,282.8 L 77.0,291.2 L 68.9,299.5 L 61.4,307.7 L 54.5,315.8 L 48.3,323.8 L 42.8,331.6 L 38.1,339.4 L 34.0,346.9 L 30.7,354.3 L 28.1,361.5 L 26.3,368.5 L 25.3,375.3 L 25.0,381.8 L 25.5,388.2 L 26.8,394.3 L 28.9,400.2 L 31.7,405.8 L 35.2,411.1 L 39.5,416.2 L 44.6,421.0 L 50.3,425.5 L 56.7,429.7 L 63.7,433.6 L 71.4,437.1 L 79.8,440.4 L 88.6,443.4 L 98.1,446.0 L 108.0,448.3 L 118.4,450.3 L 129.3,451.9 L 140.5,453.2 L 152.1,454.1 L 164.1,454.7 L 176.2,455.0 L 188.7,454.9 L 201.3,454.5 L 214.0,453.7 L 226.9,452.6 L 239.8,451.1 L 252.7,449.4 L 265.5,447.2 L 278.3,444.8 L 290.9,442.0 L 303.3,438.9 L 315.5,435.5 L 327.5,431.7 L 339.1,427.7 L 350.3,423.3 L 361.2,418.7 L 371.6,413.8 L 381.6,408.6 L 391.0,403.1 L 399.9,397.4 L 408.3,391.4 L 416.0,385.2 L 423.1,378.7 L 429.5,372.0 L 435.3,365.1 L 440.3,358.0 L 444.6,350.8 L 448.2,343.3 L 451.1,335.7 L 453.1,327.9 L 454.4,320.0 L 455.0,311.9 L 454.8,303.8 L 453.7,295.5 L 452.0,287.2 L 449.4,278.8 L 446.1,270.3 L 442.1,261.7 L 437.3,253.2 L 431.9,244.6 L 425.7,236.0 L 418.9,227.4 L 411.4,218.8 L 403.3,210.3 L 394.6,201.8 L 385.4,193.3 L 375.6,185.0 L 365.4,176.7 L 354.7,168.5 L 343.6,160.5 L 332.1,152.6 L 320.3,144.8 L 308.2,137.2 L 295.8,129.7 L 283.3,122.4 L 270.6,115.3 L 257.7,108.4 L 244.9,101.7 L 232.0,95.2 L 219.1,89.0 L 206.3,83.0 L 193.6,77.2 L 181.1,71.7 L 168.8,66.5 L 156.8,61.6 L 145.1,56.9 L 133.7,52.6 L 122.6,48.5 L 112.1,44.8 L 101.9,41.3 L 92.3,38.2 L 83.2,35.4 L 74.7,32.9 L 66.7,30.8 L 59.4,29.0 L 52.7,27.5 L 46.7,26.3 L 41.4,25.6 L 36.8,25.1 L 33.0,25.0 L 29.9,25.2 L 27.5,25.8 L 25.9,26.8 L 25.1,28.0 L 25.1,29.6 L 25.8,31.6 L 27.3,33.9 L 29.6,36.5 L 32.6,39.4 L 36.4,42.6 L 40.9,46.2 L 46.1,50.1 L 52.0,54.3 L 58.6,58.8 L 65.8,63.5 L 73.7,68.6 L 82.2,73.9 L 91.2,79.5 L 100.8,85.3 L 110.9,91.4 L 121.4,97.8 L 132.4,104.3 L 143.7,111.1 L 155.4,118.1 L 167.4,125.3 L 179.7,132.6 L 192.2,140.2 L 204.8,147.9 L 217.6,155.7 L 230.5,163.7 L 243.4,171.8 L 256.3,180.0 L 269.1,188.3 L 281.8,196.7 L 294.4,205.1 L 306.8,213.7 L 318.9,222.2 L 330.8,230.8 L 342.3,239.4 L 353.4,248.0 L 364.2,256.6 L 374.5,265.1 L 384.3,273.7 L 393.6,282.1 L 402.3,290.5 L 410.5,298.8 L 418.0,307.1 L 425.0,315.2 L 431.2,323.2 L 436.7,331.0 L 441.6,338.7 L 445.7,346.3 L 449.1,353.7 L 451.7,360.9 L 453.6,367.9 L 454.7,374.7 L 455.0,381.3 L 454.5,387.7 L 453.3,393.8 L 451.3,399.7 L 448.6,405.3 L 445.1,410.7 L 440.8,415.8 L 435.9,420.6 L 430.2,425.1 L 423.9,429.3 L 416.8,433.3 L 409.2,436.9 L 400.9,440.2 L 392.1,443.1 L 382.7,445.8 L 372.8,448.1 L 362.4,450.1 L 351.6,451.8 L 340.4,453.1 L 328.8,454.1 L 316.9,454.7 L 304.7,455.0 L 292.3,454.9 L 279.7,454.5 L 267.0,453.8 L 254.1,452.7 L 241.3,451.3 L 228.4,449.5 L 215.5,447.4 L 202.7,445.0 L 190.1,442.2 L 177.7,439.1 L 165.4,435.8 L 153.5,432.0 L 141.8,428.0 L 130.5,423.7 L 119.6,419.1 L 109.2,414.2 L 99.2,409.0 L 89.7,403.6 L 80.7,397.8 L 72.4,391.9 L 64.6,385.7 L 57.5,379.2 L 51.0,372.6 L 45.2,365.7 L 40.1,358.6 L 35.7,351.4 L 32.0,343.9 L 29.1,336.3 L 27.0,328.5 L 25.6,320.6 L 25.0,312.6 L 25.2,304.4 L 26.1,296.2 L 27.9,287.8 L 30.3,279.4 L 33.6,270.9 L 37.6,262.4 L 42.3,253.8 L 47.7,245.2 L 53.8,236.6 L 60.6,228.1 L 68.0,219.5 L 76.0,210.9 L 84.7,202.4 L 93.9,194.0 L 103.6,185.6 L 113.8,177.4 L 124.4,169.2 L 135.5,161.1 L 147.0,153.2 L 158.8,145.4 L 170.9,137.8 L 183.2,130.3 L 195.7,123.0 L 208.4,115.9 L 221.2,108.9 L 234.1,102.2 L 247.0,95.7 L 259.9,89.5 L 272.7,83.5 L 285.4,77.7 L 297.9,72.2 L 310.2,66.9 L 322.3,62.0 L 334.0,57.3 L 345.4,52.9 L 356.5,48.8 L 367.1,45.0 L 377.3,41.6 L 387.0,38.4 L 396.1,35.6 L 404.7,33.1 L 412.7,30.9 L 420.1,29.1 L 426.8,27.6 L 432.8,26.4" stroke="hsla(336,80%,70%,0.25)" stroke-width="1.2" fill="none"/>
<path d="M 438.2,25.6 L 442.8,25.1 L 446.7,25.0 L 449.9,25.2 L 452.3,25.8 L 454.0,26.7 L 454.8,27.9 L 454.9,29.5 L 454.3,31.4 L 452.8,33.7 L 450.6,36.2 L 447.7,39.1 L 444.0,42.4 L 439.5,45.9 L 434.4,49.8 L 428.5,53.9 L 422.0,58.4 L 414.8,63.1 L 406.9,68.2 L 398.5,73.5 L 389.5,79.0 L 380.0,84.9 L 369.9,90.9 L 359.4,97.3 L 348.5,103.8 L 337.2,110.6 L 325.5,117.5 L 313.5,124.7 L 301.3,132.1 L 288.8,139.6 L 276.2,147.3 L 263.4,155.1 L 250.5,163.1 L 237.6,171.1 L 224.7,179.3 L 211.9,187.6 L 199.2,196.0 L 186.6,204.5 L 174.2,213.0 L 162.1,221.5 L 150.2,230.1 L 138.6,238.7 L 127.4,247.3 L 116.7,255.9 L 106.3,264.5 L 96.5,273.0 L 87.1,281.4 L 78.3,289.9 L 70.1,298.2 L 62.5,306.4 L 55.6,314.5 L 49.3,322.5 L 43.7,330.4 L 38.8,338.1 L 34.6,345.7 L 31.2,353.1 L 28.5,360.3 L 26.5,367.4 L 25.4,374.2 L 25.0,380.8 L 25.4,387.2 L 26.6,393.3 L 28.5,399.2 L 31.2,404.9 L 34.6,410.3 L 38.8,415.4 L 43.7,420.2 L 49.3,424.8 L 55.6,429.0 L 62.6,433.0 L 70.2,436.6 L 78.4,439.9 L 87.2,442.9 L 96.5,445.6 L 106.4,447.9 L 116.7,450.0 L 127.5,451.6 L 138.7,453.0 L 150.3,454.0 L 162.1,454.7 L 174.3,455.0 L 186.7,454.9 L 199.3,454.6 L 212.0,453.9 L 224.8,452.8 L 237.7,451.4 L 250.6,449.7 L 263.5,447.6 L 276.2,445.2 L 288.9,442.5 L 301.4,439.4 L 313.6,436.0 L 325.6,432.3 L 337.3,428.3 L 348.6,424.1 L 359.5,419.5 L 370.0,414.6 L 380.0,409.4 L 389.6,404.0 L 398.6,398.3 L 407.0,392.4 L 414.8,386.2 L 422.0,379.8 L 428.5,373.1 L 434.4,366.2 L 439.6,359.2 L 444.0,351.9 L 447.7,344.5 L 450.7,336.9 L 452.9,329.2 L 454.3,321.3 L 455.0,313.2 L 454.8,305.1 L 454.0,296.8 L 452.3,288.5 L 449.9,280.1 L 446.7,271.6 L 442.8,263.1 L 438.1,254.5 L 432.8,245.9 L 426.7,237.3 L 420.0,228.7 L 412.6,220.2 L 404.6,211.6 L 396.0,203.1 L 386.9,194.7 L 377.2,186.3 L 367.0,178.0 L 356.4,169.8 L 345.4,161.8 L 333.9,153.8 L 322.2,146.0 L 310.1,138.4 L 297.8,130.9 L 285.3,123.5 L 272.6,116.4 L 259.8,109.5 L 246.9,102.7 L 234.0,96.2 L 221.1,90.0 L 208.3,83.9 L 195.6,78.1 L 183.1,72.6 L 170.8,67.3 L 158.7,62.4 L 146.9,57.7 L 135.5,53.2 L 124.4,49.1 L 113.7,45.3 L 103.5,41.8 L 93.8,38.7 L 84.6,35.8 L 76.0,33.3 L 67.9,31.1 L 60.5,29.2 L 53.7,27.7 L 47.6,26.5 L 42.2,25.7 L 37.5,25.2 L 33.6,25.0 L 30.3,25.2 L 27.8,25.7 L 26.1,26.6 L 25.2,27.8 L 25.0,29.4 L 25.6,31.2 L 27.0,33.5 L 29.2,36.0 L 32.1,38.9 L 35.7,42.1 L 40.1,45.6 L 45.2,49.5 L 51.0,53.6 L 57.5,58.0 L 64.6,62.7 L 72.4,67.8 L 80.8,73.0 L 89.7,78.6 L 99.2,84.4 L 109.2,90.5 L 119.7,96.8 L 130.6,103.3 L 141.9,110.0 L 153.6,117.0 L 165.5,124.1 L 177.7,131.5 L 190.2,139.0 L 202.8,146.6 L 215.6,154.5 L 228.4,162.4 L 241.3,170.5 L 254.2,178.7 L 267.1,187.0 L 279.8,195.4 L 292.4,203.8 L 304.8,212.3 L 317.0,220.8 L 328.9,229.4 L 340.5,238.0 L 351.7,246.6 L 362.5,255.2 L 372.9,263.8 L 382.8,272.3 L 392.2,280.8 L 401.0,289.2 L 409.2,297.5 L 416.9,305.8 L 423.9,313.9 L 430.2,321.9 L 435.9,329.8 L 440.9,337.5 L 445.1,345.1 L 448.6,352.5 L 451.3,359.8 L 453.3,366.8 L 454.6,373.6 L 455.0,380.3 L 454.7,386.7 L 453.6,392.8 L 451.7,398.8 L 449.1,404.4 L 445.7,409.9 L 441.6,415.0 L 436.7,419.8 L 431.2,424.4 L 424.9,428.7 L 418.0,432.7 L 410.5,436.3 L 402.3,439.7 L 393.5,442.7 L 384.2,445.4 L 374.4,447.8 L 364.1,449.8 L 353.4,451.5 L 342.2,452.9 L 330.7,453.9 L 318.8,454.6 L 306.7,455.0 L 294.3,455.0 L 281.7,454.6 L 269.0,453.9 L 256.2,452.9 L 243.3,451.5 L 230.4,449.8 L 217.5,447.8 L 204.8,445.4 L 192.1,442.7 L 179.6,439.7 L 167.4,436.3 L 155.4,432.6 L 143.7,428.7 L 132.3,424.4 L 121.3,419.8 L 110.8,415.0 L 100.7,409.8 L 91.2,404.4 L 82.1,398.8 L 73.7,392.8 L 65.8,386.7 L 58.5,380.3 L 52.0,373.6 L 46.0,366.8 L 40.8,359.8 L 36.3,352.5 L 32.6,345.1 L 29.6,337.5 L 27.3,329.8 L 25.8,321.9 L 25.1,313.9 L 25.1,305.7 L 25.9,297.5 L 27.5,289.2 L 29.9,280.8 L 33.0,272.3 L 36.9,263.8 L 41.5,255.2 L 46.8,246.6 L 52.8,238.0 L 59.4,229.4 L 66.8,220.8 L 74.7,212.3 L 83.2,203.8 L 92.4,195.3 L 102.0,187.0 L 112.1,178.7 L 122.7,170.5 L 133.7,162.4 L 145.1,154.5 L 156.9,146.6 L 168.9,139.0 L 181.2,131.5 L 193.7,124.1 L 206.4,117.0 L 219.2,110.0 L 232.1,103.3 L 245.0,96.7 L 257.8,90.5 L 270.6,84.4 L 283.4,78.6 L 295.9,73.0 L 308.3,67.8 L 320.4,62.7 L 332.2,58.0 L 343.6,53.6 L 354.8,49.5 L 365.5,45.6 L 375.7,42.1 L 385.5,38.9 L 394.7,36.0 L 403.4,33.5 L 411.4,31.2 L 418.9,29.4 L 425.7,27.8 L 431.9,26.6 L 437.4,25.7 L 442.1,25.2 L 446.2,25.0 L 449.4,25.2 L 452.0,25.7 L 453.8,26.5 L 454.8,27.7 L 455.0,29.2 L 454.4,31.1 L 453.1,33.3 L 451.0,35.8 L 448.2,38.7 L 444.6,41.8 L 440.3,45.3 L 435.2,49.1 L 429.5,53.3 L 423.0,57.7 L 415.9,62.4 L 408.2,67.3 L 399.9,72.6 L 391.0,78.1 L 381.5,83.9 L 371.6,90.0 L 361.1,96.2 L 350.3,102.8 L 339.0,109.5 L 327.4,116.4 L 315.4,123.5 L 303.2,130.9 L 290.8,138.4 L 278.2,146.0 L 265.4,153.8 L 252.6,161.8 L 239.7,169.8 L 226.8,178.0 L 214.0,186.3 L 201.2,194.7 L 188.6,203.1 L 176.2,211.6 L 164.0,220.2 L 152.0,228.7 L 140.4,237.3 L 129.2,245.9 L 118.3,254.5 L 107.9,263.1 L 98.0,271.6 L 88.6,280.1 L 79.7,288.5 L 71.4,296.9 L 63.7,305.1 L 56.6,313.2 L 50.2,321.3 L 44.5,329.2 L 39.5,336.9 L 35.2,344.5 L 31.6,351.9 L 28.8,359.2 L 26.8,366.3 L 25.5,373.1 L 25.0,379.8 L 25.3,386.2 L 26.3,392.4 L 28.1,398.3 L 30.7,404.0 L 34.0,409.4 L 38.1,414.6 L 42.9,419.5 L 48.4,424.1 L 54.6,428.4 L 61.4,432.3 L 68.9,436.0 L 77.0,439.4 L 85.7,442.5 L 95.0,445.2 L 104.8,447.6 L 115.1,449.7 L 125.8,451.4 L 136.9,452.8 L 148.4,453.9 L 160.2,454.6 L 172.3,454.9 L 184.7,455.0 L 197.3,454.7 L 210.0,454.0 L 222.8,453.0 L 235.7,451.6 L 248.6,450.0 L 261.4,447.9 L 274.2,445.6 L 286.9,442.9 L 299.4,439.9 L 311.7,436.6 L 323.7,433.0 L 335.4,429.0 L 346.8,424.8 L 357.8,420.2 L 368.4,415.4 L 378.5,410.3 L 388.1,404.9 L 397.2,399.2 L 405.7,393.3 L 413.6,387.2 L 420.9,380.8 L 427.5,374.2 L 433.5,367.4 L 438.8,360.3 L 443.3,353.1 L 447.2,345.7 L 450.2,338.1 L 452.6,330.4 L 454.1,322.5 L 454.9,314.5 L 454.9,306.4 L 454.1,298.2 L 452.6,289.8 L 450.3,281.4 L 447.3,273.0 L 443.5,264.4 L 438.9,255.9 L 433.7,247.3 L 427.7,238.7 L 421.1,230.1 L 413.8,221.5 L 405.9,213.0 L 397.5,204.5 L 388.4,196.0 L 378.8,187.6 L 368.7,179.3 L 358.1,171.1 L 347.2,163.0 L 335.8,155.1 L 324.1,147.3 L 312.1,139.6 L 299.8,132.0 L 287.3,124.7 L 274.6,117.5 L 261.8,110.6 L 249.0,103.8 L 236.1,97.3 L 223.2,90.9 L 210.4,84.9 L 197.7,79.0 L 185.1,73.5 L 172.7,68.2 L 160.6,63.1 L 148.8,58.4 L 137.3,53.9 L 126.1,49.8 L 115.4,45.9 L 105.1,42.4 L 95.3,39.1 L 86.0,36.2 L 77.3,33.7 L 69.2,31.4 L 61.7,29.5 L 54.8,27.9 L 48.6,26.7 L 43.0,25.8 L 38.2,25.2 L 34.1,25.0 L 30.8,25.1 L 28.2,25.6 L 26.4,26.4 L 25.3,27.6 L 25.0,29.1 L 25.5,30.9 L 26.7,33.1 L 28.8,35.6 L 31.5,38.4 L 35.1,41.6 L 39.4,45.0 L 44.3,48.8 L 50.0,52.9 L 56.4,57.3 L 63.5,62.0 L 71.1,66.9 L 79.4,72.2 L 88.3,77.7 L 97.7,83.5 L 107.6,89.5 L 118.0,95.7 L 128.8,102.2 L 140.1,108.9 L 151.7,115.9 L 163.6,123.0 L 175.8,130.3 L 188.2,137.8 L 200.8,145.4 L 213.5,153.2 L 226.4,161.1 L 239.3,169.2 L 252.2,177.4 L 265.0,185.7 L 277.8,194.0 L 290.4,202.4 L 302.9,210.9 L 315.1,219.5 L 327.0,228.1 L 338.6,236.7 L 349.9,245.3 L 360.8,253.8 L 371.3,262.4 L 381.2,270.9 L 390.7,279.4 L 399.6,287.9 L 408.0,296.2 L 415.7,304.4 L 422.8,312.6 L 429.3,320.6 L 435.1,328.5 L 440.1,336.3 L 444.5,343.9 L 448.1,351.4 L 451.0,358.6 L 453.1,365.7 L 454.4,372.6 L 455.0,379.2 L 454.8,385.7 L 453.8,391.9 L 452.0,397.8 L 449.5,403.6 L 446.3,409.0 L 442.3,414.2 L 437.5,419.1 L 432.1,423.7 L 426.0,428.0 L 419.1,432.0 L 411.7,435.8 L 403.6,439.2 L 395.0,442.2 L 385.8,445.0 L 376.0,447.4 L 365.8,449.5 L 355.1,451.3 L 344.0,452.7 L 332.5,453.8 L 320.7,454.5 L 308.6,454.9 L 296.3,455.0 L 283.8,454.7 L 271.1,454.1 L 258.2,453.1 L 245.4,451.8 L 232.5,450.1 L 219.6,448.1 L 206.8,445.8 L 194.1,443.1 L 181.6,440.2 L 169.3,436.9 L 157.3,433.3 L 145.5,429.3 L 134.1,425.1 L 123.1,420.6 L 112.5,415.8 L 102.3,410.7 L 92.7,405.3 L 83.5,399.7 L 75.0,393.8 L 67.0,387.7 L 59.7,381.3 L 53.0,374.7 L 46.9,367.9 L 41.6,360.9 L 37.0,353.7 L 33.1,346.3 L 30.0,338.7 L 27.6,331.0 L 26.0,323.2 L 25.1,315.2 L 25.1,307.1 L 25.8,298.8 L 27.2,290.5 L 29.5,282.1 L 32.5,273.6 L 36.2,265.1 L 40.7,256.6 L 45.9,248.0 L 51.8,239.4 L 58.3,230.8 L 65.6,222.2 L 73.4,213.7 L 81.9,205.1 L 90.9,196.7 L 100.4,188.3 L 110.5,180.0 L 121.0,171.8" stroke="hsla(2,80%,70%,0.25)" stroke-width="1.2" fill="none"/>
<path d="M 132.0,163.7 L 143.3,155.7 L 155.0,147.9 L 167.0,140.2 L 179.2,132.6 L 191.7,125.3 L 204.4,118.1 L 217.1,111.1 L 230.0,104.3 L 242.9,97.8 L 255.8,91.4 L 268.6,85.3 L 281.3,79.5 L 293.9,73.9 L 306.3,68.6 L 318.4,63.5 L 330.3,58.8 L 341.8,54.3 L 353.0,50.1 L 363.8,46.2 L 374.1,42.6 L 383.9,39.4 L 393.3,36.5 L 402.0,33.9 L 410.2,31.6 L 417.8,29.6 L 424.7,28.0 L 431.0,26.8 L 436.5,25.8 L 441.4,25.2 L 445.6,25.0 L 449.0,25.1 L 451.6,25.6 L 453.5,26.3 L 454.6,27.5 L 455.0,29.0 L 454.6,30.8 L 453.4,32.9 L 451.4,35.4 L 448.7,38.2 L 445.2,41.3 L 441.0,44.8 L 436.1,48.5 L 430.4,52.6 L 424.1,56.9 L 417.1,61.6 L 409.5,66.5 L 401.3,71.8 L 392.4,77.2 L 383.1,83.0 L 373.2,89.0 L 362.8,95.2 L 352.0,101.7 L 340.8,108.4 L 329.3,115.3 L 317.4,122.4 L 305.2,129.7 L 292.8,137.2 L 280.2,144.8 L 267.5,152.6 L 254.6,160.5 L 241.7,168.6 L 228.9,176.7 L 216.0,185.0 L 203.2,193.3 L 190.6,201.8 L 178.1,210.3 L 165.9,218.8 L 153.9,227.4 L 142.3,236.0 L 131.0,244.6 L 120.0,253.2 L 109.6,261.7 L 99.5,270.3 L 90.0,278.8 L 81.1,287.2 L 72.7,295.5 L 64.9,303.8 L 57.7,312.0 L 51.2,320.0 L 45.4,327.9 L 40.3,335.7 L 35.8,343.3 L 32.2,350.8 L 29.2,358.1 L 27.1,365.1 L 25.7,372.0 L 25.0,378.7 L 25.2,385.2 L 26.1,391.4 L 27.8,397.4 L 30.2,403.1 L 33.4,408.6 L 37.4,413.8 L 42.1,418.7 L 47.5,423.3 L 53.5,427.7 L 60.3,431.7 L 67.7,435.5 L 75.7,438.9 L 84.3,442.0 L 93.5,444.8 L 103.2,447.2 L 113.4,449.4 L 124.0,451.1 L 135.1,452.6 L 146.5,453.7 L 158.3,454.5 L 170.4,454.9 L 182.7,455.0 L 195.2,454.7 L 207.9,454.1 L 220.7,453.2 L 233.6,451.9 L 246.5,450.3 L 259.4,448.3 L 272.2,446.0 L 284.9,443.4 L 297.4,440.4 L 309.7,437.1 L 321.8,433.6 L 333.6,429.7 L 345.0,425.5 L 356.1,421.0 L 366.7,416.2 L 376.9,411.1 L 386.6,405.8 L 395.8,400.1 L 404.4,394.3 L 412.4,388.2 L 419.8,381.8 L 426.5,375.2 L 432.6,368.5 L 438.0,361.5 L 442.7,354.3 L 446.6,346.9 L 449.8,339.3 L 452.2,331.6 L 453.9,323.8 L 454.8,315.8 L 455.0,307.7 L 454.3,299.5 L 452.9,291.2 L 450.7,282.8 L 447.8,274.3 L 444.1,265.8 L 439.7,257.3 L 434.6,248.7 L 428.7,240.1 L 422.2,231.5 L 415.0,222.9 L 407.2,214.3 L 398.8,205.8 L 389.9,197.4 L 380.4,189.0 L 370.3,180.7 L 359.9,172.4 L 348.9,164.3 L 337.6,156.3 L 326.0,148.5 L 314.0,140.8 L 301.7,133.2 L 289.3,125.9 L 276.7,118.7 L 263.9,111.7 L 251.0,104.9 L 238.1,98.3 L 225.2,91.9 L 212.4,85.8 L 199.7,80.0 L 187.1,74.3 L 174.7,69.0 L 162.5,63.9 L 150.6,59.1 L 139.1,54.6 L 127.9,50.4 L 117.1,46.5 L 106.7,42.9 L 96.8,39.6 L 87.5,36.7 L 78.7,34.0 L 70.4,31.7 L 62.8,29.8 L 55.8,28.1 L 49.5,26.8 L 43.9,25.9 L 38.9,25.3 L 34.7,25.0 L 31.3,25.1 L 28.6,25.5 L 26.6,26.3 L 25.4,27.4 L 25.0,28.8 L 25.4,30.6 L 26.5,32.7 L 28.4,35.2 L 31.1,38.0 L 34.5,41.1 L 38.6,44.5 L 43.5,48.2 L 49.1,52.2 L 55.4,56.6 L 62.3,61.2 L 69.9,66.1 L 78.1,71.3 L 86.8,76.8 L 96.2,82.5 L 106.0,88.5 L 116.3,94.7 L 127.1,101.2 L 138.3,107.9 L 149.8,114.7 L 161.7,121.8 L 173.8,129.1 L 186.2,136.6 L 198.8,144.2 L 211.5,152.0 L 224.3,159.9 L 237.2,167.9 L 250.1,176.1 L 263.0,184.3 L 275.8,192.7 L 288.4,201.1 L 300.9,209.6 L 313.1,218.1 L 325.1,226.7 L 336.8,235.3 L 348.2,243.9 L 359.1,252.5 L 369.6,261.1 L 379.7,269.6 L 389.2,278.1 L 398.2,286.5 L 406.7,294.9 L 414.5,303.1 L 421.7,311.3 L 428.3,319.4 L 434.2,327.3 L 439.4,335.1 L 443.8,342.7 L 447.6,350.2 L 450.6,357.5 L 452.8,364.6 L 454.2,371.5 L 454.9,378.2 L 454.9,384.7 L 454.0,390.9 L 452.4,396.9 L 450.0,402.7 L 446.8,408.2 L 443.0,413.4 L 438.3,418.3 L 433.0,423.0 L 427.0,427.4 L 420.3,431.4 L 412.9,435.2 L 405.0,438.6 L 396.4,441.8 L 387.3,444.6 L 377.6,447.1 L 367.4,449.2 L 356.8,451.0 L 345.8,452.5 L 334.4,453.6 L 322.6,454.4 L 310.6,454.9 L 298.3,455.0 L 285.8,454.8 L 273.1,454.2 L 260.3,453.3 L 247.4,452.0 L 234.5,450.4 L 221.6,448.5 L 208.8,446.2 L 196.1,443.6 L 183.6,440.7 L 171.2,437.4 L 159.2,433.9 L 147.4,430.0 L 135.9,425.8 L 124.8,421.3 L 114.1,416.6 L 103.9,411.5 L 94.2,406.2 L 84.9,400.6 L 76.3,394.8 L 68.2,388.7 L 60.8,382.3 L 54.0,375.8 L 47.9,369.0 L 42.4,362.0 L 37.7,354.8 L 33.7,347.5 L 30.4,340.0 L 27.9,332.3 L 26.2,324.4 L 25.2,316.4 L 25.0,308.4 L 25.6,300.1 L 26.9,291.8 L 29.1,283.5 L 31.9,275.0 L 35.6,266.5 L 39.9,257.9 L 45.0,249.4 L 50.8,240.8 L 57.2,232.2 L 64.4,223.6 L 72.1,215.0 L 80.5,206.5 L 89.4,198.0 L 98.9,189.6 L 108.8,181.3 L 119.3,173.1 L 130.2,165.0 L 141.5,157.0 L 153.1,149.1 L 165.1,141.4 L 177.3,133.8 L 189.7,126.4 L 202.3,119.2 L 215.1,112.2 L 227.9,105.4 L 240.8,98.8 L 253.7,92.4 L 266.6,86.3 L 279.3,80.4 L 291.9,74.8 L 304.3,69.4 L 316.5,64.3 L 328.4,59.5 L 340.0,55.0 L 351.3,50.7 L 362.1,46.8 L 372.5,43.2 L 382.4,39.9 L 391.8,36.9 L 400.7,34.2 L 408.9,31.9 L 416.6,29.9 L 423.6,28.3 L 430.0,26.9 L 435.7,26.0 L 440.7,25.3 L 445.0,25.0 L 448.5,25.1 L 451.3,25.5 L 453.3,26.2 L 454.5,27.3 L 455.0,28.7 L 454.7,30.5 L 453.6,32.5 L 451.8,35.0 L 449.2,37.7 L 445.8,40.8 L 441.7,44.2 L 436.9,47.9 L 431.4,51.9 L 425.2,56.2 L 418.3,60.8 L 410.8,65.7 L 402.6,70.9 L 393.9,76.3 L 384.6,82.1 L 374.8,88.0 L 364.5,94.2 L 353.8,100.7 L 342.6,107.3 L 331.1,114.2 L 319.3,121.3 L 307.2,128.5 L 294.8,136.0 L 282.2,143.6 L 269.5,151.3 L 256.7,159.2 L 243.8,167.3 L 230.9,175.4 L 218.0,183.7 L 205.3,192.0 L 192.6,200.4 L 180.1,208.9 L 167.8,217.4 L 155.8,226.0 L 144.1,234.6 L 132.7,243.2 L 121.8,251.8 L 111.2,260.4 L 101.1,268.9 L 91.5,277.4 L 82.5,285.8 L 74.0,294.2 L 66.1,302.5 L 58.8,310.7 L 52.2,318.7 L 46.3,326.7 L 41.0,334.5 L 36.5,342.1 L 32.7,349.6 L 29.7,356.9 L 27.4,364.0 L 25.8,370.9 L 25.1,377.7 L 25.1,384.2 L 25.9,390.4 L 27.5,396.4 L 29.8,402.2 L 32.9,407.7 L 36.7,413.0 L 41.3,417.9 L 46.5,422.6 L 52.5,427.0 L 59.2,431.1 L 66.5,434.9 L 74.4,438.4 L 82.9,441.5 L 92.0,444.4 L 101.6,446.9 L 111.7,449.0 L 122.3,450.9 L 133.3,452.4 L 144.7,453.6 L 156.4,454.4 L 168.4,454.9 L 180.7,455.0 L 193.2,454.8 L 205.9,454.2 L 218.7,453.3 L 231.6,452.1 L 244.5,450.5 L 257.3,448.6 L 270.2,446.4 L 282.9,443.8 L 295.4,440.9 L 307.8,437.7 L 319.9,434.1 L 331.7,430.3 L 343.2,426.1 L 354.3,421.7 L 365.1,416.9 L 375.3,411.9 L 385.1,406.6 L 394.3,401.1 L 403.0,395.2 L 411.1,389.2 L 418.6,382.8 L 425.5,376.3 L 431.7,369.6 L 437.2,362.6 L 442.0,355.4 L 446.0,348.1 L 449.3,340.6 L 451.9,332.9 L 453.7,325.1 L 454.7,317.1 L 455.0,309.0 L 454.5,300.8 L 453.2,292.5 L 451.1,284.1 L 448.3,275.7 L 444.8,267.2 L 440.5,258.6 L 435.4,250.0 L 429.7,241.4 L 423.3,232.8 L 416.2,224.3 L 408.5,215.7 L 400.2,207.2 L 391.3,198.7 L 381.9,190.3 L 372.0,182.0 L 361.6,173.7 L 350.7,165.6 L 339.4,157.6 L 327.8,149.7 L 315.9,142.0 L 303.7,134.4 L 291.3,127.0 L 278.7,119.8 L 265.9,112.8 L 253.1,105.9 L 240.2,99.3 L 227.3,92.9 L 214.4,86.8 L 201.7,80.9 L 189.1,75.2 L 176.6,69.8 L 164.4,64.7 L 152.5,59.9 L 140.9,55.3 L 129.6,51.1 L 118.8,47.1 L 108.3,43.5 L 98.4,40.1 L 88.9,37.1 L 80.0,34.4 L 71.7,32.1 L 64.0,30.1 L 56.9,28.4 L 50.5,27.0 L 44.7,26.0 L 39.7,25.4 L 35.4,25.0 L 31.8,25.1 L 28.9,25.4 L 26.9,26.1 L 25.6,27.2 L 25.0,28.6 L 25.3,30.3 L 26.3,32.4 L 28.0,34.8 L 30.6,37.5 L 33.9,40.5 L 37.9,43.9 L 42.7,47.6 L 48.2,51.6 L 54.3,55.9 L 61.2,60.5 L 68.6,65.3 L 76.7,70.5 L 85.4,75.9 L 94.6,81.6 L 104.4,87.5 L 114.6,93.7 L 125.3,100.1 L 136.5,106.8 L 147.9,113.6 L 159.8,120.7 L 171.9,127.9 L 184.2,135.4 L 196.8,143.0 L 209.5,150.7 L 222.3,158.6 L 235.2,166.6 L 248.1,174.8 L 260.9,183.0 L 273.7,191.3 L 286.4,199.8 L 298.9,208.2 L 311.2,216.8 L 323.2,225.3 L 335.0,233.9 L 346.4,242.5 L 357.4,251.1 L 368.0,259.7 L 378.1,268.2 L 387.7,276.7 L 396.8,285.2 L 405.4,293.5 L 413.3,301.8 L 420.6,310.0 L 427.3,318.1 L 433.3,326.0 L 438.6,333.8 L 443.2,341.5 L 447.0,349.0 L 450.1,356.3 L 452.5,363.5 L 454.1,370.4 L 454.9,377.1 L 454.9,383.6 L 454.2,389.9 L 452.7,396.0 L 450.4,401.8 L 447.4,407.3 L 443.6,412.6 L 439.1,417.6 L 433.9,422.3 L 428.0,426.7 L 421.4,430.8 L 414.1,434.6 L 406.3,438.1 L 397.8,441.3 L 388.7,444.1 L 379.2,446.7 L 369.1,448.9 L 358.6,450.8 L 347.6,452.3 L 336.2,453.5 L 324.5,454.3 L 312.5,454.8 L 300.3,455.0 L 287.8,454.8 L 275.1,454.3 L 262.3,453.4 L 249.5,452.2 L 236.6,450.7 L 223.7,448.8 L 210.9,446.6 L 198.1,444.0 L 185.6,441.1 L 173.2,438.0 L 161.1,434.4 L 149.2,430.6 L 137.7,426.5 L 126.5,422.1 L 115.8,417.3 L 105.5,412.3 L 95.7,407.1 L 86.4,401.5 L 77.6,395.7" stroke="hsla(28,80%,70%,0.25)" stroke-width="1.2" fill="none"/>
<path d="M 69.5,389.7 L 61.9,383.4 L 55.0,376.8 L 48.8,370.1 L 43.2,363.1 L 38.4,356.0 L 34.3,348.7 L 30.9,341.2 L 28.3,333.5 L 26.4,325.7 L 25.3,317.7 L 25.0,309.6 L 25.5,301.5 L 26.7,293.2 L 28.7,284.8 L 31.4,276.4 L 34.9,267.8 L 39.2,259.3 L 44.1,250.7 L 49.8,242.1 L 56.2,233.5 L 63.2,224.9 L 70.8,216.4 L 79.1,207.8 L 87.9,199.4 L 97.3,191.0 L 107.2,182.6 L 117.6,174.4 L 128.4,166.3 L 139.6,158.2 L 151.2,150.4 L 163.1,142.6 L 175.3,135.0 L 187.7,127.6 L 200.3,120.4 L 213.1,113.3 L 225.9,106.5 L 238.8,99.8 L 251.7,93.4 L 264.5,87.3 L 277.3,81.3 L 289.9,75.7 L 302.4,70.2 L 314.6,65.1 L 326.6,60.2 L 338.2,55.7 L 349.5,51.4 L 360.4,47.4 L 370.9,43.7 L 380.9,40.4 L 390.3,37.4 L 399.3,34.6 L 407.7,32.3 L 415.4,30.2 L 422.6,28.5 L 429.0,27.1 L 434.8,26.1 L 439.9,25.4 L 444.3,25.0 L 448.0,25.0 L 450.9,25.4 L 453.0,26.1 L 454.4,27.1 L 455.0,28.4 L 454.8,30.1 L 453.8,32.2 L 452.1,34.6 L 449.6,37.3 L 446.4,40.3 L 442.4,43.6 L 437.7,47.3 L 432.3,51.2 L 426.2,55.5 L 419.4,60.1 L 412.0,64.9 L 403.9,70.1 L 395.3,75.5 L 386.1,81.1 L 376.4,87.0 L 366.2,93.2 L 355.5,99.6 L 344.4,106.2 L 333.0,113.1 L 321.2,120.1 L 309.1,127.4 L 296.8,134.8 L 284.2,142.3 L 271.5,150.1 L 258.7,158.0 L 245.9,166.0 L 233.0,174.1 L 220.1,182.3 L 207.3,190.7 L 194.6,199.1 L 182.1,207.6 L 169.8,216.1 L 157.7,224.6 L 145.9,233.2 L 134.5,241.8 L 123.5,250.4 L 112.9,259.0 L 102.7,267.6 L 93.0,276.1 L 83.9,284.5 L 75.3,292.9 L 67.3,301.2 L 59.9,309.4 L 53.2,317.4 L 47.2,325.4 L 41.8,333.2 L 37.2,340.9 L 33.3,348.4 L 30.1,355.8 L 27.7,362.9 L 26.0,369.9 L 25.2,376.6 L 25.1,383.1 L 25.7,389.4 L 27.2,395.5 L 29.4,401.3 L 32.3,406.9 L 36.0,412.2 L 40.5,417.2 L 45.7,421.9 L 51.5,426.3 L 58.1,430.5 L 65.3,434.3 L 73.1,437.8 L 81.5,441.0 L 90.5,443.9 L 100.0,446.5 L 110.1,448.7 L 120.6,450.6 L 131.5,452.2 L 142.9,453.4 L 154.5,454.3 L 166.5,454.8 L 178.8,455.0 L 191.2,454.8 L 203.9,454.4 L 216.6,453.5 L 229.5,452.3 L 242.4,450.8 L 255.3,449.0 L 268.1,446.8 L 280.9,444.2 L 293.4,441.4 L 305.8,438.2 L 318.0,434.7 L 329.9,430.9 L 341.4,426.8 L 352.6,422.4 L 363.4,417.7 L 373.7,412.7 L 383.6,407.5 L 392.9,402.0 L 401.7,396.2 L 409.9,390.1 L 417.5,383.9 L 424.4,377.4 L 430.7,370.6 L 436.3,363.7 L 441.2,356.6 L 445.4,349.3 L 448.9,341.8 L 451.5,334.1 L 453.5,326.3 L 454.6,318.4 L 455.0,310.3 L 454.6,302.1 L 453.4,293.8 L 451.5,285.5 L 448.8,277.0 L 445.4,268.5 L 441.2,260.0 L 436.3,251.4 L 430.7,242.8 L 424.4,234.2 L 417.4,225.6 L 409.8,217.1 L 401.6,208.5 L 392.8,200.0 L 383.4,191.6 L 373.6,183.3 L 363.2,175.0 L 352.5,166.9 L 341.3,158.9 L 329.7,151.0 L 317.8,143.2 L 305.7,135.6 L 293.3,128.2 L 280.7,120.9 L 268.0,113.9 L 255.1,107.0 L 242.2,100.4 L 229.3,93.9 L 216.5,87.7 L 203.7,81.8 L 191.1,76.1 L 178.6,70.7 L 166.4,65.5 L 154.4,60.6 L 142.7,56.0 L 131.4,51.7 L 120.5,47.7 L 110.0,44.0 L 99.9,40.6 L 90.4,37.6 L 81.4,34.9 L 73.0,32.4 L 65.2,30.4 L 58.0,28.6 L 51.4,27.2 L 45.6,26.2 L 40.4,25.4 L 36.0,25.1 L 32.3,25.0 L 29.3,25.3 L 27.1,26.0 L 25.7,27.0 L 25.0,28.3 L 25.2,30.0 L 26.0,32.0 L 27.7,34.4 L 30.1,37.0 L 33.3,40.0 L 37.2,43.3 L 41.9,47.0 L 47.2,50.9 L 53.3,55.2 L 60.0,59.7 L 67.4,64.5 L 75.4,69.6 L 84.0,75.0 L 93.1,80.7 L 102.8,86.6 L 113.0,92.7 L 123.6,99.1 L 134.7,105.7 L 146.1,112.5 L 157.9,119.5 L 169.9,126.8 L 182.2,134.2 L 194.8,141.7 L 207.4,149.5 L 220.2,157.3 L 233.1,165.3 L 246.0,173.5 L 258.9,181.7 L 271.7,190.0 L 284.4,198.4 L 296.9,206.9 L 309.3,215.4 L 321.3,224.0 L 333.1,232.5 L 344.6,241.1 L 355.7,249.7 L 366.3,258.3 L 376.5,266.9 L 386.2,275.4 L 395.4,283.8 L 404.1,292.2 L 412.1,300.5 L 419.5,308.7 L 426.3,316.8 L 432.4,324.8 L 437.8,332.6 L 442.5,340.3 L 446.5,347.8 L 449.7,355.2 L 452.2,362.3 L 453.9,369.3 L 454.8,376.1 L 455.0,382.6 L 454.4,388.9 L 453.0,395.0 L 450.8,400.9 L 447.9,406.4 L 444.3,411.7 L 439.9,416.8 L 434.8,421.5 L 429.0,426.0 L 422.5,430.2 L 415.3,434.0 L 407.6,437.6 L 399.2,440.8 L 390.2,443.7 L 380.7,446.3 L 370.7,448.6 L 360.3,450.5 L 349.4,452.1 L 338.1,453.3 L 326.4,454.2 L 314.4,454.8 L 302.2,455.0 L 289.8,454.9 L 277.1,454.4 L 264.4,453.6 L 251.5,452.4 L 238.6,450.9 L 225.7,449.1 L 212.9,446.9 L 200.2,444.5 L 187.6,441.6 L 175.1,438.5 L 163.0,435.0 L 151.1,431.2 L 139.5,427.2 L 128.3,422.8 L 117.5,418.1 L 107.1,413.2 L 97.2,407.9 L 87.8,402.4 L 79.0,396.6 L 70.7,390.6 L 63.1,384.4 L 56.1,377.9 L 49.7,371.2 L 44.1,364.3 L 39.1,357.2 L 34.9,349.8 L 31.4,342.4 L 28.6,334.7 L 26.7,326.9 L 25.4,319.0 L 25.0,310.9 L 25.3,302.8 L 26.4,294.5 L 28.3,286.1 L 30.9,277.7 L 34.3,269.2 L 38.5,260.7 L 43.3,252.1 L 48.9,243.5 L 55.1,234.9 L 62.0,226.3 L 69.6,217.7 L 77.7,209.2 L 86.5,200.7 L 95.8,192.3 L 105.6,184.0 L 115.9,175.7 L 126.7,167.5 L 137.8,159.5 L 149.4,151.6 L 161.2,143.8 L 173.4,136.2 L 185.7,128.8 L 198.3,121.5 L 211.0,114.4 L 223.8,107.5 L 236.7,100.9 L 249.6,94.4 L 262.5,88.2 L 275.3,82.3 L 287.9,76.5 L 300.4,71.1 L 312.7,65.9 L 324.7,61.0 L 336.4,56.4 L 347.7,52.1 L 358.7,48.0 L 369.2,44.3 L 379.3,40.9 L 388.9,37.8 L 397.9,35.1 L 406.4,32.6 L 414.2,30.5 L 421.5,28.8 L 428.1,27.3 L 434.0,26.2 L 439.2,25.5 L 443.7,25.1 L 447.4,25.0 L 450.5,25.3 L 452.7,25.9 L 454.2,26.9 L 454.9,28.2 L 454.9,29.9 L 454.1,31.8 L 452.5,34.2 L 450.1,36.8 L 447.0,39.8 L 443.1,43.1 L 438.5,46.7 L 433.2,50.6 L 427.2,54.8 L 420.5,59.3 L 413.2,64.1 L 405.3,69.2 L 396.7,74.6 L 387.6,80.2 L 378.0,86.1 L 367.8,92.2 L 357.2,98.6 L 346.2,105.2 L 334.8,112.0 L 323.1,119.0 L 311.0,126.2 L 298.8,133.6 L 286.2,141.1 L 273.6,148.8 L 260.8,156.7 L 247.9,164.7 L 235.0,172.8 L 222.1,181.0 L 209.3,189.3 L 196.6,197.7 L 184.1,206.2 L 171.7,214.7 L 159.6,223.3 L 147.8,231.9 L 136.3,240.5 L 125.2,249.1 L 114.5,257.6 L 104.3,266.2 L 94.5,274.7 L 85.3,283.2 L 76.6,291.6 L 68.5,299.9 L 61.1,308.1 L 54.2,316.2 L 48.1,324.1 L 42.6,332.0 L 37.9,339.7 L 33.8,347.2 L 30.5,354.6 L 28.0,361.8 L 26.2,368.8 L 25.2,375.5 L 25.0,382.1 L 25.6,388.5 L 26.9,394.6 L 29.0,400.4 L 31.8,406.0 L 35.4,411.3 L 39.7,416.4 L 44.8,421.2 L 50.5,425.6 L 57.0,429.8 L 64.1,433.7 L 71.8,437.3 L 80.1,440.6 L 89.0,443.5 L 98.5,446.1 L 108.5,448.4 L 118.9,450.3 L 129.8,451.9 L 141.0,453.2 L 152.7,454.2 L 164.6,454.7 L 176.8,455.0 L 189.2,454.9 L 201.9,454.5 L 214.6,453.7 L 227.5,452.5 L 240.3,451.1 L 253.2,449.3 L 266.1,447.1 L 278.8,444.7 L 291.4,441.9 L 303.9,438.7 L 316.1,435.3 L 328.0,431.6 L 339.6,427.5 L 350.8,423.1 L 361.7,418.5 L 372.1,413.6 L 382.0,408.3 L 391.5,402.9 L 400.3,397.1 L 408.6,391.1 L 416.3,384.9 L 423.4,378.4 L 429.8,371.7 L 435.5,364.8 L 440.5,357.7 L 444.8,350.4 L 448.4,343.0 L 451.2,335.3 L 453.2,327.6 L 454.5,319.6 L 455.0,311.6 L 454.7,303.4 L 453.7,295.2 L 451.9,286.8 L 449.3,278.4 L 446.0,269.9 L 441.9,261.3 L 437.1,252.8 L 431.6,244.2 L 425.4,235.6 L 418.6,227.0 L 411.1,218.4 L 402.9,209.9 L 394.2,201.4 L 385.0,193.0 L 375.2,184.6 L 364.9,176.3 L 354.2,168.2 L 343.1,160.1 L 331.6,152.2 L 319.7,144.4 L 307.6,136.8 L 295.3,129.4 L 282.7,122.1 L 270.0,115.0 L 257.2,108.1 L 244.3,101.4 L 231.4,94.9 L 218.5,88.7 L 205.7,82.7 L 193.1,77.0 L 180.6,71.5 L 168.3,66.3 L 156.3,61.4 L 144.5,56.7 L 133.2,52.4 L 122.2,48.3 L 111.6,44.6 L 101.5,41.2 L 91.9,38.1 L 82.8,35.3 L 74.3,32.8 L 66.4,30.7 L 59.1,28.9 L 52.4,27.4 L 46.5,26.3 L 41.2,25.5 L 36.7,25.1 L 32.8,25.0 L 29.8,25.3 L 27.4,25.9 L 25.9,26.8 L 25.1,28.1 L 25.1,29.7 L 25.9,31.7 L 27.4,34.0 L 29.7,36.6 L 32.7,39.5 L 36.5,42.8 L 41.1,46.4 L 46.3,50.3 L 52.3,54.5 L 58.9,59.0 L 66.2,63.7 L 74.1,68.8 L 82.6,74.1 L 91.6,79.8 L 101.2,85.6 L 111.3,91.7 L 121.9,98.1 L 132.9,104.6 L 144.3,111.4 L 156.0,118.4 L 168.0,125.6 L 180.3,133.0 L 192.8,140.5 L 205.4,148.2 L 218.2,156.1 L 231.1,164.1 L 244.0,172.2 L 256.8,180.4 L 269.7,188.7 L 282.4,197.1 L 294.9,205.5 L 307.3,214.0 L 319.4,222.6 L 331.3,231.2 L 342.8,239.8 L 353.9,248.4 L 364.6,257.0 L 374.9,265.5 L 384.7,274.0 L 394.0,282.5 L 402.7,290.9 L 410.9,299.2 L 418.4,307.4 L 425.2,315.5 L 431.5,323.5 L 437.0,331.4 L 441.8,339.1 L 445.9,346.6 L 449.2,354.0 L 451.8,361.2 L 453.6,368.2 L 454.7,375.0 L 455.0,381.6 L 454.5,388.0 L 453.3,394.1 L 451.2,399.9 L 448.4,405.6 L 444.9,410.9 L 440.6,416.0 L 435.6,420.8 L 429.9,425.3 L 423.6,429.5 L 416.5,433.4 L 408.8,437.0 L 400.6,440.3" stroke="hsla(54,80%,70%,0.25)" stroke-width="1.2" fill="none"/>
</svg>