<svg xmlns="http://www.w3.org/2000/svg" viewBox="0 0 400 300" width="400" height="300">
  <rect width="400" height="300" fill="#0a0a0f"/>
  <polyline points="310.0,227.8 222.4,105.1 401.5,149.1 213.6,143.9 215.0,183.9 317.2,142.9 86.6,74.5 185.8,267.2 190.3,113.9 0.4,34.3 177.3,334.0 92.5,73.8 10.0,28.6 214.1,367.0 68.6,39.4 117.7,52.2 280.8,357.6 113.0,27.2 268.7,91.2 329.4,308.4 180.4,47.6 382.9,128.4 312.7,232.3 221.2,101.2 402.1,148.7 221.0,149.0 216.3,178.4 323.3,144.0 95.0,78.7 187.6,261.2 198.1,116.5 5.1,36.8 176.8,329.0 97.5,77.0 8.0,29.1 210.5,364.3 68.9,42.1 109.7,51.0 275.9,357.6 109.8,28.2 259.0,89.2 326.8,311.0 176.7,46.2 376.7,126.7 315.1,236.7 219.8,97.5 402.2,148.1 228.1,153.9 217.6,173.0 329.2,145.1 103.5,83.0 189.4,255.3 205.8,119.0 10.1,39.4 176.5,324.1 102.9,80.1 6.4,29.7 207.0,361.4 69.5,44.7 102.0,49.9 271.1,357.4 106.7,29.3 249.3,87.2 324.0,313.5 173.1,45.0 370.1,124.9 317.1,241.0 218.3,94.0 402.0,147.5 235.0,158.9 218.7,167.7 334.7,146.1 111.9,87.3 191.2,249.5 213.5,121.4 15.3,42.1 176.3,319.0 108.4,83.2 5.2,30.4 203.8,358.3 70.5,47.4 94.8,48.8 266.2,357.1 103.8,30.4 239.7,85.3 320.9,315.7 169.4,44.0 363.2,123.1 318.8,245.2 216.6,90.6 401.3,146.7 241.5,163.8 219.7,162.5 340.0,146.9 120.3,91.6 193.1,243.7 221.2,123.7 20.9,44.9 176.4,313.9 114.1,86.3 4.5,31.2 200.7,355.2 71.7,50.2 87.8,47.9 261.5,356.6 101.1,31.8 230.2,83.4 317.7,317.8 165.7,43.1 356.2,121.3 320.1,249.3 214.7,87.3 400.2,145.9 247.8,168.7 220.5,157.5 344.8,147.7 128.6,96.0 194.9,237.9 228.7,125.9 26.7,47.8 176.6,308.8 119.9,89.3 4.2,32.2 197.9,351.9 73.2,52.9 81.3,47.1 256.7,355.9 98.6,33.2 220.8,81.5 314.3,319.8 161.9,42.3 348.9,119.4 321.1,253.2 212.7,84.3 398.7,145.0 253.8,173.4 221.2,152.6 349.4,148.3 136.9,100.4 196.8,232.3 236.2,128.0 32.7,50.8 177.0,303.7 125.9,92.3 4.4,33.2 195.3,348.5 74.9,55.7 75.1,46.3 252.1,355.0 96.4,34.7 211.4,79.7 310.8,321.5 158.2,41.8 341.4,117.6 321.7,257.0 210.6,81.4 396.8,144.1 259.4,178.2 221.7,147.8 353.6,148.9 145.0,104.8 198.6,226.6 243.5,130.1 39.0,53.8 177.6,298.5 132.1,95.2 4.9,34.4 192.9,345.0 77.0,58.5 69.3,45.7 247.5,354.0 94.3,36.3 202.3,78.0 307.1,323.1 154.6,41.3 333.7,115.7 322.1,260.7 208.3,78.6 394.6,143.1 264.7,182.9 222.1,143.2 357.4,149.3 153.1,109.3 200.5,221.1 250.7,132.0 45.4,57.0 178.2,293.3 138.4,98.1 5.9,35.6 190.7,341.4 79.3,61.3 63.9,45.2 243.1,352.8 92.4,38.0 193.2,76.3 303.3,324.6 150.9,41.0 325.9,113.8 322.1,264.2 205.9,76.1 391.9,142.0 269.7,187.5 222.3,138.7 360.9,149.6 161.0,113.7 202.2,215.6 257.7,133.8 52.0,60.2 179.1,288.1 144.8,100.9 7.3,37.0 188.7,337.7 81.9,64.2 58.9,44.8 238.8,351.5 90.8,39.7 184.4,74.6 299.3,325.8 147.3,40.9 317.9,111.9 321.8,267.6 203.3,73.6 388.9,140.8 274.4,192.0 222.4,134.3 364.0,149.8 168.8,118.2 204.0,210.1 264.6,135.5 58.8,63.5 180.0,282.9 151.3,103.6 9.0,38.5 186.9,333.9 84.7,67.0 54.3,44.4 234.5,350.0 89.4,41.6 175.7,73.1 295.3,326.9 143.8,40.9 309.8,110.0 321.2,270.8 200.7,71.4 385.6,139.6 278.7,196.5 222.3,130.1 366.7,150.0 176.4,122.6 205.7,204.8 271.3,137.2 65.7,66.8 181.1,277.6 157.9,106.3 11.1,40.1 185.3,330.1 87.8,69.9 50.1,44.2 230.5,348.4 88.2,43.5 167.2,71.6 291.2,327.9 140.3,41.0 301.5,108.2 320.3,274.0 197.9,69.3 381.9,138.3 282.7,200.8 222.0,126.0 369.1,150.0 183.9,127.1 207.3,199.5 277.8,138.7 72.7,70.3 182.2,272.4 164.6,108.9 13.6,41.8 183.9,326.1 91.1,72.7 46.3,44.1 226.5,346.7 87.2,45.5 159.0,70.1 287.1,328.7 136.9,41.3 293.2,106.3 319.2,276.9 195.1,67.4 377.8,137.0 286.4,205.1 221.6,122.0 371.1,149.9 191.2,131.5 208.8,194.4 284.1,140.1 79.9,73.7 183.5,267.2 171.3,111.5 16.4,43.6 182.7,322.1 94.7,75.5 42.9,44.1 222.7,344.8 86.6,47.6 151.0,68.8 282.9,329.3 133.7,41.6 284.9,104.4 317.8,279.8 192.2,65.6 373.5,135.6 289.7,209.4 221.0,118.2 372.7,149.8 198.3,136.0 210.3,189.3 290.2,141.5 87.1,77.3 184.8,262.0 178.0,113.9 19.6,45.5 181.7,318.0 98.5,78.3 39.9,44.2 219.0,342.7 86.1,49.7 143.3,67.5 278.6,329.7 130.5,42.1 276.5,102.6 316.2,282.5 189.2,63.9 368.8,134.2 292.8,213.5 220.3,114.6 374.0,149.6 205.2,140.4 211.7,184.3 296.1,142.7 94.3,80.8 186.2,256.8 184.8,116.4 23.1,47.5 180.9,313.8 102.5,81.1 37.3,44.4 215.6,340.6 85.9,51.9 135.8,66.3 274.4,330.0 127.4,42.7 268.0,100.8 314.4,285.0 186.1,62.5 363.9,132.8 295.4,217.5 219.4,111.1 374.8,149.2 211.8,144.8 213.0,179.4 301.7,143.8 101.6,84.5 187.7,251.6 191.6,118.7 26.8,49.6 180.3,309.6 106.7,83.9 35.1,44.7 212.2,338.3 86.0,54.1 128.5,65.1 270.1,330.2 124.5,43.5 259.6,99.0 312.3,287.4 183.0,61.1 358.7,131.3 297.8,221.4 218.4,107.7 375.3,148.8 218.2,149.1 214.2,174.6 307.0,144.8 108.9,88.2 189.2,246.5 198.3,120.9 30.9,51.8 179.8,305.3 111.1,86.7 33.4,45.1 209.1,335.9 86.3,56.4 121.6,64.1 265.9,330.2 121.7,44.3 251.2,97.3 310.0,289.7 179.8,59.9 353.3,129.8 299.9,225.3 217.2,104.4 375.5,148.4 224.4,153.4 215.3,169.9 312.1,145.8 116.3,91.9 190.8,241.4 205.1,123.1 35.2,54.0 179.6,301.0 115.7,89.4 32.0,45.6 206.1,333.4 86.8,58.7 115.0,63.1 261.6,330.0 119.1,45.2 242.8,95.5 307.6,291.8 176.6,58.9 347.6,128.2 301.6,229.0 215.8,101.4 375.2,147.8 230.4,157.7 216.2,165.3 316.9,146.6 123.6,95.6 192.4,236.3 211.8,125.2 39.8,56.4 179.5,296.6 120.5,92.1 31.0,46.2 203.3,330.7 87.6,61.0 108.7,62.2 257.5,329.7 116.6,46.3 234.4,93.8 304.9,293.8 173.4,58.0 341.6,126.7 303.1,232.6 214.4,98.4 374.6,147.2 236.1,162.0 217.1,160.9 321.4,147.3 130.8,99.4 194.0,231.3 218.4,127.2 44.6,58.8 179.5,292.2 125.4,94.7 30.4,46.9 200.6,328.0 88.7,63.4 102.7,61.4 253.3,329.2 114.2,47.4 226.2,92.2 302.1,295.6 170.2,57.2 335.5,125.1 304.2,236.1 212.8,95.6 373.7,146.5 241.5,166.2 217.8,156.5 325.7,148.0 138.1,103.2 195.6,226.3 224.9,129.1 49.6,61.3 179.7,287.8 130.5,97.4 30.1,47.8 198.2,325.2 90.0,65.8 97.0,60.7 249.2,328.6 112.1,48.6 218.0,90.6 299.2,297.3 167.0,56.6 329.2,123.5 305.1,239.5 211.0,93.0 372.4,145.7 246.7,170.4 218.4,152.2 329.6,148.5 145.2,107.0 197.2,221.4 231.4,131.0 54.9,63.9 180.1,283.3 135.8,99.9 30.3,48.7" fill="none" stroke="rgba(220,200,255,0.18)" stroke-width="0.7" stroke-linejoin="round"/>
  <polyline points="195.9,322.2 361.5,149.7 245.2,327.9 286.8,142.6 296.1,298.8 182.7,117.6 305.6,242.8 107.3,84.6 251.5,174.5 93.8,57.6 152.3,110.8 133.8,49.8 60.3,66.6 188.5,69.1 30.7,49.7 218.5,115.3 86.6,59.5 211.5,179.7 201.9,87.5 187.9,247.1 316.0,120.2 181.9,300.6 368.8,144.0 212.9,326.5 336.6,149.4 267.3,317.8 244.0,134.4 305.6,276.9 146.6,105.0 290.1,214.7 95.3,73.1 214.0,147.2 106.6,52.8 111.8,90.7 157.4,55.5 40.6,57.5 205.1,85.8 45.6,52.1 219.3,140.2 130.2,70.5 202.0,206.9 251.6,101.7 181.8,269.8 345.3,131.9 190.2,312.9 363.4,148.7 233.6,324.8 302.1,145.6 286.2,302.6 201.6,123.9 305.7,252.0 119.3,92.3 264.5,186.5 94.3,63.8 173.0,122.4 125.8,52.0 77.5,74.9 179.7,65.6 34.3,53.3 215.4,106.1 73.6,58.4 214.7,166.4 178.9,83.3 192.2,232.7 295.2,115.3 180.9,288.6 361.0,141.0 204.3,319.6 344.7,150.0 255.5,317.5 261.9,138.9 299.0,283.0 163.5,112.1 295.4,225.3 102.6,80.5 231.0,159.2 103.0,57.6 132.2,101.1 148.2,55.4 53.0,63.9 198.2,80.0 42.2,53.7 219.1,129.2 112.1,67.9 206.3,193.0 228.2,96.9 184.6,256.2 329.1,127.5 186.0,302.8 362.3,147.0 223.0,320.6 315.1,147.8 275.5,305.0 220.2,129.7 303.4,260.2 132.9,99.8 275.0,197.9 96.9,70.4 192.4,134.0 119.1,55.0 95.8,83.8 170.7,63.3 40.7,57.7 211.1,98.1 63.7,58.1 216.8,154.0 157.5,79.5 196.7,218.7 273.6,110.5 181.2,276.3 350.5,137.5 197.2,311.8 349.9,149.8 243.9,316.1 278.3,142.6 291.0,287.9 181.0,118.7 298.2,235.0 111.9,87.8 245.8,170.9 101.2,63.0 152.3,111.7 139.7,56.4 67.3,71.0 190.6,75.3 42.1,56.1 217.6,119.3 96.6,66.0 210.2,179.7 205.5,92.5 188.1,242.7 311.1,123.0 183.4,292.1 358.2,144.8 213.5,315.3 325.7,149.3 264.5,306.2 238.1,134.7 299.2,267.2 147.7,106.9 282.8,208.6 101.5,77.2 210.3,145.5 113.8,58.8 114.7,93.2 161.8,62.0 49.8,62.9 205.7,91.3 57.0,58.6 217.9,142.6 138.0,76.4 201.1,205.2 251.7,105.8 182.7,263.7 337.7,133.8 191.6,303.2 352.1,149.0 233.0,313.4 292.9,145.5 281.9,291.6 198.6,124.8 298.6,243.7 122.9,95.1 258.3,182.1 101.3,68.8 171.7,122.5 132.1,58.3 83.2,78.8 182.5,71.9 44.9,59.3 214.9,110.5 84.0,64.8 213.2,167.3 183.8,88.5 192.0,229.3 292.0,118.5 182.3,281.0 351.3,142.1 205.3,309.1 333.7,149.9 253.5,306.2 255.0,139.0 293.3,273.1 163.4,113.6 288.2,218.5 108.0,84.1 226.4,156.7 110.1,63.2 133.7,102.8 153.1,61.8 61.0,68.8 199.4,85.6 53.3,60.0 217.9,132.2 120.7,73.8 205.3,192.1 229.9,101.3 185.2,251.0 322.9,129.7 187.5,293.9 351.5,147.5 223.0,309.7 305.4,147.7 272.0,294.1 216.0,130.2 296.8,251.4 135.3,102.1 268.4,192.9 103.4,74.8 190.0,133.3 125.6,61.0 100.1,87.0 174.1,69.5 50.5,63.3 211.1,102.8 74.3,64.4 215.4,155.6 163.6,84.9 196.2,216.2 272.0,113.9 182.4,269.5 342.0,138.9 198.4,302.0 339.0,149.9 242.7,305.0 270.5,142.6 286.0,277.8 179.6,119.9 291.2,227.7 116.4,91.0 240.5,167.7 108.1,68.1 152.5,112.7 145.1,62.6 74.1,75.3 192.4,81.1 52.7,62.1 216.7,122.8 105.9,72.0 208.9,179.7 208.6,97.1 188.3,238.4 306.4,125.6 184.9,284.1 348.2,145.5 213.9,304.9 315.6,149.1 261.8,295.4 232.8,135.0 293.2,258.1 148.9,108.8 276.1,203.0 107.4,81.1 206.9,144.0 120.4,64.4 117.6,95.6 165.8,68.2 58.5,68.0 206.2,96.3 67.6,64.8 216.6,144.8 145.1,81.9 200.4,203.5 251.5,109.5 183.6,257.9 330.4,135.5 193.0,294.1 341.5,149.2 232.4,302.7 284.4,145.4 277.7,281.4 196.0,125.6 291.9,236.0 126.4,97.7 252.5,178.2 107.9,73.4 170.7,122.7 137.8,64.2 88.6,82.4 185.0,77.7 54.9,65.0 214.4,114.5 93.7,70.8 211.9,168.0 188.2,93.3 191.9,225.9 288.7,121.3 183.6,273.8 342.2,143.1 206.1,299.2 323.5,149.9 251.5,295.5 248.7,139.1 287.9,263.8 163.4,115.1 281.5,212.4 113.2,87.5 222.2,154.5 116.7,68.4 135.3,104.5 157.7,67.9 68.7,73.4 200.5,90.8 63.8,65.9 216.8,135.0 128.7,79.4 204.3,191.2 231.2,105.3 185.8,246.1 316.9,131.8 188.9,285.5 341.4,148.0 222.9,299.4 296.4,147.6 268.7,283.9 212.2,130.8 290.6,243.3 137.8,104.3 262.3,188.3 109.6,79.0 187.9,132.8 131.6,66.6 104.2,90.0 177.2,75.3 59.7,68.6 211.0,107.2 84.3,70.3 214.1,157.0 169.1,89.9 195.8,213.6 270.2,117.1 183.5,263.1 333.9,140.2 199.5,292.7 328.8,150.0 241.4,294.6 263.4,142.6 281.3,268.4 178.4,121.0 284.6,221.0 120.7,93.9 235.7,164.8 114.6,72.9 152.9,113.7 150.0,68.4 80.6,79.4 194.1,86.4 62.7,67.7 215.8,126.1 114.5,77.6 207.8,179.6 211.2,101.3 188.6,234.3 301.7,127.9 186.2,276.4 338.7,146.2 214.3,295.1 306.3,149.0 259.2,285.3 228.0,135.3 287.5,249.7 150.3,110.6 269.8,197.8 113.0,84.9 203.9,142.8 126.6,69.7 120.5,98.0 169.4,73.9 66.8,72.9 206.6,100.9 77.5,70.5 215.4,146.8 151.6,87.0 199.7,201.7 251.2,113.0 184.5,252.3 323.4,137.0 194.2,285.5 331.6,149.4 231.7,292.6 276.6,145.3 273.7,271.9 193.7,126.4 285.6,228.9 129.8,100.3 247.2,174.7 114.2,77.8 169.9,123.0 143.1,69.8 93.9,85.9 187.2,83.1 64.3,70.3 213.8,118.1 102.7,76.3 210.7,168.5 192.1,97.7 191.9,222.6 285.4,123.9 184.8,266.9 333.5,144.0 206.8,289.9 314.0,149.8 249.6,285.6 243.0,139.3 282.8,255.2 163.6,116.5 275.2,206.7 118.1,90.8 218.4,152.6 122.9,73.3 137.0,106.3 161.8,73.5 76.0,77.8 201.4,95.6 73.5,71.4 215.7,137.5 136.0,84.6 203.4,190.3 232.2,109.0 186.4,241.3 311.0,133.6 190.2,277.6 331.9,148.3 222.8,289.7 288.0,147.4 265.4,274.4 208.9,131.3 284.7,235.9 140.2,106.4 256.6,184.2 115.4,83.0 186.2,132.4 137.2,71.9 108.3,92.9 180.0,80.7 68.4,73.5 210.8,111.2 93.5,75.8 212.8,158.2 174.1,94.5 195.5,211.2 268.3,120.0 184.6,257.1 326.1,141.3 200.5,284.0 319.3,150.0 240.1,284.9 256.8,142.6 276.9,259.6 177.6,122.1 278.5,214.9 124.9,96.8 231.3,162.2 120.7,77.5 153.4,114.8 154.6,73.9 86.8,83.3 195.5,91.4 72.1,73.0 214.9,129.0 122.4,82.8 206.7,179.3 213.5,105.3 188.9,230.3 297.2,130.0 187.5,269.2 329.8,146.8 214.6,285.9 297.6,148.9 256.6,275.9 223.7,135.7 282.1,242.0 151.7,112.3 264.0,193.1 118.3,88.4 201.3,141.7 132.3,74.7 123.4,100.3 172.7,79.3 74.7,77.4 206.9,105.2 86.8,75.9 214.2,148.5 157.5,91.7 199.1,200.0 250.6,116.1 185.3,247.0 316.7,138.4 195.3,277.4 322.3,149.6 231.0,283.2 269.4,145.3 269.9,263.1 191.8,127.2 279.7,222.3 133.1,102.7 242.3,171.5 120.0,82.0 169.4,123.4 148.1,75.0" fill="none" stroke="rgba(220,200,255,0.22)" stroke-width="0.7" stroke-linejoin="round"/>
  <polyline points="99.1,89.3 185.8,243.6 159.8,116.1 73.2,75.3 193.9,275.0 121.2,92.1 111.1,81.5 228.1,282.5 129.7,76.8 195.5,101.8 267.4,264.0 167.9,78.8 282.2,126.3 279.7,224.6 203.8,101.7 325.3,144.7 245.6,174.5 214.6,142.6 305.1,149.7 174.6,126.3 201.5,192.8 237.8,139.4 103.4,91.4 186.3,240.2 164.0,117.9 74.1,76.2 192.6,272.6 122.9,94.0 107.8,81.3 225.3,281.6 128.6,78.0 189.7,100.8 264.9,264.9 165.6,78.7 276.9,125.1 279.5,226.8 202.1,100.1 323.4,144.0 248.6,177.5 214.6,139.7 307.1,149.9 179.7,129.3 202.6,189.2 242.3,140.6 107.8,93.5 187.0,236.8 168.3,119.7 75.3,77.2 191.4,270.1 124.7,95.8 104.8,81.0 222.5,280.6 127.7,79.2 184.1,99.7 262.2,265.6 163.3,78.7 271.6,123.9 279.2,229.0 200.4,98.6 321.2,143.2 251.4,180.4 214.5,137.0 308.9,150.0 184.7,132.2 203.7,185.8 246.6,141.6 112.3,95.7 187.6,233.3 172.6,121.5 76.7,78.2 190.4,267.6 126.7,97.7 102.1,80.9 219.9,279.6 127.0,80.5 178.6,98.8 259.6,266.2 161.0,78.8 266.3,122.7 278.6,231.0 198.6,97.3 318.8,142.4 254.0,183.2 214.4,134.3 310.5,150.0 189.5,135.1 204.8,182.3 250.9,142.6 116.9,97.9 188.4,229.9 176.9,123.2 78.3,79.3 189.5,265.0 128.9,99.5 99.6,80.8 217.3,278.4 126.3,81.8 173.2,97.8 256.8,266.7 158.8,79.0 260.8,121.4 277.9,232.9 196.8,96.0 316.1,141.5 256.4,186.0 214.1,131.7 311.8,150.0 194.3,138.0 205.8,178.9 255.0,143.6 121.6,100.2 189.2,226.5 181.3,124.9 80.1,80.5 188.7,262.4 131.2,101.4 97.4,80.8 214.8,277.2 125.9,83.1 167.9,96.9 254.1,267.1 156.7,79.2 255.4,120.2 277.0,234.8 194.9,94.8 313.3,140.6 258.6,188.8 213.7,129.2 312.8,149.9 198.9,140.9 206.7,175.6 259.0,144.4 126.3,102.5 190.1,223.1 185.7,126.5 82.2,81.8 188.1,259.7 133.7,103.2 95.4,80.9 212.4,275.9 125.6,84.5 162.9,96.1 251.3,267.4 154.6,79.5 249.9,119.0 275.9,236.6 192.9,93.8 310.3,139.7 260.6,191.5 213.2,126.8 313.6,149.7 203.4,143.7 207.7,172.4 262.8,145.2 131.0,104.9 191.0,219.7 190.1,128.0 84.5,83.1 187.5,257.0 136.3,105.0 93.7,81.0 210.1,274.5 125.5,85.9 158.0,95.3 248.6,267.6 152.6,79.9 244.4,117.9 274.7,238.2 190.9,92.8 307.0,138.7 262.4,194.1 212.7,124.5 314.2,149.5 207.8,146.6 208.5,169.2 266.4,146.0 135.8,107.2 192.0,216.4 194.5,129.6 86.9,84.4 187.1,254.2 139.1,106.8 92.3,81.2 208.0,273.0 125.5,87.4 153.3,94.6 245.8,267.7 150.7,80.4 238.9,116.7 273.3,239.8 188.9,91.9 303.6,137.8 263.9,196.7 212.0,122.3 314.5,149.2 212.0,149.4 209.3,166.0 269.9,146.6 140.6,109.6 193.0,213.0 199.0,131.0 89.6,85.9 186.8,251.4 142.0,108.6 91.1,81.5 205.9,271.4 125.7,88.8 148.8,93.9 243.0,267.7 148.8,81.0 233.4,115.5 271.8,241.3 186.8,91.2 300.1,136.8 265.3,199.2 211.2,120.2 314.6,148.9 216.0,152.3 210.0,163.0 273.3,147.2 145.4,112.1 194.0,209.7 203.4,132.4 92.4,87.3 186.7,248.6 145.0,110.4 90.2,81.8 203.9,269.8 126.1,90.4 144.4,93.2 240.2,267.6 147.1,81.6 227.9,114.4 270.2,242.7 184.7,90.5 296.3,135.8 266.4,201.6 210.3,118.2 314.5,148.6 219.9,155.1 210.6,160.0 276.4,147.8 150.1,114.5 195.0,206.3 207.7,133.8 95.4,88.9 186.6,245.8 148.1,112.2 89.6,82.2 202.1,268.0 126.6,91.9" fill="none" stroke="rgba(220,200,255,0.40)" stroke-width="0.9" stroke-linejoin="round"/>
</svg>