<svg xmlns="http://www.w3.org/2000/svg" viewBox="0 0 400 400" width="400" height="400">
  <rect width="400" height="400" fill="#06101e"/>
  <polyline points="200.0,110.0 206.7,110.9 212.8,113.6 217.9,117.8 221.5,123.1 223.5,129.0 223.6,135.1 222.0,140.7 218.9,145.3 214.6,148.6 209.7,150.3 204.6,150.2 199.9,148.4 196.1,145.2 193.6,140.8 192.6,135.8 193.3,130.6 195.7,125.8 199.5,121.9 204.4,119.2 210.0,118.1 215.7,118.6 221.1,120.7 225.6,124.3 228.8,128.9 230.6,134.2 230.7,139.6 229.2,144.7 226.4,148.9 222.4,152.0 217.9,153.5 213.1,153.5 208.8,152.0 205.2,149.0 202.8,145.1 201.9,140.5 202.5,135.8 204.7,131.4 208.2,127.8 212.7,125.4 217.8,124.5 223.0,125.1 227.8,127.2 231.8,130.6 234.7,135.0 236.1,140.0 236.0,145.1 234.4,149.8 231.5,153.8 227.7,156.5 223.2,157.8 218.7,157.6 214.5,156.0 211.2,153.1 209.0,149.2 208.3,144.8 209.0,140.3 211.2,136.2 214.6,132.9 219.0,130.8 223.9,130.1 228.8,130.9 233.3,133.2 237.0,136.6 239.5,141.0 240.6,145.9 240.2,150.9 238.4,155.4 235.3,159.1 231.4,161.6 226.9,162.6 222.4,162.2 218.4,160.4 215.2,157.3 213.2,153.4 212.6,149.0 213.5,144.5 215.8,140.5 219.3,137.4 223.7,135.5 228.5,135.1 233.4,136.1 237.7,138.5 241.2,142.2 243.5,146.7 244.3,151.7 243.6,156.6 241.4,161.1 238.1,164.6 233.9,166.9 229.3,167.8 224.6,167.1 220.5,165.1 217.3,161.8 215.3,157.6 214.8,153.0 215.9,148.4 218.3,144.4 222.0,141.3 226.6,139.5 231.5,139.1 236.4,140.3 240.8,142.9 244.2,146.8 246.4,151.5 247.0,156.7 246.1,161.8 243.6,166.4 239.9,170.1 235.4,172.4 230.3,173.2 225.3,172.4 220.8,170.1 217.2,166.5 214.9,162.0 214.2,157.0 215.1,152.0 217.4,147.5 221.1,143.9 225.7,141.6 230.8,140.8 235.9,141.6 240.5,143.9 244.2,147.4 246.6,151.9 247.6,156.9 247.0,162.0 244.9,166.5 241.5,170.2 237.1,172.5 232.3,173.4 227.4,172.7 223.0,170.5 219.5,167.1 217.3,162.6 216.5,157.7 217.3,152.7 219.6,148.2 223.2,144.5 227.7,142.1 232.8,141.2 237.9,141.8 242.6,143.8 246.4,147.2 249.0,151.5 250.2,156.2 249.8,161.1 248.0,165.5 244.9,169.0 240.9,171.4 236.5,172.3 232.0,171.7 227.9,169.7 224.7,166.4 222.8,162.3 222.2,157.6 223.1,153.0 225.5,148.8 229.1,145.4 233.6,143.3 238.5,142.6 243.5,143.4 248.0,145.6 251.6,149.0 254.0,153.3 255.0,158.1 254.6,162.8 252.7,167.1 249.6,170.5 245.7,172.7 241.3,173.5 237.0,172.7 233.1,170.6 230.1,167.3 228.4,163.2 228.1,158.6 229.3,154.1 231.9,150.1 235.6,147.0 240.2,145.2 245.2,144.8 250.2,145.9 254.6,148.3 258.1,152.0 260.4,156.5 261.2,161.4 260.5,166.2 258.4,170.4 255.2,173.8 251.1,175.9 246.7,176.5 242.3,175.6 238.5,173.3 235.7,169.9 234.2,165.6 234.1,161.0 235.5,156.5 238.4,152.5 242.5,149.6 247.3,147.9 252.5,147.8" fill="none" stroke="#f5b942" stroke-width="1.8" stroke-linejoin="round" stroke-linecap="round"/>
  <circle cx="200.0" cy="200.0" r="60.1" fill="none" stroke="#2a5080" stroke-width="0.8" opacity="0.7"/>
  <line x1="200.0" y1="200.0" x2="252.0" y2="170.0" stroke="#3d78bf" stroke-width="1.0" opacity="0.85"/>
  <circle cx="252.0" cy="170.0" r="16.0" fill="none" stroke="#2a5080" stroke-width="0.8" opacity="0.7"/>
  <line x1="252.0" y1="170.0" x2="252.0" y2="154.0" stroke="#3d78bf" stroke-width="1.0" opacity="0.85"/>
  <circle cx="252.0" cy="154.0" r="7.1" fill="none" stroke="#2a5080" stroke-width="0.8" opacity="0.7"/>
  <line x1="252.0" y1="154.0" x2="252.0" y2="146.9" stroke="#3d78bf" stroke-width="1.0" opacity="0.85"/>
  <circle cx="252.0" cy="146.9" r="1.3" fill="none" stroke="#2a5080" stroke-width="0.8" opacity="0.7"/>
  <line x1="252.0" y1="146.9" x2="253.2" y2="147.5" stroke="#3d78bf" stroke-width="1.0" opacity="0.85"/>
  <circle cx="253.2" cy="147.5" r="1.0" fill="none" stroke="#2a5080" stroke-width="0.8" opacity="0.7"/>
  <line x1="253.2" y1="147.5" x2="252.3" y2="148.0" stroke="#3d78bf" stroke-width="1.0" opacity="0.85"/>
  <circle cx="252.3" cy="148.0" r="0.7" fill="none" stroke="#2a5080" stroke-width="0.8" opacity="0.7"/>
  <line x1="252.3" y1="148.0" x2="252.9" y2="147.6" stroke="#3d78bf" stroke-width="1.0" opacity="0.85"/>
  <circle cx="252.9" cy="147.6" r="0.5" fill="none" stroke="#2a5080" stroke-width="0.8" opacity="0.7"/>
  <line x1="252.9" y1="147.6" x2="252.5" y2="147.4" stroke="#3d78bf" stroke-width="1.0" opacity="0.85"/>
  <circle cx="252.5" cy="147.4" r="0.5" fill="none" stroke="#2a5080" stroke-width="0.8" opacity="0.7"/>
  <line x1="252.5" y1="147.4" x2="252.1" y2="147.6" stroke="#3d78bf" stroke-width="1.0" opacity="0.85"/>
</svg>
