<svg xmlns="http://www.w3.org/2000/svg" viewBox="0 0 400 400" width="400" height="400">
  <rect width="400" height="400" fill="#04040e"/>
  <!-- Source 1: (100, 100) — concentric rings, gold crests / indigo troughs -->
  <circle cx="100" cy="100" r="15" fill="none" stroke="#ffc800" stroke-width="2.0" opacity="0.85"/>
  <circle cx="100" cy="100" r="30" fill="none" stroke="#1200a0" stroke-width="1.8" opacity="0.78"/>
  <circle cx="100" cy="100" r="45" fill="none" stroke="#ffc800" stroke-width="1.7" opacity="0.72"/>
  <circle cx="100" cy="100" r="60" fill="none" stroke="#1200a0" stroke-width="1.5" opacity="0.65"/>
  <circle cx="100" cy="100" r="75" fill="none" stroke="#ffc800" stroke-width="1.4" opacity="0.58"/>
  <circle cx="100" cy="100" r="90" fill="none" stroke="#1200a0" stroke-width="1.2" opacity="0.51"/>
  <circle cx="100" cy="100" r="105" fill="none" stroke="#ffc800" stroke-width="1.1" opacity="0.44"/>
  <circle cx="100" cy="100" r="120" fill="none" stroke="#1200a0" stroke-width="1.0" opacity="0.37"/>
  <circle cx="100" cy="100" r="135" fill="none" stroke="#ffc800" stroke-width="0.9" opacity="0.30"/>
  <circle cx="100" cy="100" r="150" fill="none" stroke="#1200a0" stroke-width="0.7" opacity="0.23"/>
  <circle cx="100" cy="100" r="165" fill="none" stroke="#ffc800" stroke-width="0.6" opacity="0.16"/>
  <circle cx="100" cy="100" r="180" fill="none" stroke="#1200a0" stroke-width="0.5" opacity="0.10"/>
  <!-- Source 2: (300, 133) — offset phase (+5px), indigo crests / gold troughs -->
  <circle cx="300" cy="133" r="20" fill="none" stroke="#1200a0" stroke-width="2.0" opacity="0.85"/>
  <circle cx="300" cy="133" r="35" fill="none" stroke="#ffc800" stroke-width="1.8" opacity="0.78"/>
  <circle cx="300" cy="133" r="50" fill="none" stroke="#1200a0" stroke-width="1.7" opacity="0.72"/>
  <circle cx="300" cy="133" r="65" fill="none" stroke="#ffc800" stroke-width="1.5" opacity="0.65"/>
  <circle cx="300" cy="133" r="80" fill="none" stroke="#1200a0" stroke-width="1.4" opacity="0.58"/>
  <circle cx="300" cy="133" r="95" fill="none" stroke="#ffc800" stroke-width="1.2" opacity="0.51"/>
  <circle cx="300" cy="133" r="110" fill="none" stroke="#1200a0" stroke-width="1.1" opacity="0.44"/>
  <circle cx="300" cy="133" r="125" fill="none" stroke="#ffc800" stroke-width="1.0" opacity="0.37"/>
  <circle cx="300" cy="133" r="140" fill="none" stroke="#1200a0" stroke-width="0.9" opacity="0.30"/>
  <circle cx="300" cy="133" r="155" fill="none" stroke="#ffc800" stroke-width="0.7" opacity="0.23"/>
  <circle cx="300" cy="133" r="170" fill="none" stroke="#1200a0" stroke-width="0.6" opacity="0.16"/>
  <circle cx="300" cy="133" r="185" fill="none" stroke="#ffc800" stroke-width="0.5" opacity="0.10"/>
  <!-- Source 3: (200, 300) — offset phase (+10px), gold crests / indigo troughs -->
  <circle cx="200" cy="300" r="25" fill="none" stroke="#ffc800" stroke-width="2.0" opacity="0.85"/>
  <circle cx="200" cy="300" r="40" fill="none" stroke="#1200a0" stroke-width="1.8" opacity="0.78"/>
  <circle cx="200" cy="300" r="55" fill="none" stroke="#ffc800" stroke-width="1.7" opacity="0.72"/>
  <circle cx="200" cy="300" r="70" fill="none" stroke="#1200a0" stroke-width="1.5" opacity="0.65"/>
  <circle cx="200" cy="300" r="85" fill="none" stroke="#ffc800" stroke-width="1.4" opacity="0.58"/>
  <circle cx="200" cy="300" r="100" fill="none" stroke="#1200a0" stroke-width="1.2" opacity="0.51"/>
  <circle cx="200" cy="300" r="115" fill="none" stroke="#ffc800" stroke-width="1.1" opacity="0.44"/>
  <circle cx="200" cy="300" r="130" fill="none" stroke="#1200a0" stroke-width="1.0" opacity="0.37"/>
  <circle cx="200" cy="300" r="145" fill="none" stroke="#ffc800" stroke-width="0.9" opacity="0.30"/>
  <circle cx="200" cy="300" r="160" fill="none" stroke="#1200a0" stroke-width="0.7" opacity="0.23"/>
  <circle cx="200" cy="300" r="175" fill="none" stroke="#ffc800" stroke-width="0.6" opacity="0.16"/>
  <circle cx="200" cy="300" r="190" fill="none" stroke="#1200a0" stroke-width="0.5" opacity="0.10"/>
  <!-- Source marker dots -->
  <circle cx="100" cy="100" r="3.5" fill="#ffc800" opacity="1.0"/>
  <circle cx="300" cy="133" r="3.5" fill="#ffc800" opacity="1.0"/>
  <circle cx="200" cy="300" r="3.5" fill="#ffc800" opacity="1.0"/>
</svg>
