<svg xmlns="http://www.w3.org/2000/svg" width="400" height="400" viewBox="0 0 400 400">
<defs>
  <radialGradient id="bg" cx="50%" cy="50%" r="70%">
    <stop offset="0%" stop-color="#0a0520"/>
    <stop offset="100%" stop-color="#060010"/>
  </radialGradient>
  <radialGradient id="glow1" cx="46%" cy="48%" r="28%">
    <stop offset="0%" stop-color="#00E5FF" stop-opacity="0.18"/>
    <stop offset="100%" stop-color="#00E5FF" stop-opacity="0"/>
  </radialGradient>
  <radialGradient id="glow2" cx="54%" cy="53%" r="22%">
    <stop offset="0%" stop-color="#FF2999" stop-opacity="0.14"/>
    <stop offset="100%" stop-color="#FF2999" stop-opacity="0"/>
  </radialGradient>
</defs>
<rect width="400" height="400" fill="url(#bg)"/>
<!-- Isocontour rings cycling cyan → magenta → amber → green, fading outward -->
<ellipse cx="196" cy="198" rx="16"  ry="14"  fill="none" stroke="#00E5FF" stroke-width="2.8" opacity="0.95"/>
<ellipse cx="198" cy="200" rx="32"  ry="29"  fill="none" stroke="#FF2999" stroke-width="2.6" opacity="0.88"/>
<ellipse cx="199" cy="201" rx="48"  ry="45"  fill="none" stroke="#FFB800" stroke-width="2.5" opacity="0.80"/>
<ellipse cx="200" cy="200" rx="64"  ry="61"  fill="none" stroke="#1FFF67" stroke-width="2.4" opacity="0.72"/>
<ellipse cx="201" cy="199" rx="80"  ry="77"  fill="none" stroke="#00E5FF" stroke-width="2.3" opacity="0.63"/>
<ellipse cx="200" cy="200" rx="96"  ry="94"  fill="none" stroke="#FF2999" stroke-width="2.2" opacity="0.54"/>
<ellipse cx="199" cy="201" rx="112" ry="110" fill="none" stroke="#FFB800" stroke-width="2.1" opacity="0.44"/>
<ellipse cx="200" cy="200" rx="128" ry="127" fill="none" stroke="#1FFF67" stroke-width="2.0" opacity="0.34"/>
<ellipse cx="201" cy="200" rx="144" ry="144" fill="none" stroke="#00E5FF" stroke-width="1.8" opacity="0.24"/>
<ellipse cx="200" cy="200" rx="160" ry="161" fill="none" stroke="#FF2999" stroke-width="1.6" opacity="0.16"/>
<ellipse cx="200" cy="200" rx="176" ry="178" fill="none" stroke="#FFB800" stroke-width="1.4" opacity="0.10"/>
<!-- Soft glow pools suggesting the merged blob shapes -->
<rect width="400" height="400" fill="url(#glow1)"/>
<rect width="400" height="400" fill="url(#glow2)"/>
</svg>
