<svg xmlns="http://www.w3.org/2000/svg" width="480" height="480" viewBox="0 0 480 480">
<rect width="480" height="480" fill="#0d0d0d"/>
<g id="ring-a">
<circle cx="240.0" cy="240.0" r="10" fill="none" stroke="#ffffff" stroke-width="1.2"/>
<circle cx="240.0" cy="240.0" r="20" fill="none" stroke="#ffffff" stroke-width="1.2"/>
<circle cx="240.0" cy="240.0" r="30" fill="none" stroke="#ffffff" stroke-width="1.2"/>
<circle cx="240.0" cy="240.0" r="40" fill="none" stroke="#ffffff" stroke-width="1.2"/>
<circle cx="240.0" cy="240.0" r="50" fill="none" stroke="#ffffff" stroke-width="1.2"/>
<circle cx="240.0" cy="240.0" r="60" fill="none" stroke="#ffffff" stroke-width="1.2"/>
<circle cx="240.0" cy="240.0" r="70" fill="none" stroke="#ffffff" stroke-width="1.2"/>
<circle cx="240.0" cy="240.0" r="80" fill="none" stroke="#ffffff" stroke-width="1.2"/>
<circle cx="240.0" cy="240.0" r="90" fill="none" stroke="#ffffff" stroke-width="1.2"/>
<circle cx="240.0" cy="240.0" r="100" fill="none" stroke="#ffffff" stroke-width="1.2"/>
<circle cx="240.0" cy="240.0" r="110" fill="none" stroke="#ffffff" stroke-width="1.2"/>
<circle cx="240.0" cy="240.0" r="120" fill="none" stroke="#ffffff" stroke-width="1.2"/>
<circle cx="240.0" cy="240.0" r="130" fill="none" stroke="#ffffff" stroke-width="1.2"/>
<circle cx="240.0" cy="240.0" r="140" fill="none" stroke="#ffffff" stroke-width="1.2"/>
<circle cx="240.0" cy="240.0" r="150" fill="none" stroke="#ffffff" stroke-width="1.2"/>
<circle cx="240.0" cy="240.0" r="160" fill="none" stroke="#ffffff" stroke-width="1.2"/>
<circle cx="240.0" cy="240.0" r="170" fill="none" stroke="#ffffff" stroke-width="1.2"/>
<circle cx="240.0" cy="240.0" r="180" fill="none" stroke="#ffffff" stroke-width="1.2"/>
<circle cx="240.0" cy="240.0" r="190" fill="none" stroke="#ffffff" stroke-width="1.2"/>
<circle cx="240.0" cy="240.0" r="200" fill="none" stroke="#ffffff" stroke-width="1.2"/>
<circle cx="240.0" cy="240.0" r="210" fill="none" stroke="#ffffff" stroke-width="1.2"/>
<circle cx="240.0" cy="240.0" r="220" fill="none" stroke="#ffffff" stroke-width="1.2"/>
<circle cx="240.0" cy="240.0" r="230" fill="none" stroke="#ffffff" stroke-width="1.2"/>
<circle cx="240.0" cy="240.0" r="240" fill="none" stroke="#ffffff" stroke-width="1.2"/>
<circle cx="240.0" cy="240.0" r="250" fill="none" stroke="#ffffff" stroke-width="1.2"/>
<circle cx="240.0" cy="240.0" r="260" fill="none" stroke="#ffffff" stroke-width="1.2"/>
<circle cx="240.0" cy="240.0" r="270" fill="none" stroke="#ffffff" stroke-width="1.2"/>
<circle cx="240.0" cy="240.0" r="280" fill="none" stroke="#ffffff" stroke-width="1.2"/>
<circle cx="240.0" cy="240.0" r="290" fill="none" stroke="#ffffff" stroke-width="1.2"/>
<circle cx="240.0" cy="240.0" r="300" fill="none" stroke="#ffffff" stroke-width="1.2"/>
<circle cx="240.0" cy="240.0" r="310" fill="none" stroke="#ffffff" stroke-width="1.2"/>
<circle cx="240.0" cy="240.0" r="320" fill="none" stroke="#ffffff" stroke-width="1.2"/>
<circle cx="240.0" cy="240.0" r="330" fill="none" stroke="#ffffff" stroke-width="1.2"/>
<circle cx="240.0" cy="240.0" r="340" fill="none" stroke="#ffffff" stroke-width="1.2"/>
<circle cx="240.0" cy="240.0" r="350" fill="none" stroke="#ffffff" stroke-width="1.2"/>
<circle cx="240.0" cy="240.0" r="360" fill="none" stroke="#ffffff" stroke-width="1.2"/>
<circle cx="240.0" cy="240.0" r="370" fill="none" stroke="#ffffff" stroke-width="1.2"/>
<circle cx="240.0" cy="240.0" r="380" fill="none" stroke="#ffffff" stroke-width="1.2"/>
<circle cx="240.0" cy="240.0" r="390" fill="none" stroke="#ffffff" stroke-width="1.2"/>
<circle cx="240.0" cy="240.0" r="400" fill="none" stroke="#ffffff" stroke-width="1.2"/>
<circle cx="240.0" cy="240.0" r="410" fill="none" stroke="#ffffff" stroke-width="1.2"/>
<circle cx="240.0" cy="240.0" r="420" fill="none" stroke="#ffffff" stroke-width="1.2"/>
<circle cx="240.0" cy="240.0" r="430" fill="none" stroke="#ffffff" stroke-width="1.2"/>
<circle cx="240.0" cy="240.0" r="440" fill="none" stroke="#ffffff" stroke-width="1.2"/>
<circle cx="240.0" cy="240.0" r="450" fill="none" stroke="#ffffff" stroke-width="1.2"/>
<circle cx="240.0" cy="240.0" r="460" fill="none" stroke="#ffffff" stroke-width="1.2"/>
<circle cx="240.0" cy="240.0" r="470" fill="none" stroke="#ffffff" stroke-width="1.2"/>
<circle cx="240.0" cy="240.0" r="480" fill="none" stroke="#ffffff" stroke-width="1.2"/>
<circle cx="240.0" cy="240.0" r="490" fill="none" stroke="#ffffff" stroke-width="1.2"/>
<circle cx="240.0" cy="240.0" r="500" fill="none" stroke="#ffffff" stroke-width="1.2"/>
<circle cx="240.0" cy="240.0" r="510" fill="none" stroke="#ffffff" stroke-width="1.2"/>
<circle cx="240.0" cy="240.0" r="520" fill="none" stroke="#ffffff" stroke-width="1.2"/>
<circle cx="240.0" cy="240.0" r="530" fill="none" stroke="#ffffff" stroke-width="1.2"/>
<circle cx="240.0" cy="240.0" r="540" fill="none" stroke="#ffffff" stroke-width="1.2"/>
<circle cx="240.0" cy="240.0" r="550" fill="none" stroke="#ffffff" stroke-width="1.2"/>
<circle cx="240.0" cy="240.0" r="560" fill="none" stroke="#ffffff" stroke-width="1.2"/>
<circle cx="240.0" cy="240.0" r="570" fill="none" stroke="#ffffff" stroke-width="1.2"/>
<circle cx="240.0" cy="240.0" r="580" fill="none" stroke="#ffffff" stroke-width="1.2"/>
<circle cx="240.0" cy="240.0" r="590" fill="none" stroke="#ffffff" stroke-width="1.2"/>
<circle cx="240.0" cy="240.0" r="600" fill="none" stroke="#ffffff" stroke-width="1.2"/>
<circle cx="240.0" cy="240.0" r="610" fill="none" stroke="#ffffff" stroke-width="1.2"/>
<circle cx="240.0" cy="240.0" r="620" fill="none" stroke="#ffffff" stroke-width="1.2"/>
<circle cx="240.0" cy="240.0" r="630" fill="none" stroke="#ffffff" stroke-width="1.2"/>
<circle cx="240.0" cy="240.0" r="640" fill="none" stroke="#ffffff" stroke-width="1.2"/>
<circle cx="240.0" cy="240.0" r="650" fill="none" stroke="#ffffff" stroke-width="1.2"/>
<circle cx="240.0" cy="240.0" r="660" fill="none" stroke="#ffffff" stroke-width="1.2"/>
<circle cx="240.0" cy="240.0" r="670" fill="none" stroke="#ffffff" stroke-width="1.2"/>
<circle cx="240.0" cy="240.0" r="680" fill="none" stroke="#ffffff" stroke-width="1.2"/>
</g>
<g id="ring-b" style="mix-blend-mode:difference">
<rect width="480" height="480" fill="#0d0d0d"/>
<circle cx="270.0" cy="255.0" r="10" fill="none" stroke="#ffffff" stroke-width="1.2"/>
<circle cx="270.0" cy="255.0" r="20" fill="none" stroke="#ffffff" stroke-width="1.2"/>
<circle cx="270.0" cy="255.0" r="30" fill="none" stroke="#ffffff" stroke-width="1.2"/>
<circle cx="270.0" cy="255.0" r="40" fill="none" stroke="#ffffff" stroke-width="1.2"/>
<circle cx="270.0" cy="255.0" r="50" fill="none" stroke="#ffffff" stroke-width="1.2"/>
<circle cx="270.0" cy="255.0" r="60" fill="none" stroke="#ffffff" stroke-width="1.2"/>
<circle cx="270.0" cy="255.0" r="70" fill="none" stroke="#ffffff" stroke-width="1.2"/>
<circle cx="270.0" cy="255.0" r="80" fill="none" stroke="#ffffff" stroke-width="1.2"/>
<circle cx="270.0" cy="255.0" r="90" fill="none" stroke="#ffffff" stroke-width="1.2"/>
<circle cx="270.0" cy="255.0" r="100" fill="none" stroke="#ffffff" stroke-width="1.2"/>
<circle cx="270.0" cy="255.0" r="110" fill="none" stroke="#ffffff" stroke-width="1.2"/>
<circle cx="270.0" cy="255.0" r="120" fill="none" stroke="#ffffff" stroke-width="1.2"/>
<circle cx="270.0" cy="255.0" r="130" fill="none" stroke="#ffffff" stroke-width="1.2"/>
<circle cx="270.0" cy="255.0" r="140" fill="none" stroke="#ffffff" stroke-width="1.2"/>
<circle cx="270.0" cy="255.0" r="150" fill="none" stroke="#ffffff" stroke-width="1.2"/>
<circle cx="270.0" cy="255.0" r="160" fill="none" stroke="#ffffff" stroke-width="1.2"/>
<circle cx="270.0" cy="255.0" r="170" fill="none" stroke="#ffffff" stroke-width="1.2"/>
<circle cx="270.0" cy="255.0" r="180" fill="none" stroke="#ffffff" stroke-width="1.2"/>
<circle cx="270.0" cy="255.0" r="190" fill="none" stroke="#ffffff" stroke-width="1.2"/>
<circle cx="270.0" cy="255.0" r="200" fill="none" stroke="#ffffff" stroke-width="1.2"/>
<circle cx="270.0" cy="255.0" r="210" fill="none" stroke="#ffffff" stroke-width="1.2"/>
<circle cx="270.0" cy="255.0" r="220" fill="none" stroke="#ffffff" stroke-width="1.2"/>
<circle cx="270.0" cy="255.0" r="230" fill="none" stroke="#ffffff" stroke-width="1.2"/>
<circle cx="270.0" cy="255.0" r="240" fill="none" stroke="#ffffff" stroke-width="1.2"/>
<circle cx="270.0" cy="255.0" r="250" fill="none" stroke="#ffffff" stroke-width="1.2"/>
<circle cx="270.0" cy="255.0" r="260" fill="none" stroke="#ffffff" stroke-width="1.2"/>
<circle cx="270.0" cy="255.0" r="270" fill="none" stroke="#ffffff" stroke-width="1.2"/>
<circle cx="270.0" cy="255.0" r="280" fill="none" stroke="#ffffff" stroke-width="1.2"/>
<circle cx="270.0" cy="255.0" r="290" fill="none" stroke="#ffffff" stroke-width="1.2"/>
<circle cx="270.0" cy="255.0" r="300" fill="none" stroke="#ffffff" stroke-width="1.2"/>
<circle cx="270.0" cy="255.0" r="310" fill="none" stroke="#ffffff" stroke-width="1.2"/>
<circle cx="270.0" cy="255.0" r="320" fill="none" stroke="#ffffff" stroke-width="1.2"/>
<circle cx="270.0" cy="255.0" r="330" fill="none" stroke="#ffffff" stroke-width="1.2"/>
<circle cx="270.0" cy="255.0" r="340" fill="none" stroke="#ffffff" stroke-width="1.2"/>
<circle cx="270.0" cy="255.0" r="350" fill="none" stroke="#ffffff" stroke-width="1.2"/>
<circle cx="270.0" cy="255.0" r="360" fill="none" stroke="#ffffff" stroke-width="1.2"/>
<circle cx="270.0" cy="255.0" r="370" fill="none" stroke="#ffffff" stroke-width="1.2"/>
<circle cx="270.0" cy="255.0" r="380" fill="none" stroke="#ffffff" stroke-width="1.2"/>
<circle cx="270.0" cy="255.0" r="390" fill="none" stroke="#ffffff" stroke-width="1.2"/>
<circle cx="270.0" cy="255.0" r="400" fill="none" stroke="#ffffff" stroke-width="1.2"/>
<circle cx="270.0" cy="255.0" r="410" fill="none" stroke="#ffffff" stroke-width="1.2"/>
<circle cx="270.0" cy="255.0" r="420" fill="none" stroke="#ffffff" stroke-width="1.2"/>
<circle cx="270.0" cy="255.0" r="430" fill="none" stroke="#ffffff" stroke-width="1.2"/>
<circle cx="270.0" cy="255.0" r="440" fill="none" stroke="#ffffff" stroke-width="1.2"/>
<circle cx="270.0" cy="255.0" r="450" fill="none" stroke="#ffffff" stroke-width="1.2"/>
<circle cx="270.0" cy="255.0" r="460" fill="none" stroke="#ffffff" stroke-width="1.2"/>
<circle cx="270.0" cy="255.0" r="470" fill="none" stroke="#ffffff" stroke-width="1.2"/>
<circle cx="270.0" cy="255.0" r="480" fill="none" stroke="#ffffff" stroke-width="1.2"/>
<circle cx="270.0" cy="255.0" r="490" fill="none" stroke="#ffffff" stroke-width="1.2"/>
<circle cx="270.0" cy="255.0" r="500" fill="none" stroke="#ffffff" stroke-width="1.2"/>
<circle cx="270.0" cy="255.0" r="510" fill="none" stroke="#ffffff" stroke-width="1.2"/>
<circle cx="270.0" cy="255.0" r="520" fill="none" stroke="#ffffff" stroke-width="1.2"/>
<circle cx="270.0" cy="255.0" r="530" fill="none" stroke="#ffffff" stroke-width="1.2"/>
<circle cx="270.0" cy="255.0" r="540" fill="none" stroke="#ffffff" stroke-width="1.2"/>
<circle cx="270.0" cy="255.0" r="550" fill="none" stroke="#ffffff" stroke-width="1.2"/>
<circle cx="270.0" cy="255.0" r="560" fill="none" stroke="#ffffff" stroke-width="1.2"/>
<circle cx="270.0" cy="255.0" r="570" fill="none" stroke="#ffffff" stroke-width="1.2"/>
<circle cx="270.0" cy="255.0" r="580" fill="none" stroke="#ffffff" stroke-width="1.2"/>
<circle cx="270.0" cy="255.0" r="590" fill="none" stroke="#ffffff" stroke-width="1.2"/>
<circle cx="270.0" cy="255.0" r="600" fill="none" stroke="#ffffff" stroke-width="1.2"/>
<circle cx="270.0" cy="255.0" r="610" fill="none" stroke="#ffffff" stroke-width="1.2"/>
<circle cx="270.0" cy="255.0" r="620" fill="none" stroke="#ffffff" stroke-width="1.2"/>
<circle cx="270.0" cy="255.0" r="630" fill="none" stroke="#ffffff" stroke-width="1.2"/>
<circle cx="270.0" cy="255.0" r="640" fill="none" stroke="#ffffff" stroke-width="1.2"/>
<circle cx="270.0" cy="255.0" r="650" fill="none" stroke="#ffffff" stroke-width="1.2"/>
<circle cx="270.0" cy="255.0" r="660" fill="none" stroke="#ffffff" stroke-width="1.2"/>
<circle cx="270.0" cy="255.0" r="670" fill="none" stroke="#ffffff" stroke-width="1.2"/>
<circle cx="270.0" cy="255.0" r="680" fill="none" stroke="#ffffff" stroke-width="1.2"/>
</g>
</svg>