<svg xmlns="http://www.w3.org/2000/svg" viewBox="0 0 600 600" width="600" height="600">
  <rect width="600" height="600" fill="#0a0a14"/>
  <polyline points="398.99,510.0 451.61,539.86 492.04,555.08 518.0,553.88 528.39,535.72 523.33,501.33 504.15,452.72 473.2,392.98 433.6,326.15 388.99,256.8 343.18,189.77 299.82,129.74 262.07,80.87 232.4,46.49 212.33,28.86 202.41,28.94 202.19,46.4 210.3,79.61 224.65,125.82 242.68,181.38 261.59,242.06 278.71,303.38 291.72,360.99 298.9,411.02 299.33,450.34 292.96,476.82 280.61,489.45 263.91,488.38 245.12,474.86 226.9,451.07 212.01,419.89 203.07,384.62 202.21,348.67 210.89,315.22 229.66,286.95 258.11,265.84 294.81,252.97 337.4,248.49 382.82,251.63 427.47,260.81 467.58,273.85 499.5,288.23 520.06,301.33 526.81,310.73 518.35,314.52 494.4,311.44 455.93,301.09 405.08,283.96 345.03,261.41 279.79,235.57 213.87,209.11 151.94,185.03 98.46,166.33 57.33,155.74 31.56,155.39 23.07,166.63 32.46,189.8 59.04,224.2 100.83,268.05 154.77,318.62 216.91,372.43 282.77,425.53 347.7,473.79 407.21,513.24 457.35,540.47 495.0,552.86 518.09,548.86 525.74,528.15 518.28,491.66 497.2,441.56 464.96,381.1 424.76,314.35 380.25,245.92 335.18,180.57 293.09,122.87 257.01,76.82 229.22,45.53 211.08,31.03 202.95,34.05 204.23,54.05 213.43,89.22 228.4,136.68 246.55,192.7 265.11,253.04 281.48,313.27 293.46,369.16 299.47,416.97 298.74,453.79 291.37,477.67 278.33,487.83 261.32,484.6 242.67,469.37 225.04,444.43 211.15,412.73 203.53,377.55 204.19,342.25 214.42,309.91 234.62,283.07 264.21,263.55 301.61,252.25 344.38,249.16 389.36,253.39 432.96,263.26 471.45,276.55 501.29,290.71 519.43,303.18 523.65,311.66 512.71,314.32 486.55,310.08 446.32,298.67 394.33,280.74 333.88,257.76 269.02,231.94 204.26,206.0 144.21,182.91 93.2,165.62 54.95,156.73 32.28,158.24 26.85,171.32 39.06,196.15 68.01,231.84 111.53,276.46 166.45,327.2 228.75,380.51 293.96,432.42 357.47,478.88 414.94,516.03 462.57,540.6 497.44,550.19 517.71,543.46 522.7,520.29 512.94,481.81 490.08,430.37 456.68,369.32 416.01,302.8 371.7,235.41 327.46,171.84 286.7,116.54 252.31,73.32 226.4,45.11 210.15,33.68 203.75,39.56 206.46,61.98 216.67,98.98 232.17,147.54 250.34,203.88 268.48,263.75 284.05,322.79 294.98,376.88 299.83,422.45 297.98,456.76 289.67,478.09 275.99,485.85 258.75,480.54 240.31,463.71 223.34,437.74 210.5,405.63 204.22,370.64 206.4,336.08 218.16,304.89 239.74,279.5 270.38,261.55 308.4,251.78 351.23,250.03 395.68,255.28 438.14,265.76 474.95,279.2 502.67,293.08 518.4,304.88 520.1,312.39 506.74,313.93 478.46,308.54 436.6,296.13 383.6,277.46 322.88,254.13 258.52,228.41 195.04,203.06 136.95,181.02 88.46,165.17 53.11,158.0 33.5,161.37 31.08,176.25 46.02,202.66 77.2,239.55 122.32,284.85 178.07,335.64 240.39,388.33 304.82,438.97 366.83,483.55 422.18,518.35 467.27,540.28 499.38,547.1 516.87,537.69 519.29,512.15 507.33,471.81 482.81,419.16 448.38,357.66 407.36,291.51 363.36,225.27 320.02,163.58 280.65,110.73 247.97,70.37 223.94,45.2 209.54,36.79 204.81,45.43 208.85,70.16 219.98,108.85 235.92,158.37 254.05,214.9 271.7,274.18 286.43,331.94 296.29,384.16 299.99,427.45 297.05,459.27 287.86,478.1 273.62,483.52 256.22,476.23 238.07,457.91 221.81,431.03 210.06,398.61 205.16,363.91 208.84,330.14 222.09,300.16 244.98,276.23 276.62,259.83 315.15,251.55 357.95,251.08 401.77,257.27 443.02,268.28 478.08,281.8 503.64,295.34 516.97,306.42 516.18,312.94 500.47,313.35 470.17,306.85 426.78,293.48 372.9,274.14 312.04,250.53 248.32,224.99 186.22,200.3 130.17,179.38 84.24,165.01 51.8,159.57 35.22,164.76 35.73,181.4 53.29,209.32 86.59,247.31 133.16,293.18 189.6,343.91 251.81,395.89 315.34,445.16 375.75,487.8 428.94,520.23 471.47,539.5 500.83,543.58 515.6,531.58 515.52,503.77 501.48,461.69 475.41,407.97 440.08,346.16 398.82,280.49 355.23,215.52 312.88,155.79 274.94,105.44 244.0,67.95 221.82,45.81 209.23,40.34 206.1,51.65 211.41,78.56 223.36,118.81 239.65,169.15 257.65,225.73 274.76,284.31 288.62,340.69 297.4,390.99 299.96,431.99 295.97,461.33 285.95,477.69 271.21,480.86 253.73,471.69 235.94,451.99 220.45,424.31 209.84,391.68 206.32,357.36 211.5,324.45 226.21,295.72 250.36,273.26 282.89,258.4 321.86,251.56 364.53,252.3 407.62,259.35 447.57,270.81 480.84,284.35 504.22,297.47 515.14,307.79 511.91,313.3 493.92,312.59 461.69,305.01 416.89,290.72 362.27,270.78 301.38,246.97 238.42,221.69 177.8,197.74 123.86,177.97 80.54,165.12 51.0,161.42 37.42,168.41 40.79,186.76 60.87,216.11 96.15,255.11 144.04,301.45 201.03,352.01 262.99,403.16 325.51,450.99 384.24,491.64 435.21,521.65 475.17,538.27 501.81,539.67 513.91,525.13 511.42,495.17 495.4,451.47 467.91,396.81 431.79,334.83 390.41,269.78 347.33,206.18 306.03,148.48 269.57,100.68 240.38,66.06 220.03,46.9 209.21,44.32 207.61,58.19 214.1,87.17 226.8,128.83 243.35,179.86 261.15,236.36 277.66,294.13 290.61,349.05 298.31,397.38 299.75,436.07 294.75,462.95 283.96,476.9 268.8,477.89 251.31,466.94 233.93,445.97 219.28,417.59 209.84,384.87 207.72,351.0 214.38,319.02 230.51,291.56 255.84,270.58 289.2,257.23 328.5,251.79 370.94,253.68 413.23,261.52 451.81,273.35 483.23,286.82 504.4,299.46 512.92,308.98 507.3,313.48 487.1,311.66 453.03,303.02 406.95,287.88 351.7,267.4 290.94,243.46 228.84,218.53 169.79,195.36 118.04,176.82 77.35,165.51 50.71,163.54 40.08,172.32 46.23,192.31 68.72,223.02 105.86,262.94 154.93,309.62 212.33,359.92 273.92,410.15 335.32,456.45 392.28,495.05 440.99,522.63 478.37,536.61 502.32,535.36 511.82,518.38 507.01,486.36 489.12,441.17 460.32,385.7 423.54,323.68 382.15,259.37 339.67,197.25 299.49,141.65 264.55,96.43 237.1,64.69 218.57,48.48 209.46,48.7 209.33,65.03 216.91,95.95 230.26,138.89 246.99,190.48 264.53,246.77 280.39,303.63 292.41,357.01 299.02,403.33 299.36,439.69 293.39,464.14 281.9,475.74 266.38,474.64 248.95,462.0 232.07,439.87 218.3,410.9 210.06,378.18 209.34,344.84 217.47,313.85 234.97,287.69 261.42,268.18 295.51,256.32 335.06,252.23 377.18,255.19 418.57,263.75 455.71,275.87 485.24,289.2 504.19,301.32 510.33,310.01 502.36,313.47 480.03,310.55 444.24,300.89 396.99,284.95 341.24,264.01 280.72,240.03 219.59,215.5 162.21,193.2 112.7,175.92 74.67,166.17 50.92,165.94 43.18,176.46 52.04,198.04 76.82,230.03 115.7,270.76 165.8,317.7 223.48,367.62 284.57,416.84 344.75,461.53 399.88,498.03 446.29,523.17 481.09,534.53 502.38,530.69 509.34,511.34 502.31,477.38 482.66,430.82 452.68,374.68 415.35,312.75 374.05,249.29 332.26,188.74 293.27,135.31 259.87,92.71 234.17,63.82 217.43,50.51 209.97,53.46 211.23,72.15 219.82,104.88 233.74,148.97 250.58,200.98 267.79,256.95 282.94,312.79 294.01,364.57 299.53,408.83 298.8,442.87 291.91,464.91 279.77,474.22 263.98,471.11 246.68,456.9 230.35,433.7 217.51,404.26 210.5,371.63 211.19,338.9 220.76,308.94 239.58,284.11 267.09,266.07 301.83,255.66 341.52,252.86 383.24,256.84 423.64,266.03 459.28,278.37 486.87,291.5 503.59,303.04 507.38,310.86 497.1,313.27 472.72,309.28 435.31,298.64 387.01,281.97 330.9,260.62 270.73,236.67 210.7,212.62 155.06,191.24 107.85,175.26 72.5,167.1 51.61,168.59 46.72,180.83 58.19,203.94 85.16,237.12 125.63,278.57 176.64,325.66 234.46,375.1 294.93,423.22 353.8,466.23 407.03,500.59 451.1,523.27 483.33,532.04 502.0,525.65 506.5,504.03 497.34,468.23 476.04,420.43 444.99,363.75 407.23,302.04 366.13,239.55 325.11,180.65 287.35,129.45 255.52,89.49 231.57,63.45 216.58,53.0 210.73,58.59 213.31,79.52 222.83,113.94 237.23,159.05 254.1,211.35 270.91,266.88 285.32,321.61 295.41,371.71 299.85,413.89 298.08,445.61 290.33,465.28 277.6,472.36 261.6,467.33 244.5,451.64 228.78,427.5 216.92,397.68 211.16,365.22 213.25,333.18 224.24,304.3 244.33,280.81 272.82,264.22 308.13,255.23 347.87,253.68 389.09,258.59 428.44,268.34 462.51,280.83 488.13,293.69 502.61,304.61 504.07,311.53 491.55,312.9 465.21,307.85 426.28,296.28 377.06,278.92 320.69,257.25 261.0,233.4 202.16,209.9 148.35,189.51 103.48,174.87 70.82,168.3 52.77,171.51 50.66,185.41 64.65,209.99 93.7,244.28 135.64,286.35 187.42,333.48 245.25,382.35 305.0,429.27 362.46,470.55 413.73,502.73 455.45,522.95 485.11,529.14 501.2,520.28 503.32,496.47 492.12,458.95 469.28,410.03 437.29,352.94 399.2,291.57 358.39,230.16 318.22,173.01 281.75,124.09 251.52,86.77 229.3,63.57 216.03,55.91 211.72,64.06 215.54,87.12 225.91,123.1 240.72,169.1 257.53,221.56 273.89,276.54 287.52,330.07 296.62,378.45 299.99,418.51 297.21,447.91 288.64,465.26 275.4,470.18 259.25,463.32 242.42,446.25 227.37,421.26 216.52,391.17 212.04,358.98 215.53,327.69 227.9,299.92 249.21,277.79 278.61,262.65 314.39,255.04 354.1,254.66 394.73,260.45 432.95,270.69 465.4,283.24 489.01,295.78 501.26,306.03 500.42,312.03 485.72,312.36 457.5,306.27 417.17,293.81 367.13,275.83 310.64,253.91 251.55,230.23 193.99,207.35 142.08,187.99 99.59,174.73 69.62,169.77 54.39,174.67 55.0,190.2 71.42,216.18 102.42,251.49 145.71,294.08 198.11,341.15 255.83,389.34 314.74,435.0 370.72,474.48 419.97,504.45 459.32,522.2 486.43,525.86 500.0,514.59 499.81,488.68 486.68,449.55 462.41,399.65 429.58,342.28 391.29,281.37 350.86,221.14 311.61,165.8 276.47,119.21 247.84,84.56 227.35,64.15 215.76,59.23 212.93,69.84 217.92,94.93 229.05,132.34 244.18,179.1 260.88,231.6 276.72,285.93 289.54,338.18 297.64,384.77 299.96,422.7 296.2,449.8 286.87,464.87 273.17,467.7 256.95,459.1 240.45,440.75 226.12,415.03 216.33,384.74 213.13,352.91 218.01,322.42 231.73,295.81 254.2,275.05 284.43,261.33 320.61,255.06 360.2,255.8 400.15,262.39 437.16,273.04 467.94,285.6 489.53,297.75 499.55,307.29 496.43,312.36 479.63,311.65 449.62,304.55 407.99,291.25 357.26,272.72 300.77,250.61 242.38,227.17 186.19,204.98 136.25,186.7 96.18,174.85 68.91,171.5 56.45,178.07 59.72,195.18 78.47,222.49 111.3,258.73 155.8,301.74 208.71,348.66 266.2,396.08 324.16,440.39 378.57,478.01 425.76,505.75 462.72,521.04 487.31,522.21 498.41,508.6 495.99,480.69 481.02,440.06 455.45,389.29 421.89,331.77 383.49,271.44 343.54,212.49 305.27,159.04 271.51,114.81 244.5,82.83 225.71,65.19 215.75,62.94 214.34,75.93 220.42,102.92 232.24,141.65 247.61,189.04 264.12,241.46 279.4,295.03 291.38,345.92 298.47,390.67 299.75,426.46 295.06,451.28 285.01,464.11 270.93,464.93 254.7,454.68 238.6,435.16 225.04,408.8 216.34,378.43 214.44,347.02 220.7,317.39 235.73,291.97 259.29,272.57 290.28,260.26 326.77,255.28 366.14,257.08 405.34,264.4 441.08,275.39 470.14,287.88 489.68,299.6 497.47,308.39 492.14,312.51 473.28,310.77 441.59,302.7 398.76,288.61 347.47,269.58 291.08,247.36 233.5,224.24 178.79,202.79 130.87,185.64 93.24,175.22 68.66,173.48 58.94,181.71 64.78,200.34 85.76,228.91 120.32,265.99 165.91,309.33 219.19,355.99 276.32,402.56 333.25,445.44 386.02,481.16 431.11,506.64 465.67,519.48 487.76,518.19 496.45,502.32 491.88,472.51 475.19,430.5 448.4,378.99 414.24,321.44 375.83,261.79 336.45,204.22 299.22,152.73 266.86,110.9 241.48,81.58 224.37,66.68 216.0,67.02 215.95,82.29 223.03,111.07 235.45,150.99 250.99,198.88 267.25,251.11 281.93,303.82 293.04,353.29 299.12,396.17 299.38,429.8 293.8,452.36 283.1,463.01 268.69,461.9 252.52,450.09 236.87,429.49 224.14,402.59 216.56,372.23 215.96,341.32 223.57,312.61 239.87,288.4 264.48,270.36 296.15,259.43 332.85,255.7 371.93,258.5 410.29,266.47 444.68,277.73 471.99,290.09 489.46,301.32 495.05,309.33 487.53,312.49 466.71,309.73 433.42,300.72 389.51,285.89 337.76,266.43 281.61,244.18 224.94,221.44 171.77,200.79 125.94,184.81 90.78,175.84 68.88,175.71 61.84,185.56 70.19,205.67 93.3,235.41 129.45,273.25 176.0,316.82 229.53,363.12 286.19,408.75 341.98,450.14 393.05,483.91 436.0,507.11 468.17,517.53 487.8,513.84 494.14,495.77 487.5,464.16 469.18,420.89 441.31,368.76 406.64,311.3 368.32,252.46 329.58,196.34 293.45,146.87 262.54,107.46 238.77,80.8 223.32,68.59 216.49,71.46 217.72,88.91 225.74,119.37 238.69,160.34 254.32,208.62 270.26,260.54 284.29,312.31 294.51,360.28 299.58,401.25 298.85,432.72 292.42,453.06 281.12,461.59 266.46,458.61 250.41,445.34 235.28,423.77 223.42,396.43 216.97,366.15 217.68,335.82 226.63,308.07 244.16,285.09 269.74,268.41 302.01,258.82 338.84,256.29 377.53,260.03 414.98,268.59 447.98,280.05 473.48,292.22 488.89,302.9 492.29,310.11 482.64,312.3 459.92,308.54 425.13,298.63 380.26,283.12 328.17,263.29 272.36,241.07 216.7,218.77 165.16,198.98 121.46,184.22 88.79,176.72 69.54,178.19 65.14,189.63 75.91,211.15 101.04,242.0 138.68,280.5 186.05,324.2 239.71,370.05 295.8,414.65 350.36,454.48 399.66,486.26 440.45,507.19 470.23,515.19 487.43,509.15 491.49,488.97 482.88,455.66 463.03,411.25 434.17,358.63 399.11,301.37 360.98,243.44 322.96,188.86 287.98,141.46 258.52,104.5 236.38,80.48 222.56,70.92 217.2,76.23 219.66,95.76 228.54,127.78 241.93,169.69 257.58,218.23 273.15,269.74 286.49,320.48 295.8,366.89 299.87,405.92 298.18,435.24 290.94,453.39 279.11,459.85 264.25,455.09 248.39,440.46 233.83,418.01 222.88,390.32 217.6,360.22 219.61,330.52 229.87,303.77 248.57,282.04 275.06,266.72 307.85,258.44 344.73,257.06 382.96,261.66 419.42,270.74 450.96,282.33 474.63,294.25 487.97,304.35 489.2,310.73 477.48,311.95 452.94,307.21 416.74,296.43 371.02,280.29 318.71,260.17 263.34,238.04 208.79,216.26 158.95,197.38 117.43,183.87 87.25,177.85 70.64,180.91 68.82,193.89 81.93,216.78 108.98,248.64 147.97,287.71 196.05,331.45 249.71,376.76 305.12,420.25 358.38,458.47 405.85,488.23 444.45,506.87 471.85,512.49 486.67,504.15 488.51,481.95 478.02,447.04 456.76,401.6 427.02,348.61 391.67,291.67 353.82,234.74 316.58,181.79 282.8,136.5 254.82,102.01 234.29,80.61 222.06,73.64 218.13,81.32 221.74,102.83 231.4,136.29 245.16,179.02 260.76,227.7 275.91,278.7 288.53,328.31 296.92,373.12 300.0,410.19 297.37,437.36 289.37,453.35 277.06,457.81 262.07,451.36 246.47,435.45 232.53,412.23 222.52,384.28 218.42,354.43 221.73,325.43 233.28,299.72 253.11,279.25 280.43,265.27 313.66,258.27 350.51,257.98 388.18,263.39 423.59,272.91 453.62,284.56 475.44,296.18 486.69,305.66 485.8,311.19 472.05,311.44 445.78,305.74 408.28,294.14 361.81,277.42 309.39,257.07 254.58,235.1 201.23,213.9 153.15,195.99 113.84,183.75 86.16,179.22 72.16,183.86 72.87,198.35 88.22,222.52 117.08,255.33 157.31,294.88 205.97,338.56 259.53,383.25 314.15,425.55 366.02,462.1 411.63,489.8 448.02,506.15 473.06,509.43 485.53,498.85 485.24,474.71 472.96,438.32 450.38,391.96 419.87,338.71 384.33,282.21 346.84,226.38 310.45,175.12 277.92,132.0 251.43,99.97 232.5,81.18 221.82,76.74 219.27,86.71 223.95,110.08 234.31,144.87 248.37,188.3 263.86,237.02 278.53,287.4 290.39,335.82 297.85,378.96 299.95,414.06 296.42,439.1 287.72,452.97 274.99,455.49 259.93,447.43 244.64,430.34 231.38,406.44 222.35,378.33 219.45,348.81 224.04,320.55 236.84,295.92 257.75,276.71 285.84,264.05 319.43,258.3 356.16,259.04 393.2,265.19 427.48,275.1 455.97,286.75 475.9,298.0 485.08,306.82 482.09,311.48 466.39,310.77 438.46,304.14 399.76,291.75 352.66,274.53 300.23,254.01 246.08,232.27 194.02,211.71 147.77,194.8 110.7,183.87 85.53,180.84 74.1,187.03 77.26,202.98 94.77,228.38 125.33,262.06 166.68,301.99 215.8,345.52 269.13,389.49 322.88,430.54 373.29,465.36 416.98,490.99 451.16,505.06 473.86,506.02 484.04,493.27 481.68,467.28 467.71,429.51 443.91,382.35 412.74,328.97 377.1,273.01 340.06,218.37 304.59,168.87 273.33,127.94 248.34,98.39 230.99,82.17 221.82,80.2 220.59,92.37 226.27,117.51 237.27,153.51 251.55,197.51 266.86,246.15 281.02,295.82 292.09,342.98 298.62,384.42 299.75,417.53 295.36,440.45 286.0,452.25 272.91,452.91 257.85,443.32 242.93,425.15 230.39,400.66 222.37,372.47 220.67,343.35 226.54,315.9 240.56,292.37 262.48,274.43 291.27,263.07 325.14,258.52 361.67,260.24 398.0,267.06 431.1,277.28 457.99,288.87 476.02,299.71 483.14,307.84 478.08,311.61 460.49,309.95 430.99,302.41 391.2,289.3 343.57,271.62 291.26,251.0 237.86,229.56 187.16,209.69 142.8,193.83 108.0,184.23 85.32,182.69 76.43,190.41 81.98,207.78 101.56,234.34 133.7,268.79 176.06,309.03 225.52,352.31 278.52,395.48 331.29,435.2 380.18,468.26 421.92,491.79 453.87,503.59 474.25,502.27 482.2,487.43 477.85,459.68 462.28,420.63 437.37,372.8 405.64,319.39 370.0,264.08 333.48,210.72 298.98,163.04 269.03,124.34 245.55,97.26 229.76,83.56 222.07,84.01 222.08,98.29 228.7,125.08 240.26,162.18 254.68,206.64 269.76,255.1 283.35,303.97 293.61,349.8 299.21,389.5 299.4,420.61 294.18,441.44 284.22,451.21 270.83,450.08 255.83,439.05 241.34,419.89 229.56,394.9 222.58,366.72 222.09,338.07 229.22,311.47 244.41,289.06 267.29,272.4 296.71,262.31 330.78,258.91 367.03,261.56 402.58,268.99 434.43,279.45 459.68,290.91 475.8,301.3 480.88,308.7 473.8,311.59 454.38,308.98 423.4,300.57 382.61,286.77 334.57,268.7 282.47,248.04 229.93,226.96 180.67,207.84 138.24,193.07 105.74,184.82 85.54,184.78 79.14,194.0 87.01,212.73 108.56,240.39 142.18,275.53 185.42,315.97 235.11,358.92 287.67,401.21 339.38,439.55 386.68,470.79 426.43,492.21 456.17,501.76 474.26,498.21 480.04,481.34 473.78,451.93 456.7,411.71 430.78,363.31 398.59,309.99 363.04,255.43 327.12,203.43 293.65,157.62 265.03,121.17 243.06,96.56 228.8,85.36 222.53,88.14 223.74,104.44 231.23,132.79 243.26,170.86 257.77,215.68 272.55,263.84 285.53,311.83 294.97,356.27 299.63,394.2 298.91,423.3 292.9,442.06 282.39,449.87 268.76,447.02 253.88,434.64 239.87,414.58 228.9,389.18 222.98,361.09 223.7,332.97 232.07,307.27 248.39,286.0 272.18,270.6 302.15,261.77 336.34,259.47 372.22,262.98 406.93,270.95 437.48,281.6 461.06,292.88 475.25,302.77 478.3,309.42 469.25,311.4 448.07,307.87 415.71,298.62 374.03,284.19 325.67,265.78 273.9,245.16 222.3,224.5 174.56,206.18 134.11,192.54 103.91,185.65 86.18,187.09 82.23,197.78 92.33,217.82 115.75,246.5 150.75,282.25 194.75,322.81 244.54,365.34 296.56,406.67 347.14,443.56 392.8,472.96 430.54,492.26 458.06,499.57 473.9,493.85 477.56,475.03 469.48,444.04 450.99,402.76 424.16,353.91 391.61,300.79 356.24,247.08 320.98,196.51 288.59,152.62 261.32,118.45 240.85,96.29 228.1,87.54 223.21,92.59 225.54,110.81 233.82,140.6 246.27,179.54 260.79,224.59 275.23,272.37 287.57,319.39 296.16,362.38 299.89,398.51 298.27,425.62 291.52,442.35 280.51,448.24 266.71,443.75 252.01,430.1 238.53,409.23 228.41,383.52 223.57,355.59 225.49,328.06 235.08,303.29 252.5,283.19 277.12,269.04 307.57,261.42 341.8,260.19 377.24,264.51 411.03,272.95 440.23,283.71 462.11,294.76 474.38,304.11 475.42,309.98 464.44,311.07 441.58,306.62 407.92,296.58 365.45,281.57 316.9,262.88 265.55,242.35 214.98,222.17 168.82,204.7 130.39,192.22 102.51,186.71 87.22,189.63 85.66,201.75 97.93,223.05 123.13,252.67 159.38,288.95 204.02,329.54 253.82,371.56 305.2,411.86 354.56,447.25 398.52,474.76 434.24,491.94 459.55,497.05 473.18,489.2 474.78,468.49 464.96,436.03 445.16,393.81 417.53,344.62 384.71,291.8 349.59,239.02 315.08,189.96 283.79,148.05 257.9,116.15 238.93,96.43 227.65,90.08 224.08,97.33 227.48,117.38 236.48,148.5 249.26,188.19 263.74,233.37 277.78,280.67 289.45,326.65 297.19,368.15 300.0,402.45 297.51,427.57 290.06,442.3 278.61,446.34 264.69,440.27 250.23,425.45 237.33,403.86 228.09,377.92 224.34,350.23 227.47,323.35 238.25,299.55 256.71,280.61 282.11,267.7 312.96,261.27 347.15,261.05 382.08,266.11 414.89,274.97 442.68,285.78 462.83,296.55 473.18,305.31 472.24,310.4 459.39,310.59 434.93,305.25 400.07,294.44 356.91,278.91 308.26,260.01 257.43,239.63 207.98,219.99 163.46,203.41 127.08,192.12 101.52,187.99 88.66,192.37 89.43,205.89 103.79,228.39 130.65,258.88 168.05,295.6 213.23,336.13 262.92,377.56 313.57,416.76 361.63,450.59 403.86,476.2 437.53,491.26 460.65,494.19 472.11,484.27 471.73,461.77 460.25,427.93 439.23,384.87 410.89,335.44 377.9,283.04 343.13,231.28 309.41,183.8 279.27,143.89 254.77,114.29 237.28,96.97 227.44,92.98 225.14,102.34 229.53,124.12 239.19,156.46 252.24,196.8 266.61,242.0 280.21,288.72 291.17,333.6 298.05,373.55 299.95,406.02 296.63,429.16 288.52,441.92 276.69,444.18 262.72,436.62 248.54,420.71 236.27,398.49 227.94,372.4 225.3,345.02 229.63,318.84 241.57,296.04 261.02,278.27 287.13,266.59 318.31,261.31 352.39,262.05 386.73,267.79 418.49,277.0 444.84,287.81 463.25,298.23 471.67,306.38 468.78,310.66 454.12,309.96 428.12,303.76 392.16,292.23 348.42,276.22 299.77,257.17 249.56,237.01 201.3,217.96 158.48,202.32 124.19,192.24 100.95,189.51 90.47,195.32 93.52,210.2 109.88,233.83 138.31,265.12 176.74,302.2 222.34,342.58 271.82,383.34 321.65,421.37 368.36,453.6 408.81,477.28 440.42,490.23 461.36,491.01 470.7,479.08 468.41,454.87 455.37,419.75 433.23,375.95 404.27,326.41 371.2,274.51 336.84,223.87 303.98,178.02 275.03,140.15 251.92,112.85 235.89,97.91 227.46,96.21 226.37,107.61 231.7,131.02 241.94,164.48 255.19,205.34 269.39,250.47 282.5,296.53 292.74,340.23 298.75,378.6 299.76,409.22 295.64,430.39 286.92,441.24 274.76,441.77 260.79,432.8 246.96,415.88 235.36,393.13 227.97,366.97 226.45,339.97 231.96,314.53 245.02,292.75 265.41,276.17 292.17,265.69 323.61,261.52 357.49,263.17 391.18,269.53 421.83,279.02 446.7,289.77 463.34,299.81 469.85,307.32 465.05,310.78 448.64,309.19 421.19,302.15 384.21,289.95 339.99,273.52 291.45,254.38 241.94,234.5 194.96,216.09 153.89,201.43 121.71,192.59 100.78,191.24 92.65,198.47 97.92,214.66 116.18,239.37 146.09,271.37 185.44,308.72 231.36,348.87 280.52,388.89 329.44,425.69 374.73,456.27 413.37,478.01 442.92,488.85 461.71,487.52 468.98,473.64 464.85,447.8 450.32,411.51 427.16,367.09 397.69,317.53 364.61,266.24 330.75,216.78 298.79,172.62 271.06,136.82 249.34,111.81 234.77,99.23 227.7,99.76 227.77,113.11 233.96,138.05 244.71,172.53 258.1,213.81 272.08,258.77 284.66,304.08 294.15,346.54 299.29,383.29 299.42,412.06 294.54,431.29 285.27,440.27 272.83,439.13 258.91,428.83 245.49,411.0 234.6,387.79 228.17,361.64 227.77,335.07 234.45,310.43 248.61,289.7 269.89,274.29 297.21,264.99 328.84,261.89 362.46,264.39 395.41,271.32 424.91,281.03 448.26,291.67 463.12,301.28 467.73,308.11 461.07,310.75 442.95,308.28 414.14,300.43 376.24,287.6 331.64,270.81 283.31,251.64 234.6,232.1 188.96,214.39 149.68,200.74 119.63,193.15 101.01,193.19 95.19,201.81 102.6,219.26 122.69,244.98 153.97,277.62 194.13,315.16 240.24,355.0 289.0,394.2 336.93,429.7 380.75,458.61 417.54,478.38 445.03,487.13 461.71,483.73 466.96,467.98 461.06,440.6 445.14,403.23 421.04,358.29 391.15,308.82 358.16,258.22 324.86,210.04 293.85,167.62 267.36,133.91 247.04,111.19 233.89,100.91 228.14,103.61 229.31,118.83 236.3,145.21 247.49,180.58 260.96,222.19 274.66,266.87 286.68,311.36 295.4,352.52 299.67,387.63 298.96,414.54 293.34,431.86 283.56,439.01 270.91,436.28 257.11,424.73 244.13,406.07 233.99,382.48 228.55,356.42 229.28,330.35 237.11,306.55 252.31,286.87 274.42,272.63 302.26,264.5 333.99,262.42 367.27,265.72 399.43,273.14 427.72,283.03 449.52,293.49 462.6,302.64 465.33,308.77 456.83,310.57 437.09,307.24 407.0,298.62 368.28,285.2 323.39,268.1 275.36,248.97 227.53,229.82 183.3,212.86 145.86,200.25 117.95,193.93 101.62,195.34 98.07,205.33 107.56,223.99 129.38,250.65 161.92,283.86 202.78,321.5 249.0,360.95 297.24,399.25 344.11,433.41 386.4,460.6 421.33,478.41 446.76,485.09 461.35,479.67 464.64,462.11 457.06,433.27 439.83,394.93 414.9,349.57 384.67,300.29 351.86,250.48 319.18,203.63 289.17,163.0 263.93,131.4 245.01,110.95 233.25,102.95 228.77,107.75 230.99,124.75 238.72,152.46 250.28,188.64 263.76,230.45 277.14,274.77 288.56,318.36 296.49,358.18 299.91,391.62 298.36,416.68 292.06,432.1 281.82,437.48 269.01,433.23 255.38,420.51 242.89,401.1 233.54,377.23 229.1,351.32 230.95,325.81 239.91,302.87 256.12,284.27 279.01,271.2 307.29,264.19 339.05,263.1 371.92,267.14 403.23,275.0 430.26,284.99 450.48,295.23 461.77,303.87 462.64,309.29 452.36,310.25 431.06,306.08 399.77,296.72 360.32,282.77 315.26,265.42 267.62,246.37 220.75,227.67 177.99,211.49 142.43,199.97 116.67,194.92 102.6,197.7 101.27,209.02 112.76,228.85 136.23,256.38 169.93,290.07 211.39,327.74 257.6,366.71 305.24,404.05 350.98,436.81 391.7,462.25 424.74,478.1 448.12,482.72 460.66,475.34 462.05,456.04 452.86,425.84 434.42,386.62 408.74,340.95 378.27,291.96 345.7,243.03 313.71,197.58 284.73,158.77 260.77,129.29 243.24,111.1 232.85,105.33 229.59,112.16 232.8,130.85 241.19,159.8 253.06,196.66 266.49,238.6 279.5,282.46 290.29,325.08 297.44,363.51 300.0,395.26 297.65,418.47 290.7,432.04 280.06,435.7 267.14,430.0 253.73,416.19 241.79,396.12 233.25,372.04 229.83,346.36 232.8,321.45 242.86,299.4 260.03,281.89 283.64,269.97 312.29,264.06 344.02,263.9 376.4,268.63 406.8,276.87 432.52,286.91 451.14,296.88 460.64,304.99 459.68,309.67 447.66,309.8 424.88,304.8 392.48,294.74 352.4,280.29 307.25,262.75 260.1,243.85 214.27,225.65 173.04,210.31 139.38,199.89 115.78,196.13 103.95,200.26 104.79,212.87 118.21,233.81 143.22,262.15 177.97,296.24 219.93,333.85 266.03,372.27 312.99,408.59 357.53,439.9 396.63,463.57 427.77,477.45 449.12,480.05 459.65,470.75 459.21,449.79 448.48,418.32 428.91,378.32 402.58,332.45 371.96,283.84 339.71,235.86 308.46,191.87 280.55,154.94 257.88,127.58 241.72,111.63 232.66,108.03 230.59,116.83 234.71,137.12 243.7,167.19 255.83,204.65 269.15,246.6 281.75,289.92 291.89,331.51 298.23,368.51 299.95,398.55 296.83,419.92 289.27,431.68 278.27,433.68 265.3,426.6 252.17,411.78 240.81,391.13 233.13,366.92 230.73,341.53 234.81,317.27 245.94,296.15 264.04,279.73 288.3,268.95 317.25,264.1 348.87,264.83 380.71,270.19 410.13,278.75 434.51,288.78 451.5,298.44 459.22,305.97 456.45,309.9 442.76,309.2 418.56,303.41 385.13,292.68 344.52,277.8 299.38,260.12 252.81,241.42 208.09,223.78 168.43,209.31 136.72,200.02 115.27,197.54 105.66,203.01 108.6,216.88 123.87,238.87 150.34,267.94 186.04,302.36 228.38,339.82 274.28,377.62 320.48,412.85 363.76,442.68 401.2,464.56 430.44,476.47 449.77,477.09 458.33,465.92 456.12,443.37 443.94,410.72 423.34,370.05 396.44,324.07 365.74,275.94 333.89,229.0 303.43,186.53 276.63,151.48 255.25,126.26 240.45,112.52 232.69,111.05 231.74,121.72 236.73,143.53 246.25,174.63 258.56,212.58 271.73,254.45 283.87,297.16 293.33,337.65 298.87,373.18 299.76,401.51 295.9,421.06 287.78,431.03 276.48,431.43 263.52,423.04 250.7,407.3 239.97,386.16 233.16,361.88 231.8,336.84 236.98,313.28 249.15,293.12 268.12,277.79 292.98,268.12 322.17,264.3 353.6,265.88 384.82,271.81 413.21,280.63 436.22,290.6 451.57,299.9 457.52,306.83 452.98,310.0 437.66,308.48 412.12,301.91 377.76,290.56 336.7,275.29 291.66,257.53 245.76,239.09 202.22,222.05 164.19,208.49 134.43,200.35 115.13,199.16 107.7,205.94 112.69,221.03 129.73,244.01 157.56,273.74 194.12,308.41 236.74,345.66 282.34,382.76 327.69,416.84 369.65,445.14 405.42,465.22 432.74,475.17 450.08,473.84 456.72,460.87 452.8,436.81 439.25,403.07 417.7,361.83 390.33,315.84 359.64,268.27 328.24,222.44 298.63,181.54 272.95,148.42 252.87,125.33 239.41,113.76 232.92,114.36 233.04,126.84 238.83,150.06 248.83,182.1 261.26,220.43 274.22,262.14 285.87,304.15 294.63,343.49 299.36,377.52 299.45,404.12 294.87,421.87 286.24,430.11 274.69,428.98 261.78,419.35 249.34,402.76 239.28,381.2 233.36,356.94 233.04,332.31 239.3,309.49 252.48,290.29 272.27,276.05 297.66,267.49 327.02,264.66 358.2,267.02 388.74,273.47 416.06,282.5 437.65,292.36 451.36,301.26 455.54,307.57 449.26,309.97 432.38,307.63 405.58,300.32 370.36,288.38 328.96,272.78 284.12,254.99 238.96,236.87 196.67,220.48 160.31,207.86 132.53,200.88 115.36,200.98 110.07,209.05 117.05,225.3 135.78,249.22 164.87,279.54 202.18,314.38 244.98,351.33 290.2,387.67 334.63,420.55 375.22,447.29 409.27,465.55 434.68,473.56 450.05,470.31 454.83,455.6 449.27,430.12 434.43,395.39 412.02,353.66 384.27,307.76 353.66,260.85 322.79,216.19 294.06,176.92 269.54,145.73 250.75,124.76 238.61,115.34 233.34,117.95 234.48,132.16 241.01,156.71 251.41,189.58 263.91,228.2 276.61,269.65 287.73,310.89 295.79,349.03 299.71,381.53 299.01,406.41 293.76,422.38 284.66,428.93 272.91,426.32 260.11,415.54 248.09,398.18 238.72,376.28 233.72,352.11 234.45,327.94 241.77,305.89 255.93,287.68 276.49,274.53 302.34,267.03 331.79,265.16 362.66,268.26 392.46,275.17 418.65,284.34 438.8,294.04 450.85,302.51 453.29,308.17 445.32,309.8 426.93,306.67 398.94,298.63 362.97,286.15 321.31,270.27 276.75,252.51 232.41,234.76 191.44,219.06 156.78,207.42 130.99,201.61 115.94,202.99 112.76,212.32 121.66,229.7 142.0,254.49 172.25,285.33 210.21,320.26 253.09,356.84 297.84,392.35 341.28,423.98 380.45,449.12 412.77,465.56 436.27,471.65 449.71,466.53 452.67,450.14 445.55,423.31 429.5,387.68 406.32,345.58 378.26,299.85 347.82,253.68 317.52,210.27 289.72,172.65 266.37,143.43 248.88,124.56 238.03,117.25 233.94,121.81 236.05,137.67 243.25,163.44 254.0,197.05 266.5,235.86 278.9,276.97 289.47,317.37 296.8,354.26 299.92,385.21 298.45,408.37 292.57,422.59 283.05,427.5 271.15,423.48 258.51,411.62 246.95,393.58 238.31,371.41 234.24,347.38 236.01,323.73 244.38,302.49 259.47,285.28 280.75,273.21 307.01,266.76 336.49,265.79 366.97,269.58 395.98,276.89 421.0,286.16 439.68,295.66 450.07,303.65 450.79,308.64 441.16,309.49 421.32,305.58 392.23,296.86 355.59,283.89 313.76,267.77 269.58,250.1 226.14,232.77 186.53,217.81 153.62,207.16 129.82,202.54 116.88,205.19 115.75,215.76 126.51,234.21 148.36,259.8 179.69,291.09 218.19,326.04 261.07,362.18 305.25,396.79 347.64,427.12 385.35,450.64 415.91,465.25 437.51,469.44 449.05,462.49 450.25,444.5 441.64,416.41 424.47,379.97 400.61,337.58 372.32,292.13 342.11,246.77 312.46,204.66 285.62,168.75 263.45,141.49 247.25,124.72 237.67,119.47 234.71,125.91 237.73,143.34 245.54,170.25 256.58,204.5 269.04,243.41 281.09,284.09 291.08,323.6 297.66,359.19 300.0,388.57 297.78,410.02 291.3,422.52 281.41,425.84 269.41,420.47 256.98,407.61 245.93,388.95 238.05,366.6 234.92,342.78 237.73,319.69 247.12,299.28 263.11,283.08 285.05,272.08 311.65,266.65 341.09,266.55 371.12,270.97 399.27,278.63 423.08,287.94 440.28,297.19 449.01,304.68 448.03,308.98 436.79,309.06 415.58,304.39 385.46,295.02 348.23,281.59 306.33,265.3 262.61,247.77 220.14,230.91 181.94,216.72 150.81,207.1 129.01,203.67 118.15,207.57 119.02,219.34 131.57,238.82 154.86,265.16 187.16,296.81 226.11,331.71 268.88,367.33 312.43,400.98 353.7,429.97 389.91,451.85 418.71,464.63 438.42,466.95 448.1,458.22 447.6,438.69 437.57,409.43 419.36,372.27 394.89,329.7 366.47,284.61 336.56,240.14 307.6,199.39 281.75,165.2 260.78,139.92 245.85,125.23 237.51,122.0 235.64,130.25 239.51,149.16 247.88,177.12 259.14,211.9 271.5,250.83 283.17,291.01 292.54,329.55 298.39,363.81 299.95,391.61 297.01,411.35 289.97,422.17 279.75,423.95 267.71,417.31 255.54,403.51 245.03,384.33 237.94,361.85 235.77,338.3 239.61,315.83 249.99,296.28 266.83,281.09 289.37,271.14 316.25,266.69 345.59,267.41 375.1,272.42 402.35,280.37 424.91,289.68 440.6,298.63 447.68,305.59 445.02,309.2 432.23,308.51 409.71,303.09 378.64,293.1 340.93,279.28 299.04,262.86 255.86,245.53 214.42,229.18 177.69,215.8 148.36,207.23 128.55,205.0 119.74,210.13 122.58,223.06 136.84,243.52 161.47,270.53 194.65,302.49 233.95,337.25 276.53,372.29 319.36,404.93 359.46,432.53 394.13,452.75 421.17,463.71 439.01,464.18 446.86,453.73 444.72,432.73 433.34,402.38 414.18,364.6 389.2,321.93 360.71,277.29 331.17,233.78 302.94,194.45 278.12,162.02 258.35,138.72 244.68,126.07 237.54,124.81 236.72,134.81 241.38,155.11 250.25,184.03 261.68,219.26 273.89,258.11 285.13,297.71 293.88,335.23 298.98,368.13 299.77,394.33 296.15,412.39 288.59,421.56 278.09,421.85 266.06,414.01 254.18,399.35 244.26,379.71 237.98,357.18 236.77,333.97 241.63,312.14 252.98,293.47 270.62,279.3 293.71,270.38 320.81,266.89 349.97,268.39 378.91,273.92 405.21,282.12 426.49,291.37 440.66,299.98 446.09,306.38 441.79,309.28 427.49,307.83 403.73,301.7 371.8,291.13 333.67,276.95 291.89,260.46 249.32,243.37 208.98,227.58 173.77,215.05 146.25,207.54 128.44,206.51 121.66,212.86 126.39,226.92 142.29,248.29 168.17,275.91 202.14,308.1 241.7,342.65 284.0,377.04 326.05,408.62 364.92,434.8 398.02,453.34 423.28,462.49 439.28,461.15 445.35,449.03 441.63,426.63 428.99,395.28 408.95,356.97 383.53,314.3 355.05,270.18 325.94,227.71 298.5,189.84 274.73,159.19 256.16,137.87 243.73,127.24 237.77,127.9 237.93,139.57 243.34,161.18 252.64,190.96 264.18,226.54 276.19,265.24 286.98,304.18 295.08,340.64 299.43,372.14 299.47,396.74 295.19,413.13 287.16,420.69 276.43,419.56 264.45,410.57 252.93,395.14 243.62,375.11 238.17,352.6 237.93,329.77 243.79,308.62 256.07,290.86 274.48,277.7 298.06,269.8 325.31,267.23 354.23,269.45 382.54,275.46 407.83,283.85 427.8,292.99 440.44,301.23 444.24,307.05 438.33,309.24 422.58,307.04 397.65,300.21 364.93,289.11 326.49,274.61 284.9,258.11 243.02,241.31 203.85,226.13 170.19,214.47 144.5,208.05 128.67,208.2 123.87,215.76 130.45,230.9 147.91,253.13 174.96,281.3 209.62,313.64 249.34,347.91 291.28,381.59 332.47,412.05 370.07,436.78 401.58,453.63 425.06,460.98 439.24,457.87 443.58,444.13 438.34,420.42 424.51,388.14 403.68,349.4 377.9,306.81 349.51,263.31 320.88,221.93 294.27,185.56 271.57,156.72 254.2,137.36 243.0,128.73 238.16,131.24 239.27,144.51 245.36,167.35 255.04,197.9 266.64,233.75 278.41,272.2 288.71,310.43 296.14,345.76 299.75,375.84 299.05,398.85 294.15,413.58 285.69,419.58 274.78,417.09 262.9,407.03 251.77,390.89 243.11,370.55 238.51,348.12 239.24,325.72 246.09,305.29 259.27,288.45 278.39,276.29 302.4,269.39 329.74,267.7 358.36,270.61 385.98,277.04 410.23,285.56 428.86,294.55 439.96,302.39 442.14,307.61 434.66,309.08 417.52,306.14 391.49,298.64 358.07,287.04 319.4,272.29 278.07,255.81 236.97,239.36 199.0,224.82 166.93,214.07 143.09,208.74 129.24,210.08 126.38,218.8 134.74,234.98 153.68,258.02 181.81,286.67 217.06,319.09 256.87,353.02 298.36,385.92 338.63,415.21 374.9,438.47 404.81,453.63 426.52,459.19 438.9,454.34 441.56,439.06 434.88,414.1 419.93,380.99 398.38,341.9 372.33,299.48 344.09,256.67 316.01,216.45 290.26,181.62 268.64,154.6 252.47,137.2 242.47,130.51 238.73,134.83 240.73,149.63 247.45,173.61 257.44,204.83 269.04,240.86 280.53,278.98 290.31,316.43 297.07,350.6 299.94,379.25 298.53,400.65 293.04,413.77 284.19,418.24 273.14,414.44 261.42,403.39 250.72,386.61 242.74,366.03 239.01,343.74 240.7,321.82 248.51,302.15 262.57,286.23 282.34,275.08 306.73,269.14 334.09,268.29 362.35,271.83 389.23,278.64 412.39,287.25 429.66,296.05 439.22,303.44 439.8,308.04 430.79,308.79 412.31,305.12 385.26,297.0 351.22,284.93 312.4,269.97 271.43,253.58 231.15,237.52 194.46,223.67 164.01,213.84 142.02,209.61 130.12,212.13 129.17,222.0 139.25,239.17 159.6,262.96 188.72,292.01 224.47,324.45 264.26,357.96 305.23,390.03 344.51,418.11 379.43,439.86 407.71,453.32 427.66,457.12 438.28,450.59 439.31,433.81 431.24,407.69 415.26,373.84 393.08,334.49 366.83,292.33 338.8,250.27 311.32,211.26 286.46,178.02 265.94,152.82 250.97,137.36 242.14,132.59 239.45,138.65 242.3,154.9 249.58,179.93 259.83,211.74 271.39,247.85 282.56,285.58 291.79,322.19 297.87,355.16 300.0,382.35 297.91,402.17 291.87,413.69 282.66,416.69 271.53,411.65 260.01,399.66 249.78,382.32 242.5,361.57 239.65,339.48 242.3,318.08 251.07,299.18 265.94,284.2 286.33,274.04 311.04,269.05 338.35,269.0 366.2,273.13 392.28,280.25 414.32,288.9 430.2,297.46 438.22,304.39 437.22,308.35 426.72,308.39 406.97,304.01 378.97,295.28 344.4,282.8 305.52,267.68 264.97,251.42 225.6,235.8 190.23,222.66 161.42,213.79 141.29,210.67 131.31,214.35 132.22,225.33 143.95,243.46 165.63,267.93 195.65,297.32 231.82,329.7 271.5,362.73 311.88,393.91 350.12,420.75 383.65,440.97 410.29,452.74 428.49,454.8 437.38,446.61 436.83,428.41 427.46,401.2 410.51,366.69 387.78,327.17 361.4,285.35 333.66,244.13 306.82,206.39 282.88,174.75 263.48,151.38 249.69,137.85 242.01,134.95 240.32,142.69 243.96,160.31 251.75,186.31 262.21,218.61 273.67,254.73 284.48,291.99 293.15,327.71 298.54,359.44 299.94,385.15 297.19,403.39 290.63,413.35 281.13,414.93 269.96,408.7 258.67,395.86 248.95,378.03 242.41,357.17 240.44,335.33 244.05,314.5 253.73,296.4 269.4,282.36 290.35,273.17 315.31,269.1 342.52,269.81 369.88,274.48 395.13,281.87 416.0,290.51 430.49,298.79 436.97,305.23 434.43,308.54 422.48,307.87 401.52,302.8 372.64,293.5 337.62,280.65 298.76,265.42 258.71,249.34 220.31,234.2 186.3,221.82 159.16,213.92 140.89,211.91 132.81,216.74 135.53,228.79 148.85,247.82 171.77,272.92 202.6,302.58 239.09,334.83 278.59,367.32 318.3,397.56 355.46,423.11 387.55,441.79 412.55,451.86 429.02,452.22 436.22,442.43 434.15,422.88 423.53,394.66 405.7,359.57 382.49,319.97 356.06,278.57 328.66,238.24 302.51,201.81 279.53,171.81 261.23,150.28 248.61,138.65 242.05,137.57 241.33,146.93 245.7,165.84 253.95,192.72 264.56,225.43 275.88,261.48 286.3,298.2 294.38,332.97 299.08,363.43 299.77,387.66 296.38,404.34 289.34,412.77 279.58,412.97 268.42,405.63 257.42,391.99 248.24,373.74 242.45,352.84 241.38,331.31 245.93,311.08 256.51,293.81 272.92,280.7 294.38,272.48 319.53,269.29 346.58,270.71 373.41,275.87 397.77,283.49 417.45,292.07 430.52,300.04 435.48,305.96 431.41,308.62 418.07,307.23 395.96,301.51 366.29,291.67 330.9,278.49 292.13,263.19 252.66,247.34 215.28,232.72 182.68,221.13 157.23,214.22 140.8,213.32 134.6,219.28 139.08,232.37 153.92,252.25 178.0,277.91 209.55,307.79 246.28,339.84 285.52,371.72 324.49,400.97 360.5,425.2 391.15,442.32 414.5,450.72 429.25,449.39 434.8,438.06 431.27,417.21 419.48,388.07 400.85,352.5 377.24,312.9 350.81,271.99 323.82,232.63 298.39,197.55 276.39,169.2 259.21,149.51 247.74,139.75 242.26,140.45 242.46,151.36 247.52,171.48 256.17,199.15 266.88,232.19 278.02,268.08 288.0,304.19 295.49,337.97 299.49,367.13 299.49,389.89 295.49,405.01 288.01,411.95 278.04,410.84 266.93,402.44 256.26,388.08 247.65,369.48 242.64,348.59 242.46,327.42 247.95,307.84 259.39,291.4 276.51,279.23 298.41,271.95 323.7,269.61 350.53,271.71 376.77,277.31 400.19,285.1 418.66,293.58 430.31,301.2 433.75,306.58 428.19,308.57 413.51,306.49 390.32,300.12 359.92,289.79 324.24,276.33 285.65,261.01 246.82,245.44 210.53,231.38 179.37,220.6 155.62,214.7 141.03,214.9 136.67,221.97 142.86,236.07 159.14,256.74 184.3,282.91 216.49,312.92 253.36,344.71 292.26,375.93 330.44,404.14 365.27,427.02 394.43,442.58 416.14,449.3 429.2,446.33 433.15,433.51 428.22,411.44 415.32,381.45 395.95,345.47 372.02,305.96 345.68,265.62 319.14,227.28 294.48,193.6 273.47,166.93 257.41,149.06 247.07,141.14 242.64,143.56 243.72,155.96 249.4,177.21 258.39,205.59 269.16,238.87 280.07,274.53 289.6,309.98 296.47,342.71 299.78,370.56 299.1,391.83 294.52,405.42 286.65,410.91 276.51,408.53 265.5,399.15 255.19,384.14 247.19,365.25 242.96,344.44 243.68,323.67 250.09,304.75 262.36,289.16 280.14,277.94 302.44,271.58 327.81,270.05 354.36,272.78 379.95,278.77 402.4,286.68 419.62,295.02 429.85,302.27 431.79,307.08 424.78,308.41 408.8,305.65 384.6,298.66 353.55,287.87 317.66,274.17 279.32,258.88 241.21,243.63 206.05,230.18 176.36,220.24 154.33,215.35 141.57,216.65 139.01,224.8 146.85,239.87 164.51,261.29 190.66,287.89 223.4,317.98 260.34,349.45 298.82,379.94 336.14,407.06 369.74,428.57 397.41,442.56 417.48,447.63 428.87,443.05 431.26,428.79 424.99,405.57 411.07,374.81 391.04,338.52 366.85,299.16 340.65,259.47 314.62,222.2 290.77,189.96 270.76,164.97 255.82,148.92 246.59,142.81 243.17,146.91 245.08,160.71 251.33,183.02 260.62,212.02 271.39,245.46 282.04,280.82 291.08,315.54 297.33,347.19 299.95,373.7 298.61,393.49 293.49,405.58 285.25,409.66 275.0,406.07 264.13,395.76 254.22,380.16 246.85,361.06 243.43,340.38 245.05,320.06 252.34,301.84 265.42,287.11 283.81,276.81 306.46,271.36 331.84,270.6 358.05,273.92 382.96,280.26 404.4,288.25 420.35,296.4 429.15,303.24 429.61,307.48 421.17,308.14 403.96,304.7 378.81,297.13 347.2,285.92 311.17,272.02 273.16,256.82 235.83,241.93 201.85,229.11 173.67,220.04 153.36,216.17 142.4,218.56 141.61,227.77 151.05,243.76 170.0,265.87 197.07,292.85 230.27,322.95 267.19,354.02 305.19,383.74 341.59,409.74 373.93,429.85 400.09,442.26 418.52,445.7 428.28,439.55 429.16,423.91 421.61,399.62 406.73,368.17 386.12,331.64 361.75,292.53 335.75,253.55 310.28,217.41 287.26,186.63 268.27,163.34 254.43,149.09 246.3,144.75 243.85,150.47 246.53,165.61 253.31,188.89 262.84,218.43 273.56,251.95 283.91,286.94 292.45,320.87 298.06,351.41 300.0,376.56 298.02,394.88 292.39,405.49 283.84,408.2 273.5,403.46 262.82,392.3 253.35,376.18 246.64,356.92 244.03,336.43 246.54,316.6 254.72,299.1 268.56,285.24 287.51,275.86 310.45,271.27 335.8,271.27 361.61,275.13 385.78,281.75 406.17,289.78 420.84,297.71 428.21,304.12 427.21,307.76 417.39,307.76 399.0,303.67 372.97,295.54 340.87,283.94 304.79,269.9 267.18,254.82 230.69,240.34 197.93,228.19 171.28,220.0 152.69,217.16 143.53,220.63 144.46,230.87 155.43,247.74 175.6,270.48 203.5,297.77 237.08,327.81 273.91,358.44 311.35,387.33 346.78,412.17 377.82,430.86 402.47,441.7 419.27,443.53 427.44,435.86 426.85,418.9 418.09,393.6 402.32,361.54 381.2,324.86 356.71,286.07 330.99,247.86 306.11,212.9 283.95,183.61 265.99,162.02 253.25,149.56 246.18,146.96 244.67,154.22 248.08,170.64 255.33,194.81 265.05,224.81 275.68,258.33 285.69,292.88 293.71,325.98 298.67,355.36 299.94,379.15 297.35,396.0 291.24,405.16 282.41,406.56 272.04,400.73 261.58,388.76 252.59,372.2 246.55,352.84 244.77,332.59 248.17,313.29 257.2,296.53 271.77,283.54 291.24,275.07 314.41,271.33 339.66,272.02 365.03,276.38 388.41,283.26 407.72,291.27 421.1,298.94 427.04,304.89 424.6,307.93 413.45,307.27 393.94,302.54 367.1,293.88 334.58,281.94 298.52,267.8 261.38,252.89 225.79,238.86 194.3,227.41 169.2,220.13 152.33,218.32 144.93,222.85 147.55,234.09 159.98,251.79 181.31,275.11 209.95,302.66 243.83,332.57 280.48,362.69 317.29,390.71 351.72,414.35 381.43,431.61 404.55,440.88 419.75,441.12 426.34,431.97 424.35,413.75 414.44,387.52 397.85,354.94 376.3,318.18 351.76,279.79 326.36,242.41 302.12,208.67 280.84,180.91 263.92,161.02 252.27,150.31 246.23,149.4 245.61,158.17 249.7,175.78 257.37,200.76 267.23,231.13 277.73,264.58 287.37,298.63 294.84,330.84 299.17,359.05 299.78,381.47 296.6,396.86 290.05,404.61 280.98,404.74 270.62,397.87 260.43,385.18 251.93,368.22 246.6,348.82 245.65,328.86 249.92,310.12 259.78,294.13 275.05,282.02 294.98,274.43 318.33,271.51 343.42,272.87 368.29,277.68 390.85,284.76 409.06,292.72 421.12,300.1 425.65,305.56 421.8,308.0 409.35,306.68 388.78,301.33 361.2,292.18 328.34,279.94 292.37,265.73 255.78,251.04 221.14,237.5 190.96,226.78 167.43,220.42 152.27,219.63 146.61,225.22 150.85,237.42 164.69,255.91 187.09,279.75 216.41,307.48 250.49,337.21 286.89,366.77 323.03,393.86 356.39,416.28 384.75,432.09 406.34,439.8 419.95,438.49 425.02,427.9 421.67,408.49 410.68,381.4 393.34,348.37 371.42,311.62 346.9,273.69 321.87,237.21 298.31,204.73 277.94,178.5 262.06,160.32 251.47,151.35 246.44,152.08 246.67,162.28 251.39,181.01 259.43,206.73 269.38,237.4 279.7,270.7 288.95,304.18 295.86,335.47 299.54,362.47 299.51,383.52 295.77,397.47 288.81,403.84 279.55,402.75 269.24,394.9 259.35,381.55 251.39,364.27 246.78,344.89 246.66,325.26 251.8,307.12 262.46,291.9 278.37,280.66 298.73,273.95 322.2,271.81 347.08,273.8 371.4,279.01 393.09,286.25 410.16,294.11 420.91,301.17 424.03,306.13 418.8,307.95 405.11,305.99 383.54,300.04 355.29,290.43 322.17,277.93 286.37,263.71 250.37,249.28 216.74,236.26 187.9,226.3 165.95,220.87 152.5,221.11 148.54,227.72 154.37,240.86 169.54,260.08 192.94,284.38 222.84,312.24 257.07,341.73 293.15,370.67 328.53,396.79 360.79,417.96 387.79,432.32 407.85,438.48 419.89,435.64 423.47,423.67 418.83,403.13 406.81,375.26 388.8,341.86 366.58,305.19 342.14,267.79 317.53,232.26 294.69,201.08 275.24,176.41 260.39,159.91 250.86,152.65 246.79,154.99 247.83,166.56 253.14,186.34 261.5,212.7 271.49,243.6 281.6,276.68 290.42,309.54 296.77,339.86 299.8,365.64 299.14,385.3 294.87,397.84 287.54,402.87 278.13,400.6 267.92,391.84 258.36,377.88 250.97,360.34 247.09,341.04 247.8,321.79 253.79,304.27 265.22,289.84 281.75,279.47 302.47,273.61 326.01,272.23 350.63,274.8 374.35,280.37 395.13,287.72 411.05,295.45 420.47,302.16 422.2,306.59 415.62,307.8 400.73,305.2 378.22,298.69 349.39,288.65 316.07,275.92 280.5,261.74 245.18,247.61 212.6,235.15 185.13,225.97 164.77,221.48 153.01,222.74 150.73,230.36 158.08,244.39 174.53,264.3 198.85,289.01 229.25,316.93 263.53,346.11 299.22,374.37 333.81,399.49 364.93,419.38 390.54,432.28 409.07,436.91 419.57,432.58 421.71,419.28 415.83,397.68 402.86,369.1 384.24,335.41 361.79,298.9 337.48,262.09 313.35,227.56 291.25,197.71 272.74,174.61 258.93,159.8 250.42,154.22 247.3,158.1 249.1,170.98 254.93,191.73 263.57,218.67 273.56,249.71 283.42,282.51 291.8,314.69 297.56,344.0 299.96,368.54 298.68,386.83 293.9,397.98 286.25,401.69 276.72,398.31 266.64,388.7 257.47,374.2 250.66,356.46 247.53,337.28 249.07,318.44 255.89,301.57 268.07,287.95 285.16,278.43 306.19,273.41 329.75,272.75 354.05,275.86 377.13,281.75 396.97,289.17 411.72,296.73 419.81,303.05 420.16,306.96 412.27,307.54 396.24,304.32 372.85,297.26 343.49,286.83 310.05,273.93 274.8,259.83 240.2,246.03 208.72,234.17 182.64,225.79 163.88,222.25 153.8,224.53 153.15,233.12 161.98,248.0 179.63,268.55 204.8,293.61 235.63,321.53 269.89,350.35 305.12,377.89 338.86,401.97 368.8,420.56 393.01,432.0 410.03,435.11 419.01,429.33 419.75,414.75 412.68,392.15 398.83,362.93 379.68,329.03 357.05,292.75 332.94,256.61 309.33,223.13 288.01,194.64 270.44,173.11 257.65,159.97 250.16,156.04 247.93,161.41 250.46,175.53 256.77,197.18 265.63,224.62 275.57,255.73 285.16,288.17 293.06,319.62 298.23,347.9 300.0,371.18 298.14,388.1 292.88,397.88 284.93,400.33 275.34,395.88 265.43,385.48 256.67,370.5 250.47,352.62 248.09,333.61 250.47,315.24 258.1,299.04 270.98,286.22 288.6,277.56 309.9,273.34 333.41,273.37 357.35,276.98 379.74,283.14 398.61,290.59 412.16,297.94 418.93,303.86 417.93,307.21 408.75,307.18 391.63,303.35 367.43,295.78 337.62,285.0 304.13,271.96 269.25,257.97 235.44,244.56 205.1,233.32 180.44,225.77 163.28,223.18 154.86,226.45 155.81,236.01 166.06,251.7 184.84,272.83 210.77,298.18 241.95,326.05 276.11,354.45 310.83,381.21 343.66,404.21 372.4,421.48 395.2,431.46 410.71,433.08 418.21,425.89 417.6,410.09 409.41,386.56 394.73,356.78 375.11,322.74 352.38,286.76 328.53,251.34 305.47,218.95 284.95,191.86 268.33,171.9 256.56,160.42 250.05,158.09 248.69,164.91 251.89,180.2 258.65,202.67 267.67,230.53 277.53,261.64 286.8,293.68 294.22,324.35 298.8,351.56 299.94,373.57 297.51,389.13 291.82,397.57 283.61,398.8 273.99,393.34 264.29,382.2 255.97,366.8 250.4,348.83 248.79,330.05 251.98,312.17 260.41,296.66 273.97,284.65 292.05,276.83 313.57,273.4 336.99,274.08 360.51,278.14 382.17,284.54 400.04,291.97 412.38,299.08 417.83,304.57 415.5,307.37 405.08,306.72 386.92,302.3 361.98,294.24 331.78,283.14 298.32,270.01 263.88,256.19 230.9,243.19 201.74,232.6 178.53,225.89 162.96,224.26 156.17,228.52 158.68,239.0 170.29,255.46 190.13,277.13 216.76,302.7 248.2,330.46 282.2,358.38 316.34,384.33 348.23,406.22 375.74,422.16 397.12,430.69 411.14,430.84 417.19,422.27 415.27,405.31 406.02,380.92 390.59,350.66 370.56,316.55 347.79,280.94 324.24,246.3 301.78,215.05 282.07,189.36 266.42,170.99 255.66,161.14 250.11,160.37 249.57,168.58 253.4,184.98 260.54,208.2 269.69,236.4 279.43,267.43 288.36,299.0 295.27,328.85 299.25,354.97 299.78,375.71 296.8,389.92 290.7,397.05 282.28,397.1 272.67,390.68 263.22,378.87 255.37,363.12 250.45,345.11 249.61,326.6 253.62,309.24 262.81,294.44 277.01,283.24 295.53,276.25 317.2,273.57 340.48,274.87 363.53,279.35 384.42,285.93 401.26,293.31 412.39,300.15 416.53,305.19 412.88,307.42 401.27,306.17 382.13,301.17 356.51,292.66 326.0,281.28 292.63,268.1 258.69,254.48 226.6,241.94 198.65,232.03 176.89,226.17 162.91,225.49 157.74,230.72 161.76,242.09 174.67,259.29 195.51,281.43 222.74,307.18 254.38,334.76 288.15,362.16 321.64,387.25 352.55,407.99 378.8,422.6 398.76,429.68 411.31,428.38 415.95,418.49 412.78,400.42 402.52,375.24 386.4,344.57 366.04,310.47 343.29,275.29 320.08,241.48 298.25,211.4 279.39,187.14 264.7,170.35 254.93,162.11 250.31,162.87 250.56,172.41 254.97,189.84 262.45,213.74 271.69,242.21 281.26,273.11 289.82,304.15 296.21,333.14 299.59,358.14 299.53,377.6 296.03,390.48 289.55,396.32 280.95,395.24 271.39,387.92 262.23,375.49 254.87,359.45 250.62,341.46 250.55,323.27 255.36,306.46 265.3,292.38 280.1,281.99 299.0,275.81 320.79,273.86 343.87,275.73 366.41,280.59 386.49,287.31 402.28,294.6 412.19,301.14 415.02,305.71 410.09,307.37 397.33,305.52 377.26,299.98 351.02,291.03 320.27,279.42 287.06,266.23 253.69,252.85 222.53,240.79 195.83,231.59 175.54,226.59 163.14,226.87 159.55,233.05 165.03,245.29 179.18,263.16 200.94,285.74 228.71,311.59 260.48,338.94 293.94,365.76 326.74,389.96 356.62,409.54 381.61,422.79 400.15,428.43 411.24,425.73 414.5,414.55 410.13,395.44 398.93,369.53 382.19,338.52 361.55,304.51 338.87,269.82 316.06,236.9 294.9,208.03 276.9,185.21 263.17,169.99 254.37,163.34 250.65,165.58 251.65,176.38 256.6,194.78 264.37,219.28 273.64,247.96 283.02,278.65 291.18,309.11 297.04,337.2 299.83,361.06 299.18,379.24 295.19,390.81 288.37,395.41 279.63,393.25 270.16,385.08 261.32,372.09 254.48,355.81 250.92,337.89 251.62,320.05 257.22,303.82 267.86,290.48 283.23,280.89 302.47,275.5 324.32,274.25 347.15,276.66 369.14,281.85 388.38,288.68 403.09,295.84 411.77,302.05 413.31,306.14 407.13,307.23 393.26,304.78 372.33,298.71 345.54,289.38 314.61,277.56 281.62,264.4 248.88,251.3 218.7,239.77 193.27,231.29 174.45,227.17 163.63,228.39 161.59,235.51 168.49,248.57 183.81,267.08 206.42,290.02 234.66,315.94 266.47,343.0 299.57,369.2 331.63,392.45 360.45,410.85 384.14,422.75 401.27,426.97 410.94,422.88 412.85,410.47 407.34,390.37 395.26,363.82 377.95,332.54 357.1,298.67 334.56,264.55 312.19,232.56 291.72,204.92 274.59,183.56 261.82,169.9 253.98,164.8 251.12,168.48 252.83,180.49 258.27,199.79 266.29,224.82 275.56,253.63 284.7,284.05 292.45,313.88 297.77,341.03 299.96,363.74 298.75,380.64 294.29,390.92 287.17,394.31 278.33,391.11 268.99,382.15 260.49,368.67 254.2,352.2 251.33,334.41 252.81,316.96 259.17,301.33 270.51,288.73 286.39,279.94 305.93,275.32 327.79,274.74 350.32,277.65 371.71,283.13 390.07,290.02 403.7,297.02 411.14,302.88 411.41,306.47 404.01,306.98 389.08,303.96 367.34,297.39 340.07,287.69 309.03,275.71 276.34,262.63 244.26,249.84 215.11,238.86 190.98,231.13 173.64,227.89 164.37,230.05 163.85,238.08 172.12,251.93 188.55,271.03 211.94,294.29 240.57,320.21 272.36,346.93 305.03,372.45 336.3,394.74 364.03,411.93 386.42,422.47 402.14,425.29 410.41,419.85 411.03,406.26 404.41,385.24 391.51,358.1 373.71,326.63 352.71,292.97 330.35,259.47 308.47,228.45 288.72,202.08 272.46,182.18 260.64,170.07 253.74,166.5 251.72,171.56 254.09,184.72 259.98,204.85 268.2,230.34 277.43,259.21 286.31,289.3 293.62,318.45 298.39,344.64 300.0,366.18 298.24,381.82 293.35,390.82 285.95,393.04 277.05,388.86 267.87,379.16 259.75,365.24 254.03,348.64 251.86,331.02 254.11,313.99 261.23,298.99 273.22,287.13 289.59,279.13 309.36,275.26 331.18,275.32 353.38,278.69 374.12,284.42 391.58,291.33 404.1,298.14 410.32,303.62 409.32,306.7 400.74,306.64 384.8,303.06 362.31,296.01 334.62,285.99 303.55,273.88 271.2,260.91 239.86,248.48 211.76,238.08 188.95,231.11 173.1,228.76 165.37,231.85 166.33,240.76 175.91,255.36 193.39,275.0 217.49,298.53 246.44,324.39 278.13,350.72 310.32,375.52 340.75,396.81 367.36,412.77 388.44,421.96 402.77,423.39 409.65,416.65 409.02,401.93 401.37,380.05 387.71,352.39 369.48,320.8 348.38,287.42 326.26,254.59 304.89,224.59 285.89,199.51 270.52,181.08 259.64,170.5 253.65,168.42 252.43,174.81 255.43,189.06 261.72,209.95 270.1,235.82 279.24,264.69 287.83,294.4 294.69,322.82 298.91,348.02 299.94,368.38 297.65,382.76 292.35,390.52 284.72,391.61 275.79,386.49 266.81,376.12 259.11,361.81 253.97,345.13 252.51,327.72 255.52,311.15 263.37,296.79 275.99,285.68 292.8,278.47 312.77,275.32 334.5,275.98 356.3,279.78 376.37,285.72 392.9,292.61 404.3,299.2 409.29,304.28 407.06,306.84 397.33,306.21 380.43,302.08 357.25,294.58 329.21,284.27 298.16,272.08 266.23,259.26 235.66,247.22 208.66,237.43 187.19,231.24 172.82,229.77 166.6,233.77 169.0,243.54 179.84,258.86 198.31,278.99 223.04,302.73 252.24,328.48 283.78,354.37 315.42,378.41 344.97,398.66 370.44,413.39 390.21,421.23 403.15,421.3 408.69,413.28 406.85,397.49 398.21,374.81 383.86,346.71 365.26,315.06 344.13,282.03 322.28,249.92 301.47,220.98 283.23,197.21 268.75,180.24 258.81,171.18 253.71,170.55 253.25,178.23 256.83,193.5 263.48,215.08 271.97,241.27 281.0,270.06 289.27,299.33 295.66,326.99 299.32,351.17 299.79,370.35 297.0,383.48 291.32,390.03 283.49,390.02 274.57,384.02 265.82,373.02 258.55,358.39 254.03,341.68 253.28,324.52 257.04,308.44 265.61,294.74 278.81,284.38 296.02,277.93 316.14,275.49 337.73,276.72 359.1,280.9 378.45,287.01 394.03,293.86 404.29,300.19 408.07,304.84 404.62,306.89 393.79,305.69 375.98,301.03 352.17,293.11 323.84,282.54 292.88,270.31 261.42,257.67 231.68,246.06 205.81,236.9 185.68,231.5 172.79,230.92 168.07,235.82 171.87,246.42 183.91,262.41 203.3,282.98 228.6,306.88 257.97,332.46 289.29,357.86 320.34,381.1 348.97,400.3 373.27,413.78 391.73,420.28 403.3,419.01 407.53,409.77 404.53,392.95 394.96,369.54 379.97,341.06 361.06,309.42 339.95,276.8 318.43,245.47 298.21,217.61 280.75,195.17 267.16,179.66 258.14,172.09 253.9,172.88 254.17,181.79 258.29,198.01 265.25,220.22 273.82,246.66 282.7,275.32 290.62,304.1 296.53,330.96 299.63,354.1 299.55,372.09 296.28,383.98 290.25,389.34 282.26,388.29 273.39,381.45 264.9,369.89 258.1,354.99 254.19,338.3 254.16,321.43 258.67,305.86 267.92,292.83 281.68,283.23 299.24,277.53 319.47,275.76 340.87,277.52 361.76,282.05 380.36,288.29 394.96,295.05 404.09,301.1 406.65,305.33 402.02,306.84 390.12,305.09 371.46,299.92 347.08,291.6 318.53,280.81 287.72,268.57 256.78,256.16 227.91,245.0 203.2,236.5 184.44,231.9 173.01,232.21 169.76,237.99 174.92,249.39 188.1,266.0 208.34,286.97 234.14,310.97 263.62,336.34 294.66,361.2 325.06,383.61 352.74,401.72 375.86,413.95 393.0,419.12 403.22,416.54 406.18,406.11 402.06,388.32 391.63,364.25 376.06,335.46 356.9,303.89 335.86,271.73 314.71,241.23 295.11,214.49 278.44,193.39 265.75,179.34 257.63,173.24 254.22,175.4 255.19,185.48 259.8,202.6 267.03,225.37 275.64,251.99 284.33,280.45 291.88,308.69 297.29,334.71 299.85,356.8 299.22,373.61 295.49,384.28 289.15,388.49 281.04,386.43 272.25,378.81 264.06,366.74 257.74,351.61 254.47,334.99 255.16,318.45 260.39,303.42 270.31,291.07 284.59,282.22 302.46,277.25 322.74,276.13 343.91,278.39 364.29,283.22 382.1,289.56 395.7,296.2 403.69,301.94 405.06,305.72 399.27,306.7 386.34,304.4 366.88,298.74 341.99,290.06 313.28,279.08 282.69,266.88 252.33,254.73 224.37,244.06 200.84,236.23 183.45,232.45 173.48,233.62 171.66,240.28 178.13,252.43 192.41,269.64 213.43,290.95 239.66,315.0 269.18,340.1 299.87,364.38 329.59,385.91 356.28,402.92 378.2,413.9 394.03,417.75 402.93,413.89 404.64,402.31 399.47,383.62 388.21,358.94 372.13,329.91 352.77,298.48 331.86,266.85 311.13,237.21 292.17,211.62 276.31,191.87 264.51,179.27 257.27,174.61 254.67,178.1 256.29,189.3 261.36,207.26 268.81,230.5 277.41,257.24 285.89,285.46 293.05,313.11 297.96,338.26 299.97,359.27 298.82,374.9 294.66,384.37 288.04,387.46 279.83,384.44 271.16,376.09 263.3,363.56 257.49,348.27 254.86,331.76 256.27,315.59 262.21,301.12 272.76,289.46 287.53,281.34 305.67,277.09 325.95,276.59 346.85,279.31 366.66,284.41 383.67,290.8 396.25,297.29 403.1,302.71 403.29,306.02 396.37,306.46 382.46,303.63 362.24,297.51 336.92,288.5 308.11,277.37 277.79,265.23 248.06,253.39 221.05,243.22 198.73,236.09 182.71,233.12 174.18,235.17 173.77,242.67 181.51,255.56 196.81,273.31 218.56,294.91 245.14,318.96 274.64,343.74 304.94,367.39 333.91,388.02 359.59,403.91 380.3,413.63 394.82,416.18 402.42,411.07 402.94,398.4 396.75,378.85 384.74,353.64 368.2,324.42 348.7,293.2 327.96,262.14 307.68,233.41 289.39,209.0 274.34,190.61 263.42,179.44 257.06,176.2 255.23,180.96 257.46,193.23 262.95,211.95 270.58,235.62 279.14,262.41 287.37,290.32 294.13,317.34 298.53,341.6 300.0,361.53 298.34,375.98 293.78,384.27 286.9,386.27 278.64,382.34 270.13,373.32 262.62,360.38 257.34,344.96 255.36,328.62 257.48,312.84 264.12,298.95 275.28,287.98 290.49,280.6 308.86,277.04 329.1,277.13 349.68,280.28 368.89,285.61 385.06,292.02" fill="none" stroke="rgba(160,210,255,0.8)" stroke-width="0.7" stroke-linejoin="round" stroke-linecap="round"/>
</svg>