<svg xmlns="http://www.w3.org/2000/svg" viewBox="0 0 400 400" width="400" height="400">
  <defs>
    <radialGradient id="bg" cx="50%" cy="50%" r="50%">
      <stop offset="0%"   stop-color="#16103a"/>
      <stop offset="100%" stop-color="#0a0818"/>
    </radialGradient>
    <radialGradient id="amber1" cx="50%" cy="50%" r="50%">
      <stop offset="0%"   stop-color="#e8a020"/>
      <stop offset="100%" stop-color="#7a3d05"/>
    </radialGradient>
    <radialGradient id="amber2" cx="50%" cy="50%" r="50%">
      <stop offset="0%"   stop-color="#c8790a"/>
      <stop offset="100%" stop-color="#5a2a02"/>
    </radialGradient>
    <radialGradient id="amber3" cx="50%" cy="50%" r="50%">
      <stop offset="0%"   stop-color="#b05a14"/>
      <stop offset="100%" stop-color="#4a1e00"/>
    </radialGradient>
    <clipPath id="disk">
      <circle cx="200" cy="200" r="192"/>
    </clipPath>
  </defs>

  <!-- Background -->
  <rect width="400" height="400" fill="url(#bg)"/>

  <!-- Poincaré disk fill -->
  <circle cx="200" cy="200" r="192" fill="#0d0b22"/>

  <g clip-path="url(#disk)">
    <!-- Central pentagon -->
    <polygon points="200,128 262,163 239,232 161,232 138,163"
             fill="url(#amber1)" stroke="#f5d070" stroke-width="1.2"/>

    <!-- Ring 1: 5 pentagons (approximate hyperbolic positions) -->
    <polygon points="200,76  232,98  222,136 178,136 168,98"
             fill="url(#amber2)" stroke="#f5d070" stroke-width="1.0"/>
    <polygon points="254,108 287,97  296,136 268,155 239,133"
             fill="url(#amber3)" stroke="#f5d070" stroke-width="1.0"/>
    <polygon points="274,178 303,169 318,206 298,236 265,227"
             fill="url(#amber2)" stroke="#f5d070" stroke-width="1.0"/>
    <polygon points="230,255 255,243 272,271 255,300 218,302"
             fill="url(#amber3)" stroke="#f5d070" stroke-width="1.0"/>
    <polygon points="162,255 183,267 174,300 137,302 118,272"
             fill="url(#amber2)" stroke="#f5d070" stroke-width="1.0"/>
    <polygon points="113,190 102,163 131,145 160,162 155,194"
             fill="url(#amber3)" stroke="#f5d070" stroke-width="1.0"/>
    <polygon points="120,108 148,97  162,133 139,156 107,141"
             fill="url(#amber2)" stroke="#f5d070" stroke-width="1.0"/>

    <!-- Ring 2: smaller pentagons near boundary -->
    <polygon points="200,45  214,58  208,76  192,76  186,58"
             fill="url(#amber1)" stroke="#f5d070" stroke-width="0.7"/>
    <polygon points="238,52  253,56  257,75  242,84  228,73"
             fill="url(#amber3)" stroke="#f5d070" stroke-width="0.7"/>
    <polygon points="270,72  284,68  292,86  280,99  264,92"
             fill="url(#amber2)" stroke="#f5d070" stroke-width="0.7"/>
    <polygon points="310,100 325,95  334,112 323,126 307,120"
             fill="url(#amber1)" stroke="#f5d070" stroke-width="0.7"/>
    <polygon points="340,137 354,132 360,150 349,162 334,157"
             fill="url(#amber3)" stroke="#f5d070" stroke-width="0.7"/>
    <polygon points="354,176 368,175 371,193 360,203 346,198"
             fill="url(#amber2)" stroke="#f5d070" stroke-width="0.7"/>
    <polygon points="356,216 369,218 368,236 356,243 344,237"
             fill="url(#amber1)" stroke="#f5d070" stroke-width="0.7"/>
    <polygon points="340,256 350,262 345,280 332,284 324,273"
             fill="url(#amber3)" stroke="#f5d070" stroke-width="0.7"/>
    <polygon points="314,290 321,298 314,315 300,317 294,305"
             fill="url(#amber2)" stroke="#f5d070" stroke-width="0.7"/>
    <polygon points="278,318 283,328 274,342 260,341 255,329"
             fill="url(#amber1)" stroke="#f5d070" stroke-width="0.7"/>
    <polygon points="238,340 241,351 231,362 217,360 213,348"
             fill="url(#amber3)" stroke="#f5d070" stroke-width="0.7"/>
    <polygon points="196,348 198,358 188,367 175,364 173,353"
             fill="url(#amber2)" stroke="#f5d070" stroke-width="0.7"/>
    <polygon points="155,343 155,354 144,361 131,357 130,345"
             fill="url(#amber1)" stroke="#f5d070" stroke-width="0.7"/>
    <polygon points="116,323 114,334 102,338 91,331 92,319"
             fill="url(#amber3)" stroke="#f5d070" stroke-width="0.7"/>
    <polygon points="83,292  79,302  67,304  58,295  61,283"
             fill="url(#amber2)" stroke="#f5d070" stroke-width="0.7"/>
    <polygon points="55,254  49,263  37,262  30,252  35,241"
             fill="url(#amber1)" stroke="#f5d070" stroke-width="0.7"/>
    <polygon points="38,213  30,220  19,217  15,206  22,196"
             fill="url(#amber3)" stroke="#f5d070" stroke-width="0.7"/>
    <polygon points="32,170  23,175  13,170  12,159  21,153"
             fill="url(#amber2)" stroke="#f5d070" stroke-width="0.7"/>
    <polygon points="40,128  31,131  23,124  25,113  34,109"
             fill="url(#amber1)" stroke="#f5d070" stroke-width="0.7"/>
    <polygon points="60,90   52,91   46,82   50,72   59,70"
             fill="url(#amber3)" stroke="#f5d070" stroke-width="0.7"/>
    <polygon points="88,61   82,60   78,50   84,42   93,43"
             fill="url(#amber2)" stroke="#f5d070" stroke-width="0.7"/>
    <polygon points="124,45  119,42  117,32  124,26  133,29"
             fill="url(#amber1)" stroke="#f5d070" stroke-width="0.7"/>
    <polygon points="162,40  158,36  158,26  165,22  173,26"
             fill="url(#amber3)" stroke="#f5d070" stroke-width="0.7"/>
  </g>

  <!-- Disk boundary ring -->
  <circle cx="200" cy="200" r="192" fill="none" stroke="#4433aa" stroke-width="2"/>
</svg>
