<svg xmlns="http://www.w3.org/2000/svg" viewBox="0 0 400 400" width="400" height="400">
  <rect width="400" height="400" fill="#1a0800"/>
  <circle cx="200.00" cy="200.00" r="4.80" fill="#f5a623"/>
  <circle cx="194.10" cy="205.40" r="4.59" fill="#ef9d24"/>
  <circle cx="200.99" cy="188.73" r="4.51" fill="#ec9924"/>
  <circle cx="208.43" cy="211.00" r="4.44" fill="#ea9624"/>
  <circle cx="184.24" cy="197.21" r="4.38" fill="#e99425"/>
  <circle cx="215.09" cy="190.40" r="4.34" fill="#e79125"/>
  <circle cx="194.91" cy="218.92" r="4.29" fill="#e68f25"/>
  <circle cx="190.24" cy="181.22" r="4.25" fill="#e58e25"/>
  <circle cx="221.25" cy="207.76" r="4.21" fill="#e48c25"/>
  <circle cx="177.82" cy="209.16" r="4.18" fill="#e38a25"/>
  <circle cx="210.72" cy="177.09" r="4.14" fill="#e28926"/>
  <circle cx="207.94" cy="225.32" r="4.11" fill="#e18726"/>
  <circle cx="176.02" cy="186.10" r="4.08" fill="#e08626"/>
  <circle cx="228.17" cy="193.81" r="4.05" fill="#df8526"/>
  <circle cx="182.78" cy="224.49" r="4.02" fill="#de8326"/>
  <circle cx="196.02" cy="169.27" r="4.00" fill="#dd8226"/>
  <circle cx="224.47" cy="220.62" r="3.97" fill="#dd8126"/>
  <circle cx="167.04" cy="201.36" r="3.94" fill="#dc8026"/>
  <circle cx="224.06" cy="176.06" r="3.92" fill="#db7f26"/>
  <circle cx="198.39" cy="234.83" r="3.89" fill="#da7e27"/>
  <circle cx="177.08" cy="172.53" r="3.87" fill="#da7d27"/>
  <circle cx="236.33" cy="204.89" r="3.85" fill="#d97c27"/>
  <circle cx="169.20" cy="221.43" r="3.83" fill="#d87b27"/>
  <circle cx="208.42" cy="162.57" r="3.80" fill="#d87a27"/>
  <circle cx="219.49" cy="234.00" r="3.78" fill="#d77927"/>
  <circle cx="161.89" cy="187.84" r="3.76" fill="#d67827"/>
  <circle cx="237.03" cy="182.89" r="3.74" fill="#d67727"/>
  <circle cx="183.95" cy="238.35" r="3.72" fill="#d57627"/>
  <circle cx="185.67" cy="160.17" r="3.70" fill="#d57527"/>
  <circle cx="238.14" cy="220.04" r="3.68" fill="#d47427"/>
  <circle cx="157.63" cy="211.17" r="3.66" fill="#d37327"/>
  <circle cx="224.09" cy="162.53" r="3.64" fill="#d37328"/>
  <circle cx="207.67" cy="244.60" r="3.62" fill="#d27228"/>
  <circle cx="163.67" cy="171.86" r="3.61" fill="#d27128"/>
  <circle cx="246.49" cy="196.15" r="3.59" fill="#d17028"/>
  <circle cx="167.86" cy="234.74" r="3.57" fill="#d16f28"/>
  <circle cx="200.23" cy="152.00" r="3.55" fill="#d06f28"/>
  <circle cx="232.70" cy="236.04" r="3.54" fill="#d06e28"/>
  <circle cx="150.90" cy="195.45" r="3.52" fill="#cf6d28"/>
  <circle cx="239.80" cy="169.80" r="3.50" fill="#cf6c28"/>
  <circle cx="190.94" cy="249.78" r="3.49" fill="#ce6c28"/>
  <circle cx="172.72" cy="156.65" r="3.47" fill="#ce6b28"/>
  <circle cx="250.00" cy="213.70" r="3.45" fill="#cd6a28"/>
  <circle cx="153.33" cy="223.95" r="3.44" fill="#cd6928"/>
  <circle cx="218.45" cy="150.24" r="3.42" fill="#cc6928"/>
  <circle cx="220.23" cy="249.70" r="3.41" fill="#cc6828"/>
  <circle cx="150.97" cy="176.76" r="3.39" fill="#cb6728"/>
  <circle cx="252.41" cy="183.84" r="3.38" fill="#cb6729"/>
  <circle cx="171.98" cy="247.82" r="3.36" fill="#cb6629"/>
  <circle cx="188.24" cy="145.25" r="3.35" fill="#ca6529"/>
  <circle cx="246.12" cy="232.76" r="3.33" fill="#ca6529"/>
  <circle cx="143.31" cy="207.07" r="3.32" fill="#c96429"/>
  <circle cx="237.39" cy="156.07" r="3.30" fill="#c96329"/>
  <circle cx="202.12" cy="258.20" r="3.29" fill="#c86329"/>
  <circle cx="158.74" cy="158.13" r="3.27" fill="#c86229"/>
  <circle cx="259.25" cy="203.03" r="3.26" fill="#c86129"/>
  <circle cx="153.85" cy="238.13" r="3.24" fill="#c76129"/>
  <circle cx="208.35" cy="140.18" r="3.23" fill="#c76029"/>
  <circle cx="234.55" cy="250.18" r="3.22" fill="#c66029"/>
  <circle cx="140.12" cy="186.22" r="3.20" fill="#c65f29"/>
  <circle cx="253.92" cy="169.45" r="3.19" fill="#c65e29"/>
  <circle cx="180.72" cy="259.43" r="3.18" fill="#c55e29"/>
  <circle cx="173.86" cy="142.69" r="3.16" fill="#c55d29"/>
  <circle cx="258.45" cy="224.80" r="3.15" fill="#c45d29"/>
  <circle cx="139.67" cy="221.37" r="3.14" fill="#c45c29"/>
  <circle cx="230.28" cy="143.05" r="3.12" fill="#c45c2a"/>
  <circle cx="216.26" cy="262.93" r="3.11" fill="#c35b2a"/>
  <circle cx="145.09" cy="164.32" r="3.10" fill="#c35a2a"/>
  <circle cx="265.07" cy="189.14" r="3.09" fill="#c35a2a"/>
  <circle cx="159.05" cy="252.34" r="3.07" fill="#c2592a"/>
  <circle cx="194.80" cy="133.27" r="3.06" fill="#c2592a"/>
  <circle cx="249.26" cy="246.02" r="3.05" fill="#c1582a"/>
  <circle cx="132.12" cy="199.34" r="3.04" fill="#c1582a"/>
  <circle cx="250.85" cy="154.32" r="3.02" fill="#c1572a"/>
  <circle cx="193.31" cy="268.49" r="3.01" fill="#c0572a"/>
  <circle cx="158.38" cy="144.61" r="3.00" fill="#c0562a"/>
  <circle cx="268.55" cy="212.82" r="2.99" fill="#bf562a"/>
  <circle cx="140.40" cy="237.10" r="2.98" fill="#bf5529"/>
  <circle cx="219.01" cy="131.95" r="2.96" fill="#be5529"/>
  <circle cx="232.16" cy="263.42" r="2.95" fill="#bd5429"/>
  <circle cx="133.03" cy="174.80" r="2.94" fill="#bc5429"/>
  <circle cx="266.82" cy="173.18" r="2.93" fill="#bc5328"/>
  <circle cx="168.66" cy="265.31" r="2.92" fill="#bb5328"/>
  <circle cx="178.87" cy="130.25" r="2.91" fill="#ba5328"/>
  <circle cx="263.08" cy="237.38" r="2.90" fill="#b95228"/>
  <circle cx="127.81" cy="215.13" r="2.88" fill="#b95227"/>
  <circle cx="243.26" cy="139.73" r="2.87" fill="#b85127"/>
  <circle cx="208.87" cy="274.09" r="2.86" fill="#b75127"/>
  <circle cx="143.09" cy="151.08" r="2.85" fill="#b75127"/>
  <circle cx="275.43" cy="197.62" r="2.84" fill="#b65026"/>
  <circle cx="145.68" cy="253.01" r="2.83" fill="#b55026"/>
  <circle cx="204.27" cy="123.80" r="2.82" fill="#b54f26"/>
  <circle cx="248.59" cy="259.39" r="2.81" fill="#b44f25"/>
  <circle cx="123.64" cy="188.97" r="2.80" fill="#b34f25"/>
  <circle cx="264.10" cy="156.32" r="2.78" fill="#b34e25"/>
  <circle cx="182.14" cy="275.90" r="2.77" fill="#b24e25"/>
  <circle cx="161.69" cy="131.61" r="2.76" fill="#b14d24"/>
  <circle cx="274.83" cy="224.68" r="2.75" fill="#b14d24"/>
  <circle cx="127.79" cy="232.51" r="2.74" fill="#b04d24"/>
  <circle cx="231.45" cy="126.88" r="2.73" fill="#af4c24"/>
  <circle cx="226.34" cy="275.54" r="2.72" fill="#af4c24"/>
  <circle cx="129.20" cy="161.90" r="2.71" fill="#ae4b23"/>
  <circle cx="278.32" cy="180.17" r="2.70" fill="#ad4b23"/>
  <circle cx="155.42" cy="267.86" r="2.69" fill="#ad4b23"/>
  <circle cx="186.97" cy="119.46" r="2.68" fill="#ac4a23"/>
  <circle cx="264.32" cy="250.82" r="2.67" fill="#ab4a22"/>
  <circle cx="117.85" cy="206.00" r="2.66" fill="#ab4a22"/>
  <circle cx="256.79" cy="139.81" r="2.65" fill="#aa4922"/>
  <circle cx="198.78" cy="283.13" r="2.64" fill="#aa4922"/>
  <circle cx="144.49" cy="137.59" r="2.63" fill="#a94821"/>
  <circle cx="283.47" cy="208.56" r="2.62" fill="#a84821"/>
  <circle cx="132.37" cy="250.30" r="2.61" fill="#a84821"/>
  <circle cx="215.97" cy="116.85" r="2.60" fill="#a74721"/>
  <circle cx="244.59" cy="272.41" r="2.59" fill="#a74720"/>
  <circle cx="117.85" cy="176.62" r="2.58" fill="#a64720"/>
  <circle cx="276.71" cy="161.58" r="2.57" fill="#a54620"/>
  <circle cx="169.26" cy="280.49" r="2.56" fill="#a54620"/>
  <circle cx="168.16" cy="119.54" r="2.55" fill="#a44620"/>
  <circle cx="278.16" cy="237.98" r="2.54" fill="#a4451f"/>
  <circle cx="116.36" cy="224.90" r="2.53" fill="#a3451f"/>
  <circle cx="245.05" cy="124.83" r="2.52" fill="#a2451f"/>
  <circle cx="217.64" cy="286.21" r="2.51" fill="#a2441f"/>
  <circle cx="128.47" cy="148.13" r="2.50" fill="#a1441e"/>
  <circle cx="288.15" cy="189.89" r="2.49" fill="#a1431e"/>
  <circle cx="141.60" cy="267.27" r="2.49" fill="#a0431e"/>
  <circle cx="197.61" cy="110.59" r="2.48" fill="#9f431e"/>
  <circle cx="262.40" cy="264.57" r="2.47" fill="#9f421e"/>
  <circle cx="110.01" cy="194.52" r="2.46" fill="#9e421d"/>
  <circle cx="270.33" cy="143.03" r="2.45" fill="#9e421d"/>
  <circle cx="186.57" cy="289.86" r="2.44" fill="#9d411d"/>
  <circle cx="149.01" cy="124.37" r="2.43" fill="#9d411d"/>
  <circle cx="289.03" cy="221.40" r="2.42" fill="#9c411c"/>
  <circle cx="119.59" cy="244.53" r="2.41" fill="#9b401c"/>
  <circle cx="229.32" cy="112.52" r="2.40" fill="#9b401c"/>
  <circle cx="237.61" cy="284.63" r="2.39" fill="#9a401c"/>
  <circle cx="114.79" cy="162.86" r="2.39" fill="#9a3f1c"/>
  <circle cx="288.24" cy="169.71" r="2.38" fill="#993f1b"/>
  <circle cx="155.23" cy="282.24" r="2.37" fill="#993f1b"/>
  <circle cx="177.38" cy="108.78" r="2.36" fill="#983e1b"/>
  <circle cx="278.58" cy="252.17" r="2.35" fill="#983e1b"/>
  <circle cx="106.49" cy="214.67" r="2.34" fill="#973e1b"/>
  <circle cx="259.26" cy="125.75" r="2.33" fill="#963e1a"/>
  <circle cx="206.48" cy="295.11" r="2.32" fill="#963d1a"/>
  <circle cx="130.73" cy="134.01" r="2.31" fill="#953d1a"/>
  <circle cx="295.98" cy="201.87" r="2.31" fill="#953d1a"/>
  <circle cx="127.71" cy="263.67" r="2.30" fill="#943c1a"/>
  <circle cx="210.33" cy="103.89" r="2.29" fill="#943c19"/>
  <circle cx="257.50" cy="278.11" r="2.28" fill="#933c19"/>
  <circle cx="104.51" cy="181.18" r="2.27" fill="#933b19"/>
  <circle cx="283.40" cy="149.20" r="2.26" fill="#923b19"/>
  <circle cx="172.72" cy="294.11" r="2.25" fill="#923b19"/>
  <circle cx="156.40" cy="111.89" r="2.25" fill="#913a18"/>
  <circle cx="291.97" cy="235.64" r="2.24" fill="#913a18"/>
  <circle cx="107.81" cy="235.96" r="2.23" fill="#903a18"/>
  <circle cx="243.82" cy="110.92" r="2.22" fill="#903918"/>
  <circle cx="227.95" cy="295.60" r="2.21" fill="#8f3918"/>
  <circle cx="114.54" cy="148.22" r="2.20" fill="#8e3917"/>
  <circle cx="298.30" cy="180.39" r="2.20" fill="#8e3917"/>
  <circle cx="140.57" cy="281.12" r="2.19" fill="#8d3817"/>
  <circle cx="188.99" cy="99.73" r="2.18" fill="#8d3817"/>
  <circle cx="276.09" cy="266.71" r="2.17" fill="#8c3817"/>
  <circle cx="98.52" cy="202.21" r="2.16" fill="#8c3716"/>
  <circle cx="273.56" cy="129.60" r="2.15" fill="#8b3716"/>
  <circle cx="193.29" cy="301.92" r="2.15" fill="#8b3716"/>
  <circle cx="135.91" cy="120.07" r="2.14" fill="#8a3616"/>
  <circle cx="301.56" cy="215.69" r="2.13" fill="#8a3616"/>
  <circle cx="114.26" cy="257.21" r="2.12" fill="#893616"/>
  <circle cx="224.65" cy="99.60" r="2.11" fill="#893615"/>
  <circle cx="249.79" cy="290.96" r="2.11" fill="#883515"/>
  <circle cx="101.56" cy="166.46" r="2.10" fill="#883515"/>
  <circle cx="295.52" cy="158.11" r="2.09" fill="#873515"/>
  <circle cx="157.74" cy="295.70" r="2.08" fill="#873415"/>
  <circle cx="166.42" cy="100.60" r="2.07" fill="#863414"/>
  <circle cx="292.17" cy="250.76" r="2.07" fill="#863414"/>
  <circle cx="97.45" cy="224.90" r="2.06" fill="#853314"/>
  <circle cx="258.96" cy="112.12" r="2.05" fill="#853314"/>
  <circle cx="215.93" cy="304.93" r="2.04" fill="#843314"/>
  <circle cx="117.14" cy="133.20" r="2.03" fill="#843313"/>
  <circle cx="306.52" cy="193.26" r="2.03" fill="#833213"/>
  <circle cx="125.80" cy="277.14" r="2.02" fill="#833213"/>
  <circle cx="202.62" cy="92.70" r="2.01" fill="#823213"/>
  <circle cx="270.75" cy="281.11" r="2.00" fill="#823113"/>
  <circle cx="92.75" cy="187.95" r="2.00" fill="#823113"/>
  <circle cx="287.47" cy="136.27" r="1.99" fill="#813112"/>
  <circle cx="178.50" cy="306.37" r="1.98" fill="#813112"/>
  <circle cx="143.85" cy="106.79" r="1.97" fill="#803012"/>
  <circle cx="304.64" cy="230.89" r="1.97" fill="#803012"/>
  <circle cx="101.71" cy="248.04" r="1.96" fill="#7f3012"/>
  <circle cx="240.13" cy="97.91" r="1.95" fill="#7f3012"/>
  <circle cx="239.47" cy="302.65" r="1.94" fill="#7e2f11"/>
  <circle cx="101.29" cy="150.84" r="1.94" fill="#7e2f11"/>
  <circle cx="306.27" cy="169.49" r="1.93" fill="#7d2f11"/>
  <circle cx="142.10" cy="294.53" r="1.92" fill="#7d2e11"/>
  <circle cx="178.79" cy="90.90" r="1.91" fill="#7c2e11"/>
  <circle cx="289.56" cy="266.29" r="1.91" fill="#7c2e10"/>
  <circle cx="88.90" cy="211.65" r="1.90" fill="#7b2e10"/>
  <circle cx="274.25" cy="116.15" r="1.89" fill="#7b2d10"/>
  <circle cx="201.90" cy="312.27" r="1.88" fill="#7a2d10"/>
  <circle cx="122.57" cy="118.29" r="1.88" fill="#7a2d10"/>
  <circle cx="312.57" cy="207.96" r="1.87" fill="#7a2c10"/>
  <circle cx="111.39" cy="270.35" r="1.86" fill="#792c0f"/>
  <circle cx="217.86" cy="88.00" r="1.85" fill="#792c0f"/>
  <circle cx="262.64" cy="294.89" r="1.85" fill="#782c0f"/>
  <circle cx="89.44" cy="172.28" r="1.84" fill="#782b0f"/>
  <circle cx="300.50" cy="145.63" r="1.83" fill="#772b0f"/>
  <circle cx="162.54" cy="308.24" r="1.82" fill="#772b0f"/>
  <circle cx="154.40" cy="94.62" r="1.82" fill="#762b0e"/>
  <circle cx="305.06" cy="247.01" r="1.81" fill="#762a0e"/>
  <circle cx="90.51" cy="236.39" r="1.80" fill="#752a0e"/>
  <circle cx="256.29" cy="98.97" r="1.80" fill="#752a0e"/>
  <circle cx="226.81" cy="312.79" r="1.79" fill="#752a0e"/>
  <circle cx="103.82" cy="134.79" r="1.78" fill="#74290e"/>
  <circle cx="315.25" cy="183.08" r="1.77" fill="#74290d"/>
  <circle cx="126.28" cy="290.54" r="1.77" fill="#73290d"/>
  <circle cx="193.18" cy="83.17" r="1.76" fill="#73290d"/>
  <circle cx="284.14" cy="281.73" r="1.75" fill="#72280d"/>
  <circle cx="82.47" cy="196.56" r="1.75" fill="#72280d"/>
  <circle cx="289.19" cy="122.97" r="1.74" fill="#71280d"/>
  <circle cx="186.23" cy="317.31" r="1.73" fill="#71270c"/>
  <circle cx="130.75" cy="103.98" r="1.72" fill="#71270c"/>
  <circle cx="316.19" cy="224.08" r="1.72" fill="#70270c"/>
  <circle cx="97.83" cy="260.87" r="1.71" fill="#70270c"/>
  <circle cx="234.30" cy="85.84" r="1.70" fill="#6f260c"/>
  <circle cx="251.94" cy="307.59" r="1.70" fill="#6f260c"/>
  <circle cx="88.78" cy="155.65" r="1.69" fill="#6e260b"/>
  <circle cx="312.21" cy="157.48" r="1.68" fill="#6e260b"/>
  <circle cx="145.86" cy="307.39" r="1.68" fill="#6e250b"/>
  <circle cx="167.31" cy="83.99" r="1.67" fill="#6d250b"/>
  <circle cx="302.70" cy="263.60" r="1.66" fill="#6d250b"/>
  <circle cx="81.05" cy="222.52" r="1.65" fill="#6c250b"/>
  <circle cx="272.65" cy="102.83" r="1.65" fill="#6c240a"/>
  <circle cx="212.09" cy="320.99" r="1.64" fill="#6b240a"/>
  <circle cx="109.16" cy="118.78" r="1.63" fill="#6b240a"/>
  <circle cx="322.11" cy="198.53" r="1.63" fill="#6b240a"/>
  <circle cx="110.77" cy="283.75" r="1.62" fill="#6a230a"/>
  <circle cx="209.25" cy="77.71" r="1.61" fill="#6a230a"/>
  <circle cx="275.95" cy="296.62" r="1.61" fill="#692309"/>
  <circle cx="78.47" cy="180.01" r="1.60" fill="#692309"/>
  <circle cx="303.33" cy="132.51" r="1.59" fill="#682209"/>
  <circle cx="169.34" cy="319.82" r="1.59" fill="#682209"/>
  <circle cx="141.56" cy="90.71" r="1.58" fill="#682209"/>
  <circle cx="317.16" cy="241.19" r="1.57" fill="#672209"/>
  <circle cx="85.55" cy="248.87" r="1.57" fill="#672109"/>
  <circle cx="251.49" cy="86.42" r="1.56" fill="#662108"/>
  <circle cx="238.83" cy="318.78" r="1.55" fill="#662108"/>
  <circle cx="90.91" cy="138.52" r="1.55" fill="#662108"/>
  <circle cx="322.21" cy="171.58" r="1.54" fill="#652008"/>
  <circle cx="128.93" cy="303.72" r="1.53" fill="#652008"/>
  <circle cx="182.30" cy="75.26" r="1.53" fill="#642008"/>
  <circle cx="297.50" cy="280.18" r="1.52" fill="#642007"/>
  <circle cx="73.69" cy="206.75" r="1.51" fill="#642007"/>
  <circle cx="288.76" cy="109.52" r="1.51" fill="#631f07"/>
  <circle cx="195.66" cy="326.92" r="1.50" fill="#631f07"/>
  <circle cx="117.30" cy="103.29" r="1.49" fill="#621f07"/>
  <circle cx="326.56" cy="215.48" r="1.49" fill="#621f07"/>
  <circle cx="96.02" cy="274.22" r="1.48" fill="#611e07"/>
  <circle cx="226.59" cy="74.79" r="1.47" fill="#611e06"/>
  <circle cx="265.10" cy="310.50" r="1.47" fill="#611e06"/>
  <circle cx="77.12" cy="162.42" r="1.46" fill="#601e06"/>
  <circle cx="316.22" cy="144.59" r="1.46" fill="#601d06"/>
  <circle cx="151.64" cy="319.59" r="1.45" fill="#5f1d06"/>
  <circle cx="154.79" cy="78.92" r="1.44" fill="#5f1d06"/>
  <circle cx="315.34" cy="258.86" r="1.44" fill="#5f1d06"/>
  <circle cx="74.95" cy="234.58" r="1.43" fill="#5e1c05"/>
  <circle cx="268.98" cy="89.83" r="1.42" fill="#5e1c05"/>
  <circle cx="223.60" cy="328.07" r="1.42" fill="#5d1c05"/>
  <circle cx="95.89" cy="121.36" r="1.41" fill="#5d1c05"/>
  <circle cx="330.14" cy="187.64" r="1.40" fill="#5d1b05"/>
  <circle cx="112.23" cy="297.20" r="1.40" fill="#5c1b05"/>
  <circle cx="199.06" cy="68.79" r="1.39" fill="#5c1b04"/>
  <circle cx="289.49" cy="296.29" r="1.38" fill="#5b1b04"/>
  <circle cx="68.73" cy="189.43" r="1.38" fill="#5b1b04"/>
  <circle cx="304.13" cy="118.97" r="1.37" fill="#5b1a04"/>
  <circle cx="177.91" cy="330.32" r="1.37" fill="#5a1a04"/>
  <circle cx="128.12" cy="88.78" r="1.36" fill="#5a1a04"/>
  <circle cx="328.36" cy="233.52" r="1.35" fill="#5a1a04"/>
  <circle cx="82.50" cy="262.10" r="1.35" fill="#591903"/>
  <circle cx="244.78" cy="74.61" r="1.34" fill="#591903"/>
  <circle cx="251.78" cy="322.93" r="1.33" fill="#581903"/>
  <circle cx="78.57" cy="144.23" r="1.33" fill="#581903"/>
  <circle cx="327.44" cy="159.02" r="1.32" fill="#581803"/>
  <circle cx="133.59" cy="316.51" r="1.32" fill="#571803"/>
  <circle cx="170.21" cy="69.00" r="1.31" fill="#571803"/>
  <circle cx="310.65" cy="276.61" r="1.30" fill="#561802"/>
  <circle cx="66.43" cy="218.29" r="1.30" fill="#561802"/>
  <circle cx="286.29" cy="96.11" r="1.29" fill="#561702"/>
  <circle cx="206.56" cy="335.13" r="1.29" fill="#551702"/>
  <circle cx="103.71" cy="104.62" r="1.28" fill="#551702"/>
  <circle cx="335.66" cy="205.30" r="1.27" fill="#551702"/>
  <circle cx="96.21" cy="287.88" r="1.27" fill="#541602"/>
  <circle cx="217.20" cy="64.85" r="1.26" fill="#541601"/>
  <circle cx="278.74" cy="311.46" r="1.25" fill="#531601"/>
  <circle cx="66.42" cy="170.95" r="1.25" fill="#531601"/>
  <circle cx="318.32" cy="131.07" r="1.24" fill="#531601"/>
  <circle cx="159.25" cy="330.98" r="1.24" fill="#521501"/>
  <circle cx="141.48" cy="75.68" r="1.23" fill="#521501"/>
  <circle cx="327.34" cy="252.22" r="1.22" fill="#511501"/>
  <circle cx="70.61" cy="247.59" r="1.22" fill="#511500"/>
  <circle cx="263.37" cy="77.30" r="1.21" fill="#511400"/>
  <circle cx="236.22" cy="333.51" r="1.21" fill="#501400"/>
</svg>