<svg xmlns="http://www.w3.org/2000/svg" viewBox="0 0 400 300" width="400" height="300">
  <rect width="400" height="300" fill="#0d0d14"/>
  <line x1="0" y1="150" x2="400" y2="150" stroke="#1a1a2e" stroke-width="1"/>
  <line x1="0" y1="75" x2="400" y2="75" stroke="#191924" stroke-width="0.5"/>
  <line x1="0" y1="225" x2="400" y2="225" stroke="#191924" stroke-width="0.5"/>
  <polyline points="0.0,75.0 2.0,73.4 4.0,71.7 6.0,70.1 8.0,68.4 10.0,66.8 12.0,65.2 14.0,63.5 16.0,61.9 18.0,60.4 20.0,58.8 22.0,57.2 24.0,55.7 26.0,54.1 28.0,52.6 30.0,51.2 32.0,49.7 34.0,48.3 36.0,46.9 38.0,45.5 40.0,44.1 42.0,42.8 44.0,41.5 46.0,40.3 48.0,39.1 50.0,37.9 52.0,36.7 54.0,35.6 56.0,34.5 58.0,33.5 60.0,32.5 62.0,31.6 64.0,30.7 66.0,29.8 68.0,29.0 70.0,28.2 72.0,27.5 74.0,26.8 76.0,26.2 78.0,25.6 80.0,25.1 82.0,24.6 84.0,24.1 86.0,23.8 88.0,23.4 90.0,23.1 92.0,22.9 94.0,22.7 96.0,22.6 98.0,22.5 100.0,22.5 102.0,22.5 104.0,22.6 106.0,22.7 108.0,22.9 110.0,23.1 112.0,23.4 114.0,23.8 116.0,24.1 118.0,24.6 120.0,25.1 122.0,25.6 124.0,26.2 126.0,26.8 128.0,27.5 130.0,28.2 132.0,29.0 134.0,29.8 136.0,30.7 138.0,31.6 140.0,32.5 142.0,33.5 144.0,34.5 146.0,35.6 148.0,36.7 150.0,37.9 152.0,39.1 154.0,40.3 156.0,41.5 158.0,42.8 160.0,44.1 162.0,45.5 164.0,46.9 166.0,48.3 168.0,49.7 170.0,51.2 172.0,52.6 174.0,54.1 176.0,55.7 178.0,57.2 180.0,58.8 182.0,60.4 184.0,61.9 186.0,63.5 188.0,65.2 190.0,66.8 192.0,68.4 194.0,70.1 196.0,71.7 198.0,73.4 200.0,75.0 202.0,76.6 204.0,78.3 206.0,79.9 208.0,81.6 210.0,83.2 212.0,84.8 214.0,86.5 216.0,88.1 218.0,89.6 220.0,91.2 222.0,92.8 224.0,94.3 226.0,95.9 228.0,97.4 230.0,98.8 232.0,100.3 234.0,101.7 236.0,103.1 238.0,104.5 240.0,105.9 242.0,107.2 244.0,108.5 246.0,109.7 248.0,110.9 250.0,112.1 252.0,113.3 254.0,114.4 256.0,115.5 258.0,116.5 260.0,117.5 262.0,118.4 264.0,119.3 266.0,120.2 268.0,121.0 270.0,121.8 272.0,122.5 274.0,123.2 276.0,123.8 278.0,124.4 280.0,124.9 282.0,125.4 284.0,125.9 286.0,126.2 288.0,126.6 290.0,126.9 292.0,127.1 294.0,127.3 296.0,127.4 298.0,127.5 300.0,127.5 302.0,127.5 304.0,127.4 306.0,127.3 308.0,127.1 310.0,126.9 312.0,126.6 314.0,126.2 316.0,125.9 318.0,125.4 320.0,124.9 322.0,124.4 324.0,123.8 326.0,123.2 328.0,122.5 330.0,121.8 332.0,121.0 334.0,120.2 336.0,119.3 338.0,118.4 340.0,117.5 342.0,116.5 344.0,115.5 346.0,114.4 348.0,113.3 350.0,112.1 352.0,110.9 354.0,109.7 356.0,108.5 358.0,107.2 360.0,105.9 362.0,104.5 364.0,103.1 366.0,101.7 368.0,100.3 370.0,98.8 372.0,97.4 374.0,95.9 376.0,94.3 378.0,92.8 380.0,91.2 382.0,89.6 384.0,88.1 386.0,86.5 388.0,84.8 390.0,83.2 392.0,81.6 394.0,79.9 396.0,78.3 398.0,76.6 400.0,75.0" stroke="#00d4ff" stroke-width="1.5" fill="none" opacity="0.85"/>
  <polyline points="0.0,75.0 2.0,73.4 4.0,71.7 6.0,70.1 8.0,68.6 10.0,67.1 12.0,65.6 14.0,64.3 16.0,63.0 18.0,61.9 20.0,60.8 22.0,59.9 24.0,59.2 26.0,58.5 28.0,58.0 30.0,57.7 32.0,57.5 34.0,57.5 36.0,57.6 38.0,57.9 40.0,58.4 42.0,58.9 44.0,59.7 46.0,60.5 48.0,61.5 50.0,62.6 52.0,63.8 54.0,65.2 56.0,66.6 58.0,68.0 60.0,69.6 62.0,71.2 64.0,72.8 66.0,74.5 68.0,76.1 70.0,77.7 72.0,79.4 74.0,80.9 76.0,82.5 78.0,83.9 80.0,85.3 82.0,86.6 84.0,87.8 86.0,88.8 88.0,89.8 90.0,90.6 92.0,91.3 94.0,91.8 96.0,92.2 98.0,92.4 100.0,92.5 102.0,92.4 104.0,92.2 106.0,91.8 108.0,91.3 110.0,90.6 112.0,89.8 114.0,88.8 116.0,87.8 118.0,86.6 120.0,85.3 122.0,83.9 124.0,82.5 126.0,80.9 128.0,79.4 130.0,77.7 132.0,76.1 134.0,74.5 136.0,72.8 138.0,71.2 140.0,69.6 142.0,68.0 144.0,66.6 146.0,65.2 148.0,63.8 150.0,62.6 152.0,61.5 154.0,60.5 156.0,59.7 158.0,58.9 160.0,58.4 162.0,57.9 164.0,57.6 166.0,57.5 168.0,57.5 170.0,57.7 172.0,58.0 174.0,58.5 176.0,59.2 178.0,59.9 180.0,60.8 182.0,61.9 184.0,63.0 186.0,64.3 188.0,65.6 190.0,67.1 192.0,68.6 194.0,70.1 196.0,71.7 198.0,73.4 200.0,75.0 202.0,76.6 204.0,78.3 206.0,79.9 208.0,81.4 210.0,82.9 212.0,84.4 214.0,85.7 216.0,87.0 218.0,88.1 220.0,89.2 222.0,90.1 224.0,90.8 226.0,91.5 228.0,92.0 230.0,92.3 232.0,92.5 234.0,92.5 236.0,92.4 238.0,92.1 240.0,91.6 242.0,91.1 244.0,90.3 246.0,89.5 248.0,88.5 250.0,87.4 252.0,86.2 254.0,84.8 256.0,83.4 258.0,82.0 260.0,80.4 262.0,78.8 264.0,77.2 266.0,75.5 268.0,73.9 270.0,72.3 272.0,70.6 274.0,69.1 276.0,67.5 278.0,66.1 280.0,64.7 282.0,63.4 284.0,62.2 286.0,61.2 288.0,60.2 290.0,59.4 292.0,58.7 294.0,58.2 296.0,57.8 298.0,57.6 300.0,57.5 302.0,57.6 304.0,57.8 306.0,58.2 308.0,58.7 310.0,59.4 312.0,60.2 314.0,61.2 316.0,62.2 318.0,63.4 320.0,64.7 322.0,66.1 324.0,67.5 326.0,69.1 328.0,70.6 330.0,72.3 332.0,73.9 334.0,75.5 336.0,77.2 338.0,78.8 340.0,80.4 342.0,82.0 344.0,83.4 346.0,84.8 348.0,86.2 350.0,87.4 352.0,88.5 354.0,89.5 356.0,90.3 358.0,91.1 360.0,91.6 362.0,92.1 364.0,92.4 366.0,92.5 368.0,92.5 370.0,92.3 372.0,92.0 374.0,91.5 376.0,90.8 378.0,90.1 380.0,89.2 382.0,88.1 384.0,87.0 386.0,85.7 388.0,84.4 390.0,82.9 392.0,81.4 394.0,79.9 396.0,78.3 398.0,76.6 400.0,75.0" stroke="#ffb347" stroke-width="1.1" fill="none" opacity="0.7"/>
  <polyline points="0.0,75.0 2.0,73.4 4.0,71.8 6.0,70.2 8.0,68.8 10.0,67.6 12.0,66.5 14.0,65.6 16.0,65.0 18.0,64.6 20.0,64.5 22.0,64.6 24.0,65.0 26.0,65.6 28.0,66.5 30.0,67.6 32.0,68.8 34.0,70.2 36.0,71.8 38.0,73.4 40.0,75.0 42.0,76.6 44.0,78.2 46.0,79.8 48.0,81.2 50.0,82.4 52.0,83.5 54.0,84.4 56.0,85.0 58.0,85.4 60.0,85.5 62.0,85.4 64.0,85.0 66.0,84.4 68.0,83.5 70.0,82.4 72.0,81.2 74.0,79.8 76.0,78.2 78.0,76.6 80.0,75.0 82.0,73.4 84.0,71.8 86.0,70.2 88.0,68.8 90.0,67.6 92.0,66.5 94.0,65.6 96.0,65.0 98.0,64.6 100.0,64.5 102.0,64.6 104.0,65.0 106.0,65.6 108.0,66.5 110.0,67.6 112.0,68.8 114.0,70.2 116.0,71.8 118.0,73.4 120.0,75.0 122.0,76.6 124.0,78.2 126.0,79.8 128.0,81.2 130.0,82.4 132.0,83.5 134.0,84.4 136.0,85.0 138.0,85.4 140.0,85.5 142.0,85.4 144.0,85.0 146.0,84.4 148.0,83.5 150.0,82.4 152.0,81.2 154.0,79.8 156.0,78.2 158.0,76.6 160.0,75.0 162.0,73.4 164.0,71.8 166.0,70.2 168.0,68.8 170.0,67.6 172.0,66.5 174.0,65.6 176.0,65.0 178.0,64.6 180.0,64.5 182.0,64.6 184.0,65.0 186.0,65.6 188.0,66.5 190.0,67.6 192.0,68.8 194.0,70.2 196.0,71.8 198.0,73.4 200.0,75.0 202.0,76.6 204.0,78.2 206.0,79.8 208.0,81.2 210.0,82.4 212.0,83.5 214.0,84.4 216.0,85.0 218.0,85.4 220.0,85.5 222.0,85.4 224.0,85.0 226.0,84.4 228.0,83.5 230.0,82.4 232.0,81.2 234.0,79.8 236.0,78.2 238.0,76.6 240.0,75.0 242.0,73.4 244.0,71.8 246.0,70.2 248.0,68.8 250.0,67.6 252.0,66.5 254.0,65.6 256.0,65.0 258.0,64.6 260.0,64.5 262.0,64.6 264.0,65.0 266.0,65.6 268.0,66.5 270.0,67.6 272.0,68.8 274.0,70.2 276.0,71.8 278.0,73.4 280.0,75.0 282.0,76.6 284.0,78.2 286.0,79.8 288.0,81.2 290.0,82.4 292.0,83.5 294.0,84.4 296.0,85.0 298.0,85.4 300.0,85.5 302.0,85.4 304.0,85.0 306.0,84.4 308.0,83.5 310.0,82.4 312.0,81.2 314.0,79.8 316.0,78.2 318.0,76.6 320.0,75.0 322.0,73.4 324.0,71.8 326.0,70.2 328.0,68.8 330.0,67.6 332.0,66.5 334.0,65.6 336.0,65.0 338.0,64.6 340.0,64.5 342.0,64.6 344.0,65.0 346.0,65.6 348.0,66.5 350.0,67.6 352.0,68.8 354.0,70.2 356.0,71.8 358.0,73.4 360.0,75.0 362.0,76.6 364.0,78.2 366.0,79.8 368.0,81.2 370.0,82.4 372.0,83.5 374.0,84.4 376.0,85.0 378.0,85.4 380.0,85.5 382.0,85.4 384.0,85.0 386.0,84.4 388.0,83.5 390.0,82.4 392.0,81.2 394.0,79.8 396.0,78.2 398.0,76.6 400.0,75.0" stroke="#b47fff" stroke-width="0.9" fill="none" opacity="0.6"/>
  <polyline points="0.0,75.0 2.0,73.4 4.0,71.8 6.0,70.4 8.0,69.2 10.0,68.3 12.0,67.7 14.0,67.5 16.0,67.6 18.0,68.1 20.0,68.9 22.0,70.0 24.0,71.4 26.0,72.9 28.0,74.5 30.0,76.2 32.0,77.8 34.0,79.2 36.0,80.5 38.0,81.5 40.0,82.1 42.0,82.5 44.0,82.4 46.0,82.1 48.0,81.3 50.0,80.3 52.0,79.0 54.0,77.5 56.0,75.9 58.0,74.3 60.0,72.7 62.0,71.2 64.0,69.9 66.0,68.8 68.0,68.0 70.0,67.6 72.0,67.5 74.0,67.8 76.0,68.4 78.0,69.4 80.0,70.6 82.0,72.0 84.0,73.6 86.0,75.2 88.0,76.9 90.0,78.4 92.0,79.8 94.0,80.9 96.0,81.8 98.0,82.3 100.0,82.5 102.0,82.3 104.0,81.8 106.0,80.9 108.0,79.8 110.0,78.4 112.0,76.9 114.0,75.2 116.0,73.6 118.0,72.0 120.0,70.6 122.0,69.4 124.0,68.4 126.0,67.8 128.0,67.5 130.0,67.6 132.0,68.0 134.0,68.8 136.0,69.9 138.0,71.2 140.0,72.7 142.0,74.3 144.0,75.9 146.0,77.5 148.0,79.0 150.0,80.3 152.0,81.3 154.0,82.1 156.0,82.4 158.0,82.5 160.0,82.1 162.0,81.5 164.0,80.5 166.0,79.2 168.0,77.8 170.0,76.2 172.0,74.5 174.0,72.9 176.0,71.4 178.0,70.0 180.0,68.9 182.0,68.1 184.0,67.6 186.0,67.5 188.0,67.7 190.0,68.3 192.0,69.2 194.0,70.4 196.0,71.8 198.0,73.4 200.0,75.0 202.0,76.6 204.0,78.2 206.0,79.6 208.0,80.8 210.0,81.7 212.0,82.3 214.0,82.5 216.0,82.4 218.0,81.9 220.0,81.1 222.0,80.0 224.0,78.6 226.0,77.1 228.0,75.5 230.0,73.8 232.0,72.2 234.0,70.8 236.0,69.5 238.0,68.5 240.0,67.9 242.0,67.5 244.0,67.6 246.0,67.9 248.0,68.7 250.0,69.7 252.0,71.0 254.0,72.5 256.0,74.1 258.0,75.7 260.0,77.3 262.0,78.8 264.0,80.1 266.0,81.2 268.0,82.0 270.0,82.4 272.0,82.5 274.0,82.2 276.0,81.6 278.0,80.6 280.0,79.4 282.0,78.0 284.0,76.4 286.0,74.8 288.0,73.1 290.0,71.6 292.0,70.2 294.0,69.1 296.0,68.2 298.0,67.7 300.0,67.5 302.0,67.7 304.0,68.2 306.0,69.1 308.0,70.2 310.0,71.6 312.0,73.1 314.0,74.8 316.0,76.4 318.0,78.0 320.0,79.4 322.0,80.6 324.0,81.6 326.0,82.2 328.0,82.5 330.0,82.4 332.0,82.0 334.0,81.2 336.0,80.1 338.0,78.8 340.0,77.3 342.0,75.7 344.0,74.1 346.0,72.5 348.0,71.0 350.0,69.7 352.0,68.7 354.0,67.9 356.0,67.6 358.0,67.5 360.0,67.9 362.0,68.5 364.0,69.5 366.0,70.8 368.0,72.2 370.0,73.8 372.0,75.5 374.0,77.1 376.0,78.6 378.0,80.0 380.0,81.1 382.0,81.9 384.0,82.4 386.0,82.5 388.0,82.3 390.0,81.7 392.0,80.8 394.0,79.6 396.0,78.2 398.0,76.6 400.0,75.0" stroke="#ff8c6b" stroke-width="0.8" fill="none" opacity="0.55"/>
  <polyline points="0.0,225.0 2.0,216.9 4.0,209.0 6.0,201.4 8.0,194.3 10.0,187.8 12.0,182.0 14.0,177.0 16.0,172.9 18.0,169.7 20.0,167.3 22.0,165.8 24.0,165.1 26.0,165.1 28.0,165.7 30.0,166.8 32.0,168.3 34.0,170.0 36.0,171.8 38.0,173.7 40.0,175.4 42.0,176.9 44.0,178.2 46.0,179.1 48.0,179.6 50.0,179.8 52.0,179.6 54.0,179.1 56.0,178.4 58.0,177.4 60.0,176.2 62.0,175.0 64.0,173.8 66.0,172.7 68.0,171.7 70.0,170.9 72.0,170.4 74.0,170.1 76.0,170.1 78.0,170.4 80.0,170.9 82.0,171.6 84.0,172.5 86.0,173.5 88.0,174.5 90.0,175.5 92.0,176.4 94.0,177.2 96.0,177.8 98.0,178.2 100.0,178.3 102.0,178.2 104.0,177.8 106.0,177.2 108.0,176.4 110.0,175.5 112.0,174.5 114.0,173.5 116.0,172.5 118.0,171.6 120.0,170.9 122.0,170.4 124.0,170.1 126.0,170.1 128.0,170.4 130.0,170.9 132.0,171.7 134.0,172.7 136.0,173.8 138.0,175.0 140.0,176.2 142.0,177.4 144.0,178.4 146.0,179.1 148.0,179.6 150.0,179.8 152.0,179.6 154.0,179.1 156.0,178.2 158.0,176.9 160.0,175.4 162.0,173.7 164.0,171.8 166.0,170.0 168.0,168.3 170.0,166.8 172.0,165.7 174.0,165.1 176.0,165.1 178.0,165.8 180.0,167.3 182.0,169.7 184.0,172.9 186.0,177.0 188.0,182.0 190.0,187.8 192.0,194.3 194.0,201.4 196.0,209.0 198.0,216.9 200.0,225.0 202.0,233.1 204.0,241.0 206.0,248.6 208.0,255.7 210.0,262.2 212.0,268.0 214.0,273.0 216.0,277.1 218.0,280.3 220.0,282.7 222.0,284.2 224.0,284.9 226.0,284.9 228.0,284.3 230.0,283.2 232.0,281.7 234.0,280.0 236.0,278.2 238.0,276.3 240.0,274.6 242.0,273.1 244.0,271.8 246.0,270.9 248.0,270.4 250.0,270.2 252.0,270.4 254.0,270.9 256.0,271.6 258.0,272.6 260.0,273.8 262.0,275.0 264.0,276.2 266.0,277.3 268.0,278.3 270.0,279.1 272.0,279.6 274.0,279.9 276.0,279.9 278.0,279.6 280.0,279.1 282.0,278.4 284.0,277.5 286.0,276.5 288.0,275.5 290.0,274.5 292.0,273.6 294.0,272.8 296.0,272.2 298.0,271.8 300.0,271.7 302.0,271.8 304.0,272.2 306.0,272.8 308.0,273.6 310.0,274.5 312.0,275.5 314.0,276.5 316.0,277.5 318.0,278.4 320.0,279.1 322.0,279.6 324.0,279.9 326.0,279.9 328.0,279.6 330.0,279.1 332.0,278.3 334.0,277.3 336.0,276.2 338.0,275.0 340.0,273.8 342.0,272.6 344.0,271.6 346.0,270.9 348.0,270.4 350.0,270.2 352.0,270.4 354.0,270.9 356.0,271.8 358.0,273.1 360.0,274.6 362.0,276.3 364.0,278.2 366.0,280.0 368.0,281.7 370.0,283.2 372.0,284.3 374.0,284.9 376.0,284.9 378.0,284.2 380.0,282.7 382.0,280.3 384.0,277.1 386.0,273.0 388.0,268.0 390.0,262.2 392.0,255.7 394.0,248.6 396.0,241.0 398.0,233.1 400.0,225.0" stroke="#ffffff" stroke-width="2.5" fill="none"/>
  <text x="6" y="12" font-family="system-ui,sans-serif" font-size="9" fill="#555">harmonics</text>
  <text x="6" y="162" font-family="system-ui,sans-serif" font-size="9" fill="#555">sum</text>
</svg>
