<svg xmlns="http://www.w3.org/2000/svg" width="400" height="400" viewBox="0 0 400 400">
<rect width="400" height="400" fill="#f5f0e8"/>
<circle cx="226.0" cy="208.8" r="4.68" fill="#2b2318"/>
<circle cx="234.8" cy="278.9" r="4.43" fill="#2b2318"/>
<circle cx="58.9" cy="99.3" r="1.10" fill="#2b2318"/>
<circle cx="247.1" cy="144.8" r="5.00" fill="#2b2318"/>
<circle cx="265.1" cy="254.8" r="3.93" fill="#2b2318"/>
<circle cx="207.4" cy="53.9" r="1.58" fill="#2b2318"/>
<circle cx="269.5" cy="210.7" r="3.03" fill="#2b2318"/>
<circle cx="81.0" cy="191.1" r="1.54" fill="#2b2318"/>
<circle cx="251.1" cy="253.2" r="4.98" fill="#2b2318"/>
<circle cx="117.1" cy="238.4" r="2.37" fill="#2b2318"/>
<circle cx="227.4" cy="185.0" r="4.84" fill="#2b2318"/>
<circle cx="163.2" cy="166.0" r="5.00" fill="#2b2318"/>
<circle cx="178.0" cy="168.4" r="5.00" fill="#2b2318"/>
<circle cx="362.5" cy="243.9" r="1.10" fill="#2b2318"/>
<circle cx="222.4" cy="285.6" r="3.60" fill="#2b2318"/>
<circle cx="215.2" cy="298.8" r="2.69" fill="#2b2318"/>
<circle cx="242.9" cy="203.0" r="4.13" fill="#2b2318"/>
<circle cx="158.5" cy="235.1" r="4.19" fill="#2b2318"/>
<circle cx="249.7" cy="289.1" r="2.67" fill="#2b2318"/>
<circle cx="178.3" cy="99.5" r="2.48" fill="#2b2318"/>
<circle cx="248.5" cy="60.1" r="1.49" fill="#2b2318"/>
<circle cx="253.2" cy="158.4" r="5.00" fill="#2b2318"/>
<circle cx="204.6" cy="145.1" r="4.21" fill="#2b2318"/>
<circle cx="62.3" cy="307.3" r="1.10" fill="#2b2318"/>
<circle cx="160.4" cy="111.7" r="2.66" fill="#2b2318"/>
<circle cx="171.9" cy="228.8" r="4.46" fill="#2b2318"/>
<circle cx="184.1" cy="179.5" r="4.91" fill="#2b2318"/>
<circle cx="248.3" cy="128.9" r="4.83" fill="#2b2318"/>
<circle cx="179.8" cy="354.3" r="1.48" fill="#2b2318"/>
<circle cx="164.3" cy="246.5" r="5.00" fill="#2b2318"/>
<circle cx="280.2" cy="194.0" r="2.71" fill="#2b2318"/>
<circle cx="216.4" cy="168.4" r="5.00" fill="#2b2318"/>
<circle cx="242.4" cy="93.9" r="2.16" fill="#2b2318"/>
<circle cx="277.7" cy="164.9" r="4.51" fill="#2b2318"/>
<circle cx="88.9" cy="43.5" r="1.08" fill="#2b2318"/>
<circle cx="270.9" cy="227.8" r="2.96" fill="#2b2318"/>
<circle cx="261.7" cy="317.7" r="1.69" fill="#2b2318"/>
<circle cx="144.9" cy="204.9" r="3.62" fill="#2b2318"/>
<circle cx="214.0" cy="190.5" r="4.90" fill="#2b2318"/>
<circle cx="197.9" cy="333.6" r="1.82" fill="#2b2318"/>
<circle cx="241.6" cy="188.0" r="4.60" fill="#2b2318"/>
<circle cx="178.7" cy="312.2" r="2.23" fill="#2b2318"/>
<circle cx="217.2" cy="319.5" r="2.13" fill="#2b2318"/>
<circle cx="191.2" cy="172.6" r="4.88" fill="#2b2318"/>
<circle cx="335.1" cy="138.9" r="1.24" fill="#2b2318"/>
<circle cx="176.0" cy="188.0" r="4.80" fill="#2b2318"/>
<circle cx="223.5" cy="268.2" r="5.00" fill="#2b2318"/>
<circle cx="185.9" cy="25.2" r="1.24" fill="#2b2318"/>
<circle cx="174.4" cy="125.4" r="3.77" fill="#2b2318"/>
<circle cx="276.3" cy="83.5" r="1.54" fill="#2b2318"/>
<circle cx="258.1" cy="198.3" r="3.68" fill="#2b2318"/>
<circle cx="139.1" cy="127.0" r="3.79" fill="#2b2318"/>
<circle cx="227.5" cy="172.2" r="5.00" fill="#2b2318"/>
<circle cx="223.6" cy="155.9" r="5.00" fill="#2b2318"/>
<circle cx="129.9" cy="217.8" r="2.91" fill="#2b2318"/>
<circle cx="194.4" cy="114.1" r="3.00" fill="#2b2318"/>
<circle cx="290.8" cy="231.7" r="2.20" fill="#2b2318"/>
<circle cx="174.1" cy="213.2" r="4.59" fill="#2b2318"/>
<circle cx="154.8" cy="129.2" r="4.80" fill="#2b2318"/>
<circle cx="183.1" cy="289.4" r="3.34" fill="#2b2318"/>
<circle cx="232.2" cy="342.8" r="1.58" fill="#2b2318"/>
<circle cx="198.4" cy="88.0" r="2.30" fill="#2b2318"/>
<circle cx="314.2" cy="355.4" r="1.08" fill="#2b2318"/>
<circle cx="125.0" cy="258.9" r="2.98" fill="#2b2318"/>
<circle cx="258.9" cy="110.3" r="2.33" fill="#2b2318"/>
<circle cx="237.7" cy="308.0" r="2.20" fill="#2b2318"/>
<circle cx="133.0" cy="331.7" r="1.45" fill="#2b2318"/>
<circle cx="213.9" cy="179.8" r="4.90" fill="#2b2318"/>
<circle cx="107.6" cy="211.9" r="2.18" fill="#2b2318"/>
<circle cx="154.5" cy="307.9" r="2.05" fill="#2b2318"/>
<circle cx="149.4" cy="373.0" r="1.21" fill="#2b2318"/>
<circle cx="144.0" cy="186.2" r="4.31" fill="#2b2318"/>
<circle cx="141.8" cy="61.6" r="1.45" fill="#2b2318"/>
<circle cx="258.6" cy="236.3" r="3.58" fill="#2b2318"/>
<circle cx="280.3" cy="31.7" r="1.12" fill="#2b2318"/>
<circle cx="304.8" cy="193.7" r="1.89" fill="#2b2318"/>
<circle cx="252.0" cy="376.2" r="1.18" fill="#2b2318"/>
<circle cx="195.0" cy="160.8" r="4.69" fill="#2b2318"/>
<circle cx="205.5" cy="374.3" r="1.27" fill="#2b2318"/>
<circle cx="183.0" cy="240.5" r="5.00" fill="#2b2318"/>
<circle cx="182.5" cy="159.1" r="5.00" fill="#2b2318"/>
<circle cx="171.5" cy="271.5" r="5.00" fill="#2b2318"/>
<circle cx="236.8" cy="225.2" r="4.28" fill="#2b2318"/>
<circle cx="93.0" cy="138.6" r="1.55" fill="#2b2318"/>
<circle cx="50.7" cy="256.6" r="1.14" fill="#2b2318"/>
<circle cx="121.5" cy="152.3" r="4.34" fill="#2b2318"/>
<circle cx="324.1" cy="241.9" r="1.44" fill="#2b2318"/>
<circle cx="202.7" cy="173.0" r="4.80" fill="#2b2318"/>
<circle cx="219.6" cy="227.0" r="4.73" fill="#2b2318"/>
<circle cx="143.2" cy="26.6" r="1.16" fill="#2b2318"/>
<circle cx="208.7" cy="159.0" r="4.70" fill="#2b2318"/>
<circle cx="122.2" cy="133.4" r="3.07" fill="#2b2318"/>
<circle cx="317.9" cy="274.4" r="1.40" fill="#2b2318"/>
<circle cx="228.3" cy="250.4" r="5.00" fill="#2b2318"/>
<circle cx="101.6" cy="164.5" r="2.09" fill="#2b2318"/>
<circle cx="185.0" cy="225.8" r="4.76" fill="#2b2318"/>
<circle cx="267.1" cy="129.6" r="3.82" fill="#2b2318"/>
<circle cx="169.8" cy="177.9" r="5.00" fill="#2b2318"/>
<circle cx="163.3" cy="140.9" r="5.00" fill="#2b2318"/>
<circle cx="348.8" cy="304.4" r="1.08" fill="#2b2318"/>
<circle cx="281.3" cy="144.9" r="3.99" fill="#2b2318"/>
<circle cx="200.2" cy="266.1" r="5.00" fill="#2b2318"/>
<circle cx="141.8" cy="143.1" r="5.00" fill="#2b2318"/>
<circle cx="105.2" cy="313.5" r="1.36" fill="#2b2318"/>
<circle cx="170.8" cy="153.5" r="5.00" fill="#2b2318"/>
<circle cx="179.5" cy="141.1" r="4.76" fill="#2b2318"/>
<circle cx="273.2" cy="180.6" r="3.70" fill="#2b2318"/>
<circle cx="187.3" cy="254.1" r="5.00" fill="#2b2318"/>
<circle cx="241.8" cy="172.8" r="5.00" fill="#2b2318"/>
<circle cx="262.2" cy="142.8" r="5.00" fill="#2b2318"/>
<circle cx="272.7" cy="344.2" r="1.31" fill="#2b2318"/>
<circle cx="141.7" cy="230.2" r="3.39" fill="#2b2318"/>
<circle cx="155.1" cy="260.4" r="5.00" fill="#2b2318"/>
<circle cx="156.4" cy="219.0" r="3.93" fill="#2b2318"/>
<circle cx="218.4" cy="141.4" r="4.55" fill="#2b2318"/>
<circle cx="221.8" cy="239.6" r="5.00" fill="#2b2318"/>
<circle cx="188.5" cy="276.5" r="5.00" fill="#2b2318"/>
<circle cx="252.6" cy="217.8" r="3.74" fill="#2b2318"/>
<circle cx="234.4" cy="263.8" r="5.00" fill="#2b2318"/>
<circle cx="172.8" cy="255.9" r="5.00" fill="#2b2318"/>
<circle cx="177.8" cy="200.5" r="4.71" fill="#2b2318"/>
<circle cx="233.0" cy="121.6" r="3.39" fill="#2b2318"/>
<circle cx="128.1" cy="196.1" r="3.02" fill="#2b2318"/>
<circle cx="143.1" cy="248.4" r="4.10" fill="#2b2318"/>
<circle cx="203.5" cy="214.5" r="4.94" fill="#2b2318"/>
<circle cx="136.8" cy="158.7" r="5.00" fill="#2b2318"/>
<circle cx="42.0" cy="203.9" r="1.11" fill="#2b2318"/>
<circle cx="197.4" cy="304.0" r="2.53" fill="#2b2318"/>
<circle cx="188.7" cy="190.0" r="4.90" fill="#2b2318"/>
<circle cx="212.9" cy="125.4" r="3.50" fill="#2b2318"/>
<circle cx="202.3" cy="282.8" r="4.30" fill="#2b2318"/>
<circle cx="299.7" cy="307.1" r="1.37" fill="#2b2318"/>
<circle cx="217.8" cy="104.9" r="2.70" fill="#2b2318"/>
<circle cx="277.3" cy="246.7" r="2.95" fill="#2b2318"/>
<circle cx="83.9" cy="228.6" r="1.56" fill="#2b2318"/>
<circle cx="207.9" cy="257.1" r="5.00" fill="#2b2318"/>
<circle cx="166.0" cy="289.6" r="3.01" fill="#2b2318"/>
<circle cx="214.7" cy="203.4" r="4.90" fill="#2b2318"/>
<circle cx="338.1" cy="205.4" r="1.31" fill="#2b2318"/>
<circle cx="110.7" cy="282.2" r="1.81" fill="#2b2318"/>
<circle cx="272.9" cy="292.1" r="1.98" fill="#2b2318"/>
<circle cx="93.7" cy="261.0" r="1.71" fill="#2b2318"/>
<circle cx="238.3" cy="158.0" r="5.00" fill="#2b2318"/>
<circle cx="189.7" cy="214.0" r="4.88" fill="#2b2318"/>
<circle cx="259.6" cy="170.1" r="5.00" fill="#2b2318"/>
<circle cx="138.9" cy="270.9" r="3.70" fill="#2b2318"/>
<circle cx="213.1" cy="273.1" r="5.00" fill="#2b2318"/>
<circle cx="316.1" cy="59.7" r="1.11" fill="#2b2318"/>
<circle cx="217.4" cy="217.0" r="4.79" fill="#2b2318"/>
<circle cx="155.5" cy="87.3" r="1.93" fill="#2b2318"/>
<circle cx="104.0" cy="111.0" r="1.50" fill="#2b2318"/>
<circle cx="146.1" cy="170.1" r="5.00" fill="#2b2318"/>
<circle cx="220.1" cy="256.4" r="5.00" fill="#2b2318"/>
<circle cx="247.0" cy="268.5" r="5.00" fill="#2b2318"/>
<circle cx="192.3" cy="201.8" r="4.97" fill="#2b2318"/>
<circle cx="154.1" cy="154.6" r="5.00" fill="#2b2318"/>
<circle cx="232.1" cy="24.1" r="1.22" fill="#2b2318"/>
<circle cx="303.5" cy="144.6" r="1.86" fill="#2b2318"/>
<circle cx="162.7" cy="332.8" r="1.72" fill="#2b2318"/>
<circle cx="283.3" cy="271.1" r="2.41" fill="#2b2318"/>
<circle cx="113.1" cy="81.2" r="1.38" fill="#2b2318"/>
<circle cx="135.6" cy="105.6" r="1.99" fill="#2b2318"/>
<circle cx="161.9" cy="192.4" r="4.38" fill="#2b2318"/>
<circle cx="221.9" cy="77.6" r="1.98" fill="#2b2318"/>
<circle cx="236.4" cy="214.3" r="4.34" fill="#2b2318"/>
<circle cx="294.7" cy="170.6" r="2.37" fill="#2b2318"/>
<circle cx="161.5" cy="204.9" r="4.23" fill="#2b2318"/>
<circle cx="190.5" cy="148.6" r="4.51" fill="#2b2318"/>
<circle cx="213.3" cy="246.7" r="5.00" fill="#2b2318"/>
<circle cx="268.1" cy="155.8" r="5.00" fill="#2b2318"/>
<circle cx="232.5" cy="236.8" r="4.64" fill="#2b2318"/>
<circle cx="194.4" cy="132.4" r="3.72" fill="#2b2318"/>
<circle cx="109.5" cy="186.7" r="2.33" fill="#2b2318"/>
<circle cx="200.0" cy="186.2" r="4.93" fill="#2b2318"/>
<circle cx="285.8" cy="118.7" r="1.89" fill="#2b2318"/>
<circle cx="261.7" cy="271.2" r="3.70" fill="#2b2318"/>
<circle cx="55.6" cy="154.2" r="1.16" fill="#2b2318"/>
<circle cx="256.3" cy="183.0" r="4.61" fill="#2b2318"/>
<circle cx="135.4" cy="294.7" r="2.03" fill="#2b2318"/>
<circle cx="127.3" cy="173.5" r="3.91" fill="#2b2318"/>
<circle cx="239.2" cy="251.2" r="5.00" fill="#2b2318"/>
<circle cx="288.2" cy="211.0" r="2.35" fill="#2b2318"/>
<circle cx="203.6" cy="199.0" r="5.00" fill="#2b2318"/>
<circle cx="310.2" cy="218.6" r="1.74" fill="#2b2318"/>
<circle cx="96.0" cy="360.6" r="1.09" fill="#2b2318"/>
<circle cx="298.0" cy="253.7" r="2.06" fill="#2b2318"/>
<circle cx="198.9" cy="229.5" r="5.00" fill="#2b2318"/>
<circle cx="156.9" cy="179.6" r="5.00" fill="#2b2318"/>
<circle cx="356.3" cy="97.4" r="1.05" fill="#2b2318"/>
<circle cx="185.9" cy="265.3" r="5.00" fill="#2b2318"/>
<circle cx="177.0" cy="65.7" r="1.71" fill="#2b2318"/>
<circle cx="228.0" cy="197.1" r="4.67" fill="#2b2318"/>
<circle cx="322.4" cy="172.5" r="1.50" fill="#2b2318"/>
<circle cx="364.9" cy="172.9" r="1.09" fill="#2b2318"/>
<circle cx="245.4" cy="237.2" r="4.07" fill="#2b2318"/>
<circle cx="310.9" cy="105.6" r="1.33" fill="#2b2318"/>
<circle cx="232.8" cy="140.4" r="5.00" fill="#2b2318"/>
<circle cx="198.1" cy="246.9" r="5.00" fill="#2b2318"/>
<circle cx="155.0" cy="276.7" r="4.23" fill="#2b2318"/>
<circle cx="208.6" cy="236.1" r="5.00" fill="#2b2318"/>
</svg>
