<svg xmlns="http://www.w3.org/2000/svg" viewBox="0 0 400 400" width="400" height="400">
  <rect width="400" height="400" fill="#1a1a2e"/>
  <!-- 6×6 Truchet grid, cell size ~66.67px, palette: ink #1a1a2e / cream #f0e6d0 -->
  <!-- Row 0 -->
  <!-- (0,0) orientation 0: arcs at bottom-left and top-right corners -->
  <path d="M 0 66.67 A 33.33 33.33 0 0 1 33.33 33.33" fill="none" stroke="#f0e6d0" stroke-width="12" stroke-linecap="round"/>
  <path d="M 66.67 0 A 33.33 33.33 0 0 1 33.33 33.33" fill="none" stroke="#f0e6d0" stroke-width="12" stroke-linecap="round"/>
  <!-- (1,0) orientation 1: arcs at top-left and bottom-right corners -->
  <path d="M 66.67 33.33 A 33.33 33.33 0 0 1 100 66.67" fill="none" stroke="#f0e6d0" stroke-width="12" stroke-linecap="round"/>
  <path d="M 133.33 0 A 33.33 33.33 0 0 0 100 33.33" fill="none" stroke="#f0e6d0" stroke-width="12" stroke-linecap="round"/>
  <!-- (2,0) orientation 0 -->
  <path d="M 133.33 66.67 A 33.33 33.33 0 0 1 166.67 33.33" fill="none" stroke="#f0e6d0" stroke-width="12" stroke-linecap="round"/>
  <path d="M 200 0 A 33.33 33.33 0 0 1 166.67 33.33" fill="none" stroke="#f0e6d0" stroke-width="12" stroke-linecap="round"/>
  <!-- (3,0) orientation 1 -->
  <path d="M 200 33.33 A 33.33 33.33 0 0 1 233.33 66.67" fill="none" stroke="#f0e6d0" stroke-width="12" stroke-linecap="round"/>
  <path d="M 266.67 0 A 33.33 33.33 0 0 0 233.33 33.33" fill="none" stroke="#f0e6d0" stroke-width="12" stroke-linecap="round"/>
  <!-- (4,0) orientation 0 -->
  <path d="M 266.67 66.67 A 33.33 33.33 0 0 1 300 33.33" fill="none" stroke="#f0e6d0" stroke-width="12" stroke-linecap="round"/>
  <path d="M 333.33 0 A 33.33 33.33 0 0 1 300 33.33" fill="none" stroke="#f0e6d0" stroke-width="12" stroke-linecap="round"/>
  <!-- (5,0) orientation 1 -->
  <path d="M 333.33 33.33 A 33.33 33.33 0 0 1 366.67 66.67" fill="none" stroke="#f0e6d0" stroke-width="12" stroke-linecap="round"/>
  <path d="M 400 0 A 33.33 33.33 0 0 0 366.67 33.33" fill="none" stroke="#f0e6d0" stroke-width="12" stroke-linecap="round"/>
  <!-- Row 1 -->
  <!-- (0,1) orientation 1 -->
  <path d="M 0 100 A 33.33 33.33 0 0 0 33.33 133.33" fill="none" stroke="#f0e6d0" stroke-width="12" stroke-linecap="round"/>
  <path d="M 66.67 66.67 A 33.33 33.33 0 0 1 33.33 100" fill="none" stroke="#f0e6d0" stroke-width="12" stroke-linecap="round"/>
  <!-- (1,1) orientation 0 -->
  <path d="M 66.67 133.33 A 33.33 33.33 0 0 1 100 100" fill="none" stroke="#f0e6d0" stroke-width="12" stroke-linecap="round"/>
  <path d="M 133.33 66.67 A 33.33 33.33 0 0 1 100 100" fill="none" stroke="#f0e6d0" stroke-width="12" stroke-linecap="round"/>
  <!-- (2,1) orientation 1 -->
  <path d="M 133.33 100 A 33.33 33.33 0 0 1 166.67 133.33" fill="none" stroke="#f0e6d0" stroke-width="12" stroke-linecap="round"/>
  <path d="M 200 66.67 A 33.33 33.33 0 0 0 166.67 100" fill="none" stroke="#f0e6d0" stroke-width="12" stroke-linecap="round"/>
  <!-- (3,1) orientation 0 -->
  <path d="M 200 133.33 A 33.33 33.33 0 0 1 233.33 100" fill="none" stroke="#f0e6d0" stroke-width="12" stroke-linecap="round"/>
  <path d="M 266.67 66.67 A 33.33 33.33 0 0 1 233.33 100" fill="none" stroke="#f0e6d0" stroke-width="12" stroke-linecap="round"/>
  <!-- (4,1) orientation 1 -->
  <path d="M 266.67 100 A 33.33 33.33 0 0 1 300 133.33" fill="none" stroke="#f0e6d0" stroke-width="12" stroke-linecap="round"/>
  <path d="M 333.33 66.67 A 33.33 33.33 0 0 0 300 100" fill="none" stroke="#f0e6d0" stroke-width="12" stroke-linecap="round"/>
  <!-- (5,1) orientation 0 -->
  <path d="M 333.33 133.33 A 33.33 33.33 0 0 1 366.67 100" fill="none" stroke="#f0e6d0" stroke-width="12" stroke-linecap="round"/>
  <path d="M 400 66.67 A 33.33 33.33 0 0 1 366.67 100" fill="none" stroke="#f0e6d0" stroke-width="12" stroke-linecap="round"/>
  <!-- Row 2 -->
  <!-- (0,2) orientation 0 -->
  <path d="M 0 200 A 33.33 33.33 0 0 1 33.33 166.67" fill="none" stroke="#f0e6d0" stroke-width="12" stroke-linecap="round"/>
  <path d="M 66.67 133.33 A 33.33 33.33 0 0 1 33.33 166.67" fill="none" stroke="#f0e6d0" stroke-width="12" stroke-linecap="round"/>
  <!-- (1,2) orientation 0 -->
  <path d="M 66.67 200 A 33.33 33.33 0 0 1 100 166.67" fill="none" stroke="#f0e6d0" stroke-width="12" stroke-linecap="round"/>
  <path d="M 133.33 133.33 A 33.33 33.33 0 0 1 100 166.67" fill="none" stroke="#f0e6d0" stroke-width="12" stroke-linecap="round"/>
  <!-- (2,2) orientation 1 -->
  <path d="M 133.33 166.67 A 33.33 33.33 0 0 1 166.67 200" fill="none" stroke="#f0e6d0" stroke-width="12" stroke-linecap="round"/>
  <path d="M 200 133.33 A 33.33 33.33 0 0 0 166.67 166.67" fill="none" stroke="#f0e6d0" stroke-width="12" stroke-linecap="round"/>
  <!-- (3,2) orientation 0 -->
  <path d="M 200 200 A 33.33 33.33 0 0 1 233.33 166.67" fill="none" stroke="#f0e6d0" stroke-width="12" stroke-linecap="round"/>
  <path d="M 266.67 133.33 A 33.33 33.33 0 0 1 233.33 166.67" fill="none" stroke="#f0e6d0" stroke-width="12" stroke-linecap="round"/>
  <!-- (4,2) orientation 1 -->
  <path d="M 266.67 166.67 A 33.33 33.33 0 0 1 300 200" fill="none" stroke="#f0e6d0" stroke-width="12" stroke-linecap="round"/>
  <path d="M 333.33 133.33 A 33.33 33.33 0 0 0 300 166.67" fill="none" stroke="#f0e6d0" stroke-width="12" stroke-linecap="round"/>
  <!-- (5,2) orientation 0 -->
  <path d="M 333.33 200 A 33.33 33.33 0 0 1 366.67 166.67" fill="none" stroke="#f0e6d0" stroke-width="12" stroke-linecap="round"/>
  <path d="M 400 133.33 A 33.33 33.33 0 0 1 366.67 166.67" fill="none" stroke="#f0e6d0" stroke-width="12" stroke-linecap="round"/>
  <!-- Row 3 -->
  <!-- (0,3) orientation 1 -->
  <path d="M 0 233.33 A 33.33 33.33 0 0 0 33.33 266.67" fill="none" stroke="#f0e6d0" stroke-width="12" stroke-linecap="round"/>
  <path d="M 66.67 200 A 33.33 33.33 0 0 1 33.33 233.33" fill="none" stroke="#f0e6d0" stroke-width="12" stroke-linecap="round"/>
  <!-- (1,3) orientation 1 -->
  <path d="M 66.67 233.33 A 33.33 33.33 0 0 1 100 266.67" fill="none" stroke="#f0e6d0" stroke-width="12" stroke-linecap="round"/>
  <path d="M 133.33 200 A 33.33 33.33 0 0 0 100 233.33" fill="none" stroke="#f0e6d0" stroke-width="12" stroke-linecap="round"/>
  <!-- (2,3) orientation 0 -->
  <path d="M 133.33 266.67 A 33.33 33.33 0 0 1 166.67 233.33" fill="none" stroke="#f0e6d0" stroke-width="12" stroke-linecap="round"/>
  <path d="M 200 200 A 33.33 33.33 0 0 1 166.67 233.33" fill="none" stroke="#f0e6d0" stroke-width="12" stroke-linecap="round"/>
  <!-- (3,3) orientation 1 -->
  <path d="M 200 233.33 A 33.33 33.33 0 0 1 233.33 266.67" fill="none" stroke="#f0e6d0" stroke-width="12" stroke-linecap="round"/>
  <path d="M 266.67 200 A 33.33 33.33 0 0 0 233.33 233.33" fill="none" stroke="#f0e6d0" stroke-width="12" stroke-linecap="round"/>
  <!-- (4,3) orientation 0 -->
  <path d="M 266.67 266.67 A 33.33 33.33 0 0 1 300 233.33" fill="none" stroke="#f0e6d0" stroke-width="12" stroke-linecap="round"/>
  <path d="M 333.33 200 A 33.33 33.33 0 0 1 300 233.33" fill="none" stroke="#f0e6d0" stroke-width="12" stroke-linecap="round"/>
  <!-- (5,3) orientation 1 -->
  <path d="M 333.33 233.33 A 33.33 33.33 0 0 1 366.67 266.67" fill="none" stroke="#f0e6d0" stroke-width="12" stroke-linecap="round"/>
  <path d="M 400 200 A 33.33 33.33 0 0 0 366.67 233.33" fill="none" stroke="#f0e6d0" stroke-width="12" stroke-linecap="round"/>
  <!-- Row 4 -->
  <!-- (0,4) orientation 0 -->
  <path d="M 0 333.33 A 33.33 33.33 0 0 1 33.33 300" fill="none" stroke="#f0e6d0" stroke-width="12" stroke-linecap="round"/>
  <path d="M 66.67 266.67 A 33.33 33.33 0 0 1 33.33 300" fill="none" stroke="#f0e6d0" stroke-width="12" stroke-linecap="round"/>
  <!-- (1,4) orientation 1 -->
  <path d="M 66.67 300 A 33.33 33.33 0 0 1 100 333.33" fill="none" stroke="#f0e6d0" stroke-width="12" stroke-linecap="round"/>
  <path d="M 133.33 266.67 A 33.33 33.33 0 0 0 100 300" fill="none" stroke="#f0e6d0" stroke-width="12" stroke-linecap="round"/>
  <!-- (2,4) orientation 0 -->
  <path d="M 133.33 333.33 A 33.33 33.33 0 0 1 166.67 300" fill="none" stroke="#f0e6d0" stroke-width="12" stroke-linecap="round"/>
  <path d="M 200 266.67 A 33.33 33.33 0 0 1 166.67 300" fill="none" stroke="#f0e6d0" stroke-width="12" stroke-linecap="round"/>
  <!-- (3,4) orientation 0 -->
  <path d="M 200 333.33 A 33.33 33.33 0 0 1 233.33 300" fill="none" stroke="#f0e6d0" stroke-width="12" stroke-linecap="round"/>
  <path d="M 266.67 266.67 A 33.33 33.33 0 0 1 233.33 300" fill="none" stroke="#f0e6d0" stroke-width="12" stroke-linecap="round"/>
  <!-- (4,4) orientation 1 -->
  <path d="M 266.67 300 A 33.33 33.33 0 0 1 300 333.33" fill="none" stroke="#f0e6d0" stroke-width="12" stroke-linecap="round"/>
  <path d="M 333.33 266.67 A 33.33 33.33 0 0 0 300 300" fill="none" stroke="#f0e6d0" stroke-width="12" stroke-linecap="round"/>
  <!-- (5,4) orientation 0 -->
  <path d="M 333.33 333.33 A 33.33 33.33 0 0 1 366.67 300" fill="none" stroke="#f0e6d0" stroke-width="12" stroke-linecap="round"/>
  <path d="M 400 266.67 A 33.33 33.33 0 0 1 366.67 300" fill="none" stroke="#f0e6d0" stroke-width="12" stroke-linecap="round"/>
  <!-- Row 5 -->
  <!-- (0,5) orientation 1 -->
  <path d="M 0 366.67 A 33.33 33.33 0 0 0 33.33 400" fill="none" stroke="#f0e6d0" stroke-width="12" stroke-linecap="round"/>
  <path d="M 66.67 333.33 A 33.33 33.33 0 0 1 33.33 366.67" fill="none" stroke="#f0e6d0" stroke-width="12" stroke-linecap="round"/>
  <!-- (1,5) orientation 0 -->
  <path d="M 66.67 400 A 33.33 33.33 0 0 1 100 366.67" fill="none" stroke="#f0e6d0" stroke-width="12" stroke-linecap="round"/>
  <path d="M 133.33 333.33 A 33.33 33.33 0 0 1 100 366.67" fill="none" stroke="#f0e6d0" stroke-width="12" stroke-linecap="round"/>
  <!-- (2,5) orientation 1 -->
  <path d="M 133.33 366.67 A 33.33 33.33 0 0 1 166.67 400" fill="none" stroke="#f0e6d0" stroke-width="12" stroke-linecap="round"/>
  <path d="M 200 333.33 A 33.33 33.33 0 0 0 166.67 366.67" fill="none" stroke="#f0e6d0" stroke-width="12" stroke-linecap="round"/>
  <!-- (3,5) orientation 0 -->
  <path d="M 200 400 A 33.33 33.33 0 0 1 233.33 366.67" fill="none" stroke="#f0e6d0" stroke-width="12" stroke-linecap="round"/>
  <path d="M 266.67 333.33 A 33.33 33.33 0 0 1 233.33 366.67" fill="none" stroke="#f0e6d0" stroke-width="12" stroke-linecap="round"/>
  <!-- (4,5) orientation 0 -->
  <path d="M 266.67 400 A 33.33 33.33 0 0 1 300 366.67" fill="none" stroke="#f0e6d0" stroke-width="12" stroke-linecap="round"/>
  <path d="M 333.33 333.33 A 33.33 33.33 0 0 1 300 366.67" fill="none" stroke="#f0e6d0" stroke-width="12" stroke-linecap="round"/>
  <!-- (5,5) orientation 1 -->
  <path d="M 333.33 366.67 A 33.33 33.33 0 0 1 366.67 400" fill="none" stroke="#f0e6d0" stroke-width="12" stroke-linecap="round"/>
  <path d="M 400 333.33 A 33.33 33.33 0 0 0 366.67 366.67" fill="none" stroke="#f0e6d0" stroke-width="12" stroke-linecap="round"/>
</svg>
