<svg xmlns="http://www.w3.org/2000/svg" viewBox="0 0 400 400" width="400" height="400">
  <rect width="400" height="400" fill="#020814"/>
  <defs>
    <radialGradient id="coreGlow" cx="50%" cy="50%" r="50%">
      <stop offset="0%" stop-color="#1860d0" stop-opacity="0.35"/>
      <stop offset="100%" stop-color="#020814" stop-opacity="0"/>
    </radialGradient>
    <filter id="glow">
      <feGaussianBlur stdDeviation="1.2" result="blur"/>
      <feMerge><feMergeNode in="blur"/><feMergeNode in="SourceGraphic"/></feMerge>
    </filter>
  </defs>

  <!-- Ambient blue-core glow -->
  <circle cx="200" cy="200" r="200" fill="url(#coreGlow)"/>

  <!-- ── Core cluster (r < 25) deep blue ── -->
  <g filter="url(#glow)" fill="#1878e0">
    <circle cx="200" cy="200" r="3.5"/>
    <circle cx="196" cy="195" r="2"/>
    <circle cx="204" cy="197" r="2"/>
    <circle cx="198" cy="206" r="1.8"/>
    <circle cx="207" cy="204" r="1.8"/>
    <circle cx="193" cy="201" r="1.8"/>
    <circle cx="200" cy="193" r="1.8"/>
    <circle cx="206" cy="208" r="1.5"/>
    <circle cx="194" cy="208" r="1.5"/>
    <circle cx="209" cy="195" r="1.5"/>
    <circle cx="191" cy="194" r="1.5"/>
    <circle cx="190" cy="207" r="1.5"/>
    <circle cx="208" cy="192" r="1.5"/>
    <circle cx="196" cy="212" r="1.4"/>
    <circle cx="204" cy="211" r="1.4"/>
  </g>

  <!-- ── ARM UP — blue → teal → gold → amber ── -->
  <!-- blue zone r=25-70 -->
  <g filter="url(#glow)" fill="#1878e0">
    <circle cx="200" cy="175" r="2"/>
    <circle cx="199" cy="165" r="1.8"/>
    <circle cx="201" cy="157" r="1.8"/>
    <circle cx="194" cy="170" r="1.6"/>
    <circle cx="206" cy="172" r="1.6"/>
    <circle cx="193" cy="160" r="1.5"/>
    <circle cx="207" cy="162" r="1.5"/>
  </g>
  <!-- teal zone r=70-120 -->
  <g filter="url(#glow)" fill="#12b8a8">
    <circle cx="200" cy="148" r="1.8"/>
    <circle cx="200" cy="138" r="1.8"/>
    <circle cx="200" cy="128" r="1.5"/>
    <circle cx="188" cy="152" r="1.5"/>
    <circle cx="181" cy="144" r="1.4"/>
    <circle cx="174" cy="137" r="1.2"/>
    <circle cx="168" cy="130" r="1.2"/>
    <circle cx="212" cy="150" r="1.5"/>
    <circle cx="219" cy="143" r="1.4"/>
    <circle cx="225" cy="136" r="1.2"/>
    <circle cx="231" cy="129" r="1.2"/>
  </g>
  <!-- gold zone r=120-160 -->
  <g filter="url(#glow)" fill="#d0a010">
    <circle cx="200" cy="118" r="1.5"/>
    <circle cx="200" cy="108" r="1.5"/>
    <circle cx="200" cy="98" r="1.3"/>
    <circle cx="200" cy="88" r="1.2"/>
    <circle cx="191" cy="122" r="1.2"/>
    <circle cx="184" cy="116" r="1.1"/>
    <circle cx="178" cy="110" r="1"/>
    <circle cx="172" cy="104" r="1"/>
    <circle cx="209" cy="120" r="1.2"/>
    <circle cx="216" cy="114" r="1.1"/>
    <circle cx="222" cy="108" r="1"/>
    <circle cx="228" cy="102" r="1"/>
    <circle cx="162" cy="123" r="1"/>
    <circle cx="238" cy="121" r="1"/>
  </g>
  <!-- amber tips r=160+ -->
  <g filter="url(#glow)" fill="#c05810">
    <circle cx="200" cy="78" r="1.2"/>
    <circle cx="197" cy="70" r="1"/>
    <circle cx="203" cy="68" r="0.9"/>
    <circle cx="167" cy="98" r="0.9"/>
    <circle cx="162" cy="92" r="0.8"/>
    <circle cx="234" cy="96" r="0.9"/>
    <circle cx="240" cy="90" r="0.8"/>
  </g>

  <!-- ── ARM RIGHT ── -->
  <g filter="url(#glow)" fill="#1878e0">
    <circle cx="225" cy="200" r="2"/>
    <circle cx="235" cy="200" r="1.8"/>
    <circle cx="243" cy="199" r="1.8"/>
    <circle cx="230" cy="194" r="1.6"/>
    <circle cx="228" cy="206" r="1.6"/>
    <circle cx="240" cy="193" r="1.5"/>
    <circle cx="238" cy="207" r="1.5"/>
  </g>
  <g filter="url(#glow)" fill="#12b8a8">
    <circle cx="252" cy="200" r="1.8"/>
    <circle cx="262" cy="200" r="1.8"/>
    <circle cx="272" cy="200" r="1.5"/>
    <circle cx="248" cy="188" r="1.5"/>
    <circle cx="255" cy="181" r="1.4"/>
    <circle cx="261" cy="174" r="1.2"/>
    <circle cx="267" cy="167" r="1.2"/>
    <circle cx="250" cy="212" r="1.5"/>
    <circle cx="257" cy="219" r="1.4"/>
    <circle cx="263" cy="226" r="1.2"/>
    <circle cx="269" cy="233" r="1.2"/>
  </g>
  <g filter="url(#glow)" fill="#d0a010">
    <circle cx="282" cy="200" r="1.5"/>
    <circle cx="292" cy="200" r="1.5"/>
    <circle cx="302" cy="200" r="1.3"/>
    <circle cx="312" cy="200" r="1.2"/>
    <circle cx="278" cy="191" r="1.2"/>
    <circle cx="284" cy="184" r="1.1"/>
    <circle cx="290" cy="178" r="1"/>
    <circle cx="295" cy="171" r="1"/>
    <circle cx="280" cy="209" r="1.2"/>
    <circle cx="286" cy="216" r="1.1"/>
    <circle cx="292" cy="222" r="1"/>
    <circle cx="297" cy="229" r="1"/>
  </g>
  <g filter="url(#glow)" fill="#c05810">
    <circle cx="322" cy="200" r="1.2"/>
    <circle cx="330" cy="197" r="1"/>
    <circle cx="328" cy="203" r="0.9"/>
    <circle cx="300" cy="165" r="0.9"/>
    <circle cx="305" cy="159" r="0.8"/>
    <circle cx="302" cy="233" r="0.9"/>
    <circle cx="308" cy="239" r="0.8"/>
  </g>

  <!-- ── ARM DOWN ── -->
  <g filter="url(#glow)" fill="#1878e0">
    <circle cx="200" cy="225" r="2"/>
    <circle cx="199" cy="235" r="1.8"/>
    <circle cx="201" cy="243" r="1.8"/>
    <circle cx="194" cy="230" r="1.6"/>
    <circle cx="206" cy="228" r="1.6"/>
    <circle cx="193" cy="240" r="1.5"/>
    <circle cx="207" cy="238" r="1.5"/>
  </g>
  <g filter="url(#glow)" fill="#12b8a8">
    <circle cx="200" cy="252" r="1.8"/>
    <circle cx="200" cy="262" r="1.8"/>
    <circle cx="200" cy="272" r="1.5"/>
    <circle cx="188" cy="248" r="1.5"/>
    <circle cx="181" cy="255" r="1.4"/>
    <circle cx="174" cy="262" r="1.2"/>
    <circle cx="168" cy="269" r="1.2"/>
    <circle cx="212" cy="250" r="1.5"/>
    <circle cx="219" cy="257" r="1.4"/>
    <circle cx="225" cy="264" r="1.2"/>
    <circle cx="231" cy="271" r="1.2"/>
  </g>
  <g filter="url(#glow)" fill="#d0a010">
    <circle cx="200" cy="282" r="1.5"/>
    <circle cx="200" cy="292" r="1.5"/>
    <circle cx="200" cy="302" r="1.3"/>
    <circle cx="200" cy="312" r="1.2"/>
    <circle cx="191" cy="278" r="1.2"/>
    <circle cx="184" cy="284" r="1.1"/>
    <circle cx="178" cy="290" r="1"/>
    <circle cx="172" cy="296" r="1"/>
    <circle cx="209" cy="280" r="1.2"/>
    <circle cx="216" cy="286" r="1.1"/>
    <circle cx="222" cy="292" r="1"/>
    <circle cx="228" cy="298" r="1"/>
  </g>
  <g filter="url(#glow)" fill="#c05810">
    <circle cx="200" cy="322" r="1.2"/>
    <circle cx="197" cy="330" r="1"/>
    <circle cx="203" cy="328" r="0.9"/>
    <circle cx="167" cy="301" r="0.9"/>
    <circle cx="162" cy="307" r="0.8"/>
    <circle cx="234" cy="303" r="0.9"/>
    <circle cx="240" cy="309" r="0.8"/>
  </g>

  <!-- ── ARM LEFT ── -->
  <g filter="url(#glow)" fill="#1878e0">
    <circle cx="175" cy="200" r="2"/>
    <circle cx="165" cy="200" r="1.8"/>
    <circle cx="157" cy="199" r="1.8"/>
    <circle cx="170" cy="206" r="1.6"/>
    <circle cx="172" cy="194" r="1.6"/>
    <circle cx="160" cy="207" r="1.5"/>
    <circle cx="162" cy="193" r="1.5"/>
  </g>
  <g filter="url(#glow)" fill="#12b8a8">
    <circle cx="148" cy="200" r="1.8"/>
    <circle cx="138" cy="200" r="1.8"/>
    <circle cx="128" cy="200" r="1.5"/>
    <circle cx="152" cy="212" r="1.5"/>
    <circle cx="145" cy="219" r="1.4"/>
    <circle cx="139" cy="226" r="1.2"/>
    <circle cx="133" cy="233" r="1.2"/>
    <circle cx="150" cy="188" r="1.5"/>
    <circle cx="143" cy="181" r="1.4"/>
    <circle cx="137" cy="174" r="1.2"/>
    <circle cx="131" cy="167" r="1.2"/>
  </g>
  <g filter="url(#glow)" fill="#d0a010">
    <circle cx="118" cy="200" r="1.5"/>
    <circle cx="108" cy="200" r="1.5"/>
    <circle cx="98" cy="200" r="1.3"/>
    <circle cx="88" cy="200" r="1.2"/>
    <circle cx="122" cy="209" r="1.2"/>
    <circle cx="116" cy="216" r="1.1"/>
    <circle cx="110" cy="222" r="1"/>
    <circle cx="105" cy="229" r="1"/>
    <circle cx="120" cy="191" r="1.2"/>
    <circle cx="114" cy="184" r="1.1"/>
    <circle cx="108" cy="178" r="1"/>
    <circle cx="103" cy="171" r="1"/>
  </g>
  <g filter="url(#glow)" fill="#c05810">
    <circle cx="78" cy="200" r="1.2"/>
    <circle cx="70" cy="203" r="1"/>
    <circle cx="72" cy="197" r="0.9"/>
    <circle cx="100" cy="235" r="0.9"/>
    <circle cx="95" cy="241" r="0.8"/>
    <circle cx="98" cy="165" r="0.9"/>
    <circle cx="93" cy="159" r="0.8"/>
  </g>

  <!-- ── DIAGONAL ARM: upper-right ── -->
  <g filter="url(#glow)" fill="#1878e0">
    <circle cx="210" cy="190" r="1.8"/>
    <circle cx="220" cy="180" r="1.6"/>
    <circle cx="230" cy="170" r="1.5"/>
  </g>
  <g filter="url(#glow)" fill="#12b8a8">
    <circle cx="240" cy="160" r="1.5"/>
    <circle cx="250" cy="150" r="1.4"/>
    <circle cx="259" cy="141" r="1.2"/>
    <circle cx="245" cy="155" r="1.1"/>
    <circle cx="253" cy="148" r="1"/>
  </g>
  <g filter="url(#glow)" fill="#d0a010">
    <circle cx="267" cy="133" r="1.1"/>
    <circle cx="275" cy="125" r="1"/>
    <circle cx="282" cy="118" r="0.9"/>
  </g>
  <g filter="url(#glow)" fill="#c05810">
    <circle cx="289" cy="111" r="0.9"/>
    <circle cx="295" cy="105" r="0.8"/>
  </g>

  <!-- ── DIAGONAL ARM: lower-right ── -->
  <g filter="url(#glow)" fill="#1878e0">
    <circle cx="210" cy="210" r="1.8"/>
    <circle cx="220" cy="220" r="1.6"/>
    <circle cx="230" cy="230" r="1.5"/>
  </g>
  <g filter="url(#glow)" fill="#12b8a8">
    <circle cx="240" cy="240" r="1.5"/>
    <circle cx="250" cy="250" r="1.4"/>
    <circle cx="259" cy="259" r="1.2"/>
    <circle cx="245" cy="245" r="1.1"/>
    <circle cx="253" cy="252" r="1"/>
  </g>
  <g filter="url(#glow)" fill="#d0a010">
    <circle cx="267" cy="267" r="1.1"/>
    <circle cx="275" cy="275" r="1"/>
    <circle cx="282" cy="282" r="0.9"/>
  </g>
  <g filter="url(#glow)" fill="#c05810">
    <circle cx="289" cy="289" r="0.9"/>
    <circle cx="295" cy="295" r="0.8"/>
  </g>

  <!-- ── DIAGONAL ARM: lower-left ── -->
  <g filter="url(#glow)" fill="#1878e0">
    <circle cx="190" cy="210" r="1.8"/>
    <circle cx="180" cy="220" r="1.6"/>
    <circle cx="170" cy="230" r="1.5"/>
  </g>
  <g filter="url(#glow)" fill="#12b8a8">
    <circle cx="160" cy="240" r="1.5"/>
    <circle cx="150" cy="250" r="1.4"/>
    <circle cx="141" cy="259" r="1.2"/>
    <circle cx="155" cy="245" r="1.1"/>
    <circle cx="147" cy="252" r="1"/>
  </g>
  <g filter="url(#glow)" fill="#d0a010">
    <circle cx="133" cy="267" r="1.1"/>
    <circle cx="125" cy="275" r="1"/>
    <circle cx="118" cy="282" r="0.9"/>
  </g>
  <g filter="url(#glow)" fill="#c05810">
    <circle cx="111" cy="289" r="0.9"/>
    <circle cx="105" cy="295" r="0.8"/>
  </g>

  <!-- ── DIAGONAL ARM: upper-left ── -->
  <g filter="url(#glow)" fill="#1878e0">
    <circle cx="190" cy="190" r="1.8"/>
    <circle cx="180" cy="180" r="1.6"/>
    <circle cx="170" cy="170" r="1.5"/>
  </g>
  <g filter="url(#glow)" fill="#12b8a8">
    <circle cx="160" cy="160" r="1.5"/>
    <circle cx="150" cy="150" r="1.4"/>
    <circle cx="141" cy="141" r="1.2"/>
    <circle cx="155" cy="155" r="1.1"/>
    <circle cx="147" cy="148" r="1"/>
  </g>
  <g filter="url(#glow)" fill="#d0a010">
    <circle cx="133" cy="133" r="1.1"/>
    <circle cx="125" cy="125" r="1"/>
    <circle cx="118" cy="118" r="0.9"/>
  </g>
  <g filter="url(#glow)" fill="#c05810">
    <circle cx="111" cy="111" r="0.9"/>
    <circle cx="105" cy="105" r="0.8"/>
  </g>

  <!-- ── Extra secondary branches (adds density / realism) ── -->
  <!-- Sub-branches off up-arm teal zone -->
  <g filter="url(#glow)" fill="#20c8b0">
    <circle cx="163" cy="124" r="1"/>
    <circle cx="157" cy="118" r="0.9"/>
    <circle cx="237" cy="122" r="1"/>
    <circle cx="243" cy="116" r="0.9"/>
  </g>
  <!-- Sub-branches off right-arm teal zone -->
  <g filter="url(#glow)" fill="#20c8b0">
    <circle cx="272" cy="162" r="1"/>
    <circle cx="278" cy="156" r="0.9"/>
    <circle cx="274" cy="238" r="1"/>
    <circle cx="280" cy="244" r="0.9"/>
  </g>
  <!-- Sub-branches off down-arm teal zone -->
  <g filter="url(#glow)" fill="#20c8b0">
    <circle cx="163" cy="276" r="1"/>
    <circle cx="157" cy="282" r="0.9"/>
    <circle cx="237" cy="278" r="1"/>
    <circle cx="243" cy="284" r="0.9"/>
  </g>
  <!-- Sub-branches off left-arm teal zone -->
  <g filter="url(#glow)" fill="#20c8b0">
    <circle cx="128" cy="162" r="1"/>
    <circle cx="122" cy="156" r="0.9"/>
    <circle cx="126" cy="238" r="1"/>
    <circle cx="120" cy="244" r="0.9"/>
  </g>
</svg>
