<svg xmlns="http://www.w3.org/2000/svg" width="400" height="400" viewBox="0 0 400 400">
  <rect width="400" height="400" fill="#0d1117"/>
  <path d="M 66.0,11.5 L 93.3,11.5 L 93.3,66.0 L 11.5,66.0 L 11.5,38.7 L 66.0,38.7 L 66.0,120.5 L 38.7,120.5 L 38.7,66.0 L 120.5,66.0 L 120.5,93.3 L 66.0,93.3 L 66.0,11.5" stroke="#7fffd4" stroke-width="1.4" fill="none" stroke-linecap="round" stroke-linejoin="round"/>
  <path d="M 174.6,14.1 L 223.4,14.1 L 144.5,71.5 L 159.5,25.1 L 189.7,117.9 L 150.2,89.2 L 247.8,89.2 L 208.3,117.9 L 238.5,25.1 L 253.5,71.5 L 174.6,14.1" stroke="#ffb3c1" stroke-width="1.4" fill="none" stroke-linecap="round" stroke-linejoin="round"/>
  <path d="M 301.7,59.9 L 313.8,59.9 L 313.8,84.2 L 277.5,84.2 L 277.5,35.7 L 338.1,35.7 L 338.1,47.8 L 313.8,47.8 L 313.8,11.5 L 362.3,11.5 L 362.3,72.1 L 350.2,72.1 L 350.2,47.8 L 386.5,47.8 L 386.5,96.3 L 325.9,96.3 L 325.9,84.2 L 350.2,84.2 L 350.2,120.5 L 301.7,120.5 L 301.7,59.9" stroke="#ffd700" stroke-width="1.4" fill="none" stroke-linecap="round" stroke-linejoin="round"/>
  <path d="M 41.2,181.8 L 61.0,181.8 L 41.2,216.2 L 11.5,164.7 L 90.8,164.7 L 80.9,181.8 L 61.0,147.5 L 120.5,147.5 L 80.9,216.2 L 71.0,199.0 L 110.6,199.0 L 80.9,250.5 L 41.2,181.8" stroke="#c9a7ff" stroke-width="1.4" fill="none" stroke-linecap="round" stroke-linejoin="round"/>
  <path d="M 158.1,185.4 L 171.7,185.4 L 171.7,199.0 L 144.5,199.0 L 144.5,158.1 L 212.6,158.1 L 212.6,171.7 L 199.0,171.7 L 199.0,144.5 L 239.9,144.5 L 239.9,212.6 L 226.3,212.6 L 226.3,199.0 L 253.5,199.0 L 253.5,239.9 L 185.4,239.9 L 185.4,226.3 L 199.0,226.3 L 199.0,253.5 L 158.1,253.5 L 158.1,185.4" stroke="#7fffd4" stroke-width="1.4" fill="none" stroke-linecap="round" stroke-linejoin="round"/>
  <path d="M 360.2,234.7 L 364.6,234.7 L 368.9,242.2 L 362.4,253.5 L 345.0,253.5 L 334.2,234.7 L 347.2,212.2 L 351.5,212.2 L 355.9,219.7 L 349.4,231.0 L 332.0,231.0 L 321.1,212.2 L 334.2,189.6 L 338.5,189.6 L 342.9,197.1 L 336.3,208.4 L 319.0,208.4 L 308.1,189.6 L 321.1,167.0 L 325.5,167.0 L 329.8,174.6 L 323.3,185.8 L 305.9,185.8 L 295.1,167.0 L 308.1,144.5" stroke="#ffb3c1" stroke-width="1.4" fill="none" stroke-linecap="round" stroke-linejoin="round"/>
  <path d="M 98.7,355.6 L 120.5,355.6 L 104.2,383.9 L 76.9,336.7 L 98.7,336.7 L 82.4,365.1 L 55.1,317.8 L 76.9,317.8 L 60.5,346.2 L 33.3,298.9 L 55.1,298.9 L 38.7,327.3 L 11.5,280.1" stroke="#ffd700" stroke-width="1.4" fill="none" stroke-linecap="round" stroke-linejoin="round"/>
  <path d="M 245.1,350.2 L 253.5,350.2 L 240.9,372.0 L 220.0,335.6 L 228.4,335.6 L 215.8,357.4 L 194.8,321.1 L 203.2,321.1 L 190.6,342.9 L 169.6,306.6 L 178.0,306.6 L 165.4,328.4 L 144.5,292.0" stroke="#c9a7ff" stroke-width="1.4" fill="none" stroke-linecap="round" stroke-linejoin="round"/>
  <path d="M 277.5,332.0 L 359.3,332.0 L 359.3,386.5 L 332.0,386.5 L 332.0,304.7 L 386.5,304.7 L 386.5,332.0 L 304.7,332.0 L 304.7,277.5 L 332.0,277.5 L 332.0,359.3 L 277.5,359.3 L 277.5,332.0" stroke="#7fffd4" stroke-width="1.4" fill="none" stroke-linecap="round" stroke-linejoin="round"/>
</svg>
