<svg xmlns="http://www.w3.org/2000/svg" viewBox="0 0 400 400" width="400" height="400">
  <rect width="400" height="400" fill="#1a1208"/>
  <polyline points="375.00,200.00 374.99,200.55 374.97,201.10 374.92,201.65 374.86,202.20 374.78,202.75 374.69,203.29 374.58,203.84 374.45,204.39 374.30,204.93 374.14,205.47 373.96,206.01 373.76,206.55 373.54,207.09 373.31,207.63 373.06,208.16 372.80,208.69 372.51,209.22 372.21,209.75 371.90,210.27 371.56,210.79 371.21,211.31 370.84,211.83 370.46,212.34 370.06,212.85 369.64,213.35 369.21,213.85 368.76,214.35 368.29,214.84 367.81,215.33 367.31,215.82 366.79,216.30 366.26,216.77 365.71,217.24 365.15,217.71 364.57,218.17 363.97,218.62 363.36,219.07 362.73,219.52 362.09,219.96 361.43,220.39 360.75,220.82 360.06,221.24 359.36,221.66 358.64,222.07 357.90,222.47 357.15,222.87 356.39,223.26 355.61,223.64 354.82,224.02 354.01,224.39 353.18,224.76 352.35,225.11 351.49,225.46 350.63,225.80 349.75,226.14 348.85,226.46 347.95,226.78 347.02,227.09 346.09,227.39 345.14,227.69 344.18,227.97 343.20,228.25 342.22,228.52 341.21,228.78 340.20,229.03 339.18,229.28 338.14,229.51 337.09,229.74 336.02,229.96 334.95,230.16 333.86,230.36 332.76,230.55 331.65,230.73 330.53,230.90 329.39,231.06 328.25,231.22 327.09,231.36 325.93,231.49 324.75,231.61 323.56,231.73 322.36,231.83 321.15,231.92 319.94,232.00 318.71,232.07 317.47,232.14 316.22,232.19 314.96,232.23 313.70,232.26 312.42,232.28 311.13,232.29 309.84,232.29 308.54,232.27 307.23,232.25 305.91,232.22 304.58,232.17 303.25,232.12 301.90,232.05 300.55,231.97 299.19,231.89 297.83,231.79 296.46,231.68 295.08,231.55 293.69,231.42 292.30,231.28 290.90,231.12 289.49,230.96 288.08,230.78 286.67,230.59 285.24,230.39 283.82,230.18 282.38,229.95 280.94,229.72 279.50,229.47 278.05,229.21 276.60,228.95 275.14,228.66 273.68,228.37 272.22,228.07 270.75,227.76 269.28,227.43 267.80,227.09 266.32,226.74 264.84,226.38 263.36,226.01 261.87,225.63 260.38,225.23 258.89,224.83 257.40,224.41 255.90,223.98 254.40,223.54 252.90,223.09 251.40,222.63 249.90,222.16 248.40,221.67 246.90,221.18 245.39,220.67 243.89,220.15 242.39,219.62 240.88,219.08 239.38,218.53 237.88,217.97 236.37,217.40 234.87,216.81 233.37,216.22 231.87,215.61 230.37,215.00 228.87,214.37 227.38,213.73 225.88,213.09 224.39,212.43 222.90,211.76 221.42,211.08 219.93,210.39 218.45,209.69 216.97,208.99 215.50,208.27 214.02,207.54 212.56,206.80 211.09,206.05 209.63,205.29 208.17,204.53 206.72,203.75 205.27,202.96 203.83,202.17 202.39,201.36 200.95,200.55 199.52,199.72 198.10,198.89 196.68,198.05 195.27,197.20 193.86,196.34 192.46,195.48 191.06,194.60 189.68,193.72 188.29,192.83 186.92,191.93 185.55,191.02 184.18,190.10 182.83,189.18 181.48,188.25 180.14,187.31 178.81,186.36 177.48,185.41 176.16,184.45 174.85,183.48 173.55,182.51 172.26,181.53 170.97,180.54 169.69,179.54 168.43,178.54 167.17,177.54 165.92,176.52 164.67,175.50 163.44,174.48 162.22,173.45 161.01,172.41 159.80,171.37 158.61,170.32 157.42,169.27 156.25,168.21 155.09,167.15 153.93,166.09 152.79,165.01 151.66,163.94 150.53,162.86 149.42,161.78 148.32,160.69 147.23,159.60 146.15,158.50 145.08,157.40 144.03,156.30 142.98,155.20 141.95,154.09 140.93,152.98 139.92,151.86 138.92,150.75 137.93,149.63 136.95,148.51 135.99,147.39 135.04,146.26 134.10,145.13 133.18,144.01 132.26,142.88 131.36,141.75 130.47,140.62 129.59,139.48 128.73,138.35 127.88,137.22 127.04,136.08 126.22,134.95 125.40,133.82 124.60,132.68 123.82,131.55 123.04,130.42 122.28,129.28 121.54,128.15 120.80,127.02 120.08,125.89 119.38,124.77 118.68,123.64 118.00,122.51 117.34,121.39 116.69,120.27 116.05,119.15 115.42,118.04 114.81,116.92 114.21,115.81 113.63,114.71 113.06,113.60 112.50,112.50 111.96,111.40 111.43,110.31 110.91,109.22 110.41,108.13 109.92,107.05 109.45,105.97 108.99,104.90 108.55,103.83 108.11,102.76 107.70,101.71 107.29,100.65 106.90,99.60 106.53,98.56 106.16,97.52 105.82,96.49 105.48,95.47 105.16,94.45 104.85,93.44 104.56,92.43 104.28,91.43 104.02,90.44 103.77,89.45 103.53,88.47 103.30,87.50 103.09,86.54 102.90,85.58 102.72,84.63 102.55,83.69 102.39,82.76 102.25,81.84 102.12,80.92 102.01,80.02 101.90,79.12 101.82,78.23 101.74,77.35 101.68,76.48 101.63,75.62 101.59,74.77 101.57,73.93 101.56,73.10 101.57,72.27 101.58,71.46 101.61,70.66 101.65,69.87 101.71,69.09 101.78,68.32 101.86,67.56 101.95,66.81 102.05,66.08 102.17,65.35 102.30,64.64 102.44,63.93 102.60,63.24 102.76,62.57 102.94,61.90 103.13,61.24 103.33,60.60 103.54,59.97 103.77,59.35 104.00,58.75 104.25,58.15 104.51,57.57 104.78,57.01 105.06,56.45 105.35,55.91 105.65,55.38 105.97,54.87 106.29,54.37 106.63,53.88 106.97,53.41 107.32,52.95 107.69,52.50 108.06,52.07 108.45,51.65 108.84,51.25 109.25,50.86 109.66,50.48 110.09,50.12 110.52,49.78 110.96,49.44 111.41,49.13 111.87,48.83 112.34,48.54 112.82,48.27 113.31,48.01 113.80,47.77 114.30,47.54 114.81,47.33 115.33,47.13 115.86,46.95 116.39,46.78 116.94,46.63 117.49,46.50 118.04,46.38 118.61,46.28 119.18,46.19 119.76,46.11 120.34,46.06 120.93,46.02 121.53,45.99 122.13,45.98 122.74,45.99 123.36,46.02 123.98,46.05 124.61,46.11 125.24,46.18 125.88,46.27 126.53,46.37 127.18,46.49 127.83,46.63 128.49,46.78 129.15,46.95 129.82,47.14 130.49,47.34 131.17,47.56 131.85,47.79 132.53,48.04 133.22,48.31 133.91,48.59 134.61,48.89 135.31,49.20 136.01,49.54 136.71,49.88 137.42,50.25 138.13,50.63 138.84,51.03 139.55,51.44 140.27,51.87 140.99,52.31 141.71,52.77 142.43,53.25 143.15,53.75 143.88,54.26 144.61,54.78 145.33,55.33 146.06,55.88 146.79,56.46 147.52,57.05 148.25,57.65 148.98,58.28 149.71,58.91 150.44,59.57 151.16,60.23 151.89,60.92 152.62,61.62 153.35,62.34 154.08,63.07 154.80,63.81 155.53,64.57 156.25,65.35 156.97,66.14 157.69,66.95 158.41,67.77 159.13,68.61 159.84,69.46 160.55,70.33 161.26,71.21 161.97,72.11 162.68,73.02 163.38,73.94 164.08,74.88 164.77,75.84 165.46,76.80 166.15,77.79 166.84,78.78 167.52,79.79 168.20,80.82 168.87,81.85 169.54,82.90 170.21,83.97 170.87,85.05 171.53,86.14 172.18,87.24 172.83,88.36 173.47,89.49 174.11,90.63 174.74,91.78 175.36,92.95 175.99,94.13 176.60,95.32 177.21,96.53 177.82,97.75 178.42,98.97 179.01,100.21 179.59,101.46 180.17,102.73 180.75,104.00 181.32,105.29 181.88,106.58 182.43,107.89 182.98,109.21 183.52,110.54 184.05,111.88 184.57,113.23 185.09,114.59 185.60,115.96 186.11,117.33 186.60,118.72 187.09,120.12 187.57,121.53 188.04,122.95 188.51,124.37 188.96,125.81 189.41,127.25 189.85,128.70 190.28,130.16 190.71,131.63 191.12,133.11 191.53,134.59 191.93,136.09 192.31,137.59 192.69,139.09 193.07,140.61 193.43,142.13 193.78,143.66 194.12,145.19 194.46,146.73 194.78,148.28 195.10,149.83 195.41,151.39 195.70,152.96 195.99,154.53 196.27,156.11 196.54,157.69 196.79,159.27 197.04,160.86 197.28,162.46 197.51,164.06 197.73,165.66 197.94,167.27 198.14,168.89 198.33,170.50 198.51,172.12 198.68,173.74 198.84,175.37 198.99,177.00 199.13,178.63 199.26,180.26 199.37,181.90 199.48,183.54 199.58,185.18 199.67,186.82 199.75,188.47 199.81,190.11 199.87,191.76 199.92,193.40 199.95,195.05 199.98,196.70 199.99,198.35 200.00,200.00 199.99,201.65 199.98,203.30 199.95,204.95 199.92,206.60 199.87,208.24 199.81,209.89 199.75,211.53 199.67,213.18 199.58,214.82 199.48,216.46 199.37,218.10 199.26,219.74 199.13,221.37 198.99,223.00 198.84,224.63 198.68,226.26 198.51,227.88 198.33,229.50 198.14,231.11 197.94,232.73 197.73,234.34 197.51,235.94 197.28,237.54 197.04,239.14 196.79,240.73 196.54,242.31 196.27,243.89 195.99,245.47 195.70,247.04 195.41,248.61 195.10,250.17 194.78,251.72 194.46,253.27 194.12,254.81 193.78,256.34 193.43,257.87 193.07,259.39 192.69,260.91 192.31,262.41 191.93,263.91 191.53,265.41 191.12,266.89 190.71,268.37 190.28,269.84 189.85,271.30 189.41,272.75 188.96,274.19 188.51,275.63 188.04,277.05 187.57,278.47 187.09,279.88 186.60,281.28 186.11,282.67 185.60,284.04 185.09,285.41 184.57,286.77 184.05,288.12 183.52,289.46 182.98,290.79 182.43,292.11 181.88,293.42 181.32,294.71 180.75,296.00 180.17,297.27 179.59,298.54 179.01,299.79 178.42,301.03 177.82,302.25 177.21,303.47 176.60,304.68 175.99,305.87 175.36,307.05 174.74,308.22 174.11,309.37 173.47,310.51 172.83,311.64 172.18,312.76 171.53,313.86 170.87,314.95 170.21,316.03 169.54,317.10 168.87,318.15 168.20,319.18 167.52,320.21 166.84,321.22 166.15,322.21 165.46,323.20 164.77,324.16 164.08,325.12 163.38,326.06 162.68,326.98 161.97,327.89 161.26,328.79 160.55,329.67 159.84,330.54 159.13,331.39 158.41,332.23 157.69,333.05 156.97,333.86 156.25,334.65 155.53,335.43 154.80,336.19 154.08,336.93 153.35,337.66 152.62,338.38 151.89,339.08 151.16,339.77 150.44,340.43 149.71,341.09 148.98,341.72 148.25,342.35 147.52,342.95 146.79,343.54 146.06,344.12 145.33,344.67 144.61,345.22 143.88,345.74 143.15,346.25 142.43,346.75 141.71,347.23 140.99,347.69 140.27,348.13 139.55,348.56 138.84,348.97 138.13,349.37 137.42,349.75 136.71,350.12 136.01,350.46 135.31,350.80 134.61,351.11 133.91,351.41 133.22,351.69 132.53,351.96 131.85,352.21 131.17,352.44 130.49,352.66 129.82,352.86 129.15,353.05 128.49,353.22 127.83,353.37 127.18,353.51 126.53,353.63 125.88,353.73 125.24,353.82 124.61,353.89 123.98,353.95 123.36,353.98 122.74,354.01 122.13,354.02 121.53,354.01 120.93,353.98 120.34,353.94 119.76,353.89 119.18,353.81 118.61,353.72 118.04,353.62 117.49,353.50 116.94,353.37 116.39,353.22 115.86,353.05 115.33,352.87 114.81,352.67 114.30,352.46 113.80,352.23 113.31,351.99 112.82,351.73 112.34,351.46 111.87,351.17 111.41,350.87 110.96,350.56 110.52,350.22 110.09,349.88 109.66,349.52 109.25,349.14 108.84,348.75 108.45,348.35 108.06,347.93 107.69,347.50 107.32,347.05 106.97,346.59 106.63,346.12 106.29,345.63 105.97,345.13 105.65,344.62 105.35,344.09 105.06,343.55 104.78,342.99 104.51,342.43 104.25,341.85 104.00,341.25 103.77,340.65 103.54,340.03 103.33,339.40 103.13,338.76 102.94,338.10 102.76,337.43 102.60,336.76 102.44,336.07 102.30,335.36 102.17,334.65 102.05,333.92 101.95,333.19 101.86,332.44 101.78,331.68 101.71,330.91 101.65,330.13 101.61,329.34 101.58,328.54 101.57,327.73 101.56,326.90 101.57,326.07 101.59,325.23 101.63,324.38 101.68,323.52 101.74,322.65 101.82,321.77 101.90,320.88 102.01,319.98 102.12,319.08 102.25,318.16 102.39,317.24 102.55,316.31 102.72,315.37 102.90,314.42 103.09,313.46 103.30,312.50 103.53,311.53 103.77,310.55 104.02,309.56 104.28,308.57 104.56,307.57 104.85,306.56 105.16,305.55 105.48,304.53 105.82,303.51 106.16,302.48 106.53,301.44 106.90,300.40 107.29,299.35 107.70,298.29 108.11,297.24 108.55,296.17 108.99,295.10 109.45,294.03 109.92,292.95 110.41,291.87 110.91,290.78 111.43,289.69 111.96,288.60 112.50,287.50 113.06,286.40 113.63,285.29 114.21,284.19 114.81,283.08 115.42,281.96 116.05,280.85 116.69,279.73 117.34,278.61 118.00,277.49 118.68,276.36 119.38,275.23 120.08,274.11 120.80,272.98 121.54,271.85 122.28,270.72 123.04,269.58 123.82,268.45 124.60,267.32 125.40,266.18 126.22,265.05 127.04,263.92 127.88,262.78 128.73,261.65 129.59,260.52 130.47,259.38 131.36,258.25 132.26,257.12 133.18,255.99 134.10,254.87 135.04,253.74 135.99,252.61 136.95,251.49 137.93,250.37 138.92,249.25 139.92,248.14 140.93,247.02 141.95,245.91 142.98,244.80 144.03,243.70 145.08,242.60 146.15,241.50 147.23,240.40 148.32,239.31 149.42,238.22 150.53,237.14 151.66,236.06 152.79,234.99 153.93,233.91 155.09,232.85 156.25,231.79 157.42,230.73 158.61,229.68 159.80,228.63 161.01,227.59 162.22,226.55 163.44,225.52 164.67,224.50 165.92,223.48 167.17,222.46 168.43,221.46 169.69,220.46 170.97,219.46 172.26,218.47 173.55,217.49 174.85,216.52 176.16,215.55 177.48,214.59 178.81,213.64 180.14,212.69 181.48,211.75 182.83,210.82 184.18,209.90 185.55,208.98 186.92,208.07 188.29,207.17 189.68,206.28 191.06,205.40 192.46,204.52 193.86,203.66 195.27,202.80 196.68,201.95 198.10,201.11 199.52,200.28 200.95,199.45 202.39,198.64 203.83,197.83 205.27,197.04 206.72,196.25 208.17,195.47 209.63,194.71 211.09,193.95 212.56,193.20 214.02,192.46 215.50,191.73 216.97,191.01 218.45,190.31 219.93,189.61 221.42,188.92 222.90,188.24 224.39,187.57 225.88,186.91 227.38,186.27 228.87,185.63 230.37,185.00 231.87,184.39 233.37,183.78 234.87,183.19 236.37,182.60 237.88,182.03 239.38,181.47 240.88,180.92 242.39,180.38 243.89,179.85 245.39,179.33 246.90,178.82 248.40,178.33 249.90,177.84 251.40,177.37 252.90,176.91 254.40,176.46 255.90,176.02 257.40,175.59 258.89,175.17 260.38,174.77 261.87,174.37 263.36,173.99 264.84,173.62 266.32,173.26 267.80,172.91 269.28,172.57 270.75,172.24 272.22,171.93 273.68,171.63 275.14,171.34 276.60,171.05 278.05,170.79 279.50,170.53 280.94,170.28 282.38,170.05 283.82,169.82 285.24,169.61 286.67,169.41 288.08,169.22 289.49,169.04 290.90,168.88 292.30,168.72 293.69,168.58 295.08,168.45 296.46,168.32 297.83,168.21 299.19,168.11 300.55,168.03 301.90,167.95 303.25,167.88 304.58,167.83 305.91,167.78 307.23,167.75 308.54,167.73 309.84,167.71 311.13,167.71 312.42,167.72 313.70,167.74 314.96,167.77 316.22,167.81 317.47,167.86 318.71,167.93 319.94,168.00 321.15,168.08 322.36,168.17 323.56,168.27 324.75,168.39 325.93,168.51 327.09,168.64 328.25,168.78 329.39,168.94 330.53,169.10 331.65,169.27 332.76,169.45 333.86,169.64 334.95,169.84 336.02,170.04 337.09,170.26 338.14,170.49 339.18,170.72 340.20,170.97 341.21,171.22 342.22,171.48 343.20,171.75 344.18,172.03 345.14,172.31 346.09,172.61 347.02,172.91 347.95,173.22 348.85,173.54 349.75,173.86 350.63,174.20 351.49,174.54 352.35,174.89 353.18,175.24 354.01,175.61 354.82,175.98 355.61,176.36 356.39,176.74 357.15,177.13 357.90,177.53 358.64,177.93 359.36,178.34 360.06,178.76 360.75,179.18 361.43,179.61 362.09,180.04 362.73,180.48 363.36,180.93 363.97,181.38 364.57,181.83 365.15,182.29 365.71,182.76 366.26,183.23 366.79,183.70 367.31,184.18 367.81,184.67 368.29,185.16 368.76,185.65 369.21,186.15 369.64,186.65 370.06,187.15 370.46,187.66 370.84,188.17 371.21,188.69 371.56,189.21 371.90,189.73 372.21,190.25 372.51,190.78 372.80,191.31 373.06,191.84 373.31,192.37 373.54,192.91 373.76,193.45 373.96,193.99 374.14,194.53 374.30,195.07 374.45,195.61 374.58,196.16 374.69,196.71 374.78,197.25 374.86,197.80 374.92,198.35 374.97,198.90 374.99,199.45 375.00,200.00 374.99,200.55 374.97,201.10 374.92,201.65 374.86,202.20 374.78,202.75 374.69,203.29 374.58,203.84 374.45,204.39 374.30,204.93 374.14,205.47 373.96,206.01 373.76,206.55 373.54,207.09 373.31,207.63 373.06,208.16 372.80,208.69 372.51,209.22 372.21,209.75 371.90,210.27 371.56,210.79 371.21,211.31 370.84,211.83 370.46,212.34 370.06,212.85 369.64,213.35 369.21,213.85 368.76,214.35 368.29,214.84 367.81,215.33 367.31,215.82 366.79,216.30 366.26,216.77 365.71,217.24 365.15,217.71 364.57,218.17 363.97,218.62 363.36,219.07 362.73,219.52 362.09,219.96 361.43,220.39 360.75,220.82 360.06,221.24 359.36,221.66 358.64,222.07 357.90,222.47 357.15,222.87 356.39,223.26 355.61,223.64 354.82,224.02 354.01,224.39 353.18,224.76 352.35,225.11 351.49,225.46 350.63,225.80 349.75,226.14 348.85,226.46 347.95,226.78 347.02,227.09 346.09,227.39 345.14,227.69 344.18,227.97 343.20,228.25 342.22,228.52 341.21,228.78 340.20,229.03 339.18,229.28 338.14,229.51 337.09,229.74 336.02,229.96 334.95,230.16 333.86,230.36 332.76,230.55 331.65,230.73 330.53,230.90 329.39,231.06 328.25,231.22 327.09,231.36 325.93,231.49 324.75,231.61 323.56,231.73 322.36,231.83 321.15,231.92 319.94,232.00 318.71,232.07 317.47,232.14 316.22,232.19 314.96,232.23 313.70,232.26 312.42,232.28 311.13,232.29 309.84,232.29 308.54,232.27 307.23,232.25 305.91,232.22 304.58,232.17 303.25,232.12 301.90,232.05 300.55,231.97 299.19,231.89 297.83,231.79 296.46,231.68 295.08,231.55 293.69,231.42 292.30,231.28 290.90,231.12 289.49,230.96 288.08,230.78 286.67,230.59 285.24,230.39 283.82,230.18 282.38,229.95 280.94,229.72 279.50,229.47 278.05,229.21 276.60,228.95 275.14,228.66 273.68,228.37 272.22,228.07 270.75,227.76 269.28,227.43 267.80,227.09 266.32,226.74 264.84,226.38 263.36,226.01 261.87,225.63 260.38,225.23 258.89,224.83 257.40,224.41 255.90,223.98 254.40,223.54 252.90,223.09 251.40,222.63 249.90,222.16 248.40,221.67 246.90,221.18 245.39,220.67 243.89,220.15 242.39,219.62 240.88,219.08 239.38,218.53 237.88,217.97 236.37,217.40 234.87,216.81 233.37,216.22 231.87,215.61 230.37,215.00 228.87,214.37 227.38,213.73 225.88,213.09 224.39,212.43 222.90,211.76 221.42,211.08 219.93,210.39 218.45,209.69 216.97,208.99 215.50,208.27 214.02,207.54 212.56,206.80 211.09,206.05 209.63,205.29 208.17,204.53 206.72,203.75 205.27,202.96 203.83,202.17 202.39,201.36 200.95,200.55 199.52,199.72 198.10,198.89 196.68,198.05 195.27,197.20 193.86,196.34 192.46,195.48 191.06,194.60 189.68,193.72 188.29,192.83 186.92,191.93 185.55,191.02 184.18,190.10 182.83,189.18 181.48,188.25 180.14,187.31 178.81,186.36 177.48,185.41 176.16,184.45 174.85,183.48 173.55,182.51 172.26,181.53 170.97,180.54 169.69,179.54 168.43,178.54 167.17,177.54 165.92,176.52 164.67,175.50 163.44,174.48 162.22,173.45 161.01,172.41 159.80,171.37 158.61,170.32 157.42,169.27 156.25,168.21 155.09,167.15 153.93,166.09 152.79,165.01 151.66,163.94 150.53,162.86 149.42,161.78 148.32,160.69 147.23,159.60 146.15,158.50 145.08,157.40 144.03,156.30 142.98,155.20 141.95,154.09 140.93,152.98 139.92,151.86 138.92,150.75 137.93,149.63 136.95,148.51 135.99,147.39 135.04,146.26 134.10,145.13 133.18,144.01 132.26,142.88 131.36,141.75 130.47,140.62 129.59,139.48 128.73,138.35 127.88,137.22 127.04,136.08 126.22,134.95 125.40,133.82 124.60,132.68 123.82,131.55 123.04,130.42 122.28,129.28 121.54,128.15 120.80,127.02 120.08,125.89 119.38,124.77 118.68,123.64 118.00,122.51 117.34,121.39 116.69,120.27 116.05,119.15 115.42,118.04 114.81,116.92 114.21,115.81 113.63,114.71 113.06,113.60 112.50,112.50 111.96,111.40 111.43,110.31 110.91,109.22 110.41,108.13 109.92,107.05 109.45,105.97 108.99,104.90 108.55,103.83 108.11,102.76 107.70,101.71 107.29,100.65 106.90,99.60 106.53,98.56 106.16,97.52 105.82,96.49 105.48,95.47 105.16,94.45 104.85,93.44 104.56,92.43 104.28,91.43 104.02,90.44 103.77,89.45 103.53,88.47 103.30,87.50 103.09,86.54 102.90,85.58 102.72,84.63 102.55,83.69 102.39,82.76 102.25,81.84 102.12,80.92 102.01,80.02 101.90,79.12 101.82,78.23 101.74,77.35 101.68,76.48 101.63,75.62 101.59,74.77 101.57,73.93 101.56,73.10 101.57,72.27 101.58,71.46 101.61,70.66 101.65,69.87 101.71,69.09 101.78,68.32 101.86,67.56 101.95,66.81 102.05,66.08 102.17,65.35 102.30,64.64 102.44,63.93 102.60,63.24 102.76,62.57 102.94,61.90 103.13,61.24 103.33,60.60 103.54,59.97 103.77,59.35 104.00,58.75 104.25,58.15 104.51,57.57 104.78,57.01 105.06,56.45 105.35,55.91 105.65,55.38 105.97,54.87 106.29,54.37 106.63,53.88 106.97,53.41 107.32,52.95 107.69,52.50 108.06,52.07 108.45,51.65 108.84,51.25 109.25,50.86 109.66,50.48 110.09,50.12 110.52,49.78 110.96,49.44 111.41,49.13 111.87,48.83 112.34,48.54 112.82,48.27 113.31,48.01 113.80,47.77 114.30,47.54 114.81,47.33 115.33,47.13 115.86,46.95 116.39,46.78 116.94,46.63 117.49,46.50 118.04,46.38 118.61,46.28 119.18,46.19 119.76,46.11 120.34,46.06 120.93,46.02 121.53,45.99 122.13,45.98 122.74,45.99 123.36,46.02 123.98,46.05 124.61,46.11 125.24,46.18 125.88,46.27 126.53,46.37 127.18,46.49 127.83,46.63 128.49,46.78 129.15,46.95 129.82,47.14 130.49,47.34 131.17,47.56 131.85,47.79 132.53,48.04 133.22,48.31 133.91,48.59 134.61,48.89 135.31,49.20 136.01,49.54 136.71,49.88 137.42,50.25 138.13,50.63 138.84,51.03 139.55,51.44 140.27,51.87 140.99,52.31 141.71,52.77 142.43,53.25 143.15,53.75 143.88,54.26 144.61,54.78 145.33,55.33 146.06,55.88 146.79,56.46 147.52,57.05 148.25,57.65 148.98,58.28 149.71,58.91 150.44,59.57 151.16,60.23 151.89,60.92 152.62,61.62 153.35,62.34 154.08,63.07 154.80,63.81 155.53,64.57 156.25,65.35 156.97,66.14 157.69,66.95 158.41,67.77 159.13,68.61 159.84,69.46 160.55,70.33 161.26,71.21 161.97,72.11 162.68,73.02 163.38,73.94 164.08,74.88 164.77,75.84 165.46,76.80 166.15,77.79 166.84,78.78 167.52,79.79 168.20,80.82 168.87,81.85 169.54,82.90 170.21,83.97 170.87,85.05 171.53,86.14 172.18,87.24 172.83,88.36 173.47,89.49 174.11,90.63 174.74,91.78 175.36,92.95 175.99,94.13 176.60,95.32 177.21,96.53 177.82,97.75 178.42,98.97 179.01,100.21 179.59,101.46 180.17,102.73 180.75,104.00 181.32,105.29 181.88,106.58 182.43,107.89 182.98,109.21 183.52,110.54 184.05,111.88 184.57,113.23 185.09,114.59 185.60,115.96 186.11,117.33 186.60,118.72 187.09,120.12 187.57,121.53 188.04,122.95 188.51,124.37 188.96,125.81 189.41,127.25 189.85,128.70 190.28,130.16 190.71,131.63 191.12,133.11 191.53,134.59 191.93,136.09 192.31,137.59 192.69,139.09 193.07,140.61 193.43,142.13 193.78,143.66 194.12,145.19 194.46,146.73 194.78,148.28 195.10,149.83 195.41,151.39 195.70,152.96 195.99,154.53 196.27,156.11 196.54,157.69 196.79,159.27 197.04,160.86 197.28,162.46 197.51,164.06 197.73,165.66 197.94,167.27 198.14,168.89 198.33,170.50 198.51,172.12 198.68,173.74 198.84,175.37 198.99,177.00 199.13,178.63 199.26,180.26 199.37,181.90 199.48,183.54 199.58,185.18 199.67,186.82 199.75,188.47 199.81,190.11 199.87,191.76 199.92,193.40 199.95,195.05 199.98,196.70 199.99,198.35 200.00,200.00 199.99,201.65 199.98,203.30 199.95,204.95 199.92,206.60 199.87,208.24 199.81,209.89 199.75,211.53 199.67,213.18 199.58,214.82 199.48,216.46 199.37,218.10 199.26,219.74 199.13,221.37 198.99,223.00 198.84,224.63 198.68,226.26 198.51,227.88 198.33,229.50 198.14,231.11 197.94,232.73 197.73,234.34 197.51,235.94 197.28,237.54 197.04,239.14 196.79,240.73 196.54,242.31 196.27,243.89 195.99,245.47 195.70,247.04 195.41,248.61 195.10,250.17 194.78,251.72 194.46,253.27 194.12,254.81 193.78,256.34 193.43,257.87 193.07,259.39 192.69,260.91 192.31,262.41 191.93,263.91 191.53,265.41 191.12,266.89 190.71,268.37 190.28,269.84 189.85,271.30 189.41,272.75 188.96,274.19 188.51,275.63 188.04,277.05 187.57,278.47 187.09,279.88 186.60,281.28 186.11,282.67 185.60,284.04 185.09,285.41 184.57,286.77 184.05,288.12 183.52,289.46 182.98,290.79 182.43,292.11 181.88,293.42 181.32,294.71 180.75,296.00 180.17,297.27 179.59,298.54 179.01,299.79 178.42,301.03 177.82,302.25 177.21,303.47 176.60,304.68 175.99,305.87 175.36,307.05 174.74,308.22 174.11,309.37 173.47,310.51 172.83,311.64 172.18,312.76 171.53,313.86 170.87,314.95 170.21,316.03 169.54,317.10 168.87,318.15 168.20,319.18 167.52,320.21 166.84,321.22 166.15,322.21 165.46,323.20 164.77,324.16 164.08,325.12 163.38,326.06 162.68,326.98 161.97,327.89 161.26,328.79 160.55,329.67 159.84,330.54 159.13,331.39 158.41,332.23 157.69,333.05 156.97,333.86 156.25,334.65 155.53,335.43 154.80,336.19 154.08,336.93 153.35,337.66 152.62,338.38 151.89,339.08 151.16,339.77 150.44,340.43 149.71,341.09 148.98,341.72 148.25,342.35 147.52,342.95 146.79,343.54 146.06,344.12 145.33,344.67 144.61,345.22 143.88,345.74 143.15,346.25 142.43,346.75 141.71,347.23 140.99,347.69 140.27,348.13 139.55,348.56 138.84,348.97 138.13,349.37 137.42,349.75 136.71,350.12 136.01,350.46 135.31,350.80 134.61,351.11 133.91,351.41 133.22,351.69 132.53,351.96 131.85,352.21 131.17,352.44 130.49,352.66 129.82,352.86 129.15,353.05 128.49,353.22 127.83,353.37 127.18,353.51 126.53,353.63 125.88,353.73 125.24,353.82 124.61,353.89 123.98,353.95 123.36,353.98 122.74,354.01 122.13,354.02 121.53,354.01 120.93,353.98 120.34,353.94 119.76,353.89 119.18,353.81 118.61,353.72 118.04,353.62 117.49,353.50 116.94,353.37 116.39,353.22 115.86,353.05 115.33,352.87 114.81,352.67 114.30,352.46 113.80,352.23 113.31,351.99 112.82,351.73 112.34,351.46 111.87,351.17 111.41,350.87 110.96,350.56 110.52,350.22 110.09,349.88 109.66,349.52 109.25,349.14 108.84,348.75 108.45,348.35 108.06,347.93 107.69,347.50 107.32,347.05 106.97,346.59 106.63,346.12 106.29,345.63 105.97,345.13 105.65,344.62 105.35,344.09 105.06,343.55 104.78,342.99 104.51,342.43 104.25,341.85 104.00,341.25 103.77,340.65 103.54,340.03 103.33,339.40 103.13,338.76 102.94,338.10 102.76,337.43 102.60,336.76 102.44,336.07 102.30,335.36 102.17,334.65 102.05,333.92 101.95,333.19 101.86,332.44 101.78,331.68 101.71,330.91 101.65,330.13 101.61,329.34 101.58,328.54 101.57,327.73 101.56,326.90 101.57,326.07 101.59,325.23 101.63,324.38 101.68,323.52 101.74,322.65 101.82,321.77 101.90,320.88 102.01,319.98 102.12,319.08 102.25,318.16 102.39,317.24 102.55,316.31 102.72,315.37 102.90,314.42 103.09,313.46 103.30,312.50 103.53,311.53 103.77,310.55 104.02,309.56 104.28,308.57 104.56,307.57 104.85,306.56 105.16,305.55 105.48,304.53 105.82,303.51 106.16,302.48 106.53,301.44 106.90,300.40 107.29,299.35 107.70,298.29 108.11,297.24 108.55,296.17 108.99,295.10 109.45,294.03 109.92,292.95 110.41,291.87 110.91,290.78 111.43,289.69 111.96,288.60 112.50,287.50 113.06,286.40 113.63,285.29 114.21,284.19 114.81,283.08 115.42,281.96 116.05,280.85 116.69,279.73 117.34,278.61 118.00,277.49 118.68,276.36 119.38,275.23 120.08,274.11 120.80,272.98 121.54,271.85 122.28,270.72 123.04,269.58 123.82,268.45 124.60,267.32 125.40,266.18 126.22,265.05 127.04,263.92 127.88,262.78 128.73,261.65 129.59,260.52 130.47,259.38 131.36,258.25 132.26,257.12 133.18,255.99 134.10,254.87 135.04,253.74 135.99,252.61 136.95,251.49 137.93,250.37 138.92,249.25 139.92,248.14 140.93,247.02 141.95,245.91 142.98,244.80 144.03,243.70 145.08,242.60 146.15,241.50 147.23,240.40 148.32,239.31 149.42,238.22 150.53,237.14 151.66,236.06 152.79,234.99 153.93,233.91 155.09,232.85 156.25,231.79 157.42,230.73 158.61,229.68 159.80,228.63 161.01,227.59 162.22,226.55 163.44,225.52 164.67,224.50 165.92,223.48 167.17,222.46 168.43,221.46 169.69,220.46 170.97,219.46 172.26,218.47 173.55,217.49 174.85,216.52 176.16,215.55 177.48,214.59 178.81,213.64 180.14,212.69 181.48,211.75 182.83,210.82 184.18,209.90 185.55,208.98 186.92,208.07 188.29,207.17 189.68,206.28 191.06,205.40 192.46,204.52 193.86,203.66 195.27,202.80 196.68,201.95 198.10,201.11 199.52,200.28 200.95,199.45 202.39,198.64 203.83,197.83 205.27,197.04 206.72,196.25 208.17,195.47 209.63,194.71 211.09,193.95 212.56,193.20 214.02,192.46 215.50,191.73 216.97,191.01 218.45,190.31 219.93,189.61 221.42,188.92 222.90,188.24 224.39,187.57 225.88,186.91 227.38,186.27 228.87,185.63 230.37,185.00 231.87,184.39 233.37,183.78 234.87,183.19 236.37,182.60 237.88,182.03 239.38,181.47 240.88,180.92 242.39,180.38 243.89,179.85 245.39,179.33 246.90,178.82 248.40,178.33 249.90,177.84 251.40,177.37 252.90,176.91 254.40,176.46 255.90,176.02 257.40,175.59 258.89,175.17 260.38,174.77 261.87,174.37 263.36,173.99 264.84,173.62 266.32,173.26 267.80,172.91 269.28,172.57 270.75,172.24 272.22,171.93 273.68,171.63 275.14,171.34 276.60,171.05 278.05,170.79 279.50,170.53 280.94,170.28 282.38,170.05 283.82,169.82 285.24,169.61 286.67,169.41 288.08,169.22 289.49,169.04 290.90,168.88 292.30,168.72 293.69,168.58 295.08,168.45 296.46,168.32 297.83,168.21 299.19,168.11 300.55,168.03 301.90,167.95 303.25,167.88 304.58,167.83 305.91,167.78 307.23,167.75 308.54,167.73 309.84,167.71 311.13,167.71 312.42,167.72 313.70,167.74 314.96,167.77 316.22,167.81 317.47,167.86 318.71,167.93 319.94,168.00 321.15,168.08 322.36,168.17 323.56,168.27 324.75,168.39 325.93,168.51 327.09,168.64 328.25,168.78 329.39,168.94 330.53,169.10 331.65,169.27 332.76,169.45 333.86,169.64 334.95,169.84 336.02,170.04 337.09,170.26 338.14,170.49 339.18,170.72 340.20,170.97 341.21,171.22 342.22,171.48 343.20,171.75 344.18,172.03 345.14,172.31 346.09,172.61 347.02,172.91 347.95,173.22 348.85,173.54 349.75,173.86 350.63,174.20 351.49,174.54 352.35,174.89 353.18,175.24 354.01,175.61 354.82,175.98 355.61,176.36 356.39,176.74 357.15,177.13 357.90,177.53 358.64,177.93 359.36,178.34 360.06,178.76 360.75,179.18 361.43,179.61 362.09,180.04 362.73,180.48 363.36,180.93 363.97,181.38 364.57,181.83 365.15,182.29 365.71,182.76 366.26,183.23 366.79,183.70 367.31,184.18 367.81,184.67 368.29,185.16 368.76,185.65 369.21,186.15 369.64,186.65 370.06,187.15 370.46,187.66 370.84,188.17 371.21,188.69 371.56,189.21 371.90,189.73 372.21,190.25 372.51,190.78 372.80,191.31 373.06,191.84 373.31,192.37 373.54,192.91 373.76,193.45 373.96,193.99 374.14,194.53 374.30,195.07 374.45,195.61 374.58,196.16 374.69,196.71 374.78,197.25 374.86,197.80 374.92,198.35 374.97,198.90 374.99,199.45 375.00,200.00" fill="none" stroke="#d4a84b" stroke-width="0.8" opacity="0.55"/>
  <polyline points="326.00,200.00 326.00,200.40 325.99,200.79 325.97,201.19 325.95,201.58 325.92,201.98 325.89,202.37 325.85,202.77 325.80,203.16 325.75,203.56 325.69,203.95 325.62,204.34 325.55,204.74 325.48,205.13 325.39,205.52 325.30,205.91 325.21,206.30 325.10,206.69 324.99,207.08 324.88,207.46 324.76,207.85 324.63,208.23 324.50,208.62 324.36,209.00 324.22,209.38 324.07,209.76 323.91,210.14 323.74,210.52 323.58,210.90 323.40,211.27 323.22,211.65 323.03,212.02 322.84,212.39 322.64,212.76 322.43,213.13 322.22,213.49 322.01,213.86 321.78,214.22 321.55,214.58 321.32,214.94 321.08,215.30 320.83,215.65 320.58,216.00 320.32,216.35 320.06,216.70 319.79,217.05 319.51,217.39 319.23,217.73 318.95,218.07 318.66,218.41 318.36,218.75 318.05,219.08 317.75,219.41 317.43,219.74 317.11,220.06 316.79,220.38 316.45,220.70 316.12,221.02 315.78,221.33 315.43,221.64 315.08,221.95 314.72,222.26 314.36,222.56 313.99,222.86 313.61,223.16 313.23,223.45 312.85,223.74 312.46,224.03 312.07,224.31 311.67,224.59 311.26,224.87 310.85,225.14 310.44,225.42 310.02,225.68 309.59,225.95 309.16,226.21 308.73,226.47 308.29,226.72 307.85,226.97 307.40,227.22 306.95,227.46 306.49,227.70 306.03,227.93 305.56,228.17 305.09,228.39 304.61,228.62 304.13,228.84 303.64,229.05 303.15,229.27 302.66,229.48 302.16,229.68 301.66,229.88 301.15,230.08 300.64,230.27 300.12,230.46 299.61,230.64 299.08,230.82 298.55,231.00 298.02,231.17 297.49,231.34 296.95,231.50 296.40,231.66 295.86,231.81 295.31,231.96 294.75,232.11 294.19,232.25 293.63,232.39 293.06,232.52 292.49,232.65 291.92,232.77 291.35,232.89 290.77,233.00 290.18,233.11 289.60,233.21 289.01,233.31 288.41,233.41 287.82,233.50 287.22,233.58 286.61,233.67 286.01,233.74 285.40,233.81 284.79,233.88 284.17,233.94 283.56,234.00 282.94,234.05 282.31,234.10 281.69,234.14 281.06,234.17 280.43,234.21 279.80,234.23 279.16,234.26 278.52,234.27 277.88,234.28 277.24,234.29 276.59,234.29 275.94,234.29 275.29,234.28 274.64,234.27 273.99,234.25 273.33,234.23 272.67,234.20 272.01,234.16 271.35,234.12 270.68,234.08 270.02,234.03 269.35,233.97 268.68,233.91 268.01,233.85 267.34,233.78 266.66,233.70 265.99,233.62 265.31,233.54 264.63,233.45 263.95,233.35 263.27,233.25 262.59,233.14 261.91,233.03 261.22,232.91 260.54,232.79 259.85,232.66 259.16,232.53 258.47,232.39 257.79,232.24 257.10,232.09 256.40,231.94 255.71,231.78 255.02,231.61 254.33,231.44 253.64,231.27 252.94,231.09 252.25,230.90 251.55,230.71 250.86,230.51 250.16,230.31 249.47,230.10 248.77,229.89 248.08,229.67 247.38,229.45 246.69,229.22 245.99,228.99 245.30,228.75 244.60,228.50 243.91,228.25 243.21,228.00 242.52,227.74 241.82,227.47 241.13,227.20 240.44,226.93 239.75,226.65 239.05,226.36 238.36,226.07 237.67,225.78 236.98,225.47 236.29,225.17 235.61,224.86 234.92,224.54 234.23,224.22 233.55,223.89 232.86,223.56 232.18,223.23 231.50,222.89 230.82,222.54 230.14,222.19 229.46,221.83 228.79,221.47 228.11,221.11 227.44,220.74 226.77,220.36 226.10,219.98 225.43,219.60 224.76,219.21 224.09,218.81 223.43,218.41 222.77,218.01 222.11,217.60 221.45,217.19 220.79,216.77 220.14,216.34 219.49,215.92 218.84,215.49 218.19,215.05 217.55,214.61 216.90,214.16 216.26,213.71 215.62,213.26 214.99,212.80 214.35,212.34 213.72,211.87 213.09,211.40 212.47,210.92 211.85,210.44 211.23,209.96 210.61,209.47 209.99,208.98 209.38,208.48 208.77,207.98 208.16,207.48 207.56,206.97 206.96,206.45 206.36,205.94 205.77,205.42 205.18,204.89 204.59,204.36 204.00,203.83 203.42,203.29 202.84,202.75 202.27,202.21 201.70,201.66 201.13,201.11 200.56,200.56 200.00,200.00 199.44,199.44 198.89,198.87 198.34,198.30 197.79,197.73 197.25,197.16 196.71,196.58 196.17,196.00 195.64,195.41 195.11,194.82 194.58,194.23 194.06,193.64 193.55,193.04 193.03,192.44 192.52,191.84 192.02,191.23 191.52,190.62 191.02,190.01 190.53,189.39 190.04,188.77 189.56,188.15 189.08,187.53 188.60,186.91 188.13,186.28 187.66,185.65 187.20,185.01 186.74,184.38 186.29,183.74 185.84,183.10 185.39,182.45 184.95,181.81 184.51,181.16 184.08,180.51 183.66,179.86 183.23,179.21 182.81,178.55 182.40,177.89 181.99,177.23 181.59,176.57 181.19,175.91 180.79,175.24 180.40,174.57 180.02,173.90 179.64,173.23 179.26,172.56 178.89,171.89 178.53,171.21 178.17,170.54 177.81,169.86 177.46,169.18 177.11,168.50 176.77,167.82 176.44,167.14 176.11,166.45 175.78,165.77 175.46,165.08 175.14,164.39 174.83,163.71 174.53,163.02 174.22,162.33 173.93,161.64 173.64,160.95 173.35,160.25 173.07,159.56 172.80,158.87 172.53,158.18 172.26,157.48 172.00,156.79 171.75,156.09 171.50,155.40 171.25,154.70 171.01,154.01 170.78,153.31 170.55,152.62 170.33,151.92 170.11,151.23 169.90,150.53 169.69,149.84 169.49,149.14 169.29,148.45 169.10,147.75 168.91,147.06 168.73,146.36 168.56,145.67 168.39,144.98 168.22,144.29 168.06,143.60 167.91,142.90 167.76,142.21 167.61,141.53 167.47,140.84 167.34,140.15 167.21,139.46 167.09,138.78 166.97,138.09 166.86,137.41 166.75,136.73 166.65,136.05 166.55,135.37 166.46,134.69 166.38,134.01 166.30,133.34 166.22,132.66 166.15,131.99 166.09,131.32 166.03,130.65 165.97,129.98 165.92,129.32 165.88,128.65 165.84,127.99 165.80,127.33 165.77,126.67 165.75,126.01 165.73,125.36 165.72,124.71 165.71,124.06 165.71,123.41 165.71,122.76 165.72,122.12 165.73,121.48 165.74,120.84 165.77,120.20 165.79,119.57 165.83,118.94 165.86,118.31 165.90,117.69 165.95,117.06 166.00,116.44 166.06,115.83 166.12,115.21 166.19,114.60 166.26,113.99 166.33,113.39 166.42,112.78 166.50,112.18 166.59,111.59 166.69,110.99 166.79,110.40 166.89,109.82 167.00,109.23 167.11,108.65 167.23,108.08 167.35,107.51 167.48,106.94 167.61,106.37 167.75,105.81 167.89,105.25 168.04,104.69 168.19,104.14 168.34,103.60 168.50,103.05 168.66,102.51 168.83,101.98 169.00,101.45 169.18,100.92 169.36,100.39 169.54,99.88 169.73,99.36 169.92,98.85 170.12,98.34 170.32,97.84 170.52,97.34 170.73,96.85 170.95,96.36 171.16,95.87 171.38,95.39 171.61,94.91 171.83,94.44 172.07,93.97 172.30,93.51 172.54,93.05 172.78,92.60 173.03,92.15 173.28,91.71 173.53,91.27 173.79,90.84 174.05,90.41 174.32,89.98 174.58,89.56 174.86,89.15 175.13,88.74 175.41,88.33 175.69,87.93 175.97,87.54 176.26,87.15 176.55,86.77 176.84,86.39 177.14,86.01 177.44,85.64 177.74,85.28 178.05,84.92 178.36,84.57 178.67,84.22 178.98,83.88 179.30,83.55 179.62,83.21 179.94,82.89 180.26,82.57 180.59,82.25 180.92,81.95 181.25,81.64 181.59,81.34 181.93,81.05 182.27,80.77 182.61,80.49 182.95,80.21 183.30,79.94 183.65,79.68 184.00,79.42 184.35,79.17 184.70,78.92 185.06,78.68 185.42,78.45 185.78,78.22 186.14,77.99 186.51,77.78 186.87,77.57 187.24,77.36 187.61,77.16 187.98,76.97 188.35,76.78 188.73,76.60 189.10,76.42 189.48,76.26 189.86,76.09 190.24,75.93 190.62,75.78 191.00,75.64 191.38,75.50 191.77,75.37 192.15,75.24 192.54,75.12 192.92,75.01 193.31,74.90 193.70,74.79 194.09,74.70 194.48,74.61 194.87,74.52 195.26,74.45 195.66,74.38 196.05,74.31 196.44,74.25 196.84,74.20 197.23,74.15 197.63,74.11 198.02,74.08 198.42,74.05 198.81,74.03 199.21,74.01 199.60,74.00 200.00,74.00 200.40,74.00 200.79,74.01 201.19,74.03 201.58,74.05 201.98,74.08 202.37,74.11 202.77,74.15 203.16,74.20 203.56,74.25 203.95,74.31 204.34,74.38 204.74,74.45 205.13,74.52 205.52,74.61 205.91,74.70 206.30,74.79 206.69,74.90 207.08,75.01 207.46,75.12 207.85,75.24 208.23,75.37 208.62,75.50 209.00,75.64 209.38,75.78 209.76,75.93 210.14,76.09 210.52,76.26 210.90,76.42 211.27,76.60 211.65,76.78 212.02,76.97 212.39,77.16 212.76,77.36 213.13,77.57 213.49,77.78 213.86,77.99 214.22,78.22 214.58,78.45 214.94,78.68 215.30,78.92 215.65,79.17 216.00,79.42 216.35,79.68 216.70,79.94 217.05,80.21 217.39,80.49 217.73,80.77 218.07,81.05 218.41,81.34 218.75,81.64 219.08,81.95 219.41,82.25 219.74,82.57 220.06,82.89 220.38,83.21 220.70,83.55 221.02,83.88 221.33,84.22 221.64,84.57 221.95,84.92 222.26,85.28 222.56,85.64 222.86,86.01 223.16,86.39 223.45,86.77 223.74,87.15 224.03,87.54 224.31,87.93 224.59,88.33 224.87,88.74 225.14,89.15 225.42,89.56 225.68,89.98 225.95,90.41 226.21,90.84 226.47,91.27 226.72,91.71 226.97,92.15 227.22,92.60 227.46,93.05 227.70,93.51 227.93,93.97 228.17,94.44 228.39,94.91 228.62,95.39 228.84,95.87 229.05,96.36 229.27,96.85 229.48,97.34 229.68,97.84 229.88,98.34 230.08,98.85 230.27,99.36 230.46,99.88 230.64,100.39 230.82,100.92 231.00,101.45 231.17,101.98 231.34,102.51 231.50,103.05 231.66,103.60 231.81,104.14 231.96,104.69 232.11,105.25 232.25,105.81 232.39,106.37 232.52,106.94 232.65,107.51 232.77,108.08 232.89,108.65 233.00,109.23 233.11,109.82 233.21,110.40 233.31,110.99 233.41,111.59 233.50,112.18 233.58,112.78 233.67,113.39 233.74,113.99 233.81,114.60 233.88,115.21 233.94,115.83 234.00,116.44 234.05,117.06 234.10,117.69 234.14,118.31 234.17,118.94 234.21,119.57 234.23,120.20 234.26,120.84 234.27,121.48 234.28,122.12 234.29,122.76 234.29,123.41 234.29,124.06 234.28,124.71 234.27,125.36 234.25,126.01 234.23,126.67 234.20,127.33 234.16,127.99 234.12,128.65 234.08,129.32 234.03,129.98 233.97,130.65 233.91,131.32 233.85,131.99 233.78,132.66 233.70,133.34 233.62,134.01 233.54,134.69 233.45,135.37 233.35,136.05 233.25,136.73 233.14,137.41 233.03,138.09 232.91,138.78 232.79,139.46 232.66,140.15 232.53,140.84 232.39,141.53 232.24,142.21 232.09,142.90 231.94,143.60 231.78,144.29 231.61,144.98 231.44,145.67 231.27,146.36 231.09,147.06 230.90,147.75 230.71,148.45 230.51,149.14 230.31,149.84 230.10,150.53 229.89,151.23 229.67,151.92 229.45,152.62 229.22,153.31 228.99,154.01 228.75,154.70 228.50,155.40 228.25,156.09 228.00,156.79 227.74,157.48 227.47,158.18 227.20,158.87 226.93,159.56 226.65,160.25 226.36,160.95 226.07,161.64 225.78,162.33 225.47,163.02 225.17,163.71 224.86,164.39 224.54,165.08 224.22,165.77 223.89,166.45 223.56,167.14 223.23,167.82 222.89,168.50 222.54,169.18 222.19,169.86 221.83,170.54 221.47,171.21 221.11,171.89 220.74,172.56 220.36,173.23 219.98,173.90 219.60,174.57 219.21,175.24 218.81,175.91 218.41,176.57 218.01,177.23 217.60,177.89 217.19,178.55 216.77,179.21 216.34,179.86 215.92,180.51 215.49,181.16 215.05,181.81 214.61,182.45 214.16,183.10 213.71,183.74 213.26,184.38 212.80,185.01 212.34,185.65 211.87,186.28 211.40,186.91 210.92,187.53 210.44,188.15 209.96,188.77 209.47,189.39 208.98,190.01 208.48,190.62 207.98,191.23 207.48,191.84 206.97,192.44 206.45,193.04 205.94,193.64 205.42,194.23 204.89,194.82 204.36,195.41 203.83,196.00 203.29,196.58 202.75,197.16 202.21,197.73 201.66,198.30 201.11,198.87 200.56,199.44 200.00,200.00 199.44,200.56 198.87,201.11 198.30,201.66 197.73,202.21 197.16,202.75 196.58,203.29 196.00,203.83 195.41,204.36 194.82,204.89 194.23,205.42 193.64,205.94 193.04,206.45 192.44,206.97 191.84,207.48 191.23,207.98 190.62,208.48 190.01,208.98 189.39,209.47 188.77,209.96 188.15,210.44 187.53,210.92 186.91,211.40 186.28,211.87 185.65,212.34 185.01,212.80 184.38,213.26 183.74,213.71 183.10,214.16 182.45,214.61 181.81,215.05 181.16,215.49 180.51,215.92 179.86,216.34 179.21,216.77 178.55,217.19 177.89,217.60 177.23,218.01 176.57,218.41 175.91,218.81 175.24,219.21 174.57,219.60 173.90,219.98 173.23,220.36 172.56,220.74 171.89,221.11 171.21,221.47 170.54,221.83 169.86,222.19 169.18,222.54 168.50,222.89 167.82,223.23 167.14,223.56 166.45,223.89 165.77,224.22 165.08,224.54 164.39,224.86 163.71,225.17 163.02,225.47 162.33,225.78 161.64,226.07 160.95,226.36 160.25,226.65 159.56,226.93 158.87,227.20 158.18,227.47 157.48,227.74 156.79,228.00 156.09,228.25 155.40,228.50 154.70,228.75 154.01,228.99 153.31,229.22 152.62,229.45 151.92,229.67 151.23,229.89 150.53,230.10 149.84,230.31 149.14,230.51 148.45,230.71 147.75,230.90 147.06,231.09 146.36,231.27 145.67,231.44 144.98,231.61 144.29,231.78 143.60,231.94 142.90,232.09 142.21,232.24 141.53,232.39 140.84,232.53 140.15,232.66 139.46,232.79 138.78,232.91 138.09,233.03 137.41,233.14 136.73,233.25 136.05,233.35 135.37,233.45 134.69,233.54 134.01,233.62 133.34,233.70 132.66,233.78 131.99,233.85 131.32,233.91 130.65,233.97 129.98,234.03 129.32,234.08 128.65,234.12 127.99,234.16 127.33,234.20 126.67,234.23 126.01,234.25 125.36,234.27 124.71,234.28 124.06,234.29 123.41,234.29 122.76,234.29 122.12,234.28 121.48,234.27 120.84,234.26 120.20,234.23 119.57,234.21 118.94,234.17 118.31,234.14 117.69,234.10 117.06,234.05 116.44,234.00 115.83,233.94 115.21,233.88 114.60,233.81 113.99,233.74 113.39,233.67 112.78,233.58 112.18,233.50 111.59,233.41 110.99,233.31 110.40,233.21 109.82,233.11 109.23,233.00 108.65,232.89 108.08,232.77 107.51,232.65 106.94,232.52 106.37,232.39 105.81,232.25 105.25,232.11 104.69,231.96 104.14,231.81 103.60,231.66 103.05,231.50 102.51,231.34 101.98,231.17 101.45,231.00 100.92,230.82 100.39,230.64 99.88,230.46 99.36,230.27 98.85,230.08 98.34,229.88 97.84,229.68 97.34,229.48 96.85,229.27 96.36,229.05 95.87,228.84 95.39,228.62 94.91,228.39 94.44,228.17 93.97,227.93 93.51,227.70 93.05,227.46 92.60,227.22 92.15,226.97 91.71,226.72 91.27,226.47 90.84,226.21 90.41,225.95 89.98,225.68 89.56,225.42 89.15,225.14 88.74,224.87 88.33,224.59 87.93,224.31 87.54,224.03 87.15,223.74 86.77,223.45 86.39,223.16 86.01,222.86 85.64,222.56 85.28,222.26 84.92,221.95 84.57,221.64 84.22,221.33 83.88,221.02 83.55,220.70 83.21,220.38 82.89,220.06 82.57,219.74 82.25,219.41 81.95,219.08 81.64,218.75 81.34,218.41 81.05,218.07 80.77,217.73 80.49,217.39 80.21,217.05 79.94,216.70 79.68,216.35 79.42,216.00 79.17,215.65 78.92,215.30 78.68,214.94 78.45,214.58 78.22,214.22 77.99,213.86 77.78,213.49 77.57,213.13 77.36,212.76 77.16,212.39 76.97,212.02 76.78,211.65 76.60,211.27 76.42,210.90 76.26,210.52 76.09,210.14 75.93,209.76 75.78,209.38 75.64,209.00 75.50,208.62 75.37,208.23 75.24,207.85 75.12,207.46 75.01,207.08 74.90,206.69 74.79,206.30 74.70,205.91 74.61,205.52 74.52,205.13 74.45,204.74 74.38,204.34 74.31,203.95 74.25,203.56 74.20,203.16 74.15,202.77 74.11,202.37 74.08,201.98 74.05,201.58 74.03,201.19 74.01,200.79 74.00,200.40 74.00,200.00 74.00,199.60 74.01,199.21 74.03,198.81 74.05,198.42 74.08,198.02 74.11,197.63 74.15,197.23 74.20,196.84 74.25,196.44 74.31,196.05 74.38,195.66 74.45,195.26 74.52,194.87 74.61,194.48 74.70,194.09 74.79,193.70 74.90,193.31 75.01,192.92 75.12,192.54 75.24,192.15 75.37,191.77 75.50,191.38 75.64,191.00 75.78,190.62 75.93,190.24 76.09,189.86 76.26,189.48 76.42,189.10 76.60,188.73 76.78,188.35 76.97,187.98 77.16,187.61 77.36,187.24 77.57,186.87 77.78,186.51 77.99,186.14 78.22,185.78 78.45,185.42 78.68,185.06 78.92,184.70 79.17,184.35 79.42,184.00 79.68,183.65 79.94,183.30 80.21,182.95 80.49,182.61 80.77,182.27 81.05,181.93 81.34,181.59 81.64,181.25 81.95,180.92 82.25,180.59 82.57,180.26 82.89,179.94 83.21,179.62 83.55,179.30 83.88,178.98 84.22,178.67 84.57,178.36 84.92,178.05 85.28,177.74 85.64,177.44 86.01,177.14 86.39,176.84 86.77,176.55 87.15,176.26 87.54,175.97 87.93,175.69 88.33,175.41 88.74,175.13 89.15,174.86 89.56,174.58 89.98,174.32 90.41,174.05 90.84,173.79 91.27,173.53 91.71,173.28 92.15,173.03 92.60,172.78 93.05,172.54 93.51,172.30 93.97,172.07 94.44,171.83 94.91,171.61 95.39,171.38 95.87,171.16 96.36,170.95 96.85,170.73 97.34,170.52 97.84,170.32 98.34,170.12 98.85,169.92 99.36,169.73 99.88,169.54 100.39,169.36 100.92,169.18 101.45,169.00 101.98,168.83 102.51,168.66 103.05,168.50 103.60,168.34 104.14,168.19 104.69,168.04 105.25,167.89 105.81,167.75 106.37,167.61 106.94,167.48 107.51,167.35 108.08,167.23 108.65,167.11 109.23,167.00 109.82,166.89 110.40,166.79 110.99,166.69 111.59,166.59 112.18,166.50 112.78,166.42 113.39,166.33 113.99,166.26 114.60,166.19 115.21,166.12 115.83,166.06 116.44,166.00 117.06,165.95 117.69,165.90 118.31,165.86 118.94,165.83 119.57,165.79 120.20,165.77 120.84,165.74 121.48,165.73 122.12,165.72 122.76,165.71 123.41,165.71 124.06,165.71 124.71,165.72 125.36,165.73 126.01,165.75 126.67,165.77 127.33,165.80 127.99,165.84 128.65,165.88 129.32,165.92 129.98,165.97 130.65,166.03 131.32,166.09 131.99,166.15 132.66,166.22 133.34,166.30 134.01,166.38 134.69,166.46 135.37,166.55 136.05,166.65 136.73,166.75 137.41,166.86 138.09,166.97 138.78,167.09 139.46,167.21 140.15,167.34 140.84,167.47 141.53,167.61 142.21,167.76 142.90,167.91 143.60,168.06 144.29,168.22 144.98,168.39 145.67,168.56 146.36,168.73 147.06,168.91 147.75,169.10 148.45,169.29 149.14,169.49 149.84,169.69 150.53,169.90 151.23,170.11 151.92,170.33 152.62,170.55 153.31,170.78 154.01,171.01 154.70,171.25 155.40,171.50 156.09,171.75 156.79,172.00 157.48,172.26 158.18,172.53 158.87,172.80 159.56,173.07 160.25,173.35 160.95,173.64 161.64,173.93 162.33,174.22 163.02,174.53 163.71,174.83 164.39,175.14 165.08,175.46 165.77,175.78 166.45,176.11 167.14,176.44 167.82,176.77 168.50,177.11 169.18,177.46 169.86,177.81 170.54,178.17 171.21,178.53 171.89,178.89 172.56,179.26 173.23,179.64 173.90,180.02 174.57,180.40 175.24,180.79 175.91,181.19 176.57,181.59 177.23,181.99 177.89,182.40 178.55,182.81 179.21,183.23 179.86,183.66 180.51,184.08 181.16,184.51 181.81,184.95 182.45,185.39 183.10,185.84 183.74,186.29 184.38,186.74 185.01,187.20 185.65,187.66 186.28,188.13 186.91,188.60 187.53,189.08 188.15,189.56 188.77,190.04 189.39,190.53 190.01,191.02 190.62,191.52 191.23,192.02 191.84,192.52 192.44,193.03 193.04,193.55 193.64,194.06 194.23,194.58 194.82,195.11 195.41,195.64 196.00,196.17 196.58,196.71 197.16,197.25 197.73,197.79 198.30,198.34 198.87,198.89 199.44,199.44 200.00,200.00 200.56,200.56 201.11,201.13 201.66,201.70 202.21,202.27 202.75,202.84 203.29,203.42 203.83,204.00 204.36,204.59 204.89,205.18 205.42,205.77 205.94,206.36 206.45,206.96 206.97,207.56 207.48,208.16 207.98,208.77 208.48,209.38 208.98,209.99 209.47,210.61 209.96,211.23 210.44,211.85 210.92,212.47 211.40,213.09 211.87,213.72 212.34,214.35 212.80,214.99 213.26,215.62 213.71,216.26 214.16,216.90 214.61,217.55 215.05,218.19 215.49,218.84 215.92,219.49 216.34,220.14 216.77,220.79 217.19,221.45 217.60,222.11 218.01,222.77 218.41,223.43 218.81,224.09 219.21,224.76 219.60,225.43 219.98,226.10 220.36,226.77 220.74,227.44 221.11,228.11 221.47,228.79 221.83,229.46 222.19,230.14 222.54,230.82 222.89,231.50 223.23,232.18 223.56,232.86 223.89,233.55 224.22,234.23 224.54,234.92 224.86,235.61 225.17,236.29 225.47,236.98 225.78,237.67 226.07,238.36 226.36,239.05 226.65,239.75 226.93,240.44 227.20,241.13 227.47,241.82 227.74,242.52 228.00,243.21 228.25,243.91 228.50,244.60 228.75,245.30 228.99,245.99 229.22,246.69 229.45,247.38 229.67,248.08 229.89,248.77 230.10,249.47 230.31,250.16 230.51,250.86 230.71,251.55 230.90,252.25 231.09,252.94 231.27,253.64 231.44,254.33 231.61,255.02 231.78,255.71 231.94,256.40 232.09,257.10 232.24,257.79 232.39,258.47 232.53,259.16 232.66,259.85 232.79,260.54 232.91,261.22 233.03,261.91 233.14,262.59 233.25,263.27 233.35,263.95 233.45,264.63 233.54,265.31 233.62,265.99 233.70,266.66 233.78,267.34 233.85,268.01 233.91,268.68 233.97,269.35 234.03,270.02 234.08,270.68 234.12,271.35 234.16,272.01 234.20,272.67 234.23,273.33 234.25,273.99 234.27,274.64 234.28,275.29 234.29,275.94 234.29,276.59 234.29,277.24 234.28,277.88 234.27,278.52 234.26,279.16 234.23,279.80 234.21,280.43 234.17,281.06 234.14,281.69 234.10,282.31 234.05,282.94 234.00,283.56 233.94,284.17 233.88,284.79 233.81,285.40 233.74,286.01 233.67,286.61 233.58,287.22 233.50,287.82 233.41,288.41 233.31,289.01 233.21,289.60 233.11,290.18 233.00,290.77 232.89,291.35 232.77,291.92 232.65,292.49 232.52,293.06 232.39,293.63 232.25,294.19 232.11,294.75 231.96,295.31 231.81,295.86 231.66,296.40 231.50,296.95 231.34,297.49 231.17,298.02 231.00,298.55 230.82,299.08 230.64,299.61 230.46,300.12 230.27,300.64 230.08,301.15 229.88,301.66 229.68,302.16 229.48,302.66 229.27,303.15 229.05,303.64 228.84,304.13 228.62,304.61 228.39,305.09 228.17,305.56 227.93,306.03 227.70,306.49 227.46,306.95 227.22,307.40 226.97,307.85 226.72,308.29 226.47,308.73 226.21,309.16 225.95,309.59 225.68,310.02 225.42,310.44 225.14,310.85 224.87,311.26 224.59,311.67 224.31,312.07 224.03,312.46 223.74,312.85 223.45,313.23 223.16,313.61 222.86,313.99 222.56,314.36 222.26,314.72 221.95,315.08 221.64,315.43 221.33,315.78 221.02,316.12 220.70,316.45 220.38,316.79 220.06,317.11 219.74,317.43 219.41,317.75 219.08,318.05 218.75,318.36 218.41,318.66 218.07,318.95 217.73,319.23 217.39,319.51 217.05,319.79 216.70,320.06 216.35,320.32 216.00,320.58 215.65,320.83 215.30,321.08 214.94,321.32 214.58,321.55 214.22,321.78 213.86,322.01 213.49,322.22 213.13,322.43 212.76,322.64 212.39,322.84 212.02,323.03 211.65,323.22 211.27,323.40 210.90,323.58 210.52,323.74 210.14,323.91 209.76,324.07 209.38,324.22 209.00,324.36 208.62,324.50 208.23,324.63 207.85,324.76 207.46,324.88 207.08,324.99 206.69,325.10 206.30,325.21 205.91,325.30 205.52,325.39 205.13,325.48 204.74,325.55 204.34,325.62 203.95,325.69 203.56,325.75 203.16,325.80 202.77,325.85 202.37,325.89 201.98,325.92 201.58,325.95 201.19,325.97 200.79,325.99 200.40,326.00 200.00,326.00 199.60,326.00 199.21,325.99 198.81,325.97 198.42,325.95 198.02,325.92 197.63,325.89 197.23,325.85 196.84,325.80 196.44,325.75 196.05,325.69 195.66,325.62 195.26,325.55 194.87,325.48 194.48,325.39 194.09,325.30 193.70,325.21 193.31,325.10 192.92,324.99 192.54,324.88 192.15,324.76 191.77,324.63 191.38,324.50 191.00,324.36 190.62,324.22 190.24,324.07 189.86,323.91 189.48,323.74 189.10,323.58 188.73,323.40 188.35,323.22 187.98,323.03 187.61,322.84 187.24,322.64 186.87,322.43 186.51,322.22 186.14,322.01 185.78,321.78 185.42,321.55 185.06,321.32 184.70,321.08 184.35,320.83 184.00,320.58 183.65,320.32 183.30,320.06 182.95,319.79 182.61,319.51 182.27,319.23 181.93,318.95 181.59,318.66 181.25,318.36 180.92,318.05 180.59,317.75 180.26,317.43 179.94,317.11 179.62,316.79 179.30,316.45 178.98,316.12 178.67,315.78 178.36,315.43 178.05,315.08 177.74,314.72 177.44,314.36 177.14,313.99 176.84,313.61 176.55,313.23 176.26,312.85 175.97,312.46 175.69,312.07 175.41,311.67 175.13,311.26 174.86,310.85 174.58,310.44 174.32,310.02 174.05,309.59 173.79,309.16 173.53,308.73 173.28,308.29 173.03,307.85 172.78,307.40 172.54,306.95 172.30,306.49 172.07,306.03 171.83,305.56 171.61,305.09 171.38,304.61 171.16,304.13 170.95,303.64 170.73,303.15 170.52,302.66 170.32,302.16 170.12,301.66 169.92,301.15 169.73,300.64 169.54,300.12 169.36,299.61 169.18,299.08 169.00,298.55 168.83,298.02 168.66,297.49 168.50,296.95 168.34,296.40 168.19,295.86 168.04,295.31 167.89,294.75 167.75,294.19 167.61,293.63 167.48,293.06 167.35,292.49 167.23,291.92 167.11,291.35 167.00,290.77 166.89,290.18 166.79,289.60 166.69,289.01 166.59,288.41 166.50,287.82 166.42,287.22 166.33,286.61 166.26,286.01 166.19,285.40 166.12,284.79 166.06,284.17 166.00,283.56 165.95,282.94 165.90,282.31 165.86,281.69 165.83,281.06 165.79,280.43 165.77,279.80 165.74,279.16 165.73,278.52 165.72,277.88 165.71,277.24 165.71,276.59 165.71,275.94 165.72,275.29 165.73,274.64 165.75,273.99 165.77,273.33 165.80,272.67 165.84,272.01 165.88,271.35 165.92,270.68 165.97,270.02 166.03,269.35 166.09,268.68 166.15,268.01 166.22,267.34 166.30,266.66 166.38,265.99 166.46,265.31 166.55,264.63 166.65,263.95 166.75,263.27 166.86,262.59 166.97,261.91 167.09,261.22 167.21,260.54 167.34,259.85 167.47,259.16 167.61,258.47 167.76,257.79 167.91,257.10 168.06,256.40 168.22,255.71 168.39,255.02 168.56,254.33 168.73,253.64 168.91,252.94 169.10,252.25 169.29,251.55 169.49,250.86 169.69,250.16 169.90,249.47 170.11,248.77 170.33,248.08 170.55,247.38 170.78,246.69 171.01,245.99 171.25,245.30 171.50,244.60 171.75,243.91 172.00,243.21 172.26,242.52 172.53,241.82 172.80,241.13 173.07,240.44 173.35,239.75 173.64,239.05 173.93,238.36 174.22,237.67 174.53,236.98 174.83,236.29 175.14,235.61 175.46,234.92 175.78,234.23 176.11,233.55 176.44,232.86 176.77,232.18 177.11,231.50 177.46,230.82 177.81,230.14 178.17,229.46 178.53,228.79 178.89,228.11 179.26,227.44 179.64,226.77 180.02,226.10 180.40,225.43 180.79,224.76 181.19,224.09 181.59,223.43 181.99,222.77 182.40,222.11 182.81,221.45 183.23,220.79 183.66,220.14 184.08,219.49 184.51,218.84 184.95,218.19 185.39,217.55 185.84,216.90 186.29,216.26 186.74,215.62 187.20,214.99 187.66,214.35 188.13,213.72 188.60,213.09 189.08,212.47 189.56,211.85 190.04,211.23 190.53,210.61 191.02,209.99 191.52,209.38 192.02,208.77 192.52,208.16 193.03,207.56 193.55,206.96 194.06,206.36 194.58,205.77 195.11,205.18 195.64,204.59 196.17,204.00 196.71,203.42 197.25,202.84 197.79,202.27 198.34,201.70 198.89,201.13 199.44,200.56 200.00,200.00 200.56,199.44 201.13,198.89 201.70,198.34 202.27,197.79 202.84,197.25 203.42,196.71 204.00,196.17 204.59,195.64 205.18,195.11 205.77,194.58 206.36,194.06 206.96,193.55 207.56,193.03 208.16,192.52 208.77,192.02 209.38,191.52 209.99,191.02 210.61,190.53 211.23,190.04 211.85,189.56 212.47,189.08 213.09,188.60 213.72,188.13 214.35,187.66 214.99,187.20 215.62,186.74 216.26,186.29 216.90,185.84 217.55,185.39 218.19,184.95 218.84,184.51 219.49,184.08 220.14,183.66 220.79,183.23 221.45,182.81 222.11,182.40 222.77,181.99 223.43,181.59 224.09,181.19 224.76,180.79 225.43,180.40 226.10,180.02 226.77,179.64 227.44,179.26 228.11,178.89 228.79,178.53 229.46,178.17 230.14,177.81 230.82,177.46 231.50,177.11 232.18,176.77 232.86,176.44 233.55,176.11 234.23,175.78 234.92,175.46 235.61,175.14 236.29,174.83 236.98,174.53 237.67,174.22 238.36,173.93 239.05,173.64 239.75,173.35 240.44,173.07 241.13,172.80 241.82,172.53 242.52,172.26 243.21,172.00 243.91,171.75 244.60,171.50 245.30,171.25 245.99,171.01 246.69,170.78 247.38,170.55 248.08,170.33 248.77,170.11 249.47,169.90 250.16,169.69 250.86,169.49 251.55,169.29 252.25,169.10 252.94,168.91 253.64,168.73 254.33,168.56 255.02,168.39 255.71,168.22 256.40,168.06 257.10,167.91 257.79,167.76 258.47,167.61 259.16,167.47 259.85,167.34 260.54,167.21 261.22,167.09 261.91,166.97 262.59,166.86 263.27,166.75 263.95,166.65 264.63,166.55 265.31,166.46 265.99,166.38 266.66,166.30 267.34,166.22 268.01,166.15 268.68,166.09 269.35,166.03 270.02,165.97 270.68,165.92 271.35,165.88 272.01,165.84 272.67,165.80 273.33,165.77 273.99,165.75 274.64,165.73 275.29,165.72 275.94,165.71 276.59,165.71 277.24,165.71 277.88,165.72 278.52,165.73 279.16,165.74 279.80,165.77 280.43,165.79 281.06,165.83 281.69,165.86 282.31,165.90 282.94,165.95 283.56,166.00 284.17,166.06 284.79,166.12 285.40,166.19 286.01,166.26 286.61,166.33 287.22,166.42 287.82,166.50 288.41,166.59 289.01,166.69 289.60,166.79 290.18,166.89 290.77,167.00 291.35,167.11 291.92,167.23 292.49,167.35 293.06,167.48 293.63,167.61 294.19,167.75 294.75,167.89 295.31,168.04 295.86,168.19 296.40,168.34 296.95,168.50 297.49,168.66 298.02,168.83 298.55,169.00 299.08,169.18 299.61,169.36 300.12,169.54 300.64,169.73 301.15,169.92 301.66,170.12 302.16,170.32 302.66,170.52 303.15,170.73 303.64,170.95 304.13,171.16 304.61,171.38 305.09,171.61 305.56,171.83 306.03,172.07 306.49,172.30 306.95,172.54 307.40,172.78 307.85,173.03 308.29,173.28 308.73,173.53 309.16,173.79 309.59,174.05 310.02,174.32 310.44,174.58 310.85,174.86 311.26,175.13 311.67,175.41 312.07,175.69 312.46,175.97 312.85,176.26 313.23,176.55 313.61,176.84 313.99,177.14 314.36,177.44 314.72,177.74 315.08,178.05 315.43,178.36 315.78,178.67 316.12,178.98 316.45,179.30 316.79,179.62 317.11,179.94 317.43,180.26 317.75,180.59 318.05,180.92 318.36,181.25 318.66,181.59 318.95,181.93 319.23,182.27 319.51,182.61 319.79,182.95 320.06,183.30 320.32,183.65 320.58,184.00 320.83,184.35 321.08,184.70 321.32,185.06 321.55,185.42 321.78,185.78 322.01,186.14 322.22,186.51 322.43,186.87 322.64,187.24 322.84,187.61 323.03,187.98 323.22,188.35 323.40,188.73 323.58,189.10 323.74,189.48 323.91,189.86 324.07,190.24 324.22,190.62 324.36,191.00 324.50,191.38 324.63,191.77 324.76,192.15 324.88,192.54 324.99,192.92 325.10,193.31 325.21,193.70 325.30,194.09 325.39,194.48 325.48,194.87 325.55,195.26 325.62,195.66 325.69,196.05 325.75,196.44 325.80,196.84 325.85,197.23 325.89,197.63 325.92,198.02 325.95,198.42 325.97,198.81 325.99,199.21 326.00,199.60 326.00,200.00" fill="none" stroke="#d4a84b" stroke-width="0.7" opacity="0.4"/>
  <polyline points="277.00,200.00 276.99,200.48 276.96,200.97 276.90,201.45 276.82,201.93 276.72,202.41 276.60,202.89 276.46,203.37 276.30,203.84 276.11,204.31 275.90,204.78 275.67,205.24 275.42,205.70 275.15,206.15 274.86,206.60 274.54,207.05 274.20,207.49 273.85,207.92 273.47,208.34 273.07,208.77 272.65,209.18 272.22,209.58 271.76,209.98 271.28,210.37 270.78,210.76 270.26,211.13 269.73,211.49 269.17,211.85 268.60,212.19 268.00,212.53 267.39,212.86 266.76,213.17 266.12,213.48 265.45,213.77 264.77,214.05 264.07,214.32 263.36,214.58 262.63,214.83 261.88,215.06 261.12,215.28 260.34,215.49 259.54,215.69 258.74,215.87 257.91,216.04 257.08,216.19 256.23,216.34 255.36,216.46 254.49,216.57 253.60,216.67 252.70,216.76 251.78,216.83 250.86,216.88 249.92,216.92 248.98,216.94 248.02,216.95 247.05,216.94 246.07,216.92 245.09,216.88 244.09,216.82 243.09,216.75 242.08,216.66 241.06,216.56 240.04,216.44 239.01,216.30 237.97,216.15 236.92,215.98 235.87,215.79 234.82,215.59 233.76,215.37 232.70,215.14 231.63,214.88 230.56,214.62 229.49,214.33 228.41,214.03 227.33,213.71 226.25,213.38 225.17,213.03 224.09,212.66 223.01,212.28 221.93,211.88 220.85,211.46 219.77,211.03 218.69,210.58 217.62,210.12 216.54,209.64 215.47,209.15 214.40,208.64 213.34,208.12 212.28,207.58 211.22,207.02 210.17,206.45 209.12,205.87 208.08,205.27 207.05,204.66 206.02,204.04 205.00,203.40 203.98,202.74 202.97,202.08 201.97,201.40 200.98,200.70 200.00,200.00 199.03,199.28 198.06,198.55 197.11,197.81 196.16,197.06 195.23,196.30 194.30,195.52 193.39,194.74 192.49,193.94 191.60,193.14 190.72,192.32 189.85,191.50 189.00,190.66 188.16,189.82 187.33,188.97 186.52,188.11 185.72,187.25 184.93,186.37 184.16,185.49 183.40,184.61 182.65,183.71 181.93,182.81 181.21,181.91 180.51,181.00 179.83,180.08 179.16,179.16 178.51,178.24 177.88,177.31 177.26,176.38 176.66,175.45 176.07,174.52 175.50,173.58 174.95,172.64 174.41,171.70 173.89,170.76 173.39,169.82 172.91,168.88 172.44,167.94 172.00,167.00 171.56,166.06 171.15,165.13 170.75,164.19 170.38,163.26 170.02,162.33 169.67,161.41 169.35,160.49 169.04,159.57 168.76,158.66 168.48,157.75 168.23,156.85 168.00,155.95 167.78,155.06 167.58,154.18 167.40,153.30 167.24,152.43 167.09,151.57 166.96,150.72 166.85,149.88 166.76,149.04 166.68,148.22 166.62,147.40 166.58,146.60 166.55,145.80 166.55,145.02 166.55,144.25 166.58,143.49 166.62,142.74 166.68,142.01 166.75,141.28 166.84,140.57 166.95,139.88 167.07,139.20 167.21,138.53 167.36,137.88 167.52,137.24 167.70,136.61 167.90,136.01 168.11,135.42 168.33,134.84 168.57,134.28 168.82,133.74 169.08,133.21 169.36,132.70 169.65,132.21 169.95,131.74 170.26,131.29 170.59,130.85 170.93,130.43 171.27,130.03 171.63,129.65 172.00,129.29 172.38,128.95 172.77,128.62 173.17,128.32 173.58,128.04 174.00,127.78 174.42,127.53 174.86,127.31 175.30,127.11 175.75,126.93 176.21,126.77 176.67,126.63 177.14,126.51 177.62,126.41 178.10,126.34 178.58,126.29 179.08,126.25 179.57,126.24 180.07,126.25 180.58,126.28 181.09,126.34 181.60,126.41 182.11,126.51 182.63,126.63 183.15,126.77 183.67,126.93 184.19,127.11 184.71,127.32 185.23,127.55 185.76,127.80 186.28,128.07 186.80,128.36 187.32,128.67 187.84,129.00 188.36,129.36 188.87,129.74 189.38,130.13 189.89,130.55 190.40,130.99 190.90,131.45 191.40,131.93 191.90,132.43 192.38,132.96 192.87,133.50 193.35,134.06 193.82,134.64 194.29,135.24 194.75,135.86 195.20,136.50 195.65,137.15 196.09,137.83 196.52,138.52 196.94,139.23 197.36,139.96 197.76,140.71 198.16,141.48 198.55,142.26 198.93,143.06 199.29,143.87 199.65,144.71 200.00,145.55 200.34,146.42 200.66,147.29 200.98,148.19 201.28,149.10 201.57,150.02 201.85,150.95 202.12,151.90 202.37,152.87 202.61,153.84 202.84,154.83 203.06,155.83 203.26,156.84 203.45,157.87 203.62,158.90 203.79,159.95 203.93,161.00 204.07,162.07 204.19,163.14 204.29,164.23 204.38,165.32 204.46,166.42 204.52,167.53 204.56,168.64 204.59,169.77 204.61,170.90 204.61,172.03 204.60,173.17 204.57,174.32 204.52,175.47 204.46,176.63 204.38,177.79 204.29,178.95 204.18,180.12 204.06,181.29 203.92,182.46 203.77,183.63 203.60,184.81 203.41,185.98 203.21,187.16 203.00,188.33 202.76,189.51 202.52,190.68 202.26,191.86 201.98,193.03 201.69,194.20 201.38,195.37 201.06,196.53 200.72,197.69 200.37,198.85 200.00,200.00 199.62,201.15 199.22,202.29 198.81,203.43 198.39,204.56 197.95,205.68 197.50,206.80 197.04,207.91 196.56,209.02 196.07,210.11 195.57,211.20 195.05,212.28 194.52,213.35 193.98,214.41 193.43,215.46 192.86,216.50 192.28,217.53 191.70,218.54 191.10,219.55 190.49,220.55 189.87,221.53 189.24,222.50 188.60,223.46 187.95,224.40 187.29,225.34 186.62,226.25 185.95,227.16 185.26,228.05 184.57,228.93 183.87,229.79 183.16,230.63 182.44,231.46 181.72,232.28 180.99,233.08 180.26,233.86 179.52,234.63 178.77,235.38 178.02,236.11 177.27,236.83 176.51,237.53 175.75,238.21 174.98,238.88 174.21,239.53 173.44,240.16 172.67,240.77 171.89,241.36 171.11,241.94 170.34,242.49 169.56,243.03 168.78,243.55 168.00,244.05 167.22,244.53 166.44,244.99 165.66,245.44 164.89,245.86 164.11,246.26 163.34,246.65 162.57,247.02 161.81,247.36 161.05,247.69 160.29,248.00 159.54,248.29 158.79,248.56 158.05,248.81 157.31,249.04 156.58,249.25 155.86,249.44 155.14,249.61 154.43,249.76 153.73,249.90 153.03,250.01 152.35,250.11 151.67,250.19 151.00,250.24 150.35,250.28 149.70,250.30 149.06,250.30 148.43,250.29 147.82,250.25 147.21,250.20 146.62,250.13 146.04,250.04 145.47,249.94 144.91,249.81 144.37,249.67 143.84,249.51 143.32,249.34 142.82,249.15 142.33,248.94 141.86,248.72 141.40,248.48 140.96,248.22 140.53,247.95 140.12,247.67 139.72,247.36 139.35,247.05 138.98,246.72 138.64,246.37 138.31,246.02 138.00,245.64 137.71,245.26 137.43,244.86 137.17,244.45 136.93,244.03 136.71,243.59 136.51,243.15 136.33,242.69 136.16,242.22 136.02,241.74 135.89,241.25 135.79,240.75 135.70,240.24 135.63,239.72 135.59,239.19 135.56,238.66 135.55,238.11 135.57,237.56 135.60,237.00 135.66,236.43 135.73,235.86 135.83,235.28 135.94,234.69 136.08,234.10 136.24,233.50 136.42,232.90 136.61,232.30 136.83,231.69 137.08,231.07 137.34,230.45 137.62,229.83 137.92,229.21 138.25,228.59 138.59,227.96 138.95,227.33 139.34,226.70 139.75,226.07 140.17,225.44 140.62,224.82 141.09,224.19 141.57,223.56 142.08,222.93 142.61,222.31 143.15,221.68 143.72,221.06 144.31,220.45 144.91,219.83 145.53,219.22 146.18,218.62 146.84,218.01 147.52,217.42 148.22,216.83 148.93,216.24 149.67,215.66 150.42,215.08 151.19,214.51 151.98,213.95 152.78,213.40 153.60,212.85 154.44,212.31 155.29,211.78 156.16,211.26 157.05,210.74 157.95,210.24 158.86,209.74 159.79,209.25 160.74,208.78 161.69,208.31 162.67,207.85 163.65,207.41 164.65,206.97 165.66,206.55 166.69,206.14 167.72,205.74 168.77,205.35 169.83,204.97 170.90,204.61 171.98,204.26 173.07,203.92 174.17,203.59 175.28,203.28 176.39,202.98 177.52,202.70 178.65,202.42 179.80,202.17 180.95,201.92 182.10,201.69 183.27,201.48 184.44,201.27 185.61,201.09 186.79,200.91 187.98,200.76 189.17,200.61 190.36,200.48 191.56,200.37 192.76,200.27 193.96,200.19 195.17,200.12 196.37,200.07 197.58,200.03 198.79,200.01 200.00,200.00 201.21,200.01 202.42,200.03 203.63,200.07 204.83,200.12 206.04,200.19 207.24,200.27 208.44,200.37 209.64,200.48 210.83,200.61 212.02,200.76 213.21,200.91 214.39,201.09 215.56,201.27 216.73,201.48 217.90,201.69 219.05,201.92 220.20,202.17 221.35,202.42 222.48,202.70 223.61,202.98 224.72,203.28 225.83,203.59 226.93,203.92 228.02,204.26 229.10,204.61 230.17,204.97 231.23,205.35 232.28,205.74 233.31,206.14 234.34,206.55 235.35,206.97 236.35,207.41 237.33,207.85 238.31,208.31 239.26,208.78 240.21,209.25 241.14,209.74 242.05,210.24 242.95,210.74 243.84,211.26 244.71,211.78 245.56,212.31 246.40,212.85 247.22,213.40 248.02,213.95 248.81,214.51 249.58,215.08 250.33,215.66 251.07,216.24 251.78,216.83 252.48,217.42 253.16,218.01 253.82,218.62 254.47,219.22 255.09,219.83 255.69,220.45 256.28,221.06 256.85,221.68 257.39,222.31 257.92,222.93 258.43,223.56 258.91,224.19 259.38,224.82 259.83,225.44 260.25,226.07 260.66,226.70 261.05,227.33 261.41,227.96 261.75,228.59 262.08,229.21 262.38,229.83 262.66,230.45 262.92,231.07 263.17,231.69 263.39,232.30 263.58,232.90 263.76,233.50 263.92,234.10 264.06,234.69 264.17,235.28 264.27,235.86 264.34,236.43 264.40,237.00 264.43,237.56 264.45,238.11 264.44,238.66 264.41,239.19 264.37,239.72 264.30,240.24 264.21,240.75 264.11,241.25 263.98,241.74 263.84,242.22 263.67,242.69 263.49,243.15 263.29,243.59 263.07,244.03 262.83,244.45 262.57,244.86 262.29,245.26 262.00,245.64 261.69,246.02 261.36,246.37 261.02,246.72 260.65,247.05 260.28,247.36 259.88,247.67 259.47,247.95 259.04,248.22 258.60,248.48 258.14,248.72 257.67,248.94 257.18,249.15 256.68,249.34 256.16,249.51 255.63,249.67 255.09,249.81 254.53,249.94 253.96,250.04 253.38,250.13 252.79,250.20 252.18,250.25 251.57,250.29 250.94,250.30 250.30,250.30 249.65,250.28 249.00,250.24 248.33,250.19 247.65,250.11 246.97,250.01 246.27,249.90 245.57,249.76 244.86,249.61 244.14,249.44 243.42,249.25 242.69,249.04 241.95,248.81 241.21,248.56 240.46,248.29 239.71,248.00 238.95,247.69 238.19,247.36 237.43,247.02 236.66,246.65 235.89,246.26 235.11,245.86 234.34,245.44 233.56,244.99 232.78,244.53 232.00,244.05 231.22,243.55 230.44,243.03 229.66,242.49 228.89,241.94 228.11,241.36 227.33,240.77 226.56,240.16 225.79,239.53 225.02,238.88 224.25,238.21 223.49,237.53 222.73,236.83 221.98,236.11 221.23,235.38 220.48,234.63 219.74,233.86 219.01,233.08 218.28,232.28 217.56,231.46 216.84,230.63 216.13,229.79 215.43,228.93 214.74,228.05 214.05,227.16 213.38,226.25 212.71,225.34 212.05,224.40 211.40,223.46 210.76,222.50 210.13,221.53 209.51,220.55 208.90,219.55 208.30,218.54 207.72,217.53 207.14,216.50 206.57,215.46 206.02,214.41 205.48,213.35 204.95,212.28 204.43,211.20 203.93,210.11 203.44,209.02 202.96,207.91 202.50,206.80 202.05,205.68 201.61,204.56 201.19,203.43 200.78,202.29 200.38,201.15 200.00,200.00 199.63,198.85 199.28,197.69 198.94,196.53 198.62,195.37 198.31,194.20 198.02,193.03 197.74,191.86 197.48,190.68 197.24,189.51 197.00,188.33 196.79,187.16 196.59,185.98 196.40,184.81 196.23,183.63 196.08,182.46 195.94,181.29 195.82,180.12 195.71,178.95 195.62,177.79 195.54,176.63 195.48,175.47 195.43,174.32 195.40,173.17 195.39,172.03 195.39,170.90 195.41,169.77 195.44,168.64 195.48,167.53 195.54,166.42 195.62,165.32 195.71,164.23 195.81,163.14 195.93,162.07 196.07,161.00 196.21,159.95 196.38,158.90 196.55,157.87 196.74,156.84 196.94,155.83 197.16,154.83 197.39,153.84 197.63,152.87 197.88,151.90 198.15,150.95 198.43,150.02 198.72,149.10 199.02,148.19 199.34,147.29 199.66,146.42 200.00,145.55 200.35,144.71 200.71,143.87 201.07,143.06 201.45,142.26 201.84,141.48 202.24,140.71 202.64,139.96 203.06,139.23 203.48,138.52 203.91,137.83 204.35,137.15 204.80,136.50 205.25,135.86 205.71,135.24 206.18,134.64 206.65,134.06 207.13,133.50 207.62,132.96 208.10,132.43 208.60,131.93 209.10,131.45 209.60,130.99 210.11,130.55 210.62,130.13 211.13,129.74 211.64,129.36 212.16,129.00 212.68,128.67 213.20,128.36 213.72,128.07 214.24,127.80 214.77,127.55 215.29,127.32 215.81,127.11 216.33,126.93 216.85,126.77 217.37,126.63 217.89,126.51 218.40,126.41 218.91,126.34 219.42,126.28 219.93,126.25 220.43,126.24 220.92,126.25 221.42,126.29 221.90,126.34 222.38,126.41 222.86,126.51 223.33,126.63 223.79,126.77 224.25,126.93 224.70,127.11 225.14,127.31 225.58,127.53 226.00,127.78 226.42,128.04 226.83,128.32 227.23,128.62 227.62,128.95 228.00,129.29 228.37,129.65 228.73,130.03 229.07,130.43 229.41,130.85 229.74,131.29 230.05,131.74 230.35,132.21 230.64,132.70 230.92,133.21 231.18,133.74 231.43,134.28 231.67,134.84 231.89,135.42 232.10,136.01 232.30,136.61 232.48,137.24 232.64,137.88 232.79,138.53 232.93,139.20 233.05,139.88 233.16,140.57 233.25,141.28 233.32,142.01 233.38,142.74 233.42,143.49 233.45,144.25 233.45,145.02 233.45,145.80 233.42,146.60 233.38,147.40 233.32,148.22 233.24,149.04 233.15,149.88 233.04,150.72 232.91,151.57 232.76,152.43 232.60,153.30 232.42,154.18 232.22,155.06 232.00,155.95 231.77,156.85 231.52,157.75 231.24,158.66 230.96,159.57 230.65,160.49 230.33,161.41 229.98,162.33 229.62,163.26 229.25,164.19 228.85,165.13 228.44,166.06 228.00,167.00 227.56,167.94 227.09,168.88 226.61,169.82 226.11,170.76 225.59,171.70 225.05,172.64 224.50,173.58 223.93,174.52 223.34,175.45 222.74,176.38 222.12,177.31 221.49,178.24 220.84,179.16 220.17,180.08 219.49,181.00 218.79,181.91 218.07,182.81 217.35,183.71 216.60,184.61 215.84,185.49 215.07,186.37 214.28,187.25 213.48,188.11 212.67,188.97 211.84,189.82 211.00,190.66 210.15,191.50 209.28,192.32 208.40,193.14 207.51,193.94 206.61,194.74 205.70,195.52 204.77,196.30 203.84,197.06 202.89,197.81 201.94,198.55 200.97,199.28 200.00,200.00 199.02,200.70 198.03,201.40 197.03,202.08 196.02,202.74 195.00,203.40 193.98,204.04 192.95,204.66 191.92,205.27 190.88,205.87 189.83,206.45 188.78,207.02 187.72,207.58 186.66,208.12 185.60,208.64 184.53,209.15 183.46,209.64 182.38,210.12 181.31,210.58 180.23,211.03 179.15,211.46 178.07,211.88 176.99,212.28 175.91,212.66 174.83,213.03 173.75,213.38 172.67,213.71 171.59,214.03 170.51,214.33 169.44,214.62 168.37,214.88 167.30,215.14 166.24,215.37 165.18,215.59 164.13,215.79 163.08,215.98 162.03,216.15 160.99,216.30 159.96,216.44 158.94,216.56 157.92,216.66 156.91,216.75 155.91,216.82 154.91,216.88 153.93,216.92 152.95,216.94 151.98,216.95 151.02,216.94 150.08,216.92 149.14,216.88 148.22,216.83 147.30,216.76 146.40,216.67 145.51,216.57 144.64,216.46 143.77,216.34 142.92,216.19 142.09,216.04 141.26,215.87 140.46,215.69 139.66,215.49 138.88,215.28 138.12,215.06 137.37,214.83 136.64,214.58 135.93,214.32 135.23,214.05 134.55,213.77 133.88,213.48 133.24,213.17 132.61,212.86 132.00,212.53 131.40,212.19 130.83,211.85 130.27,211.49 129.74,211.13 129.22,210.76 128.72,210.37 128.24,209.98 127.78,209.58 127.35,209.18 126.93,208.77 126.53,208.34 126.15,207.92 125.80,207.49 125.46,207.05 125.14,206.60 124.85,206.15 124.58,205.70 124.33,205.24 124.10,204.78 123.89,204.31 123.70,203.84 123.54,203.37 123.40,202.89 123.28,202.41 123.18,201.93 123.10,201.45 123.04,200.97 123.01,200.48 123.00,200.00 123.01,199.52 123.04,199.03 123.10,198.55 123.18,198.07 123.28,197.59 123.40,197.11 123.54,196.63 123.70,196.16 123.89,195.69 124.10,195.22 124.33,194.76 124.58,194.30 124.85,193.85 125.14,193.40 125.46,192.95 125.80,192.51 126.15,192.08 126.53,191.66 126.93,191.23 127.35,190.82 127.78,190.42 128.24,190.02 128.72,189.63 129.22,189.24 129.74,188.87 130.27,188.51 130.83,188.15 131.40,187.81 132.00,187.47 132.61,187.14 133.24,186.83 133.88,186.52 134.55,186.23 135.23,185.95 135.93,185.68 136.64,185.42 137.37,185.17 138.12,184.94 138.88,184.72 139.66,184.51 140.46,184.31 141.26,184.13 142.09,183.96 142.92,183.81 143.77,183.66 144.64,183.54 145.51,183.43 146.40,183.33 147.30,183.24 148.22,183.17 149.14,183.12 150.08,183.08 151.02,183.06 151.98,183.05 152.95,183.06 153.93,183.08 154.91,183.12 155.91,183.18 156.91,183.25 157.92,183.34 158.94,183.44 159.96,183.56 160.99,183.70 162.03,183.85 163.08,184.02 164.13,184.21 165.18,184.41 166.24,184.63 167.30,184.86 168.37,185.12 169.44,185.38 170.51,185.67 171.59,185.97 172.67,186.29 173.75,186.62 174.83,186.97 175.91,187.34 176.99,187.72 178.07,188.12 179.15,188.54 180.23,188.97 181.31,189.42 182.38,189.88 183.46,190.36 184.53,190.85 185.60,191.36 186.66,191.88 187.72,192.42 188.78,192.98 189.83,193.55 190.88,194.13 191.92,194.73 192.95,195.34 193.98,195.96 195.00,196.60 196.02,197.26 197.03,197.92 198.03,198.60 199.02,199.30 200.00,200.00 200.97,200.72 201.94,201.45 202.89,202.19 203.84,202.94 204.77,203.70 205.70,204.48 206.61,205.26 207.51,206.06 208.40,206.86 209.28,207.68 210.15,208.50 211.00,209.34 211.84,210.18 212.67,211.03 213.48,211.89 214.28,212.75 215.07,213.63 215.84,214.51 216.60,215.39 217.35,216.29 218.07,217.19 218.79,218.09 219.49,219.00 220.17,219.92 220.84,220.84 221.49,221.76 222.12,222.69 222.74,223.62 223.34,224.55 223.93,225.48 224.50,226.42 225.05,227.36 225.59,228.30 226.11,229.24 226.61,230.18 227.09,231.12 227.56,232.06 228.00,233.00 228.44,233.94 228.85,234.87 229.25,235.81 229.62,236.74 229.98,237.67 230.33,238.59 230.65,239.51 230.96,240.43 231.24,241.34 231.52,242.25 231.77,243.15 232.00,244.05 232.22,244.94 232.42,245.82 232.60,246.70 232.76,247.57 232.91,248.43 233.04,249.28 233.15,250.12 233.24,250.96 233.32,251.78 233.38,252.60 233.42,253.40 233.45,254.20 233.45,254.98 233.45,255.75 233.42,256.51 233.38,257.26 233.32,257.99 233.25,258.72 233.16,259.43 233.05,260.12 232.93,260.80 232.79,261.47 232.64,262.12 232.48,262.76 232.30,263.39 232.10,263.99 231.89,264.58 231.67,265.16 231.43,265.72 231.18,266.26 230.92,266.79 230.64,267.30 230.35,267.79 230.05,268.26 229.74,268.71 229.41,269.15 229.07,269.57 228.73,269.97 228.37,270.35 228.00,270.71 227.62,271.05 227.23,271.38 226.83,271.68 226.42,271.96 226.00,272.22 225.58,272.47 225.14,272.69 224.70,272.89 224.25,273.07 223.79,273.23 223.33,273.37 222.86,273.49 222.38,273.59 221.90,273.66 221.42,273.71 220.92,273.75 220.43,273.76 219.93,273.75 219.42,273.72 218.91,273.66 218.40,273.59 217.89,273.49 217.37,273.37 216.85,273.23 216.33,273.07 215.81,272.89 215.29,272.68 214.77,272.45 214.24,272.20 213.72,271.93 213.20,271.64 212.68,271.33 212.16,271.00 211.64,270.64 211.13,270.26 210.62,269.87 210.11,269.45 209.60,269.01 209.10,268.55 208.60,268.07 208.10,267.57 207.62,267.04 207.13,266.50 206.65,265.94 206.18,265.36 205.71,264.76 205.25,264.14 204.80,263.50 204.35,262.85 203.91,262.17 203.48,261.48 203.06,260.77 202.64,260.04 202.24,259.29 201.84,258.52 201.45,257.74 201.07,256.94 200.71,256.13 200.35,255.29 200.00,254.45 199.66,253.58 199.34,252.71 199.02,251.81 198.72,250.90 198.43,249.98 198.15,249.05 197.88,248.10 197.63,247.13 197.39,246.16 197.16,245.17 196.94,244.17 196.74,243.16 196.55,242.13 196.38,241.10 196.21,240.05 196.07,239.00 195.93,237.93 195.81,236.86 195.71,235.77 195.62,234.68 195.54,233.58 195.48,232.47 195.44,231.36 195.41,230.23 195.39,229.10 195.39,227.97 195.40,226.83 195.43,225.68 195.48,224.53 195.54,223.37 195.62,222.21 195.71,221.05 195.82,219.88 195.94,218.71 196.08,217.54 196.23,216.37 196.40,215.19 196.59,214.02 196.79,212.84 197.00,211.67 197.24,210.49 197.48,209.32 197.74,208.14 198.02,206.97 198.31,205.80 198.62,204.63 198.94,203.47 199.28,202.31 199.63,201.15 200.00,200.00 200.38,198.85 200.78,197.71 201.19,196.57 201.61,195.44 202.05,194.32 202.50,193.20 202.96,192.09 203.44,190.98 203.93,189.89 204.43,188.80 204.95,187.72 205.48,186.65 206.02,185.59 206.57,184.54 207.14,183.50 207.72,182.47 208.30,181.46 208.90,180.45 209.51,179.45 210.13,178.47 210.76,177.50 211.40,176.54 212.05,175.60 212.71,174.66 213.38,173.75 214.05,172.84 214.74,171.95 215.43,171.07 216.13,170.21 216.84,169.37 217.56,168.54 218.28,167.72 219.01,166.92 219.74,166.14 220.48,165.37 221.23,164.62 221.98,163.89 222.73,163.17 223.49,162.47 224.25,161.79 225.02,161.12 225.79,160.47 226.56,159.84 227.33,159.23 228.11,158.64 228.89,158.06 229.66,157.51 230.44,156.97 231.22,156.45 232.00,155.95 232.78,155.47 233.56,155.01 234.34,154.56 235.11,154.14 235.89,153.74 236.66,153.35 237.43,152.98 238.19,152.64 238.95,152.31 239.71,152.00 240.46,151.71 241.21,151.44 241.95,151.19 242.69,150.96 243.42,150.75 244.14,150.56 244.86,150.39 245.57,150.24 246.27,150.10 246.97,149.99 247.65,149.89 248.33,149.81 249.00,149.76 249.65,149.72 250.30,149.70 250.94,149.70 251.57,149.71 252.18,149.75 252.79,149.80 253.38,149.87 253.96,149.96 254.53,150.06 255.09,150.19 255.63,150.33 256.16,150.49 256.68,150.66 257.18,150.85 257.67,151.06 258.14,151.28 258.60,151.52 259.04,151.78 259.47,152.05 259.88,152.33 260.28,152.64 260.65,152.95 261.02,153.28 261.36,153.63 261.69,153.98 262.00,154.36 262.29,154.74 262.57,155.14 262.83,155.55 263.07,155.97 263.29,156.41 263.49,156.85 263.67,157.31 263.84,157.78 263.98,158.26 264.11,158.75 264.21,159.25 264.30,159.76 264.37,160.28 264.41,160.81 264.44,161.34 264.45,161.89 264.43,162.44 264.40,163.00 264.34,163.57 264.27,164.14 264.17,164.72 264.06,165.31 263.92,165.90 263.76,166.50 263.58,167.10 263.39,167.70 263.17,168.31 262.92,168.93 262.66,169.55 262.38,170.17 262.08,170.79 261.75,171.41 261.41,172.04 261.05,172.67 260.66,173.30 260.25,173.93 259.83,174.56 259.38,175.18 258.91,175.81 258.43,176.44 257.92,177.07 257.39,177.69 256.85,178.32 256.28,178.94 255.69,179.55 255.09,180.17 254.47,180.78 253.82,181.38 253.16,181.99 252.48,182.58 251.78,183.17 251.07,183.76 250.33,184.34 249.58,184.92 248.81,185.49 248.02,186.05 247.22,186.60 246.40,187.15 245.56,187.69 244.71,188.22 243.84,188.74 242.95,189.26 242.05,189.76 241.14,190.26 240.21,190.75 239.26,191.22 238.31,191.69 237.33,192.15 236.35,192.59 235.35,193.03 234.34,193.45 233.31,193.86 232.28,194.26 231.23,194.65 230.17,195.03 229.10,195.39 228.02,195.74 226.93,196.08 225.83,196.41 224.72,196.72 223.61,197.02 222.48,197.30 221.35,197.58 220.20,197.83 219.05,198.08 217.90,198.31 216.73,198.52 215.56,198.73 214.39,198.91 213.21,199.09 212.02,199.24 210.83,199.39 209.64,199.52 208.44,199.63 207.24,199.73 206.04,199.81 204.83,199.88 203.63,199.93 202.42,199.97 201.21,199.99 200.00,200.00 198.79,199.99 197.58,199.97 196.37,199.93 195.17,199.88 193.96,199.81 192.76,199.73 191.56,199.63 190.36,199.52 189.17,199.39 187.98,199.24 186.79,199.09 185.61,198.91 184.44,198.73 183.27,198.52 182.10,198.31 180.95,198.08 179.80,197.83 178.65,197.58 177.52,197.30 176.39,197.02 175.28,196.72 174.17,196.41 173.07,196.08 171.98,195.74 170.90,195.39 169.83,195.03 168.77,194.65 167.72,194.26 166.69,193.86 165.66,193.45 164.65,193.03 163.65,192.59 162.67,192.15 161.69,191.69 160.74,191.22 159.79,190.75 158.86,190.26 157.95,189.76 157.05,189.26 156.16,188.74 155.29,188.22 154.44,187.69 153.60,187.15 152.78,186.60 151.98,186.05 151.19,185.49 150.42,184.92 149.67,184.34 148.93,183.76 148.22,183.17 147.52,182.58 146.84,181.99 146.18,181.38 145.53,180.78 144.91,180.17 144.31,179.55 143.72,178.94 143.15,178.32 142.61,177.69 142.08,177.07 141.57,176.44 141.09,175.81 140.62,175.18 140.17,174.56 139.75,173.93 139.34,173.30 138.95,172.67 138.59,172.04 138.25,171.41 137.92,170.79 137.62,170.17 137.34,169.55 137.08,168.93 136.83,168.31 136.61,167.70 136.42,167.10 136.24,166.50 136.08,165.90 135.94,165.31 135.83,164.72 135.73,164.14 135.66,163.57 135.60,163.00 135.57,162.44 135.55,161.89 135.56,161.34 135.59,160.81 135.63,160.28 135.70,159.76 135.79,159.25 135.89,158.75 136.02,158.26 136.16,157.78 136.33,157.31 136.51,156.85 136.71,156.41 136.93,155.97 137.17,155.55 137.43,155.14 137.71,154.74 138.00,154.36 138.31,153.98 138.64,153.63 138.98,153.28 139.35,152.95 139.72,152.64 140.12,152.33 140.53,152.05 140.96,151.78 141.40,151.52 141.86,151.28 142.33,151.06 142.82,150.85 143.32,150.66 143.84,150.49 144.37,150.33 144.91,150.19 145.47,150.06 146.04,149.96 146.62,149.87 147.21,149.80 147.82,149.75 148.43,149.71 149.06,149.70 149.70,149.70 150.35,149.72 151.00,149.76 151.67,149.81 152.35,149.89 153.03,149.99 153.73,150.10 154.43,150.24 155.14,150.39 155.86,150.56 156.58,150.75 157.31,150.96 158.05,151.19 158.79,151.44 159.54,151.71 160.29,152.00 161.05,152.31 161.81,152.64 162.57,152.98 163.34,153.35 164.11,153.74 164.89,154.14 165.66,154.56 166.44,155.01 167.22,155.47 168.00,155.95 168.78,156.45 169.56,156.97 170.34,157.51 171.11,158.06 171.89,158.64 172.67,159.23 173.44,159.84 174.21,160.47 174.98,161.12 175.75,161.79 176.51,162.47 177.27,163.17 178.02,163.89 178.77,164.62 179.52,165.37 180.26,166.14 180.99,166.92 181.72,167.72 182.44,168.54 183.16,169.37 183.87,170.21 184.57,171.07 185.26,171.95 185.95,172.84 186.62,173.75 187.29,174.66 187.95,175.60 188.60,176.54 189.24,177.50 189.87,178.47 190.49,179.45 191.10,180.45 191.70,181.46 192.28,182.47 192.86,183.50 193.43,184.54 193.98,185.59 194.52,186.65 195.05,187.72 195.57,188.80 196.07,189.89 196.56,190.98 197.04,192.09 197.50,193.20 197.95,194.32 198.39,195.44 198.81,196.57 199.22,197.71 199.62,198.85 200.00,200.00 200.37,201.15 200.72,202.31 201.06,203.47 201.38,204.63 201.69,205.80 201.98,206.97 202.26,208.14 202.52,209.32 202.76,210.49 203.00,211.67 203.21,212.84 203.41,214.02 203.60,215.19 203.77,216.37 203.92,217.54 204.06,218.71 204.18,219.88 204.29,221.05 204.38,222.21 204.46,223.37 204.52,224.53 204.57,225.68 204.60,226.83 204.61,227.97 204.61,229.10 204.59,230.23 204.56,231.36 204.52,232.47 204.46,233.58 204.38,234.68 204.29,235.77 204.19,236.86 204.07,237.93 203.93,239.00 203.79,240.05 203.62,241.10 203.45,242.13 203.26,243.16 203.06,244.17 202.84,245.17 202.61,246.16 202.37,247.13 202.12,248.10 201.85,249.05 201.57,249.98 201.28,250.90 200.98,251.81 200.66,252.71 200.34,253.58 200.00,254.45 199.65,255.29 199.29,256.13 198.93,256.94 198.55,257.74 198.16,258.52 197.76,259.29 197.36,260.04 196.94,260.77 196.52,261.48 196.09,262.17 195.65,262.85 195.20,263.50 194.75,264.14 194.29,264.76 193.82,265.36 193.35,265.94 192.87,266.50 192.38,267.04 191.90,267.57 191.40,268.07 190.90,268.55 190.40,269.01 189.89,269.45 189.38,269.87 188.87,270.26 188.36,270.64 187.84,271.00 187.32,271.33 186.80,271.64 186.28,271.93 185.76,272.20 185.23,272.45 184.71,272.68 184.19,272.89 183.67,273.07 183.15,273.23 182.63,273.37 182.11,273.49 181.60,273.59 181.09,273.66 180.58,273.72 180.07,273.75 179.57,273.76 179.08,273.75 178.58,273.71 178.10,273.66 177.62,273.59 177.14,273.49 176.67,273.37 176.21,273.23 175.75,273.07 175.30,272.89 174.86,272.69 174.42,272.47 174.00,272.22 173.58,271.96 173.17,271.68 172.77,271.38 172.38,271.05 172.00,270.71 171.63,270.35 171.27,269.97 170.93,269.57 170.59,269.15 170.26,268.71 169.95,268.26 169.65,267.79 169.36,267.30 169.08,266.79 168.82,266.26 168.57,265.72 168.33,265.16 168.11,264.58 167.90,263.99 167.70,263.39 167.52,262.76 167.36,262.12 167.21,261.47 167.07,260.80 166.95,260.12 166.84,259.43 166.75,258.72 166.68,257.99 166.62,257.26 166.58,256.51 166.55,255.75 166.55,254.98 166.55,254.20 166.58,253.40 166.62,252.60 166.68,251.78 166.76,250.96 166.85,250.12 166.96,249.28 167.09,248.43 167.24,247.57 167.40,246.70 167.58,245.82 167.78,244.94 168.00,244.05 168.23,243.15 168.48,242.25 168.76,241.34 169.04,240.43 169.35,239.51 169.67,238.59 170.02,237.67 170.38,236.74 170.75,235.81 171.15,234.87 171.56,233.94 172.00,233.00 172.44,232.06 172.91,231.12 173.39,230.18 173.89,229.24 174.41,228.30 174.95,227.36 175.50,226.42 176.07,225.48 176.66,224.55 177.26,223.62 177.88,222.69 178.51,221.76 179.16,220.84 179.83,219.92 180.51,219.00 181.21,218.09 181.93,217.19 182.65,216.29 183.40,215.39 184.16,214.51 184.93,213.63 185.72,212.75 186.52,211.89 187.33,211.03 188.16,210.18 189.00,209.34 189.85,208.50 190.72,207.68 191.60,206.86 192.49,206.06 193.39,205.26 194.30,204.48 195.23,203.70 196.16,202.94 197.11,202.19 198.06,201.45 199.03,200.72 200.00,200.00 200.98,199.30 201.97,198.60 202.97,197.92 203.98,197.26 205.00,196.60 206.02,195.96 207.05,195.34 208.08,194.73 209.12,194.13 210.17,193.55 211.22,192.98 212.28,192.42 213.34,191.88 214.40,191.36 215.47,190.85 216.54,190.36 217.62,189.88 218.69,189.42 219.77,188.97 220.85,188.54 221.93,188.12 223.01,187.72 224.09,187.34 225.17,186.97 226.25,186.62 227.33,186.29 228.41,185.97 229.49,185.67 230.56,185.38 231.63,185.12 232.70,184.86 233.76,184.63 234.82,184.41 235.87,184.21 236.92,184.02 237.97,183.85 239.01,183.70 240.04,183.56 241.06,183.44 242.08,183.34 243.09,183.25 244.09,183.18 245.09,183.12 246.07,183.08 247.05,183.06 248.02,183.05 248.98,183.06 249.92,183.08 250.86,183.12 251.78,183.17 252.70,183.24 253.60,183.33 254.49,183.43 255.36,183.54 256.23,183.66 257.08,183.81 257.91,183.96 258.74,184.13 259.54,184.31 260.34,184.51 261.12,184.72 261.88,184.94 262.63,185.17 263.36,185.42 264.07,185.68 264.77,185.95 265.45,186.23 266.12,186.52 266.76,186.83 267.39,187.14 268.00,187.47 268.60,187.81 269.17,188.15 269.73,188.51 270.26,188.87 270.78,189.24 271.28,189.63 271.76,190.02 272.22,190.42 272.65,190.82 273.07,191.23 273.47,191.66 273.85,192.08 274.20,192.51 274.54,192.95 274.86,193.40 275.15,193.85 275.42,194.30 275.67,194.76 275.90,195.22 276.11,195.69 276.30,196.16 276.46,196.63 276.60,197.11 276.72,197.59 276.82,198.07 276.90,198.55 276.96,199.03 276.99,199.52 277.00,200.00" fill="none" stroke="#d4a84b" stroke-width="0.7" opacity="0.3"/>
</svg>
