<svg xmlns="http://www.w3.org/2000/svg" viewBox="0 0 400 400" width="400" height="400">
  <rect width="400" height="400" fill="#fdf6f0"/>
  <polyline points="388.00,200.00 387.98,200.13 387.94,200.25 387.86,200.38 387.75,200.50 387.61,200.62 387.43,200.75 387.23,200.87 386.99,200.99 386.72,201.11 386.42,201.23 386.09,201.34 385.73,201.45 385.34,201.57 384.91,201.67 384.46,201.78 383.97,201.88 383.46,201.98 382.91,202.08 382.33,202.18 381.72,202.27 381.09,202.35 380.42,202.44 379.72,202.52 378.99,202.59 378.23,202.66 377.44,202.73 376.62,202.79 375.78,202.85 374.90,202.90 373.99,202.95 373.06,202.99 372.10,203.02 371.11,203.05 370.09,203.08 369.04,203.10 367.96,203.11 366.86,203.12 365.73,203.11 364.57,203.11 363.38,203.10 362.17,203.08 360.93,203.05 359.67,203.01 358.38,202.97 357.06,202.92 355.72,202.87 354.35,202.81 352.96,202.73 351.54,202.66 350.10,202.57 348.63,202.47 347.14,202.37 345.63,202.26 344.09,202.14 342.53,202.01 340.95,201.87 339.34,201.73 337.72,201.58 336.07,201.41 334.40,201.24 332.70,201.06 330.99,200.87 329.26,200.67 327.51,200.46 325.73,200.24 323.94,200.02 322.13,199.78 320.30,199.54 318.45,199.28 316.58,199.01 314.69,198.74 312.79,198.46 310.87,198.16 308.93,197.86 306.98,197.54 305.01,197.22 303.03,196.89 301.03,196.54 299.02,196.19 296.99,195.82 294.94,195.45 292.89,195.07 290.82,194.67 288.74,194.27 286.64,193.86 284.54,193.43 282.42,193.00 280.29,192.56 278.15,192.10 276.00,191.64 273.83,191.17 271.66,190.69 269.48,190.19 267.29,189.69 265.10,189.18 262.89,188.65 260.68,188.12 258.46,187.58 256.23,187.03 254.00,186.47 251.76,185.90 249.52,185.32 247.27,184.73 245.01,184.13 242.75,183.52 240.49,182.91 238.23,182.28 235.96,181.65 233.69,181.00 231.41,180.35 229.14,179.69 226.86,179.02 224.58,178.34 222.31,177.66 220.03,176.96 217.75,176.26 215.47,175.55 213.20,174.83 210.92,174.10 208.65,173.37 206.38,172.63 204.12,171.88 201.85,171.12 199.59,170.36 197.34,169.59 195.09,168.81 192.84,168.03 190.60,167.24 188.36,166.44 186.14,165.64 183.91,164.83 181.70,164.02 179.49,163.20 177.29,162.37 175.10,161.54 172.91,160.70 170.74,159.86 168.57,159.02 166.41,158.17 164.27,157.31 162.13,156.45 160.00,155.59 157.89,154.72 155.79,153.85 153.70,152.98 151.62,152.10 149.55,151.22 147.50,150.34 145.46,149.46 143.43,148.57 141.42,147.68 139.42,146.79 137.44,145.89 135.47,145.00 133.52,144.10 131.58,143.21 129.66,142.31 127.75,141.41 125.86,140.51 123.99,139.61 122.13,138.72 120.30,137.82 118.48,136.92 116.68,136.02 114.89,135.13 113.13,134.24 111.38,133.34 109.66,132.45 107.95,131.57 106.27,130.68 104.60,129.80 102.95,128.92 101.33,128.04 99.72,127.16 98.14,126.29 96.57,125.43 95.03,124.57 93.51,123.71 92.02,122.86 90.54,122.01 89.09,121.16 87.66,120.33 86.25,119.49 84.87,118.67 83.51,117.85 82.17,117.04 80.86,116.23 79.57,115.43 78.30,114.64 77.06,113.85 75.84,113.07 74.65,112.31 73.48,111.54 72.33,110.79 71.22,110.05 70.12,109.31 69.05,108.59 68.01,107.87 66.99,107.17 66.00,106.47 65.03,105.78 64.09,105.11 63.18,104.44 62.29,103.79 61.43,103.15 60.59,102.52 59.78,101.90 58.99,101.29 58.24,100.69 57.50,100.11 56.80,99.54 56.12,98.98 55.47,98.44 54.84,97.91 54.24,97.39 53.67,96.89 53.13,96.40 52.61,95.93 52.11,95.46 51.65,95.02 51.21,94.59 50.80,94.17 50.41,93.77 50.05,93.39 49.72,93.02 49.42,92.66 49.14,92.33 48.89,92.01 48.66,91.70 48.46,91.41 48.29,91.14 48.14,90.89 48.02,90.65 47.93,90.43 47.86,90.23 47.81,90.05 47.80,89.88 47.81,89.74 47.84,89.61 47.90,89.50 47.99,89.40 48.10,89.33 48.24,89.28 48.40,89.24 48.59,89.22 48.80,89.23 49.04,89.25 49.30,89.29 49.59,89.35 49.90,89.43 50.24,89.53 50.60,89.65 50.98,89.79 51.39,89.96 51.82,90.14 52.27,90.34 52.75,90.56 53.25,90.80 53.77,91.07 54.31,91.35 54.88,91.66 55.47,91.98 56.08,92.33 56.72,92.70 57.37,93.09 58.05,93.49 58.75,93.93 59.47,94.38 60.21,94.85 60.97,95.35 61.75,95.86 62.55,96.40 63.37,96.96 64.21,97.54 65.07,98.14 65.94,98.76 66.84,99.40 67.75,100.07 68.69,100.75 69.64,101.46 70.61,102.19 71.59,102.94 72.60,103.71 73.62,104.50 74.65,105.32 75.71,106.15 76.78,107.00 77.86,107.88 78.96,108.78 80.08,109.70 81.21,110.63 82.35,111.59 83.51,112.57 84.68,113.57 85.87,114.59 87.07,115.64 88.28,116.70 89.51,117.78 90.75,118.88 92.00,120.00 93.26,121.14 94.54,122.30 95.82,123.48 97.12,124.68 98.42,125.90 99.74,127.14 101.07,128.39 102.41,129.67 103.75,130.96 105.11,132.27 106.47,133.60 107.84,134.95 109.22,136.32 110.61,137.70 112.01,139.11 113.41,140.52 114.82,141.96 116.23,143.41 117.65,144.88 119.08,146.37 120.51,147.87 121.95,149.39 123.40,150.93 124.84,152.48 126.29,154.04 127.75,155.62 129.21,157.22 130.67,158.83 132.14,160.45 133.61,162.09 135.08,163.75 136.55,165.41 138.02,167.09 139.50,168.79 140.97,170.49 142.45,172.21 143.93,173.94 145.41,175.69 146.88,177.44 148.36,179.21 149.84,180.98 151.31,182.77 152.78,184.57 154.26,186.38 155.73,188.20 157.19,190.03 158.66,191.86 160.12,193.71 161.58,195.57 163.04,197.43 164.49,199.30 165.94,201.18 167.38,203.07 168.82,204.96 170.26,206.87 171.69,208.77 173.11,210.69 174.53,212.60 175.94,214.53 177.35,216.46 178.75,218.39 180.14,220.33 181.53,222.27 182.91,224.22 184.28,226.17 185.64,228.12 187.00,230.07 188.35,232.03 189.69,233.99 191.02,235.95 192.34,237.91 193.66,239.87 194.96,241.83 196.26,243.79 197.54,245.75 198.82,247.71 200.08,249.67 201.34,251.63 202.58,253.59 203.82,255.54 205.04,257.49 206.25,259.44 207.46,261.38 208.64,263.32 209.82,265.26 210.99,267.19 212.14,269.11 213.29,271.03 214.42,272.95 215.53,274.86 216.64,276.76 217.73,278.66 218.81,280.55 219.88,282.43 220.93,284.30 221.97,286.16 223.00,288.02 224.01,289.87 225.01,291.70 226.00,293.53 226.97,295.35 227.93,297.15 228.88,298.95 229.81,300.73 230.72,302.51 231.62,304.27 232.51,306.01 233.39,307.75 234.24,309.47 235.09,311.18 235.92,312.87 236.73,314.55 237.53,316.22 238.32,317.87 239.09,319.50 239.84,321.12 240.58,322.72 241.31,324.31 242.02,325.88 242.71,327.44 243.39,328.97 244.06,330.49 244.70,331.99 245.34,333.47 245.96,334.93 246.56,336.38 247.15,337.80 247.72,339.21 248.28,340.59 248.83,341.96 249.35,343.30 249.87,344.63 250.37,345.93 250.85,347.21 251.32,348.47 251.77,349.71 252.21,350.92 252.63,352.12 253.04,353.28 253.43,354.43 253.81,355.55 254.18,356.65 254.52,357.73 254.86,358.78 255.18,359.81 255.49,360.81 255.78,361.79 256.06,362.74 256.32,363.67 256.57,364.57 256.80,365.44 257.03,366.29 257.23,367.12 257.43,367.91 257.61,368.68 257.78,369.43 257.93,370.14 258.07,370.83 258.20,371.50 258.31,372.13 258.41,372.74 258.50,373.31 258.58,373.87 258.64,374.39 258.69,374.88 258.73,375.35 258.76,375.78 258.78,376.19 258.78,376.57 258.77,376.92 258.75,377.24 258.72,377.53 258.68,377.79 258.63,378.03 258.57,378.23 258.49,378.40 258.41,378.55 258.31,378.66 258.21,378.74 258.10,378.80 257.97,378.82 257.84,378.82 257.69,378.78 257.54,378.71 257.38,378.62 257.21,378.49 257.03,378.33 256.84,378.14 256.65,377.93 256.44,377.68 256.23,377.40 256.01,377.09 255.78,376.75 255.55,376.38 255.31,375.98 255.06,375.55 254.80,375.09 254.54,374.60 254.27,374.08 254.00,373.53 253.72,372.95 253.43,372.34 253.14,371.70 252.85,371.03 252.54,370.33 252.24,369.60 251.93,368.84 251.61,368.05 251.29,367.24 250.97,366.39 250.64,365.51 250.31,364.61 249.97,363.67 249.63,362.71 249.29,361.72 248.95,360.70 248.60,359.65 248.25,358.58 247.90,357.48 247.54,356.34 247.19,355.19 246.83,354.00 246.47,352.79 246.11,351.55 245.75,350.28 245.39,348.98 245.03,347.66 244.67,346.32 244.30,344.94 243.94,343.55 243.58,342.12 243.22,340.67 242.85,339.20 242.49,337.70 242.13,336.18 241.77,334.63 241.41,333.06 241.06,331.46 240.70,329.84 240.35,328.20 240.00,326.54 239.65,324.85 239.31,323.14 238.96,321.41 238.62,319.65 238.28,317.88 237.95,316.08 237.62,314.26 237.29,312.43 236.96,310.57 236.64,308.69 236.32,306.79 236.01,304.88 235.70,302.94 235.40,300.99 235.10,299.01 234.80,297.02 234.51,295.02 234.22,292.99 233.94,290.95 233.67,288.89 233.39,286.82 233.13,284.73 232.87,282.62 232.62,280.50 232.37,278.37 232.12,276.22 231.89,274.06 231.66,271.88 231.43,269.69 231.22,267.49 231.00,265.28 230.80,263.05 230.60,260.82 230.41,258.57 230.22,256.31 230.05,254.04 229.88,251.76 229.71,249.47 229.56,247.18 229.41,244.87 229.26,242.56 229.13,240.23 229.00,237.91 228.88,235.57 228.77,233.23 228.66,230.88 228.57,228.53 228.48,226.17 228.39,223.80 228.32,221.44 228.25,219.06 228.19,216.69 228.14,214.31 228.10,211.93 228.06,209.55 228.04,207.16 228.02,204.77 228.00,202.39 228.00,200.00 228.00,197.61 228.02,195.23 228.04,192.84 228.06,190.45 228.10,188.07 228.14,185.69 228.19,183.31 228.25,180.94 228.32,178.56 228.39,176.20 228.48,173.83 228.57,171.47 228.66,169.12 228.77,166.77 228.88,164.43 229.00,162.09 229.13,159.77 229.26,157.44 229.41,155.13 229.56,152.82 229.71,150.53 229.88,148.24 230.05,145.96 230.22,143.69 230.41,141.43 230.60,139.18 230.80,136.95 231.00,134.72 231.22,132.51 231.43,130.31 231.66,128.12 231.89,125.94 232.12,123.78 232.37,121.63 232.62,119.50 232.87,117.38 233.13,115.27 233.39,113.18 233.67,111.11 233.94,109.05 234.22,107.01 234.51,104.98 234.80,102.98 235.10,100.99 235.40,99.01 235.70,97.06 236.01,95.12 236.32,93.21 236.64,91.31 236.96,89.43 237.29,87.57 237.62,85.74 237.95,83.92 238.28,82.12 238.62,80.35 238.96,78.59 239.31,76.86 239.65,75.15 240.00,73.46 240.35,71.80 240.70,70.16 241.06,68.54 241.41,66.94 241.77,65.37 242.13,63.82 242.49,62.30 242.85,60.80 243.22,59.33 243.58,57.88 243.94,56.45 244.30,55.06 244.67,53.68 245.03,52.34 245.39,51.02 245.75,49.72 246.11,48.45 246.47,47.21 246.83,46.00 247.19,44.81 247.54,43.66 247.90,42.52 248.25,41.42 248.60,40.35 248.95,39.30 249.29,38.28 249.63,37.29 249.97,36.33 250.31,35.39 250.64,34.49 250.97,33.61 251.29,32.76 251.61,31.95 251.93,31.16 252.24,30.40 252.54,29.67 252.85,28.97 253.14,28.30 253.43,27.66 253.72,27.05 254.00,26.47 254.27,25.92 254.54,25.40 254.80,24.91 255.06,24.45 255.31,24.02 255.55,23.62 255.78,23.25 256.01,22.91 256.23,22.60 256.44,22.32 256.65,22.07 256.84,21.86 257.03,21.67 257.21,21.51 257.38,21.38 257.54,21.29 257.69,21.22 257.84,21.18 257.97,21.18 258.10,21.20 258.21,21.26 258.31,21.34 258.41,21.45 258.49,21.60 258.57,21.77 258.63,21.97 258.68,22.21 258.72,22.47 258.75,22.76 258.77,23.08 258.78,23.43 258.78,23.81 258.76,24.22 258.73,24.65 258.69,25.12 258.64,25.61 258.58,26.13 258.50,26.69 258.41,27.26 258.31,27.87 258.20,28.50 258.07,29.17 257.93,29.86 257.78,30.57 257.61,31.32 257.43,32.09 257.23,32.88 257.03,33.71 256.80,34.56 256.57,35.43 256.32,36.33 256.06,37.26 255.78,38.21 255.49,39.19 255.18,40.19 254.86,41.22 254.52,42.27 254.18,43.35 253.81,44.45 253.43,45.57 253.04,46.72 252.63,47.88 252.21,49.08 251.77,50.29 251.32,51.53 250.85,52.79 250.37,54.07 249.87,55.37 249.35,56.70 248.83,58.04 248.28,59.41 247.72,60.79 247.15,62.20 246.56,63.62 245.96,65.07 245.34,66.53 244.70,68.01 244.06,69.51 243.39,71.03 242.71,72.56 242.02,74.12 241.31,75.69 240.58,77.28 239.84,78.88 239.09,80.50 238.32,82.13 237.53,83.78 236.73,85.45 235.92,87.13 235.09,88.82 234.24,90.53 233.39,92.25 232.51,93.99 231.62,95.73 230.72,97.49 229.81,99.27 228.88,101.05 227.93,102.85 226.97,104.65 226.00,106.47 225.01,108.30 224.01,110.13 223.00,111.98 221.97,113.84 220.93,115.70 219.88,117.57 218.81,119.45 217.73,121.34 216.64,123.24 215.53,125.14 214.42,127.05 213.29,128.97 212.14,130.89 210.99,132.81 209.82,134.74 208.64,136.68 207.46,138.62 206.25,140.56 205.04,142.51 203.82,144.46 202.58,146.41 201.34,148.37 200.08,150.33 198.82,152.29 197.54,154.25 196.26,156.21 194.96,158.17 193.66,160.13 192.34,162.09 191.02,164.05 189.69,166.01 188.35,167.97 187.00,169.93 185.64,171.88 184.28,173.83 182.91,175.78 181.53,177.73 180.14,179.67 178.75,181.61 177.35,183.54 175.94,185.47 174.53,187.40 173.11,189.31 171.69,191.23 170.26,193.13 168.82,195.04 167.38,196.93 165.94,198.82 164.49,200.70 163.04,202.57 161.58,204.43 160.12,206.29 158.66,208.14 157.19,209.97 155.73,211.80 154.26,213.62 152.78,215.43 151.31,217.23 149.84,219.02 148.36,220.79 146.88,222.56 145.41,224.31 143.93,226.06 142.45,227.79 140.97,229.51 139.50,231.21 138.02,232.91 136.55,234.59 135.08,236.25 133.61,237.91 132.14,239.55 130.67,241.17 129.21,242.78 127.75,244.38 126.29,245.96 124.84,247.52 123.40,249.07 121.95,250.61 120.51,252.13 119.08,253.63 117.65,255.12 116.23,256.59 114.82,258.04 113.41,259.48 112.01,260.89 110.61,262.30 109.22,263.68 107.84,265.05 106.47,266.40 105.11,267.73 103.75,269.04 102.41,270.33 101.07,271.61 99.74,272.86 98.42,274.10 97.12,275.32 95.82,276.52 94.54,277.70 93.26,278.86 92.00,280.00 90.75,281.12 89.51,282.22 88.28,283.30 87.07,284.36 85.87,285.41 84.68,286.43 83.51,287.43 82.35,288.41 81.21,289.37 80.08,290.30 78.96,291.22 77.86,292.12 76.78,293.00 75.71,293.85 74.65,294.68 73.62,295.50 72.60,296.29 71.59,297.06 70.61,297.81 69.64,298.54 68.69,299.25 67.75,299.93 66.84,300.60 65.94,301.24 65.07,301.86 64.21,302.46 63.37,303.04 62.55,303.60 61.75,304.14 60.97,304.65 60.21,305.15 59.47,305.62 58.75,306.07 58.05,306.51 57.37,306.91 56.72,307.30 56.08,307.67 55.47,308.02 54.88,308.34 54.31,308.65 53.77,308.93 53.25,309.20 52.75,309.44 52.27,309.66 51.82,309.86 51.39,310.04 50.98,310.21 50.60,310.35 50.24,310.47 49.90,310.57 49.59,310.65 49.30,310.71 49.04,310.75 48.80,310.77 48.59,310.78 48.40,310.76 48.24,310.72 48.10,310.67 47.99,310.60 47.90,310.50 47.84,310.39 47.81,310.26 47.80,310.12 47.81,309.95 47.86,309.77 47.93,309.57 48.02,309.35 48.14,309.11 48.29,308.86 48.46,308.59 48.66,308.30 48.89,307.99 49.14,307.67 49.42,307.34 49.72,306.98 50.05,306.61 50.41,306.23 50.80,305.83 51.21,305.41 51.65,304.98 52.11,304.54 52.61,304.07 53.13,303.60 53.67,303.11 54.24,302.61 54.84,302.09 55.47,301.56 56.12,301.02 56.80,300.46 57.50,299.89 58.24,299.31 58.99,298.71 59.78,298.10 60.59,297.48 61.43,296.85 62.29,296.21 63.18,295.56 64.09,294.89 65.03,294.22 66.00,293.53 66.99,292.83 68.01,292.13 69.05,291.41 70.12,290.69 71.22,289.95 72.33,289.21 73.48,288.46 74.65,287.69 75.84,286.93 77.06,286.15 78.30,285.36 79.57,284.57 80.86,283.77 82.17,282.96 83.51,282.15 84.87,281.33 86.25,280.51 87.66,279.67 89.09,278.84 90.54,277.99 92.02,277.14 93.51,276.29 95.03,275.43 96.57,274.57 98.14,273.71 99.72,272.84 101.33,271.96 102.95,271.08 104.60,270.20 106.27,269.32 107.95,268.43 109.66,267.55 111.38,266.66 113.13,265.76 114.89,264.87 116.68,263.98 118.48,263.08 120.30,262.18 122.13,261.28 123.99,260.39 125.86,259.49 127.75,258.59 129.66,257.69 131.58,256.79 133.52,255.90 135.47,255.00 137.44,254.11 139.42,253.21 141.42,252.32 143.43,251.43 145.46,250.54 147.50,249.66 149.55,248.78 151.62,247.90 153.70,247.02 155.79,246.15 157.89,245.28 160.00,244.41 162.13,243.55 164.27,242.69 166.41,241.83 168.57,240.98 170.74,240.14 172.91,239.30 175.10,238.46 177.29,237.63 179.49,236.80 181.70,235.98 183.91,235.17 186.14,234.36 188.36,233.56 190.60,232.76 192.84,231.97 195.09,231.19 197.34,230.41 199.59,229.64 201.85,228.88 204.12,228.12 206.38,227.37 208.65,226.63 210.92,225.90 213.20,225.17 215.47,224.45 217.75,223.74 220.03,223.04 222.31,222.34 224.58,221.66 226.86,220.98 229.14,220.31 231.41,219.65 233.69,219.00 235.96,218.35 238.23,217.72 240.49,217.09 242.75,216.48 245.01,215.87 247.27,215.27 249.52,214.68 251.76,214.10 254.00,213.53 256.23,212.97 258.46,212.42 260.68,211.88 262.89,211.35 265.10,210.82 267.29,210.31 269.48,209.81 271.66,209.31 273.83,208.83 276.00,208.36 278.15,207.90 280.29,207.44 282.42,207.00 284.54,206.57 286.64,206.14 288.74,205.73 290.82,205.33 292.89,204.93 294.94,204.55 296.99,204.18 299.02,203.81 301.03,203.46 303.03,203.11 305.01,202.78 306.98,202.46 308.93,202.14 310.87,201.84 312.79,201.54 314.69,201.26 316.58,200.99 318.45,200.72 320.30,200.46 322.13,200.22 323.94,199.98 325.73,199.76 327.51,199.54 329.26,199.33 330.99,199.13 332.70,198.94 334.40,198.76 336.07,198.59 337.72,198.42 339.34,198.27 340.95,198.13 342.53,197.99 344.09,197.86 345.63,197.74 347.14,197.63 348.63,197.53 350.10,197.43 351.54,197.34 352.96,197.27 354.35,197.19 355.72,197.13 357.06,197.08 358.38,197.03 359.67,196.99 360.93,196.95 362.17,196.92 363.38,196.90 364.57,196.89 365.73,196.89 366.86,196.88 367.96,196.89 369.04,196.90 370.09,196.92 371.11,196.95 372.10,196.98 373.06,197.01 373.99,197.05 374.90,197.10 375.78,197.15 376.62,197.21 377.44,197.27 378.23,197.34 378.99,197.41 379.72,197.48 380.42,197.56 381.09,197.65 381.72,197.73 382.33,197.82 382.91,197.92 383.46,198.02 383.97,198.12 384.46,198.22 384.91,198.33 385.34,198.43 385.73,198.55 386.09,198.66 386.42,198.77 386.72,198.89 386.99,199.01 387.23,199.13 387.43,199.25 387.61,199.38 387.75,199.50 387.86,199.62 387.94,199.75 387.98,199.87 388.00,200.00" fill="none" stroke="#c4706a" stroke-width="1.5" stroke-linejoin="round" stroke-linecap="round"/>
</svg>